%TF.GenerationSoftware,KiCad,Pcbnew,(5.1.9-0-10_14)*%
%TF.CreationDate,2022-10-10T16:55:22-07:00*%
%TF.ProjectId,integrator,696e7465-6772-4617-946f-722e6b696361,rev?*%
%TF.SameCoordinates,Original*%
%TF.FileFunction,Soldermask,Top*%
%TF.FilePolarity,Negative*%
%FSLAX46Y46*%
G04 Gerber Fmt 4.6, Leading zero omitted, Abs format (unit mm)*
G04 Created by KiCad (PCBNEW (5.1.9-0-10_14)) date 2022-10-10 16:55:22*
%MOMM*%
%LPD*%
G01*
G04 APERTURE LIST*
%ADD10C,0.125000*%
%ADD11C,0.152400*%
%ADD12C,0.100000*%
%ADD13C,0.500000*%
%ADD14C,0.375000*%
%ADD15C,0.200000*%
%ADD16C,2.000000*%
%ADD17C,1.700000*%
%ADD18O,1.700000X1.700000*%
%ADD19R,1.700000X1.700000*%
%ADD20C,0.900000*%
%ADD21O,1.000000X2.000000*%
%ADD22O,1.050000X2.100000*%
%ADD23C,0.650000*%
G04 APERTURE END LIST*
D10*
X155389476Y-102535714D02*
X155389476Y-103535714D01*
X155389476Y-102583333D02*
X155484714Y-102535714D01*
X155675190Y-102535714D01*
X155770428Y-102583333D01*
X155818047Y-102630952D01*
X155865666Y-102726190D01*
X155865666Y-103011904D01*
X155818047Y-103107142D01*
X155770428Y-103154761D01*
X155675190Y-103202380D01*
X155484714Y-103202380D01*
X155389476Y-103154761D01*
X156437095Y-103202380D02*
X156341857Y-103154761D01*
X156294238Y-103059523D01*
X156294238Y-102202380D01*
X157246619Y-103202380D02*
X157246619Y-102678571D01*
X157199000Y-102583333D01*
X157103761Y-102535714D01*
X156913285Y-102535714D01*
X156818047Y-102583333D01*
X157246619Y-103154761D02*
X157151380Y-103202380D01*
X156913285Y-103202380D01*
X156818047Y-103154761D01*
X156770428Y-103059523D01*
X156770428Y-102964285D01*
X156818047Y-102869047D01*
X156913285Y-102821428D01*
X157151380Y-102821428D01*
X157246619Y-102773809D01*
X157627571Y-102535714D02*
X157865666Y-103202380D01*
X158103761Y-102535714D02*
X157865666Y-103202380D01*
X157770428Y-103440476D01*
X157722809Y-103488095D01*
X157627571Y-103535714D01*
D11*
X170949000Y-102250000D02*
X170949000Y-99950000D01*
X174349000Y-102250000D02*
X170949000Y-102250000D01*
X174349000Y-99950000D02*
X174349000Y-102250000D01*
X170949000Y-99950000D02*
X174349000Y-99950000D01*
D10*
X159165666Y-101602380D02*
X159165666Y-100602380D01*
X159165666Y-100983333D02*
X159260904Y-100935714D01*
X159451380Y-100935714D01*
X159546619Y-100983333D01*
X159594238Y-101030952D01*
X159641857Y-101126190D01*
X159641857Y-101411904D01*
X159594238Y-101507142D01*
X159546619Y-101554761D01*
X159451380Y-101602380D01*
X159260904Y-101602380D01*
X159165666Y-101554761D01*
X160070428Y-100935714D02*
X160070428Y-101935714D01*
X160070428Y-100983333D02*
X160165666Y-100935714D01*
X160356142Y-100935714D01*
X160451380Y-100983333D01*
X160499000Y-101030952D01*
X160546619Y-101126190D01*
X160546619Y-101411904D01*
X160499000Y-101507142D01*
X160451380Y-101554761D01*
X160356142Y-101602380D01*
X160165666Y-101602380D01*
X160070428Y-101554761D01*
X160975190Y-101602380D02*
X160975190Y-100935714D01*
X160975190Y-101030952D02*
X161022809Y-100983333D01*
X161118047Y-100935714D01*
X161260904Y-100935714D01*
X161356142Y-100983333D01*
X161403761Y-101078571D01*
X161403761Y-101602380D01*
X161403761Y-101078571D02*
X161451380Y-100983333D01*
X161546619Y-100935714D01*
X161689476Y-100935714D01*
X161784714Y-100983333D01*
X161832333Y-101078571D01*
X161832333Y-101602380D01*
X146656142Y-101602380D02*
X146656142Y-100935714D01*
X146656142Y-101126190D02*
X146703761Y-101030952D01*
X146751380Y-100983333D01*
X146846619Y-100935714D01*
X146941857Y-100935714D01*
X147656142Y-101554761D02*
X147560904Y-101602380D01*
X147370428Y-101602380D01*
X147275190Y-101554761D01*
X147227571Y-101459523D01*
X147227571Y-101078571D01*
X147275190Y-100983333D01*
X147370428Y-100935714D01*
X147560904Y-100935714D01*
X147656142Y-100983333D01*
X147703761Y-101078571D01*
X147703761Y-101173809D01*
X147227571Y-101269047D01*
X148560904Y-101554761D02*
X148465666Y-101602380D01*
X148275190Y-101602380D01*
X148179952Y-101554761D01*
X148132333Y-101507142D01*
X148084714Y-101411904D01*
X148084714Y-101126190D01*
X148132333Y-101030952D01*
X148179952Y-100983333D01*
X148275190Y-100935714D01*
X148465666Y-100935714D01*
X148560904Y-100983333D01*
X149132333Y-101602380D02*
X149037095Y-101554761D01*
X148989476Y-101507142D01*
X148941857Y-101411904D01*
X148941857Y-101126190D01*
X148989476Y-101030952D01*
X149037095Y-100983333D01*
X149132333Y-100935714D01*
X149275190Y-100935714D01*
X149370428Y-100983333D01*
X149418047Y-101030952D01*
X149465666Y-101126190D01*
X149465666Y-101411904D01*
X149418047Y-101507142D01*
X149370428Y-101554761D01*
X149275190Y-101602380D01*
X149132333Y-101602380D01*
X149894238Y-101602380D02*
X149894238Y-100935714D01*
X149894238Y-101126190D02*
X149941857Y-101030952D01*
X149989476Y-100983333D01*
X150084714Y-100935714D01*
X150179952Y-100935714D01*
X150941857Y-101602380D02*
X150941857Y-100602380D01*
X150941857Y-101554761D02*
X150846619Y-101602380D01*
X150656142Y-101602380D01*
X150560904Y-101554761D01*
X150513285Y-101507142D01*
X150465666Y-101411904D01*
X150465666Y-101126190D01*
X150513285Y-101030952D01*
X150560904Y-100983333D01*
X150656142Y-100935714D01*
X150846619Y-100935714D01*
X150941857Y-100983333D01*
X141639476Y-100935714D02*
X142020428Y-100935714D01*
X141782333Y-101602380D02*
X141782333Y-100745238D01*
X141829952Y-100650000D01*
X141925190Y-100602380D01*
X142020428Y-100602380D01*
X142782333Y-100935714D02*
X142782333Y-101602380D01*
X142353761Y-100935714D02*
X142353761Y-101459523D01*
X142401380Y-101554761D01*
X142496619Y-101602380D01*
X142639476Y-101602380D01*
X142734714Y-101554761D01*
X142782333Y-101507142D01*
X143258523Y-100935714D02*
X143258523Y-101602380D01*
X143258523Y-101030952D02*
X143306142Y-100983333D01*
X143401380Y-100935714D01*
X143544238Y-100935714D01*
X143639476Y-100983333D01*
X143687095Y-101078571D01*
X143687095Y-101602380D01*
X144591857Y-101554761D02*
X144496619Y-101602380D01*
X144306142Y-101602380D01*
X144210904Y-101554761D01*
X144163285Y-101507142D01*
X144115666Y-101411904D01*
X144115666Y-101126190D01*
X144163285Y-101030952D01*
X144210904Y-100983333D01*
X144306142Y-100935714D01*
X144496619Y-100935714D01*
X144591857Y-100983333D01*
X144877571Y-100935714D02*
X145258523Y-100935714D01*
X145020428Y-100602380D02*
X145020428Y-101459523D01*
X145068047Y-101554761D01*
X145163285Y-101602380D01*
X145258523Y-101602380D01*
X161920428Y-99952380D02*
X161920428Y-98952380D01*
X162301380Y-98952380D01*
X162396619Y-99000000D01*
X162444238Y-99047619D01*
X162491857Y-99142857D01*
X162491857Y-99285714D01*
X162444238Y-99380952D01*
X162396619Y-99428571D01*
X162301380Y-99476190D01*
X161920428Y-99476190D01*
X163110904Y-98952380D02*
X163301380Y-98952380D01*
X163396619Y-99000000D01*
X163491857Y-99095238D01*
X163539476Y-99285714D01*
X163539476Y-99619047D01*
X163491857Y-99809523D01*
X163396619Y-99904761D01*
X163301380Y-99952380D01*
X163110904Y-99952380D01*
X163015666Y-99904761D01*
X162920428Y-99809523D01*
X162872809Y-99619047D01*
X162872809Y-99285714D01*
X162920428Y-99095238D01*
X163015666Y-99000000D01*
X163110904Y-98952380D01*
X164729952Y-99952380D02*
X164729952Y-98952380D01*
X165206142Y-99952380D02*
X165206142Y-98952380D01*
X165777571Y-99952380D01*
X165777571Y-98952380D01*
X149449000Y-99952380D02*
X149449000Y-98952380D01*
X149829952Y-98952380D01*
X149925190Y-99000000D01*
X149972809Y-99047619D01*
X150020428Y-99142857D01*
X150020428Y-99285714D01*
X149972809Y-99380952D01*
X149925190Y-99428571D01*
X149829952Y-99476190D01*
X149449000Y-99476190D01*
X150639476Y-98952380D02*
X150829952Y-98952380D01*
X150925190Y-99000000D01*
X151020428Y-99095238D01*
X151068047Y-99285714D01*
X151068047Y-99619047D01*
X151020428Y-99809523D01*
X150925190Y-99904761D01*
X150829952Y-99952380D01*
X150639476Y-99952380D01*
X150544238Y-99904761D01*
X150449000Y-99809523D01*
X150401380Y-99619047D01*
X150401380Y-99285714D01*
X150449000Y-99095238D01*
X150544238Y-99000000D01*
X150639476Y-98952380D01*
X152068047Y-99952380D02*
X151734714Y-99476190D01*
X151496619Y-99952380D02*
X151496619Y-98952380D01*
X151877571Y-98952380D01*
X151972809Y-99000000D01*
X152020428Y-99047619D01*
X152068047Y-99142857D01*
X152068047Y-99285714D01*
X152020428Y-99380952D01*
X151972809Y-99428571D01*
X151877571Y-99476190D01*
X151496619Y-99476190D01*
X152353761Y-98952380D02*
X152925190Y-98952380D01*
X152639476Y-99952380D02*
X152639476Y-98952380D01*
X153972809Y-99666666D02*
X154449000Y-99666666D01*
X153877571Y-99952380D02*
X154210904Y-98952380D01*
X154544238Y-99952380D01*
X155782333Y-99952380D02*
X155687095Y-99904761D01*
X155639476Y-99857142D01*
X155591857Y-99761904D01*
X155591857Y-99476190D01*
X155639476Y-99380952D01*
X155687095Y-99333333D01*
X155782333Y-99285714D01*
X155925190Y-99285714D01*
X156020428Y-99333333D01*
X156068047Y-99380952D01*
X156115666Y-99476190D01*
X156115666Y-99761904D01*
X156068047Y-99857142D01*
X156020428Y-99904761D01*
X155925190Y-99952380D01*
X155782333Y-99952380D01*
X156544238Y-99952380D02*
X156544238Y-99285714D01*
X156544238Y-99476190D02*
X156591857Y-99380952D01*
X156639476Y-99333333D01*
X156734714Y-99285714D01*
X156829952Y-99285714D01*
X158258523Y-99428571D02*
X158401380Y-99476190D01*
X158449000Y-99523809D01*
X158496619Y-99619047D01*
X158496619Y-99761904D01*
X158449000Y-99857142D01*
X158401380Y-99904761D01*
X158306142Y-99952380D01*
X157925190Y-99952380D01*
X157925190Y-98952380D01*
X158258523Y-98952380D01*
X158353761Y-99000000D01*
X158401380Y-99047619D01*
X158449000Y-99142857D01*
X158449000Y-99238095D01*
X158401380Y-99333333D01*
X158353761Y-99380952D01*
X158258523Y-99428571D01*
X157925190Y-99428571D01*
D11*
X141699000Y-61800000D02*
X141449000Y-61000000D01*
X142499000Y-60200000D02*
X141699000Y-61800000D01*
X143399000Y-61800000D02*
X142499000Y-60200000D01*
X144099000Y-60650000D02*
X143399000Y-61800000D01*
X145199000Y-61800000D02*
X145149000Y-61700000D01*
X145199000Y-61800000D02*
X145199000Y-61800000D01*
X146949000Y-61800000D02*
X146399000Y-60800000D01*
X147699000Y-60250000D02*
X146949000Y-61800000D01*
X148599000Y-61800000D02*
X147699000Y-60250000D01*
X149399000Y-60250000D02*
X148599000Y-61800000D01*
X150099000Y-61150000D02*
X149399000Y-60250000D01*
X166299000Y-60150000D02*
X166749000Y-60900000D01*
X165449000Y-61650000D02*
X166299000Y-60150000D01*
X164749000Y-60250000D02*
X165449000Y-61650000D01*
X163999000Y-61650000D02*
X164749000Y-60250000D01*
X163299000Y-60250000D02*
X163999000Y-61650000D01*
X162799000Y-61000000D02*
X163299000Y-60250000D01*
X161499000Y-60250000D02*
X161899000Y-60900000D01*
X161099000Y-61050000D02*
X161499000Y-60250000D01*
X159849000Y-60300000D02*
X160399000Y-61200000D01*
X159249000Y-61100000D02*
X159849000Y-60300000D01*
D12*
G36*
X165254523Y-50872803D02*
G01*
X165458111Y-51439417D01*
X164752613Y-51317872D01*
X164878555Y-51594709D01*
X164147176Y-51376571D01*
X164299000Y-51750000D01*
X163042367Y-51310257D01*
X163879812Y-51344683D01*
X163521862Y-50974721D01*
X164604257Y-51150569D01*
X164329958Y-50706429D01*
X165254523Y-50872803D01*
G37*
X165254523Y-50872803D02*
X165458111Y-51439417D01*
X164752613Y-51317872D01*
X164878555Y-51594709D01*
X164147176Y-51376571D01*
X164299000Y-51750000D01*
X163042367Y-51310257D01*
X163879812Y-51344683D01*
X163521862Y-50974721D01*
X164604257Y-51150569D01*
X164329958Y-50706429D01*
X165254523Y-50872803D01*
G36*
X165204523Y-50922803D02*
G01*
X165408111Y-51489417D01*
X164702613Y-51367872D01*
X164828555Y-51644709D01*
X164097176Y-51426571D01*
X164249000Y-51800000D01*
X162992367Y-51360257D01*
X163829812Y-51394683D01*
X163471862Y-51024721D01*
X164554257Y-51200569D01*
X164279958Y-50756429D01*
X165204523Y-50922803D01*
G37*
X165204523Y-50922803D02*
X165408111Y-51489417D01*
X164702613Y-51367872D01*
X164828555Y-51644709D01*
X164097176Y-51426571D01*
X164249000Y-51800000D01*
X162992367Y-51360257D01*
X163829812Y-51394683D01*
X163471862Y-51024721D01*
X164554257Y-51200569D01*
X164279958Y-50756429D01*
X165204523Y-50922803D01*
G36*
X144999000Y-51450000D02*
G01*
X144199000Y-51200000D01*
X144449000Y-51650000D01*
X143449000Y-51200000D01*
X143599000Y-51700000D01*
X142749000Y-51300000D01*
X142699000Y-50700000D01*
X143349000Y-51000000D01*
X143299000Y-50700000D01*
X143949000Y-51100000D01*
X143899000Y-50700000D01*
X144999000Y-51450000D01*
G37*
X144999000Y-51450000D02*
X144199000Y-51200000D01*
X144449000Y-51650000D01*
X143449000Y-51200000D01*
X143599000Y-51700000D01*
X142749000Y-51300000D01*
X142699000Y-50700000D01*
X143349000Y-51000000D01*
X143299000Y-50700000D01*
X143949000Y-51100000D01*
X143899000Y-50700000D01*
X144999000Y-51450000D01*
D11*
X158044362Y-61500000D02*
G75*
G03*
X158044362Y-61500000I-1345362J0D01*
G01*
X153911440Y-61500000D02*
G75*
G03*
X153911440Y-61500000I-1312440J0D01*
G01*
X152399000Y-67500000D02*
X152299000Y-67400000D01*
X152399000Y-67950000D02*
X152399000Y-67500000D01*
X152299000Y-67950000D02*
X152399000Y-67950000D01*
X152299000Y-68650000D02*
X152299000Y-67950000D01*
X152299000Y-67900000D02*
X152299000Y-68650000D01*
X152149000Y-67900000D02*
X152299000Y-67900000D01*
X152149000Y-67450000D02*
X152149000Y-67900000D01*
X152299000Y-67450000D02*
X152149000Y-67450000D01*
X152299000Y-66850000D02*
X152299000Y-67450000D01*
X151349000Y-67350000D02*
X151199000Y-67200000D01*
X151349000Y-67700000D02*
X151349000Y-67350000D01*
X151249000Y-68350000D02*
X151249000Y-67800000D01*
X151249000Y-67800000D02*
X151249000Y-68350000D01*
X151199000Y-67750000D02*
X151249000Y-67800000D01*
X151199000Y-67250000D02*
X151199000Y-67750000D01*
X151249000Y-67300000D02*
X151199000Y-67250000D01*
X151249000Y-66650000D02*
X151249000Y-67300000D01*
X158049000Y-67200000D02*
X157949000Y-67200000D01*
X158049000Y-67450000D02*
X158049000Y-67200000D01*
X157949000Y-68200000D02*
X158049000Y-67450000D01*
X157949000Y-67550000D02*
X157949000Y-68200000D01*
X157749000Y-67650000D02*
X157949000Y-67550000D01*
X157749000Y-67350000D02*
X157749000Y-67650000D01*
X157949000Y-67200000D02*
X157749000Y-67350000D01*
X157949000Y-66600000D02*
X157949000Y-67200000D01*
X156799000Y-67450000D02*
X156799000Y-66850000D01*
X156949000Y-67400000D02*
X156799000Y-67450000D01*
X156949000Y-67850000D02*
X156949000Y-67400000D01*
X156749000Y-68000000D02*
X156949000Y-67850000D01*
X156749000Y-68750000D02*
X156749000Y-68000000D01*
X156599000Y-68750000D02*
X156749000Y-68750000D01*
X156599000Y-67950000D02*
X156599000Y-68750000D01*
X156499000Y-67950000D02*
X156599000Y-67950000D01*
X156499000Y-67500000D02*
X156499000Y-67950000D01*
X156649000Y-67450000D02*
X156499000Y-67500000D01*
X156649000Y-66850000D02*
X156649000Y-67450000D01*
X154349000Y-67600000D02*
X154349000Y-67000000D01*
X154549000Y-67600000D02*
X154349000Y-67600000D01*
X154549000Y-68150000D02*
X154549000Y-67600000D01*
X154499000Y-68200000D02*
X154549000Y-68150000D01*
X154449000Y-68800000D02*
X154449000Y-68200000D01*
X154249000Y-68800000D02*
X154449000Y-68800000D01*
X154249000Y-68200000D02*
X154249000Y-68800000D01*
X154049000Y-68200000D02*
X154249000Y-68200000D01*
X154049000Y-67900000D02*
X154049000Y-68200000D01*
X154049000Y-67600000D02*
X154049000Y-67900000D01*
X154249000Y-67600000D02*
X154049000Y-67600000D01*
X154249000Y-67000000D02*
X154249000Y-67600000D01*
D12*
G36*
X144099000Y-60300000D02*
G01*
X143199000Y-60400000D01*
X143099000Y-60100000D01*
X144049000Y-60000000D01*
X144099000Y-60300000D01*
G37*
X144099000Y-60300000D02*
X143199000Y-60400000D01*
X143099000Y-60100000D01*
X144049000Y-60000000D01*
X144099000Y-60300000D01*
G36*
X149849000Y-59350000D02*
G01*
X149749000Y-59550000D01*
X149274000Y-59625000D01*
X149124000Y-59575000D01*
X148549000Y-59700000D01*
X146449000Y-59950000D01*
X146449000Y-59700000D01*
X148599000Y-59400000D01*
X149124000Y-59425000D01*
X149174000Y-59275000D01*
X149649000Y-59250000D01*
X149849000Y-59350000D01*
G37*
X149849000Y-59350000D02*
X149749000Y-59550000D01*
X149274000Y-59625000D01*
X149124000Y-59575000D01*
X148549000Y-59700000D01*
X146449000Y-59950000D01*
X146449000Y-59700000D01*
X148599000Y-59400000D01*
X149124000Y-59425000D01*
X149174000Y-59275000D01*
X149649000Y-59250000D01*
X149849000Y-59350000D01*
G36*
X165449000Y-65650000D02*
G01*
X164782828Y-65684850D01*
X164776999Y-65429966D01*
X165393931Y-65386433D01*
X165449000Y-65650000D01*
G37*
X165449000Y-65650000D02*
X164782828Y-65684850D01*
X164776999Y-65429966D01*
X165393931Y-65386433D01*
X165449000Y-65650000D01*
G36*
X158212743Y-65614416D02*
G01*
X158279348Y-65524618D01*
X161899000Y-65486433D01*
X162049000Y-65750000D01*
X158424216Y-65854790D01*
X158186696Y-65762138D01*
X158169331Y-65860618D01*
X157676927Y-65773794D01*
X157702975Y-65626073D01*
X158033147Y-65481206D01*
X158212743Y-65614416D01*
G37*
X158212743Y-65614416D02*
X158279348Y-65524618D01*
X161899000Y-65486433D01*
X162049000Y-65750000D01*
X158424216Y-65854790D01*
X158186696Y-65762138D01*
X158169331Y-65860618D01*
X157676927Y-65773794D01*
X157702975Y-65626073D01*
X158033147Y-65481206D01*
X158212743Y-65614416D01*
G36*
X161470411Y-45267469D02*
G01*
X160885603Y-45680385D01*
X161170411Y-45787084D01*
X160499000Y-46150000D01*
X160870411Y-46306699D01*
X159670892Y-46884327D01*
X160287398Y-46316507D01*
X159772686Y-46308013D01*
X160662398Y-45666988D01*
X160154385Y-45546891D01*
X160925795Y-45010770D01*
X161470411Y-45267469D01*
G37*
X161470411Y-45267469D02*
X160885603Y-45680385D01*
X161170411Y-45787084D01*
X160499000Y-46150000D01*
X160870411Y-46306699D01*
X159670892Y-46884327D01*
X160287398Y-46316507D01*
X159772686Y-46308013D01*
X160662398Y-45666988D01*
X160154385Y-45546891D01*
X160925795Y-45010770D01*
X161470411Y-45267469D01*
G36*
X146812397Y-45576795D02*
G01*
X146919096Y-45291987D01*
X147282012Y-45963398D01*
X147438711Y-45591987D01*
X148016339Y-46791506D01*
X147448519Y-46175000D01*
X147440025Y-46689712D01*
X146799000Y-45800000D01*
X146678903Y-46308013D01*
X146142782Y-45536603D01*
X146399481Y-44991987D01*
X146812397Y-45576795D01*
G37*
X146812397Y-45576795D02*
X146919096Y-45291987D01*
X147282012Y-45963398D01*
X147438711Y-45591987D01*
X148016339Y-46791506D01*
X147448519Y-46175000D01*
X147440025Y-46689712D01*
X146799000Y-45800000D01*
X146678903Y-46308013D01*
X146142782Y-45536603D01*
X146399481Y-44991987D01*
X146812397Y-45576795D01*
G36*
X154299000Y-45100000D02*
G01*
X154599000Y-45050000D01*
X154199000Y-45700000D01*
X154599000Y-45650000D01*
X153849000Y-46750000D01*
X154099000Y-45950000D01*
X153649000Y-46200000D01*
X154099000Y-45200000D01*
X153599000Y-45350000D01*
X153999000Y-44500000D01*
X154599000Y-44450000D01*
X154299000Y-45100000D01*
G37*
X154299000Y-45100000D02*
X154599000Y-45050000D01*
X154199000Y-45700000D01*
X154599000Y-45650000D01*
X153849000Y-46750000D01*
X154099000Y-45950000D01*
X153649000Y-46200000D01*
X154099000Y-45200000D01*
X153599000Y-45350000D01*
X153999000Y-44500000D01*
X154599000Y-44450000D01*
X154299000Y-45100000D01*
D13*
X179352113Y-139800000D02*
G75*
G03*
X179352113Y-139800000I-403113J0D01*
G01*
D12*
G36*
X171549000Y-139800000D02*
G01*
X171599000Y-140700000D01*
X170499000Y-140650000D01*
X168549000Y-142300000D01*
X169299000Y-143750000D01*
X167549000Y-145450000D01*
X165049000Y-146200000D01*
X165449000Y-144250000D01*
X167849000Y-143700000D01*
X167899000Y-141950000D01*
X170349000Y-140550000D01*
X169999000Y-139900000D01*
X170549000Y-139750000D01*
X171549000Y-139800000D01*
G37*
X171549000Y-139800000D02*
X171599000Y-140700000D01*
X170499000Y-140650000D01*
X168549000Y-142300000D01*
X169299000Y-143750000D01*
X167549000Y-145450000D01*
X165049000Y-146200000D01*
X165449000Y-144250000D01*
X167849000Y-143700000D01*
X167899000Y-141950000D01*
X170349000Y-140550000D01*
X169999000Y-139900000D01*
X170549000Y-139750000D01*
X171549000Y-139800000D01*
G36*
X135399000Y-122450000D02*
G01*
X135349000Y-123300000D01*
X129249000Y-122700000D01*
X129349000Y-122350000D01*
X129399000Y-121850000D01*
X135399000Y-122450000D01*
G37*
X135399000Y-122450000D02*
X135349000Y-123300000D01*
X129249000Y-122700000D01*
X129349000Y-122350000D01*
X129399000Y-121850000D01*
X135399000Y-122450000D01*
G36*
X136799000Y-135550000D02*
G01*
X135899000Y-136850000D01*
X131899000Y-136050000D01*
X131699000Y-135300000D01*
X136799000Y-135550000D01*
G37*
X136799000Y-135550000D02*
X135899000Y-136850000D01*
X131899000Y-136050000D01*
X131699000Y-135300000D01*
X136799000Y-135550000D01*
G36*
X137899000Y-134000000D02*
G01*
X137549000Y-134400000D01*
X131649000Y-134950000D01*
X131399000Y-134000000D01*
X136999000Y-132700000D01*
X137899000Y-134000000D01*
G37*
X137899000Y-134000000D02*
X137549000Y-134400000D01*
X131649000Y-134950000D01*
X131399000Y-134000000D01*
X136999000Y-132700000D01*
X137899000Y-134000000D01*
G36*
X136499000Y-131650000D02*
G01*
X131299000Y-133600000D01*
X130999000Y-132350000D01*
X136049000Y-131000000D01*
X136499000Y-131650000D01*
G37*
X136499000Y-131650000D02*
X131299000Y-133600000D01*
X130999000Y-132350000D01*
X136049000Y-131000000D01*
X136499000Y-131650000D01*
G36*
X138099000Y-141800000D02*
G01*
X136449000Y-140350000D01*
X138099000Y-138900000D01*
X138099000Y-141800000D01*
G37*
X138099000Y-141800000D02*
X136449000Y-140350000D01*
X138099000Y-138900000D01*
X138099000Y-141800000D01*
G36*
X136449000Y-140350000D02*
G01*
X138149000Y-141800000D01*
X139749000Y-143400000D01*
X138849000Y-144700000D01*
X140099000Y-145700000D01*
X138349000Y-147100000D01*
X129399000Y-144700000D01*
X128249000Y-142900000D01*
X132449000Y-141200000D01*
X133949000Y-143500000D01*
X133699000Y-143850000D01*
X134349000Y-145200000D01*
X137249000Y-145150000D01*
X137649000Y-143000000D01*
X135399000Y-141450000D01*
X134999000Y-141700000D01*
X134249000Y-140500000D01*
X136249000Y-139750000D01*
X136449000Y-140350000D01*
G37*
X136449000Y-140350000D02*
X138149000Y-141800000D01*
X139749000Y-143400000D01*
X138849000Y-144700000D01*
X140099000Y-145700000D01*
X138349000Y-147100000D01*
X129399000Y-144700000D01*
X128249000Y-142900000D01*
X132449000Y-141200000D01*
X133949000Y-143500000D01*
X133699000Y-143850000D01*
X134349000Y-145200000D01*
X137249000Y-145150000D01*
X137649000Y-143000000D01*
X135399000Y-141450000D01*
X134999000Y-141700000D01*
X134249000Y-140500000D01*
X136249000Y-139750000D01*
X136449000Y-140350000D01*
G36*
X131649000Y-135150000D02*
G01*
X129049000Y-135950000D01*
X128449000Y-134950000D01*
X131299000Y-133800000D01*
X131649000Y-135150000D01*
G37*
X131649000Y-135150000D02*
X129049000Y-135950000D01*
X128449000Y-134950000D01*
X131299000Y-133800000D01*
X131649000Y-135150000D01*
G36*
X133849000Y-139850000D02*
G01*
X132349000Y-140950000D01*
X131999000Y-140550000D01*
X133649000Y-139250000D01*
X133849000Y-139850000D01*
G37*
X133849000Y-139850000D02*
X132349000Y-140950000D01*
X131999000Y-140550000D01*
X133649000Y-139250000D01*
X133849000Y-139850000D01*
G36*
X134749000Y-141200000D02*
G01*
X133349000Y-142550000D01*
X132949000Y-142000000D01*
X134399000Y-140700000D01*
X134749000Y-141200000D01*
G37*
X134749000Y-141200000D02*
X133349000Y-142550000D01*
X132949000Y-142000000D01*
X134399000Y-140700000D01*
X134749000Y-141200000D01*
G36*
X136749000Y-144000000D02*
G01*
X136599000Y-144650000D01*
X135899000Y-144250000D01*
X136199000Y-143650000D01*
X136749000Y-144000000D01*
G37*
X136749000Y-144000000D02*
X136599000Y-144650000D01*
X135899000Y-144250000D01*
X136199000Y-143650000D01*
X136749000Y-144000000D01*
G36*
X137299000Y-142900000D02*
G01*
X137049000Y-143550000D01*
X136499000Y-143200000D01*
X136699000Y-142550000D01*
X137299000Y-142900000D01*
G37*
X137299000Y-142900000D02*
X137049000Y-143550000D01*
X136499000Y-143200000D01*
X136699000Y-142550000D01*
X137299000Y-142900000D01*
G36*
X153799000Y-136700000D02*
G01*
X153299000Y-137650000D01*
X152699000Y-137150000D01*
X153149000Y-136450000D01*
X153799000Y-136700000D01*
G37*
X153799000Y-136700000D02*
X153299000Y-137650000D01*
X152699000Y-137150000D01*
X153149000Y-136450000D01*
X153799000Y-136700000D01*
G36*
X152899000Y-136800000D02*
G01*
X152399000Y-137450000D01*
X151649000Y-137000000D01*
X151799000Y-136450000D01*
X152899000Y-136800000D01*
G37*
X152899000Y-136800000D02*
X152399000Y-137450000D01*
X151649000Y-137000000D01*
X151799000Y-136450000D01*
X152899000Y-136800000D01*
G36*
X151949000Y-136150000D02*
G01*
X151599000Y-136750000D01*
X150499000Y-136450000D01*
X150599000Y-135950000D01*
X151949000Y-136150000D01*
G37*
X151949000Y-136150000D02*
X151599000Y-136750000D01*
X150499000Y-136450000D01*
X150599000Y-135950000D01*
X151949000Y-136150000D01*
G36*
X134849000Y-157950000D02*
G01*
X134049000Y-158350000D01*
X133249000Y-158150000D01*
X133999000Y-157700000D01*
X134849000Y-157950000D01*
G37*
X134849000Y-157950000D02*
X134049000Y-158350000D01*
X133249000Y-158150000D01*
X133999000Y-157700000D01*
X134849000Y-157950000D01*
G36*
X134399000Y-158550000D02*
G01*
X133699000Y-159400000D01*
X133199000Y-159000000D01*
X133849000Y-158400000D01*
X134399000Y-158550000D01*
G37*
X134399000Y-158550000D02*
X133699000Y-159400000D01*
X133199000Y-159000000D01*
X133849000Y-158400000D01*
X134399000Y-158550000D01*
G36*
X133049000Y-158950000D02*
G01*
X132549000Y-159900000D01*
X132049000Y-159650000D01*
X132649000Y-158750000D01*
X133049000Y-158950000D01*
G37*
X133049000Y-158950000D02*
X132549000Y-159900000D01*
X132049000Y-159650000D01*
X132649000Y-158750000D01*
X133049000Y-158950000D01*
G36*
X177699000Y-148800000D02*
G01*
X180149000Y-149000000D01*
X181599000Y-149450000D01*
X182349000Y-150450000D01*
X182399000Y-150550000D01*
X182399000Y-150650000D01*
X181949000Y-150650000D01*
X181599000Y-150500000D01*
X179549000Y-149950000D01*
X175649000Y-150600000D01*
X173299000Y-146800000D01*
X176199000Y-145350000D01*
X177699000Y-148800000D01*
G37*
X177699000Y-148800000D02*
X180149000Y-149000000D01*
X181599000Y-149450000D01*
X182349000Y-150450000D01*
X182399000Y-150550000D01*
X182399000Y-150650000D01*
X181949000Y-150650000D01*
X181599000Y-150500000D01*
X179549000Y-149950000D01*
X175649000Y-150600000D01*
X173299000Y-146800000D01*
X176199000Y-145350000D01*
X177699000Y-148800000D01*
G36*
X159699000Y-151500000D02*
G01*
X153549000Y-154200000D01*
X152899000Y-152000000D01*
X152999000Y-151850000D01*
X152749000Y-151600000D01*
X151649000Y-148200000D01*
X151849000Y-148000000D01*
X154399000Y-151250000D01*
X158349000Y-147900000D01*
X159699000Y-151500000D01*
G37*
X159699000Y-151500000D02*
X153549000Y-154200000D01*
X152899000Y-152000000D01*
X152999000Y-151850000D01*
X152749000Y-151600000D01*
X151649000Y-148200000D01*
X151849000Y-148000000D01*
X154399000Y-151250000D01*
X158349000Y-147900000D01*
X159699000Y-151500000D01*
G36*
X146349000Y-116250000D02*
G01*
X146149000Y-116800000D01*
X145149000Y-116350000D01*
X145399000Y-115900000D01*
X146349000Y-116250000D01*
G37*
X146349000Y-116250000D02*
X146149000Y-116800000D01*
X145149000Y-116350000D01*
X145399000Y-115900000D01*
X146349000Y-116250000D01*
G36*
X144899000Y-115600000D02*
G01*
X144649000Y-116450000D01*
X143549000Y-116100000D01*
X143699000Y-115300000D01*
X144899000Y-115600000D01*
G37*
X144899000Y-115600000D02*
X144649000Y-116450000D01*
X143549000Y-116100000D01*
X143699000Y-115300000D01*
X144899000Y-115600000D01*
G36*
X143199000Y-116000000D02*
G01*
X142199000Y-116100000D01*
X142149000Y-115350000D01*
X143149000Y-115250000D01*
X143199000Y-116000000D01*
G37*
X143199000Y-116000000D02*
X142199000Y-116100000D01*
X142149000Y-115350000D01*
X143149000Y-115250000D01*
X143199000Y-116000000D01*
G36*
X146599000Y-125750000D02*
G01*
X145299000Y-126100000D01*
X145049000Y-125300000D01*
X146299000Y-124850000D01*
X146599000Y-125750000D01*
G37*
X146599000Y-125750000D02*
X145299000Y-126100000D01*
X145049000Y-125300000D01*
X146299000Y-124850000D01*
X146599000Y-125750000D01*
G36*
X145999000Y-123950000D02*
G01*
X144849000Y-124350000D01*
X144599000Y-123300000D01*
X145599000Y-122950000D01*
X145999000Y-123950000D01*
G37*
X145999000Y-123950000D02*
X144849000Y-124350000D01*
X144599000Y-123300000D01*
X145599000Y-122950000D01*
X145999000Y-123950000D01*
G36*
X145299000Y-122000000D02*
G01*
X144349000Y-122250000D01*
X144149000Y-121400000D01*
X144999000Y-121150000D01*
X145299000Y-122000000D01*
G37*
X145299000Y-122000000D02*
X144349000Y-122250000D01*
X144149000Y-121400000D01*
X144999000Y-121150000D01*
X145299000Y-122000000D01*
D14*
X177420428Y-60566071D02*
X177420428Y-59066071D01*
X177991857Y-59066071D01*
X178134714Y-59137500D01*
X178206142Y-59208928D01*
X178277571Y-59351785D01*
X178277571Y-59566071D01*
X178206142Y-59708928D01*
X178134714Y-59780357D01*
X177991857Y-59851785D01*
X177420428Y-59851785D01*
X179206142Y-59066071D02*
X179491857Y-59066071D01*
X179634714Y-59137500D01*
X179777571Y-59280357D01*
X179849000Y-59566071D01*
X179849000Y-60066071D01*
X179777571Y-60351785D01*
X179634714Y-60494642D01*
X179491857Y-60566071D01*
X179206142Y-60566071D01*
X179063285Y-60494642D01*
X178920428Y-60351785D01*
X178849000Y-60066071D01*
X178849000Y-59566071D01*
X178920428Y-59280357D01*
X179063285Y-59137500D01*
X179206142Y-59066071D01*
X177813285Y-63191071D02*
X177813285Y-61691071D01*
X178527571Y-63191071D02*
X178527571Y-61691071D01*
X179384714Y-63191071D01*
X179384714Y-61691071D01*
D15*
X146162095Y-51915476D02*
X146162095Y-50665476D01*
X146638285Y-50665476D01*
X146757333Y-50725000D01*
X146816857Y-50784523D01*
X146876380Y-50903571D01*
X146876380Y-51082142D01*
X146816857Y-51201190D01*
X146757333Y-51260714D01*
X146638285Y-51320238D01*
X146162095Y-51320238D01*
X147590666Y-51915476D02*
X147471619Y-51855952D01*
X147412095Y-51796428D01*
X147352571Y-51677380D01*
X147352571Y-51320238D01*
X147412095Y-51201190D01*
X147471619Y-51141666D01*
X147590666Y-51082142D01*
X147769238Y-51082142D01*
X147888285Y-51141666D01*
X147947809Y-51201190D01*
X148007333Y-51320238D01*
X148007333Y-51677380D01*
X147947809Y-51796428D01*
X147888285Y-51855952D01*
X147769238Y-51915476D01*
X147590666Y-51915476D01*
X149078761Y-51855952D02*
X148959714Y-51915476D01*
X148721619Y-51915476D01*
X148602571Y-51855952D01*
X148543047Y-51796428D01*
X148483523Y-51677380D01*
X148483523Y-51320238D01*
X148543047Y-51201190D01*
X148602571Y-51141666D01*
X148721619Y-51082142D01*
X148959714Y-51082142D01*
X149078761Y-51141666D01*
X149614476Y-51915476D02*
X149614476Y-50665476D01*
X149733523Y-51439285D02*
X150090666Y-51915476D01*
X150090666Y-51082142D02*
X149614476Y-51558333D01*
X151102571Y-51855952D02*
X150983523Y-51915476D01*
X150745428Y-51915476D01*
X150626380Y-51855952D01*
X150566857Y-51736904D01*
X150566857Y-51260714D01*
X150626380Y-51141666D01*
X150745428Y-51082142D01*
X150983523Y-51082142D01*
X151102571Y-51141666D01*
X151162095Y-51260714D01*
X151162095Y-51379761D01*
X150566857Y-51498809D01*
X151519238Y-51082142D02*
X151995428Y-51082142D01*
X151697809Y-50665476D02*
X151697809Y-51736904D01*
X151757333Y-51855952D01*
X151876380Y-51915476D01*
X151995428Y-51915476D01*
X153364476Y-51915476D02*
X153364476Y-50665476D01*
X153959714Y-51082142D02*
X153959714Y-51915476D01*
X153959714Y-51201190D02*
X154019238Y-51141666D01*
X154138285Y-51082142D01*
X154316857Y-51082142D01*
X154435904Y-51141666D01*
X154495428Y-51260714D01*
X154495428Y-51915476D01*
X154912095Y-51082142D02*
X155388285Y-51082142D01*
X155090666Y-50665476D02*
X155090666Y-51736904D01*
X155150190Y-51855952D01*
X155269238Y-51915476D01*
X155388285Y-51915476D01*
X156281142Y-51855952D02*
X156162095Y-51915476D01*
X155924000Y-51915476D01*
X155804952Y-51855952D01*
X155745428Y-51736904D01*
X155745428Y-51260714D01*
X155804952Y-51141666D01*
X155924000Y-51082142D01*
X156162095Y-51082142D01*
X156281142Y-51141666D01*
X156340666Y-51260714D01*
X156340666Y-51379761D01*
X155745428Y-51498809D01*
X157412095Y-51082142D02*
X157412095Y-52094047D01*
X157352571Y-52213095D01*
X157293047Y-52272619D01*
X157174000Y-52332142D01*
X156995428Y-52332142D01*
X156876380Y-52272619D01*
X157412095Y-51855952D02*
X157293047Y-51915476D01*
X157054952Y-51915476D01*
X156935904Y-51855952D01*
X156876380Y-51796428D01*
X156816857Y-51677380D01*
X156816857Y-51320238D01*
X156876380Y-51201190D01*
X156935904Y-51141666D01*
X157054952Y-51082142D01*
X157293047Y-51082142D01*
X157412095Y-51141666D01*
X158007333Y-51915476D02*
X158007333Y-51082142D01*
X158007333Y-51320238D02*
X158066857Y-51201190D01*
X158126380Y-51141666D01*
X158245428Y-51082142D01*
X158364476Y-51082142D01*
X159316857Y-51915476D02*
X159316857Y-51260714D01*
X159257333Y-51141666D01*
X159138285Y-51082142D01*
X158900190Y-51082142D01*
X158781142Y-51141666D01*
X159316857Y-51855952D02*
X159197809Y-51915476D01*
X158900190Y-51915476D01*
X158781142Y-51855952D01*
X158721619Y-51736904D01*
X158721619Y-51617857D01*
X158781142Y-51498809D01*
X158900190Y-51439285D01*
X159197809Y-51439285D01*
X159316857Y-51379761D01*
X159733523Y-51082142D02*
X160209714Y-51082142D01*
X159912095Y-50665476D02*
X159912095Y-51736904D01*
X159971619Y-51855952D01*
X160090666Y-51915476D01*
X160209714Y-51915476D01*
X160804952Y-51915476D02*
X160685904Y-51855952D01*
X160626380Y-51796428D01*
X160566857Y-51677380D01*
X160566857Y-51320238D01*
X160626380Y-51201190D01*
X160685904Y-51141666D01*
X160804952Y-51082142D01*
X160983523Y-51082142D01*
X161102571Y-51141666D01*
X161162095Y-51201190D01*
X161221619Y-51320238D01*
X161221619Y-51677380D01*
X161162095Y-51796428D01*
X161102571Y-51855952D01*
X160983523Y-51915476D01*
X160804952Y-51915476D01*
X161757333Y-51915476D02*
X161757333Y-51082142D01*
X161757333Y-51320238D02*
X161816857Y-51201190D01*
X161876380Y-51141666D01*
X161995428Y-51082142D01*
X162114476Y-51082142D01*
X143721619Y-53990476D02*
X143721619Y-52740476D01*
X143721619Y-53216666D02*
X143840666Y-53157142D01*
X144078761Y-53157142D01*
X144197809Y-53216666D01*
X144257333Y-53276190D01*
X144316857Y-53395238D01*
X144316857Y-53752380D01*
X144257333Y-53871428D01*
X144197809Y-53930952D01*
X144078761Y-53990476D01*
X143840666Y-53990476D01*
X143721619Y-53930952D01*
X144852571Y-53990476D02*
X144852571Y-53157142D01*
X144852571Y-52740476D02*
X144793047Y-52800000D01*
X144852571Y-52859523D01*
X144912095Y-52800000D01*
X144852571Y-52740476D01*
X144852571Y-52859523D01*
X145269238Y-53157142D02*
X145745428Y-53157142D01*
X145447809Y-52740476D02*
X145447809Y-53811904D01*
X145507333Y-53930952D01*
X145626380Y-53990476D01*
X145745428Y-53990476D01*
X146162095Y-53871428D02*
X146221619Y-53930952D01*
X146162095Y-53990476D01*
X146102571Y-53930952D01*
X146162095Y-53871428D01*
X146162095Y-53990476D01*
X146935904Y-53990476D02*
X146816857Y-53930952D01*
X146757333Y-53811904D01*
X146757333Y-52740476D01*
X147293047Y-53157142D02*
X147590666Y-53990476D01*
X147888285Y-53157142D02*
X147590666Y-53990476D01*
X147471619Y-54288095D01*
X147412095Y-54347619D01*
X147293047Y-54407142D01*
X149257333Y-52680952D02*
X148185904Y-54288095D01*
X149674000Y-53157142D02*
X149674000Y-54407142D01*
X149674000Y-53216666D02*
X149793047Y-53157142D01*
X150031142Y-53157142D01*
X150150190Y-53216666D01*
X150209714Y-53276190D01*
X150269238Y-53395238D01*
X150269238Y-53752380D01*
X150209714Y-53871428D01*
X150150190Y-53930952D01*
X150031142Y-53990476D01*
X149793047Y-53990476D01*
X149674000Y-53930952D01*
X150983523Y-53990476D02*
X150864476Y-53930952D01*
X150804952Y-53871428D01*
X150745428Y-53752380D01*
X150745428Y-53395238D01*
X150804952Y-53276190D01*
X150864476Y-53216666D01*
X150983523Y-53157142D01*
X151162095Y-53157142D01*
X151281142Y-53216666D01*
X151340666Y-53276190D01*
X151400190Y-53395238D01*
X151400190Y-53752380D01*
X151340666Y-53871428D01*
X151281142Y-53930952D01*
X151162095Y-53990476D01*
X150983523Y-53990476D01*
X152471619Y-53930952D02*
X152352571Y-53990476D01*
X152114476Y-53990476D01*
X151995428Y-53930952D01*
X151935904Y-53871428D01*
X151876380Y-53752380D01*
X151876380Y-53395238D01*
X151935904Y-53276190D01*
X151995428Y-53216666D01*
X152114476Y-53157142D01*
X152352571Y-53157142D01*
X152471619Y-53216666D01*
X153007333Y-53990476D02*
X153007333Y-52740476D01*
X153126380Y-53514285D02*
X153483523Y-53990476D01*
X153483523Y-53157142D02*
X153007333Y-53633333D01*
X154495428Y-53930952D02*
X154376380Y-53990476D01*
X154138285Y-53990476D01*
X154019238Y-53930952D01*
X153959714Y-53811904D01*
X153959714Y-53335714D01*
X154019238Y-53216666D01*
X154138285Y-53157142D01*
X154376380Y-53157142D01*
X154495428Y-53216666D01*
X154554952Y-53335714D01*
X154554952Y-53454761D01*
X153959714Y-53573809D01*
X154912095Y-53157142D02*
X155388285Y-53157142D01*
X155090666Y-52740476D02*
X155090666Y-53811904D01*
X155150190Y-53930952D01*
X155269238Y-53990476D01*
X155388285Y-53990476D01*
X155804952Y-53990476D02*
X155804952Y-53157142D01*
X155804952Y-52740476D02*
X155745428Y-52800000D01*
X155804952Y-52859523D01*
X155864476Y-52800000D01*
X155804952Y-52740476D01*
X155804952Y-52859523D01*
X156400190Y-53157142D02*
X156400190Y-53990476D01*
X156400190Y-53276190D02*
X156459714Y-53216666D01*
X156578761Y-53157142D01*
X156757333Y-53157142D01*
X156876380Y-53216666D01*
X156935904Y-53335714D01*
X156935904Y-53990476D01*
X157352571Y-53157142D02*
X157828761Y-53157142D01*
X157531142Y-52740476D02*
X157531142Y-53811904D01*
X157590666Y-53930952D01*
X157709714Y-53990476D01*
X157828761Y-53990476D01*
X158721619Y-53930952D02*
X158602571Y-53990476D01*
X158364476Y-53990476D01*
X158245428Y-53930952D01*
X158185904Y-53811904D01*
X158185904Y-53335714D01*
X158245428Y-53216666D01*
X158364476Y-53157142D01*
X158602571Y-53157142D01*
X158721619Y-53216666D01*
X158781142Y-53335714D01*
X158781142Y-53454761D01*
X158185904Y-53573809D01*
X159852571Y-53157142D02*
X159852571Y-54169047D01*
X159793047Y-54288095D01*
X159733523Y-54347619D01*
X159614476Y-54407142D01*
X159435904Y-54407142D01*
X159316857Y-54347619D01*
X159852571Y-53930952D02*
X159733523Y-53990476D01*
X159495428Y-53990476D01*
X159376380Y-53930952D01*
X159316857Y-53871428D01*
X159257333Y-53752380D01*
X159257333Y-53395238D01*
X159316857Y-53276190D01*
X159376380Y-53216666D01*
X159495428Y-53157142D01*
X159733523Y-53157142D01*
X159852571Y-53216666D01*
X160447809Y-53990476D02*
X160447809Y-53157142D01*
X160447809Y-53395238D02*
X160507333Y-53276190D01*
X160566857Y-53216666D01*
X160685904Y-53157142D01*
X160804952Y-53157142D01*
X161757333Y-53990476D02*
X161757333Y-53335714D01*
X161697809Y-53216666D01*
X161578761Y-53157142D01*
X161340666Y-53157142D01*
X161221619Y-53216666D01*
X161757333Y-53930952D02*
X161638285Y-53990476D01*
X161340666Y-53990476D01*
X161221619Y-53930952D01*
X161162095Y-53811904D01*
X161162095Y-53692857D01*
X161221619Y-53573809D01*
X161340666Y-53514285D01*
X161638285Y-53514285D01*
X161757333Y-53454761D01*
X162174000Y-53157142D02*
X162650190Y-53157142D01*
X162352571Y-52740476D02*
X162352571Y-53811904D01*
X162412095Y-53930952D01*
X162531142Y-53990476D01*
X162650190Y-53990476D01*
X163245428Y-53990476D02*
X163126380Y-53930952D01*
X163066857Y-53871428D01*
X163007333Y-53752380D01*
X163007333Y-53395238D01*
X163066857Y-53276190D01*
X163126380Y-53216666D01*
X163245428Y-53157142D01*
X163424000Y-53157142D01*
X163543047Y-53216666D01*
X163602571Y-53276190D01*
X163662095Y-53395238D01*
X163662095Y-53752380D01*
X163602571Y-53871428D01*
X163543047Y-53930952D01*
X163424000Y-53990476D01*
X163245428Y-53990476D01*
X164197809Y-53990476D02*
X164197809Y-53157142D01*
X164197809Y-53395238D02*
X164257333Y-53276190D01*
X164316857Y-53216666D01*
X164435904Y-53157142D01*
X164554952Y-53157142D01*
D14*
X155443285Y-157765714D02*
X155371857Y-157837142D01*
X155157571Y-157908571D01*
X155014714Y-157908571D01*
X154800428Y-157837142D01*
X154657571Y-157694285D01*
X154586142Y-157551428D01*
X154514714Y-157265714D01*
X154514714Y-157051428D01*
X154586142Y-156765714D01*
X154657571Y-156622857D01*
X154800428Y-156480000D01*
X155014714Y-156408571D01*
X155157571Y-156408571D01*
X155371857Y-156480000D01*
X155443285Y-156551428D01*
X131919116Y-59137977D02*
X132204830Y-59137977D01*
X132347687Y-59209406D01*
X132490544Y-59352263D01*
X132561973Y-59637977D01*
X132561973Y-60137977D01*
X132490544Y-60423691D01*
X132347687Y-60566548D01*
X132204830Y-60637977D01*
X131919116Y-60637977D01*
X131776258Y-60566548D01*
X131633401Y-60423691D01*
X131561973Y-60137977D01*
X131561973Y-59637977D01*
X131633401Y-59352263D01*
X131776258Y-59209406D01*
X131919116Y-59137977D01*
X133204830Y-59137977D02*
X133204830Y-60352263D01*
X133276258Y-60495120D01*
X133347687Y-60566548D01*
X133490544Y-60637977D01*
X133776258Y-60637977D01*
X133919116Y-60566548D01*
X133990544Y-60495120D01*
X134061973Y-60352263D01*
X134061973Y-59137977D01*
X134561973Y-59137977D02*
X135419116Y-59137977D01*
X134990544Y-60637977D02*
X134990544Y-59137977D01*
X128276258Y-61762977D02*
X129133401Y-61762977D01*
X128704830Y-63262977D02*
X128704830Y-61762977D01*
X129919116Y-61762977D02*
X130204830Y-61762977D01*
X130347687Y-61834406D01*
X130490544Y-61977263D01*
X130561973Y-62262977D01*
X130561973Y-62762977D01*
X130490544Y-63048691D01*
X130347687Y-63191548D01*
X130204830Y-63262977D01*
X129919116Y-63262977D01*
X129776258Y-63191548D01*
X129633401Y-63048691D01*
X129561973Y-62762977D01*
X129561973Y-62262977D01*
X129633401Y-61977263D01*
X129776258Y-61834406D01*
X129919116Y-61762977D01*
X132347687Y-63262977D02*
X132347687Y-61762977D01*
X132704830Y-61762977D01*
X132919116Y-61834406D01*
X133061973Y-61977263D01*
X133133401Y-62120120D01*
X133204830Y-62405834D01*
X133204830Y-62620120D01*
X133133401Y-62905834D01*
X133061973Y-63048691D01*
X132919116Y-63191548D01*
X132704830Y-63262977D01*
X132347687Y-63262977D01*
X133847687Y-63262977D02*
X133847687Y-61762977D01*
X134490544Y-63191548D02*
X134704830Y-63262977D01*
X135061973Y-63262977D01*
X135204830Y-63191548D01*
X135276258Y-63120120D01*
X135347687Y-62977263D01*
X135347687Y-62834406D01*
X135276258Y-62691548D01*
X135204830Y-62620120D01*
X135061973Y-62548691D01*
X134776258Y-62477263D01*
X134633401Y-62405834D01*
X134561973Y-62334406D01*
X134490544Y-62191548D01*
X134490544Y-62048691D01*
X134561973Y-61905834D01*
X134633401Y-61834406D01*
X134776258Y-61762977D01*
X135133401Y-61762977D01*
X135347687Y-61834406D01*
X136847687Y-63120120D02*
X136776258Y-63191548D01*
X136561973Y-63262977D01*
X136419116Y-63262977D01*
X136204830Y-63191548D01*
X136061973Y-63048691D01*
X135990544Y-62905834D01*
X135919116Y-62620120D01*
X135919116Y-62405834D01*
X135990544Y-62120120D01*
X136061973Y-61977263D01*
X136204830Y-61834406D01*
X136419116Y-61762977D01*
X136561973Y-61762977D01*
X136776258Y-61834406D01*
X136847687Y-61905834D01*
X137776258Y-61762977D02*
X138061973Y-61762977D01*
X138204830Y-61834406D01*
X138347687Y-61977263D01*
X138419116Y-62262977D01*
X138419116Y-62762977D01*
X138347687Y-63048691D01*
X138204830Y-63191548D01*
X138061973Y-63262977D01*
X137776258Y-63262977D01*
X137633401Y-63191548D01*
X137490544Y-63048691D01*
X137419116Y-62762977D01*
X137419116Y-62262977D01*
X137490544Y-61977263D01*
X137633401Y-61834406D01*
X137776258Y-61762977D01*
X131699000Y-50066071D02*
X131699000Y-48566071D01*
X132270428Y-48566071D01*
X132413285Y-48637500D01*
X132484714Y-48708928D01*
X132556142Y-48851785D01*
X132556142Y-49066071D01*
X132484714Y-49208928D01*
X132413285Y-49280357D01*
X132270428Y-49351785D01*
X131699000Y-49351785D01*
X133484714Y-48566071D02*
X133770428Y-48566071D01*
X133913285Y-48637500D01*
X134056142Y-48780357D01*
X134127571Y-49066071D01*
X134127571Y-49566071D01*
X134056142Y-49851785D01*
X133913285Y-49994642D01*
X133770428Y-50066071D01*
X133484714Y-50066071D01*
X133341857Y-49994642D01*
X133199000Y-49851785D01*
X133127571Y-49566071D01*
X133127571Y-49066071D01*
X133199000Y-48780357D01*
X133341857Y-48637500D01*
X133484714Y-48566071D01*
X135627571Y-50066071D02*
X135127571Y-49351785D01*
X134770428Y-50066071D02*
X134770428Y-48566071D01*
X135341857Y-48566071D01*
X135484714Y-48637500D01*
X135556142Y-48708928D01*
X135627571Y-48851785D01*
X135627571Y-49066071D01*
X135556142Y-49208928D01*
X135484714Y-49280357D01*
X135341857Y-49351785D01*
X134770428Y-49351785D01*
X136056142Y-48566071D02*
X136913285Y-48566071D01*
X136484714Y-50066071D02*
X136484714Y-48566071D01*
X133841857Y-52262500D02*
X134556142Y-52262500D01*
X133699000Y-52691071D02*
X134199000Y-51191071D01*
X134699000Y-52691071D01*
X171599000Y-49966071D02*
X171599000Y-48466071D01*
X172170428Y-48466071D01*
X172313285Y-48537500D01*
X172384714Y-48608928D01*
X172456142Y-48751785D01*
X172456142Y-48966071D01*
X172384714Y-49108928D01*
X172313285Y-49180357D01*
X172170428Y-49251785D01*
X171599000Y-49251785D01*
X173384714Y-48466071D02*
X173670428Y-48466071D01*
X173813285Y-48537500D01*
X173956142Y-48680357D01*
X174027571Y-48966071D01*
X174027571Y-49466071D01*
X173956142Y-49751785D01*
X173813285Y-49894642D01*
X173670428Y-49966071D01*
X173384714Y-49966071D01*
X173241857Y-49894642D01*
X173099000Y-49751785D01*
X173027571Y-49466071D01*
X173027571Y-48966071D01*
X173099000Y-48680357D01*
X173241857Y-48537500D01*
X173384714Y-48466071D01*
X175527571Y-49966071D02*
X175027571Y-49251785D01*
X174670428Y-49966071D02*
X174670428Y-48466071D01*
X175241857Y-48466071D01*
X175384714Y-48537500D01*
X175456142Y-48608928D01*
X175527571Y-48751785D01*
X175527571Y-48966071D01*
X175456142Y-49108928D01*
X175384714Y-49180357D01*
X175241857Y-49251785D01*
X174670428Y-49251785D01*
X175956142Y-48466071D02*
X176813285Y-48466071D01*
X176384714Y-49966071D02*
X176384714Y-48466071D01*
X174206142Y-51805357D02*
X174420428Y-51876785D01*
X174491857Y-51948214D01*
X174563285Y-52091071D01*
X174563285Y-52305357D01*
X174491857Y-52448214D01*
X174420428Y-52519642D01*
X174277571Y-52591071D01*
X173706142Y-52591071D01*
X173706142Y-51091071D01*
X174206142Y-51091071D01*
X174349000Y-51162500D01*
X174420428Y-51233928D01*
X174491857Y-51376785D01*
X174491857Y-51519642D01*
X174420428Y-51662500D01*
X174349000Y-51733928D01*
X174206142Y-51805357D01*
X173706142Y-51805357D01*
D10*
X155389476Y-102535714D02*
X155389476Y-103535714D01*
X155389476Y-102583333D02*
X155484714Y-102535714D01*
X155675190Y-102535714D01*
X155770428Y-102583333D01*
X155818047Y-102630952D01*
X155865666Y-102726190D01*
X155865666Y-103011904D01*
X155818047Y-103107142D01*
X155770428Y-103154761D01*
X155675190Y-103202380D01*
X155484714Y-103202380D01*
X155389476Y-103154761D01*
X156437095Y-103202380D02*
X156341857Y-103154761D01*
X156294238Y-103059523D01*
X156294238Y-102202380D01*
X157246619Y-103202380D02*
X157246619Y-102678571D01*
X157199000Y-102583333D01*
X157103761Y-102535714D01*
X156913285Y-102535714D01*
X156818047Y-102583333D01*
X157246619Y-103154761D02*
X157151380Y-103202380D01*
X156913285Y-103202380D01*
X156818047Y-103154761D01*
X156770428Y-103059523D01*
X156770428Y-102964285D01*
X156818047Y-102869047D01*
X156913285Y-102821428D01*
X157151380Y-102821428D01*
X157246619Y-102773809D01*
X157627571Y-102535714D02*
X157865666Y-103202380D01*
X158103761Y-102535714D02*
X157865666Y-103202380D01*
X157770428Y-103440476D01*
X157722809Y-103488095D01*
X157627571Y-103535714D01*
D11*
X170949000Y-102250000D02*
X170949000Y-99950000D01*
X174349000Y-102250000D02*
X170949000Y-102250000D01*
X174349000Y-99950000D02*
X174349000Y-102250000D01*
X170949000Y-99950000D02*
X174349000Y-99950000D01*
D10*
X159165666Y-101602380D02*
X159165666Y-100602380D01*
X159165666Y-100983333D02*
X159260904Y-100935714D01*
X159451380Y-100935714D01*
X159546619Y-100983333D01*
X159594238Y-101030952D01*
X159641857Y-101126190D01*
X159641857Y-101411904D01*
X159594238Y-101507142D01*
X159546619Y-101554761D01*
X159451380Y-101602380D01*
X159260904Y-101602380D01*
X159165666Y-101554761D01*
X160070428Y-100935714D02*
X160070428Y-101935714D01*
X160070428Y-100983333D02*
X160165666Y-100935714D01*
X160356142Y-100935714D01*
X160451380Y-100983333D01*
X160499000Y-101030952D01*
X160546619Y-101126190D01*
X160546619Y-101411904D01*
X160499000Y-101507142D01*
X160451380Y-101554761D01*
X160356142Y-101602380D01*
X160165666Y-101602380D01*
X160070428Y-101554761D01*
X160975190Y-101602380D02*
X160975190Y-100935714D01*
X160975190Y-101030952D02*
X161022809Y-100983333D01*
X161118047Y-100935714D01*
X161260904Y-100935714D01*
X161356142Y-100983333D01*
X161403761Y-101078571D01*
X161403761Y-101602380D01*
X161403761Y-101078571D02*
X161451380Y-100983333D01*
X161546619Y-100935714D01*
X161689476Y-100935714D01*
X161784714Y-100983333D01*
X161832333Y-101078571D01*
X161832333Y-101602380D01*
X146656142Y-101602380D02*
X146656142Y-100935714D01*
X146656142Y-101126190D02*
X146703761Y-101030952D01*
X146751380Y-100983333D01*
X146846619Y-100935714D01*
X146941857Y-100935714D01*
X147656142Y-101554761D02*
X147560904Y-101602380D01*
X147370428Y-101602380D01*
X147275190Y-101554761D01*
X147227571Y-101459523D01*
X147227571Y-101078571D01*
X147275190Y-100983333D01*
X147370428Y-100935714D01*
X147560904Y-100935714D01*
X147656142Y-100983333D01*
X147703761Y-101078571D01*
X147703761Y-101173809D01*
X147227571Y-101269047D01*
X148560904Y-101554761D02*
X148465666Y-101602380D01*
X148275190Y-101602380D01*
X148179952Y-101554761D01*
X148132333Y-101507142D01*
X148084714Y-101411904D01*
X148084714Y-101126190D01*
X148132333Y-101030952D01*
X148179952Y-100983333D01*
X148275190Y-100935714D01*
X148465666Y-100935714D01*
X148560904Y-100983333D01*
X149132333Y-101602380D02*
X149037095Y-101554761D01*
X148989476Y-101507142D01*
X148941857Y-101411904D01*
X148941857Y-101126190D01*
X148989476Y-101030952D01*
X149037095Y-100983333D01*
X149132333Y-100935714D01*
X149275190Y-100935714D01*
X149370428Y-100983333D01*
X149418047Y-101030952D01*
X149465666Y-101126190D01*
X149465666Y-101411904D01*
X149418047Y-101507142D01*
X149370428Y-101554761D01*
X149275190Y-101602380D01*
X149132333Y-101602380D01*
X149894238Y-101602380D02*
X149894238Y-100935714D01*
X149894238Y-101126190D02*
X149941857Y-101030952D01*
X149989476Y-100983333D01*
X150084714Y-100935714D01*
X150179952Y-100935714D01*
X150941857Y-101602380D02*
X150941857Y-100602380D01*
X150941857Y-101554761D02*
X150846619Y-101602380D01*
X150656142Y-101602380D01*
X150560904Y-101554761D01*
X150513285Y-101507142D01*
X150465666Y-101411904D01*
X150465666Y-101126190D01*
X150513285Y-101030952D01*
X150560904Y-100983333D01*
X150656142Y-100935714D01*
X150846619Y-100935714D01*
X150941857Y-100983333D01*
X141639476Y-100935714D02*
X142020428Y-100935714D01*
X141782333Y-101602380D02*
X141782333Y-100745238D01*
X141829952Y-100650000D01*
X141925190Y-100602380D01*
X142020428Y-100602380D01*
X142782333Y-100935714D02*
X142782333Y-101602380D01*
X142353761Y-100935714D02*
X142353761Y-101459523D01*
X142401380Y-101554761D01*
X142496619Y-101602380D01*
X142639476Y-101602380D01*
X142734714Y-101554761D01*
X142782333Y-101507142D01*
X143258523Y-100935714D02*
X143258523Y-101602380D01*
X143258523Y-101030952D02*
X143306142Y-100983333D01*
X143401380Y-100935714D01*
X143544238Y-100935714D01*
X143639476Y-100983333D01*
X143687095Y-101078571D01*
X143687095Y-101602380D01*
X144591857Y-101554761D02*
X144496619Y-101602380D01*
X144306142Y-101602380D01*
X144210904Y-101554761D01*
X144163285Y-101507142D01*
X144115666Y-101411904D01*
X144115666Y-101126190D01*
X144163285Y-101030952D01*
X144210904Y-100983333D01*
X144306142Y-100935714D01*
X144496619Y-100935714D01*
X144591857Y-100983333D01*
X144877571Y-100935714D02*
X145258523Y-100935714D01*
X145020428Y-100602380D02*
X145020428Y-101459523D01*
X145068047Y-101554761D01*
X145163285Y-101602380D01*
X145258523Y-101602380D01*
X161920428Y-99952380D02*
X161920428Y-98952380D01*
X162301380Y-98952380D01*
X162396619Y-99000000D01*
X162444238Y-99047619D01*
X162491857Y-99142857D01*
X162491857Y-99285714D01*
X162444238Y-99380952D01*
X162396619Y-99428571D01*
X162301380Y-99476190D01*
X161920428Y-99476190D01*
X163110904Y-98952380D02*
X163301380Y-98952380D01*
X163396619Y-99000000D01*
X163491857Y-99095238D01*
X163539476Y-99285714D01*
X163539476Y-99619047D01*
X163491857Y-99809523D01*
X163396619Y-99904761D01*
X163301380Y-99952380D01*
X163110904Y-99952380D01*
X163015666Y-99904761D01*
X162920428Y-99809523D01*
X162872809Y-99619047D01*
X162872809Y-99285714D01*
X162920428Y-99095238D01*
X163015666Y-99000000D01*
X163110904Y-98952380D01*
X164729952Y-99952380D02*
X164729952Y-98952380D01*
X165206142Y-99952380D02*
X165206142Y-98952380D01*
X165777571Y-99952380D01*
X165777571Y-98952380D01*
X149449000Y-99952380D02*
X149449000Y-98952380D01*
X149829952Y-98952380D01*
X149925190Y-99000000D01*
X149972809Y-99047619D01*
X150020428Y-99142857D01*
X150020428Y-99285714D01*
X149972809Y-99380952D01*
X149925190Y-99428571D01*
X149829952Y-99476190D01*
X149449000Y-99476190D01*
X150639476Y-98952380D02*
X150829952Y-98952380D01*
X150925190Y-99000000D01*
X151020428Y-99095238D01*
X151068047Y-99285714D01*
X151068047Y-99619047D01*
X151020428Y-99809523D01*
X150925190Y-99904761D01*
X150829952Y-99952380D01*
X150639476Y-99952380D01*
X150544238Y-99904761D01*
X150449000Y-99809523D01*
X150401380Y-99619047D01*
X150401380Y-99285714D01*
X150449000Y-99095238D01*
X150544238Y-99000000D01*
X150639476Y-98952380D01*
X152068047Y-99952380D02*
X151734714Y-99476190D01*
X151496619Y-99952380D02*
X151496619Y-98952380D01*
X151877571Y-98952380D01*
X151972809Y-99000000D01*
X152020428Y-99047619D01*
X152068047Y-99142857D01*
X152068047Y-99285714D01*
X152020428Y-99380952D01*
X151972809Y-99428571D01*
X151877571Y-99476190D01*
X151496619Y-99476190D01*
X152353761Y-98952380D02*
X152925190Y-98952380D01*
X152639476Y-99952380D02*
X152639476Y-98952380D01*
X153972809Y-99666666D02*
X154449000Y-99666666D01*
X153877571Y-99952380D02*
X154210904Y-98952380D01*
X154544238Y-99952380D01*
X155782333Y-99952380D02*
X155687095Y-99904761D01*
X155639476Y-99857142D01*
X155591857Y-99761904D01*
X155591857Y-99476190D01*
X155639476Y-99380952D01*
X155687095Y-99333333D01*
X155782333Y-99285714D01*
X155925190Y-99285714D01*
X156020428Y-99333333D01*
X156068047Y-99380952D01*
X156115666Y-99476190D01*
X156115666Y-99761904D01*
X156068047Y-99857142D01*
X156020428Y-99904761D01*
X155925190Y-99952380D01*
X155782333Y-99952380D01*
X156544238Y-99952380D02*
X156544238Y-99285714D01*
X156544238Y-99476190D02*
X156591857Y-99380952D01*
X156639476Y-99333333D01*
X156734714Y-99285714D01*
X156829952Y-99285714D01*
X158258523Y-99428571D02*
X158401380Y-99476190D01*
X158449000Y-99523809D01*
X158496619Y-99619047D01*
X158496619Y-99761904D01*
X158449000Y-99857142D01*
X158401380Y-99904761D01*
X158306142Y-99952380D01*
X157925190Y-99952380D01*
X157925190Y-98952380D01*
X158258523Y-98952380D01*
X158353761Y-99000000D01*
X158401380Y-99047619D01*
X158449000Y-99142857D01*
X158449000Y-99238095D01*
X158401380Y-99333333D01*
X158353761Y-99380952D01*
X158258523Y-99428571D01*
X157925190Y-99428571D01*
D11*
X141699000Y-61800000D02*
X141449000Y-61000000D01*
X142499000Y-60200000D02*
X141699000Y-61800000D01*
X143399000Y-61800000D02*
X142499000Y-60200000D01*
X144099000Y-60650000D02*
X143399000Y-61800000D01*
X145199000Y-61800000D02*
X145149000Y-61700000D01*
X145199000Y-61800000D02*
X145199000Y-61800000D01*
X146949000Y-61800000D02*
X146399000Y-60800000D01*
X147699000Y-60250000D02*
X146949000Y-61800000D01*
X148599000Y-61800000D02*
X147699000Y-60250000D01*
X149399000Y-60250000D02*
X148599000Y-61800000D01*
X150099000Y-61150000D02*
X149399000Y-60250000D01*
X166299000Y-60150000D02*
X166749000Y-60900000D01*
X165449000Y-61650000D02*
X166299000Y-60150000D01*
X164749000Y-60250000D02*
X165449000Y-61650000D01*
X163999000Y-61650000D02*
X164749000Y-60250000D01*
X163299000Y-60250000D02*
X163999000Y-61650000D01*
X162799000Y-61000000D02*
X163299000Y-60250000D01*
X161499000Y-60250000D02*
X161899000Y-60900000D01*
X161099000Y-61050000D02*
X161499000Y-60250000D01*
X159849000Y-60300000D02*
X160399000Y-61200000D01*
X159249000Y-61100000D02*
X159849000Y-60300000D01*
D12*
G36*
X165254523Y-50872803D02*
G01*
X165458111Y-51439417D01*
X164752613Y-51317872D01*
X164878555Y-51594709D01*
X164147176Y-51376571D01*
X164299000Y-51750000D01*
X163042367Y-51310257D01*
X163879812Y-51344683D01*
X163521862Y-50974721D01*
X164604257Y-51150569D01*
X164329958Y-50706429D01*
X165254523Y-50872803D01*
G37*
X165254523Y-50872803D02*
X165458111Y-51439417D01*
X164752613Y-51317872D01*
X164878555Y-51594709D01*
X164147176Y-51376571D01*
X164299000Y-51750000D01*
X163042367Y-51310257D01*
X163879812Y-51344683D01*
X163521862Y-50974721D01*
X164604257Y-51150569D01*
X164329958Y-50706429D01*
X165254523Y-50872803D01*
G36*
X165204523Y-50922803D02*
G01*
X165408111Y-51489417D01*
X164702613Y-51367872D01*
X164828555Y-51644709D01*
X164097176Y-51426571D01*
X164249000Y-51800000D01*
X162992367Y-51360257D01*
X163829812Y-51394683D01*
X163471862Y-51024721D01*
X164554257Y-51200569D01*
X164279958Y-50756429D01*
X165204523Y-50922803D01*
G37*
X165204523Y-50922803D02*
X165408111Y-51489417D01*
X164702613Y-51367872D01*
X164828555Y-51644709D01*
X164097176Y-51426571D01*
X164249000Y-51800000D01*
X162992367Y-51360257D01*
X163829812Y-51394683D01*
X163471862Y-51024721D01*
X164554257Y-51200569D01*
X164279958Y-50756429D01*
X165204523Y-50922803D01*
G36*
X144999000Y-51450000D02*
G01*
X144199000Y-51200000D01*
X144449000Y-51650000D01*
X143449000Y-51200000D01*
X143599000Y-51700000D01*
X142749000Y-51300000D01*
X142699000Y-50700000D01*
X143349000Y-51000000D01*
X143299000Y-50700000D01*
X143949000Y-51100000D01*
X143899000Y-50700000D01*
X144999000Y-51450000D01*
G37*
X144999000Y-51450000D02*
X144199000Y-51200000D01*
X144449000Y-51650000D01*
X143449000Y-51200000D01*
X143599000Y-51700000D01*
X142749000Y-51300000D01*
X142699000Y-50700000D01*
X143349000Y-51000000D01*
X143299000Y-50700000D01*
X143949000Y-51100000D01*
X143899000Y-50700000D01*
X144999000Y-51450000D01*
D11*
X158044362Y-61500000D02*
G75*
G03*
X158044362Y-61500000I-1345362J0D01*
G01*
X153911440Y-61500000D02*
G75*
G03*
X153911440Y-61500000I-1312440J0D01*
G01*
X152399000Y-67500000D02*
X152299000Y-67400000D01*
X152399000Y-67950000D02*
X152399000Y-67500000D01*
X152299000Y-67950000D02*
X152399000Y-67950000D01*
X152299000Y-68650000D02*
X152299000Y-67950000D01*
X152299000Y-67900000D02*
X152299000Y-68650000D01*
X152149000Y-67900000D02*
X152299000Y-67900000D01*
X152149000Y-67450000D02*
X152149000Y-67900000D01*
X152299000Y-67450000D02*
X152149000Y-67450000D01*
X152299000Y-66850000D02*
X152299000Y-67450000D01*
X151349000Y-67350000D02*
X151199000Y-67200000D01*
X151349000Y-67700000D02*
X151349000Y-67350000D01*
X151249000Y-68350000D02*
X151249000Y-67800000D01*
X151249000Y-67800000D02*
X151249000Y-68350000D01*
X151199000Y-67750000D02*
X151249000Y-67800000D01*
X151199000Y-67250000D02*
X151199000Y-67750000D01*
X151249000Y-67300000D02*
X151199000Y-67250000D01*
X151249000Y-66650000D02*
X151249000Y-67300000D01*
X158049000Y-67200000D02*
X157949000Y-67200000D01*
X158049000Y-67450000D02*
X158049000Y-67200000D01*
X157949000Y-68200000D02*
X158049000Y-67450000D01*
X157949000Y-67550000D02*
X157949000Y-68200000D01*
X157749000Y-67650000D02*
X157949000Y-67550000D01*
X157749000Y-67350000D02*
X157749000Y-67650000D01*
X157949000Y-67200000D02*
X157749000Y-67350000D01*
X157949000Y-66600000D02*
X157949000Y-67200000D01*
X156799000Y-67450000D02*
X156799000Y-66850000D01*
X156949000Y-67400000D02*
X156799000Y-67450000D01*
X156949000Y-67850000D02*
X156949000Y-67400000D01*
X156749000Y-68000000D02*
X156949000Y-67850000D01*
X156749000Y-68750000D02*
X156749000Y-68000000D01*
X156599000Y-68750000D02*
X156749000Y-68750000D01*
X156599000Y-67950000D02*
X156599000Y-68750000D01*
X156499000Y-67950000D02*
X156599000Y-67950000D01*
X156499000Y-67500000D02*
X156499000Y-67950000D01*
X156649000Y-67450000D02*
X156499000Y-67500000D01*
X156649000Y-66850000D02*
X156649000Y-67450000D01*
X154349000Y-67600000D02*
X154349000Y-67000000D01*
X154549000Y-67600000D02*
X154349000Y-67600000D01*
X154549000Y-68150000D02*
X154549000Y-67600000D01*
X154499000Y-68200000D02*
X154549000Y-68150000D01*
X154449000Y-68800000D02*
X154449000Y-68200000D01*
X154249000Y-68800000D02*
X154449000Y-68800000D01*
X154249000Y-68200000D02*
X154249000Y-68800000D01*
X154049000Y-68200000D02*
X154249000Y-68200000D01*
X154049000Y-67900000D02*
X154049000Y-68200000D01*
X154049000Y-67600000D02*
X154049000Y-67900000D01*
X154249000Y-67600000D02*
X154049000Y-67600000D01*
X154249000Y-67000000D02*
X154249000Y-67600000D01*
D12*
G36*
X144099000Y-60300000D02*
G01*
X143199000Y-60400000D01*
X143099000Y-60100000D01*
X144049000Y-60000000D01*
X144099000Y-60300000D01*
G37*
X144099000Y-60300000D02*
X143199000Y-60400000D01*
X143099000Y-60100000D01*
X144049000Y-60000000D01*
X144099000Y-60300000D01*
G36*
X149849000Y-59350000D02*
G01*
X149749000Y-59550000D01*
X149274000Y-59625000D01*
X149124000Y-59575000D01*
X148549000Y-59700000D01*
X146449000Y-59950000D01*
X146449000Y-59700000D01*
X148599000Y-59400000D01*
X149124000Y-59425000D01*
X149174000Y-59275000D01*
X149649000Y-59250000D01*
X149849000Y-59350000D01*
G37*
X149849000Y-59350000D02*
X149749000Y-59550000D01*
X149274000Y-59625000D01*
X149124000Y-59575000D01*
X148549000Y-59700000D01*
X146449000Y-59950000D01*
X146449000Y-59700000D01*
X148599000Y-59400000D01*
X149124000Y-59425000D01*
X149174000Y-59275000D01*
X149649000Y-59250000D01*
X149849000Y-59350000D01*
G36*
X165449000Y-65650000D02*
G01*
X164782828Y-65684850D01*
X164776999Y-65429966D01*
X165393931Y-65386433D01*
X165449000Y-65650000D01*
G37*
X165449000Y-65650000D02*
X164782828Y-65684850D01*
X164776999Y-65429966D01*
X165393931Y-65386433D01*
X165449000Y-65650000D01*
G36*
X158212743Y-65614416D02*
G01*
X158279348Y-65524618D01*
X161899000Y-65486433D01*
X162049000Y-65750000D01*
X158424216Y-65854790D01*
X158186696Y-65762138D01*
X158169331Y-65860618D01*
X157676927Y-65773794D01*
X157702975Y-65626073D01*
X158033147Y-65481206D01*
X158212743Y-65614416D01*
G37*
X158212743Y-65614416D02*
X158279348Y-65524618D01*
X161899000Y-65486433D01*
X162049000Y-65750000D01*
X158424216Y-65854790D01*
X158186696Y-65762138D01*
X158169331Y-65860618D01*
X157676927Y-65773794D01*
X157702975Y-65626073D01*
X158033147Y-65481206D01*
X158212743Y-65614416D01*
G36*
X161470411Y-45267469D02*
G01*
X160885603Y-45680385D01*
X161170411Y-45787084D01*
X160499000Y-46150000D01*
X160870411Y-46306699D01*
X159670892Y-46884327D01*
X160287398Y-46316507D01*
X159772686Y-46308013D01*
X160662398Y-45666988D01*
X160154385Y-45546891D01*
X160925795Y-45010770D01*
X161470411Y-45267469D01*
G37*
X161470411Y-45267469D02*
X160885603Y-45680385D01*
X161170411Y-45787084D01*
X160499000Y-46150000D01*
X160870411Y-46306699D01*
X159670892Y-46884327D01*
X160287398Y-46316507D01*
X159772686Y-46308013D01*
X160662398Y-45666988D01*
X160154385Y-45546891D01*
X160925795Y-45010770D01*
X161470411Y-45267469D01*
G36*
X146812397Y-45576795D02*
G01*
X146919096Y-45291987D01*
X147282012Y-45963398D01*
X147438711Y-45591987D01*
X148016339Y-46791506D01*
X147448519Y-46175000D01*
X147440025Y-46689712D01*
X146799000Y-45800000D01*
X146678903Y-46308013D01*
X146142782Y-45536603D01*
X146399481Y-44991987D01*
X146812397Y-45576795D01*
G37*
X146812397Y-45576795D02*
X146919096Y-45291987D01*
X147282012Y-45963398D01*
X147438711Y-45591987D01*
X148016339Y-46791506D01*
X147448519Y-46175000D01*
X147440025Y-46689712D01*
X146799000Y-45800000D01*
X146678903Y-46308013D01*
X146142782Y-45536603D01*
X146399481Y-44991987D01*
X146812397Y-45576795D01*
G36*
X154299000Y-45100000D02*
G01*
X154599000Y-45050000D01*
X154199000Y-45700000D01*
X154599000Y-45650000D01*
X153849000Y-46750000D01*
X154099000Y-45950000D01*
X153649000Y-46200000D01*
X154099000Y-45200000D01*
X153599000Y-45350000D01*
X153999000Y-44500000D01*
X154599000Y-44450000D01*
X154299000Y-45100000D01*
G37*
X154299000Y-45100000D02*
X154599000Y-45050000D01*
X154199000Y-45700000D01*
X154599000Y-45650000D01*
X153849000Y-46750000D01*
X154099000Y-45950000D01*
X153649000Y-46200000D01*
X154099000Y-45200000D01*
X153599000Y-45350000D01*
X153999000Y-44500000D01*
X154599000Y-44450000D01*
X154299000Y-45100000D01*
D13*
X179352113Y-139800000D02*
G75*
G03*
X179352113Y-139800000I-403113J0D01*
G01*
D12*
G36*
X171549000Y-139800000D02*
G01*
X171599000Y-140700000D01*
X170499000Y-140650000D01*
X168549000Y-142300000D01*
X169299000Y-143750000D01*
X167549000Y-145450000D01*
X165049000Y-146200000D01*
X165449000Y-144250000D01*
X167849000Y-143700000D01*
X167899000Y-141950000D01*
X170349000Y-140550000D01*
X169999000Y-139900000D01*
X170549000Y-139750000D01*
X171549000Y-139800000D01*
G37*
X171549000Y-139800000D02*
X171599000Y-140700000D01*
X170499000Y-140650000D01*
X168549000Y-142300000D01*
X169299000Y-143750000D01*
X167549000Y-145450000D01*
X165049000Y-146200000D01*
X165449000Y-144250000D01*
X167849000Y-143700000D01*
X167899000Y-141950000D01*
X170349000Y-140550000D01*
X169999000Y-139900000D01*
X170549000Y-139750000D01*
X171549000Y-139800000D01*
G36*
X135399000Y-122450000D02*
G01*
X135349000Y-123300000D01*
X129249000Y-122700000D01*
X129349000Y-122350000D01*
X129399000Y-121850000D01*
X135399000Y-122450000D01*
G37*
X135399000Y-122450000D02*
X135349000Y-123300000D01*
X129249000Y-122700000D01*
X129349000Y-122350000D01*
X129399000Y-121850000D01*
X135399000Y-122450000D01*
G36*
X136799000Y-135550000D02*
G01*
X135899000Y-136850000D01*
X131899000Y-136050000D01*
X131699000Y-135300000D01*
X136799000Y-135550000D01*
G37*
X136799000Y-135550000D02*
X135899000Y-136850000D01*
X131899000Y-136050000D01*
X131699000Y-135300000D01*
X136799000Y-135550000D01*
G36*
X137899000Y-134000000D02*
G01*
X137549000Y-134400000D01*
X131649000Y-134950000D01*
X131399000Y-134000000D01*
X136999000Y-132700000D01*
X137899000Y-134000000D01*
G37*
X137899000Y-134000000D02*
X137549000Y-134400000D01*
X131649000Y-134950000D01*
X131399000Y-134000000D01*
X136999000Y-132700000D01*
X137899000Y-134000000D01*
G36*
X136499000Y-131650000D02*
G01*
X131299000Y-133600000D01*
X130999000Y-132350000D01*
X136049000Y-131000000D01*
X136499000Y-131650000D01*
G37*
X136499000Y-131650000D02*
X131299000Y-133600000D01*
X130999000Y-132350000D01*
X136049000Y-131000000D01*
X136499000Y-131650000D01*
G36*
X138099000Y-141800000D02*
G01*
X136449000Y-140350000D01*
X138099000Y-138900000D01*
X138099000Y-141800000D01*
G37*
X138099000Y-141800000D02*
X136449000Y-140350000D01*
X138099000Y-138900000D01*
X138099000Y-141800000D01*
G36*
X136449000Y-140350000D02*
G01*
X138149000Y-141800000D01*
X139749000Y-143400000D01*
X138849000Y-144700000D01*
X140099000Y-145700000D01*
X138349000Y-147100000D01*
X129399000Y-144700000D01*
X128249000Y-142900000D01*
X132449000Y-141200000D01*
X133949000Y-143500000D01*
X133699000Y-143850000D01*
X134349000Y-145200000D01*
X137249000Y-145150000D01*
X137649000Y-143000000D01*
X135399000Y-141450000D01*
X134999000Y-141700000D01*
X134249000Y-140500000D01*
X136249000Y-139750000D01*
X136449000Y-140350000D01*
G37*
X136449000Y-140350000D02*
X138149000Y-141800000D01*
X139749000Y-143400000D01*
X138849000Y-144700000D01*
X140099000Y-145700000D01*
X138349000Y-147100000D01*
X129399000Y-144700000D01*
X128249000Y-142900000D01*
X132449000Y-141200000D01*
X133949000Y-143500000D01*
X133699000Y-143850000D01*
X134349000Y-145200000D01*
X137249000Y-145150000D01*
X137649000Y-143000000D01*
X135399000Y-141450000D01*
X134999000Y-141700000D01*
X134249000Y-140500000D01*
X136249000Y-139750000D01*
X136449000Y-140350000D01*
G36*
X131649000Y-135150000D02*
G01*
X129049000Y-135950000D01*
X128449000Y-134950000D01*
X131299000Y-133800000D01*
X131649000Y-135150000D01*
G37*
X131649000Y-135150000D02*
X129049000Y-135950000D01*
X128449000Y-134950000D01*
X131299000Y-133800000D01*
X131649000Y-135150000D01*
G36*
X133849000Y-139850000D02*
G01*
X132349000Y-140950000D01*
X131999000Y-140550000D01*
X133649000Y-139250000D01*
X133849000Y-139850000D01*
G37*
X133849000Y-139850000D02*
X132349000Y-140950000D01*
X131999000Y-140550000D01*
X133649000Y-139250000D01*
X133849000Y-139850000D01*
G36*
X134749000Y-141200000D02*
G01*
X133349000Y-142550000D01*
X132949000Y-142000000D01*
X134399000Y-140700000D01*
X134749000Y-141200000D01*
G37*
X134749000Y-141200000D02*
X133349000Y-142550000D01*
X132949000Y-142000000D01*
X134399000Y-140700000D01*
X134749000Y-141200000D01*
G36*
X136749000Y-144000000D02*
G01*
X136599000Y-144650000D01*
X135899000Y-144250000D01*
X136199000Y-143650000D01*
X136749000Y-144000000D01*
G37*
X136749000Y-144000000D02*
X136599000Y-144650000D01*
X135899000Y-144250000D01*
X136199000Y-143650000D01*
X136749000Y-144000000D01*
G36*
X137299000Y-142900000D02*
G01*
X137049000Y-143550000D01*
X136499000Y-143200000D01*
X136699000Y-142550000D01*
X137299000Y-142900000D01*
G37*
X137299000Y-142900000D02*
X137049000Y-143550000D01*
X136499000Y-143200000D01*
X136699000Y-142550000D01*
X137299000Y-142900000D01*
G36*
X153799000Y-136700000D02*
G01*
X153299000Y-137650000D01*
X152699000Y-137150000D01*
X153149000Y-136450000D01*
X153799000Y-136700000D01*
G37*
X153799000Y-136700000D02*
X153299000Y-137650000D01*
X152699000Y-137150000D01*
X153149000Y-136450000D01*
X153799000Y-136700000D01*
G36*
X152899000Y-136800000D02*
G01*
X152399000Y-137450000D01*
X151649000Y-137000000D01*
X151799000Y-136450000D01*
X152899000Y-136800000D01*
G37*
X152899000Y-136800000D02*
X152399000Y-137450000D01*
X151649000Y-137000000D01*
X151799000Y-136450000D01*
X152899000Y-136800000D01*
G36*
X151949000Y-136150000D02*
G01*
X151599000Y-136750000D01*
X150499000Y-136450000D01*
X150599000Y-135950000D01*
X151949000Y-136150000D01*
G37*
X151949000Y-136150000D02*
X151599000Y-136750000D01*
X150499000Y-136450000D01*
X150599000Y-135950000D01*
X151949000Y-136150000D01*
G36*
X134849000Y-157950000D02*
G01*
X134049000Y-158350000D01*
X133249000Y-158150000D01*
X133999000Y-157700000D01*
X134849000Y-157950000D01*
G37*
X134849000Y-157950000D02*
X134049000Y-158350000D01*
X133249000Y-158150000D01*
X133999000Y-157700000D01*
X134849000Y-157950000D01*
G36*
X134399000Y-158550000D02*
G01*
X133699000Y-159400000D01*
X133199000Y-159000000D01*
X133849000Y-158400000D01*
X134399000Y-158550000D01*
G37*
X134399000Y-158550000D02*
X133699000Y-159400000D01*
X133199000Y-159000000D01*
X133849000Y-158400000D01*
X134399000Y-158550000D01*
G36*
X133049000Y-158950000D02*
G01*
X132549000Y-159900000D01*
X132049000Y-159650000D01*
X132649000Y-158750000D01*
X133049000Y-158950000D01*
G37*
X133049000Y-158950000D02*
X132549000Y-159900000D01*
X132049000Y-159650000D01*
X132649000Y-158750000D01*
X133049000Y-158950000D01*
G36*
X177699000Y-148800000D02*
G01*
X180149000Y-149000000D01*
X181599000Y-149450000D01*
X182349000Y-150450000D01*
X182399000Y-150550000D01*
X182399000Y-150650000D01*
X181949000Y-150650000D01*
X181599000Y-150500000D01*
X179549000Y-149950000D01*
X175649000Y-150600000D01*
X173299000Y-146800000D01*
X176199000Y-145350000D01*
X177699000Y-148800000D01*
G37*
X177699000Y-148800000D02*
X180149000Y-149000000D01*
X181599000Y-149450000D01*
X182349000Y-150450000D01*
X182399000Y-150550000D01*
X182399000Y-150650000D01*
X181949000Y-150650000D01*
X181599000Y-150500000D01*
X179549000Y-149950000D01*
X175649000Y-150600000D01*
X173299000Y-146800000D01*
X176199000Y-145350000D01*
X177699000Y-148800000D01*
G36*
X159699000Y-151500000D02*
G01*
X153549000Y-154200000D01*
X152899000Y-152000000D01*
X152999000Y-151850000D01*
X152749000Y-151600000D01*
X151649000Y-148200000D01*
X151849000Y-148000000D01*
X154399000Y-151250000D01*
X158349000Y-147900000D01*
X159699000Y-151500000D01*
G37*
X159699000Y-151500000D02*
X153549000Y-154200000D01*
X152899000Y-152000000D01*
X152999000Y-151850000D01*
X152749000Y-151600000D01*
X151649000Y-148200000D01*
X151849000Y-148000000D01*
X154399000Y-151250000D01*
X158349000Y-147900000D01*
X159699000Y-151500000D01*
G36*
X146349000Y-116250000D02*
G01*
X146149000Y-116800000D01*
X145149000Y-116350000D01*
X145399000Y-115900000D01*
X146349000Y-116250000D01*
G37*
X146349000Y-116250000D02*
X146149000Y-116800000D01*
X145149000Y-116350000D01*
X145399000Y-115900000D01*
X146349000Y-116250000D01*
G36*
X144899000Y-115600000D02*
G01*
X144649000Y-116450000D01*
X143549000Y-116100000D01*
X143699000Y-115300000D01*
X144899000Y-115600000D01*
G37*
X144899000Y-115600000D02*
X144649000Y-116450000D01*
X143549000Y-116100000D01*
X143699000Y-115300000D01*
X144899000Y-115600000D01*
G36*
X143199000Y-116000000D02*
G01*
X142199000Y-116100000D01*
X142149000Y-115350000D01*
X143149000Y-115250000D01*
X143199000Y-116000000D01*
G37*
X143199000Y-116000000D02*
X142199000Y-116100000D01*
X142149000Y-115350000D01*
X143149000Y-115250000D01*
X143199000Y-116000000D01*
G36*
X146599000Y-125750000D02*
G01*
X145299000Y-126100000D01*
X145049000Y-125300000D01*
X146299000Y-124850000D01*
X146599000Y-125750000D01*
G37*
X146599000Y-125750000D02*
X145299000Y-126100000D01*
X145049000Y-125300000D01*
X146299000Y-124850000D01*
X146599000Y-125750000D01*
G36*
X145999000Y-123950000D02*
G01*
X144849000Y-124350000D01*
X144599000Y-123300000D01*
X145599000Y-122950000D01*
X145999000Y-123950000D01*
G37*
X145999000Y-123950000D02*
X144849000Y-124350000D01*
X144599000Y-123300000D01*
X145599000Y-122950000D01*
X145999000Y-123950000D01*
G36*
X145299000Y-122000000D02*
G01*
X144349000Y-122250000D01*
X144149000Y-121400000D01*
X144999000Y-121150000D01*
X145299000Y-122000000D01*
G37*
X145299000Y-122000000D02*
X144349000Y-122250000D01*
X144149000Y-121400000D01*
X144999000Y-121150000D01*
X145299000Y-122000000D01*
D14*
X177420428Y-60566071D02*
X177420428Y-59066071D01*
X177991857Y-59066071D01*
X178134714Y-59137500D01*
X178206142Y-59208928D01*
X178277571Y-59351785D01*
X178277571Y-59566071D01*
X178206142Y-59708928D01*
X178134714Y-59780357D01*
X177991857Y-59851785D01*
X177420428Y-59851785D01*
X179206142Y-59066071D02*
X179491857Y-59066071D01*
X179634714Y-59137500D01*
X179777571Y-59280357D01*
X179849000Y-59566071D01*
X179849000Y-60066071D01*
X179777571Y-60351785D01*
X179634714Y-60494642D01*
X179491857Y-60566071D01*
X179206142Y-60566071D01*
X179063285Y-60494642D01*
X178920428Y-60351785D01*
X178849000Y-60066071D01*
X178849000Y-59566071D01*
X178920428Y-59280357D01*
X179063285Y-59137500D01*
X179206142Y-59066071D01*
X177813285Y-63191071D02*
X177813285Y-61691071D01*
X178527571Y-63191071D02*
X178527571Y-61691071D01*
X179384714Y-63191071D01*
X179384714Y-61691071D01*
D15*
X146162095Y-51915476D02*
X146162095Y-50665476D01*
X146638285Y-50665476D01*
X146757333Y-50725000D01*
X146816857Y-50784523D01*
X146876380Y-50903571D01*
X146876380Y-51082142D01*
X146816857Y-51201190D01*
X146757333Y-51260714D01*
X146638285Y-51320238D01*
X146162095Y-51320238D01*
X147590666Y-51915476D02*
X147471619Y-51855952D01*
X147412095Y-51796428D01*
X147352571Y-51677380D01*
X147352571Y-51320238D01*
X147412095Y-51201190D01*
X147471619Y-51141666D01*
X147590666Y-51082142D01*
X147769238Y-51082142D01*
X147888285Y-51141666D01*
X147947809Y-51201190D01*
X148007333Y-51320238D01*
X148007333Y-51677380D01*
X147947809Y-51796428D01*
X147888285Y-51855952D01*
X147769238Y-51915476D01*
X147590666Y-51915476D01*
X149078761Y-51855952D02*
X148959714Y-51915476D01*
X148721619Y-51915476D01*
X148602571Y-51855952D01*
X148543047Y-51796428D01*
X148483523Y-51677380D01*
X148483523Y-51320238D01*
X148543047Y-51201190D01*
X148602571Y-51141666D01*
X148721619Y-51082142D01*
X148959714Y-51082142D01*
X149078761Y-51141666D01*
X149614476Y-51915476D02*
X149614476Y-50665476D01*
X149733523Y-51439285D02*
X150090666Y-51915476D01*
X150090666Y-51082142D02*
X149614476Y-51558333D01*
X151102571Y-51855952D02*
X150983523Y-51915476D01*
X150745428Y-51915476D01*
X150626380Y-51855952D01*
X150566857Y-51736904D01*
X150566857Y-51260714D01*
X150626380Y-51141666D01*
X150745428Y-51082142D01*
X150983523Y-51082142D01*
X151102571Y-51141666D01*
X151162095Y-51260714D01*
X151162095Y-51379761D01*
X150566857Y-51498809D01*
X151519238Y-51082142D02*
X151995428Y-51082142D01*
X151697809Y-50665476D02*
X151697809Y-51736904D01*
X151757333Y-51855952D01*
X151876380Y-51915476D01*
X151995428Y-51915476D01*
X153364476Y-51915476D02*
X153364476Y-50665476D01*
X153959714Y-51082142D02*
X153959714Y-51915476D01*
X153959714Y-51201190D02*
X154019238Y-51141666D01*
X154138285Y-51082142D01*
X154316857Y-51082142D01*
X154435904Y-51141666D01*
X154495428Y-51260714D01*
X154495428Y-51915476D01*
X154912095Y-51082142D02*
X155388285Y-51082142D01*
X155090666Y-50665476D02*
X155090666Y-51736904D01*
X155150190Y-51855952D01*
X155269238Y-51915476D01*
X155388285Y-51915476D01*
X156281142Y-51855952D02*
X156162095Y-51915476D01*
X155924000Y-51915476D01*
X155804952Y-51855952D01*
X155745428Y-51736904D01*
X155745428Y-51260714D01*
X155804952Y-51141666D01*
X155924000Y-51082142D01*
X156162095Y-51082142D01*
X156281142Y-51141666D01*
X156340666Y-51260714D01*
X156340666Y-51379761D01*
X155745428Y-51498809D01*
X157412095Y-51082142D02*
X157412095Y-52094047D01*
X157352571Y-52213095D01*
X157293047Y-52272619D01*
X157174000Y-52332142D01*
X156995428Y-52332142D01*
X156876380Y-52272619D01*
X157412095Y-51855952D02*
X157293047Y-51915476D01*
X157054952Y-51915476D01*
X156935904Y-51855952D01*
X156876380Y-51796428D01*
X156816857Y-51677380D01*
X156816857Y-51320238D01*
X156876380Y-51201190D01*
X156935904Y-51141666D01*
X157054952Y-51082142D01*
X157293047Y-51082142D01*
X157412095Y-51141666D01*
X158007333Y-51915476D02*
X158007333Y-51082142D01*
X158007333Y-51320238D02*
X158066857Y-51201190D01*
X158126380Y-51141666D01*
X158245428Y-51082142D01*
X158364476Y-51082142D01*
X159316857Y-51915476D02*
X159316857Y-51260714D01*
X159257333Y-51141666D01*
X159138285Y-51082142D01*
X158900190Y-51082142D01*
X158781142Y-51141666D01*
X159316857Y-51855952D02*
X159197809Y-51915476D01*
X158900190Y-51915476D01*
X158781142Y-51855952D01*
X158721619Y-51736904D01*
X158721619Y-51617857D01*
X158781142Y-51498809D01*
X158900190Y-51439285D01*
X159197809Y-51439285D01*
X159316857Y-51379761D01*
X159733523Y-51082142D02*
X160209714Y-51082142D01*
X159912095Y-50665476D02*
X159912095Y-51736904D01*
X159971619Y-51855952D01*
X160090666Y-51915476D01*
X160209714Y-51915476D01*
X160804952Y-51915476D02*
X160685904Y-51855952D01*
X160626380Y-51796428D01*
X160566857Y-51677380D01*
X160566857Y-51320238D01*
X160626380Y-51201190D01*
X160685904Y-51141666D01*
X160804952Y-51082142D01*
X160983523Y-51082142D01*
X161102571Y-51141666D01*
X161162095Y-51201190D01*
X161221619Y-51320238D01*
X161221619Y-51677380D01*
X161162095Y-51796428D01*
X161102571Y-51855952D01*
X160983523Y-51915476D01*
X160804952Y-51915476D01*
X161757333Y-51915476D02*
X161757333Y-51082142D01*
X161757333Y-51320238D02*
X161816857Y-51201190D01*
X161876380Y-51141666D01*
X161995428Y-51082142D01*
X162114476Y-51082142D01*
X143721619Y-53990476D02*
X143721619Y-52740476D01*
X143721619Y-53216666D02*
X143840666Y-53157142D01*
X144078761Y-53157142D01*
X144197809Y-53216666D01*
X144257333Y-53276190D01*
X144316857Y-53395238D01*
X144316857Y-53752380D01*
X144257333Y-53871428D01*
X144197809Y-53930952D01*
X144078761Y-53990476D01*
X143840666Y-53990476D01*
X143721619Y-53930952D01*
X144852571Y-53990476D02*
X144852571Y-53157142D01*
X144852571Y-52740476D02*
X144793047Y-52800000D01*
X144852571Y-52859523D01*
X144912095Y-52800000D01*
X144852571Y-52740476D01*
X144852571Y-52859523D01*
X145269238Y-53157142D02*
X145745428Y-53157142D01*
X145447809Y-52740476D02*
X145447809Y-53811904D01*
X145507333Y-53930952D01*
X145626380Y-53990476D01*
X145745428Y-53990476D01*
X146162095Y-53871428D02*
X146221619Y-53930952D01*
X146162095Y-53990476D01*
X146102571Y-53930952D01*
X146162095Y-53871428D01*
X146162095Y-53990476D01*
X146935904Y-53990476D02*
X146816857Y-53930952D01*
X146757333Y-53811904D01*
X146757333Y-52740476D01*
X147293047Y-53157142D02*
X147590666Y-53990476D01*
X147888285Y-53157142D02*
X147590666Y-53990476D01*
X147471619Y-54288095D01*
X147412095Y-54347619D01*
X147293047Y-54407142D01*
X149257333Y-52680952D02*
X148185904Y-54288095D01*
X149674000Y-53157142D02*
X149674000Y-54407142D01*
X149674000Y-53216666D02*
X149793047Y-53157142D01*
X150031142Y-53157142D01*
X150150190Y-53216666D01*
X150209714Y-53276190D01*
X150269238Y-53395238D01*
X150269238Y-53752380D01*
X150209714Y-53871428D01*
X150150190Y-53930952D01*
X150031142Y-53990476D01*
X149793047Y-53990476D01*
X149674000Y-53930952D01*
X150983523Y-53990476D02*
X150864476Y-53930952D01*
X150804952Y-53871428D01*
X150745428Y-53752380D01*
X150745428Y-53395238D01*
X150804952Y-53276190D01*
X150864476Y-53216666D01*
X150983523Y-53157142D01*
X151162095Y-53157142D01*
X151281142Y-53216666D01*
X151340666Y-53276190D01*
X151400190Y-53395238D01*
X151400190Y-53752380D01*
X151340666Y-53871428D01*
X151281142Y-53930952D01*
X151162095Y-53990476D01*
X150983523Y-53990476D01*
X152471619Y-53930952D02*
X152352571Y-53990476D01*
X152114476Y-53990476D01*
X151995428Y-53930952D01*
X151935904Y-53871428D01*
X151876380Y-53752380D01*
X151876380Y-53395238D01*
X151935904Y-53276190D01*
X151995428Y-53216666D01*
X152114476Y-53157142D01*
X152352571Y-53157142D01*
X152471619Y-53216666D01*
X153007333Y-53990476D02*
X153007333Y-52740476D01*
X153126380Y-53514285D02*
X153483523Y-53990476D01*
X153483523Y-53157142D02*
X153007333Y-53633333D01*
X154495428Y-53930952D02*
X154376380Y-53990476D01*
X154138285Y-53990476D01*
X154019238Y-53930952D01*
X153959714Y-53811904D01*
X153959714Y-53335714D01*
X154019238Y-53216666D01*
X154138285Y-53157142D01*
X154376380Y-53157142D01*
X154495428Y-53216666D01*
X154554952Y-53335714D01*
X154554952Y-53454761D01*
X153959714Y-53573809D01*
X154912095Y-53157142D02*
X155388285Y-53157142D01*
X155090666Y-52740476D02*
X155090666Y-53811904D01*
X155150190Y-53930952D01*
X155269238Y-53990476D01*
X155388285Y-53990476D01*
X155804952Y-53990476D02*
X155804952Y-53157142D01*
X155804952Y-52740476D02*
X155745428Y-52800000D01*
X155804952Y-52859523D01*
X155864476Y-52800000D01*
X155804952Y-52740476D01*
X155804952Y-52859523D01*
X156400190Y-53157142D02*
X156400190Y-53990476D01*
X156400190Y-53276190D02*
X156459714Y-53216666D01*
X156578761Y-53157142D01*
X156757333Y-53157142D01*
X156876380Y-53216666D01*
X156935904Y-53335714D01*
X156935904Y-53990476D01*
X157352571Y-53157142D02*
X157828761Y-53157142D01*
X157531142Y-52740476D02*
X157531142Y-53811904D01*
X157590666Y-53930952D01*
X157709714Y-53990476D01*
X157828761Y-53990476D01*
X158721619Y-53930952D02*
X158602571Y-53990476D01*
X158364476Y-53990476D01*
X158245428Y-53930952D01*
X158185904Y-53811904D01*
X158185904Y-53335714D01*
X158245428Y-53216666D01*
X158364476Y-53157142D01*
X158602571Y-53157142D01*
X158721619Y-53216666D01*
X158781142Y-53335714D01*
X158781142Y-53454761D01*
X158185904Y-53573809D01*
X159852571Y-53157142D02*
X159852571Y-54169047D01*
X159793047Y-54288095D01*
X159733523Y-54347619D01*
X159614476Y-54407142D01*
X159435904Y-54407142D01*
X159316857Y-54347619D01*
X159852571Y-53930952D02*
X159733523Y-53990476D01*
X159495428Y-53990476D01*
X159376380Y-53930952D01*
X159316857Y-53871428D01*
X159257333Y-53752380D01*
X159257333Y-53395238D01*
X159316857Y-53276190D01*
X159376380Y-53216666D01*
X159495428Y-53157142D01*
X159733523Y-53157142D01*
X159852571Y-53216666D01*
X160447809Y-53990476D02*
X160447809Y-53157142D01*
X160447809Y-53395238D02*
X160507333Y-53276190D01*
X160566857Y-53216666D01*
X160685904Y-53157142D01*
X160804952Y-53157142D01*
X161757333Y-53990476D02*
X161757333Y-53335714D01*
X161697809Y-53216666D01*
X161578761Y-53157142D01*
X161340666Y-53157142D01*
X161221619Y-53216666D01*
X161757333Y-53930952D02*
X161638285Y-53990476D01*
X161340666Y-53990476D01*
X161221619Y-53930952D01*
X161162095Y-53811904D01*
X161162095Y-53692857D01*
X161221619Y-53573809D01*
X161340666Y-53514285D01*
X161638285Y-53514285D01*
X161757333Y-53454761D01*
X162174000Y-53157142D02*
X162650190Y-53157142D01*
X162352571Y-52740476D02*
X162352571Y-53811904D01*
X162412095Y-53930952D01*
X162531142Y-53990476D01*
X162650190Y-53990476D01*
X163245428Y-53990476D02*
X163126380Y-53930952D01*
X163066857Y-53871428D01*
X163007333Y-53752380D01*
X163007333Y-53395238D01*
X163066857Y-53276190D01*
X163126380Y-53216666D01*
X163245428Y-53157142D01*
X163424000Y-53157142D01*
X163543047Y-53216666D01*
X163602571Y-53276190D01*
X163662095Y-53395238D01*
X163662095Y-53752380D01*
X163602571Y-53871428D01*
X163543047Y-53930952D01*
X163424000Y-53990476D01*
X163245428Y-53990476D01*
X164197809Y-53990476D02*
X164197809Y-53157142D01*
X164197809Y-53395238D02*
X164257333Y-53276190D01*
X164316857Y-53216666D01*
X164435904Y-53157142D01*
X164554952Y-53157142D01*
D14*
X155443285Y-157765714D02*
X155371857Y-157837142D01*
X155157571Y-157908571D01*
X155014714Y-157908571D01*
X154800428Y-157837142D01*
X154657571Y-157694285D01*
X154586142Y-157551428D01*
X154514714Y-157265714D01*
X154514714Y-157051428D01*
X154586142Y-156765714D01*
X154657571Y-156622857D01*
X154800428Y-156480000D01*
X155014714Y-156408571D01*
X155157571Y-156408571D01*
X155371857Y-156480000D01*
X155443285Y-156551428D01*
X131919116Y-59137977D02*
X132204830Y-59137977D01*
X132347687Y-59209406D01*
X132490544Y-59352263D01*
X132561973Y-59637977D01*
X132561973Y-60137977D01*
X132490544Y-60423691D01*
X132347687Y-60566548D01*
X132204830Y-60637977D01*
X131919116Y-60637977D01*
X131776258Y-60566548D01*
X131633401Y-60423691D01*
X131561973Y-60137977D01*
X131561973Y-59637977D01*
X131633401Y-59352263D01*
X131776258Y-59209406D01*
X131919116Y-59137977D01*
X133204830Y-59137977D02*
X133204830Y-60352263D01*
X133276258Y-60495120D01*
X133347687Y-60566548D01*
X133490544Y-60637977D01*
X133776258Y-60637977D01*
X133919116Y-60566548D01*
X133990544Y-60495120D01*
X134061973Y-60352263D01*
X134061973Y-59137977D01*
X134561973Y-59137977D02*
X135419116Y-59137977D01*
X134990544Y-60637977D02*
X134990544Y-59137977D01*
X128276258Y-61762977D02*
X129133401Y-61762977D01*
X128704830Y-63262977D02*
X128704830Y-61762977D01*
X129919116Y-61762977D02*
X130204830Y-61762977D01*
X130347687Y-61834406D01*
X130490544Y-61977263D01*
X130561973Y-62262977D01*
X130561973Y-62762977D01*
X130490544Y-63048691D01*
X130347687Y-63191548D01*
X130204830Y-63262977D01*
X129919116Y-63262977D01*
X129776258Y-63191548D01*
X129633401Y-63048691D01*
X129561973Y-62762977D01*
X129561973Y-62262977D01*
X129633401Y-61977263D01*
X129776258Y-61834406D01*
X129919116Y-61762977D01*
X132347687Y-63262977D02*
X132347687Y-61762977D01*
X132704830Y-61762977D01*
X132919116Y-61834406D01*
X133061973Y-61977263D01*
X133133401Y-62120120D01*
X133204830Y-62405834D01*
X133204830Y-62620120D01*
X133133401Y-62905834D01*
X133061973Y-63048691D01*
X132919116Y-63191548D01*
X132704830Y-63262977D01*
X132347687Y-63262977D01*
X133847687Y-63262977D02*
X133847687Y-61762977D01*
X134490544Y-63191548D02*
X134704830Y-63262977D01*
X135061973Y-63262977D01*
X135204830Y-63191548D01*
X135276258Y-63120120D01*
X135347687Y-62977263D01*
X135347687Y-62834406D01*
X135276258Y-62691548D01*
X135204830Y-62620120D01*
X135061973Y-62548691D01*
X134776258Y-62477263D01*
X134633401Y-62405834D01*
X134561973Y-62334406D01*
X134490544Y-62191548D01*
X134490544Y-62048691D01*
X134561973Y-61905834D01*
X134633401Y-61834406D01*
X134776258Y-61762977D01*
X135133401Y-61762977D01*
X135347687Y-61834406D01*
X136847687Y-63120120D02*
X136776258Y-63191548D01*
X136561973Y-63262977D01*
X136419116Y-63262977D01*
X136204830Y-63191548D01*
X136061973Y-63048691D01*
X135990544Y-62905834D01*
X135919116Y-62620120D01*
X135919116Y-62405834D01*
X135990544Y-62120120D01*
X136061973Y-61977263D01*
X136204830Y-61834406D01*
X136419116Y-61762977D01*
X136561973Y-61762977D01*
X136776258Y-61834406D01*
X136847687Y-61905834D01*
X137776258Y-61762977D02*
X138061973Y-61762977D01*
X138204830Y-61834406D01*
X138347687Y-61977263D01*
X138419116Y-62262977D01*
X138419116Y-62762977D01*
X138347687Y-63048691D01*
X138204830Y-63191548D01*
X138061973Y-63262977D01*
X137776258Y-63262977D01*
X137633401Y-63191548D01*
X137490544Y-63048691D01*
X137419116Y-62762977D01*
X137419116Y-62262977D01*
X137490544Y-61977263D01*
X137633401Y-61834406D01*
X137776258Y-61762977D01*
X131699000Y-50066071D02*
X131699000Y-48566071D01*
X132270428Y-48566071D01*
X132413285Y-48637500D01*
X132484714Y-48708928D01*
X132556142Y-48851785D01*
X132556142Y-49066071D01*
X132484714Y-49208928D01*
X132413285Y-49280357D01*
X132270428Y-49351785D01*
X131699000Y-49351785D01*
X133484714Y-48566071D02*
X133770428Y-48566071D01*
X133913285Y-48637500D01*
X134056142Y-48780357D01*
X134127571Y-49066071D01*
X134127571Y-49566071D01*
X134056142Y-49851785D01*
X133913285Y-49994642D01*
X133770428Y-50066071D01*
X133484714Y-50066071D01*
X133341857Y-49994642D01*
X133199000Y-49851785D01*
X133127571Y-49566071D01*
X133127571Y-49066071D01*
X133199000Y-48780357D01*
X133341857Y-48637500D01*
X133484714Y-48566071D01*
X135627571Y-50066071D02*
X135127571Y-49351785D01*
X134770428Y-50066071D02*
X134770428Y-48566071D01*
X135341857Y-48566071D01*
X135484714Y-48637500D01*
X135556142Y-48708928D01*
X135627571Y-48851785D01*
X135627571Y-49066071D01*
X135556142Y-49208928D01*
X135484714Y-49280357D01*
X135341857Y-49351785D01*
X134770428Y-49351785D01*
X136056142Y-48566071D02*
X136913285Y-48566071D01*
X136484714Y-50066071D02*
X136484714Y-48566071D01*
X133841857Y-52262500D02*
X134556142Y-52262500D01*
X133699000Y-52691071D02*
X134199000Y-51191071D01*
X134699000Y-52691071D01*
X171599000Y-49966071D02*
X171599000Y-48466071D01*
X172170428Y-48466071D01*
X172313285Y-48537500D01*
X172384714Y-48608928D01*
X172456142Y-48751785D01*
X172456142Y-48966071D01*
X172384714Y-49108928D01*
X172313285Y-49180357D01*
X172170428Y-49251785D01*
X171599000Y-49251785D01*
X173384714Y-48466071D02*
X173670428Y-48466071D01*
X173813285Y-48537500D01*
X173956142Y-48680357D01*
X174027571Y-48966071D01*
X174027571Y-49466071D01*
X173956142Y-49751785D01*
X173813285Y-49894642D01*
X173670428Y-49966071D01*
X173384714Y-49966071D01*
X173241857Y-49894642D01*
X173099000Y-49751785D01*
X173027571Y-49466071D01*
X173027571Y-48966071D01*
X173099000Y-48680357D01*
X173241857Y-48537500D01*
X173384714Y-48466071D01*
X175527571Y-49966071D02*
X175027571Y-49251785D01*
X174670428Y-49966071D02*
X174670428Y-48466071D01*
X175241857Y-48466071D01*
X175384714Y-48537500D01*
X175456142Y-48608928D01*
X175527571Y-48751785D01*
X175527571Y-48966071D01*
X175456142Y-49108928D01*
X175384714Y-49180357D01*
X175241857Y-49251785D01*
X174670428Y-49251785D01*
X175956142Y-48466071D02*
X176813285Y-48466071D01*
X176384714Y-49966071D02*
X176384714Y-48466071D01*
X174206142Y-51805357D02*
X174420428Y-51876785D01*
X174491857Y-51948214D01*
X174563285Y-52091071D01*
X174563285Y-52305357D01*
X174491857Y-52448214D01*
X174420428Y-52519642D01*
X174277571Y-52591071D01*
X173706142Y-52591071D01*
X173706142Y-51091071D01*
X174206142Y-51091071D01*
X174349000Y-51162500D01*
X174420428Y-51233928D01*
X174491857Y-51376785D01*
X174491857Y-51519642D01*
X174420428Y-51662500D01*
X174349000Y-51733928D01*
X174206142Y-51805357D01*
X173706142Y-51805357D01*
D16*
%TO.C,SW3*%
X150539000Y-48250000D03*
X157559000Y-48250000D03*
D17*
X151809000Y-45760000D03*
X156289000Y-45760000D03*
%TD*%
D18*
%TO.C,J7*%
X131259000Y-124160000D03*
X131259000Y-126700000D03*
X133799000Y-124160000D03*
D19*
X133799000Y-126700000D03*
%TD*%
D20*
%TO.C,SW4*%
X139534000Y-158100000D03*
X143784000Y-158100000D03*
%TD*%
D16*
%TO.C,SW2*%
X182439000Y-85108094D03*
X182439000Y-92128094D03*
D17*
X184929000Y-86378094D03*
X184929000Y-90858094D03*
%TD*%
D16*
%TO.C,SW1*%
X125559000Y-92010000D03*
X125559000Y-84990000D03*
D17*
X123069000Y-90740000D03*
X123069000Y-86260000D03*
%TD*%
D18*
%TO.C,JP1*%
X167989000Y-158050000D03*
D19*
X165449000Y-158050000D03*
%TD*%
D17*
%TO.C,J1*%
X130600000Y-50600000D03*
X137600000Y-50600000D03*
%TD*%
D21*
%TO.C,J5*%
X158359000Y-158440000D03*
X149719000Y-158440000D03*
D22*
X158359000Y-154260000D03*
X149719000Y-154260000D03*
D23*
X151149000Y-154760000D03*
X156929000Y-154760000D03*
%TD*%
D18*
%TO.C,J6*%
X173579000Y-124370000D03*
X171039000Y-124370000D03*
X173579000Y-126910000D03*
X171039000Y-126910000D03*
X173579000Y-129450000D03*
X171039000Y-129450000D03*
X173579000Y-131990000D03*
X171039000Y-131990000D03*
X173579000Y-134530000D03*
D19*
X171039000Y-134530000D03*
%TD*%
D17*
%TO.C,J2*%
X177500000Y-50600000D03*
X170500000Y-50600000D03*
%TD*%
M02*
