%TF.GenerationSoftware,KiCad,Pcbnew,(5.1.9-0-10_14)*%
%TF.CreationDate,2023-04-27T17:08:01-07:00*%
%TF.ProjectId,integrator,696e7465-6772-4617-946f-722e6b696361,rev?*%
%TF.SameCoordinates,Original*%
%TF.FileFunction,Paste,Bot*%
%TF.FilePolarity,Positive*%
%FSLAX46Y46*%
G04 Gerber Fmt 4.6, Leading zero omitted, Abs format (unit mm)*
G04 Created by KiCad (PCBNEW (5.1.9-0-10_14)) date 2023-04-27 17:08:01*
%MOMM*%
%LPD*%
G01*
G04 APERTURE LIST*
%ADD10C,0.152400*%
%ADD11C,2.000000*%
%ADD12R,2.800000X2.800000*%
%ADD13R,2.200000X2.800000*%
%ADD14R,0.650000X1.060000*%
%ADD15R,0.500000X2.100000*%
%ADD16R,0.600000X1.450000*%
%ADD17R,0.300000X1.450000*%
%ADD18R,0.330200X1.016000*%
%ADD19R,0.431800X1.016000*%
%ADD20R,2.300000X2.500000*%
%ADD21R,0.558800X1.003300*%
%ADD22R,1.150000X1.000000*%
%ADD23R,3.200400X3.200400*%
%ADD24R,0.177800X0.812800*%
%ADD25R,0.812800X0.177800*%
%ADD26R,1.300000X0.900000*%
%ADD27R,0.750000X1.800000*%
%ADD28R,0.600000X1.800000*%
%ADD29R,0.304800X0.533400*%
%ADD30R,0.533400X0.304800*%
G04 APERTURE END LIST*
D10*
%TO.C,U5*%
X155549200Y-133600000D02*
X154149000Y-133600000D01*
X155549200Y-132199800D02*
X155549200Y-133600000D01*
X154149000Y-132199800D02*
X155549200Y-132199800D01*
X154149000Y-133600000D02*
X154149000Y-132199800D01*
X155549200Y-135200200D02*
X154149000Y-135200200D01*
X155549200Y-133800000D02*
X155549200Y-135200200D01*
X154149000Y-133800000D02*
X155549200Y-133800000D01*
X154149000Y-135200200D02*
X154149000Y-133800000D01*
X153949000Y-133600000D02*
X152548800Y-133600000D01*
X153949000Y-132199800D02*
X153949000Y-133600000D01*
X152548800Y-132199800D02*
X153949000Y-132199800D01*
X152548800Y-133600000D02*
X152548800Y-132199800D01*
X153949000Y-135200200D02*
X152548800Y-135200200D01*
X153949000Y-133800000D02*
X153949000Y-135200200D01*
X152548800Y-133800000D02*
X153949000Y-133800000D01*
X152548800Y-135200200D02*
X152548800Y-133800000D01*
%TD*%
D11*
%TO.C,POGO1*%
X160399000Y-61230000D03*
X160399000Y-63770000D03*
X157859000Y-61230000D03*
X157859000Y-63770000D03*
X155319000Y-61230000D03*
X155319000Y-63770000D03*
X152779000Y-61230000D03*
X152779000Y-63770000D03*
X150239000Y-61230000D03*
X150239000Y-63770000D03*
X147699000Y-61230000D03*
X147699000Y-63770000D03*
%TD*%
D12*
%TO.C,J2*%
X169700000Y-54050000D03*
D13*
X179100000Y-54050000D03*
X177100000Y-46650000D03*
%TD*%
D12*
%TO.C,J1*%
X138400000Y-46400000D03*
D13*
X129000000Y-46400000D03*
X131000000Y-53800000D03*
%TD*%
%TO.C,C16*%
G36*
G01*
X177849000Y-155500000D02*
X177849000Y-154400000D01*
G75*
G02*
X178099000Y-154150000I250000J0D01*
G01*
X180599000Y-154150000D01*
G75*
G02*
X180849000Y-154400000I0J-250000D01*
G01*
X180849000Y-155500000D01*
G75*
G02*
X180599000Y-155750000I-250000J0D01*
G01*
X178099000Y-155750000D01*
G75*
G02*
X177849000Y-155500000I0J250000D01*
G01*
G37*
G36*
G01*
X173449000Y-155500000D02*
X173449000Y-154400000D01*
G75*
G02*
X173699000Y-154150000I250000J0D01*
G01*
X176199000Y-154150000D01*
G75*
G02*
X176449000Y-154400000I0J-250000D01*
G01*
X176449000Y-155500000D01*
G75*
G02*
X176199000Y-155750000I-250000J0D01*
G01*
X173699000Y-155750000D01*
G75*
G02*
X173449000Y-155500000I0J250000D01*
G01*
G37*
%TD*%
%TO.C,C15*%
G36*
G01*
X130329000Y-154450000D02*
X130329000Y-155550000D01*
G75*
G02*
X130079000Y-155800000I-250000J0D01*
G01*
X127579000Y-155800000D01*
G75*
G02*
X127329000Y-155550000I0J250000D01*
G01*
X127329000Y-154450000D01*
G75*
G02*
X127579000Y-154200000I250000J0D01*
G01*
X130079000Y-154200000D01*
G75*
G02*
X130329000Y-154450000I0J-250000D01*
G01*
G37*
G36*
G01*
X134729000Y-154450000D02*
X134729000Y-155550000D01*
G75*
G02*
X134479000Y-155800000I-250000J0D01*
G01*
X131979000Y-155800000D01*
G75*
G02*
X131729000Y-155550000I0J250000D01*
G01*
X131729000Y-154450000D01*
G75*
G02*
X131979000Y-154200000I250000J0D01*
G01*
X134479000Y-154200000D01*
G75*
G02*
X134729000Y-154450000I0J-250000D01*
G01*
G37*
%TD*%
D14*
%TO.C,U1*%
X141949000Y-151300000D03*
X142899000Y-151300000D03*
X140999000Y-151300000D03*
X140999000Y-153500000D03*
X141949000Y-153500000D03*
X142899000Y-153500000D03*
%TD*%
D15*
%TO.C,J5*%
X157769000Y-158420000D03*
X150319000Y-158450000D03*
X149119000Y-158460000D03*
X149129000Y-154260000D03*
X158939000Y-154270000D03*
X158939000Y-158430000D03*
D16*
X157289000Y-153345000D03*
X156489000Y-153345000D03*
D17*
X154289000Y-153345000D03*
X154789000Y-153345000D03*
X155289000Y-153345000D03*
X155789000Y-153345000D03*
X153789000Y-153345000D03*
X153289000Y-153345000D03*
X152789000Y-153345000D03*
X152289000Y-153345000D03*
D16*
X151589000Y-153345000D03*
X150789000Y-153345000D03*
%TD*%
D18*
%TO.C,U2*%
X133099001Y-144301700D03*
X134398999Y-144301700D03*
D19*
X134348200Y-142498300D03*
D18*
X133099000Y-142498300D03*
%TD*%
%TO.C,D2*%
G36*
G01*
X166905250Y-149775000D02*
X166392750Y-149775000D01*
G75*
G02*
X166174000Y-149556250I0J218750D01*
G01*
X166174000Y-149118750D01*
G75*
G02*
X166392750Y-148900000I218750J0D01*
G01*
X166905250Y-148900000D01*
G75*
G02*
X167124000Y-149118750I0J-218750D01*
G01*
X167124000Y-149556250D01*
G75*
G02*
X166905250Y-149775000I-218750J0D01*
G01*
G37*
G36*
G01*
X166905250Y-151350000D02*
X166392750Y-151350000D01*
G75*
G02*
X166174000Y-151131250I0J218750D01*
G01*
X166174000Y-150693750D01*
G75*
G02*
X166392750Y-150475000I218750J0D01*
G01*
X166905250Y-150475000D01*
G75*
G02*
X167124000Y-150693750I0J-218750D01*
G01*
X167124000Y-151131250D01*
G75*
G02*
X166905250Y-151350000I-218750J0D01*
G01*
G37*
%TD*%
%TO.C,R22*%
G36*
G01*
X180198998Y-67750000D02*
X181099002Y-67750000D01*
G75*
G02*
X181349000Y-67999998I0J-249998D01*
G01*
X181349000Y-68525002D01*
G75*
G02*
X181099002Y-68775000I-249998J0D01*
G01*
X180198998Y-68775000D01*
G75*
G02*
X179949000Y-68525002I0J249998D01*
G01*
X179949000Y-67999998D01*
G75*
G02*
X180198998Y-67750000I249998J0D01*
G01*
G37*
G36*
G01*
X180198998Y-65925000D02*
X181099002Y-65925000D01*
G75*
G02*
X181349000Y-66174998I0J-249998D01*
G01*
X181349000Y-66700002D01*
G75*
G02*
X181099002Y-66950000I-249998J0D01*
G01*
X180198998Y-66950000D01*
G75*
G02*
X179949000Y-66700002I0J249998D01*
G01*
X179949000Y-66174998D01*
G75*
G02*
X180198998Y-65925000I249998J0D01*
G01*
G37*
%TD*%
%TO.C,R21*%
G36*
G01*
X179049002Y-66950000D02*
X178148998Y-66950000D01*
G75*
G02*
X177899000Y-66700002I0J249998D01*
G01*
X177899000Y-66174998D01*
G75*
G02*
X178148998Y-65925000I249998J0D01*
G01*
X179049002Y-65925000D01*
G75*
G02*
X179299000Y-66174998I0J-249998D01*
G01*
X179299000Y-66700002D01*
G75*
G02*
X179049002Y-66950000I-249998J0D01*
G01*
G37*
G36*
G01*
X179049002Y-68775000D02*
X178148998Y-68775000D01*
G75*
G02*
X177899000Y-68525002I0J249998D01*
G01*
X177899000Y-67999998D01*
G75*
G02*
X178148998Y-67750000I249998J0D01*
G01*
X179049002Y-67750000D01*
G75*
G02*
X179299000Y-67999998I0J-249998D01*
G01*
X179299000Y-68525002D01*
G75*
G02*
X179049002Y-68775000I-249998J0D01*
G01*
G37*
%TD*%
D20*
%TO.C,D4*%
X129449000Y-127550000D03*
X129449000Y-123250000D03*
%TD*%
%TO.C,C35*%
G36*
G01*
X158724000Y-144475000D02*
X158724000Y-143525000D01*
G75*
G02*
X158974000Y-143275000I250000J0D01*
G01*
X159474000Y-143275000D01*
G75*
G02*
X159724000Y-143525000I0J-250000D01*
G01*
X159724000Y-144475000D01*
G75*
G02*
X159474000Y-144725000I-250000J0D01*
G01*
X158974000Y-144725000D01*
G75*
G02*
X158724000Y-144475000I0J250000D01*
G01*
G37*
G36*
G01*
X156824000Y-144475000D02*
X156824000Y-143525000D01*
G75*
G02*
X157074000Y-143275000I250000J0D01*
G01*
X157574000Y-143275000D01*
G75*
G02*
X157824000Y-143525000I0J-250000D01*
G01*
X157824000Y-144475000D01*
G75*
G02*
X157574000Y-144725000I-250000J0D01*
G01*
X157074000Y-144725000D01*
G75*
G02*
X156824000Y-144475000I0J250000D01*
G01*
G37*
%TD*%
%TO.C,C31*%
G36*
G01*
X131699000Y-142925000D02*
X130749000Y-142925000D01*
G75*
G02*
X130499000Y-142675000I0J250000D01*
G01*
X130499000Y-142175000D01*
G75*
G02*
X130749000Y-141925000I250000J0D01*
G01*
X131699000Y-141925000D01*
G75*
G02*
X131949000Y-142175000I0J-250000D01*
G01*
X131949000Y-142675000D01*
G75*
G02*
X131699000Y-142925000I-250000J0D01*
G01*
G37*
G36*
G01*
X131699000Y-144825000D02*
X130749000Y-144825000D01*
G75*
G02*
X130499000Y-144575000I0J250000D01*
G01*
X130499000Y-144075000D01*
G75*
G02*
X130749000Y-143825000I250000J0D01*
G01*
X131699000Y-143825000D01*
G75*
G02*
X131949000Y-144075000I0J-250000D01*
G01*
X131949000Y-144575000D01*
G75*
G02*
X131699000Y-144825000I-250000J0D01*
G01*
G37*
%TD*%
D21*
%TO.C,U7*%
X173149001Y-111147450D03*
X172199000Y-111147450D03*
X171248999Y-111147450D03*
X171248999Y-113852550D03*
X172199000Y-113852550D03*
X173149001Y-113852550D03*
%TD*%
%TO.C,U4*%
X161799001Y-111177450D03*
X160849000Y-111177450D03*
X159898999Y-111177450D03*
X159898999Y-113882550D03*
X160849000Y-113882550D03*
X161799001Y-113882550D03*
%TD*%
D20*
%TO.C,D1*%
X137899000Y-123300000D03*
X137899000Y-127600000D03*
%TD*%
%TO.C,C37*%
G36*
G01*
X158224000Y-121850000D02*
X158224000Y-121350000D01*
G75*
G02*
X158449000Y-121125000I225000J0D01*
G01*
X158899000Y-121125000D01*
G75*
G02*
X159124000Y-121350000I0J-225000D01*
G01*
X159124000Y-121850000D01*
G75*
G02*
X158899000Y-122075000I-225000J0D01*
G01*
X158449000Y-122075000D01*
G75*
G02*
X158224000Y-121850000I0J225000D01*
G01*
G37*
G36*
G01*
X156674000Y-121850000D02*
X156674000Y-121350000D01*
G75*
G02*
X156899000Y-121125000I225000J0D01*
G01*
X157349000Y-121125000D01*
G75*
G02*
X157574000Y-121350000I0J-225000D01*
G01*
X157574000Y-121850000D01*
G75*
G02*
X157349000Y-122075000I-225000J0D01*
G01*
X156899000Y-122075000D01*
G75*
G02*
X156674000Y-121850000I0J225000D01*
G01*
G37*
%TD*%
%TO.C,C36*%
G36*
G01*
X150274000Y-123350000D02*
X150274000Y-122850000D01*
G75*
G02*
X150499000Y-122625000I225000J0D01*
G01*
X150949000Y-122625000D01*
G75*
G02*
X151174000Y-122850000I0J-225000D01*
G01*
X151174000Y-123350000D01*
G75*
G02*
X150949000Y-123575000I-225000J0D01*
G01*
X150499000Y-123575000D01*
G75*
G02*
X150274000Y-123350000I0J225000D01*
G01*
G37*
G36*
G01*
X148724000Y-123350000D02*
X148724000Y-122850000D01*
G75*
G02*
X148949000Y-122625000I225000J0D01*
G01*
X149399000Y-122625000D01*
G75*
G02*
X149624000Y-122850000I0J-225000D01*
G01*
X149624000Y-123350000D01*
G75*
G02*
X149399000Y-123575000I-225000J0D01*
G01*
X148949000Y-123575000D01*
G75*
G02*
X148724000Y-123350000I0J225000D01*
G01*
G37*
%TD*%
%TO.C,C1*%
G36*
G01*
X145974000Y-151350000D02*
X145024000Y-151350000D01*
G75*
G02*
X144774000Y-151100000I0J250000D01*
G01*
X144774000Y-150600000D01*
G75*
G02*
X145024000Y-150350000I250000J0D01*
G01*
X145974000Y-150350000D01*
G75*
G02*
X146224000Y-150600000I0J-250000D01*
G01*
X146224000Y-151100000D01*
G75*
G02*
X145974000Y-151350000I-250000J0D01*
G01*
G37*
G36*
G01*
X145974000Y-153250000D02*
X145024000Y-153250000D01*
G75*
G02*
X144774000Y-153000000I0J250000D01*
G01*
X144774000Y-152500000D01*
G75*
G02*
X145024000Y-152250000I250000J0D01*
G01*
X145974000Y-152250000D01*
G75*
G02*
X146224000Y-152500000I0J-250000D01*
G01*
X146224000Y-153000000D01*
G75*
G02*
X145974000Y-153250000I-250000J0D01*
G01*
G37*
%TD*%
%TO.C,LED1*%
G36*
G01*
X125342750Y-46250000D02*
X125855250Y-46250000D01*
G75*
G02*
X126074000Y-46468750I0J-218750D01*
G01*
X126074000Y-46906250D01*
G75*
G02*
X125855250Y-47125000I-218750J0D01*
G01*
X125342750Y-47125000D01*
G75*
G02*
X125124000Y-46906250I0J218750D01*
G01*
X125124000Y-46468750D01*
G75*
G02*
X125342750Y-46250000I218750J0D01*
G01*
G37*
G36*
G01*
X125342750Y-44675000D02*
X125855250Y-44675000D01*
G75*
G02*
X126074000Y-44893750I0J-218750D01*
G01*
X126074000Y-45331250D01*
G75*
G02*
X125855250Y-45550000I-218750J0D01*
G01*
X125342750Y-45550000D01*
G75*
G02*
X125124000Y-45331250I0J218750D01*
G01*
X125124000Y-44893750D01*
G75*
G02*
X125342750Y-44675000I218750J0D01*
G01*
G37*
%TD*%
%TO.C,C11*%
G36*
G01*
X156674000Y-123350000D02*
X156674000Y-122850000D01*
G75*
G02*
X156899000Y-122625000I225000J0D01*
G01*
X157349000Y-122625000D01*
G75*
G02*
X157574000Y-122850000I0J-225000D01*
G01*
X157574000Y-123350000D01*
G75*
G02*
X157349000Y-123575000I-225000J0D01*
G01*
X156899000Y-123575000D01*
G75*
G02*
X156674000Y-123350000I0J225000D01*
G01*
G37*
G36*
G01*
X158224000Y-123350000D02*
X158224000Y-122850000D01*
G75*
G02*
X158449000Y-122625000I225000J0D01*
G01*
X158899000Y-122625000D01*
G75*
G02*
X159124000Y-122850000I0J-225000D01*
G01*
X159124000Y-123350000D01*
G75*
G02*
X158899000Y-123575000I-225000J0D01*
G01*
X158449000Y-123575000D01*
G75*
G02*
X158224000Y-123350000I0J225000D01*
G01*
G37*
%TD*%
D22*
%TO.C,Y1*%
X153154000Y-123040000D03*
X154904000Y-123040000D03*
X154904000Y-121640000D03*
X153154000Y-121640000D03*
%TD*%
%TO.C,C12*%
G36*
G01*
X150274000Y-121850000D02*
X150274000Y-121350000D01*
G75*
G02*
X150499000Y-121125000I225000J0D01*
G01*
X150949000Y-121125000D01*
G75*
G02*
X151174000Y-121350000I0J-225000D01*
G01*
X151174000Y-121850000D01*
G75*
G02*
X150949000Y-122075000I-225000J0D01*
G01*
X150499000Y-122075000D01*
G75*
G02*
X150274000Y-121850000I0J225000D01*
G01*
G37*
G36*
G01*
X148724000Y-121850000D02*
X148724000Y-121350000D01*
G75*
G02*
X148949000Y-121125000I225000J0D01*
G01*
X149399000Y-121125000D01*
G75*
G02*
X149624000Y-121350000I0J-225000D01*
G01*
X149624000Y-121850000D01*
G75*
G02*
X149399000Y-122075000I-225000J0D01*
G01*
X148949000Y-122075000D01*
G75*
G02*
X148724000Y-121850000I0J225000D01*
G01*
G37*
%TD*%
%TO.C,C34*%
G36*
G01*
X142774000Y-62950000D02*
X143724000Y-62950000D01*
G75*
G02*
X143974000Y-63200000I0J-250000D01*
G01*
X143974000Y-63700000D01*
G75*
G02*
X143724000Y-63950000I-250000J0D01*
G01*
X142774000Y-63950000D01*
G75*
G02*
X142524000Y-63700000I0J250000D01*
G01*
X142524000Y-63200000D01*
G75*
G02*
X142774000Y-62950000I250000J0D01*
G01*
G37*
G36*
G01*
X142774000Y-61050000D02*
X143724000Y-61050000D01*
G75*
G02*
X143974000Y-61300000I0J-250000D01*
G01*
X143974000Y-61800000D01*
G75*
G02*
X143724000Y-62050000I-250000J0D01*
G01*
X142774000Y-62050000D01*
G75*
G02*
X142524000Y-61800000I0J250000D01*
G01*
X142524000Y-61300000D01*
G75*
G02*
X142774000Y-61050000I250000J0D01*
G01*
G37*
%TD*%
%TO.C,LED4*%
G36*
G01*
X137255250Y-157400000D02*
X136742750Y-157400000D01*
G75*
G02*
X136524000Y-157181250I0J218750D01*
G01*
X136524000Y-156743750D01*
G75*
G02*
X136742750Y-156525000I218750J0D01*
G01*
X137255250Y-156525000D01*
G75*
G02*
X137474000Y-156743750I0J-218750D01*
G01*
X137474000Y-157181250D01*
G75*
G02*
X137255250Y-157400000I-218750J0D01*
G01*
G37*
G36*
G01*
X137255250Y-158975000D02*
X136742750Y-158975000D01*
G75*
G02*
X136524000Y-158756250I0J218750D01*
G01*
X136524000Y-158318750D01*
G75*
G02*
X136742750Y-158100000I218750J0D01*
G01*
X137255250Y-158100000D01*
G75*
G02*
X137474000Y-158318750I0J-218750D01*
G01*
X137474000Y-158756250D01*
G75*
G02*
X137255250Y-158975000I-218750J0D01*
G01*
G37*
%TD*%
%TO.C,LED3*%
G36*
G01*
X153699000Y-50243750D02*
X153699000Y-50756250D01*
G75*
G02*
X153480250Y-50975000I-218750J0D01*
G01*
X153042750Y-50975000D01*
G75*
G02*
X152824000Y-50756250I0J218750D01*
G01*
X152824000Y-50243750D01*
G75*
G02*
X153042750Y-50025000I218750J0D01*
G01*
X153480250Y-50025000D01*
G75*
G02*
X153699000Y-50243750I0J-218750D01*
G01*
G37*
G36*
G01*
X155274000Y-50243750D02*
X155274000Y-50756250D01*
G75*
G02*
X155055250Y-50975000I-218750J0D01*
G01*
X154617750Y-50975000D01*
G75*
G02*
X154399000Y-50756250I0J218750D01*
G01*
X154399000Y-50243750D01*
G75*
G02*
X154617750Y-50025000I218750J0D01*
G01*
X155055250Y-50025000D01*
G75*
G02*
X155274000Y-50243750I0J-218750D01*
G01*
G37*
%TD*%
%TO.C,LED2*%
G36*
G01*
X182382750Y-46400000D02*
X182895250Y-46400000D01*
G75*
G02*
X183114000Y-46618750I0J-218750D01*
G01*
X183114000Y-47056250D01*
G75*
G02*
X182895250Y-47275000I-218750J0D01*
G01*
X182382750Y-47275000D01*
G75*
G02*
X182164000Y-47056250I0J218750D01*
G01*
X182164000Y-46618750D01*
G75*
G02*
X182382750Y-46400000I218750J0D01*
G01*
G37*
G36*
G01*
X182382750Y-44825000D02*
X182895250Y-44825000D01*
G75*
G02*
X183114000Y-45043750I0J-218750D01*
G01*
X183114000Y-45481250D01*
G75*
G02*
X182895250Y-45700000I-218750J0D01*
G01*
X182382750Y-45700000D01*
G75*
G02*
X182164000Y-45481250I0J218750D01*
G01*
X182164000Y-45043750D01*
G75*
G02*
X182382750Y-44825000I218750J0D01*
G01*
G37*
%TD*%
D23*
%TO.C,U5*%
X154049000Y-133700000D03*
D24*
X151407400Y-137103600D03*
X151813800Y-137103600D03*
X152220200Y-137103600D03*
X152626600Y-137103600D03*
X153033000Y-137103600D03*
X153439400Y-137103600D03*
X153845800Y-137103600D03*
X154252200Y-137103600D03*
X154658600Y-137103600D03*
X155065000Y-137103600D03*
X155471400Y-137103600D03*
X155877800Y-137103600D03*
X156284200Y-137103600D03*
X156690600Y-137103600D03*
D25*
X157452600Y-136341600D03*
X157452600Y-135935200D03*
X157452600Y-135528800D03*
X157452600Y-135122400D03*
X157452600Y-134716000D03*
X157452600Y-134309600D03*
X157452600Y-133903200D03*
X157452600Y-133496800D03*
X157452600Y-133090400D03*
X157452600Y-132684000D03*
X157452600Y-132277600D03*
X157452600Y-131871200D03*
X157452600Y-131464800D03*
X157452600Y-131058400D03*
D24*
X156690600Y-130296400D03*
X156284200Y-130296400D03*
X155877800Y-130296400D03*
X155471400Y-130296400D03*
X155065000Y-130296400D03*
X154658600Y-130296400D03*
X154252200Y-130296400D03*
X153845800Y-130296400D03*
X153439400Y-130296400D03*
X153033000Y-130296400D03*
X152626600Y-130296400D03*
X152220200Y-130296400D03*
X151813800Y-130296400D03*
X151407400Y-130296400D03*
D25*
X150645400Y-131058400D03*
X150645400Y-131464800D03*
X150645400Y-131871200D03*
X150645400Y-132277600D03*
X150645400Y-132684000D03*
X150645400Y-133090400D03*
X150645400Y-133496800D03*
X150645400Y-133903200D03*
X150645400Y-134309600D03*
X150645400Y-134716000D03*
X150645400Y-135122400D03*
X150645400Y-135528800D03*
X150645400Y-135935200D03*
X150645400Y-136341600D03*
%TD*%
%TO.C,U6*%
G36*
G01*
X140944000Y-146800000D02*
X141244000Y-146800000D01*
G75*
G02*
X141394000Y-146950000I0J-150000D01*
G01*
X141394000Y-148250000D01*
G75*
G02*
X141244000Y-148400000I-150000J0D01*
G01*
X140944000Y-148400000D01*
G75*
G02*
X140794000Y-148250000I0J150000D01*
G01*
X140794000Y-146950000D01*
G75*
G02*
X140944000Y-146800000I150000J0D01*
G01*
G37*
G36*
G01*
X142214000Y-146800000D02*
X142514000Y-146800000D01*
G75*
G02*
X142664000Y-146950000I0J-150000D01*
G01*
X142664000Y-148250000D01*
G75*
G02*
X142514000Y-148400000I-150000J0D01*
G01*
X142214000Y-148400000D01*
G75*
G02*
X142064000Y-148250000I0J150000D01*
G01*
X142064000Y-146950000D01*
G75*
G02*
X142214000Y-146800000I150000J0D01*
G01*
G37*
G36*
G01*
X143484000Y-146800000D02*
X143784000Y-146800000D01*
G75*
G02*
X143934000Y-146950000I0J-150000D01*
G01*
X143934000Y-148250000D01*
G75*
G02*
X143784000Y-148400000I-150000J0D01*
G01*
X143484000Y-148400000D01*
G75*
G02*
X143334000Y-148250000I0J150000D01*
G01*
X143334000Y-146950000D01*
G75*
G02*
X143484000Y-146800000I150000J0D01*
G01*
G37*
G36*
G01*
X144754000Y-146800000D02*
X145054000Y-146800000D01*
G75*
G02*
X145204000Y-146950000I0J-150000D01*
G01*
X145204000Y-148250000D01*
G75*
G02*
X145054000Y-148400000I-150000J0D01*
G01*
X144754000Y-148400000D01*
G75*
G02*
X144604000Y-148250000I0J150000D01*
G01*
X144604000Y-146950000D01*
G75*
G02*
X144754000Y-146800000I150000J0D01*
G01*
G37*
G36*
G01*
X144754000Y-139600000D02*
X145054000Y-139600000D01*
G75*
G02*
X145204000Y-139750000I0J-150000D01*
G01*
X145204000Y-141050000D01*
G75*
G02*
X145054000Y-141200000I-150000J0D01*
G01*
X144754000Y-141200000D01*
G75*
G02*
X144604000Y-141050000I0J150000D01*
G01*
X144604000Y-139750000D01*
G75*
G02*
X144754000Y-139600000I150000J0D01*
G01*
G37*
G36*
G01*
X143484000Y-139600000D02*
X143784000Y-139600000D01*
G75*
G02*
X143934000Y-139750000I0J-150000D01*
G01*
X143934000Y-141050000D01*
G75*
G02*
X143784000Y-141200000I-150000J0D01*
G01*
X143484000Y-141200000D01*
G75*
G02*
X143334000Y-141050000I0J150000D01*
G01*
X143334000Y-139750000D01*
G75*
G02*
X143484000Y-139600000I150000J0D01*
G01*
G37*
G36*
G01*
X142214000Y-139600000D02*
X142514000Y-139600000D01*
G75*
G02*
X142664000Y-139750000I0J-150000D01*
G01*
X142664000Y-141050000D01*
G75*
G02*
X142514000Y-141200000I-150000J0D01*
G01*
X142214000Y-141200000D01*
G75*
G02*
X142064000Y-141050000I0J150000D01*
G01*
X142064000Y-139750000D01*
G75*
G02*
X142214000Y-139600000I150000J0D01*
G01*
G37*
G36*
G01*
X140944000Y-139600000D02*
X141244000Y-139600000D01*
G75*
G02*
X141394000Y-139750000I0J-150000D01*
G01*
X141394000Y-141050000D01*
G75*
G02*
X141244000Y-141200000I-150000J0D01*
G01*
X140944000Y-141200000D01*
G75*
G02*
X140794000Y-141050000I0J150000D01*
G01*
X140794000Y-139750000D01*
G75*
G02*
X140944000Y-139600000I150000J0D01*
G01*
G37*
%TD*%
D26*
%TO.C,SW4*%
X140109000Y-159000000D03*
X143309000Y-159000000D03*
D27*
X140484000Y-157050000D03*
D28*
X141709000Y-157050000D03*
D27*
X142934000Y-157050000D03*
%TD*%
%TO.C,R13*%
G36*
G01*
X159199000Y-108850002D02*
X159199000Y-107949998D01*
G75*
G02*
X159448998Y-107700000I249998J0D01*
G01*
X159974002Y-107700000D01*
G75*
G02*
X160224000Y-107949998I0J-249998D01*
G01*
X160224000Y-108850002D01*
G75*
G02*
X159974002Y-109100000I-249998J0D01*
G01*
X159448998Y-109100000D01*
G75*
G02*
X159199000Y-108850002I0J249998D01*
G01*
G37*
G36*
G01*
X157374000Y-108850002D02*
X157374000Y-107949998D01*
G75*
G02*
X157623998Y-107700000I249998J0D01*
G01*
X158149002Y-107700000D01*
G75*
G02*
X158399000Y-107949998I0J-249998D01*
G01*
X158399000Y-108850002D01*
G75*
G02*
X158149002Y-109100000I-249998J0D01*
G01*
X157623998Y-109100000D01*
G75*
G02*
X157374000Y-108850002I0J249998D01*
G01*
G37*
%TD*%
%TO.C,R12*%
G36*
G01*
X162499000Y-107949998D02*
X162499000Y-108850002D01*
G75*
G02*
X162249002Y-109100000I-249998J0D01*
G01*
X161723998Y-109100000D01*
G75*
G02*
X161474000Y-108850002I0J249998D01*
G01*
X161474000Y-107949998D01*
G75*
G02*
X161723998Y-107700000I249998J0D01*
G01*
X162249002Y-107700000D01*
G75*
G02*
X162499000Y-107949998I0J-249998D01*
G01*
G37*
G36*
G01*
X164324000Y-107949998D02*
X164324000Y-108850002D01*
G75*
G02*
X164074002Y-109100000I-249998J0D01*
G01*
X163548998Y-109100000D01*
G75*
G02*
X163299000Y-108850002I0J249998D01*
G01*
X163299000Y-107949998D01*
G75*
G02*
X163548998Y-107700000I249998J0D01*
G01*
X164074002Y-107700000D01*
G75*
G02*
X164324000Y-107949998I0J-249998D01*
G01*
G37*
%TD*%
%TO.C,R20*%
G36*
G01*
X173709002Y-100900000D02*
X172808998Y-100900000D01*
G75*
G02*
X172559000Y-100650002I0J249998D01*
G01*
X172559000Y-100124998D01*
G75*
G02*
X172808998Y-99875000I249998J0D01*
G01*
X173709002Y-99875000D01*
G75*
G02*
X173959000Y-100124998I0J-249998D01*
G01*
X173959000Y-100650002D01*
G75*
G02*
X173709002Y-100900000I-249998J0D01*
G01*
G37*
G36*
G01*
X173709002Y-102725000D02*
X172808998Y-102725000D01*
G75*
G02*
X172559000Y-102475002I0J249998D01*
G01*
X172559000Y-101949998D01*
G75*
G02*
X172808998Y-101700000I249998J0D01*
G01*
X173709002Y-101700000D01*
G75*
G02*
X173959000Y-101949998I0J-249998D01*
G01*
X173959000Y-102475002D01*
G75*
G02*
X173709002Y-102725000I-249998J0D01*
G01*
G37*
%TD*%
%TO.C,R19*%
G36*
G01*
X170499000Y-108850002D02*
X170499000Y-107949998D01*
G75*
G02*
X170748998Y-107700000I249998J0D01*
G01*
X171274002Y-107700000D01*
G75*
G02*
X171524000Y-107949998I0J-249998D01*
G01*
X171524000Y-108850002D01*
G75*
G02*
X171274002Y-109100000I-249998J0D01*
G01*
X170748998Y-109100000D01*
G75*
G02*
X170499000Y-108850002I0J249998D01*
G01*
G37*
G36*
G01*
X168674000Y-108850002D02*
X168674000Y-107949998D01*
G75*
G02*
X168923998Y-107700000I249998J0D01*
G01*
X169449002Y-107700000D01*
G75*
G02*
X169699000Y-107949998I0J-249998D01*
G01*
X169699000Y-108850002D01*
G75*
G02*
X169449002Y-109100000I-249998J0D01*
G01*
X168923998Y-109100000D01*
G75*
G02*
X168674000Y-108850002I0J249998D01*
G01*
G37*
%TD*%
%TO.C,R18*%
G36*
G01*
X173899000Y-107999998D02*
X173899000Y-108900002D01*
G75*
G02*
X173649002Y-109150000I-249998J0D01*
G01*
X173123998Y-109150000D01*
G75*
G02*
X172874000Y-108900002I0J249998D01*
G01*
X172874000Y-107999998D01*
G75*
G02*
X173123998Y-107750000I249998J0D01*
G01*
X173649002Y-107750000D01*
G75*
G02*
X173899000Y-107999998I0J-249998D01*
G01*
G37*
G36*
G01*
X175724000Y-107999998D02*
X175724000Y-108900002D01*
G75*
G02*
X175474002Y-109150000I-249998J0D01*
G01*
X174948998Y-109150000D01*
G75*
G02*
X174699000Y-108900002I0J249998D01*
G01*
X174699000Y-107999998D01*
G75*
G02*
X174948998Y-107750000I249998J0D01*
G01*
X175474002Y-107750000D01*
G75*
G02*
X175724000Y-107999998I0J-249998D01*
G01*
G37*
%TD*%
%TO.C,R17*%
G36*
G01*
X169699000Y-103949998D02*
X169699000Y-104850002D01*
G75*
G02*
X169449002Y-105100000I-249998J0D01*
G01*
X168923998Y-105100000D01*
G75*
G02*
X168674000Y-104850002I0J249998D01*
G01*
X168674000Y-103949998D01*
G75*
G02*
X168923998Y-103700000I249998J0D01*
G01*
X169449002Y-103700000D01*
G75*
G02*
X169699000Y-103949998I0J-249998D01*
G01*
G37*
G36*
G01*
X171524000Y-103949998D02*
X171524000Y-104850002D01*
G75*
G02*
X171274002Y-105100000I-249998J0D01*
G01*
X170748998Y-105100000D01*
G75*
G02*
X170499000Y-104850002I0J249998D01*
G01*
X170499000Y-103949998D01*
G75*
G02*
X170748998Y-103700000I249998J0D01*
G01*
X171274002Y-103700000D01*
G75*
G02*
X171524000Y-103949998I0J-249998D01*
G01*
G37*
%TD*%
%TO.C,R11*%
G36*
G01*
X158399000Y-103949998D02*
X158399000Y-104850002D01*
G75*
G02*
X158149002Y-105100000I-249998J0D01*
G01*
X157623998Y-105100000D01*
G75*
G02*
X157374000Y-104850002I0J249998D01*
G01*
X157374000Y-103949998D01*
G75*
G02*
X157623998Y-103700000I249998J0D01*
G01*
X158149002Y-103700000D01*
G75*
G02*
X158399000Y-103949998I0J-249998D01*
G01*
G37*
G36*
G01*
X160224000Y-103949998D02*
X160224000Y-104850002D01*
G75*
G02*
X159974002Y-105100000I-249998J0D01*
G01*
X159448998Y-105100000D01*
G75*
G02*
X159199000Y-104850002I0J249998D01*
G01*
X159199000Y-103949998D01*
G75*
G02*
X159448998Y-103700000I249998J0D01*
G01*
X159974002Y-103700000D01*
G75*
G02*
X160224000Y-103949998I0J-249998D01*
G01*
G37*
%TD*%
%TO.C,R10*%
G36*
G01*
X163299000Y-104850002D02*
X163299000Y-103949998D01*
G75*
G02*
X163548998Y-103700000I249998J0D01*
G01*
X164074002Y-103700000D01*
G75*
G02*
X164324000Y-103949998I0J-249998D01*
G01*
X164324000Y-104850002D01*
G75*
G02*
X164074002Y-105100000I-249998J0D01*
G01*
X163548998Y-105100000D01*
G75*
G02*
X163299000Y-104850002I0J249998D01*
G01*
G37*
G36*
G01*
X161474000Y-104850002D02*
X161474000Y-103949998D01*
G75*
G02*
X161723998Y-103700000I249998J0D01*
G01*
X162249002Y-103700000D01*
G75*
G02*
X162499000Y-103949998I0J-249998D01*
G01*
X162499000Y-104850002D01*
G75*
G02*
X162249002Y-105100000I-249998J0D01*
G01*
X161723998Y-105100000D01*
G75*
G02*
X161474000Y-104850002I0J249998D01*
G01*
G37*
%TD*%
%TO.C,R9*%
G36*
G01*
X160349002Y-102725000D02*
X159448998Y-102725000D01*
G75*
G02*
X159199000Y-102475002I0J249998D01*
G01*
X159199000Y-101949998D01*
G75*
G02*
X159448998Y-101700000I249998J0D01*
G01*
X160349002Y-101700000D01*
G75*
G02*
X160599000Y-101949998I0J-249998D01*
G01*
X160599000Y-102475002D01*
G75*
G02*
X160349002Y-102725000I-249998J0D01*
G01*
G37*
G36*
G01*
X160349002Y-100900000D02*
X159448998Y-100900000D01*
G75*
G02*
X159199000Y-100650002I0J249998D01*
G01*
X159199000Y-100124998D01*
G75*
G02*
X159448998Y-99875000I249998J0D01*
G01*
X160349002Y-99875000D01*
G75*
G02*
X160599000Y-100124998I0J-249998D01*
G01*
X160599000Y-100650002D01*
G75*
G02*
X160349002Y-100900000I-249998J0D01*
G01*
G37*
%TD*%
%TO.C,R8*%
G36*
G01*
X171589002Y-100900000D02*
X170688998Y-100900000D01*
G75*
G02*
X170439000Y-100650002I0J249998D01*
G01*
X170439000Y-100124998D01*
G75*
G02*
X170688998Y-99875000I249998J0D01*
G01*
X171589002Y-99875000D01*
G75*
G02*
X171839000Y-100124998I0J-249998D01*
G01*
X171839000Y-100650002D01*
G75*
G02*
X171589002Y-100900000I-249998J0D01*
G01*
G37*
G36*
G01*
X171589002Y-102725000D02*
X170688998Y-102725000D01*
G75*
G02*
X170439000Y-102475002I0J249998D01*
G01*
X170439000Y-101949998D01*
G75*
G02*
X170688998Y-101700000I249998J0D01*
G01*
X171589002Y-101700000D01*
G75*
G02*
X171839000Y-101949998I0J-249998D01*
G01*
X171839000Y-102475002D01*
G75*
G02*
X171589002Y-102725000I-249998J0D01*
G01*
G37*
%TD*%
%TO.C,R5*%
G36*
G01*
X162349002Y-102745000D02*
X161448998Y-102745000D01*
G75*
G02*
X161199000Y-102495002I0J249998D01*
G01*
X161199000Y-101969998D01*
G75*
G02*
X161448998Y-101720000I249998J0D01*
G01*
X162349002Y-101720000D01*
G75*
G02*
X162599000Y-101969998I0J-249998D01*
G01*
X162599000Y-102495002D01*
G75*
G02*
X162349002Y-102745000I-249998J0D01*
G01*
G37*
G36*
G01*
X162349002Y-100920000D02*
X161448998Y-100920000D01*
G75*
G02*
X161199000Y-100670002I0J249998D01*
G01*
X161199000Y-100144998D01*
G75*
G02*
X161448998Y-99895000I249998J0D01*
G01*
X162349002Y-99895000D01*
G75*
G02*
X162599000Y-100144998I0J-249998D01*
G01*
X162599000Y-100670002D01*
G75*
G02*
X162349002Y-100920000I-249998J0D01*
G01*
G37*
%TD*%
%TO.C,R4*%
G36*
G01*
X174699000Y-104900002D02*
X174699000Y-103999998D01*
G75*
G02*
X174948998Y-103750000I249998J0D01*
G01*
X175474002Y-103750000D01*
G75*
G02*
X175724000Y-103999998I0J-249998D01*
G01*
X175724000Y-104900002D01*
G75*
G02*
X175474002Y-105150000I-249998J0D01*
G01*
X174948998Y-105150000D01*
G75*
G02*
X174699000Y-104900002I0J249998D01*
G01*
G37*
G36*
G01*
X172874000Y-104900002D02*
X172874000Y-103999998D01*
G75*
G02*
X173123998Y-103750000I249998J0D01*
G01*
X173649002Y-103750000D01*
G75*
G02*
X173899000Y-103999998I0J-249998D01*
G01*
X173899000Y-104900002D01*
G75*
G02*
X173649002Y-105150000I-249998J0D01*
G01*
X173123998Y-105150000D01*
G75*
G02*
X172874000Y-104900002I0J249998D01*
G01*
G37*
%TD*%
%TO.C,C32*%
G36*
G01*
X169574000Y-115900000D02*
X168624000Y-115900000D01*
G75*
G02*
X168374000Y-115650000I0J250000D01*
G01*
X168374000Y-115150000D01*
G75*
G02*
X168624000Y-114900000I250000J0D01*
G01*
X169574000Y-114900000D01*
G75*
G02*
X169824000Y-115150000I0J-250000D01*
G01*
X169824000Y-115650000D01*
G75*
G02*
X169574000Y-115900000I-250000J0D01*
G01*
G37*
G36*
G01*
X169574000Y-117800000D02*
X168624000Y-117800000D01*
G75*
G02*
X168374000Y-117550000I0J250000D01*
G01*
X168374000Y-117050000D01*
G75*
G02*
X168624000Y-116800000I250000J0D01*
G01*
X169574000Y-116800000D01*
G75*
G02*
X169824000Y-117050000I0J-250000D01*
G01*
X169824000Y-117550000D01*
G75*
G02*
X169574000Y-117800000I-250000J0D01*
G01*
G37*
%TD*%
%TO.C,C18*%
G36*
G01*
X164374000Y-115900000D02*
X163424000Y-115900000D01*
G75*
G02*
X163174000Y-115650000I0J250000D01*
G01*
X163174000Y-115150000D01*
G75*
G02*
X163424000Y-114900000I250000J0D01*
G01*
X164374000Y-114900000D01*
G75*
G02*
X164624000Y-115150000I0J-250000D01*
G01*
X164624000Y-115650000D01*
G75*
G02*
X164374000Y-115900000I-250000J0D01*
G01*
G37*
G36*
G01*
X164374000Y-117800000D02*
X163424000Y-117800000D01*
G75*
G02*
X163174000Y-117550000I0J250000D01*
G01*
X163174000Y-117050000D01*
G75*
G02*
X163424000Y-116800000I250000J0D01*
G01*
X164374000Y-116800000D01*
G75*
G02*
X164624000Y-117050000I0J-250000D01*
G01*
X164624000Y-117550000D01*
G75*
G02*
X164374000Y-117800000I-250000J0D01*
G01*
G37*
%TD*%
%TO.C,C17*%
G36*
G01*
X159249000Y-106875000D02*
X159249000Y-105925000D01*
G75*
G02*
X159499000Y-105675000I250000J0D01*
G01*
X159999000Y-105675000D01*
G75*
G02*
X160249000Y-105925000I0J-250000D01*
G01*
X160249000Y-106875000D01*
G75*
G02*
X159999000Y-107125000I-250000J0D01*
G01*
X159499000Y-107125000D01*
G75*
G02*
X159249000Y-106875000I0J250000D01*
G01*
G37*
G36*
G01*
X157349000Y-106875000D02*
X157349000Y-105925000D01*
G75*
G02*
X157599000Y-105675000I250000J0D01*
G01*
X158099000Y-105675000D01*
G75*
G02*
X158349000Y-105925000I0J-250000D01*
G01*
X158349000Y-106875000D01*
G75*
G02*
X158099000Y-107125000I-250000J0D01*
G01*
X157599000Y-107125000D01*
G75*
G02*
X157349000Y-106875000I0J250000D01*
G01*
G37*
%TD*%
%TO.C,C13*%
G36*
G01*
X162449000Y-105925000D02*
X162449000Y-106875000D01*
G75*
G02*
X162199000Y-107125000I-250000J0D01*
G01*
X161699000Y-107125000D01*
G75*
G02*
X161449000Y-106875000I0J250000D01*
G01*
X161449000Y-105925000D01*
G75*
G02*
X161699000Y-105675000I250000J0D01*
G01*
X162199000Y-105675000D01*
G75*
G02*
X162449000Y-105925000I0J-250000D01*
G01*
G37*
G36*
G01*
X164349000Y-105925000D02*
X164349000Y-106875000D01*
G75*
G02*
X164099000Y-107125000I-250000J0D01*
G01*
X163599000Y-107125000D01*
G75*
G02*
X163349000Y-106875000I0J250000D01*
G01*
X163349000Y-105925000D01*
G75*
G02*
X163599000Y-105675000I250000J0D01*
G01*
X164099000Y-105675000D01*
G75*
G02*
X164349000Y-105925000I0J-250000D01*
G01*
G37*
%TD*%
%TO.C,C8*%
G36*
G01*
X170549000Y-106875000D02*
X170549000Y-105925000D01*
G75*
G02*
X170799000Y-105675000I250000J0D01*
G01*
X171299000Y-105675000D01*
G75*
G02*
X171549000Y-105925000I0J-250000D01*
G01*
X171549000Y-106875000D01*
G75*
G02*
X171299000Y-107125000I-250000J0D01*
G01*
X170799000Y-107125000D01*
G75*
G02*
X170549000Y-106875000I0J250000D01*
G01*
G37*
G36*
G01*
X168649000Y-106875000D02*
X168649000Y-105925000D01*
G75*
G02*
X168899000Y-105675000I250000J0D01*
G01*
X169399000Y-105675000D01*
G75*
G02*
X169649000Y-105925000I0J-250000D01*
G01*
X169649000Y-106875000D01*
G75*
G02*
X169399000Y-107125000I-250000J0D01*
G01*
X168899000Y-107125000D01*
G75*
G02*
X168649000Y-106875000I0J250000D01*
G01*
G37*
%TD*%
%TO.C,C7*%
G36*
G01*
X173849000Y-105975000D02*
X173849000Y-106925000D01*
G75*
G02*
X173599000Y-107175000I-250000J0D01*
G01*
X173099000Y-107175000D01*
G75*
G02*
X172849000Y-106925000I0J250000D01*
G01*
X172849000Y-105975000D01*
G75*
G02*
X173099000Y-105725000I250000J0D01*
G01*
X173599000Y-105725000D01*
G75*
G02*
X173849000Y-105975000I0J-250000D01*
G01*
G37*
G36*
G01*
X175749000Y-105975000D02*
X175749000Y-106925000D01*
G75*
G02*
X175499000Y-107175000I-250000J0D01*
G01*
X174999000Y-107175000D01*
G75*
G02*
X174749000Y-106925000I0J250000D01*
G01*
X174749000Y-105975000D01*
G75*
G02*
X174999000Y-105725000I250000J0D01*
G01*
X175499000Y-105725000D01*
G75*
G02*
X175749000Y-105975000I0J-250000D01*
G01*
G37*
%TD*%
%TO.C,C3*%
G36*
G01*
X139574000Y-149650000D02*
X138624000Y-149650000D01*
G75*
G02*
X138374000Y-149400000I0J250000D01*
G01*
X138374000Y-148900000D01*
G75*
G02*
X138624000Y-148650000I250000J0D01*
G01*
X139574000Y-148650000D01*
G75*
G02*
X139824000Y-148900000I0J-250000D01*
G01*
X139824000Y-149400000D01*
G75*
G02*
X139574000Y-149650000I-250000J0D01*
G01*
G37*
G36*
G01*
X139574000Y-151550000D02*
X138624000Y-151550000D01*
G75*
G02*
X138374000Y-151300000I0J250000D01*
G01*
X138374000Y-150800000D01*
G75*
G02*
X138624000Y-150550000I250000J0D01*
G01*
X139574000Y-150550000D01*
G75*
G02*
X139824000Y-150800000I0J-250000D01*
G01*
X139824000Y-151300000D01*
G75*
G02*
X139574000Y-151550000I-250000J0D01*
G01*
G37*
%TD*%
%TO.C,R16*%
G36*
G01*
X137949000Y-139899998D02*
X137949000Y-140800002D01*
G75*
G02*
X137699002Y-141050000I-249998J0D01*
G01*
X137173998Y-141050000D01*
G75*
G02*
X136924000Y-140800002I0J249998D01*
G01*
X136924000Y-139899998D01*
G75*
G02*
X137173998Y-139650000I249998J0D01*
G01*
X137699002Y-139650000D01*
G75*
G02*
X137949000Y-139899998I0J-249998D01*
G01*
G37*
G36*
G01*
X139774000Y-139899998D02*
X139774000Y-140800002D01*
G75*
G02*
X139524002Y-141050000I-249998J0D01*
G01*
X138998998Y-141050000D01*
G75*
G02*
X138749000Y-140800002I0J249998D01*
G01*
X138749000Y-139899998D01*
G75*
G02*
X138998998Y-139650000I249998J0D01*
G01*
X139524002Y-139650000D01*
G75*
G02*
X139774000Y-139899998I0J-249998D01*
G01*
G37*
%TD*%
%TO.C,R15*%
G36*
G01*
X159398998Y-149900000D02*
X160299002Y-149900000D01*
G75*
G02*
X160549000Y-150149998I0J-249998D01*
G01*
X160549000Y-150675002D01*
G75*
G02*
X160299002Y-150925000I-249998J0D01*
G01*
X159398998Y-150925000D01*
G75*
G02*
X159149000Y-150675002I0J249998D01*
G01*
X159149000Y-150149998D01*
G75*
G02*
X159398998Y-149900000I249998J0D01*
G01*
G37*
G36*
G01*
X159398998Y-148075000D02*
X160299002Y-148075000D01*
G75*
G02*
X160549000Y-148324998I0J-249998D01*
G01*
X160549000Y-148850002D01*
G75*
G02*
X160299002Y-149100000I-249998J0D01*
G01*
X159398998Y-149100000D01*
G75*
G02*
X159149000Y-148850002I0J249998D01*
G01*
X159149000Y-148324998D01*
G75*
G02*
X159398998Y-148075000I249998J0D01*
G01*
G37*
%TD*%
%TO.C,R14*%
G36*
G01*
X154449000Y-125300002D02*
X154449000Y-124399998D01*
G75*
G02*
X154698998Y-124150000I249998J0D01*
G01*
X155224002Y-124150000D01*
G75*
G02*
X155474000Y-124399998I0J-249998D01*
G01*
X155474000Y-125300002D01*
G75*
G02*
X155224002Y-125550000I-249998J0D01*
G01*
X154698998Y-125550000D01*
G75*
G02*
X154449000Y-125300002I0J249998D01*
G01*
G37*
G36*
G01*
X152624000Y-125300002D02*
X152624000Y-124399998D01*
G75*
G02*
X152873998Y-124150000I249998J0D01*
G01*
X153399002Y-124150000D01*
G75*
G02*
X153649000Y-124399998I0J-249998D01*
G01*
X153649000Y-125300002D01*
G75*
G02*
X153399002Y-125550000I-249998J0D01*
G01*
X152873998Y-125550000D01*
G75*
G02*
X152624000Y-125300002I0J249998D01*
G01*
G37*
%TD*%
%TO.C,D3*%
G36*
G01*
X148192750Y-150150000D02*
X148705250Y-150150000D01*
G75*
G02*
X148924000Y-150368750I0J-218750D01*
G01*
X148924000Y-150806250D01*
G75*
G02*
X148705250Y-151025000I-218750J0D01*
G01*
X148192750Y-151025000D01*
G75*
G02*
X147974000Y-150806250I0J218750D01*
G01*
X147974000Y-150368750D01*
G75*
G02*
X148192750Y-150150000I218750J0D01*
G01*
G37*
G36*
G01*
X148192750Y-148575000D02*
X148705250Y-148575000D01*
G75*
G02*
X148924000Y-148793750I0J-218750D01*
G01*
X148924000Y-149231250D01*
G75*
G02*
X148705250Y-149450000I-218750J0D01*
G01*
X148192750Y-149450000D01*
G75*
G02*
X147974000Y-149231250I0J218750D01*
G01*
X147974000Y-148793750D01*
G75*
G02*
X148192750Y-148575000I218750J0D01*
G01*
G37*
%TD*%
%TO.C,C33*%
G36*
G01*
X168624000Y-101750000D02*
X169574000Y-101750000D01*
G75*
G02*
X169824000Y-102000000I0J-250000D01*
G01*
X169824000Y-102500000D01*
G75*
G02*
X169574000Y-102750000I-250000J0D01*
G01*
X168624000Y-102750000D01*
G75*
G02*
X168374000Y-102500000I0J250000D01*
G01*
X168374000Y-102000000D01*
G75*
G02*
X168624000Y-101750000I250000J0D01*
G01*
G37*
G36*
G01*
X168624000Y-99850000D02*
X169574000Y-99850000D01*
G75*
G02*
X169824000Y-100100000I0J-250000D01*
G01*
X169824000Y-100600000D01*
G75*
G02*
X169574000Y-100850000I-250000J0D01*
G01*
X168624000Y-100850000D01*
G75*
G02*
X168374000Y-100600000I0J250000D01*
G01*
X168374000Y-100100000D01*
G75*
G02*
X168624000Y-99850000I250000J0D01*
G01*
G37*
%TD*%
%TO.C,C30*%
G36*
G01*
X157294000Y-139830000D02*
X156344000Y-139830000D01*
G75*
G02*
X156094000Y-139580000I0J250000D01*
G01*
X156094000Y-139080000D01*
G75*
G02*
X156344000Y-138830000I250000J0D01*
G01*
X157294000Y-138830000D01*
G75*
G02*
X157544000Y-139080000I0J-250000D01*
G01*
X157544000Y-139580000D01*
G75*
G02*
X157294000Y-139830000I-250000J0D01*
G01*
G37*
G36*
G01*
X157294000Y-141730000D02*
X156344000Y-141730000D01*
G75*
G02*
X156094000Y-141480000I0J250000D01*
G01*
X156094000Y-140980000D01*
G75*
G02*
X156344000Y-140730000I250000J0D01*
G01*
X157294000Y-140730000D01*
G75*
G02*
X157544000Y-140980000I0J-250000D01*
G01*
X157544000Y-141480000D01*
G75*
G02*
X157294000Y-141730000I-250000J0D01*
G01*
G37*
%TD*%
%TO.C,C29*%
G36*
G01*
X149324000Y-143125000D02*
X150274000Y-143125000D01*
G75*
G02*
X150524000Y-143375000I0J-250000D01*
G01*
X150524000Y-143875000D01*
G75*
G02*
X150274000Y-144125000I-250000J0D01*
G01*
X149324000Y-144125000D01*
G75*
G02*
X149074000Y-143875000I0J250000D01*
G01*
X149074000Y-143375000D01*
G75*
G02*
X149324000Y-143125000I250000J0D01*
G01*
G37*
G36*
G01*
X149324000Y-141225000D02*
X150274000Y-141225000D01*
G75*
G02*
X150524000Y-141475000I0J-250000D01*
G01*
X150524000Y-141975000D01*
G75*
G02*
X150274000Y-142225000I-250000J0D01*
G01*
X149324000Y-142225000D01*
G75*
G02*
X149074000Y-141975000I0J250000D01*
G01*
X149074000Y-141475000D01*
G75*
G02*
X149324000Y-141225000I250000J0D01*
G01*
G37*
%TD*%
%TO.C,C28*%
G36*
G01*
X159354000Y-139840000D02*
X158404000Y-139840000D01*
G75*
G02*
X158154000Y-139590000I0J250000D01*
G01*
X158154000Y-139090000D01*
G75*
G02*
X158404000Y-138840000I250000J0D01*
G01*
X159354000Y-138840000D01*
G75*
G02*
X159604000Y-139090000I0J-250000D01*
G01*
X159604000Y-139590000D01*
G75*
G02*
X159354000Y-139840000I-250000J0D01*
G01*
G37*
G36*
G01*
X159354000Y-141740000D02*
X158404000Y-141740000D01*
G75*
G02*
X158154000Y-141490000I0J250000D01*
G01*
X158154000Y-140990000D01*
G75*
G02*
X158404000Y-140740000I250000J0D01*
G01*
X159354000Y-140740000D01*
G75*
G02*
X159604000Y-140990000I0J-250000D01*
G01*
X159604000Y-141490000D01*
G75*
G02*
X159354000Y-141740000I-250000J0D01*
G01*
G37*
%TD*%
%TO.C,C27*%
G36*
G01*
X151374000Y-143125000D02*
X152324000Y-143125000D01*
G75*
G02*
X152574000Y-143375000I0J-250000D01*
G01*
X152574000Y-143875000D01*
G75*
G02*
X152324000Y-144125000I-250000J0D01*
G01*
X151374000Y-144125000D01*
G75*
G02*
X151124000Y-143875000I0J250000D01*
G01*
X151124000Y-143375000D01*
G75*
G02*
X151374000Y-143125000I250000J0D01*
G01*
G37*
G36*
G01*
X151374000Y-141225000D02*
X152324000Y-141225000D01*
G75*
G02*
X152574000Y-141475000I0J-250000D01*
G01*
X152574000Y-141975000D01*
G75*
G02*
X152324000Y-142225000I-250000J0D01*
G01*
X151374000Y-142225000D01*
G75*
G02*
X151124000Y-141975000I0J250000D01*
G01*
X151124000Y-141475000D01*
G75*
G02*
X151374000Y-141225000I250000J0D01*
G01*
G37*
%TD*%
%TO.C,C26*%
G36*
G01*
X153424000Y-143125000D02*
X154374000Y-143125000D01*
G75*
G02*
X154624000Y-143375000I0J-250000D01*
G01*
X154624000Y-143875000D01*
G75*
G02*
X154374000Y-144125000I-250000J0D01*
G01*
X153424000Y-144125000D01*
G75*
G02*
X153174000Y-143875000I0J250000D01*
G01*
X153174000Y-143375000D01*
G75*
G02*
X153424000Y-143125000I250000J0D01*
G01*
G37*
G36*
G01*
X153424000Y-141225000D02*
X154374000Y-141225000D01*
G75*
G02*
X154624000Y-141475000I0J-250000D01*
G01*
X154624000Y-141975000D01*
G75*
G02*
X154374000Y-142225000I-250000J0D01*
G01*
X153424000Y-142225000D01*
G75*
G02*
X153174000Y-141975000I0J250000D01*
G01*
X153174000Y-141475000D01*
G75*
G02*
X153424000Y-141225000I250000J0D01*
G01*
G37*
%TD*%
%TO.C,C25*%
G36*
G01*
X161849000Y-137025000D02*
X161849000Y-136075000D01*
G75*
G02*
X162099000Y-135825000I250000J0D01*
G01*
X162599000Y-135825000D01*
G75*
G02*
X162849000Y-136075000I0J-250000D01*
G01*
X162849000Y-137025000D01*
G75*
G02*
X162599000Y-137275000I-250000J0D01*
G01*
X162099000Y-137275000D01*
G75*
G02*
X161849000Y-137025000I0J250000D01*
G01*
G37*
G36*
G01*
X159949000Y-137025000D02*
X159949000Y-136075000D01*
G75*
G02*
X160199000Y-135825000I250000J0D01*
G01*
X160699000Y-135825000D01*
G75*
G02*
X160949000Y-136075000I0J-250000D01*
G01*
X160949000Y-137025000D01*
G75*
G02*
X160699000Y-137275000I-250000J0D01*
G01*
X160199000Y-137275000D01*
G75*
G02*
X159949000Y-137025000I0J250000D01*
G01*
G37*
%TD*%
%TO.C,C24*%
G36*
G01*
X161939000Y-132825000D02*
X161939000Y-131875000D01*
G75*
G02*
X162189000Y-131625000I250000J0D01*
G01*
X162689000Y-131625000D01*
G75*
G02*
X162939000Y-131875000I0J-250000D01*
G01*
X162939000Y-132825000D01*
G75*
G02*
X162689000Y-133075000I-250000J0D01*
G01*
X162189000Y-133075000D01*
G75*
G02*
X161939000Y-132825000I0J250000D01*
G01*
G37*
G36*
G01*
X160039000Y-132825000D02*
X160039000Y-131875000D01*
G75*
G02*
X160289000Y-131625000I250000J0D01*
G01*
X160789000Y-131625000D01*
G75*
G02*
X161039000Y-131875000I0J-250000D01*
G01*
X161039000Y-132825000D01*
G75*
G02*
X160789000Y-133075000I-250000J0D01*
G01*
X160289000Y-133075000D01*
G75*
G02*
X160039000Y-132825000I0J250000D01*
G01*
G37*
%TD*%
%TO.C,C23*%
G36*
G01*
X137949000Y-145775000D02*
X137949000Y-146725000D01*
G75*
G02*
X137699000Y-146975000I-250000J0D01*
G01*
X137199000Y-146975000D01*
G75*
G02*
X136949000Y-146725000I0J250000D01*
G01*
X136949000Y-145775000D01*
G75*
G02*
X137199000Y-145525000I250000J0D01*
G01*
X137699000Y-145525000D01*
G75*
G02*
X137949000Y-145775000I0J-250000D01*
G01*
G37*
G36*
G01*
X139849000Y-145775000D02*
X139849000Y-146725000D01*
G75*
G02*
X139599000Y-146975000I-250000J0D01*
G01*
X139099000Y-146975000D01*
G75*
G02*
X138849000Y-146725000I0J250000D01*
G01*
X138849000Y-145775000D01*
G75*
G02*
X139099000Y-145525000I250000J0D01*
G01*
X139599000Y-145525000D01*
G75*
G02*
X139849000Y-145775000I0J-250000D01*
G01*
G37*
%TD*%
%TO.C,C22*%
G36*
G01*
X156649000Y-127375000D02*
X156649000Y-126425000D01*
G75*
G02*
X156899000Y-126175000I250000J0D01*
G01*
X157399000Y-126175000D01*
G75*
G02*
X157649000Y-126425000I0J-250000D01*
G01*
X157649000Y-127375000D01*
G75*
G02*
X157399000Y-127625000I-250000J0D01*
G01*
X156899000Y-127625000D01*
G75*
G02*
X156649000Y-127375000I0J250000D01*
G01*
G37*
G36*
G01*
X158549000Y-127375000D02*
X158549000Y-126425000D01*
G75*
G02*
X158799000Y-126175000I250000J0D01*
G01*
X159299000Y-126175000D01*
G75*
G02*
X159549000Y-126425000I0J-250000D01*
G01*
X159549000Y-127375000D01*
G75*
G02*
X159299000Y-127625000I-250000J0D01*
G01*
X158799000Y-127625000D01*
G75*
G02*
X158549000Y-127375000I0J250000D01*
G01*
G37*
%TD*%
%TO.C,C21*%
G36*
G01*
X156649000Y-125350000D02*
X156649000Y-124400000D01*
G75*
G02*
X156899000Y-124150000I250000J0D01*
G01*
X157399000Y-124150000D01*
G75*
G02*
X157649000Y-124400000I0J-250000D01*
G01*
X157649000Y-125350000D01*
G75*
G02*
X157399000Y-125600000I-250000J0D01*
G01*
X156899000Y-125600000D01*
G75*
G02*
X156649000Y-125350000I0J250000D01*
G01*
G37*
G36*
G01*
X158549000Y-125350000D02*
X158549000Y-124400000D01*
G75*
G02*
X158799000Y-124150000I250000J0D01*
G01*
X159299000Y-124150000D01*
G75*
G02*
X159549000Y-124400000I0J-250000D01*
G01*
X159549000Y-125350000D01*
G75*
G02*
X159299000Y-125600000I-250000J0D01*
G01*
X158799000Y-125600000D01*
G75*
G02*
X158549000Y-125350000I0J250000D01*
G01*
G37*
%TD*%
%TO.C,C20*%
G36*
G01*
X145499000Y-132625000D02*
X145499000Y-133575000D01*
G75*
G02*
X145249000Y-133825000I-250000J0D01*
G01*
X144749000Y-133825000D01*
G75*
G02*
X144499000Y-133575000I0J250000D01*
G01*
X144499000Y-132625000D01*
G75*
G02*
X144749000Y-132375000I250000J0D01*
G01*
X145249000Y-132375000D01*
G75*
G02*
X145499000Y-132625000I0J-250000D01*
G01*
G37*
G36*
G01*
X147399000Y-132625000D02*
X147399000Y-133575000D01*
G75*
G02*
X147149000Y-133825000I-250000J0D01*
G01*
X146649000Y-133825000D01*
G75*
G02*
X146399000Y-133575000I0J250000D01*
G01*
X146399000Y-132625000D01*
G75*
G02*
X146649000Y-132375000I250000J0D01*
G01*
X147149000Y-132375000D01*
G75*
G02*
X147399000Y-132625000I0J-250000D01*
G01*
G37*
%TD*%
%TO.C,C19*%
G36*
G01*
X145549000Y-136625000D02*
X145549000Y-137575000D01*
G75*
G02*
X145299000Y-137825000I-250000J0D01*
G01*
X144799000Y-137825000D01*
G75*
G02*
X144549000Y-137575000I0J250000D01*
G01*
X144549000Y-136625000D01*
G75*
G02*
X144799000Y-136375000I250000J0D01*
G01*
X145299000Y-136375000D01*
G75*
G02*
X145549000Y-136625000I0J-250000D01*
G01*
G37*
G36*
G01*
X147449000Y-136625000D02*
X147449000Y-137575000D01*
G75*
G02*
X147199000Y-137825000I-250000J0D01*
G01*
X146699000Y-137825000D01*
G75*
G02*
X146449000Y-137575000I0J250000D01*
G01*
X146449000Y-136625000D01*
G75*
G02*
X146699000Y-136375000I250000J0D01*
G01*
X147199000Y-136375000D01*
G75*
G02*
X147449000Y-136625000I0J-250000D01*
G01*
G37*
%TD*%
%TO.C,C14*%
G36*
G01*
X174824000Y-101750000D02*
X175774000Y-101750000D01*
G75*
G02*
X176024000Y-102000000I0J-250000D01*
G01*
X176024000Y-102500000D01*
G75*
G02*
X175774000Y-102750000I-250000J0D01*
G01*
X174824000Y-102750000D01*
G75*
G02*
X174574000Y-102500000I0J250000D01*
G01*
X174574000Y-102000000D01*
G75*
G02*
X174824000Y-101750000I250000J0D01*
G01*
G37*
G36*
G01*
X174824000Y-99850000D02*
X175774000Y-99850000D01*
G75*
G02*
X176024000Y-100100000I0J-250000D01*
G01*
X176024000Y-100600000D01*
G75*
G02*
X175774000Y-100850000I-250000J0D01*
G01*
X174824000Y-100850000D01*
G75*
G02*
X174574000Y-100600000I0J250000D01*
G01*
X174574000Y-100100000D01*
G75*
G02*
X174824000Y-99850000I250000J0D01*
G01*
G37*
%TD*%
%TO.C,C10*%
G36*
G01*
X163424000Y-99850000D02*
X164374000Y-99850000D01*
G75*
G02*
X164624000Y-100100000I0J-250000D01*
G01*
X164624000Y-100600000D01*
G75*
G02*
X164374000Y-100850000I-250000J0D01*
G01*
X163424000Y-100850000D01*
G75*
G02*
X163174000Y-100600000I0J250000D01*
G01*
X163174000Y-100100000D01*
G75*
G02*
X163424000Y-99850000I250000J0D01*
G01*
G37*
G36*
G01*
X163424000Y-101750000D02*
X164374000Y-101750000D01*
G75*
G02*
X164624000Y-102000000I0J-250000D01*
G01*
X164624000Y-102500000D01*
G75*
G02*
X164374000Y-102750000I-250000J0D01*
G01*
X163424000Y-102750000D01*
G75*
G02*
X163174000Y-102500000I0J250000D01*
G01*
X163174000Y-102000000D01*
G75*
G02*
X163424000Y-101750000I250000J0D01*
G01*
G37*
%TD*%
%TO.C,C5*%
G36*
G01*
X146014000Y-156340000D02*
X145064000Y-156340000D01*
G75*
G02*
X144814000Y-156090000I0J250000D01*
G01*
X144814000Y-155590000D01*
G75*
G02*
X145064000Y-155340000I250000J0D01*
G01*
X146014000Y-155340000D01*
G75*
G02*
X146264000Y-155590000I0J-250000D01*
G01*
X146264000Y-156090000D01*
G75*
G02*
X146014000Y-156340000I-250000J0D01*
G01*
G37*
G36*
G01*
X146014000Y-158240000D02*
X145064000Y-158240000D01*
G75*
G02*
X144814000Y-157990000I0J250000D01*
G01*
X144814000Y-157490000D01*
G75*
G02*
X145064000Y-157240000I250000J0D01*
G01*
X146014000Y-157240000D01*
G75*
G02*
X146264000Y-157490000I0J-250000D01*
G01*
X146264000Y-157990000D01*
G75*
G02*
X146014000Y-158240000I-250000J0D01*
G01*
G37*
%TD*%
%TO.C,C6*%
G36*
G01*
X157424000Y-99850000D02*
X158374000Y-99850000D01*
G75*
G02*
X158624000Y-100100000I0J-250000D01*
G01*
X158624000Y-100600000D01*
G75*
G02*
X158374000Y-100850000I-250000J0D01*
G01*
X157424000Y-100850000D01*
G75*
G02*
X157174000Y-100600000I0J250000D01*
G01*
X157174000Y-100100000D01*
G75*
G02*
X157424000Y-99850000I250000J0D01*
G01*
G37*
G36*
G01*
X157424000Y-101750000D02*
X158374000Y-101750000D01*
G75*
G02*
X158624000Y-102000000I0J-250000D01*
G01*
X158624000Y-102500000D01*
G75*
G02*
X158374000Y-102750000I-250000J0D01*
G01*
X157424000Y-102750000D01*
G75*
G02*
X157174000Y-102500000I0J250000D01*
G01*
X157174000Y-102000000D01*
G75*
G02*
X157424000Y-101750000I250000J0D01*
G01*
G37*
%TD*%
D29*
%TO.C,U3*%
X153498874Y-96217100D03*
X153999000Y-96217100D03*
X154499126Y-96217100D03*
D30*
X155180100Y-96040189D03*
X155180100Y-95540063D03*
X155180100Y-95039937D03*
X155180100Y-94539811D03*
D29*
X154499126Y-94362900D03*
X153999000Y-94362900D03*
X153498874Y-94362900D03*
D30*
X152817900Y-94539811D03*
X152817900Y-95039937D03*
X152817900Y-95540063D03*
X152817900Y-96040189D03*
%TD*%
%TO.C,R7*%
G36*
G01*
X153499002Y-149070000D02*
X152598998Y-149070000D01*
G75*
G02*
X152349000Y-148820002I0J249998D01*
G01*
X152349000Y-148294998D01*
G75*
G02*
X152598998Y-148045000I249998J0D01*
G01*
X153499002Y-148045000D01*
G75*
G02*
X153749000Y-148294998I0J-249998D01*
G01*
X153749000Y-148820002D01*
G75*
G02*
X153499002Y-149070000I-249998J0D01*
G01*
G37*
G36*
G01*
X153499002Y-150895000D02*
X152598998Y-150895000D01*
G75*
G02*
X152349000Y-150645002I0J249998D01*
G01*
X152349000Y-150119998D01*
G75*
G02*
X152598998Y-149870000I249998J0D01*
G01*
X153499002Y-149870000D01*
G75*
G02*
X153749000Y-150119998I0J-249998D01*
G01*
X153749000Y-150645002D01*
G75*
G02*
X153499002Y-150895000I-249998J0D01*
G01*
G37*
%TD*%
%TO.C,R3*%
G36*
G01*
X154598998Y-149870000D02*
X155499002Y-149870000D01*
G75*
G02*
X155749000Y-150119998I0J-249998D01*
G01*
X155749000Y-150645002D01*
G75*
G02*
X155499002Y-150895000I-249998J0D01*
G01*
X154598998Y-150895000D01*
G75*
G02*
X154349000Y-150645002I0J249998D01*
G01*
X154349000Y-150119998D01*
G75*
G02*
X154598998Y-149870000I249998J0D01*
G01*
G37*
G36*
G01*
X154598998Y-148045000D02*
X155499002Y-148045000D01*
G75*
G02*
X155749000Y-148294998I0J-249998D01*
G01*
X155749000Y-148820002D01*
G75*
G02*
X155499002Y-149070000I-249998J0D01*
G01*
X154598998Y-149070000D01*
G75*
G02*
X154349000Y-148820002I0J249998D01*
G01*
X154349000Y-148294998D01*
G75*
G02*
X154598998Y-148045000I249998J0D01*
G01*
G37*
%TD*%
%TO.C,R2*%
G36*
G01*
X150108998Y-149870000D02*
X151009002Y-149870000D01*
G75*
G02*
X151259000Y-150119998I0J-249998D01*
G01*
X151259000Y-150645002D01*
G75*
G02*
X151009002Y-150895000I-249998J0D01*
G01*
X150108998Y-150895000D01*
G75*
G02*
X149859000Y-150645002I0J249998D01*
G01*
X149859000Y-150119998D01*
G75*
G02*
X150108998Y-149870000I249998J0D01*
G01*
G37*
G36*
G01*
X150108998Y-148045000D02*
X151009002Y-148045000D01*
G75*
G02*
X151259000Y-148294998I0J-249998D01*
G01*
X151259000Y-148820002D01*
G75*
G02*
X151009002Y-149070000I-249998J0D01*
G01*
X150108998Y-149070000D01*
G75*
G02*
X149859000Y-148820002I0J249998D01*
G01*
X149859000Y-148294998D01*
G75*
G02*
X150108998Y-148045000I249998J0D01*
G01*
G37*
%TD*%
%TO.C,R1*%
G36*
G01*
X157969002Y-149070000D02*
X157068998Y-149070000D01*
G75*
G02*
X156819000Y-148820002I0J249998D01*
G01*
X156819000Y-148294998D01*
G75*
G02*
X157068998Y-148045000I249998J0D01*
G01*
X157969002Y-148045000D01*
G75*
G02*
X158219000Y-148294998I0J-249998D01*
G01*
X158219000Y-148820002D01*
G75*
G02*
X157969002Y-149070000I-249998J0D01*
G01*
G37*
G36*
G01*
X157969002Y-150895000D02*
X157068998Y-150895000D01*
G75*
G02*
X156819000Y-150645002I0J249998D01*
G01*
X156819000Y-150119998D01*
G75*
G02*
X157068998Y-149870000I249998J0D01*
G01*
X157969002Y-149870000D01*
G75*
G02*
X158219000Y-150119998I0J-249998D01*
G01*
X158219000Y-150645002D01*
G75*
G02*
X157969002Y-150895000I-249998J0D01*
G01*
G37*
%TD*%
%TO.C,C4*%
G36*
G01*
X156924000Y-96000000D02*
X157874000Y-96000000D01*
G75*
G02*
X158124000Y-96250000I0J-250000D01*
G01*
X158124000Y-96750000D01*
G75*
G02*
X157874000Y-97000000I-250000J0D01*
G01*
X156924000Y-97000000D01*
G75*
G02*
X156674000Y-96750000I0J250000D01*
G01*
X156674000Y-96250000D01*
G75*
G02*
X156924000Y-96000000I250000J0D01*
G01*
G37*
G36*
G01*
X156924000Y-94100000D02*
X157874000Y-94100000D01*
G75*
G02*
X158124000Y-94350000I0J-250000D01*
G01*
X158124000Y-94850000D01*
G75*
G02*
X157874000Y-95100000I-250000J0D01*
G01*
X156924000Y-95100000D01*
G75*
G02*
X156674000Y-94850000I0J250000D01*
G01*
X156674000Y-94350000D01*
G75*
G02*
X156924000Y-94100000I250000J0D01*
G01*
G37*
%TD*%
%TO.C,C2*%
G36*
G01*
X150174000Y-95950000D02*
X151124000Y-95950000D01*
G75*
G02*
X151374000Y-96200000I0J-250000D01*
G01*
X151374000Y-96700000D01*
G75*
G02*
X151124000Y-96950000I-250000J0D01*
G01*
X150174000Y-96950000D01*
G75*
G02*
X149924000Y-96700000I0J250000D01*
G01*
X149924000Y-96200000D01*
G75*
G02*
X150174000Y-95950000I250000J0D01*
G01*
G37*
G36*
G01*
X150174000Y-94050000D02*
X151124000Y-94050000D01*
G75*
G02*
X151374000Y-94300000I0J-250000D01*
G01*
X151374000Y-94800000D01*
G75*
G02*
X151124000Y-95050000I-250000J0D01*
G01*
X150174000Y-95050000D01*
G75*
G02*
X149924000Y-94800000I0J250000D01*
G01*
X149924000Y-94300000D01*
G75*
G02*
X150174000Y-94050000I250000J0D01*
G01*
G37*
%TD*%
%TO.C,R6*%
G36*
G01*
X144899216Y-61056906D02*
X145799016Y-61056906D01*
G75*
G02*
X146049116Y-61307006I0J-250100D01*
G01*
X146049116Y-61831806D01*
G75*
G02*
X145799016Y-62081906I-250100J0D01*
G01*
X144899216Y-62081906D01*
G75*
G02*
X144649116Y-61831806I0J250100D01*
G01*
X144649116Y-61307006D01*
G75*
G02*
X144899216Y-61056906I250100J0D01*
G01*
G37*
G36*
G01*
X144899216Y-62881906D02*
X145799016Y-62881906D01*
G75*
G02*
X146049116Y-63132006I0J-250100D01*
G01*
X146049116Y-63656806D01*
G75*
G02*
X145799016Y-63906906I-250100J0D01*
G01*
X144899216Y-63906906D01*
G75*
G02*
X144649116Y-63656806I0J250100D01*
G01*
X144649116Y-63132006D01*
G75*
G02*
X144899216Y-62881906I250100J0D01*
G01*
G37*
%TD*%
M02*
