%TF.GenerationSoftware,KiCad,Pcbnew,(5.1.9-0-10_14)*%
%TF.CreationDate,2022-03-13T20:30:51-07:00*%
%TF.ProjectId,integrator,696e7465-6772-4617-946f-722e6b696361,rev?*%
%TF.SameCoordinates,Original*%
%TF.FileFunction,Profile,NP*%
%FSLAX46Y46*%
G04 Gerber Fmt 4.6, Leading zero omitted, Abs format (unit mm)*
G04 Created by KiCad (PCBNEW (5.1.9-0-10_14)) date 2022-03-13 20:30:51*
%MOMM*%
%LPD*%
G01*
G04 APERTURE LIST*
%TA.AperFunction,Profile*%
%ADD10C,0.254000*%
%TD*%
G04 APERTURE END LIST*
D10*
X183800032Y-95229706D02*
G75*
G02*
X183801499Y-95231933I-916J-2200D01*
G01*
X122139592Y-92280274D02*
X122140111Y-92277721D01*
X160389116Y-134301936D02*
G75*
G02*
X154029086Y-140641936I-6340031J-1D01*
G01*
X154029086Y-140641936D02*
G75*
G02*
X147689086Y-134281906I-1J6340031D01*
G01*
X147689086Y-134281906D02*
G75*
G02*
X154049116Y-127941906I6340031J1D01*
G01*
X154049116Y-127941906D02*
G75*
G02*
X160389116Y-134301936I1J-6340031D01*
G01*
X183799116Y-156031904D02*
X183800000Y-159031906D01*
X124299116Y-154031906D02*
X124300000Y-95231906D01*
X124299116Y-154031909D02*
G75*
G02*
X124299116Y-156031906I-799999J-999998D01*
G01*
X183799116Y-156031903D02*
G75*
G02*
X183799116Y-154031906I799999J999998D01*
G01*
X123299116Y-74231906D02*
G75*
G03*
X123799116Y-73731906I0J500000D01*
G01*
X123799116Y-71731906D02*
X123799116Y-73731906D01*
X123799116Y-71731906D02*
G75*
G03*
X123299116Y-71231906I-500000J0D01*
G01*
X124299115Y-68131905D02*
X121722195Y-70162914D01*
X123299116Y-78231906D02*
G75*
G03*
X123799116Y-77731906I0J500000D01*
G01*
X123299116Y-74231906D02*
X121299116Y-74231906D01*
X123299116Y-78231906D02*
X121299116Y-78231906D01*
X124299115Y-68131904D02*
G75*
G03*
X124299115Y-66131907I-799999J999998D01*
G01*
X123799116Y-76731906D02*
X123799116Y-77731906D01*
X123799116Y-76731906D02*
G75*
G03*
X123299116Y-76231906I-500000J0D01*
G01*
X121299116Y-71005215D02*
X121299116Y-71231906D01*
X121722195Y-70162914D02*
G75*
G03*
X121299116Y-71005215I626921J-842301D01*
G01*
X121299116Y-76231906D02*
X123299116Y-76231906D01*
X121299116Y-71231906D02*
X123299116Y-71231906D01*
X121299116Y-74231906D02*
X121299116Y-76231906D01*
X183799117Y-68131905D02*
X186376037Y-70162914D01*
X183799117Y-68131904D02*
G75*
G02*
X183799117Y-66131907I799999J999998D01*
G01*
X186799116Y-74231906D02*
X186799116Y-76231906D01*
X184299116Y-71731906D02*
G75*
G02*
X184799116Y-71231906I500000J0D01*
G01*
X184799116Y-74231906D02*
G75*
G02*
X184299116Y-73731906I0J500000D01*
G01*
X186799116Y-78231906D02*
X186799116Y-91401906D01*
X184799116Y-78231906D02*
G75*
G02*
X184299116Y-77731906I0J500000D01*
G01*
X184299116Y-76731906D02*
G75*
G02*
X184799116Y-76231906I500000J0D01*
G01*
X184799116Y-78231906D02*
X186799116Y-78231906D01*
X184299116Y-76731906D02*
X184299116Y-77731906D01*
X186799116Y-76231906D02*
X184799116Y-76231906D01*
X184799116Y-74231906D02*
X186799116Y-74231906D01*
X184299116Y-71731906D02*
X184299116Y-73731906D01*
X186799116Y-71231906D02*
X184799116Y-71231906D01*
X181799116Y-161032790D02*
X147379116Y-161021906D01*
X126398947Y-161028528D02*
X147379116Y-161021906D01*
X124300000Y-159031906D02*
X124299116Y-156031906D01*
X126398947Y-161028528D02*
G75*
G02*
X124300000Y-159031906I-99831J1996622D01*
G01*
X181799116Y-161032790D02*
G75*
G03*
X183800000Y-159031906I0J2000884D01*
G01*
X124299116Y-66131906D02*
X124300000Y-56000000D01*
X122140111Y-92277721D02*
G75*
G02*
X121299116Y-91231906I209005J1029124D01*
G01*
X121299116Y-91231906D02*
X121299116Y-78231906D01*
X122139592Y-92280274D02*
G75*
G02*
X124300000Y-95231906I-840476J-2881632D01*
G01*
X185999071Y-92421721D02*
G75*
G03*
X186799116Y-91401906I-249955J1019815D01*
G01*
X186376037Y-70162914D02*
G75*
G02*
X186799116Y-71005215I-626921J-842301D01*
G01*
X183800000Y-56000000D02*
X183799116Y-66131906D01*
X183799116Y-95231906D02*
X183799116Y-154031906D01*
X183801500Y-95231934D02*
G75*
G02*
X185999116Y-92421906I2997616J-79972D01*
G01*
X186799116Y-71005215D02*
X186799116Y-71231906D01*
X130300000Y-71000000D02*
X130300000Y-91000000D01*
X132300000Y-69000000D02*
X175800000Y-69000000D01*
X124300000Y-46000000D02*
G75*
G02*
X126300000Y-44000000I2000000J0D01*
G01*
X181800000Y-44000000D02*
G75*
G02*
X183800000Y-46000000I0J-2000000D01*
G01*
X175800000Y-69000000D02*
G75*
G02*
X177800000Y-71000000I0J-2000000D01*
G01*
X177800000Y-91000000D02*
G75*
G02*
X175800000Y-93000000I-2000000J0D01*
G01*
X132300000Y-93000000D02*
G75*
G02*
X130300000Y-91000000I0J2000000D01*
G01*
X130300000Y-71000000D02*
G75*
G02*
X132300000Y-69000000I2000000J0D01*
G01*
X132300000Y-93000000D02*
X175800000Y-93000000D01*
X177800000Y-71000000D02*
X177800000Y-91000000D01*
X183800000Y-46000000D02*
X183800000Y-56000000D01*
X126300000Y-44000000D02*
X181800000Y-44000000D01*
X124300000Y-56000000D02*
X124300000Y-46000000D01*
M02*
