%TF.GenerationSoftware,KiCad,Pcbnew,(5.1.9-0-10_14)*%
%TF.CreationDate,2021-02-02T08:17:03-08:00*%
%TF.ProjectId,integrator,696e7465-6772-4617-946f-722e6b696361,rev?*%
%TF.SameCoordinates,Original*%
%TF.FileFunction,Legend,Top*%
%TF.FilePolarity,Positive*%
%FSLAX46Y46*%
G04 Gerber Fmt 4.6, Leading zero omitted, Abs format (unit mm)*
G04 Created by KiCad (PCBNEW (5.1.9-0-10_14)) date 2021-02-02 08:17:03*
%MOMM*%
%LPD*%
G01*
G04 APERTURE LIST*
%ADD10C,0.150000*%
%ADD11C,0.250000*%
%ADD12C,0.120000*%
%ADD13C,0.127000*%
%ADD14C,0.200000*%
%ADD15C,0.100000*%
%ADD16C,0.015000*%
G04 APERTURE END LIST*
D10*
%TO.C,SW1*%
X206181000Y-69300000D02*
X206131000Y-69300000D01*
X208356000Y-69300000D02*
X207731000Y-69300000D01*
X208356000Y-69300000D02*
X208356000Y-62700000D01*
X206181000Y-62700000D02*
X206131000Y-62700000D01*
X208356000Y-62700000D02*
X207731000Y-62700000D01*
X205156000Y-67175000D02*
X205156000Y-64825000D01*
D11*
X205356000Y-69875000D02*
G75*
G03*
X205356000Y-69875000I-125000J0D01*
G01*
D10*
%TO.C,SW2*%
X145863000Y-62892400D02*
X145913000Y-62892400D01*
X143688000Y-62892400D02*
X144313000Y-62892400D01*
X143688000Y-62892400D02*
X143688000Y-69492400D01*
X145863000Y-69492400D02*
X145913000Y-69492400D01*
X143688000Y-69492400D02*
X144313000Y-69492400D01*
X146888000Y-65017400D02*
X146888000Y-67367400D01*
D11*
X146938000Y-62317400D02*
G75*
G03*
X146938000Y-62317400I-125000J0D01*
G01*
D12*
%TO.C,LED1*%
X164985000Y-34837500D02*
X164985000Y-32552500D01*
X164985000Y-32552500D02*
X163515000Y-32552500D01*
X163515000Y-32552500D02*
X163515000Y-34837500D01*
%TO.C,LED2*%
X188485000Y-34837500D02*
X188485000Y-32552500D01*
X188485000Y-32552500D02*
X187015000Y-32552500D01*
X187015000Y-32552500D02*
X187015000Y-34837500D01*
%TO.C,C1*%
X150325000Y-83189420D02*
X150325000Y-83470580D01*
X149305000Y-83189420D02*
X149305000Y-83470580D01*
%TO.C,C2*%
X152849420Y-87015000D02*
X153130580Y-87015000D01*
X152849420Y-85995000D02*
X153130580Y-85995000D01*
%TO.C,C3*%
X156675000Y-83189420D02*
X156675000Y-83470580D01*
X155655000Y-83189420D02*
X155655000Y-83470580D01*
D13*
%TO.C,J1*%
X148500000Y-33000000D02*
X148500000Y-32500000D01*
X148500000Y-32500000D02*
X148500000Y-27500000D01*
X148500000Y-27500000D02*
X148500000Y-27000000D01*
X148500000Y-27000000D02*
X151600000Y-27000000D01*
X154200000Y-27000000D02*
X163000000Y-27000000D01*
X163000000Y-27000000D02*
X163000000Y-33000000D01*
X148500000Y-33000000D02*
X149600000Y-33000000D01*
X152200000Y-33000000D02*
X158700000Y-33000000D01*
D14*
X147800000Y-33300000D02*
G75*
G03*
X147800000Y-33300000I-100000J0D01*
G01*
D13*
X161900000Y-33000000D02*
X163000000Y-33000000D01*
X148500000Y-27500000D02*
X146000000Y-27500000D01*
X146000000Y-27500000D02*
X146000000Y-32500000D01*
X146000000Y-32500000D02*
X148500000Y-32500000D01*
%TO.C,J2*%
X206000000Y-27500000D02*
X203500000Y-27500000D01*
X206000000Y-32500000D02*
X206000000Y-27500000D01*
X203500000Y-32500000D02*
X206000000Y-32500000D01*
X190100000Y-27000000D02*
X189000000Y-27000000D01*
D14*
X204400000Y-26700000D02*
G75*
G03*
X204400000Y-26700000I-100000J0D01*
G01*
D13*
X199800000Y-27000000D02*
X193300000Y-27000000D01*
X203500000Y-27000000D02*
X202400000Y-27000000D01*
X189000000Y-33000000D02*
X189000000Y-27000000D01*
X197800000Y-33000000D02*
X189000000Y-33000000D01*
X203500000Y-33000000D02*
X200400000Y-33000000D01*
X203500000Y-32500000D02*
X203500000Y-33000000D01*
X203500000Y-27500000D02*
X203500000Y-32500000D01*
X203500000Y-27000000D02*
X203500000Y-27500000D01*
D12*
%TO.C,R1*%
X174977500Y-37687742D02*
X174977500Y-38162258D01*
X176022500Y-37687742D02*
X176022500Y-38162258D01*
D15*
%TO.C,U1*%
G36*
X173174000Y-81079000D02*
G01*
X173428000Y-81333000D01*
X173047000Y-81587000D01*
X172793000Y-81333000D01*
X173174000Y-81079000D01*
G37*
X173174000Y-81079000D02*
X173428000Y-81333000D01*
X173047000Y-81587000D01*
X172793000Y-81333000D01*
X173174000Y-81079000D01*
G36*
X174190000Y-80317000D02*
G01*
X174444000Y-80571000D01*
X174063000Y-80825000D01*
X173809000Y-80571000D01*
X174190000Y-80317000D01*
G37*
X174190000Y-80317000D02*
X174444000Y-80571000D01*
X174063000Y-80825000D01*
X173809000Y-80571000D01*
X174190000Y-80317000D01*
G36*
X173428000Y-79555000D02*
G01*
X173682000Y-79809000D01*
X173301000Y-80063000D01*
X173047000Y-79809000D01*
X173428000Y-79555000D01*
G37*
X173428000Y-79555000D02*
X173682000Y-79809000D01*
X173301000Y-80063000D01*
X173047000Y-79809000D01*
X173428000Y-79555000D01*
G36*
X173555000Y-81460000D02*
G01*
X173809000Y-81714000D01*
X173428000Y-81968000D01*
X173174000Y-81714000D01*
X173555000Y-81460000D01*
G37*
X173555000Y-81460000D02*
X173809000Y-81714000D01*
X173428000Y-81968000D01*
X173174000Y-81714000D01*
X173555000Y-81460000D01*
G36*
X173809000Y-79936000D02*
G01*
X174063000Y-80190000D01*
X173682000Y-80444000D01*
X173428000Y-80190000D01*
X173809000Y-79936000D01*
G37*
X173809000Y-79936000D02*
X174063000Y-80190000D01*
X173682000Y-80444000D01*
X173428000Y-80190000D01*
X173809000Y-79936000D01*
G36*
X173047000Y-81841000D02*
G01*
X173301000Y-82095000D01*
X172920000Y-82349000D01*
X172666000Y-82095000D01*
X173047000Y-81841000D01*
G37*
X173047000Y-81841000D02*
X173301000Y-82095000D01*
X172920000Y-82349000D01*
X172666000Y-82095000D01*
X173047000Y-81841000D01*
G36*
X173682000Y-80698000D02*
G01*
X173936000Y-80952000D01*
X173555000Y-81206000D01*
X173301000Y-80952000D01*
X173682000Y-80698000D01*
G37*
X173682000Y-80698000D02*
X173936000Y-80952000D01*
X173555000Y-81206000D01*
X173301000Y-80952000D01*
X173682000Y-80698000D01*
G36*
X174063000Y-81079000D02*
G01*
X174317000Y-81333000D01*
X173936000Y-81587000D01*
X173682000Y-81333000D01*
X174063000Y-81079000D01*
G37*
X174063000Y-81079000D02*
X174317000Y-81333000D01*
X173936000Y-81587000D01*
X173682000Y-81333000D01*
X174063000Y-81079000D01*
D10*
X195780000Y-75110000D02*
X195780000Y-92890000D01*
X160220000Y-75110000D02*
X195780000Y-75110000D01*
X160220000Y-92890000D02*
X160220000Y-75110000D01*
X195780000Y-92890000D02*
X160220000Y-92890000D01*
X169110000Y-78920000D02*
X178000000Y-78920000D01*
X169110000Y-89080000D02*
X178000000Y-89080000D01*
X178000000Y-89080000D02*
X178000000Y-78920000D01*
X169110000Y-78920000D02*
X169110000Y-89080000D01*
X165300000Y-86540000D02*
X162760000Y-86540000D01*
X165300000Y-81460000D02*
X165300000Y-86540000D01*
X162760000Y-81460000D02*
X165300000Y-81460000D01*
X162760000Y-86540000D02*
X162760000Y-81460000D01*
X189430000Y-81460000D02*
X189430000Y-78920000D01*
X186890000Y-81460000D02*
X189430000Y-81460000D01*
X186890000Y-78920000D02*
X186890000Y-81460000D01*
X189430000Y-78920000D02*
X186890000Y-78920000D01*
X190700000Y-80190000D02*
X195780000Y-80190000D01*
X190700000Y-87810000D02*
X195780000Y-87810000D01*
X190700000Y-80190000D02*
X190700000Y-87810000D01*
X184350000Y-81460000D02*
X184350000Y-78920000D01*
X180540000Y-81460000D02*
X184350000Y-81460000D01*
X180540000Y-78920000D02*
X180540000Y-81460000D01*
X184350000Y-78920000D02*
X180540000Y-78920000D01*
X197050000Y-87810000D02*
X195780000Y-87810000D01*
X197050000Y-80190000D02*
X197050000Y-87810000D01*
X195780000Y-80190000D02*
X197050000Y-80190000D01*
D13*
%TO.C,U2*%
X151414831Y-85160000D02*
G75*
G03*
X151414831Y-85160000I-374831J0D01*
G01*
X154490000Y-81830000D02*
X154490000Y-84830000D01*
X151490000Y-81830000D02*
X154490000Y-81830000D01*
X151490000Y-84830000D02*
X151490000Y-81830000D01*
X154490000Y-84830000D02*
X151490000Y-84830000D01*
%TO.C,SW1*%
D10*
X204285761Y-69212023D02*
X204333380Y-69069166D01*
X204333380Y-68831071D01*
X204285761Y-68735833D01*
X204238142Y-68688214D01*
X204142904Y-68640595D01*
X204047666Y-68640595D01*
X203952428Y-68688214D01*
X203904809Y-68735833D01*
X203857190Y-68831071D01*
X203809571Y-69021547D01*
X203761952Y-69116785D01*
X203714333Y-69164404D01*
X203619095Y-69212023D01*
X203523857Y-69212023D01*
X203428619Y-69164404D01*
X203381000Y-69116785D01*
X203333380Y-69021547D01*
X203333380Y-68783452D01*
X203381000Y-68640595D01*
X203333380Y-68307261D02*
X204333380Y-68069166D01*
X203619095Y-67878690D01*
X204333380Y-67688214D01*
X203333380Y-67450119D01*
X204333380Y-66545357D02*
X204333380Y-67116785D01*
X204333380Y-66831071D02*
X203333380Y-66831071D01*
X203476238Y-66926309D01*
X203571476Y-67021547D01*
X203619095Y-67116785D01*
X202874571Y-70460666D02*
X202874571Y-70127333D01*
X203398380Y-69984476D02*
X203398380Y-70460666D01*
X202398380Y-70460666D01*
X202398380Y-69984476D01*
X202398380Y-69698761D02*
X203398380Y-69365428D01*
X202398380Y-69032095D01*
X203493619Y-68032095D02*
X203446000Y-68127333D01*
X203350761Y-68222571D01*
X203207904Y-68365428D01*
X203160285Y-68460666D01*
X203160285Y-68555904D01*
X203398380Y-68508285D02*
X203350761Y-68603523D01*
X203255523Y-68698761D01*
X203065047Y-68746380D01*
X202731714Y-68746380D01*
X202541238Y-68698761D01*
X202446000Y-68603523D01*
X202398380Y-68508285D01*
X202398380Y-68317809D01*
X202446000Y-68222571D01*
X202541238Y-68127333D01*
X202731714Y-68079714D01*
X203065047Y-68079714D01*
X203255523Y-68127333D01*
X203350761Y-68222571D01*
X203398380Y-68317809D01*
X203398380Y-68508285D01*
X203398380Y-67651142D02*
X202398380Y-67651142D01*
X202398380Y-67270190D01*
X202446000Y-67174952D01*
X202493619Y-67127333D01*
X202588857Y-67079714D01*
X202731714Y-67079714D01*
X202826952Y-67127333D01*
X202874571Y-67174952D01*
X202922190Y-67270190D01*
X202922190Y-67651142D01*
X202731714Y-66222571D02*
X203398380Y-66222571D01*
X202350761Y-66460666D02*
X203065047Y-66698761D01*
X203065047Y-66079714D01*
X202398380Y-65508285D02*
X202398380Y-65413047D01*
X202446000Y-65317809D01*
X202493619Y-65270190D01*
X202588857Y-65222571D01*
X202779333Y-65174952D01*
X203017428Y-65174952D01*
X203207904Y-65222571D01*
X203303142Y-65270190D01*
X203350761Y-65317809D01*
X203398380Y-65413047D01*
X203398380Y-65508285D01*
X203350761Y-65603523D01*
X203303142Y-65651142D01*
X203207904Y-65698761D01*
X203017428Y-65746380D01*
X202779333Y-65746380D01*
X202588857Y-65698761D01*
X202493619Y-65651142D01*
X202446000Y-65603523D01*
X202398380Y-65508285D01*
X202874571Y-64413047D02*
X202922190Y-64270190D01*
X202969809Y-64222571D01*
X203065047Y-64174952D01*
X203207904Y-64174952D01*
X203303142Y-64222571D01*
X203350761Y-64270190D01*
X203398380Y-64365428D01*
X203398380Y-64746380D01*
X202398380Y-64746380D01*
X202398380Y-64413047D01*
X202446000Y-64317809D01*
X202493619Y-64270190D01*
X202588857Y-64222571D01*
X202684095Y-64222571D01*
X202779333Y-64270190D01*
X202826952Y-64317809D01*
X202874571Y-64413047D01*
X202874571Y-64746380D01*
X202398380Y-63841619D02*
X202398380Y-63222571D01*
X202779333Y-63555904D01*
X202779333Y-63413047D01*
X202826952Y-63317809D01*
X202874571Y-63270190D01*
X202969809Y-63222571D01*
X203207904Y-63222571D01*
X203303142Y-63270190D01*
X203350761Y-63317809D01*
X203398380Y-63413047D01*
X203398380Y-63698761D01*
X203350761Y-63794000D01*
X203303142Y-63841619D01*
X203398380Y-62794000D02*
X202398380Y-62794000D01*
X203112666Y-62460666D01*
X202398380Y-62127333D01*
X203398380Y-62127333D01*
%TO.C,SW2*%
X148567761Y-62404423D02*
X148615380Y-62261566D01*
X148615380Y-62023471D01*
X148567761Y-61928233D01*
X148520142Y-61880614D01*
X148424904Y-61832995D01*
X148329666Y-61832995D01*
X148234428Y-61880614D01*
X148186809Y-61928233D01*
X148139190Y-62023471D01*
X148091571Y-62213947D01*
X148043952Y-62309185D01*
X147996333Y-62356804D01*
X147901095Y-62404423D01*
X147805857Y-62404423D01*
X147710619Y-62356804D01*
X147663000Y-62309185D01*
X147615380Y-62213947D01*
X147615380Y-61975852D01*
X147663000Y-61832995D01*
X147615380Y-61499661D02*
X148615380Y-61261566D01*
X147901095Y-61071090D01*
X148615380Y-60880614D01*
X147615380Y-60642519D01*
X147710619Y-60309185D02*
X147663000Y-60261566D01*
X147615380Y-60166328D01*
X147615380Y-59928233D01*
X147663000Y-59832995D01*
X147710619Y-59785376D01*
X147805857Y-59737757D01*
X147901095Y-59737757D01*
X148043952Y-59785376D01*
X148615380Y-60356804D01*
X148615380Y-59737757D01*
X149788571Y-70206666D02*
X149788571Y-69873333D01*
X150312380Y-69730476D02*
X150312380Y-70206666D01*
X149312380Y-70206666D01*
X149312380Y-69730476D01*
X149312380Y-69444761D02*
X150312380Y-69111428D01*
X149312380Y-68778095D01*
X150407619Y-67778095D02*
X150360000Y-67873333D01*
X150264761Y-67968571D01*
X150121904Y-68111428D01*
X150074285Y-68206666D01*
X150074285Y-68301904D01*
X150312380Y-68254285D02*
X150264761Y-68349523D01*
X150169523Y-68444761D01*
X149979047Y-68492380D01*
X149645714Y-68492380D01*
X149455238Y-68444761D01*
X149360000Y-68349523D01*
X149312380Y-68254285D01*
X149312380Y-68063809D01*
X149360000Y-67968571D01*
X149455238Y-67873333D01*
X149645714Y-67825714D01*
X149979047Y-67825714D01*
X150169523Y-67873333D01*
X150264761Y-67968571D01*
X150312380Y-68063809D01*
X150312380Y-68254285D01*
X150312380Y-67397142D02*
X149312380Y-67397142D01*
X149312380Y-67016190D01*
X149360000Y-66920952D01*
X149407619Y-66873333D01*
X149502857Y-66825714D01*
X149645714Y-66825714D01*
X149740952Y-66873333D01*
X149788571Y-66920952D01*
X149836190Y-67016190D01*
X149836190Y-67397142D01*
X149645714Y-65968571D02*
X150312380Y-65968571D01*
X149264761Y-66206666D02*
X149979047Y-66444761D01*
X149979047Y-65825714D01*
X149312380Y-65254285D02*
X149312380Y-65159047D01*
X149360000Y-65063809D01*
X149407619Y-65016190D01*
X149502857Y-64968571D01*
X149693333Y-64920952D01*
X149931428Y-64920952D01*
X150121904Y-64968571D01*
X150217142Y-65016190D01*
X150264761Y-65063809D01*
X150312380Y-65159047D01*
X150312380Y-65254285D01*
X150264761Y-65349523D01*
X150217142Y-65397142D01*
X150121904Y-65444761D01*
X149931428Y-65492380D01*
X149693333Y-65492380D01*
X149502857Y-65444761D01*
X149407619Y-65397142D01*
X149360000Y-65349523D01*
X149312380Y-65254285D01*
X149788571Y-64159047D02*
X149836190Y-64016190D01*
X149883809Y-63968571D01*
X149979047Y-63920952D01*
X150121904Y-63920952D01*
X150217142Y-63968571D01*
X150264761Y-64016190D01*
X150312380Y-64111428D01*
X150312380Y-64492380D01*
X149312380Y-64492380D01*
X149312380Y-64159047D01*
X149360000Y-64063809D01*
X149407619Y-64016190D01*
X149502857Y-63968571D01*
X149598095Y-63968571D01*
X149693333Y-64016190D01*
X149740952Y-64063809D01*
X149788571Y-64159047D01*
X149788571Y-64492380D01*
X149312380Y-63587619D02*
X149312380Y-62968571D01*
X149693333Y-63301904D01*
X149693333Y-63159047D01*
X149740952Y-63063809D01*
X149788571Y-63016190D01*
X149883809Y-62968571D01*
X150121904Y-62968571D01*
X150217142Y-63016190D01*
X150264761Y-63063809D01*
X150312380Y-63159047D01*
X150312380Y-63444761D01*
X150264761Y-63540000D01*
X150217142Y-63587619D01*
X150312380Y-62540000D02*
X149312380Y-62540000D01*
X150026666Y-62206666D01*
X149312380Y-61873333D01*
X150312380Y-61873333D01*
%TO.C,LED1*%
X165752380Y-35156547D02*
X165752380Y-35632738D01*
X164752380Y-35632738D01*
X165228571Y-34823214D02*
X165228571Y-34489880D01*
X165752380Y-34347023D02*
X165752380Y-34823214D01*
X164752380Y-34823214D01*
X164752380Y-34347023D01*
X165752380Y-33918452D02*
X164752380Y-33918452D01*
X164752380Y-33680357D01*
X164800000Y-33537500D01*
X164895238Y-33442261D01*
X164990476Y-33394642D01*
X165180952Y-33347023D01*
X165323809Y-33347023D01*
X165514285Y-33394642D01*
X165609523Y-33442261D01*
X165704761Y-33537500D01*
X165752380Y-33680357D01*
X165752380Y-33918452D01*
X165752380Y-32394642D02*
X165752380Y-32966071D01*
X165752380Y-32680357D02*
X164752380Y-32680357D01*
X164895238Y-32775595D01*
X164990476Y-32870833D01*
X165038095Y-32966071D01*
%TO.C,LED2*%
X189252380Y-35156547D02*
X189252380Y-35632738D01*
X188252380Y-35632738D01*
X188728571Y-34823214D02*
X188728571Y-34489880D01*
X189252380Y-34347023D02*
X189252380Y-34823214D01*
X188252380Y-34823214D01*
X188252380Y-34347023D01*
X189252380Y-33918452D02*
X188252380Y-33918452D01*
X188252380Y-33680357D01*
X188300000Y-33537500D01*
X188395238Y-33442261D01*
X188490476Y-33394642D01*
X188680952Y-33347023D01*
X188823809Y-33347023D01*
X189014285Y-33394642D01*
X189109523Y-33442261D01*
X189204761Y-33537500D01*
X189252380Y-33680357D01*
X189252380Y-33918452D01*
X188347619Y-32966071D02*
X188300000Y-32918452D01*
X188252380Y-32823214D01*
X188252380Y-32585119D01*
X188300000Y-32489880D01*
X188347619Y-32442261D01*
X188442857Y-32394642D01*
X188538095Y-32394642D01*
X188680952Y-32442261D01*
X189252380Y-33013690D01*
X189252380Y-32394642D01*
%TO.C,C1*%
X151222142Y-83496666D02*
X151269761Y-83544285D01*
X151317380Y-83687142D01*
X151317380Y-83782380D01*
X151269761Y-83925238D01*
X151174523Y-84020476D01*
X151079285Y-84068095D01*
X150888809Y-84115714D01*
X150745952Y-84115714D01*
X150555476Y-84068095D01*
X150460238Y-84020476D01*
X150365000Y-83925238D01*
X150317380Y-83782380D01*
X150317380Y-83687142D01*
X150365000Y-83544285D01*
X150412619Y-83496666D01*
X151317380Y-82544285D02*
X151317380Y-83115714D01*
X151317380Y-82830000D02*
X150317380Y-82830000D01*
X150460238Y-82925238D01*
X150555476Y-83020476D01*
X150603095Y-83115714D01*
%TO.C,C2*%
X152823333Y-85432142D02*
X152775714Y-85479761D01*
X152632857Y-85527380D01*
X152537619Y-85527380D01*
X152394761Y-85479761D01*
X152299523Y-85384523D01*
X152251904Y-85289285D01*
X152204285Y-85098809D01*
X152204285Y-84955952D01*
X152251904Y-84765476D01*
X152299523Y-84670238D01*
X152394761Y-84575000D01*
X152537619Y-84527380D01*
X152632857Y-84527380D01*
X152775714Y-84575000D01*
X152823333Y-84622619D01*
X153204285Y-84622619D02*
X153251904Y-84575000D01*
X153347142Y-84527380D01*
X153585238Y-84527380D01*
X153680476Y-84575000D01*
X153728095Y-84622619D01*
X153775714Y-84717857D01*
X153775714Y-84813095D01*
X153728095Y-84955952D01*
X153156666Y-85527380D01*
X153775714Y-85527380D01*
%TO.C,C3*%
X157952142Y-83496666D02*
X157999761Y-83544285D01*
X158047380Y-83687142D01*
X158047380Y-83782380D01*
X157999761Y-83925238D01*
X157904523Y-84020476D01*
X157809285Y-84068095D01*
X157618809Y-84115714D01*
X157475952Y-84115714D01*
X157285476Y-84068095D01*
X157190238Y-84020476D01*
X157095000Y-83925238D01*
X157047380Y-83782380D01*
X157047380Y-83687142D01*
X157095000Y-83544285D01*
X157142619Y-83496666D01*
X157047380Y-83163333D02*
X157047380Y-82544285D01*
X157428333Y-82877619D01*
X157428333Y-82734761D01*
X157475952Y-82639523D01*
X157523571Y-82591904D01*
X157618809Y-82544285D01*
X157856904Y-82544285D01*
X157952142Y-82591904D01*
X157999761Y-82639523D01*
X158047380Y-82734761D01*
X158047380Y-83020476D01*
X157999761Y-83115714D01*
X157952142Y-83163333D01*
%TO.C,J1*%
D16*
X151741217Y-23506388D02*
X151741217Y-24221883D01*
X151693517Y-24364982D01*
X151598118Y-24460382D01*
X151455019Y-24508081D01*
X151359620Y-24508081D01*
X152742910Y-24508081D02*
X152170514Y-24508081D01*
X152456712Y-24508081D02*
X152456712Y-23506388D01*
X152361313Y-23649487D01*
X152265913Y-23744887D01*
X152170514Y-23792586D01*
%TO.C,J2*%
X199590987Y-35396518D02*
X199590987Y-36112013D01*
X199543287Y-36255112D01*
X199447888Y-36350512D01*
X199304789Y-36398211D01*
X199209390Y-36398211D01*
X200020284Y-35491918D02*
X200067984Y-35444218D01*
X200163383Y-35396518D01*
X200401881Y-35396518D01*
X200497281Y-35444218D01*
X200544980Y-35491918D01*
X200592680Y-35587317D01*
X200592680Y-35682716D01*
X200544980Y-35825815D01*
X199972584Y-36398211D01*
X200592680Y-36398211D01*
%TO.C,R1*%
D10*
X177382380Y-38091666D02*
X176906190Y-38425000D01*
X177382380Y-38663095D02*
X176382380Y-38663095D01*
X176382380Y-38282142D01*
X176430000Y-38186904D01*
X176477619Y-38139285D01*
X176572857Y-38091666D01*
X176715714Y-38091666D01*
X176810952Y-38139285D01*
X176858571Y-38186904D01*
X176906190Y-38282142D01*
X176906190Y-38663095D01*
X177382380Y-37139285D02*
X177382380Y-37710714D01*
X177382380Y-37425000D02*
X176382380Y-37425000D01*
X176525238Y-37520238D01*
X176620476Y-37615476D01*
X176668095Y-37710714D01*
%TO.C,U1*%
X177238095Y-93612380D02*
X177238095Y-94421904D01*
X177285714Y-94517142D01*
X177333333Y-94564761D01*
X177428571Y-94612380D01*
X177619047Y-94612380D01*
X177714285Y-94564761D01*
X177761904Y-94517142D01*
X177809523Y-94421904D01*
X177809523Y-93612380D01*
X178809523Y-94612380D02*
X178238095Y-94612380D01*
X178523809Y-94612380D02*
X178523809Y-93612380D01*
X178428571Y-93755238D01*
X178333333Y-93850476D01*
X178238095Y-93898095D01*
X187612380Y-88016190D02*
X187612380Y-87444761D01*
X188612380Y-87730476D02*
X187612380Y-87730476D01*
X187612380Y-87206666D02*
X187612380Y-86587619D01*
X187993333Y-86920952D01*
X187993333Y-86778095D01*
X188040952Y-86682857D01*
X188088571Y-86635238D01*
X188183809Y-86587619D01*
X188421904Y-86587619D01*
X188517142Y-86635238D01*
X188564761Y-86682857D01*
X188612380Y-86778095D01*
X188612380Y-87063809D01*
X188564761Y-87159047D01*
X188517142Y-87206666D01*
X188517142Y-86159047D02*
X188564761Y-86111428D01*
X188612380Y-86159047D01*
X188564761Y-86206666D01*
X188517142Y-86159047D01*
X188612380Y-86159047D01*
X187707619Y-85730476D02*
X187660000Y-85682857D01*
X187612380Y-85587619D01*
X187612380Y-85349523D01*
X187660000Y-85254285D01*
X187707619Y-85206666D01*
X187802857Y-85159047D01*
X187898095Y-85159047D01*
X188040952Y-85206666D01*
X188612380Y-85778095D01*
X188612380Y-85159047D01*
X183802380Y-88016190D02*
X183802380Y-87444761D01*
X184802380Y-87730476D02*
X183802380Y-87730476D01*
X183802380Y-87206666D02*
X183802380Y-86587619D01*
X184183333Y-86920952D01*
X184183333Y-86778095D01*
X184230952Y-86682857D01*
X184278571Y-86635238D01*
X184373809Y-86587619D01*
X184611904Y-86587619D01*
X184707142Y-86635238D01*
X184754761Y-86682857D01*
X184802380Y-86778095D01*
X184802380Y-87063809D01*
X184754761Y-87159047D01*
X184707142Y-87206666D01*
X184707142Y-86159047D02*
X184754761Y-86111428D01*
X184802380Y-86159047D01*
X184754761Y-86206666D01*
X184707142Y-86159047D01*
X184802380Y-86159047D01*
X184802380Y-85159047D02*
X184802380Y-85730476D01*
X184802380Y-85444761D02*
X183802380Y-85444761D01*
X183945238Y-85540000D01*
X184040476Y-85635238D01*
X184088095Y-85730476D01*
X169338333Y-87110666D02*
X169338333Y-86410666D01*
X169571666Y-86910666D01*
X169805000Y-86410666D01*
X169805000Y-87110666D01*
X170138333Y-87110666D02*
X170138333Y-86410666D01*
X170538333Y-87110666D02*
X170238333Y-86710666D01*
X170538333Y-86410666D02*
X170138333Y-86810666D01*
X170805000Y-86477333D02*
X170838333Y-86444000D01*
X170905000Y-86410666D01*
X171071666Y-86410666D01*
X171138333Y-86444000D01*
X171171666Y-86477333D01*
X171205000Y-86544000D01*
X171205000Y-86610666D01*
X171171666Y-86710666D01*
X170771666Y-87110666D01*
X171205000Y-87110666D01*
X171638333Y-86410666D02*
X171705000Y-86410666D01*
X171771666Y-86444000D01*
X171805000Y-86477333D01*
X171838333Y-86544000D01*
X171871666Y-86677333D01*
X171871666Y-86844000D01*
X171838333Y-86977333D01*
X171805000Y-87044000D01*
X171771666Y-87077333D01*
X171705000Y-87110666D01*
X171638333Y-87110666D01*
X171571666Y-87077333D01*
X171538333Y-87044000D01*
X171505000Y-86977333D01*
X171471666Y-86844000D01*
X171471666Y-86677333D01*
X171505000Y-86544000D01*
X171538333Y-86477333D01*
X171571666Y-86444000D01*
X171638333Y-86410666D01*
X172171666Y-87110666D02*
X172171666Y-86410666D01*
X172338333Y-86410666D01*
X172438333Y-86444000D01*
X172505000Y-86510666D01*
X172538333Y-86577333D01*
X172571666Y-86710666D01*
X172571666Y-86810666D01*
X172538333Y-86944000D01*
X172505000Y-87010666D01*
X172438333Y-87077333D01*
X172338333Y-87110666D01*
X172171666Y-87110666D01*
X172805000Y-86410666D02*
X173271666Y-87110666D01*
X173271666Y-86410666D02*
X172805000Y-87110666D01*
X173505000Y-86477333D02*
X173538333Y-86444000D01*
X173605000Y-86410666D01*
X173771666Y-86410666D01*
X173838333Y-86444000D01*
X173871666Y-86477333D01*
X173905000Y-86544000D01*
X173905000Y-86610666D01*
X173871666Y-86710666D01*
X173471666Y-87110666D01*
X173905000Y-87110666D01*
X174538333Y-86410666D02*
X174205000Y-86410666D01*
X174171666Y-86744000D01*
X174205000Y-86710666D01*
X174271666Y-86677333D01*
X174438333Y-86677333D01*
X174505000Y-86710666D01*
X174538333Y-86744000D01*
X174571666Y-86810666D01*
X174571666Y-86977333D01*
X174538333Y-87044000D01*
X174505000Y-87077333D01*
X174438333Y-87110666D01*
X174271666Y-87110666D01*
X174205000Y-87077333D01*
X174171666Y-87044000D01*
X175171666Y-86410666D02*
X175038333Y-86410666D01*
X174971666Y-86444000D01*
X174938333Y-86477333D01*
X174871666Y-86577333D01*
X174838333Y-86710666D01*
X174838333Y-86977333D01*
X174871666Y-87044000D01*
X174905000Y-87077333D01*
X174971666Y-87110666D01*
X175105000Y-87110666D01*
X175171666Y-87077333D01*
X175205000Y-87044000D01*
X175238333Y-86977333D01*
X175238333Y-86810666D01*
X175205000Y-86744000D01*
X175171666Y-86710666D01*
X175105000Y-86677333D01*
X174971666Y-86677333D01*
X174905000Y-86710666D01*
X174871666Y-86744000D01*
X174838333Y-86810666D01*
X175438333Y-86410666D02*
X175671666Y-87110666D01*
X175905000Y-86410666D01*
X176471666Y-87110666D02*
X176138333Y-87110666D01*
X176138333Y-86410666D01*
X176705000Y-87110666D02*
X176705000Y-86410666D01*
X176705000Y-86744000D02*
X177105000Y-86744000D01*
X177105000Y-87110666D02*
X177105000Y-86410666D01*
X177371666Y-86410666D02*
X177838333Y-86410666D01*
X177538333Y-87110666D01*
X169821666Y-84570666D02*
X169821666Y-83870666D01*
X170055000Y-84370666D01*
X170288333Y-83870666D01*
X170288333Y-84570666D01*
X170621666Y-84570666D02*
X170621666Y-83870666D01*
X171021666Y-84570666D02*
X170721666Y-84170666D01*
X171021666Y-83870666D02*
X170621666Y-84270666D01*
X171655000Y-84570666D02*
X171321666Y-84570666D01*
X171321666Y-83870666D01*
X171855000Y-83937333D02*
X171888333Y-83904000D01*
X171955000Y-83870666D01*
X172121666Y-83870666D01*
X172188333Y-83904000D01*
X172221666Y-83937333D01*
X172255000Y-84004000D01*
X172255000Y-84070666D01*
X172221666Y-84170666D01*
X171821666Y-84570666D01*
X172255000Y-84570666D01*
X172855000Y-83870666D02*
X172721666Y-83870666D01*
X172655000Y-83904000D01*
X172621666Y-83937333D01*
X172555000Y-84037333D01*
X172521666Y-84170666D01*
X172521666Y-84437333D01*
X172555000Y-84504000D01*
X172588333Y-84537333D01*
X172655000Y-84570666D01*
X172788333Y-84570666D01*
X172855000Y-84537333D01*
X172888333Y-84504000D01*
X172921666Y-84437333D01*
X172921666Y-84270666D01*
X172888333Y-84204000D01*
X172855000Y-84170666D01*
X172788333Y-84137333D01*
X172655000Y-84137333D01*
X172588333Y-84170666D01*
X172555000Y-84204000D01*
X172521666Y-84270666D01*
X173155000Y-83870666D02*
X173621666Y-83870666D01*
X173155000Y-84570666D01*
X173621666Y-84570666D01*
X174188333Y-83870666D02*
X174055000Y-83870666D01*
X173988333Y-83904000D01*
X173955000Y-83937333D01*
X173888333Y-84037333D01*
X173855000Y-84170666D01*
X173855000Y-84437333D01*
X173888333Y-84504000D01*
X173921666Y-84537333D01*
X173988333Y-84570666D01*
X174121666Y-84570666D01*
X174188333Y-84537333D01*
X174221666Y-84504000D01*
X174255000Y-84437333D01*
X174255000Y-84270666D01*
X174221666Y-84204000D01*
X174188333Y-84170666D01*
X174121666Y-84137333D01*
X173988333Y-84137333D01*
X173921666Y-84170666D01*
X173888333Y-84204000D01*
X173855000Y-84270666D01*
X174855000Y-84104000D02*
X174855000Y-84570666D01*
X174688333Y-83837333D02*
X174521666Y-84337333D01*
X174955000Y-84337333D01*
X175121666Y-83870666D02*
X175355000Y-84570666D01*
X175588333Y-83870666D01*
X176055000Y-84204000D02*
X175821666Y-84204000D01*
X175821666Y-84570666D02*
X175821666Y-83870666D01*
X176155000Y-83870666D01*
X176321666Y-83870666D02*
X176721666Y-83870666D01*
X176521666Y-84570666D02*
X176521666Y-83870666D01*
X177255000Y-84104000D02*
X177255000Y-84570666D01*
X177088333Y-83837333D02*
X176921666Y-84337333D01*
X177355000Y-84337333D01*
X169338333Y-85840666D02*
X169338333Y-85140666D01*
X169571666Y-85640666D01*
X169805000Y-85140666D01*
X169805000Y-85840666D01*
X170138333Y-85840666D02*
X170138333Y-85140666D01*
X170538333Y-85840666D02*
X170238333Y-85440666D01*
X170538333Y-85140666D02*
X170138333Y-85540666D01*
X170805000Y-85207333D02*
X170838333Y-85174000D01*
X170905000Y-85140666D01*
X171071666Y-85140666D01*
X171138333Y-85174000D01*
X171171666Y-85207333D01*
X171205000Y-85274000D01*
X171205000Y-85340666D01*
X171171666Y-85440666D01*
X170771666Y-85840666D01*
X171205000Y-85840666D01*
X171638333Y-85140666D02*
X171705000Y-85140666D01*
X171771666Y-85174000D01*
X171805000Y-85207333D01*
X171838333Y-85274000D01*
X171871666Y-85407333D01*
X171871666Y-85574000D01*
X171838333Y-85707333D01*
X171805000Y-85774000D01*
X171771666Y-85807333D01*
X171705000Y-85840666D01*
X171638333Y-85840666D01*
X171571666Y-85807333D01*
X171538333Y-85774000D01*
X171505000Y-85707333D01*
X171471666Y-85574000D01*
X171471666Y-85407333D01*
X171505000Y-85274000D01*
X171538333Y-85207333D01*
X171571666Y-85174000D01*
X171638333Y-85140666D01*
X172171666Y-85840666D02*
X172171666Y-85140666D01*
X172338333Y-85140666D01*
X172438333Y-85174000D01*
X172505000Y-85240666D01*
X172538333Y-85307333D01*
X172571666Y-85440666D01*
X172571666Y-85540666D01*
X172538333Y-85674000D01*
X172505000Y-85740666D01*
X172438333Y-85807333D01*
X172338333Y-85840666D01*
X172171666Y-85840666D01*
X172805000Y-85140666D02*
X173271666Y-85840666D01*
X173271666Y-85140666D02*
X172805000Y-85840666D01*
X173905000Y-85840666D02*
X173505000Y-85840666D01*
X173705000Y-85840666D02*
X173705000Y-85140666D01*
X173638333Y-85240666D01*
X173571666Y-85307333D01*
X173505000Y-85340666D01*
X174171666Y-85207333D02*
X174205000Y-85174000D01*
X174271666Y-85140666D01*
X174438333Y-85140666D01*
X174505000Y-85174000D01*
X174538333Y-85207333D01*
X174571666Y-85274000D01*
X174571666Y-85340666D01*
X174538333Y-85440666D01*
X174138333Y-85840666D01*
X174571666Y-85840666D01*
X174971666Y-85440666D02*
X174905000Y-85407333D01*
X174871666Y-85374000D01*
X174838333Y-85307333D01*
X174838333Y-85274000D01*
X174871666Y-85207333D01*
X174905000Y-85174000D01*
X174971666Y-85140666D01*
X175105000Y-85140666D01*
X175171666Y-85174000D01*
X175205000Y-85207333D01*
X175238333Y-85274000D01*
X175238333Y-85307333D01*
X175205000Y-85374000D01*
X175171666Y-85407333D01*
X175105000Y-85440666D01*
X174971666Y-85440666D01*
X174905000Y-85474000D01*
X174871666Y-85507333D01*
X174838333Y-85574000D01*
X174838333Y-85707333D01*
X174871666Y-85774000D01*
X174905000Y-85807333D01*
X174971666Y-85840666D01*
X175105000Y-85840666D01*
X175171666Y-85807333D01*
X175205000Y-85774000D01*
X175238333Y-85707333D01*
X175238333Y-85574000D01*
X175205000Y-85507333D01*
X175171666Y-85474000D01*
X175105000Y-85440666D01*
X175438333Y-85140666D02*
X175671666Y-85840666D01*
X175905000Y-85140666D01*
X176471666Y-85840666D02*
X176138333Y-85840666D01*
X176138333Y-85140666D01*
X176705000Y-85840666D02*
X176705000Y-85140666D01*
X176705000Y-85474000D02*
X177105000Y-85474000D01*
X177105000Y-85840666D02*
X177105000Y-85140666D01*
X177771666Y-85140666D02*
X177438333Y-85140666D01*
X177405000Y-85474000D01*
X177438333Y-85440666D01*
X177505000Y-85407333D01*
X177671666Y-85407333D01*
X177738333Y-85440666D01*
X177771666Y-85474000D01*
X177805000Y-85540666D01*
X177805000Y-85707333D01*
X177771666Y-85774000D01*
X177738333Y-85807333D01*
X177671666Y-85840666D01*
X177505000Y-85840666D01*
X177438333Y-85807333D01*
X177405000Y-85774000D01*
%TO.C,U2*%
D16*
X152558803Y-83929925D02*
X153196224Y-83929925D01*
X153271215Y-83892430D01*
X153308710Y-83854934D01*
X153346205Y-83779944D01*
X153346205Y-83629962D01*
X153308710Y-83554972D01*
X153271215Y-83517476D01*
X153196224Y-83479981D01*
X152558803Y-83479981D01*
X152633794Y-83142523D02*
X152596299Y-83105028D01*
X152558803Y-83030037D01*
X152558803Y-82842560D01*
X152596299Y-82767570D01*
X152633794Y-82730074D01*
X152708785Y-82692579D01*
X152783775Y-82692579D01*
X152896261Y-82730074D01*
X153346205Y-83180018D01*
X153346205Y-82692579D01*
%TD*%
M02*
