%TF.GenerationSoftware,KiCad,Pcbnew,(5.1.9-0-10_14)*%
%TF.CreationDate,2021-04-01T20:47:01-07:00*%
%TF.ProjectId,integrator,696e7465-6772-4617-946f-722e6b696361,rev?*%
%TF.SameCoordinates,Original*%
%TF.FileFunction,Legend,Bot*%
%TF.FilePolarity,Positive*%
%FSLAX46Y46*%
G04 Gerber Fmt 4.6, Leading zero omitted, Abs format (unit mm)*
G04 Created by KiCad (PCBNEW (5.1.9-0-10_14)) date 2021-04-01 20:47:01*
%MOMM*%
%LPD*%
G01*
G04 APERTURE LIST*
%ADD10C,0.127000*%
%ADD11C,0.120000*%
%ADD12C,0.150000*%
%ADD13C,0.200000*%
%ADD14C,0.140000*%
%ADD15C,0.125000*%
%ADD16C,0.015000*%
G04 APERTURE END LIST*
D10*
X157872830Y-59276620D02*
X157872830Y-58768620D01*
X157872830Y-58841191D02*
X157836544Y-58804906D01*
X157763973Y-58768620D01*
X157655116Y-58768620D01*
X157582544Y-58804906D01*
X157546258Y-58877477D01*
X157546258Y-59276620D01*
X157546258Y-58877477D02*
X157509973Y-58804906D01*
X157437401Y-58768620D01*
X157328544Y-58768620D01*
X157255973Y-58804906D01*
X157219687Y-58877477D01*
X157219687Y-59276620D01*
X156530258Y-59276620D02*
X156530258Y-58877477D01*
X156566544Y-58804906D01*
X156639116Y-58768620D01*
X156784258Y-58768620D01*
X156856830Y-58804906D01*
X156530258Y-59240334D02*
X156602830Y-59276620D01*
X156784258Y-59276620D01*
X156856830Y-59240334D01*
X156893116Y-59167763D01*
X156893116Y-59095191D01*
X156856830Y-59022620D01*
X156784258Y-58986334D01*
X156602830Y-58986334D01*
X156530258Y-58950048D01*
X155840830Y-58768620D02*
X155840830Y-59385477D01*
X155877116Y-59458048D01*
X155913401Y-59494334D01*
X155985973Y-59530620D01*
X156094830Y-59530620D01*
X156167401Y-59494334D01*
X155840830Y-59240334D02*
X155913401Y-59276620D01*
X156058544Y-59276620D01*
X156131116Y-59240334D01*
X156167401Y-59204048D01*
X156203687Y-59131477D01*
X156203687Y-58913763D01*
X156167401Y-58841191D01*
X156131116Y-58804906D01*
X156058544Y-58768620D01*
X155913401Y-58768620D01*
X155840830Y-58804906D01*
X155477973Y-59276620D02*
X155477973Y-58768620D01*
X155477973Y-58514620D02*
X155514258Y-58550906D01*
X155477973Y-58587191D01*
X155441687Y-58550906D01*
X155477973Y-58514620D01*
X155477973Y-58587191D01*
X154788544Y-59240334D02*
X154861116Y-59276620D01*
X155006258Y-59276620D01*
X155078830Y-59240334D01*
X155115116Y-59204048D01*
X155151401Y-59131477D01*
X155151401Y-58913763D01*
X155115116Y-58841191D01*
X155078830Y-58804906D01*
X155006258Y-58768620D01*
X154861116Y-58768620D01*
X154788544Y-58804906D01*
X153990258Y-58768620D02*
X153699973Y-58768620D01*
X153881401Y-59276620D02*
X153881401Y-58623477D01*
X153845116Y-58550906D01*
X153772544Y-58514620D01*
X153699973Y-58514620D01*
X153445973Y-59276620D02*
X153445973Y-58768620D01*
X153445973Y-58514620D02*
X153482258Y-58550906D01*
X153445973Y-58587191D01*
X153409687Y-58550906D01*
X153445973Y-58514620D01*
X153445973Y-58587191D01*
X153083116Y-58768620D02*
X153083116Y-59276620D01*
X153083116Y-58841191D02*
X153046830Y-58804906D01*
X152974258Y-58768620D01*
X152865401Y-58768620D01*
X152792830Y-58804906D01*
X152756544Y-58877477D01*
X152756544Y-59276620D01*
X152067116Y-58768620D02*
X152067116Y-59385477D01*
X152103401Y-59458048D01*
X152139687Y-59494334D01*
X152212258Y-59530620D01*
X152321116Y-59530620D01*
X152393687Y-59494334D01*
X152067116Y-59240334D02*
X152139687Y-59276620D01*
X152284830Y-59276620D01*
X152357401Y-59240334D01*
X152393687Y-59204048D01*
X152429973Y-59131477D01*
X152429973Y-58913763D01*
X152393687Y-58841191D01*
X152357401Y-58804906D01*
X152284830Y-58768620D01*
X152139687Y-58768620D01*
X152067116Y-58804906D01*
X151413973Y-59240334D02*
X151486544Y-59276620D01*
X151631687Y-59276620D01*
X151704258Y-59240334D01*
X151740544Y-59167763D01*
X151740544Y-58877477D01*
X151704258Y-58804906D01*
X151631687Y-58768620D01*
X151486544Y-58768620D01*
X151413973Y-58804906D01*
X151377687Y-58877477D01*
X151377687Y-58950048D01*
X151740544Y-59022620D01*
X151051116Y-59276620D02*
X151051116Y-58768620D01*
X151051116Y-58913763D02*
X151014830Y-58841191D01*
X150978544Y-58804906D01*
X150905973Y-58768620D01*
X150833401Y-58768620D01*
X150615687Y-59240334D02*
X150543116Y-59276620D01*
X150397973Y-59276620D01*
X150325401Y-59240334D01*
X150289116Y-59167763D01*
X150289116Y-59131477D01*
X150325401Y-59058906D01*
X150397973Y-59022620D01*
X150506830Y-59022620D01*
X150579401Y-58986334D01*
X150615687Y-58913763D01*
X150615687Y-58877477D01*
X150579401Y-58804906D01*
X150506830Y-58768620D01*
X150397973Y-58768620D01*
X150325401Y-58804906D01*
D11*
%TO.C,R1*%
X155234116Y-46158970D02*
X155234116Y-45704842D01*
X153764116Y-46158970D02*
X153764116Y-45704842D01*
%TO.C,LED2*%
X164899116Y-46991906D02*
X162214116Y-46991906D01*
X162214116Y-46991906D02*
X162214116Y-45071906D01*
X162214116Y-45071906D02*
X164899116Y-45071906D01*
%TO.C,LED1*%
X143299116Y-45071906D02*
X145984116Y-45071906D01*
X145984116Y-45071906D02*
X145984116Y-46991906D01*
X145984116Y-46991906D02*
X143299116Y-46991906D01*
D12*
%TO.C,SW2*%
X120786000Y-72482000D02*
X120786000Y-75022000D01*
X119516000Y-72482000D02*
X120786000Y-72482000D01*
X119516000Y-75022000D02*
X119516000Y-72482000D01*
X120786000Y-75022000D02*
X119516000Y-75022000D01*
X120786000Y-77562000D02*
X127066000Y-77562000D01*
X120786000Y-69942000D02*
X120786000Y-77562000D01*
X127066000Y-69942000D02*
X120786000Y-69942000D01*
X127066000Y-77562000D02*
X127066000Y-69942000D01*
%TO.C,SW1*%
X187350000Y-75170000D02*
X187350000Y-72630000D01*
X188620000Y-75170000D02*
X187350000Y-75170000D01*
X188620000Y-72630000D02*
X188620000Y-75170000D01*
X187350000Y-72630000D02*
X188620000Y-72630000D01*
X187350000Y-70090000D02*
X181070000Y-70090000D01*
X187350000Y-77710000D02*
X187350000Y-70090000D01*
X181070000Y-77710000D02*
X187350000Y-77710000D01*
X181070000Y-70090000D02*
X181070000Y-77710000D01*
D10*
%TO.C,J1*%
X127100000Y-47600000D02*
X127100000Y-48100000D01*
X127100000Y-48100000D02*
X127100000Y-53100000D01*
X127100000Y-53100000D02*
X127100000Y-53600000D01*
X127100000Y-53600000D02*
X130200000Y-53600000D01*
X132800000Y-53600000D02*
X141600000Y-53600000D01*
X141600000Y-53600000D02*
X141600000Y-47600000D01*
X127100000Y-47600000D02*
X128200000Y-47600000D01*
X130800000Y-47600000D02*
X137300000Y-47600000D01*
D13*
X126400000Y-47300000D02*
G75*
G03*
X126400000Y-47300000I-100000J0D01*
G01*
D10*
X140500000Y-47600000D02*
X141600000Y-47600000D01*
X127100000Y-53100000D02*
X124600000Y-53100000D01*
X124600000Y-53100000D02*
X124600000Y-48100000D01*
X124600000Y-48100000D02*
X127100000Y-48100000D01*
%TO.C,J2*%
X181000000Y-53600000D02*
X181000000Y-53100000D01*
X181000000Y-53100000D02*
X181000000Y-48100000D01*
X181000000Y-48100000D02*
X181000000Y-47600000D01*
X181000000Y-47600000D02*
X177900000Y-47600000D01*
X175300000Y-47600000D02*
X166500000Y-47600000D01*
X166500000Y-47600000D02*
X166500000Y-53600000D01*
X181000000Y-53600000D02*
X179900000Y-53600000D01*
X177300000Y-53600000D02*
X170800000Y-53600000D01*
D13*
X181900000Y-53900000D02*
G75*
G03*
X181900000Y-53900000I-100000J0D01*
G01*
D10*
X167600000Y-53600000D02*
X166500000Y-53600000D01*
X181000000Y-48100000D02*
X183500000Y-48100000D01*
X183500000Y-48100000D02*
X183500000Y-53100000D01*
X183500000Y-53100000D02*
X181000000Y-53100000D01*
D11*
%TO.C,C1*%
X158469639Y-48435536D02*
X157947135Y-48435536D01*
X158469639Y-49905536D02*
X157947135Y-49905536D01*
%TO.C,C2*%
X155464116Y-53270654D02*
X155464116Y-53793158D01*
X156934116Y-53270654D02*
X156934116Y-53793158D01*
%TO.C,C3*%
X157664116Y-53270654D02*
X157664116Y-53793158D01*
X159134116Y-53270654D02*
X159134116Y-53793158D01*
%TO.C,C4*%
X127540000Y-158660000D02*
X127540000Y-156960000D01*
X127540000Y-153140000D02*
X127540000Y-154840000D01*
X131995563Y-153140000D02*
X127540000Y-153140000D01*
X131995563Y-158660000D02*
X127540000Y-158660000D01*
X133060000Y-157595563D02*
X133060000Y-156960000D01*
X133060000Y-154204437D02*
X133060000Y-154840000D01*
X133060000Y-154204437D02*
X131995563Y-153140000D01*
X133060000Y-157595563D02*
X131995563Y-158660000D01*
X133925000Y-154215000D02*
X133300000Y-154215000D01*
X133612500Y-153902500D02*
X133612500Y-154527500D01*
%TO.C,C5*%
X152334116Y-53793158D02*
X152334116Y-53270654D01*
X150864116Y-53793158D02*
X150864116Y-53270654D01*
%TO.C,C6*%
X180560000Y-153140000D02*
X180560000Y-154840000D01*
X180560000Y-158660000D02*
X180560000Y-156960000D01*
X176104437Y-158660000D02*
X180560000Y-158660000D01*
X176104437Y-153140000D02*
X180560000Y-153140000D01*
X175040000Y-154204437D02*
X175040000Y-154840000D01*
X175040000Y-157595563D02*
X175040000Y-156960000D01*
X175040000Y-157595563D02*
X176104437Y-158660000D01*
X175040000Y-154204437D02*
X176104437Y-153140000D01*
X174175000Y-157585000D02*
X174800000Y-157585000D01*
X174487500Y-157897500D02*
X174487500Y-157272500D01*
%TO.C,D1*%
X141259116Y-133331906D02*
X141259116Y-136016906D01*
X141259116Y-136016906D02*
X139339116Y-136016906D01*
X139339116Y-136016906D02*
X139339116Y-133331906D01*
%TO.C,R2*%
X144370116Y-143500970D02*
X144370116Y-143046842D01*
X142900116Y-143500970D02*
X142900116Y-143046842D01*
%TO.C,R3*%
X142900116Y-137966842D02*
X142900116Y-138420970D01*
X144370116Y-137966842D02*
X144370116Y-138420970D01*
%TO.C,R4*%
X132284116Y-59058970D02*
X132284116Y-58604842D01*
X130814116Y-59058970D02*
X130814116Y-58604842D01*
%TO.C,R5*%
X174224116Y-58544842D02*
X174224116Y-58998970D01*
X175694116Y-58544842D02*
X175694116Y-58998970D01*
%TO.C,R6*%
X164885000Y-62803064D02*
X164885000Y-62348936D01*
X163415000Y-62803064D02*
X163415000Y-62348936D01*
D14*
%TO.C,U2*%
X153740000Y-48010000D02*
G75*
G03*
X153740000Y-48010000I-70000J0D01*
G01*
D10*
X155820000Y-48360000D02*
X155820000Y-49010000D01*
X155620000Y-48360000D02*
X155820000Y-48360000D01*
X155820000Y-51460000D02*
X155620000Y-51460000D01*
X155820000Y-50760000D02*
X155820000Y-51460000D01*
X153220000Y-51460000D02*
X153420000Y-51460000D01*
X153220000Y-50810000D02*
X153220000Y-51460000D01*
X153220000Y-48360000D02*
X153220000Y-49010000D01*
X153420000Y-48360000D02*
X153220000Y-48360000D01*
%TO.C,R1*%
D12*
X152451496Y-45665239D02*
X151975306Y-45331906D01*
X152451496Y-45093810D02*
X151451496Y-45093810D01*
X151451496Y-45474763D01*
X151499116Y-45570001D01*
X151546735Y-45617620D01*
X151641973Y-45665239D01*
X151784830Y-45665239D01*
X151880068Y-45617620D01*
X151927687Y-45570001D01*
X151975306Y-45474763D01*
X151975306Y-45093810D01*
X152451496Y-46617620D02*
X152451496Y-46046191D01*
X152451496Y-46331906D02*
X151451496Y-46331906D01*
X151594354Y-46236667D01*
X151689592Y-46141429D01*
X151737211Y-46046191D01*
%TO.C,LED2*%
X168818163Y-46584286D02*
X169294354Y-46584286D01*
X169294354Y-45584286D01*
X168484830Y-46060477D02*
X168151496Y-46060477D01*
X168008639Y-46584286D02*
X168484830Y-46584286D01*
X168484830Y-45584286D01*
X168008639Y-45584286D01*
X167580068Y-46584286D02*
X167580068Y-45584286D01*
X167341973Y-45584286D01*
X167199116Y-45631906D01*
X167103877Y-45727144D01*
X167056258Y-45822382D01*
X167008639Y-46012858D01*
X167008639Y-46155715D01*
X167056258Y-46346191D01*
X167103877Y-46441429D01*
X167199116Y-46536667D01*
X167341973Y-46584286D01*
X167580068Y-46584286D01*
X166627687Y-45679525D02*
X166580068Y-45631906D01*
X166484830Y-45584286D01*
X166246735Y-45584286D01*
X166151496Y-45631906D01*
X166103877Y-45679525D01*
X166056258Y-45774763D01*
X166056258Y-45870001D01*
X166103877Y-46012858D01*
X166675306Y-46584286D01*
X166056258Y-46584286D01*
%TO.C,LED1*%
X145418163Y-48384286D02*
X145894354Y-48384286D01*
X145894354Y-47384286D01*
X145084830Y-47860477D02*
X144751496Y-47860477D01*
X144608639Y-48384286D02*
X145084830Y-48384286D01*
X145084830Y-47384286D01*
X144608639Y-47384286D01*
X144180068Y-48384286D02*
X144180068Y-47384286D01*
X143941973Y-47384286D01*
X143799116Y-47431906D01*
X143703877Y-47527144D01*
X143656258Y-47622382D01*
X143608639Y-47812858D01*
X143608639Y-47955715D01*
X143656258Y-48146191D01*
X143703877Y-48241429D01*
X143799116Y-48336667D01*
X143941973Y-48384286D01*
X144180068Y-48384286D01*
X142656258Y-48384286D02*
X143227687Y-48384286D01*
X142941973Y-48384286D02*
X142941973Y-47384286D01*
X143037211Y-47527144D01*
X143132449Y-47622382D01*
X143227687Y-47670001D01*
%TO.C,SW2*%
X125694354Y-75085333D02*
X125646735Y-74942476D01*
X125646735Y-74704380D01*
X125694354Y-74609142D01*
X125741973Y-74561523D01*
X125837211Y-74513904D01*
X125932449Y-74513904D01*
X126027687Y-74561523D01*
X126075306Y-74609142D01*
X126122925Y-74704380D01*
X126170544Y-74894857D01*
X126218163Y-74990095D01*
X126265782Y-75037714D01*
X126361020Y-75085333D01*
X126456258Y-75085333D01*
X126551496Y-75037714D01*
X126599116Y-74990095D01*
X126646735Y-74894857D01*
X126646735Y-74656761D01*
X126599116Y-74513904D01*
X126646735Y-74180571D02*
X125646735Y-73942476D01*
X126361020Y-73752000D01*
X125646735Y-73561523D01*
X126646735Y-73323428D01*
X126551496Y-72990095D02*
X126599116Y-72942476D01*
X126646735Y-72847238D01*
X126646735Y-72609142D01*
X126599116Y-72513904D01*
X126551496Y-72466285D01*
X126456258Y-72418666D01*
X126361020Y-72418666D01*
X126218163Y-72466285D01*
X125646735Y-73037714D01*
X125646735Y-72418666D01*
D15*
X123029809Y-81352000D02*
X123529809Y-81352000D01*
X123529809Y-81161523D01*
X123506000Y-81113904D01*
X123482190Y-81090095D01*
X123434571Y-81066285D01*
X123363142Y-81066285D01*
X123315523Y-81090095D01*
X123291714Y-81113904D01*
X123267904Y-81161523D01*
X123267904Y-81352000D01*
X123529809Y-80756761D02*
X123529809Y-80661523D01*
X123506000Y-80613904D01*
X123458380Y-80566285D01*
X123363142Y-80542476D01*
X123196476Y-80542476D01*
X123101238Y-80566285D01*
X123053619Y-80613904D01*
X123029809Y-80661523D01*
X123029809Y-80756761D01*
X123053619Y-80804380D01*
X123101238Y-80852000D01*
X123196476Y-80875809D01*
X123363142Y-80875809D01*
X123458380Y-80852000D01*
X123506000Y-80804380D01*
X123529809Y-80756761D01*
X123029809Y-80090095D02*
X123029809Y-80328190D01*
X123529809Y-80328190D01*
X123291714Y-79923428D02*
X123291714Y-79756761D01*
X123029809Y-79685333D02*
X123029809Y-79923428D01*
X123529809Y-79923428D01*
X123529809Y-79685333D01*
X123029809Y-78828190D02*
X123029809Y-79113904D01*
X123029809Y-78971047D02*
X123529809Y-78971047D01*
X123458380Y-79018666D01*
X123410761Y-79066285D01*
X123386952Y-79113904D01*
X123029809Y-68652000D02*
X123529809Y-68652000D01*
X123529809Y-68461523D01*
X123506000Y-68413904D01*
X123482190Y-68390095D01*
X123434571Y-68366285D01*
X123363142Y-68366285D01*
X123315523Y-68390095D01*
X123291714Y-68413904D01*
X123267904Y-68461523D01*
X123267904Y-68652000D01*
X123529809Y-68056761D02*
X123529809Y-67961523D01*
X123506000Y-67913904D01*
X123458380Y-67866285D01*
X123363142Y-67842476D01*
X123196476Y-67842476D01*
X123101238Y-67866285D01*
X123053619Y-67913904D01*
X123029809Y-67961523D01*
X123029809Y-68056761D01*
X123053619Y-68104380D01*
X123101238Y-68152000D01*
X123196476Y-68175809D01*
X123363142Y-68175809D01*
X123458380Y-68152000D01*
X123506000Y-68104380D01*
X123529809Y-68056761D01*
X123029809Y-67390095D02*
X123029809Y-67628190D01*
X123529809Y-67628190D01*
X123291714Y-67223428D02*
X123291714Y-67056761D01*
X123029809Y-66985333D02*
X123029809Y-67223428D01*
X123529809Y-67223428D01*
X123529809Y-66985333D01*
X123482190Y-66413904D02*
X123506000Y-66390095D01*
X123529809Y-66342476D01*
X123529809Y-66223428D01*
X123506000Y-66175809D01*
X123482190Y-66152000D01*
X123434571Y-66128190D01*
X123386952Y-66128190D01*
X123315523Y-66152000D01*
X123029809Y-66437714D01*
X123029809Y-66128190D01*
%TO.C,SW1*%
D12*
X183103877Y-72598572D02*
X183151496Y-72741429D01*
X183151496Y-72979525D01*
X183103877Y-73074763D01*
X183056258Y-73122382D01*
X182961020Y-73170001D01*
X182865782Y-73170001D01*
X182770544Y-73122382D01*
X182722925Y-73074763D01*
X182675306Y-72979525D01*
X182627687Y-72789048D01*
X182580068Y-72693810D01*
X182532449Y-72646191D01*
X182437211Y-72598572D01*
X182341973Y-72598572D01*
X182246735Y-72646191D01*
X182199116Y-72693810D01*
X182151496Y-72789048D01*
X182151496Y-73027144D01*
X182199116Y-73170001D01*
X182151496Y-73503334D02*
X183151496Y-73741429D01*
X182437211Y-73931906D01*
X183151496Y-74122382D01*
X182151496Y-74360477D01*
X183151496Y-75265239D02*
X183151496Y-74693810D01*
X183151496Y-74979525D02*
X182151496Y-74979525D01*
X182294354Y-74884286D01*
X182389592Y-74789048D01*
X182437211Y-74693810D01*
D15*
X185106190Y-66300000D02*
X184606190Y-66300000D01*
X184606190Y-66490476D01*
X184630000Y-66538095D01*
X184653809Y-66561904D01*
X184701428Y-66585714D01*
X184772857Y-66585714D01*
X184820476Y-66561904D01*
X184844285Y-66538095D01*
X184868095Y-66490476D01*
X184868095Y-66300000D01*
X184606190Y-66895238D02*
X184606190Y-66990476D01*
X184630000Y-67038095D01*
X184677619Y-67085714D01*
X184772857Y-67109523D01*
X184939523Y-67109523D01*
X185034761Y-67085714D01*
X185082380Y-67038095D01*
X185106190Y-66990476D01*
X185106190Y-66895238D01*
X185082380Y-66847619D01*
X185034761Y-66800000D01*
X184939523Y-66776190D01*
X184772857Y-66776190D01*
X184677619Y-66800000D01*
X184630000Y-66847619D01*
X184606190Y-66895238D01*
X185106190Y-67561904D02*
X185106190Y-67323809D01*
X184606190Y-67323809D01*
X184844285Y-67728571D02*
X184844285Y-67895238D01*
X185106190Y-67966666D02*
X185106190Y-67728571D01*
X184606190Y-67728571D01*
X184606190Y-67966666D01*
X185106190Y-68823809D02*
X185106190Y-68538095D01*
X185106190Y-68680952D02*
X184606190Y-68680952D01*
X184677619Y-68633333D01*
X184725238Y-68585714D01*
X184749047Y-68538095D01*
X185106190Y-79000000D02*
X184606190Y-79000000D01*
X184606190Y-79190476D01*
X184630000Y-79238095D01*
X184653809Y-79261904D01*
X184701428Y-79285714D01*
X184772857Y-79285714D01*
X184820476Y-79261904D01*
X184844285Y-79238095D01*
X184868095Y-79190476D01*
X184868095Y-79000000D01*
X184606190Y-79595238D02*
X184606190Y-79690476D01*
X184630000Y-79738095D01*
X184677619Y-79785714D01*
X184772857Y-79809523D01*
X184939523Y-79809523D01*
X185034761Y-79785714D01*
X185082380Y-79738095D01*
X185106190Y-79690476D01*
X185106190Y-79595238D01*
X185082380Y-79547619D01*
X185034761Y-79500000D01*
X184939523Y-79476190D01*
X184772857Y-79476190D01*
X184677619Y-79500000D01*
X184630000Y-79547619D01*
X184606190Y-79595238D01*
X185106190Y-80261904D02*
X185106190Y-80023809D01*
X184606190Y-80023809D01*
X184844285Y-80428571D02*
X184844285Y-80595238D01*
X185106190Y-80666666D02*
X185106190Y-80428571D01*
X184606190Y-80428571D01*
X184606190Y-80666666D01*
X184653809Y-81238095D02*
X184630000Y-81261904D01*
X184606190Y-81309523D01*
X184606190Y-81428571D01*
X184630000Y-81476190D01*
X184653809Y-81500000D01*
X184701428Y-81523809D01*
X184749047Y-81523809D01*
X184820476Y-81500000D01*
X185106190Y-81214285D01*
X185106190Y-81523809D01*
%TO.C,J1*%
D16*
X131009012Y-55996518D02*
X131009012Y-56712013D01*
X131056712Y-56855112D01*
X131152111Y-56950512D01*
X131295210Y-56998211D01*
X131390610Y-56998211D01*
X130007319Y-56998211D02*
X130579715Y-56998211D01*
X130293517Y-56998211D02*
X130293517Y-55996518D01*
X130388917Y-56139617D01*
X130484316Y-56235017D01*
X130579715Y-56282716D01*
%TO.C,J2*%
X177758782Y-44106388D02*
X177758782Y-44821883D01*
X177806482Y-44964982D01*
X177901881Y-45060382D01*
X178044980Y-45108081D01*
X178140380Y-45108081D01*
X177329485Y-44201788D02*
X177281786Y-44154088D01*
X177186386Y-44106388D01*
X176947888Y-44106388D01*
X176852489Y-44154088D01*
X176804789Y-44201788D01*
X176757089Y-44297187D01*
X176757089Y-44392586D01*
X176804789Y-44535685D01*
X177377185Y-45108081D01*
X176757089Y-45108081D01*
%TO.C,C1*%
D12*
X158375053Y-47847678D02*
X158422672Y-47895297D01*
X158565529Y-47942916D01*
X158660767Y-47942916D01*
X158803625Y-47895297D01*
X158898863Y-47800059D01*
X158946482Y-47704821D01*
X158994101Y-47514345D01*
X158994101Y-47371488D01*
X158946482Y-47181012D01*
X158898863Y-47085774D01*
X158803625Y-46990536D01*
X158660767Y-46942916D01*
X158565529Y-46942916D01*
X158422672Y-46990536D01*
X158375053Y-47038155D01*
X157422672Y-47942916D02*
X157994101Y-47942916D01*
X157708387Y-47942916D02*
X157708387Y-46942916D01*
X157803625Y-47085774D01*
X157898863Y-47181012D01*
X157994101Y-47228631D01*
%TO.C,C2*%
X156456258Y-57165239D02*
X156503877Y-57117620D01*
X156551496Y-56974763D01*
X156551496Y-56879525D01*
X156503877Y-56736667D01*
X156408639Y-56641429D01*
X156313401Y-56593810D01*
X156122925Y-56546191D01*
X155980068Y-56546191D01*
X155789592Y-56593810D01*
X155694354Y-56641429D01*
X155599116Y-56736667D01*
X155551496Y-56879525D01*
X155551496Y-56974763D01*
X155599116Y-57117620D01*
X155646735Y-57165239D01*
X155646735Y-57546191D02*
X155599116Y-57593810D01*
X155551496Y-57689048D01*
X155551496Y-57927144D01*
X155599116Y-58022382D01*
X155646735Y-58070001D01*
X155741973Y-58117620D01*
X155837211Y-58117620D01*
X155980068Y-58070001D01*
X156551496Y-57498572D01*
X156551496Y-58117620D01*
%TO.C,C3*%
X158631258Y-57135239D02*
X158678877Y-57087620D01*
X158726496Y-56944763D01*
X158726496Y-56849525D01*
X158678877Y-56706667D01*
X158583639Y-56611429D01*
X158488401Y-56563810D01*
X158297925Y-56516191D01*
X158155068Y-56516191D01*
X157964592Y-56563810D01*
X157869354Y-56611429D01*
X157774116Y-56706667D01*
X157726496Y-56849525D01*
X157726496Y-56944763D01*
X157774116Y-57087620D01*
X157821735Y-57135239D01*
X157726496Y-57468572D02*
X157726496Y-58087620D01*
X158107449Y-57754286D01*
X158107449Y-57897144D01*
X158155068Y-57992382D01*
X158202687Y-58040001D01*
X158297925Y-58087620D01*
X158536020Y-58087620D01*
X158631258Y-58040001D01*
X158678877Y-57992382D01*
X158726496Y-57897144D01*
X158726496Y-57611429D01*
X158678877Y-57516191D01*
X158631258Y-57468572D01*
%TO.C,C4*%
X130466666Y-152557142D02*
X130514285Y-152604761D01*
X130657142Y-152652380D01*
X130752380Y-152652380D01*
X130895238Y-152604761D01*
X130990476Y-152509523D01*
X131038095Y-152414285D01*
X131085714Y-152223809D01*
X131085714Y-152080952D01*
X131038095Y-151890476D01*
X130990476Y-151795238D01*
X130895238Y-151700000D01*
X130752380Y-151652380D01*
X130657142Y-151652380D01*
X130514285Y-151700000D01*
X130466666Y-151747619D01*
X129609523Y-151985714D02*
X129609523Y-152652380D01*
X129847619Y-151604761D02*
X130085714Y-152319047D01*
X129466666Y-152319047D01*
%TO.C,C5*%
X153636258Y-53365239D02*
X153683877Y-53317620D01*
X153731496Y-53174763D01*
X153731496Y-53079525D01*
X153683877Y-52936667D01*
X153588639Y-52841429D01*
X153493401Y-52793810D01*
X153302925Y-52746191D01*
X153160068Y-52746191D01*
X152969592Y-52793810D01*
X152874354Y-52841429D01*
X152779116Y-52936667D01*
X152731496Y-53079525D01*
X152731496Y-53174763D01*
X152779116Y-53317620D01*
X152826735Y-53365239D01*
X152731496Y-54270001D02*
X152731496Y-53793810D01*
X153207687Y-53746191D01*
X153160068Y-53793810D01*
X153112449Y-53889048D01*
X153112449Y-54127144D01*
X153160068Y-54222382D01*
X153207687Y-54270001D01*
X153302925Y-54317620D01*
X153541020Y-54317620D01*
X153636258Y-54270001D01*
X153683877Y-54222382D01*
X153731496Y-54127144D01*
X153731496Y-53889048D01*
X153683877Y-53793810D01*
X153636258Y-53746191D01*
%TO.C,C6*%
X177965782Y-152489048D02*
X178013401Y-152536667D01*
X178156258Y-152584286D01*
X178251496Y-152584286D01*
X178394354Y-152536667D01*
X178489592Y-152441429D01*
X178537211Y-152346191D01*
X178584830Y-152155715D01*
X178584830Y-152012858D01*
X178537211Y-151822382D01*
X178489592Y-151727144D01*
X178394354Y-151631906D01*
X178251496Y-151584286D01*
X178156258Y-151584286D01*
X178013401Y-151631906D01*
X177965782Y-151679525D01*
X177108639Y-151584286D02*
X177299116Y-151584286D01*
X177394354Y-151631906D01*
X177441973Y-151679525D01*
X177537211Y-151822382D01*
X177584830Y-152012858D01*
X177584830Y-152393810D01*
X177537211Y-152489048D01*
X177489592Y-152536667D01*
X177394354Y-152584286D01*
X177203877Y-152584286D01*
X177108639Y-152536667D01*
X177061020Y-152489048D01*
X177013401Y-152393810D01*
X177013401Y-152155715D01*
X177061020Y-152060477D01*
X177108639Y-152012858D01*
X177203877Y-151965239D01*
X177394354Y-151965239D01*
X177489592Y-152012858D01*
X177537211Y-152060477D01*
X177584830Y-152155715D01*
%TO.C,D1*%
X142401496Y-133593810D02*
X141401496Y-133593810D01*
X141401496Y-133831906D01*
X141449116Y-133974763D01*
X141544354Y-134070001D01*
X141639592Y-134117620D01*
X141830068Y-134165239D01*
X141972925Y-134165239D01*
X142163401Y-134117620D01*
X142258639Y-134070001D01*
X142353877Y-133974763D01*
X142401496Y-133831906D01*
X142401496Y-133593810D01*
X142401496Y-135117620D02*
X142401496Y-134546191D01*
X142401496Y-134831906D02*
X141401496Y-134831906D01*
X141544354Y-134736667D01*
X141639592Y-134641429D01*
X141687211Y-134546191D01*
%TO.C,R2*%
X142451496Y-142965239D02*
X141975306Y-142631906D01*
X142451496Y-142393810D02*
X141451496Y-142393810D01*
X141451496Y-142774763D01*
X141499116Y-142870001D01*
X141546735Y-142917620D01*
X141641973Y-142965239D01*
X141784830Y-142965239D01*
X141880068Y-142917620D01*
X141927687Y-142870001D01*
X141975306Y-142774763D01*
X141975306Y-142393810D01*
X141546735Y-143346191D02*
X141499116Y-143393810D01*
X141451496Y-143489048D01*
X141451496Y-143727144D01*
X141499116Y-143822382D01*
X141546735Y-143870001D01*
X141641973Y-143917620D01*
X141737211Y-143917620D01*
X141880068Y-143870001D01*
X142451496Y-143298572D01*
X142451496Y-143917620D01*
%TO.C,R3*%
X142437496Y-138027239D02*
X141961306Y-137693906D01*
X142437496Y-137455810D02*
X141437496Y-137455810D01*
X141437496Y-137836763D01*
X141485116Y-137932001D01*
X141532735Y-137979620D01*
X141627973Y-138027239D01*
X141770830Y-138027239D01*
X141866068Y-137979620D01*
X141913687Y-137932001D01*
X141961306Y-137836763D01*
X141961306Y-137455810D01*
X141437496Y-138360572D02*
X141437496Y-138979620D01*
X141818449Y-138646286D01*
X141818449Y-138789144D01*
X141866068Y-138884382D01*
X141913687Y-138932001D01*
X142008925Y-138979620D01*
X142247020Y-138979620D01*
X142342258Y-138932001D01*
X142389877Y-138884382D01*
X142437496Y-138789144D01*
X142437496Y-138503429D01*
X142389877Y-138408191D01*
X142342258Y-138360572D01*
%TO.C,R4*%
X133651496Y-58665239D02*
X133175306Y-58331906D01*
X133651496Y-58093810D02*
X132651496Y-58093810D01*
X132651496Y-58474763D01*
X132699116Y-58570001D01*
X132746735Y-58617620D01*
X132841973Y-58665239D01*
X132984830Y-58665239D01*
X133080068Y-58617620D01*
X133127687Y-58570001D01*
X133175306Y-58474763D01*
X133175306Y-58093810D01*
X132984830Y-59522382D02*
X133651496Y-59522382D01*
X132603877Y-59284286D02*
X133318163Y-59046191D01*
X133318163Y-59665239D01*
%TO.C,R5*%
X173761496Y-58605239D02*
X173285306Y-58271906D01*
X173761496Y-58033810D02*
X172761496Y-58033810D01*
X172761496Y-58414763D01*
X172809116Y-58510001D01*
X172856735Y-58557620D01*
X172951973Y-58605239D01*
X173094830Y-58605239D01*
X173190068Y-58557620D01*
X173237687Y-58510001D01*
X173285306Y-58414763D01*
X173285306Y-58033810D01*
X172761496Y-59510001D02*
X172761496Y-59033810D01*
X173237687Y-58986191D01*
X173190068Y-59033810D01*
X173142449Y-59129048D01*
X173142449Y-59367144D01*
X173190068Y-59462382D01*
X173237687Y-59510001D01*
X173332925Y-59557620D01*
X173571020Y-59557620D01*
X173666258Y-59510001D01*
X173713877Y-59462382D01*
X173761496Y-59367144D01*
X173761496Y-59129048D01*
X173713877Y-59033810D01*
X173666258Y-58986191D01*
%TO.C,R6*%
X165347619Y-62742666D02*
X165823809Y-63076000D01*
X165347619Y-63314095D02*
X166347619Y-63314095D01*
X166347619Y-62933142D01*
X166300000Y-62837904D01*
X166252380Y-62790285D01*
X166157142Y-62742666D01*
X166014285Y-62742666D01*
X165919047Y-62790285D01*
X165871428Y-62837904D01*
X165823809Y-62933142D01*
X165823809Y-63314095D01*
X166347619Y-61885523D02*
X166347619Y-62076000D01*
X166300000Y-62171238D01*
X166252380Y-62218857D01*
X166109523Y-62314095D01*
X165919047Y-62361714D01*
X165538095Y-62361714D01*
X165442857Y-62314095D01*
X165395238Y-62266476D01*
X165347619Y-62171238D01*
X165347619Y-61980761D01*
X165395238Y-61885523D01*
X165442857Y-61837904D01*
X165538095Y-61790285D01*
X165776190Y-61790285D01*
X165871428Y-61837904D01*
X165919047Y-61885523D01*
X165966666Y-61980761D01*
X165966666Y-62171238D01*
X165919047Y-62266476D01*
X165871428Y-62314095D01*
X165776190Y-62361714D01*
%TO.C,U2*%
D16*
X151914011Y-50191568D02*
X152564103Y-50191568D01*
X152640585Y-50229809D01*
X152678826Y-50268050D01*
X152717066Y-50344531D01*
X152717066Y-50497494D01*
X152678826Y-50573975D01*
X152640585Y-50612216D01*
X152564103Y-50650457D01*
X151914011Y-50650457D01*
X151990493Y-50994623D02*
X151952252Y-51032864D01*
X151914011Y-51109345D01*
X151914011Y-51300549D01*
X151952252Y-51377030D01*
X151990493Y-51415271D01*
X152066974Y-51453512D01*
X152143456Y-51453512D01*
X152258178Y-51415271D01*
X152717066Y-50956382D01*
X152717066Y-51453512D01*
%TD*%
M02*
