M48
; DRILL file {KiCad (5.1.9-0-10_14)} date Friday, July 07, 2023 at 02:45:16 PM
; FORMAT={-:-/ absolute / inch / decimal}
; #@! TF.CreationDate,2023-07-07T14:45:16-07:00
; #@! TF.GenerationSoftware,Kicad,Pcbnew,(5.1.9-0-10_14)
FMAT,2
INCH
T1C0.0130
T2C0.0256
T3C0.0354
T4C0.0394
T5C0.0472
T6C0.0276
T7C0.0354
T8C0.0669
%
G90
G05
T1
X4.9212Y-3.1378
X4.9949Y-6.1718
X5.0Y-2.2717
X5.0492Y-6.0413
X5.0974Y-5.0886
X5.0974Y-5.1211
X5.0974Y-5.1575
X5.0974Y-5.1919
X5.0984Y-1.9094
X5.1397Y-5.5374
X5.1633Y-5.561
X5.1712Y-5.5295
X5.2539Y-2.1417
X5.2628Y-4.6683
X5.2628Y-4.7008
X5.2628Y-4.7333
X5.2628Y-4.7677
X5.2893Y-5.4518
X5.2893Y-5.4823
X5.2893Y-5.5138
X5.2913Y-5.7726
X5.2913Y-5.8041
X5.2913Y-5.8366
X5.3729Y-5.7549
X5.3799Y-5.8249
X5.3799Y-5.8563
X5.4133Y-5.8249
X5.4133Y-5.8563
X5.4448Y-5.8249
X5.4464Y-5.4469
X5.4488Y-6.2594
X5.4626Y-5.9961
X5.4626Y-6.0276
X5.4626Y-6.185
X5.4763Y-5.8249
X5.4931Y-6.0266
X5.4941Y-5.9961
X5.4956Y-2.5484
X5.498Y-5.1339
X5.5059Y-6.0669
X5.5236Y-5.0965
X5.5315Y-5.252
X5.5315Y-5.2874
X5.5551Y-5.7579
X5.5708Y-5.1713
X5.5826Y-4.1526
X5.5885Y-5.8898
X5.5891Y-2.2474
X5.6305Y-4.0998
X5.6633Y-5.3957
X5.6653Y-5.9193
X5.6653Y-5.9469
X5.6746Y-5.2376
X5.687Y-5.9016
X5.6978Y-6.0531
X5.7007Y-5.0965
X5.7007Y-5.1339
X5.7007Y-5.1713
X5.7041Y-5.5841
X5.7165Y-5.9016
X5.7185Y-6.2657
X5.7216Y-2.3787
X5.7234Y-3.9833
X5.7283Y-6.0531
X5.7342Y-1.8346
X5.7539Y-6.2657
X5.7598Y-6.0531
X5.7628Y-4.0206
X5.7637Y-2.5535
X5.7637Y-3.9449
X5.7956Y-5.6354
X5.7956Y-5.6728
X5.7972Y-6.0246
X5.7972Y-6.0571
X5.7972Y-6.0906
X5.7972Y-6.122
X5.807Y-3.9843
X5.8174Y-5.6137
X5.8212Y-4.8173
X5.8366Y-5.2618
X5.8381Y-5.593
X5.8533Y-5.2258
X5.8602Y-2.5531
X5.8658Y-2.4603
X5.8728Y-5.2633
X5.8783Y-5.3815
X5.8787Y-3.7976
X5.8799Y-3.6913
X5.8799Y-3.7245
X5.8976Y-5.6998
X5.9141Y-2.578
X5.9271Y-5.8106
X5.9448Y-2.4567
X5.9787Y-5.699
X6.0094Y-2.5951
X6.0177Y-5.2177
X6.0177Y-5.3106
X6.0181Y-5.2618
X6.059Y-5.7006
X6.0618Y-5.5031
X6.0645Y-5.2177
X6.0645Y-5.3106
X6.0649Y-5.2618
X6.0716Y-3.6559
X6.0836Y-5.5374
X6.0925Y-4.9685
X6.1043Y-4.7323
X6.1114Y-5.2173
X6.1114Y-5.3102
X6.1118Y-5.2614
X6.1174Y-2.6081
X6.1378Y-4.7323
X6.1437Y-5.6348
X6.1437Y-5.6683
X6.1437Y-5.7018
X6.1515Y-1.9764
X6.1653Y-2.6076
X6.1732Y-4.7323
X6.1782Y-5.5975
X6.184Y-2.1909
X6.187Y-2.3445
X6.2011Y-5.8106
X6.2047Y-4.5276
X6.2153Y-2.1898
X6.2153Y-2.3583
X6.2307Y-5.1268
X6.2339Y-5.3437
X6.246Y-2.3445
X6.247Y-2.19
X6.2496Y-3.6913
X6.25Y-3.7993
X6.25Y-3.7244
X6.2555Y-5.6075
X6.2665Y-5.1254
X6.2686Y-5.1917
X6.2698Y-5.1587
X6.2721Y-5.4448
X6.2736Y-5.376
X6.2775Y-2.4616
X6.2795Y-5.2244
X6.2933Y-5.811
X6.2948Y-4.815
X6.2959Y-4.545
X6.3051Y-5.6693
X6.3086Y-4.9157
X6.3086Y-4.9972
X6.3307Y-4.5354
X6.3326Y-4.1102
X6.3326Y-4.3307
X6.3356Y-5.6693
X6.3484Y-2.6201
X6.3523Y-4.5984
X6.3523Y-4.685
X6.3523Y-4.7146
X6.3657Y-5.6681
X6.3668Y-2.4603
X6.37Y-4.5374
X6.374Y-4.7362
X6.3848Y-2.4911
X6.3878Y-1.8346
X6.3956Y-4.7579
X6.3986Y-2.4616
X6.4055Y-2.565
X6.435Y-5.2106
X6.4389Y-5.3465
X6.4389Y-5.378
X6.4527Y-4.502
X6.497Y-6.0305
X6.5236Y-5.0098
X6.5236Y-5.0394
X6.5236Y-5.0689
X6.5236Y-5.1004
X6.5236Y-5.4114
X6.5236Y-5.4429
X6.5236Y-5.4724
X6.5236Y-5.5059
X6.5246Y-6.0305
X6.5303Y-5.7874
X6.558Y-6.0276
X6.561Y-5.7874
X6.561Y-5.9961
X6.562Y-5.8248
X6.5626Y-5.5433
X6.5626Y-5.5713
X6.5626Y-5.6012
X6.5626Y-5.6319
X6.5901Y-5.7874
X6.5954Y-5.8248
X6.6216Y-5.7874
X6.625Y-5.8248
X6.6574Y-4.3287
X6.6574Y-4.502
X6.7165Y-3.8248
X6.7224Y-5.376
X6.7293Y-2.4636
X6.7421Y-4.5394
X6.746Y-5.3524
X6.7519Y-2.4882
X6.7519Y-3.8543
X6.7539Y-4.6004
X6.7637Y-2.1417
X6.7696Y-5.3287
X6.7726Y-2.5108
X6.7775Y-4.1122
X6.7795Y-4.3287
X6.7795Y-4.5354
X6.7903Y-5.3081
X6.7946Y-4.7333
X6.7962Y-2.373
X6.811Y-4.9626
X6.811Y-4.9921
X6.811Y-5.0197
X6.811Y-5.0512
X6.8137Y-4.5492
X6.846Y-3.848
X6.8472Y-5.1287
X6.8523Y-4.5394
X6.8612Y-2.3337
X6.8838Y-2.3563
X6.8957Y-5.1451
X6.9015Y-3.8484
X6.9065Y-2.3799
X6.9173Y-4.3327
X6.9298Y-5.1819
X6.931Y-5.133
X6.9543Y-2.1387
X6.9646Y-5.1575
X7.061Y-4.8169
X7.0791Y-6.0362
X7.1122Y-2.561
X7.1347Y-4.5303
X7.187Y-4.5748
X7.2795Y-3.4894
T2
X6.9665Y-4.8157
X6.9665Y-4.8657
X6.9665Y-4.9157
X6.9665Y-4.9657
X6.9665Y-5.0157
X7.0165Y-4.8157
X7.0165Y-4.8657
X7.0165Y-4.9157
X7.0165Y-4.9657
X7.0165Y-5.0157
T3
X4.8452Y-3.3961
X4.8452Y-3.5724
X5.9767Y-1.8016
X6.1531Y-1.8016
X7.2807Y-3.4007
X7.2807Y-3.5771
T4
X5.2608Y-4.8902
X5.2608Y-4.9902
X6.433Y-6.1752
X6.433Y-6.2752
X6.8051Y-6.1756
X6.8051Y-6.2756
T5
X4.9433Y-3.3461
X4.9433Y-3.6224
X5.9267Y-1.8996
X6.2031Y-1.8996
X7.1826Y-3.3507
X7.1826Y-3.6271
T6
X5.9507Y-6.0941
X6.1783Y-6.0941
T7
X5.4954Y-6.2185
X5.6628Y-6.2185
T8
X5.122Y-1.9724
X5.3976Y-1.9724
X6.7323Y-1.9823
X7.0079Y-1.9823
T2
G00X5.8944Y-6.0949
M15
G01X5.8944Y-6.0516
M16
G05
G00X5.8944Y-6.2496
M15
G01X5.8944Y-6.226
M16
G05
G00X6.2346Y-6.0949
M15
G01X6.2346Y-6.0516
M16
G05
G00X6.2346Y-6.2496
M15
G01X6.2346Y-6.226
M16
G05
T0
M30
