%TF.GenerationSoftware,KiCad,Pcbnew,(5.1.9-0-10_14)*%
%TF.CreationDate,2022-03-13T20:30:51-07:00*%
%TF.ProjectId,integrator,696e7465-6772-4617-946f-722e6b696361,rev?*%
%TF.SameCoordinates,Original*%
%TF.FileFunction,Copper,L1,Top*%
%TF.FilePolarity,Positive*%
%FSLAX46Y46*%
G04 Gerber Fmt 4.6, Leading zero omitted, Abs format (unit mm)*
G04 Created by KiCad (PCBNEW (5.1.9-0-10_14)) date 2022-03-13 20:30:51*
%MOMM*%
%LPD*%
G01*
G04 APERTURE LIST*
%TA.AperFunction,ComponentPad*%
%ADD10O,1.700000X1.700000*%
%TD*%
%TA.AperFunction,ComponentPad*%
%ADD11R,1.700000X1.700000*%
%TD*%
%TA.AperFunction,ComponentPad*%
%ADD12R,1.600000X1.600000*%
%TD*%
%TA.AperFunction,ComponentPad*%
%ADD13C,1.600000*%
%TD*%
%TA.AperFunction,ComponentPad*%
%ADD14C,1.700000*%
%TD*%
%TA.AperFunction,ComponentPad*%
%ADD15C,2.000000*%
%TD*%
%TA.AperFunction,ViaPad*%
%ADD16C,0.685800*%
%TD*%
%TA.AperFunction,ViaPad*%
%ADD17C,1.000000*%
%TD*%
%TA.AperFunction,Conductor*%
%ADD18C,0.254000*%
%TD*%
%TA.AperFunction,Conductor*%
%ADD19C,0.500000*%
%TD*%
%TA.AperFunction,Conductor*%
%ADD20C,0.100000*%
%TD*%
G04 APERTURE END LIST*
D10*
%TO.P,REF\u002A\u002A,4*%
%TO.N,N/C*%
X133539116Y-143971906D03*
%TO.P,REF\u002A\u002A,3*%
%TO.N,/+3.3v*%
X136079116Y-143971906D03*
%TO.P,REF\u002A\u002A,2*%
%TO.N,/po_batt*%
X133539116Y-141431906D03*
D11*
%TO.P,REF\u002A\u002A,1*%
%TO.N,Earth*%
X136079116Y-141431906D03*
%TD*%
D12*
%TO.P,U1,1*%
%TO.N,Earth*%
X161670000Y-159710000D03*
D13*
%TO.P,U1,2*%
%TO.N,/nonstop_sw*%
X161670000Y-157170000D03*
%TO.P,U1,3*%
%TO.N,/nonstop_led*%
X161670000Y-154630000D03*
%TO.P,U1,4*%
%TO.N,/imu_int1*%
X161670000Y-152090000D03*
%TO.P,U1,5*%
%TO.N,Net-(U1-Pad5)*%
X161670000Y-149550000D03*
%TO.P,U1,6*%
%TO.N,/swo*%
X161670000Y-147010000D03*
%TO.P,U1,7*%
%TO.N,/swdio*%
X161670000Y-144470000D03*
%TO.P,U1,8*%
%TO.N,/swclk*%
X161670000Y-141930000D03*
%TO.P,U1,9*%
%TO.N,/po_reset*%
X161670000Y-139390000D03*
%TO.P,U1,10*%
%TO.N,/led2*%
X161670000Y-136850000D03*
%TO.P,U1,11*%
%TO.N,Net-(U1-Pad11)*%
X161670000Y-134310000D03*
%TO.P,U1,12*%
%TO.N,/spi_cs*%
X161670000Y-131770000D03*
%TO.P,U1,13*%
%TO.N,/spi_mosi*%
X161670000Y-129230000D03*
%TO.P,U1,33*%
%TO.N,Net-(U1-Pad33)*%
X146430000Y-159710000D03*
%TO.P,U1,32*%
%TO.N,/a_gnd*%
X146430000Y-157170000D03*
%TO.P,U1,31*%
%TO.N,/+3.3v*%
X146430000Y-154630000D03*
%TO.P,U1,30*%
%TO.N,/r_sync_out*%
X146430000Y-152090000D03*
%TO.P,U1,29*%
%TO.N,/sw2*%
X146430000Y-149550000D03*
%TO.P,U1,28*%
%TO.N,/sw1*%
X146430000Y-147010000D03*
%TO.P,U1,27*%
%TO.N,/l_sync_out*%
X146430000Y-144470000D03*
%TO.P,U1,26*%
%TO.N,Net-(U1-Pad26)*%
X146430000Y-141930000D03*
%TO.P,U1,25*%
%TO.N,Net-(U1-Pad25)*%
X146430000Y-139390000D03*
%TO.P,U1,24*%
%TO.N,Net-(U1-Pad24)*%
X146430000Y-136850000D03*
%TO.P,U1,23*%
%TO.N,/po_play*%
X146430000Y-134310000D03*
%TO.P,U1,22*%
%TO.N,/led1*%
X146430000Y-131770000D03*
%TO.P,U1,21*%
%TO.N,/po_wake*%
X146430000Y-129230000D03*
%TO.P,U1,14*%
%TO.N,/spi_miso*%
X161670000Y-126690000D03*
%TO.P,U1,15*%
%TO.N,Net-(U1-Pad15)*%
X159130000Y-126690000D03*
%TO.P,U1,16*%
%TO.N,Net-(U1-Pad16)*%
X156590000Y-126690000D03*
%TO.P,U1,20*%
%TO.N,/spi_clock*%
X146430000Y-126690000D03*
%TO.P,U1,19*%
%TO.N,/dac*%
X148970000Y-126690000D03*
%TO.P,U1,18*%
%TO.N,Net-(U1-Pad18)*%
X151510000Y-126690000D03*
%TO.P,U1,17*%
%TO.N,Net-(U1-Pad17)*%
X154050000Y-126690000D03*
%TD*%
D14*
%TO.P,SW2,2*%
%TO.N,Earth*%
X123219116Y-86291906D03*
%TO.P,SW2,1*%
%TO.N,/sw2*%
X123219116Y-90771906D03*
D15*
%TO.P,SW2,4*%
%TO.N,Earth*%
X125709116Y-85021906D03*
%TO.P,SW2,3*%
X125709116Y-92041906D03*
%TD*%
%TO.P,SW1,3*%
%TO.N,Earth*%
X182389116Y-85021906D03*
%TO.P,SW1,4*%
X182389116Y-92041906D03*
D14*
%TO.P,SW1,1*%
X184879116Y-86291906D03*
%TO.P,SW1,2*%
%TO.N,/sw1*%
X184879116Y-90771906D03*
%TD*%
D16*
%TO.N,Earth*%
X156599116Y-66231906D03*
X125699116Y-155831906D03*
X184899116Y-88631906D03*
X181376906Y-155931906D03*
X144359116Y-48381906D03*
X150539116Y-52491906D03*
X149319116Y-96531906D03*
X145329116Y-59497216D03*
X157869116Y-59497216D03*
D17*
X170459116Y-127531906D03*
D16*
X160869116Y-96171906D03*
X166649116Y-46911906D03*
D17*
X170479116Y-121021906D03*
D16*
%TO.N,/+3.3v*%
X134999116Y-155831906D03*
X149349116Y-94601906D03*
X140639116Y-148831906D03*
X160889116Y-94461906D03*
%TO.N,/po_batt*%
X161716806Y-62491906D03*
X139779116Y-139631906D03*
%TO.N,/swo*%
X134359116Y-95201906D03*
X134509116Y-97717074D03*
X155383105Y-66245895D03*
%TO.N,/swdio*%
X131939116Y-97381906D03*
X131799147Y-94605459D03*
X154139116Y-66251906D03*
%TO.N,/po_wake*%
X175799116Y-96931906D03*
X146509116Y-121331906D03*
%TO.N,/swclk*%
X132925923Y-94648652D03*
X132969116Y-98061906D03*
X152639116Y-66221906D03*
%TO.N,/po_reset*%
X130419116Y-95431906D03*
X130669116Y-97131906D03*
X150219116Y-65481906D03*
X162489116Y-65491906D03*
%TO.N,/l_sync_out*%
X140476812Y-55806596D03*
%TO.N,/a_gnd*%
X129539116Y-49091906D03*
X176639116Y-54321906D03*
X153739116Y-123451906D03*
%TO.N,/r_sync_out*%
X171249116Y-54391906D03*
X179744426Y-95244053D03*
X180396737Y-93782635D03*
%TO.N,/led2*%
X163770731Y-121308010D03*
X177239116Y-96661906D03*
%TO.N,/dac*%
X168947102Y-58183920D03*
X137789116Y-54601906D03*
X155569116Y-123441906D03*
%TO.N,/spi_cs*%
X155289129Y-102043604D03*
X155279116Y-97061904D03*
%TO.N,/spi_miso*%
X152439116Y-97091906D03*
X152409116Y-102041908D03*
%TO.N,/spi_clock*%
X154659116Y-103961906D03*
X154339116Y-97091906D03*
%TO.N,/sw1*%
X141439116Y-98121906D03*
X141449116Y-137881906D03*
%TO.N,/nonstop_led*%
X135445890Y-96066352D03*
X135559624Y-97336841D03*
%TO.N,/imu_int1*%
X149339116Y-95551906D03*
X149279116Y-99568568D03*
%TO.N,/spi_mosi*%
X153411263Y-97091081D03*
X153909517Y-103188200D03*
%TO.N,/po_play*%
X130389116Y-93351906D03*
X129380448Y-97933238D03*
%TD*%
D18*
%TO.N,/swo*%
X134359116Y-97567074D02*
X134509116Y-97717074D01*
X134359116Y-95201906D02*
X134359116Y-97567074D01*
%TO.N,/swdio*%
X131939116Y-94745428D02*
X131799147Y-94605459D01*
X131939116Y-97381906D02*
X131939116Y-94745428D01*
%TO.N,/po_wake*%
X175799116Y-108271906D02*
X175799116Y-96931906D01*
X162738103Y-121332919D02*
X175799116Y-108271906D01*
X151220129Y-121332919D02*
X162738103Y-121332919D01*
X151219116Y-121331906D02*
X151220129Y-121332919D01*
X146509116Y-121331906D02*
X151219116Y-121331906D01*
%TO.N,/swclk*%
X132925923Y-98018713D02*
X132969116Y-98061906D01*
X132925923Y-94648652D02*
X132925923Y-98018713D01*
%TO.N,/po_reset*%
X130419116Y-95431906D02*
X130419116Y-96881906D01*
X130419116Y-96881906D02*
X130669116Y-97131906D01*
D19*
%TO.N,/l_sync_out*%
X175733806Y-55806596D02*
X140476812Y-55806596D01*
X179686805Y-59759595D02*
X175733806Y-55806596D01*
X179686805Y-93181319D02*
X179686805Y-59759595D01*
X179651527Y-93216597D02*
X179686805Y-93181319D01*
X180489628Y-119096549D02*
X180489628Y-94886355D01*
X180102124Y-94498851D02*
X180011660Y-94498851D01*
X180489628Y-94886355D02*
X180102124Y-94498851D01*
X146156658Y-124859518D02*
X174726659Y-124859518D01*
X174726659Y-124859518D02*
X180489628Y-119096549D01*
X146339116Y-144461906D02*
X145089116Y-143211906D01*
X145089116Y-143211906D02*
X145089116Y-125927060D01*
X179651527Y-94138718D02*
X179651527Y-93216597D01*
X180011660Y-94498851D02*
X179651527Y-94138718D01*
X145089116Y-125927060D02*
X146156658Y-124859518D01*
%TO.N,/r_sync_out*%
X144269116Y-125824554D02*
X145886463Y-124207207D01*
X174456463Y-124207207D02*
X179744426Y-118919244D01*
X179744426Y-118919244D02*
X179744426Y-95244053D01*
X145886463Y-124207207D02*
X174456463Y-124207207D01*
X146379116Y-152121906D02*
X144269116Y-150011906D01*
X144269116Y-150011906D02*
X144269116Y-125824554D01*
X180396737Y-59209527D02*
X180396737Y-93782635D01*
X175579116Y-54391906D02*
X180396737Y-59209527D01*
X171249116Y-54391906D02*
X175579116Y-54391906D01*
D18*
%TO.N,/led2*%
X177239116Y-107839625D02*
X177239116Y-96661906D01*
X163770731Y-121308010D02*
X177239116Y-107839625D01*
D19*
%TO.N,/dac*%
X139739116Y-56551906D02*
X137789116Y-54601906D01*
X168947102Y-58183920D02*
X167315088Y-56551906D01*
X167315088Y-56551906D02*
X139739116Y-56551906D01*
X174299116Y-123441906D02*
X155569116Y-123441906D01*
X178999116Y-118741906D02*
X174299116Y-123441906D01*
X178999116Y-97964952D02*
X178999116Y-118741906D01*
X178999116Y-60031906D02*
X178999116Y-97218860D01*
X179014417Y-97234161D02*
X179014417Y-97949651D01*
X178999116Y-97218860D02*
X179014417Y-97234161D01*
X177151130Y-58183920D02*
X178999116Y-60031906D01*
X179014417Y-97949651D02*
X178999116Y-97964952D01*
X168947102Y-58183920D02*
X177151130Y-58183920D01*
D18*
%TO.N,/spi_cs*%
X155289129Y-102043604D02*
X155289129Y-97071917D01*
X155289129Y-97071917D02*
X155279116Y-97061904D01*
%TO.N,/spi_miso*%
X152409116Y-102041908D02*
X152409116Y-97264126D01*
X152409116Y-97264126D02*
X152573199Y-97100043D01*
%TO.N,/spi_clock*%
X154659116Y-103961906D02*
X154659116Y-97411906D01*
X154659116Y-97411906D02*
X154339116Y-97091906D01*
%TO.N,/sw1*%
X131109116Y-108451906D02*
X141439116Y-98121906D01*
X131109116Y-127541906D02*
X131109116Y-108451906D01*
X141449116Y-137881906D02*
X131109116Y-127541906D01*
%TO.N,/nonstop_led*%
X135445890Y-97223107D02*
X135559624Y-97336841D01*
X135445890Y-96066352D02*
X135445890Y-97223107D01*
%TO.N,/imu_int1*%
X149339116Y-95551906D02*
X148519116Y-96371906D01*
X148519116Y-98808568D02*
X149279116Y-99568568D01*
X148519116Y-96371906D02*
X148519116Y-98808568D01*
%TO.N,/spi_mosi*%
X153411263Y-102689946D02*
X153909517Y-103188200D01*
X153411263Y-97091081D02*
X153411263Y-102689946D01*
%TO.N,/po_play*%
X130389116Y-93351906D02*
X129380448Y-94360574D01*
X129380448Y-94360574D02*
X129380448Y-97933238D01*
%TD*%
%TO.N,Earth*%
X182582864Y-92027764D02*
X182568721Y-92041906D01*
X183524529Y-92997714D01*
X183788930Y-92901950D01*
X183929820Y-92612335D01*
X184011500Y-92300798D01*
X184030153Y-91990641D01*
X184175705Y-92087896D01*
X184445958Y-92199838D01*
X184645948Y-92239619D01*
X184258560Y-92543061D01*
X184208573Y-92590782D01*
X184157990Y-92637740D01*
X184150997Y-92645748D01*
X184150992Y-92645753D01*
X184150988Y-92645758D01*
X183769140Y-93089257D01*
X183729404Y-93145736D01*
X183688875Y-93201666D01*
X183683568Y-93210887D01*
X183395131Y-93720113D01*
X183367111Y-93783259D01*
X183338229Y-93845971D01*
X183334815Y-93856042D01*
X183334812Y-93856048D01*
X183334811Y-93856054D01*
X183150778Y-94411598D01*
X183135557Y-94478984D01*
X183119405Y-94546114D01*
X183118011Y-94556661D01*
X183055128Y-95059498D01*
X183048142Y-95082529D01*
X183037116Y-95194481D01*
X183037117Y-153719805D01*
X183001347Y-153765164D01*
X182957838Y-153818777D01*
X182952039Y-153827688D01*
X182952035Y-153827693D01*
X182952032Y-153827698D01*
X182817159Y-154038110D01*
X182785737Y-154099621D01*
X182753466Y-154160673D01*
X182749507Y-154170543D01*
X182749504Y-154170548D01*
X182749502Y-154170554D01*
X182658067Y-154403155D01*
X182639192Y-154469595D01*
X182619394Y-154535751D01*
X182617426Y-154546207D01*
X182572909Y-154792144D01*
X182567297Y-154860983D01*
X182560726Y-154929735D01*
X182560827Y-154940359D01*
X182560826Y-154940369D01*
X182560827Y-154940374D01*
X182564929Y-155190275D01*
X182572795Y-155258889D01*
X182579702Y-155327602D01*
X182581867Y-155338019D01*
X182634429Y-155582364D01*
X182655474Y-155648148D01*
X182675596Y-155714212D01*
X182679743Y-155724009D01*
X182778764Y-155953490D01*
X182812184Y-156013929D01*
X182844757Y-156074831D01*
X182850728Y-156083636D01*
X182992437Y-156289514D01*
X183036960Y-156342312D01*
X183037209Y-156342615D01*
X183037990Y-158994742D01*
X183010821Y-159271826D01*
X182941141Y-159502619D01*
X182827966Y-159715471D01*
X182675599Y-159902291D01*
X182489847Y-160055959D01*
X182277787Y-160170619D01*
X182047497Y-160241906D01*
X181772759Y-160270782D01*
X163106608Y-160264880D01*
X163105000Y-159995750D01*
X162946250Y-159837000D01*
X161797000Y-159837000D01*
X161797000Y-159857000D01*
X161543000Y-159857000D01*
X161543000Y-159837000D01*
X160393750Y-159837000D01*
X160235000Y-159995750D01*
X160233398Y-160263971D01*
X147755404Y-160260026D01*
X147809853Y-160128574D01*
X147865000Y-159851335D01*
X147865000Y-159568665D01*
X147809853Y-159291426D01*
X147701680Y-159030273D01*
X147544637Y-158795241D01*
X147344759Y-158595363D01*
X147112241Y-158440000D01*
X147344759Y-158284637D01*
X147544637Y-158084759D01*
X147701680Y-157849727D01*
X147809853Y-157588574D01*
X147865000Y-157311335D01*
X147865000Y-157028665D01*
X147809853Y-156751426D01*
X147701680Y-156490273D01*
X147544637Y-156255241D01*
X147344759Y-156055363D01*
X147112241Y-155900000D01*
X147344759Y-155744637D01*
X147544637Y-155544759D01*
X147701680Y-155309727D01*
X147809853Y-155048574D01*
X147865000Y-154771335D01*
X147865000Y-154488665D01*
X147809853Y-154211426D01*
X147701680Y-153950273D01*
X147544637Y-153715241D01*
X147344759Y-153515363D01*
X147112241Y-153360000D01*
X147344759Y-153204637D01*
X147544637Y-153004759D01*
X147701680Y-152769727D01*
X147809853Y-152508574D01*
X147865000Y-152231335D01*
X147865000Y-151948665D01*
X147809853Y-151671426D01*
X147701680Y-151410273D01*
X147544637Y-151175241D01*
X147344759Y-150975363D01*
X147112241Y-150820000D01*
X147344759Y-150664637D01*
X147544637Y-150464759D01*
X147701680Y-150229727D01*
X147809853Y-149968574D01*
X147865000Y-149691335D01*
X147865000Y-149408665D01*
X147809853Y-149131426D01*
X147701680Y-148870273D01*
X147544637Y-148635241D01*
X147344759Y-148435363D01*
X147112241Y-148280000D01*
X147344759Y-148124637D01*
X147544637Y-147924759D01*
X147701680Y-147689727D01*
X147809853Y-147428574D01*
X147865000Y-147151335D01*
X147865000Y-146868665D01*
X147809853Y-146591426D01*
X147701680Y-146330273D01*
X147544637Y-146095241D01*
X147344759Y-145895363D01*
X147112241Y-145740000D01*
X147344759Y-145584637D01*
X147544637Y-145384759D01*
X147701680Y-145149727D01*
X147809853Y-144888574D01*
X147865000Y-144611335D01*
X147865000Y-144328665D01*
X147809853Y-144051426D01*
X147701680Y-143790273D01*
X147544637Y-143555241D01*
X147344759Y-143355363D01*
X147112241Y-143200000D01*
X147344759Y-143044637D01*
X147544637Y-142844759D01*
X147701680Y-142609727D01*
X147809853Y-142348574D01*
X147865000Y-142071335D01*
X147865000Y-141788665D01*
X147809853Y-141511426D01*
X147701680Y-141250273D01*
X147544637Y-141015241D01*
X147344759Y-140815363D01*
X147112241Y-140660000D01*
X147344759Y-140504637D01*
X147544637Y-140304759D01*
X147701680Y-140069727D01*
X147809853Y-139808574D01*
X147865000Y-139531335D01*
X147865000Y-139248665D01*
X147809853Y-138971426D01*
X147701680Y-138710273D01*
X147544637Y-138475241D01*
X147344759Y-138275363D01*
X147112241Y-138120000D01*
X147344759Y-137964637D01*
X147544637Y-137764759D01*
X147701680Y-137529727D01*
X147703430Y-137525503D01*
X147730364Y-137578364D01*
X148250179Y-138426623D01*
X148250181Y-138426627D01*
X148320464Y-138523363D01*
X148966573Y-139279858D01*
X148966578Y-139279865D01*
X148987915Y-139301202D01*
X149051127Y-139364415D01*
X149051134Y-139364420D01*
X149807623Y-140010521D01*
X149807630Y-140010528D01*
X149904365Y-140080810D01*
X150752628Y-140600626D01*
X150859167Y-140654911D01*
X150859178Y-140654915D01*
X151778294Y-141035625D01*
X151778304Y-141035630D01*
X151892024Y-141072579D01*
X152859401Y-141304826D01*
X152977501Y-141323531D01*
X153969301Y-141401587D01*
X153989098Y-141401587D01*
X153989300Y-141401619D01*
X153999029Y-141401619D01*
X154027867Y-141403935D01*
X154047867Y-141403967D01*
X154078327Y-141401619D01*
X154108872Y-141401619D01*
X155100671Y-141323563D01*
X155100672Y-141323563D01*
X155218771Y-141304858D01*
X156186149Y-141072610D01*
X156299868Y-141035660D01*
X156299872Y-141035658D01*
X157219004Y-140654943D01*
X157325543Y-140600659D01*
X157325546Y-140600657D01*
X158173803Y-140080843D01*
X158173807Y-140080841D01*
X158270543Y-140010558D01*
X159027038Y-139364449D01*
X159027045Y-139364444D01*
X159090287Y-139301202D01*
X159111595Y-139279895D01*
X159111600Y-139279888D01*
X159757701Y-138523399D01*
X159757708Y-138523392D01*
X159827990Y-138426657D01*
X160347806Y-137578394D01*
X160386789Y-137501887D01*
X160398320Y-137529727D01*
X160555363Y-137764759D01*
X160755241Y-137964637D01*
X160987759Y-138120000D01*
X160755241Y-138275363D01*
X160555363Y-138475241D01*
X160398320Y-138710273D01*
X160290147Y-138971426D01*
X160235000Y-139248665D01*
X160235000Y-139531335D01*
X160290147Y-139808574D01*
X160398320Y-140069727D01*
X160555363Y-140304759D01*
X160755241Y-140504637D01*
X160987759Y-140660000D01*
X160755241Y-140815363D01*
X160555363Y-141015241D01*
X160398320Y-141250273D01*
X160290147Y-141511426D01*
X160235000Y-141788665D01*
X160235000Y-142071335D01*
X160290147Y-142348574D01*
X160398320Y-142609727D01*
X160555363Y-142844759D01*
X160755241Y-143044637D01*
X160987759Y-143200000D01*
X160755241Y-143355363D01*
X160555363Y-143555241D01*
X160398320Y-143790273D01*
X160290147Y-144051426D01*
X160235000Y-144328665D01*
X160235000Y-144611335D01*
X160290147Y-144888574D01*
X160398320Y-145149727D01*
X160555363Y-145384759D01*
X160755241Y-145584637D01*
X160987759Y-145740000D01*
X160755241Y-145895363D01*
X160555363Y-146095241D01*
X160398320Y-146330273D01*
X160290147Y-146591426D01*
X160235000Y-146868665D01*
X160235000Y-147151335D01*
X160290147Y-147428574D01*
X160398320Y-147689727D01*
X160555363Y-147924759D01*
X160755241Y-148124637D01*
X160987759Y-148280000D01*
X160755241Y-148435363D01*
X160555363Y-148635241D01*
X160398320Y-148870273D01*
X160290147Y-149131426D01*
X160235000Y-149408665D01*
X160235000Y-149691335D01*
X160290147Y-149968574D01*
X160398320Y-150229727D01*
X160555363Y-150464759D01*
X160755241Y-150664637D01*
X160987759Y-150820000D01*
X160755241Y-150975363D01*
X160555363Y-151175241D01*
X160398320Y-151410273D01*
X160290147Y-151671426D01*
X160235000Y-151948665D01*
X160235000Y-152231335D01*
X160290147Y-152508574D01*
X160398320Y-152769727D01*
X160555363Y-153004759D01*
X160755241Y-153204637D01*
X160987759Y-153360000D01*
X160755241Y-153515363D01*
X160555363Y-153715241D01*
X160398320Y-153950273D01*
X160290147Y-154211426D01*
X160235000Y-154488665D01*
X160235000Y-154771335D01*
X160290147Y-155048574D01*
X160398320Y-155309727D01*
X160555363Y-155544759D01*
X160755241Y-155744637D01*
X160987759Y-155900000D01*
X160755241Y-156055363D01*
X160555363Y-156255241D01*
X160398320Y-156490273D01*
X160290147Y-156751426D01*
X160235000Y-157028665D01*
X160235000Y-157311335D01*
X160290147Y-157588574D01*
X160398320Y-157849727D01*
X160555363Y-158084759D01*
X160753961Y-158283357D01*
X160745518Y-158284188D01*
X160625820Y-158320498D01*
X160515506Y-158379463D01*
X160418815Y-158458815D01*
X160339463Y-158555506D01*
X160280498Y-158665820D01*
X160244188Y-158785518D01*
X160231928Y-158910000D01*
X160235000Y-159424250D01*
X160393750Y-159583000D01*
X161543000Y-159583000D01*
X161543000Y-159563000D01*
X161797000Y-159563000D01*
X161797000Y-159583000D01*
X162946250Y-159583000D01*
X163105000Y-159424250D01*
X163108072Y-158910000D01*
X163095812Y-158785518D01*
X163059502Y-158665820D01*
X163000537Y-158555506D01*
X162921185Y-158458815D01*
X162824494Y-158379463D01*
X162714180Y-158320498D01*
X162594482Y-158284188D01*
X162586039Y-158283357D01*
X162784637Y-158084759D01*
X162941680Y-157849727D01*
X163049853Y-157588574D01*
X163105000Y-157311335D01*
X163105000Y-157028665D01*
X163049853Y-156751426D01*
X162941680Y-156490273D01*
X162784637Y-156255241D01*
X162584759Y-156055363D01*
X162352241Y-155900000D01*
X162584759Y-155744637D01*
X162784637Y-155544759D01*
X162941680Y-155309727D01*
X163049853Y-155048574D01*
X163105000Y-154771335D01*
X163105000Y-154488665D01*
X163049853Y-154211426D01*
X162941680Y-153950273D01*
X162784637Y-153715241D01*
X162584759Y-153515363D01*
X162352241Y-153360000D01*
X162584759Y-153204637D01*
X162784637Y-153004759D01*
X162941680Y-152769727D01*
X163049853Y-152508574D01*
X163105000Y-152231335D01*
X163105000Y-151948665D01*
X163049853Y-151671426D01*
X162941680Y-151410273D01*
X162784637Y-151175241D01*
X162584759Y-150975363D01*
X162352241Y-150820000D01*
X162584759Y-150664637D01*
X162784637Y-150464759D01*
X162941680Y-150229727D01*
X163049853Y-149968574D01*
X163105000Y-149691335D01*
X163105000Y-149408665D01*
X163049853Y-149131426D01*
X162941680Y-148870273D01*
X162784637Y-148635241D01*
X162584759Y-148435363D01*
X162352241Y-148280000D01*
X162584759Y-148124637D01*
X162784637Y-147924759D01*
X162941680Y-147689727D01*
X163049853Y-147428574D01*
X163105000Y-147151335D01*
X163105000Y-146868665D01*
X163049853Y-146591426D01*
X162941680Y-146330273D01*
X162784637Y-146095241D01*
X162584759Y-145895363D01*
X162352241Y-145740000D01*
X162584759Y-145584637D01*
X162784637Y-145384759D01*
X162941680Y-145149727D01*
X163049853Y-144888574D01*
X163105000Y-144611335D01*
X163105000Y-144328665D01*
X163049853Y-144051426D01*
X162941680Y-143790273D01*
X162784637Y-143555241D01*
X162584759Y-143355363D01*
X162352241Y-143200000D01*
X162584759Y-143044637D01*
X162784637Y-142844759D01*
X162941680Y-142609727D01*
X163049853Y-142348574D01*
X163105000Y-142071335D01*
X163105000Y-141788665D01*
X163049853Y-141511426D01*
X162941680Y-141250273D01*
X162784637Y-141015241D01*
X162584759Y-140815363D01*
X162352241Y-140660000D01*
X162584759Y-140504637D01*
X162784637Y-140304759D01*
X162941680Y-140069727D01*
X163049853Y-139808574D01*
X163105000Y-139531335D01*
X163105000Y-139248665D01*
X163049853Y-138971426D01*
X162941680Y-138710273D01*
X162784637Y-138475241D01*
X162584759Y-138275363D01*
X162352241Y-138120000D01*
X162584759Y-137964637D01*
X162784637Y-137764759D01*
X162941680Y-137529727D01*
X163049853Y-137268574D01*
X163105000Y-136991335D01*
X163105000Y-136708665D01*
X163049853Y-136431426D01*
X162941680Y-136170273D01*
X162784637Y-135935241D01*
X162584759Y-135735363D01*
X162352241Y-135580000D01*
X162584759Y-135424637D01*
X162784637Y-135224759D01*
X162941680Y-134989727D01*
X163049853Y-134728574D01*
X163105000Y-134451335D01*
X163105000Y-134168665D01*
X163049853Y-133891426D01*
X162941680Y-133630273D01*
X162784637Y-133395241D01*
X162584759Y-133195363D01*
X162352241Y-133040000D01*
X162584759Y-132884637D01*
X162784637Y-132684759D01*
X162941680Y-132449727D01*
X163049853Y-132188574D01*
X163105000Y-131911335D01*
X163105000Y-131628665D01*
X163049853Y-131351426D01*
X162941680Y-131090273D01*
X162784637Y-130855241D01*
X162584759Y-130655363D01*
X162352241Y-130500000D01*
X162584759Y-130344637D01*
X162784637Y-130144759D01*
X162941680Y-129909727D01*
X163049853Y-129648574D01*
X163105000Y-129371335D01*
X163105000Y-129088665D01*
X163049853Y-128811426D01*
X162941680Y-128550273D01*
X162784637Y-128315241D01*
X162584759Y-128115363D01*
X162352241Y-127960000D01*
X162584759Y-127804637D01*
X162784637Y-127604759D01*
X162941680Y-127369727D01*
X163049853Y-127108574D01*
X163105000Y-126831335D01*
X163105000Y-126548665D01*
X163049853Y-126271426D01*
X162941680Y-126010273D01*
X162784637Y-125775241D01*
X162753914Y-125744518D01*
X174683190Y-125744518D01*
X174726659Y-125748799D01*
X174770128Y-125744518D01*
X174770136Y-125744518D01*
X174900149Y-125731713D01*
X175066972Y-125681107D01*
X175220718Y-125598929D01*
X175355476Y-125488335D01*
X175383193Y-125454562D01*
X181084679Y-119753077D01*
X181118445Y-119725366D01*
X181229039Y-119590608D01*
X181311217Y-119436862D01*
X181361823Y-119270039D01*
X181362856Y-119259556D01*
X181365179Y-119235965D01*
X181374628Y-119140026D01*
X181374628Y-119140018D01*
X181378909Y-119096549D01*
X181374628Y-119053080D01*
X181374628Y-94929820D01*
X181378909Y-94886354D01*
X181374628Y-94842888D01*
X181374628Y-94842878D01*
X181361823Y-94712865D01*
X181311217Y-94546042D01*
X181229039Y-94392296D01*
X181194007Y-94349610D01*
X181263341Y-94245845D01*
X181337057Y-94067878D01*
X181374637Y-93878950D01*
X181374637Y-93686320D01*
X181337057Y-93497392D01*
X181281737Y-93363837D01*
X181281737Y-93257085D01*
X181317641Y-93292989D01*
X181433309Y-93177321D01*
X181529072Y-93441720D01*
X181818687Y-93582610D01*
X182130224Y-93664290D01*
X182451711Y-93683624D01*
X182770791Y-93639867D01*
X183075204Y-93534701D01*
X183249160Y-93441720D01*
X183344924Y-93177319D01*
X182389116Y-92221511D01*
X182374974Y-92235654D01*
X182195369Y-92056049D01*
X182209511Y-92041906D01*
X182195369Y-92027764D01*
X182374974Y-91848159D01*
X182389116Y-91862301D01*
X182403259Y-91848159D01*
X182582864Y-92027764D01*
%TA.AperFunction,Conductor*%
D20*
G36*
X182582864Y-92027764D02*
G01*
X182568721Y-92041906D01*
X183524529Y-92997714D01*
X183788930Y-92901950D01*
X183929820Y-92612335D01*
X184011500Y-92300798D01*
X184030153Y-91990641D01*
X184175705Y-92087896D01*
X184445958Y-92199838D01*
X184645948Y-92239619D01*
X184258560Y-92543061D01*
X184208573Y-92590782D01*
X184157990Y-92637740D01*
X184150997Y-92645748D01*
X184150992Y-92645753D01*
X184150988Y-92645758D01*
X183769140Y-93089257D01*
X183729404Y-93145736D01*
X183688875Y-93201666D01*
X183683568Y-93210887D01*
X183395131Y-93720113D01*
X183367111Y-93783259D01*
X183338229Y-93845971D01*
X183334815Y-93856042D01*
X183334812Y-93856048D01*
X183334811Y-93856054D01*
X183150778Y-94411598D01*
X183135557Y-94478984D01*
X183119405Y-94546114D01*
X183118011Y-94556661D01*
X183055128Y-95059498D01*
X183048142Y-95082529D01*
X183037116Y-95194481D01*
X183037117Y-153719805D01*
X183001347Y-153765164D01*
X182957838Y-153818777D01*
X182952039Y-153827688D01*
X182952035Y-153827693D01*
X182952032Y-153827698D01*
X182817159Y-154038110D01*
X182785737Y-154099621D01*
X182753466Y-154160673D01*
X182749507Y-154170543D01*
X182749504Y-154170548D01*
X182749502Y-154170554D01*
X182658067Y-154403155D01*
X182639192Y-154469595D01*
X182619394Y-154535751D01*
X182617426Y-154546207D01*
X182572909Y-154792144D01*
X182567297Y-154860983D01*
X182560726Y-154929735D01*
X182560827Y-154940359D01*
X182560826Y-154940369D01*
X182560827Y-154940374D01*
X182564929Y-155190275D01*
X182572795Y-155258889D01*
X182579702Y-155327602D01*
X182581867Y-155338019D01*
X182634429Y-155582364D01*
X182655474Y-155648148D01*
X182675596Y-155714212D01*
X182679743Y-155724009D01*
X182778764Y-155953490D01*
X182812184Y-156013929D01*
X182844757Y-156074831D01*
X182850728Y-156083636D01*
X182992437Y-156289514D01*
X183036960Y-156342312D01*
X183037209Y-156342615D01*
X183037990Y-158994742D01*
X183010821Y-159271826D01*
X182941141Y-159502619D01*
X182827966Y-159715471D01*
X182675599Y-159902291D01*
X182489847Y-160055959D01*
X182277787Y-160170619D01*
X182047497Y-160241906D01*
X181772759Y-160270782D01*
X163106608Y-160264880D01*
X163105000Y-159995750D01*
X162946250Y-159837000D01*
X161797000Y-159837000D01*
X161797000Y-159857000D01*
X161543000Y-159857000D01*
X161543000Y-159837000D01*
X160393750Y-159837000D01*
X160235000Y-159995750D01*
X160233398Y-160263971D01*
X147755404Y-160260026D01*
X147809853Y-160128574D01*
X147865000Y-159851335D01*
X147865000Y-159568665D01*
X147809853Y-159291426D01*
X147701680Y-159030273D01*
X147544637Y-158795241D01*
X147344759Y-158595363D01*
X147112241Y-158440000D01*
X147344759Y-158284637D01*
X147544637Y-158084759D01*
X147701680Y-157849727D01*
X147809853Y-157588574D01*
X147865000Y-157311335D01*
X147865000Y-157028665D01*
X147809853Y-156751426D01*
X147701680Y-156490273D01*
X147544637Y-156255241D01*
X147344759Y-156055363D01*
X147112241Y-155900000D01*
X147344759Y-155744637D01*
X147544637Y-155544759D01*
X147701680Y-155309727D01*
X147809853Y-155048574D01*
X147865000Y-154771335D01*
X147865000Y-154488665D01*
X147809853Y-154211426D01*
X147701680Y-153950273D01*
X147544637Y-153715241D01*
X147344759Y-153515363D01*
X147112241Y-153360000D01*
X147344759Y-153204637D01*
X147544637Y-153004759D01*
X147701680Y-152769727D01*
X147809853Y-152508574D01*
X147865000Y-152231335D01*
X147865000Y-151948665D01*
X147809853Y-151671426D01*
X147701680Y-151410273D01*
X147544637Y-151175241D01*
X147344759Y-150975363D01*
X147112241Y-150820000D01*
X147344759Y-150664637D01*
X147544637Y-150464759D01*
X147701680Y-150229727D01*
X147809853Y-149968574D01*
X147865000Y-149691335D01*
X147865000Y-149408665D01*
X147809853Y-149131426D01*
X147701680Y-148870273D01*
X147544637Y-148635241D01*
X147344759Y-148435363D01*
X147112241Y-148280000D01*
X147344759Y-148124637D01*
X147544637Y-147924759D01*
X147701680Y-147689727D01*
X147809853Y-147428574D01*
X147865000Y-147151335D01*
X147865000Y-146868665D01*
X147809853Y-146591426D01*
X147701680Y-146330273D01*
X147544637Y-146095241D01*
X147344759Y-145895363D01*
X147112241Y-145740000D01*
X147344759Y-145584637D01*
X147544637Y-145384759D01*
X147701680Y-145149727D01*
X147809853Y-144888574D01*
X147865000Y-144611335D01*
X147865000Y-144328665D01*
X147809853Y-144051426D01*
X147701680Y-143790273D01*
X147544637Y-143555241D01*
X147344759Y-143355363D01*
X147112241Y-143200000D01*
X147344759Y-143044637D01*
X147544637Y-142844759D01*
X147701680Y-142609727D01*
X147809853Y-142348574D01*
X147865000Y-142071335D01*
X147865000Y-141788665D01*
X147809853Y-141511426D01*
X147701680Y-141250273D01*
X147544637Y-141015241D01*
X147344759Y-140815363D01*
X147112241Y-140660000D01*
X147344759Y-140504637D01*
X147544637Y-140304759D01*
X147701680Y-140069727D01*
X147809853Y-139808574D01*
X147865000Y-139531335D01*
X147865000Y-139248665D01*
X147809853Y-138971426D01*
X147701680Y-138710273D01*
X147544637Y-138475241D01*
X147344759Y-138275363D01*
X147112241Y-138120000D01*
X147344759Y-137964637D01*
X147544637Y-137764759D01*
X147701680Y-137529727D01*
X147703430Y-137525503D01*
X147730364Y-137578364D01*
X148250179Y-138426623D01*
X148250181Y-138426627D01*
X148320464Y-138523363D01*
X148966573Y-139279858D01*
X148966578Y-139279865D01*
X148987915Y-139301202D01*
X149051127Y-139364415D01*
X149051134Y-139364420D01*
X149807623Y-140010521D01*
X149807630Y-140010528D01*
X149904365Y-140080810D01*
X150752628Y-140600626D01*
X150859167Y-140654911D01*
X150859178Y-140654915D01*
X151778294Y-141035625D01*
X151778304Y-141035630D01*
X151892024Y-141072579D01*
X152859401Y-141304826D01*
X152977501Y-141323531D01*
X153969301Y-141401587D01*
X153989098Y-141401587D01*
X153989300Y-141401619D01*
X153999029Y-141401619D01*
X154027867Y-141403935D01*
X154047867Y-141403967D01*
X154078327Y-141401619D01*
X154108872Y-141401619D01*
X155100671Y-141323563D01*
X155100672Y-141323563D01*
X155218771Y-141304858D01*
X156186149Y-141072610D01*
X156299868Y-141035660D01*
X156299872Y-141035658D01*
X157219004Y-140654943D01*
X157325543Y-140600659D01*
X157325546Y-140600657D01*
X158173803Y-140080843D01*
X158173807Y-140080841D01*
X158270543Y-140010558D01*
X159027038Y-139364449D01*
X159027045Y-139364444D01*
X159090287Y-139301202D01*
X159111595Y-139279895D01*
X159111600Y-139279888D01*
X159757701Y-138523399D01*
X159757708Y-138523392D01*
X159827990Y-138426657D01*
X160347806Y-137578394D01*
X160386789Y-137501887D01*
X160398320Y-137529727D01*
X160555363Y-137764759D01*
X160755241Y-137964637D01*
X160987759Y-138120000D01*
X160755241Y-138275363D01*
X160555363Y-138475241D01*
X160398320Y-138710273D01*
X160290147Y-138971426D01*
X160235000Y-139248665D01*
X160235000Y-139531335D01*
X160290147Y-139808574D01*
X160398320Y-140069727D01*
X160555363Y-140304759D01*
X160755241Y-140504637D01*
X160987759Y-140660000D01*
X160755241Y-140815363D01*
X160555363Y-141015241D01*
X160398320Y-141250273D01*
X160290147Y-141511426D01*
X160235000Y-141788665D01*
X160235000Y-142071335D01*
X160290147Y-142348574D01*
X160398320Y-142609727D01*
X160555363Y-142844759D01*
X160755241Y-143044637D01*
X160987759Y-143200000D01*
X160755241Y-143355363D01*
X160555363Y-143555241D01*
X160398320Y-143790273D01*
X160290147Y-144051426D01*
X160235000Y-144328665D01*
X160235000Y-144611335D01*
X160290147Y-144888574D01*
X160398320Y-145149727D01*
X160555363Y-145384759D01*
X160755241Y-145584637D01*
X160987759Y-145740000D01*
X160755241Y-145895363D01*
X160555363Y-146095241D01*
X160398320Y-146330273D01*
X160290147Y-146591426D01*
X160235000Y-146868665D01*
X160235000Y-147151335D01*
X160290147Y-147428574D01*
X160398320Y-147689727D01*
X160555363Y-147924759D01*
X160755241Y-148124637D01*
X160987759Y-148280000D01*
X160755241Y-148435363D01*
X160555363Y-148635241D01*
X160398320Y-148870273D01*
X160290147Y-149131426D01*
X160235000Y-149408665D01*
X160235000Y-149691335D01*
X160290147Y-149968574D01*
X160398320Y-150229727D01*
X160555363Y-150464759D01*
X160755241Y-150664637D01*
X160987759Y-150820000D01*
X160755241Y-150975363D01*
X160555363Y-151175241D01*
X160398320Y-151410273D01*
X160290147Y-151671426D01*
X160235000Y-151948665D01*
X160235000Y-152231335D01*
X160290147Y-152508574D01*
X160398320Y-152769727D01*
X160555363Y-153004759D01*
X160755241Y-153204637D01*
X160987759Y-153360000D01*
X160755241Y-153515363D01*
X160555363Y-153715241D01*
X160398320Y-153950273D01*
X160290147Y-154211426D01*
X160235000Y-154488665D01*
X160235000Y-154771335D01*
X160290147Y-155048574D01*
X160398320Y-155309727D01*
X160555363Y-155544759D01*
X160755241Y-155744637D01*
X160987759Y-155900000D01*
X160755241Y-156055363D01*
X160555363Y-156255241D01*
X160398320Y-156490273D01*
X160290147Y-156751426D01*
X160235000Y-157028665D01*
X160235000Y-157311335D01*
X160290147Y-157588574D01*
X160398320Y-157849727D01*
X160555363Y-158084759D01*
X160753961Y-158283357D01*
X160745518Y-158284188D01*
X160625820Y-158320498D01*
X160515506Y-158379463D01*
X160418815Y-158458815D01*
X160339463Y-158555506D01*
X160280498Y-158665820D01*
X160244188Y-158785518D01*
X160231928Y-158910000D01*
X160235000Y-159424250D01*
X160393750Y-159583000D01*
X161543000Y-159583000D01*
X161543000Y-159563000D01*
X161797000Y-159563000D01*
X161797000Y-159583000D01*
X162946250Y-159583000D01*
X163105000Y-159424250D01*
X163108072Y-158910000D01*
X163095812Y-158785518D01*
X163059502Y-158665820D01*
X163000537Y-158555506D01*
X162921185Y-158458815D01*
X162824494Y-158379463D01*
X162714180Y-158320498D01*
X162594482Y-158284188D01*
X162586039Y-158283357D01*
X162784637Y-158084759D01*
X162941680Y-157849727D01*
X163049853Y-157588574D01*
X163105000Y-157311335D01*
X163105000Y-157028665D01*
X163049853Y-156751426D01*
X162941680Y-156490273D01*
X162784637Y-156255241D01*
X162584759Y-156055363D01*
X162352241Y-155900000D01*
X162584759Y-155744637D01*
X162784637Y-155544759D01*
X162941680Y-155309727D01*
X163049853Y-155048574D01*
X163105000Y-154771335D01*
X163105000Y-154488665D01*
X163049853Y-154211426D01*
X162941680Y-153950273D01*
X162784637Y-153715241D01*
X162584759Y-153515363D01*
X162352241Y-153360000D01*
X162584759Y-153204637D01*
X162784637Y-153004759D01*
X162941680Y-152769727D01*
X163049853Y-152508574D01*
X163105000Y-152231335D01*
X163105000Y-151948665D01*
X163049853Y-151671426D01*
X162941680Y-151410273D01*
X162784637Y-151175241D01*
X162584759Y-150975363D01*
X162352241Y-150820000D01*
X162584759Y-150664637D01*
X162784637Y-150464759D01*
X162941680Y-150229727D01*
X163049853Y-149968574D01*
X163105000Y-149691335D01*
X163105000Y-149408665D01*
X163049853Y-149131426D01*
X162941680Y-148870273D01*
X162784637Y-148635241D01*
X162584759Y-148435363D01*
X162352241Y-148280000D01*
X162584759Y-148124637D01*
X162784637Y-147924759D01*
X162941680Y-147689727D01*
X163049853Y-147428574D01*
X163105000Y-147151335D01*
X163105000Y-146868665D01*
X163049853Y-146591426D01*
X162941680Y-146330273D01*
X162784637Y-146095241D01*
X162584759Y-145895363D01*
X162352241Y-145740000D01*
X162584759Y-145584637D01*
X162784637Y-145384759D01*
X162941680Y-145149727D01*
X163049853Y-144888574D01*
X163105000Y-144611335D01*
X163105000Y-144328665D01*
X163049853Y-144051426D01*
X162941680Y-143790273D01*
X162784637Y-143555241D01*
X162584759Y-143355363D01*
X162352241Y-143200000D01*
X162584759Y-143044637D01*
X162784637Y-142844759D01*
X162941680Y-142609727D01*
X163049853Y-142348574D01*
X163105000Y-142071335D01*
X163105000Y-141788665D01*
X163049853Y-141511426D01*
X162941680Y-141250273D01*
X162784637Y-141015241D01*
X162584759Y-140815363D01*
X162352241Y-140660000D01*
X162584759Y-140504637D01*
X162784637Y-140304759D01*
X162941680Y-140069727D01*
X163049853Y-139808574D01*
X163105000Y-139531335D01*
X163105000Y-139248665D01*
X163049853Y-138971426D01*
X162941680Y-138710273D01*
X162784637Y-138475241D01*
X162584759Y-138275363D01*
X162352241Y-138120000D01*
X162584759Y-137964637D01*
X162784637Y-137764759D01*
X162941680Y-137529727D01*
X163049853Y-137268574D01*
X163105000Y-136991335D01*
X163105000Y-136708665D01*
X163049853Y-136431426D01*
X162941680Y-136170273D01*
X162784637Y-135935241D01*
X162584759Y-135735363D01*
X162352241Y-135580000D01*
X162584759Y-135424637D01*
X162784637Y-135224759D01*
X162941680Y-134989727D01*
X163049853Y-134728574D01*
X163105000Y-134451335D01*
X163105000Y-134168665D01*
X163049853Y-133891426D01*
X162941680Y-133630273D01*
X162784637Y-133395241D01*
X162584759Y-133195363D01*
X162352241Y-133040000D01*
X162584759Y-132884637D01*
X162784637Y-132684759D01*
X162941680Y-132449727D01*
X163049853Y-132188574D01*
X163105000Y-131911335D01*
X163105000Y-131628665D01*
X163049853Y-131351426D01*
X162941680Y-131090273D01*
X162784637Y-130855241D01*
X162584759Y-130655363D01*
X162352241Y-130500000D01*
X162584759Y-130344637D01*
X162784637Y-130144759D01*
X162941680Y-129909727D01*
X163049853Y-129648574D01*
X163105000Y-129371335D01*
X163105000Y-129088665D01*
X163049853Y-128811426D01*
X162941680Y-128550273D01*
X162784637Y-128315241D01*
X162584759Y-128115363D01*
X162352241Y-127960000D01*
X162584759Y-127804637D01*
X162784637Y-127604759D01*
X162941680Y-127369727D01*
X163049853Y-127108574D01*
X163105000Y-126831335D01*
X163105000Y-126548665D01*
X163049853Y-126271426D01*
X162941680Y-126010273D01*
X162784637Y-125775241D01*
X162753914Y-125744518D01*
X174683190Y-125744518D01*
X174726659Y-125748799D01*
X174770128Y-125744518D01*
X174770136Y-125744518D01*
X174900149Y-125731713D01*
X175066972Y-125681107D01*
X175220718Y-125598929D01*
X175355476Y-125488335D01*
X175383193Y-125454562D01*
X181084679Y-119753077D01*
X181118445Y-119725366D01*
X181229039Y-119590608D01*
X181311217Y-119436862D01*
X181361823Y-119270039D01*
X181362856Y-119259556D01*
X181365179Y-119235965D01*
X181374628Y-119140026D01*
X181374628Y-119140018D01*
X181378909Y-119096549D01*
X181374628Y-119053080D01*
X181374628Y-94929820D01*
X181378909Y-94886354D01*
X181374628Y-94842888D01*
X181374628Y-94842878D01*
X181361823Y-94712865D01*
X181311217Y-94546042D01*
X181229039Y-94392296D01*
X181194007Y-94349610D01*
X181263341Y-94245845D01*
X181337057Y-94067878D01*
X181374637Y-93878950D01*
X181374637Y-93686320D01*
X181337057Y-93497392D01*
X181281737Y-93363837D01*
X181281737Y-93257085D01*
X181317641Y-93292989D01*
X181433309Y-93177321D01*
X181529072Y-93441720D01*
X181818687Y-93582610D01*
X182130224Y-93664290D01*
X182451711Y-93683624D01*
X182770791Y-93639867D01*
X183075204Y-93534701D01*
X183249160Y-93441720D01*
X183344924Y-93177319D01*
X182389116Y-92221511D01*
X182374974Y-92235654D01*
X182195369Y-92056049D01*
X182209511Y-92041906D01*
X182195369Y-92027764D01*
X182374974Y-91848159D01*
X182389116Y-91862301D01*
X182403259Y-91848159D01*
X182582864Y-92027764D01*
G37*
%TD.AperFunction*%
D18*
X182039750Y-44789162D02*
X182270370Y-44858789D01*
X182483076Y-44971887D01*
X182669763Y-45124145D01*
X182823318Y-45309761D01*
X182937898Y-45521671D01*
X183009134Y-45751797D01*
X183038000Y-46026442D01*
X183038001Y-55996920D01*
X183037144Y-65819774D01*
X183001348Y-65865165D01*
X182957839Y-65918778D01*
X182952040Y-65927689D01*
X182952036Y-65927694D01*
X182952033Y-65927699D01*
X182817160Y-66138111D01*
X182785738Y-66199622D01*
X182753467Y-66260674D01*
X182749508Y-66270544D01*
X182749505Y-66270549D01*
X182749503Y-66270555D01*
X182658068Y-66503156D01*
X182639193Y-66569596D01*
X182619395Y-66635752D01*
X182617427Y-66646208D01*
X182572910Y-66892145D01*
X182567298Y-66960984D01*
X182560727Y-67029736D01*
X182560828Y-67040360D01*
X182560827Y-67040370D01*
X182560828Y-67040375D01*
X182564930Y-67290276D01*
X182572796Y-67358890D01*
X182579703Y-67427603D01*
X182581868Y-67438020D01*
X182634430Y-67682365D01*
X182655475Y-67748149D01*
X182675597Y-67814213D01*
X182679744Y-67824010D01*
X182778765Y-68053491D01*
X182812185Y-68113930D01*
X182844758Y-68174832D01*
X182850729Y-68183637D01*
X182992438Y-68389515D01*
X183036961Y-68442313D01*
X183080741Y-68495726D01*
X183088309Y-68503204D01*
X183215443Y-68627095D01*
X183216941Y-68629244D01*
X183298041Y-68707202D01*
X185534538Y-70469906D01*
X184761690Y-70469906D01*
X184729517Y-70473075D01*
X184726564Y-70473054D01*
X184715976Y-70474092D01*
X184668152Y-70479118D01*
X184649738Y-70480932D01*
X184649124Y-70481118D01*
X184618928Y-70484292D01*
X184551272Y-70498179D01*
X184483433Y-70511120D01*
X184473258Y-70514193D01*
X184473248Y-70514195D01*
X184473239Y-70514199D01*
X184380029Y-70543052D01*
X184316355Y-70569818D01*
X184252322Y-70595689D01*
X184242941Y-70600678D01*
X184242933Y-70600681D01*
X184242929Y-70600684D01*
X184157091Y-70647097D01*
X184099838Y-70685714D01*
X184042046Y-70723532D01*
X184033809Y-70730251D01*
X184033799Y-70730258D01*
X184033791Y-70730266D01*
X183958613Y-70792459D01*
X183909948Y-70841465D01*
X183860609Y-70889780D01*
X183853827Y-70897978D01*
X183792151Y-70973599D01*
X183753901Y-71031169D01*
X183714907Y-71088118D01*
X183709856Y-71097460D01*
X183709851Y-71097467D01*
X183709848Y-71097474D01*
X183709847Y-71097476D01*
X183664035Y-71183637D01*
X183637721Y-71247479D01*
X183610512Y-71310962D01*
X183607366Y-71321126D01*
X183579161Y-71414544D01*
X183565745Y-71482299D01*
X183551386Y-71549853D01*
X183550274Y-71560434D01*
X183540752Y-71657551D01*
X183540752Y-71657563D01*
X183537116Y-71694481D01*
X183537117Y-73769332D01*
X183540285Y-73801495D01*
X183540264Y-73804458D01*
X183541302Y-73815046D01*
X183546345Y-73863029D01*
X183548143Y-73881284D01*
X183548328Y-73881893D01*
X183551502Y-73912095D01*
X183565391Y-73979757D01*
X183578330Y-74047589D01*
X183581403Y-74057764D01*
X183581405Y-74057774D01*
X183581409Y-74057783D01*
X183610262Y-74150993D01*
X183637038Y-74214692D01*
X183662899Y-74278699D01*
X183667888Y-74288081D01*
X183667891Y-74288089D01*
X183667892Y-74288090D01*
X183667894Y-74288093D01*
X183714306Y-74373931D01*
X183752942Y-74431210D01*
X183790742Y-74488976D01*
X183797464Y-74497216D01*
X183797468Y-74497222D01*
X183797472Y-74497226D01*
X183859669Y-74572409D01*
X183908675Y-74621074D01*
X183956990Y-74670413D01*
X183965188Y-74677195D01*
X184040809Y-74738871D01*
X184098361Y-74777109D01*
X184155327Y-74816115D01*
X184164670Y-74821166D01*
X184164677Y-74821171D01*
X184164684Y-74821174D01*
X184164686Y-74821175D01*
X184250847Y-74866987D01*
X184314689Y-74893301D01*
X184378172Y-74920510D01*
X184388336Y-74923656D01*
X184481754Y-74951860D01*
X184549472Y-74965269D01*
X184617063Y-74979636D01*
X184627644Y-74980748D01*
X184724761Y-74990270D01*
X184724772Y-74990270D01*
X184761690Y-74993906D01*
X186037116Y-74993906D01*
X186037117Y-75469906D01*
X184761690Y-75469906D01*
X184729517Y-75473075D01*
X184726564Y-75473054D01*
X184715976Y-75474092D01*
X184668152Y-75479118D01*
X184649738Y-75480932D01*
X184649124Y-75481118D01*
X184618928Y-75484292D01*
X184551272Y-75498179D01*
X184483433Y-75511120D01*
X184473258Y-75514193D01*
X184473248Y-75514195D01*
X184473239Y-75514199D01*
X184380029Y-75543052D01*
X184316355Y-75569818D01*
X184252322Y-75595689D01*
X184242941Y-75600678D01*
X184242933Y-75600681D01*
X184242929Y-75600684D01*
X184157091Y-75647097D01*
X184099838Y-75685714D01*
X184042046Y-75723532D01*
X184033809Y-75730251D01*
X184033799Y-75730258D01*
X184033791Y-75730266D01*
X183958613Y-75792459D01*
X183909948Y-75841465D01*
X183860609Y-75889780D01*
X183853827Y-75897978D01*
X183792151Y-75973599D01*
X183753901Y-76031169D01*
X183714907Y-76088118D01*
X183709856Y-76097460D01*
X183709851Y-76097467D01*
X183709848Y-76097474D01*
X183709847Y-76097476D01*
X183664035Y-76183637D01*
X183637721Y-76247479D01*
X183610512Y-76310962D01*
X183607366Y-76321126D01*
X183579161Y-76414544D01*
X183565745Y-76482299D01*
X183551386Y-76549853D01*
X183550274Y-76560434D01*
X183540752Y-76657551D01*
X183540752Y-76657563D01*
X183537116Y-76694481D01*
X183537117Y-77769332D01*
X183540285Y-77801495D01*
X183540264Y-77804458D01*
X183541302Y-77815046D01*
X183546345Y-77863029D01*
X183548143Y-77881284D01*
X183548328Y-77881893D01*
X183551502Y-77912095D01*
X183565391Y-77979757D01*
X183578330Y-78047589D01*
X183581403Y-78057764D01*
X183581405Y-78057774D01*
X183581409Y-78057783D01*
X183610262Y-78150993D01*
X183637038Y-78214692D01*
X183662899Y-78278699D01*
X183667888Y-78288081D01*
X183667891Y-78288089D01*
X183667892Y-78288090D01*
X183667894Y-78288093D01*
X183714306Y-78373931D01*
X183752942Y-78431210D01*
X183790742Y-78488976D01*
X183797464Y-78497216D01*
X183797468Y-78497222D01*
X183797472Y-78497226D01*
X183859669Y-78572409D01*
X183908675Y-78621074D01*
X183956990Y-78670413D01*
X183965188Y-78677195D01*
X184040809Y-78738871D01*
X184098361Y-78777109D01*
X184155327Y-78816115D01*
X184164670Y-78821166D01*
X184164677Y-78821171D01*
X184164684Y-78821174D01*
X184164686Y-78821175D01*
X184250847Y-78866987D01*
X184314689Y-78893301D01*
X184378172Y-78920510D01*
X184388336Y-78923656D01*
X184481754Y-78951860D01*
X184549472Y-78965269D01*
X184617063Y-78979636D01*
X184627644Y-78980748D01*
X184724761Y-78990270D01*
X184724772Y-78990270D01*
X184761690Y-78993906D01*
X186037116Y-78993906D01*
X186037117Y-85483511D01*
X185907513Y-85443114D01*
X185058721Y-86291906D01*
X185907513Y-87140698D01*
X186037117Y-87100301D01*
X186037117Y-89832047D01*
X186032591Y-89825274D01*
X185825748Y-89618431D01*
X185582527Y-89455916D01*
X185312274Y-89343974D01*
X185025376Y-89286906D01*
X184732856Y-89286906D01*
X184445958Y-89343974D01*
X184175705Y-89455916D01*
X183932484Y-89618431D01*
X183725641Y-89825274D01*
X183563126Y-90068495D01*
X183451184Y-90338748D01*
X183394116Y-90625646D01*
X183394116Y-90857298D01*
X183344923Y-90906491D01*
X183249160Y-90642092D01*
X182959545Y-90501202D01*
X182648008Y-90419522D01*
X182326521Y-90400188D01*
X182007441Y-90443945D01*
X181703028Y-90549111D01*
X181529072Y-90642092D01*
X181433309Y-90906491D01*
X181317641Y-90790823D01*
X181281737Y-90826727D01*
X181281737Y-87320303D01*
X184030324Y-87320303D01*
X184107959Y-87569378D01*
X184371999Y-87695277D01*
X184655527Y-87767245D01*
X184947647Y-87782517D01*
X185237135Y-87740505D01*
X185512863Y-87642825D01*
X185650273Y-87569378D01*
X185727908Y-87320303D01*
X184879116Y-86471511D01*
X184030324Y-87320303D01*
X181281737Y-87320303D01*
X181281737Y-86237085D01*
X181317641Y-86272989D01*
X181433309Y-86157321D01*
X181529072Y-86421720D01*
X181818687Y-86562610D01*
X182130224Y-86644290D01*
X182451711Y-86663624D01*
X182770791Y-86619867D01*
X183075204Y-86514701D01*
X183249160Y-86421720D01*
X183344923Y-86157321D01*
X183396431Y-86208829D01*
X183388505Y-86360437D01*
X183430517Y-86649925D01*
X183528197Y-86925653D01*
X183601644Y-87063063D01*
X183850719Y-87140698D01*
X184699511Y-86291906D01*
X184685369Y-86277764D01*
X184864974Y-86098159D01*
X184879116Y-86112301D01*
X185727908Y-85263509D01*
X185650273Y-85014434D01*
X185386233Y-84888535D01*
X185102705Y-84816567D01*
X184810585Y-84801295D01*
X184521097Y-84843307D01*
X184245369Y-84940987D01*
X184107959Y-85014434D01*
X184030325Y-85263507D01*
X184013549Y-85246731D01*
X184030834Y-84959311D01*
X183987077Y-84640231D01*
X183881911Y-84335818D01*
X183788930Y-84161862D01*
X183524529Y-84066098D01*
X182568721Y-85021906D01*
X182582864Y-85036049D01*
X182403259Y-85215654D01*
X182389116Y-85201511D01*
X182374974Y-85215654D01*
X182195369Y-85036049D01*
X182209511Y-85021906D01*
X182195369Y-85007764D01*
X182374974Y-84828159D01*
X182389116Y-84842301D01*
X183344924Y-83886493D01*
X183249160Y-83622092D01*
X182959545Y-83481202D01*
X182648008Y-83399522D01*
X182326521Y-83380188D01*
X182007441Y-83423945D01*
X181703028Y-83529111D01*
X181529072Y-83622092D01*
X181433309Y-83886491D01*
X181317641Y-83770823D01*
X181281737Y-83806727D01*
X181281737Y-59252996D01*
X181286018Y-59209527D01*
X181281737Y-59166058D01*
X181281737Y-59166050D01*
X181268932Y-59036037D01*
X181218326Y-58869214D01*
X181136148Y-58715468D01*
X181105381Y-58677979D01*
X181053269Y-58614480D01*
X181053267Y-58614478D01*
X181025554Y-58580710D01*
X180991788Y-58552999D01*
X177391385Y-54952597D01*
X177398701Y-54945281D01*
X177505720Y-54785116D01*
X177579436Y-54607149D01*
X177617016Y-54418221D01*
X177617016Y-54225591D01*
X177579436Y-54036663D01*
X177505720Y-53858696D01*
X177398701Y-53698531D01*
X177262491Y-53562321D01*
X177102326Y-53455302D01*
X176924359Y-53381586D01*
X176735431Y-53344006D01*
X176542801Y-53344006D01*
X176353873Y-53381586D01*
X176175906Y-53455302D01*
X176015741Y-53562321D01*
X175976982Y-53601080D01*
X175919429Y-53570317D01*
X175752606Y-53519711D01*
X175622593Y-53506906D01*
X175622585Y-53506906D01*
X175579116Y-53502625D01*
X175535647Y-53506906D01*
X171667914Y-53506906D01*
X171534359Y-53451586D01*
X171345431Y-53414006D01*
X171152801Y-53414006D01*
X170963873Y-53451586D01*
X170785906Y-53525302D01*
X170625741Y-53632321D01*
X170489531Y-53768531D01*
X170382512Y-53928696D01*
X170308796Y-54106663D01*
X170271216Y-54295591D01*
X170271216Y-54488221D01*
X170308796Y-54677149D01*
X170382512Y-54855116D01*
X170426933Y-54921596D01*
X140895610Y-54921596D01*
X140762055Y-54866276D01*
X140573127Y-54828696D01*
X140380497Y-54828696D01*
X140191569Y-54866276D01*
X140013602Y-54939992D01*
X139853437Y-55047011D01*
X139717227Y-55183221D01*
X139679088Y-55240300D01*
X138711041Y-54272252D01*
X138655720Y-54138696D01*
X138548701Y-53978531D01*
X138412491Y-53842321D01*
X138252326Y-53735302D01*
X138074359Y-53661586D01*
X137885431Y-53624006D01*
X137692801Y-53624006D01*
X137503873Y-53661586D01*
X137325906Y-53735302D01*
X137165741Y-53842321D01*
X137029531Y-53978531D01*
X136922512Y-54138696D01*
X136848796Y-54316663D01*
X136811216Y-54505591D01*
X136811216Y-54698221D01*
X136848796Y-54887149D01*
X136922512Y-55065116D01*
X137029531Y-55225281D01*
X137165741Y-55361491D01*
X137325906Y-55468510D01*
X137459462Y-55523831D01*
X139082586Y-57146955D01*
X139110299Y-57180723D01*
X139144067Y-57208436D01*
X139144069Y-57208438D01*
X139186914Y-57243600D01*
X139245057Y-57291317D01*
X139398803Y-57373495D01*
X139565626Y-57424101D01*
X139695639Y-57436906D01*
X139695649Y-57436906D01*
X139739115Y-57441187D01*
X139782581Y-57436906D01*
X166948510Y-57436906D01*
X168025178Y-58513575D01*
X168080498Y-58647130D01*
X168187517Y-58807295D01*
X168323727Y-58943505D01*
X168483892Y-59050524D01*
X168661859Y-59124240D01*
X168850787Y-59161820D01*
X169043417Y-59161820D01*
X169232345Y-59124240D01*
X169365900Y-59068920D01*
X176784552Y-59068920D01*
X178114116Y-60398485D01*
X178114116Y-69498060D01*
X178089743Y-69461925D01*
X178051930Y-69404140D01*
X178045205Y-69395896D01*
X177796398Y-69095141D01*
X177747369Y-69046453D01*
X177699072Y-68997133D01*
X177690874Y-68990351D01*
X177388390Y-68743651D01*
X177330892Y-68705450D01*
X177273880Y-68666412D01*
X177264521Y-68661352D01*
X176919879Y-68478102D01*
X176855983Y-68451766D01*
X176792546Y-68424576D01*
X176782390Y-68421432D01*
X176782384Y-68421430D01*
X176782378Y-68421429D01*
X176408711Y-68308612D01*
X176340927Y-68295190D01*
X176273409Y-68280839D01*
X176262835Y-68279728D01*
X176262826Y-68279726D01*
X176262818Y-68279726D01*
X175874359Y-68241637D01*
X175874354Y-68241637D01*
X175837426Y-68238000D01*
X132262574Y-68238000D01*
X132229357Y-68241272D01*
X132216974Y-68241185D01*
X132206385Y-68242223D01*
X131818193Y-68283024D01*
X131750487Y-68296922D01*
X131682700Y-68309853D01*
X131672514Y-68312928D01*
X131299640Y-68428352D01*
X131235985Y-68455110D01*
X131171938Y-68480986D01*
X131162544Y-68485981D01*
X130819189Y-68671632D01*
X130761925Y-68710257D01*
X130704140Y-68748070D01*
X130695896Y-68754795D01*
X130395141Y-69003602D01*
X130346453Y-69052631D01*
X130297133Y-69100928D01*
X130290351Y-69109126D01*
X130043651Y-69411610D01*
X130005450Y-69469108D01*
X129966412Y-69526120D01*
X129961352Y-69535479D01*
X129778102Y-69880121D01*
X129751766Y-69944017D01*
X129724576Y-70007454D01*
X129721432Y-70017610D01*
X129721430Y-70017616D01*
X129721430Y-70017618D01*
X129608612Y-70391289D01*
X129595190Y-70459073D01*
X129580839Y-70526591D01*
X129579728Y-70537165D01*
X129579726Y-70537174D01*
X129579726Y-70537182D01*
X129541637Y-70925641D01*
X129541637Y-70925647D01*
X129538000Y-70962575D01*
X129538001Y-91037426D01*
X129541272Y-91070634D01*
X129541185Y-91083026D01*
X129542223Y-91093614D01*
X129583024Y-91481807D01*
X129596909Y-91549450D01*
X129609852Y-91617300D01*
X129612928Y-91627485D01*
X129728352Y-92000360D01*
X129755110Y-92064015D01*
X129780986Y-92128062D01*
X129785981Y-92137456D01*
X129965250Y-92469005D01*
X129925906Y-92485302D01*
X129765741Y-92592321D01*
X129629531Y-92728531D01*
X129522512Y-92888696D01*
X129448796Y-93066663D01*
X129412064Y-93251327D01*
X128868102Y-93795290D01*
X128839026Y-93819152D01*
X128801009Y-93865477D01*
X128743803Y-93935182D01*
X128726927Y-93966756D01*
X128673046Y-94067560D01*
X128629474Y-94211197D01*
X128619087Y-94316663D01*
X128614762Y-94360574D01*
X128618448Y-94397997D01*
X128618449Y-97313476D01*
X128513844Y-97470028D01*
X128440128Y-97647995D01*
X128402548Y-97836923D01*
X128402548Y-98029553D01*
X128440128Y-98218481D01*
X128513844Y-98396448D01*
X128620863Y-98556613D01*
X128757073Y-98692823D01*
X128917238Y-98799842D01*
X129095205Y-98873558D01*
X129284133Y-98911138D01*
X129476763Y-98911138D01*
X129665691Y-98873558D01*
X129843658Y-98799842D01*
X130003823Y-98692823D01*
X130140033Y-98556613D01*
X130247052Y-98396448D01*
X130320768Y-98218481D01*
X130352449Y-98059210D01*
X130383873Y-98072226D01*
X130572801Y-98109806D01*
X130765431Y-98109806D01*
X130954359Y-98072226D01*
X131132326Y-97998510D01*
X131161833Y-97978794D01*
X131179531Y-98005281D01*
X131315741Y-98141491D01*
X131475906Y-98248510D01*
X131653873Y-98322226D01*
X131842801Y-98359806D01*
X132034039Y-98359806D01*
X132102512Y-98525116D01*
X132209531Y-98685281D01*
X132345741Y-98821491D01*
X132505906Y-98928510D01*
X132683873Y-99002226D01*
X132872801Y-99039806D01*
X133065431Y-99039806D01*
X133254359Y-99002226D01*
X133432326Y-98928510D01*
X133592491Y-98821491D01*
X133728701Y-98685281D01*
X133835720Y-98525116D01*
X133864563Y-98455481D01*
X133885741Y-98476659D01*
X134045906Y-98583678D01*
X134223873Y-98657394D01*
X134412801Y-98694974D01*
X134605431Y-98694974D01*
X134794359Y-98657394D01*
X134972326Y-98583678D01*
X135132491Y-98476659D01*
X135268701Y-98340449D01*
X135306694Y-98283588D01*
X135463309Y-98314741D01*
X135655939Y-98314741D01*
X135844867Y-98277161D01*
X136022834Y-98203445D01*
X136182999Y-98096426D01*
X136319209Y-97960216D01*
X136426228Y-97800051D01*
X136499944Y-97622084D01*
X136537524Y-97433156D01*
X136537524Y-97240526D01*
X136499944Y-97051598D01*
X136426228Y-96873631D01*
X136319209Y-96713466D01*
X136241522Y-96635779D01*
X136312494Y-96529562D01*
X136386210Y-96351595D01*
X136423790Y-96162667D01*
X136423790Y-95970037D01*
X136386210Y-95781109D01*
X136312494Y-95603142D01*
X136205475Y-95442977D01*
X136069265Y-95306767D01*
X135909100Y-95199748D01*
X135731133Y-95126032D01*
X135542205Y-95088452D01*
X135349575Y-95088452D01*
X135334215Y-95091507D01*
X135299436Y-94916663D01*
X135225720Y-94738696D01*
X135118701Y-94578531D01*
X134982491Y-94442321D01*
X134822326Y-94335302D01*
X134644359Y-94261586D01*
X134455431Y-94224006D01*
X134262801Y-94224006D01*
X134073873Y-94261586D01*
X133895906Y-94335302D01*
X133863555Y-94356919D01*
X133792527Y-94185442D01*
X133685508Y-94025277D01*
X133549298Y-93889067D01*
X133389133Y-93782048D01*
X133340733Y-93762000D01*
X148845950Y-93762000D01*
X148725741Y-93842321D01*
X148589531Y-93978531D01*
X148482512Y-94138696D01*
X148408796Y-94316663D01*
X148371216Y-94505591D01*
X148371216Y-94698221D01*
X148408796Y-94887149D01*
X148482512Y-95065116D01*
X148485390Y-95069423D01*
X148472512Y-95088696D01*
X148398796Y-95266663D01*
X148362064Y-95451327D01*
X148006769Y-95806622D01*
X147977694Y-95830484D01*
X147935150Y-95882325D01*
X147882471Y-95946514D01*
X147859196Y-95990060D01*
X147811714Y-96078892D01*
X147768142Y-96222529D01*
X147758011Y-96325395D01*
X147753430Y-96371906D01*
X147757116Y-96409329D01*
X147757117Y-98771135D01*
X147753430Y-98808568D01*
X147768143Y-98957946D01*
X147811715Y-99101583D01*
X147882471Y-99233960D01*
X147953837Y-99320919D01*
X147977695Y-99349990D01*
X148006765Y-99373847D01*
X148302064Y-99669146D01*
X148338796Y-99853811D01*
X148412512Y-100031778D01*
X148519531Y-100191943D01*
X148655741Y-100328153D01*
X148815906Y-100435172D01*
X148993873Y-100508888D01*
X149182801Y-100546468D01*
X149375431Y-100546468D01*
X149564359Y-100508888D01*
X149742326Y-100435172D01*
X149902491Y-100328153D01*
X150038701Y-100191943D01*
X150145720Y-100031778D01*
X150219436Y-99853811D01*
X150257016Y-99664883D01*
X150257016Y-99472253D01*
X150219436Y-99283325D01*
X150145720Y-99105358D01*
X150038701Y-98945193D01*
X149902491Y-98808983D01*
X149742326Y-98701964D01*
X149564359Y-98628248D01*
X149379694Y-98591516D01*
X149281116Y-98492938D01*
X149281116Y-96687536D01*
X149439695Y-96528958D01*
X149624359Y-96492226D01*
X149802326Y-96418510D01*
X149962491Y-96311491D01*
X150098701Y-96175281D01*
X150205720Y-96015116D01*
X150279436Y-95837149D01*
X150317016Y-95648221D01*
X150317016Y-95455591D01*
X150279436Y-95266663D01*
X150205720Y-95088696D01*
X150202842Y-95084389D01*
X150215720Y-95065116D01*
X150289436Y-94887149D01*
X150327016Y-94698221D01*
X150327016Y-94505591D01*
X150289436Y-94316663D01*
X150215720Y-94138696D01*
X150108701Y-93978531D01*
X149972491Y-93842321D01*
X149852282Y-93762000D01*
X160206062Y-93762000D01*
X160129531Y-93838531D01*
X160022512Y-93998696D01*
X159948796Y-94176663D01*
X159911216Y-94365591D01*
X159911216Y-94558221D01*
X159948796Y-94747149D01*
X160022512Y-94925116D01*
X160129531Y-95085281D01*
X160265741Y-95221491D01*
X160425906Y-95328510D01*
X160603873Y-95402226D01*
X160792801Y-95439806D01*
X160985431Y-95439806D01*
X161174359Y-95402226D01*
X161352326Y-95328510D01*
X161512491Y-95221491D01*
X161648701Y-95085281D01*
X161755720Y-94925116D01*
X161829436Y-94747149D01*
X161867016Y-94558221D01*
X161867016Y-94365591D01*
X161829436Y-94176663D01*
X161755720Y-93998696D01*
X161648701Y-93838531D01*
X161572170Y-93762000D01*
X175837426Y-93762000D01*
X175870643Y-93758728D01*
X175883026Y-93758815D01*
X175893614Y-93757777D01*
X176281807Y-93716976D01*
X176349450Y-93703091D01*
X176417300Y-93690148D01*
X176427483Y-93687073D01*
X176427489Y-93687071D01*
X176800360Y-93571648D01*
X176864015Y-93544890D01*
X176928062Y-93519014D01*
X176937456Y-93514019D01*
X177280811Y-93328367D01*
X177338066Y-93289749D01*
X177395859Y-93251930D01*
X177404104Y-93245205D01*
X177704859Y-92996398D01*
X177753530Y-92947386D01*
X177802867Y-92899072D01*
X177809648Y-92890875D01*
X178056349Y-92588390D01*
X178094561Y-92530877D01*
X178114117Y-92502316D01*
X178114117Y-96218968D01*
X178105720Y-96198696D01*
X177998701Y-96038531D01*
X177862491Y-95902321D01*
X177702326Y-95795302D01*
X177524359Y-95721586D01*
X177335431Y-95684006D01*
X177142801Y-95684006D01*
X176953873Y-95721586D01*
X176775906Y-95795302D01*
X176615741Y-95902321D01*
X176479531Y-96038531D01*
X176400122Y-96157375D01*
X176262326Y-96065302D01*
X176084359Y-95991586D01*
X175895431Y-95954006D01*
X175702801Y-95954006D01*
X175513873Y-95991586D01*
X175335906Y-96065302D01*
X175175741Y-96172321D01*
X175039531Y-96308531D01*
X174932512Y-96468696D01*
X174858796Y-96646663D01*
X174821216Y-96835591D01*
X174821216Y-97028221D01*
X174858796Y-97217149D01*
X174932512Y-97395116D01*
X175037117Y-97551668D01*
X175037116Y-107956276D01*
X162422473Y-120570919D01*
X151266827Y-120570919D01*
X151256542Y-120569906D01*
X151256539Y-120569906D01*
X151219116Y-120566220D01*
X151181693Y-120569906D01*
X147128877Y-120569906D01*
X146972326Y-120465302D01*
X146794359Y-120391586D01*
X146605431Y-120354006D01*
X146412801Y-120354006D01*
X146223873Y-120391586D01*
X146045906Y-120465302D01*
X145885741Y-120572321D01*
X145749531Y-120708531D01*
X145642512Y-120868696D01*
X145568796Y-121046663D01*
X145531216Y-121235591D01*
X145531216Y-121428221D01*
X145568796Y-121617149D01*
X145642512Y-121795116D01*
X145749531Y-121955281D01*
X145885741Y-122091491D01*
X146045906Y-122198510D01*
X146223873Y-122272226D01*
X146412801Y-122309806D01*
X146605431Y-122309806D01*
X146794359Y-122272226D01*
X146972326Y-122198510D01*
X147128877Y-122093906D01*
X151172418Y-122093906D01*
X151182703Y-122094919D01*
X151182706Y-122094919D01*
X151220129Y-122098605D01*
X151257552Y-122094919D01*
X162700680Y-122094919D01*
X162738103Y-122098605D01*
X162775526Y-122094919D01*
X162775529Y-122094919D01*
X162887481Y-122083893D01*
X163031118Y-122040321D01*
X163089093Y-122009332D01*
X163147356Y-122067595D01*
X163307521Y-122174614D01*
X163485488Y-122248330D01*
X163674416Y-122285910D01*
X163867046Y-122285910D01*
X164055974Y-122248330D01*
X164233941Y-122174614D01*
X164394106Y-122067595D01*
X164530316Y-121931385D01*
X164637335Y-121771220D01*
X164711051Y-121593253D01*
X164747783Y-121408588D01*
X177751463Y-108404908D01*
X177780538Y-108381047D01*
X177844977Y-108302528D01*
X177875761Y-108265018D01*
X177913581Y-108194261D01*
X177946518Y-108132640D01*
X177990090Y-107989003D01*
X178001116Y-107877051D01*
X178001116Y-107877048D01*
X178004802Y-107839625D01*
X178001116Y-107802202D01*
X178001116Y-97281667D01*
X178105720Y-97125116D01*
X178114117Y-97104844D01*
X178114117Y-97175381D01*
X178109835Y-97218860D01*
X178126921Y-97392350D01*
X178129417Y-97400578D01*
X178129417Y-97783235D01*
X178126921Y-97791463D01*
X178114116Y-97921476D01*
X178114116Y-97921483D01*
X178109835Y-97964952D01*
X178114116Y-98008421D01*
X178114117Y-118375326D01*
X173932538Y-122556906D01*
X155987914Y-122556906D01*
X155854359Y-122501586D01*
X155665431Y-122464006D01*
X155472801Y-122464006D01*
X155283873Y-122501586D01*
X155105906Y-122575302D01*
X154945741Y-122682321D01*
X154809531Y-122818531D01*
X154702512Y-122978696D01*
X154652045Y-123100535D01*
X154605720Y-122988696D01*
X154498701Y-122828531D01*
X154362491Y-122692321D01*
X154202326Y-122585302D01*
X154024359Y-122511586D01*
X153835431Y-122474006D01*
X153642801Y-122474006D01*
X153453873Y-122511586D01*
X153275906Y-122585302D01*
X153115741Y-122692321D01*
X152979531Y-122828531D01*
X152872512Y-122988696D01*
X152798796Y-123166663D01*
X152767856Y-123322207D01*
X145929929Y-123322207D01*
X145886462Y-123317926D01*
X145842996Y-123322207D01*
X145842986Y-123322207D01*
X145712973Y-123335012D01*
X145546150Y-123385618D01*
X145392404Y-123467796D01*
X145392402Y-123467797D01*
X145392403Y-123467797D01*
X145291416Y-123550675D01*
X145291414Y-123550677D01*
X145257646Y-123578390D01*
X145229933Y-123612158D01*
X143674067Y-125168025D01*
X143640300Y-125195737D01*
X143612587Y-125229505D01*
X143612584Y-125229508D01*
X143529706Y-125330495D01*
X143447528Y-125484241D01*
X143396921Y-125651064D01*
X143379835Y-125824554D01*
X143384117Y-125868033D01*
X143384116Y-149968437D01*
X143379835Y-150011906D01*
X143384116Y-150055375D01*
X143384116Y-150055382D01*
X143396921Y-150185395D01*
X143447527Y-150352218D01*
X143529705Y-150505964D01*
X143640299Y-150640723D01*
X143674072Y-150668440D01*
X144995000Y-151989369D01*
X144995000Y-152231335D01*
X145050147Y-152508574D01*
X145158320Y-152769727D01*
X145315363Y-153004759D01*
X145515241Y-153204637D01*
X145747759Y-153360000D01*
X145515241Y-153515363D01*
X145315363Y-153715241D01*
X145158320Y-153950273D01*
X145050147Y-154211426D01*
X144995000Y-154488665D01*
X144995000Y-154771335D01*
X145050147Y-155048574D01*
X145158320Y-155309727D01*
X145315363Y-155544759D01*
X145515241Y-155744637D01*
X145747759Y-155900000D01*
X145515241Y-156055363D01*
X145315363Y-156255241D01*
X145158320Y-156490273D01*
X145050147Y-156751426D01*
X144995000Y-157028665D01*
X144995000Y-157311335D01*
X145050147Y-157588574D01*
X145158320Y-157849727D01*
X145315363Y-158084759D01*
X145515241Y-158284637D01*
X145747759Y-158440000D01*
X145515241Y-158595363D01*
X145315363Y-158795241D01*
X145158320Y-159030273D01*
X145050147Y-159291426D01*
X144995000Y-159568665D01*
X144995000Y-159851335D01*
X145050147Y-160128574D01*
X145104844Y-160260624D01*
X126417031Y-160266522D01*
X126120259Y-160252332D01*
X125886614Y-160194348D01*
X125668685Y-160092088D01*
X125474768Y-159949446D01*
X125312251Y-159771857D01*
X125187320Y-159566076D01*
X125104741Y-159339959D01*
X125063560Y-159075850D01*
X125061996Y-159020917D01*
X125061207Y-156343889D01*
X125096885Y-156298648D01*
X125140394Y-156245034D01*
X125146193Y-156236124D01*
X125146197Y-156236119D01*
X125146200Y-156236114D01*
X125281073Y-156025701D01*
X125312487Y-155964207D01*
X125344766Y-155903139D01*
X125348727Y-155893265D01*
X125348728Y-155893264D01*
X125348730Y-155893258D01*
X125410708Y-155735591D01*
X134021216Y-155735591D01*
X134021216Y-155928221D01*
X134058796Y-156117149D01*
X134132512Y-156295116D01*
X134239531Y-156455281D01*
X134375741Y-156591491D01*
X134535906Y-156698510D01*
X134713873Y-156772226D01*
X134902801Y-156809806D01*
X135095431Y-156809806D01*
X135284359Y-156772226D01*
X135462326Y-156698510D01*
X135622491Y-156591491D01*
X135758701Y-156455281D01*
X135865720Y-156295116D01*
X135939436Y-156117149D01*
X135977016Y-155928221D01*
X135977016Y-155735591D01*
X135939436Y-155546663D01*
X135865720Y-155368696D01*
X135758701Y-155208531D01*
X135622491Y-155072321D01*
X135462326Y-154965302D01*
X135284359Y-154891586D01*
X135095431Y-154854006D01*
X134902801Y-154854006D01*
X134713873Y-154891586D01*
X134535906Y-154965302D01*
X134375741Y-155072321D01*
X134239531Y-155208531D01*
X134132512Y-155368696D01*
X134058796Y-155546663D01*
X134021216Y-155735591D01*
X125410708Y-155735591D01*
X125440165Y-155660657D01*
X125459030Y-155594253D01*
X125478839Y-155528061D01*
X125480806Y-155517605D01*
X125525323Y-155271667D01*
X125530934Y-155202835D01*
X125537506Y-155134077D01*
X125537405Y-155123453D01*
X125537406Y-155123442D01*
X125537405Y-155123432D01*
X125533303Y-154873538D01*
X125525438Y-154804934D01*
X125518530Y-154736209D01*
X125516365Y-154725793D01*
X125463803Y-154481448D01*
X125442758Y-154415664D01*
X125422636Y-154349600D01*
X125418491Y-154339809D01*
X125418489Y-154339803D01*
X125418486Y-154339798D01*
X125319468Y-154110322D01*
X125286048Y-154049883D01*
X125253475Y-153988981D01*
X125247504Y-153980175D01*
X125105795Y-153774298D01*
X125061272Y-153721501D01*
X125061120Y-153721315D01*
X125061194Y-148735591D01*
X139661216Y-148735591D01*
X139661216Y-148928221D01*
X139698796Y-149117149D01*
X139772512Y-149295116D01*
X139879531Y-149455281D01*
X140015741Y-149591491D01*
X140175906Y-149698510D01*
X140353873Y-149772226D01*
X140542801Y-149809806D01*
X140735431Y-149809806D01*
X140924359Y-149772226D01*
X141102326Y-149698510D01*
X141262491Y-149591491D01*
X141398701Y-149455281D01*
X141505720Y-149295116D01*
X141579436Y-149117149D01*
X141617016Y-148928221D01*
X141617016Y-148735591D01*
X141579436Y-148546663D01*
X141505720Y-148368696D01*
X141398701Y-148208531D01*
X141262491Y-148072321D01*
X141102326Y-147965302D01*
X140924359Y-147891586D01*
X140735431Y-147854006D01*
X140542801Y-147854006D01*
X140353873Y-147891586D01*
X140175906Y-147965302D01*
X140015741Y-148072321D01*
X139879531Y-148208531D01*
X139772512Y-148368696D01*
X139698796Y-148546663D01*
X139661216Y-148735591D01*
X125061194Y-148735591D01*
X125061306Y-141285646D01*
X132054116Y-141285646D01*
X132054116Y-141578166D01*
X132111184Y-141865064D01*
X132223126Y-142135317D01*
X132385641Y-142378538D01*
X132592484Y-142585381D01*
X132766876Y-142701906D01*
X132592484Y-142818431D01*
X132385641Y-143025274D01*
X132223126Y-143268495D01*
X132111184Y-143538748D01*
X132054116Y-143825646D01*
X132054116Y-144118166D01*
X132111184Y-144405064D01*
X132223126Y-144675317D01*
X132385641Y-144918538D01*
X132592484Y-145125381D01*
X132835705Y-145287896D01*
X133105958Y-145399838D01*
X133392856Y-145456906D01*
X133685376Y-145456906D01*
X133972274Y-145399838D01*
X134242527Y-145287896D01*
X134485748Y-145125381D01*
X134692591Y-144918538D01*
X134809116Y-144744146D01*
X134925641Y-144918538D01*
X135132484Y-145125381D01*
X135375705Y-145287896D01*
X135645958Y-145399838D01*
X135932856Y-145456906D01*
X136225376Y-145456906D01*
X136512274Y-145399838D01*
X136782527Y-145287896D01*
X137025748Y-145125381D01*
X137232591Y-144918538D01*
X137395106Y-144675317D01*
X137507048Y-144405064D01*
X137564116Y-144118166D01*
X137564116Y-143825646D01*
X137507048Y-143538748D01*
X137395106Y-143268495D01*
X137232591Y-143025274D01*
X137100736Y-142893419D01*
X137173296Y-142871408D01*
X137283610Y-142812443D01*
X137380301Y-142733091D01*
X137459653Y-142636400D01*
X137518618Y-142526086D01*
X137554928Y-142406388D01*
X137567188Y-142281906D01*
X137564116Y-141717656D01*
X137405366Y-141558906D01*
X136206116Y-141558906D01*
X136206116Y-141578906D01*
X135952116Y-141578906D01*
X135952116Y-141558906D01*
X135932116Y-141558906D01*
X135932116Y-141304906D01*
X135952116Y-141304906D01*
X135952116Y-140105656D01*
X136206116Y-140105656D01*
X136206116Y-141304906D01*
X137405366Y-141304906D01*
X137564116Y-141146156D01*
X137567188Y-140581906D01*
X137554928Y-140457424D01*
X137518618Y-140337726D01*
X137459653Y-140227412D01*
X137380301Y-140130721D01*
X137283610Y-140051369D01*
X137173296Y-139992404D01*
X137053598Y-139956094D01*
X136929116Y-139943834D01*
X136364866Y-139946906D01*
X136206116Y-140105656D01*
X135952116Y-140105656D01*
X135793366Y-139946906D01*
X135229116Y-139943834D01*
X135104634Y-139956094D01*
X134984936Y-139992404D01*
X134874622Y-140051369D01*
X134777931Y-140130721D01*
X134698579Y-140227412D01*
X134639614Y-140337726D01*
X134617603Y-140410286D01*
X134485748Y-140278431D01*
X134242527Y-140115916D01*
X133972274Y-140003974D01*
X133685376Y-139946906D01*
X133392856Y-139946906D01*
X133105958Y-140003974D01*
X132835705Y-140115916D01*
X132592484Y-140278431D01*
X132385641Y-140485274D01*
X132223126Y-140728495D01*
X132111184Y-140998748D01*
X132054116Y-141285646D01*
X125061306Y-141285646D01*
X125061332Y-139535591D01*
X138801216Y-139535591D01*
X138801216Y-139728221D01*
X138838796Y-139917149D01*
X138912512Y-140095116D01*
X139019531Y-140255281D01*
X139155741Y-140391491D01*
X139315906Y-140498510D01*
X139493873Y-140572226D01*
X139682801Y-140609806D01*
X139875431Y-140609806D01*
X140064359Y-140572226D01*
X140242326Y-140498510D01*
X140402491Y-140391491D01*
X140538701Y-140255281D01*
X140645720Y-140095116D01*
X140719436Y-139917149D01*
X140757016Y-139728221D01*
X140757016Y-139535591D01*
X140719436Y-139346663D01*
X140645720Y-139168696D01*
X140538701Y-139008531D01*
X140402491Y-138872321D01*
X140242326Y-138765302D01*
X140064359Y-138691586D01*
X139875431Y-138654006D01*
X139682801Y-138654006D01*
X139493873Y-138691586D01*
X139315906Y-138765302D01*
X139155741Y-138872321D01*
X139019531Y-139008531D01*
X138912512Y-139168696D01*
X138838796Y-139346663D01*
X138801216Y-139535591D01*
X125061332Y-139535591D01*
X125061800Y-108451906D01*
X130343430Y-108451906D01*
X130347117Y-108489339D01*
X130347116Y-127504483D01*
X130343430Y-127541906D01*
X130347116Y-127579329D01*
X130347116Y-127579331D01*
X130358142Y-127691283D01*
X130401714Y-127834920D01*
X130422199Y-127873245D01*
X130472471Y-127967298D01*
X130500698Y-128001692D01*
X130567694Y-128083328D01*
X130596770Y-128107190D01*
X140472064Y-137982485D01*
X140508796Y-138167149D01*
X140582512Y-138345116D01*
X140689531Y-138505281D01*
X140825741Y-138641491D01*
X140985906Y-138748510D01*
X141163873Y-138822226D01*
X141352801Y-138859806D01*
X141545431Y-138859806D01*
X141734359Y-138822226D01*
X141912326Y-138748510D01*
X142072491Y-138641491D01*
X142208701Y-138505281D01*
X142315720Y-138345116D01*
X142389436Y-138167149D01*
X142427016Y-137978221D01*
X142427016Y-137785591D01*
X142389436Y-137596663D01*
X142315720Y-137418696D01*
X142208701Y-137258531D01*
X142072491Y-137122321D01*
X141912326Y-137015302D01*
X141734359Y-136941586D01*
X141549695Y-136904854D01*
X131871116Y-127226276D01*
X131871116Y-108767536D01*
X138693059Y-101945593D01*
X151431216Y-101945593D01*
X151431216Y-102138223D01*
X151468796Y-102327151D01*
X151542512Y-102505118D01*
X151649531Y-102665283D01*
X151785741Y-102801493D01*
X151945906Y-102908512D01*
X152123873Y-102982228D01*
X152312801Y-103019808D01*
X152505431Y-103019808D01*
X152694359Y-102982228D01*
X152702604Y-102978813D01*
X152703862Y-102982961D01*
X152774618Y-103115338D01*
X152834415Y-103188200D01*
X152869842Y-103231368D01*
X152898913Y-103255226D01*
X152932465Y-103288778D01*
X152969197Y-103473443D01*
X153042913Y-103651410D01*
X153149932Y-103811575D01*
X153286142Y-103947785D01*
X153446307Y-104054804D01*
X153624274Y-104128520D01*
X153698121Y-104143209D01*
X153718796Y-104247149D01*
X153792512Y-104425116D01*
X153899531Y-104585281D01*
X154035741Y-104721491D01*
X154195906Y-104828510D01*
X154373873Y-104902226D01*
X154562801Y-104939806D01*
X154755431Y-104939806D01*
X154944359Y-104902226D01*
X155122326Y-104828510D01*
X155282491Y-104721491D01*
X155418701Y-104585281D01*
X155525720Y-104425116D01*
X155599436Y-104247149D01*
X155637016Y-104058221D01*
X155637016Y-103865591D01*
X155599436Y-103676663D01*
X155525720Y-103498696D01*
X155421116Y-103342145D01*
X155421116Y-103014408D01*
X155574372Y-102983924D01*
X155752339Y-102910208D01*
X155912504Y-102803189D01*
X156048714Y-102666979D01*
X156155733Y-102506814D01*
X156229449Y-102328847D01*
X156267029Y-102139919D01*
X156267029Y-101947289D01*
X156229449Y-101758361D01*
X156155733Y-101580394D01*
X156051129Y-101423843D01*
X156051129Y-97666679D01*
X156145720Y-97525114D01*
X156219436Y-97347147D01*
X156257016Y-97158219D01*
X156257016Y-96965589D01*
X156219436Y-96776661D01*
X156145720Y-96598694D01*
X156038701Y-96438529D01*
X155902491Y-96302319D01*
X155742326Y-96195300D01*
X155564359Y-96121584D01*
X155375431Y-96084004D01*
X155182801Y-96084004D01*
X154993873Y-96121584D01*
X154815906Y-96195300D01*
X154782991Y-96217293D01*
X154624359Y-96151586D01*
X154435431Y-96114006D01*
X154242801Y-96114006D01*
X154053873Y-96151586D01*
X153875906Y-96225302D01*
X153875807Y-96225368D01*
X153874473Y-96224477D01*
X153696506Y-96150761D01*
X153507578Y-96113181D01*
X153314948Y-96113181D01*
X153126020Y-96150761D01*
X152948053Y-96224477D01*
X152924572Y-96240166D01*
X152902326Y-96225302D01*
X152724359Y-96151586D01*
X152535431Y-96114006D01*
X152342801Y-96114006D01*
X152153873Y-96151586D01*
X151975906Y-96225302D01*
X151815741Y-96332321D01*
X151679531Y-96468531D01*
X151572512Y-96628696D01*
X151498796Y-96806663D01*
X151461216Y-96995591D01*
X151461216Y-97188221D01*
X151498796Y-97377149D01*
X151572512Y-97555116D01*
X151647117Y-97666770D01*
X151647116Y-101422147D01*
X151542512Y-101578698D01*
X151468796Y-101756665D01*
X151431216Y-101945593D01*
X138693059Y-101945593D01*
X141539695Y-99098958D01*
X141724359Y-99062226D01*
X141902326Y-98988510D01*
X142062491Y-98881491D01*
X142198701Y-98745281D01*
X142305720Y-98585116D01*
X142379436Y-98407149D01*
X142417016Y-98218221D01*
X142417016Y-98025591D01*
X142379436Y-97836663D01*
X142305720Y-97658696D01*
X142198701Y-97498531D01*
X142062491Y-97362321D01*
X141902326Y-97255302D01*
X141724359Y-97181586D01*
X141535431Y-97144006D01*
X141342801Y-97144006D01*
X141153873Y-97181586D01*
X140975906Y-97255302D01*
X140815741Y-97362321D01*
X140679531Y-97498531D01*
X140572512Y-97658696D01*
X140498796Y-97836663D01*
X140462064Y-98021327D01*
X130596765Y-107886627D01*
X130567695Y-107910484D01*
X130543838Y-107939554D01*
X130543837Y-107939555D01*
X130472471Y-108026514D01*
X130401715Y-108158891D01*
X130358143Y-108302528D01*
X130343430Y-108451906D01*
X125061800Y-108451906D01*
X125062000Y-95194492D01*
X125060302Y-95177251D01*
X125042498Y-94785443D01*
X125034216Y-94727979D01*
X125028409Y-94670203D01*
X125026244Y-94659786D01*
X124903045Y-94087057D01*
X124881986Y-94021228D01*
X124861879Y-93955211D01*
X124857735Y-93945419D01*
X124857732Y-93945411D01*
X124857728Y-93945404D01*
X124625637Y-93407521D01*
X124592215Y-93347076D01*
X124559645Y-93286179D01*
X124553674Y-93277374D01*
X124484806Y-93177319D01*
X124753308Y-93177319D01*
X124849072Y-93441720D01*
X125138687Y-93582610D01*
X125450224Y-93664290D01*
X125771711Y-93683624D01*
X126090791Y-93639867D01*
X126395204Y-93534701D01*
X126569160Y-93441720D01*
X126664924Y-93177319D01*
X125709116Y-92221511D01*
X124753308Y-93177319D01*
X124484806Y-93177319D01*
X124221521Y-92794808D01*
X124177001Y-92742013D01*
X124133219Y-92688597D01*
X124125651Y-92681119D01*
X123706093Y-92272258D01*
X123652162Y-92229113D01*
X123623542Y-92205553D01*
X123652274Y-92199838D01*
X123922527Y-92087896D01*
X124074504Y-91986349D01*
X124067398Y-92104501D01*
X124111155Y-92423581D01*
X124216321Y-92727994D01*
X124309302Y-92901950D01*
X124573703Y-92997714D01*
X125529511Y-92041906D01*
X125888721Y-92041906D01*
X126844529Y-92997714D01*
X127108930Y-92901950D01*
X127249820Y-92612335D01*
X127331500Y-92300798D01*
X127350834Y-91979311D01*
X127307077Y-91660231D01*
X127201911Y-91355818D01*
X127108930Y-91181862D01*
X126844529Y-91086098D01*
X125888721Y-92041906D01*
X125529511Y-92041906D01*
X125515369Y-92027764D01*
X125694974Y-91848159D01*
X125709116Y-91862301D01*
X126664924Y-90906493D01*
X126569160Y-90642092D01*
X126279545Y-90501202D01*
X125968008Y-90419522D01*
X125646521Y-90400188D01*
X125327441Y-90443945D01*
X125023028Y-90549111D01*
X124849072Y-90642092D01*
X124753309Y-90906491D01*
X124704116Y-90857298D01*
X124704116Y-90625646D01*
X124647048Y-90338748D01*
X124535106Y-90068495D01*
X124372591Y-89825274D01*
X124165748Y-89618431D01*
X123922527Y-89455916D01*
X123652274Y-89343974D01*
X123365376Y-89286906D01*
X123072856Y-89286906D01*
X122785958Y-89343974D01*
X122515705Y-89455916D01*
X122272484Y-89618431D01*
X122065641Y-89825274D01*
X122061116Y-89832046D01*
X122061116Y-87320303D01*
X122370324Y-87320303D01*
X122447959Y-87569378D01*
X122711999Y-87695277D01*
X122995527Y-87767245D01*
X123287647Y-87782517D01*
X123577135Y-87740505D01*
X123852863Y-87642825D01*
X123990273Y-87569378D01*
X124067908Y-87320303D01*
X123219116Y-86471511D01*
X122370324Y-87320303D01*
X122061116Y-87320303D01*
X122061116Y-87100302D01*
X122190719Y-87140698D01*
X123039511Y-86291906D01*
X122190719Y-85443114D01*
X122061116Y-85483510D01*
X122061116Y-85263509D01*
X122370324Y-85263509D01*
X123219116Y-86112301D01*
X123233259Y-86098159D01*
X123412864Y-86277764D01*
X123398721Y-86291906D01*
X124247513Y-87140698D01*
X124496588Y-87063063D01*
X124622487Y-86799023D01*
X124694455Y-86515495D01*
X124709727Y-86223375D01*
X124706879Y-86203751D01*
X124753309Y-86157321D01*
X124849072Y-86421720D01*
X125138687Y-86562610D01*
X125450224Y-86644290D01*
X125771711Y-86663624D01*
X126090791Y-86619867D01*
X126395204Y-86514701D01*
X126569160Y-86421720D01*
X126664924Y-86157319D01*
X125709116Y-85201511D01*
X125694974Y-85215654D01*
X125515369Y-85036049D01*
X125529511Y-85021906D01*
X125888721Y-85021906D01*
X126844529Y-85977714D01*
X127108930Y-85881950D01*
X127249820Y-85592335D01*
X127331500Y-85280798D01*
X127350834Y-84959311D01*
X127307077Y-84640231D01*
X127201911Y-84335818D01*
X127108930Y-84161862D01*
X126844529Y-84066098D01*
X125888721Y-85021906D01*
X125529511Y-85021906D01*
X124573703Y-84066098D01*
X124309302Y-84161862D01*
X124168412Y-84451477D01*
X124086732Y-84763014D01*
X124067398Y-85084501D01*
X124089047Y-85242367D01*
X124067907Y-85263507D01*
X123990273Y-85014434D01*
X123726233Y-84888535D01*
X123442705Y-84816567D01*
X123150585Y-84801295D01*
X122861097Y-84843307D01*
X122585369Y-84940987D01*
X122447959Y-85014434D01*
X122370324Y-85263509D01*
X122061116Y-85263509D01*
X122061116Y-83886493D01*
X124753308Y-83886493D01*
X125709116Y-84842301D01*
X126664924Y-83886493D01*
X126569160Y-83622092D01*
X126279545Y-83481202D01*
X125968008Y-83399522D01*
X125646521Y-83380188D01*
X125327441Y-83423945D01*
X125023028Y-83529111D01*
X124849072Y-83622092D01*
X124753308Y-83886493D01*
X122061116Y-83886493D01*
X122061116Y-78993906D01*
X123336542Y-78993906D01*
X123368715Y-78990737D01*
X123371668Y-78990758D01*
X123382256Y-78989720D01*
X123430088Y-78984693D01*
X123448494Y-78982880D01*
X123449108Y-78982694D01*
X123479305Y-78979520D01*
X123546967Y-78965631D01*
X123614799Y-78952692D01*
X123624974Y-78949619D01*
X123624984Y-78949617D01*
X123624993Y-78949613D01*
X123718203Y-78920760D01*
X123781902Y-78893984D01*
X123845909Y-78868123D01*
X123855291Y-78863134D01*
X123855299Y-78863131D01*
X123855305Y-78863127D01*
X123941141Y-78816716D01*
X123998420Y-78778080D01*
X124056186Y-78740280D01*
X124064428Y-78733557D01*
X124064432Y-78733554D01*
X124064436Y-78733550D01*
X124139619Y-78671353D01*
X124188284Y-78622347D01*
X124237623Y-78574032D01*
X124244405Y-78565834D01*
X124306081Y-78490213D01*
X124344319Y-78432661D01*
X124383325Y-78375695D01*
X124388376Y-78366352D01*
X124388381Y-78366345D01*
X124388385Y-78366336D01*
X124434197Y-78280175D01*
X124460511Y-78216333D01*
X124487720Y-78152850D01*
X124490866Y-78142686D01*
X124519070Y-78049268D01*
X124532479Y-77981550D01*
X124546846Y-77913959D01*
X124547958Y-77903378D01*
X124557480Y-77806261D01*
X124557480Y-77806250D01*
X124561116Y-77769332D01*
X124561116Y-76694480D01*
X124557947Y-76662307D01*
X124557968Y-76659354D01*
X124556930Y-76648766D01*
X124551904Y-76600942D01*
X124550090Y-76582528D01*
X124549904Y-76581914D01*
X124546730Y-76551718D01*
X124532843Y-76484062D01*
X124519902Y-76416223D01*
X124516829Y-76406048D01*
X124516827Y-76406038D01*
X124516823Y-76406029D01*
X124487970Y-76312819D01*
X124461204Y-76249145D01*
X124435333Y-76185112D01*
X124430344Y-76175731D01*
X124430341Y-76175723D01*
X124430337Y-76175717D01*
X124383925Y-76089881D01*
X124345308Y-76032628D01*
X124307490Y-75974836D01*
X124300771Y-75966599D01*
X124300764Y-75966589D01*
X124300756Y-75966581D01*
X124238563Y-75891403D01*
X124189557Y-75842738D01*
X124141242Y-75793399D01*
X124133044Y-75786617D01*
X124057423Y-75724941D01*
X123999853Y-75686691D01*
X123942904Y-75647697D01*
X123933562Y-75642646D01*
X123933555Y-75642641D01*
X123933548Y-75642638D01*
X123933546Y-75642637D01*
X123847385Y-75596825D01*
X123783543Y-75570511D01*
X123720060Y-75543302D01*
X123709896Y-75540156D01*
X123616478Y-75511951D01*
X123548723Y-75498535D01*
X123481169Y-75484176D01*
X123470588Y-75483064D01*
X123373471Y-75473542D01*
X123373460Y-75473542D01*
X123336542Y-75469906D01*
X122061116Y-75469906D01*
X122061116Y-74993906D01*
X123336542Y-74993906D01*
X123368715Y-74990737D01*
X123371668Y-74990758D01*
X123382256Y-74989720D01*
X123430088Y-74984693D01*
X123448494Y-74982880D01*
X123449108Y-74982694D01*
X123479305Y-74979520D01*
X123546967Y-74965631D01*
X123614799Y-74952692D01*
X123624974Y-74949619D01*
X123624984Y-74949617D01*
X123624993Y-74949613D01*
X123718203Y-74920760D01*
X123781902Y-74893984D01*
X123845909Y-74868123D01*
X123855291Y-74863134D01*
X123855299Y-74863131D01*
X123855305Y-74863127D01*
X123941141Y-74816716D01*
X123998420Y-74778080D01*
X124056186Y-74740280D01*
X124064428Y-74733557D01*
X124064432Y-74733554D01*
X124064436Y-74733550D01*
X124139619Y-74671353D01*
X124188284Y-74622347D01*
X124237623Y-74574032D01*
X124244405Y-74565834D01*
X124306081Y-74490213D01*
X124344319Y-74432661D01*
X124383325Y-74375695D01*
X124388376Y-74366352D01*
X124388381Y-74366345D01*
X124388385Y-74366336D01*
X124434197Y-74280175D01*
X124460511Y-74216333D01*
X124487720Y-74152850D01*
X124490866Y-74142686D01*
X124519070Y-74049268D01*
X124532479Y-73981550D01*
X124546846Y-73913959D01*
X124547958Y-73903378D01*
X124557480Y-73806261D01*
X124557480Y-73806250D01*
X124561116Y-73769332D01*
X124561116Y-71694480D01*
X124557947Y-71662307D01*
X124557968Y-71659354D01*
X124556930Y-71648766D01*
X124551904Y-71600942D01*
X124550090Y-71582528D01*
X124549904Y-71581914D01*
X124546730Y-71551718D01*
X124532843Y-71484062D01*
X124519902Y-71416223D01*
X124516829Y-71406048D01*
X124516827Y-71406038D01*
X124516823Y-71406029D01*
X124487970Y-71312819D01*
X124461204Y-71249145D01*
X124435333Y-71185112D01*
X124430344Y-71175731D01*
X124430341Y-71175723D01*
X124430337Y-71175717D01*
X124383925Y-71089881D01*
X124345308Y-71032628D01*
X124307490Y-70974836D01*
X124300771Y-70966599D01*
X124300764Y-70966589D01*
X124300756Y-70966581D01*
X124238563Y-70891403D01*
X124189557Y-70842738D01*
X124141242Y-70793399D01*
X124133044Y-70786617D01*
X124057423Y-70724941D01*
X123999853Y-70686691D01*
X123942904Y-70647697D01*
X123933562Y-70642646D01*
X123933555Y-70642641D01*
X123933548Y-70642638D01*
X123933546Y-70642637D01*
X123847385Y-70596825D01*
X123783543Y-70570511D01*
X123720060Y-70543302D01*
X123709896Y-70540156D01*
X123616478Y-70511951D01*
X123548723Y-70498535D01*
X123481169Y-70484176D01*
X123470588Y-70483064D01*
X123373471Y-70473542D01*
X123373460Y-70473542D01*
X123336542Y-70469906D01*
X122563693Y-70469906D01*
X124800190Y-68707203D01*
X124806703Y-68700942D01*
X124817217Y-68692244D01*
X124844128Y-68665144D01*
X124873502Y-68640723D01*
X124880927Y-68633104D01*
X125054106Y-68452891D01*
X125096884Y-68398647D01*
X125140393Y-68345033D01*
X125146192Y-68336123D01*
X125146196Y-68336118D01*
X125146199Y-68336113D01*
X125281072Y-68125700D01*
X125312486Y-68064206D01*
X125344765Y-68003138D01*
X125348726Y-67993264D01*
X125348727Y-67993263D01*
X125348729Y-67993257D01*
X125440164Y-67760656D01*
X125459029Y-67694252D01*
X125478838Y-67628060D01*
X125480805Y-67617604D01*
X125525322Y-67371666D01*
X125530933Y-67302834D01*
X125537505Y-67234076D01*
X125537404Y-67223452D01*
X125537405Y-67223441D01*
X125537404Y-67223431D01*
X125533302Y-66973537D01*
X125525437Y-66904933D01*
X125518529Y-66836208D01*
X125516364Y-66825792D01*
X125463802Y-66581447D01*
X125442757Y-66515663D01*
X125422635Y-66449599D01*
X125418490Y-66439808D01*
X125418488Y-66439802D01*
X125418485Y-66439797D01*
X125319467Y-66210321D01*
X125286047Y-66149882D01*
X125253474Y-66088980D01*
X125247503Y-66080174D01*
X125105794Y-65874297D01*
X125061271Y-65821500D01*
X125061142Y-65821342D01*
X125061180Y-65385591D01*
X149241216Y-65385591D01*
X149241216Y-65578221D01*
X149278796Y-65767149D01*
X149352512Y-65945116D01*
X149459531Y-66105281D01*
X149595741Y-66241491D01*
X149755906Y-66348510D01*
X149933873Y-66422226D01*
X150122801Y-66459806D01*
X150315431Y-66459806D01*
X150504359Y-66422226D01*
X150682326Y-66348510D01*
X150842491Y-66241491D01*
X150958391Y-66125591D01*
X151661216Y-66125591D01*
X151661216Y-66318221D01*
X151698796Y-66507149D01*
X151772512Y-66685116D01*
X151879531Y-66845281D01*
X152015741Y-66981491D01*
X152175906Y-67088510D01*
X152353873Y-67162226D01*
X152542801Y-67199806D01*
X152735431Y-67199806D01*
X152924359Y-67162226D01*
X153102326Y-67088510D01*
X153262491Y-66981491D01*
X153375193Y-66868789D01*
X153379531Y-66875281D01*
X153515741Y-67011491D01*
X153675906Y-67118510D01*
X153853873Y-67192226D01*
X154042801Y-67229806D01*
X154235431Y-67229806D01*
X154424359Y-67192226D01*
X154602326Y-67118510D01*
X154762491Y-67011491D01*
X154764988Y-67008994D01*
X154919895Y-67112499D01*
X155097862Y-67186215D01*
X155286790Y-67223795D01*
X155479420Y-67223795D01*
X155668348Y-67186215D01*
X155846315Y-67112499D01*
X156006480Y-67005480D01*
X156142690Y-66869270D01*
X156249709Y-66709105D01*
X156323425Y-66531138D01*
X156361005Y-66342210D01*
X156361005Y-66149580D01*
X156323425Y-65960652D01*
X156249709Y-65782685D01*
X156142690Y-65622520D01*
X156006480Y-65486310D01*
X155870710Y-65395591D01*
X161511216Y-65395591D01*
X161511216Y-65588221D01*
X161548796Y-65777149D01*
X161622512Y-65955116D01*
X161729531Y-66115281D01*
X161865741Y-66251491D01*
X162025906Y-66358510D01*
X162203873Y-66432226D01*
X162392801Y-66469806D01*
X162585431Y-66469806D01*
X162774359Y-66432226D01*
X162952326Y-66358510D01*
X163112491Y-66251491D01*
X163248701Y-66115281D01*
X163355720Y-65955116D01*
X163429436Y-65777149D01*
X163467016Y-65588221D01*
X163467016Y-65395591D01*
X163429436Y-65206663D01*
X163355720Y-65028696D01*
X163248701Y-64868531D01*
X163112491Y-64732321D01*
X162952326Y-64625302D01*
X162774359Y-64551586D01*
X162585431Y-64514006D01*
X162392801Y-64514006D01*
X162203873Y-64551586D01*
X162025906Y-64625302D01*
X161865741Y-64732321D01*
X161729531Y-64868531D01*
X161622512Y-65028696D01*
X161548796Y-65206663D01*
X161511216Y-65395591D01*
X155870710Y-65395591D01*
X155846315Y-65379291D01*
X155668348Y-65305575D01*
X155479420Y-65267995D01*
X155286790Y-65267995D01*
X155097862Y-65305575D01*
X154919895Y-65379291D01*
X154759730Y-65486310D01*
X154757233Y-65488807D01*
X154602326Y-65385302D01*
X154424359Y-65311586D01*
X154235431Y-65274006D01*
X154042801Y-65274006D01*
X153853873Y-65311586D01*
X153675906Y-65385302D01*
X153515741Y-65492321D01*
X153403039Y-65605023D01*
X153398701Y-65598531D01*
X153262491Y-65462321D01*
X153102326Y-65355302D01*
X152924359Y-65281586D01*
X152735431Y-65244006D01*
X152542801Y-65244006D01*
X152353873Y-65281586D01*
X152175906Y-65355302D01*
X152015741Y-65462321D01*
X151879531Y-65598531D01*
X151772512Y-65758696D01*
X151698796Y-65936663D01*
X151661216Y-66125591D01*
X150958391Y-66125591D01*
X150978701Y-66105281D01*
X151085720Y-65945116D01*
X151159436Y-65767149D01*
X151197016Y-65578221D01*
X151197016Y-65385591D01*
X151159436Y-65196663D01*
X151085720Y-65018696D01*
X150978701Y-64858531D01*
X150842491Y-64722321D01*
X150682326Y-64615302D01*
X150504359Y-64541586D01*
X150315431Y-64504006D01*
X150122801Y-64504006D01*
X149933873Y-64541586D01*
X149755906Y-64615302D01*
X149595741Y-64722321D01*
X149459531Y-64858531D01*
X149352512Y-65018696D01*
X149278796Y-65196663D01*
X149241216Y-65385591D01*
X125061180Y-65385591D01*
X125061440Y-62395591D01*
X160738906Y-62395591D01*
X160738906Y-62588221D01*
X160776486Y-62777149D01*
X160850202Y-62955116D01*
X160957221Y-63115281D01*
X161093431Y-63251491D01*
X161253596Y-63358510D01*
X161431563Y-63432226D01*
X161620491Y-63469806D01*
X161813121Y-63469806D01*
X162002049Y-63432226D01*
X162180016Y-63358510D01*
X162340181Y-63251491D01*
X162476391Y-63115281D01*
X162583410Y-62955116D01*
X162657126Y-62777149D01*
X162694706Y-62588221D01*
X162694706Y-62395591D01*
X162657126Y-62206663D01*
X162583410Y-62028696D01*
X162476391Y-61868531D01*
X162340181Y-61732321D01*
X162180016Y-61625302D01*
X162002049Y-61551586D01*
X161813121Y-61514006D01*
X161620491Y-61514006D01*
X161431563Y-61551586D01*
X161253596Y-61625302D01*
X161093431Y-61732321D01*
X160957221Y-61868531D01*
X160850202Y-62028696D01*
X160776486Y-62206663D01*
X160738906Y-62395591D01*
X125061440Y-62395591D01*
X125061996Y-56037462D01*
X125062000Y-56037426D01*
X125062000Y-55997007D01*
X125062003Y-55962641D01*
X125062000Y-55962611D01*
X125062000Y-48995591D01*
X128561216Y-48995591D01*
X128561216Y-49188221D01*
X128598796Y-49377149D01*
X128672512Y-49555116D01*
X128779531Y-49715281D01*
X128915741Y-49851491D01*
X129075906Y-49958510D01*
X129231642Y-50023018D01*
X129172068Y-50166842D01*
X129115000Y-50453740D01*
X129115000Y-50746260D01*
X129172068Y-51033158D01*
X129284010Y-51303411D01*
X129446525Y-51546632D01*
X129653368Y-51753475D01*
X129896589Y-51915990D01*
X130166842Y-52027932D01*
X130453740Y-52085000D01*
X130746260Y-52085000D01*
X131033158Y-52027932D01*
X131303411Y-51915990D01*
X131546632Y-51753475D01*
X131753475Y-51546632D01*
X131915990Y-51303411D01*
X132027932Y-51033158D01*
X132085000Y-50746260D01*
X132085000Y-50453740D01*
X136115000Y-50453740D01*
X136115000Y-50746260D01*
X136172068Y-51033158D01*
X136284010Y-51303411D01*
X136446525Y-51546632D01*
X136653368Y-51753475D01*
X136896589Y-51915990D01*
X137166842Y-52027932D01*
X137453740Y-52085000D01*
X137746260Y-52085000D01*
X138033158Y-52027932D01*
X138303411Y-51915990D01*
X138546632Y-51753475D01*
X138753475Y-51546632D01*
X138915990Y-51303411D01*
X139027932Y-51033158D01*
X139085000Y-50746260D01*
X139085000Y-50453740D01*
X169015000Y-50453740D01*
X169015000Y-50746260D01*
X169072068Y-51033158D01*
X169184010Y-51303411D01*
X169346525Y-51546632D01*
X169553368Y-51753475D01*
X169796589Y-51915990D01*
X170066842Y-52027932D01*
X170353740Y-52085000D01*
X170646260Y-52085000D01*
X170933158Y-52027932D01*
X171203411Y-51915990D01*
X171446632Y-51753475D01*
X171653475Y-51546632D01*
X171815990Y-51303411D01*
X171927932Y-51033158D01*
X171985000Y-50746260D01*
X171985000Y-50453740D01*
X176015000Y-50453740D01*
X176015000Y-50746260D01*
X176072068Y-51033158D01*
X176184010Y-51303411D01*
X176346525Y-51546632D01*
X176553368Y-51753475D01*
X176796589Y-51915990D01*
X177066842Y-52027932D01*
X177353740Y-52085000D01*
X177646260Y-52085000D01*
X177933158Y-52027932D01*
X178203411Y-51915990D01*
X178446632Y-51753475D01*
X178653475Y-51546632D01*
X178815990Y-51303411D01*
X178927932Y-51033158D01*
X178985000Y-50746260D01*
X178985000Y-50453740D01*
X178927932Y-50166842D01*
X178815990Y-49896589D01*
X178653475Y-49653368D01*
X178446632Y-49446525D01*
X178203411Y-49284010D01*
X177933158Y-49172068D01*
X177646260Y-49115000D01*
X177353740Y-49115000D01*
X177066842Y-49172068D01*
X176796589Y-49284010D01*
X176553368Y-49446525D01*
X176346525Y-49653368D01*
X176184010Y-49896589D01*
X176072068Y-50166842D01*
X176015000Y-50453740D01*
X171985000Y-50453740D01*
X171927932Y-50166842D01*
X171815990Y-49896589D01*
X171653475Y-49653368D01*
X171446632Y-49446525D01*
X171203411Y-49284010D01*
X170933158Y-49172068D01*
X170646260Y-49115000D01*
X170353740Y-49115000D01*
X170066842Y-49172068D01*
X169796589Y-49284010D01*
X169553368Y-49446525D01*
X169346525Y-49653368D01*
X169184010Y-49896589D01*
X169072068Y-50166842D01*
X169015000Y-50453740D01*
X139085000Y-50453740D01*
X139027932Y-50166842D01*
X138915990Y-49896589D01*
X138753475Y-49653368D01*
X138546632Y-49446525D01*
X138303411Y-49284010D01*
X138033158Y-49172068D01*
X137746260Y-49115000D01*
X137453740Y-49115000D01*
X137166842Y-49172068D01*
X136896589Y-49284010D01*
X136653368Y-49446525D01*
X136446525Y-49653368D01*
X136284010Y-49896589D01*
X136172068Y-50166842D01*
X136115000Y-50453740D01*
X132085000Y-50453740D01*
X132027932Y-50166842D01*
X131915990Y-49896589D01*
X131753475Y-49653368D01*
X131546632Y-49446525D01*
X131303411Y-49284010D01*
X131033158Y-49172068D01*
X130746260Y-49115000D01*
X130517016Y-49115000D01*
X130517016Y-48995591D01*
X130479436Y-48806663D01*
X130405720Y-48628696D01*
X130298701Y-48468531D01*
X130162491Y-48332321D01*
X130002326Y-48225302D01*
X129824359Y-48151586D01*
X129635431Y-48114006D01*
X129442801Y-48114006D01*
X129253873Y-48151586D01*
X129075906Y-48225302D01*
X128915741Y-48332321D01*
X128779531Y-48468531D01*
X128672512Y-48628696D01*
X128598796Y-48806663D01*
X128561216Y-48995591D01*
X125062000Y-48995591D01*
X125062000Y-46037266D01*
X125089162Y-45760250D01*
X125158789Y-45529630D01*
X125271887Y-45316924D01*
X125424145Y-45130237D01*
X125609761Y-44976682D01*
X125821671Y-44862102D01*
X126051797Y-44790866D01*
X126326442Y-44762000D01*
X181762734Y-44762000D01*
X182039750Y-44789162D01*
%TA.AperFunction,Conductor*%
D20*
G36*
X182039750Y-44789162D02*
G01*
X182270370Y-44858789D01*
X182483076Y-44971887D01*
X182669763Y-45124145D01*
X182823318Y-45309761D01*
X182937898Y-45521671D01*
X183009134Y-45751797D01*
X183038000Y-46026442D01*
X183038001Y-55996920D01*
X183037144Y-65819774D01*
X183001348Y-65865165D01*
X182957839Y-65918778D01*
X182952040Y-65927689D01*
X182952036Y-65927694D01*
X182952033Y-65927699D01*
X182817160Y-66138111D01*
X182785738Y-66199622D01*
X182753467Y-66260674D01*
X182749508Y-66270544D01*
X182749505Y-66270549D01*
X182749503Y-66270555D01*
X182658068Y-66503156D01*
X182639193Y-66569596D01*
X182619395Y-66635752D01*
X182617427Y-66646208D01*
X182572910Y-66892145D01*
X182567298Y-66960984D01*
X182560727Y-67029736D01*
X182560828Y-67040360D01*
X182560827Y-67040370D01*
X182560828Y-67040375D01*
X182564930Y-67290276D01*
X182572796Y-67358890D01*
X182579703Y-67427603D01*
X182581868Y-67438020D01*
X182634430Y-67682365D01*
X182655475Y-67748149D01*
X182675597Y-67814213D01*
X182679744Y-67824010D01*
X182778765Y-68053491D01*
X182812185Y-68113930D01*
X182844758Y-68174832D01*
X182850729Y-68183637D01*
X182992438Y-68389515D01*
X183036961Y-68442313D01*
X183080741Y-68495726D01*
X183088309Y-68503204D01*
X183215443Y-68627095D01*
X183216941Y-68629244D01*
X183298041Y-68707202D01*
X185534538Y-70469906D01*
X184761690Y-70469906D01*
X184729517Y-70473075D01*
X184726564Y-70473054D01*
X184715976Y-70474092D01*
X184668152Y-70479118D01*
X184649738Y-70480932D01*
X184649124Y-70481118D01*
X184618928Y-70484292D01*
X184551272Y-70498179D01*
X184483433Y-70511120D01*
X184473258Y-70514193D01*
X184473248Y-70514195D01*
X184473239Y-70514199D01*
X184380029Y-70543052D01*
X184316355Y-70569818D01*
X184252322Y-70595689D01*
X184242941Y-70600678D01*
X184242933Y-70600681D01*
X184242929Y-70600684D01*
X184157091Y-70647097D01*
X184099838Y-70685714D01*
X184042046Y-70723532D01*
X184033809Y-70730251D01*
X184033799Y-70730258D01*
X184033791Y-70730266D01*
X183958613Y-70792459D01*
X183909948Y-70841465D01*
X183860609Y-70889780D01*
X183853827Y-70897978D01*
X183792151Y-70973599D01*
X183753901Y-71031169D01*
X183714907Y-71088118D01*
X183709856Y-71097460D01*
X183709851Y-71097467D01*
X183709848Y-71097474D01*
X183709847Y-71097476D01*
X183664035Y-71183637D01*
X183637721Y-71247479D01*
X183610512Y-71310962D01*
X183607366Y-71321126D01*
X183579161Y-71414544D01*
X183565745Y-71482299D01*
X183551386Y-71549853D01*
X183550274Y-71560434D01*
X183540752Y-71657551D01*
X183540752Y-71657563D01*
X183537116Y-71694481D01*
X183537117Y-73769332D01*
X183540285Y-73801495D01*
X183540264Y-73804458D01*
X183541302Y-73815046D01*
X183546345Y-73863029D01*
X183548143Y-73881284D01*
X183548328Y-73881893D01*
X183551502Y-73912095D01*
X183565391Y-73979757D01*
X183578330Y-74047589D01*
X183581403Y-74057764D01*
X183581405Y-74057774D01*
X183581409Y-74057783D01*
X183610262Y-74150993D01*
X183637038Y-74214692D01*
X183662899Y-74278699D01*
X183667888Y-74288081D01*
X183667891Y-74288089D01*
X183667892Y-74288090D01*
X183667894Y-74288093D01*
X183714306Y-74373931D01*
X183752942Y-74431210D01*
X183790742Y-74488976D01*
X183797464Y-74497216D01*
X183797468Y-74497222D01*
X183797472Y-74497226D01*
X183859669Y-74572409D01*
X183908675Y-74621074D01*
X183956990Y-74670413D01*
X183965188Y-74677195D01*
X184040809Y-74738871D01*
X184098361Y-74777109D01*
X184155327Y-74816115D01*
X184164670Y-74821166D01*
X184164677Y-74821171D01*
X184164684Y-74821174D01*
X184164686Y-74821175D01*
X184250847Y-74866987D01*
X184314689Y-74893301D01*
X184378172Y-74920510D01*
X184388336Y-74923656D01*
X184481754Y-74951860D01*
X184549472Y-74965269D01*
X184617063Y-74979636D01*
X184627644Y-74980748D01*
X184724761Y-74990270D01*
X184724772Y-74990270D01*
X184761690Y-74993906D01*
X186037116Y-74993906D01*
X186037117Y-75469906D01*
X184761690Y-75469906D01*
X184729517Y-75473075D01*
X184726564Y-75473054D01*
X184715976Y-75474092D01*
X184668152Y-75479118D01*
X184649738Y-75480932D01*
X184649124Y-75481118D01*
X184618928Y-75484292D01*
X184551272Y-75498179D01*
X184483433Y-75511120D01*
X184473258Y-75514193D01*
X184473248Y-75514195D01*
X184473239Y-75514199D01*
X184380029Y-75543052D01*
X184316355Y-75569818D01*
X184252322Y-75595689D01*
X184242941Y-75600678D01*
X184242933Y-75600681D01*
X184242929Y-75600684D01*
X184157091Y-75647097D01*
X184099838Y-75685714D01*
X184042046Y-75723532D01*
X184033809Y-75730251D01*
X184033799Y-75730258D01*
X184033791Y-75730266D01*
X183958613Y-75792459D01*
X183909948Y-75841465D01*
X183860609Y-75889780D01*
X183853827Y-75897978D01*
X183792151Y-75973599D01*
X183753901Y-76031169D01*
X183714907Y-76088118D01*
X183709856Y-76097460D01*
X183709851Y-76097467D01*
X183709848Y-76097474D01*
X183709847Y-76097476D01*
X183664035Y-76183637D01*
X183637721Y-76247479D01*
X183610512Y-76310962D01*
X183607366Y-76321126D01*
X183579161Y-76414544D01*
X183565745Y-76482299D01*
X183551386Y-76549853D01*
X183550274Y-76560434D01*
X183540752Y-76657551D01*
X183540752Y-76657563D01*
X183537116Y-76694481D01*
X183537117Y-77769332D01*
X183540285Y-77801495D01*
X183540264Y-77804458D01*
X183541302Y-77815046D01*
X183546345Y-77863029D01*
X183548143Y-77881284D01*
X183548328Y-77881893D01*
X183551502Y-77912095D01*
X183565391Y-77979757D01*
X183578330Y-78047589D01*
X183581403Y-78057764D01*
X183581405Y-78057774D01*
X183581409Y-78057783D01*
X183610262Y-78150993D01*
X183637038Y-78214692D01*
X183662899Y-78278699D01*
X183667888Y-78288081D01*
X183667891Y-78288089D01*
X183667892Y-78288090D01*
X183667894Y-78288093D01*
X183714306Y-78373931D01*
X183752942Y-78431210D01*
X183790742Y-78488976D01*
X183797464Y-78497216D01*
X183797468Y-78497222D01*
X183797472Y-78497226D01*
X183859669Y-78572409D01*
X183908675Y-78621074D01*
X183956990Y-78670413D01*
X183965188Y-78677195D01*
X184040809Y-78738871D01*
X184098361Y-78777109D01*
X184155327Y-78816115D01*
X184164670Y-78821166D01*
X184164677Y-78821171D01*
X184164684Y-78821174D01*
X184164686Y-78821175D01*
X184250847Y-78866987D01*
X184314689Y-78893301D01*
X184378172Y-78920510D01*
X184388336Y-78923656D01*
X184481754Y-78951860D01*
X184549472Y-78965269D01*
X184617063Y-78979636D01*
X184627644Y-78980748D01*
X184724761Y-78990270D01*
X184724772Y-78990270D01*
X184761690Y-78993906D01*
X186037116Y-78993906D01*
X186037117Y-85483511D01*
X185907513Y-85443114D01*
X185058721Y-86291906D01*
X185907513Y-87140698D01*
X186037117Y-87100301D01*
X186037117Y-89832047D01*
X186032591Y-89825274D01*
X185825748Y-89618431D01*
X185582527Y-89455916D01*
X185312274Y-89343974D01*
X185025376Y-89286906D01*
X184732856Y-89286906D01*
X184445958Y-89343974D01*
X184175705Y-89455916D01*
X183932484Y-89618431D01*
X183725641Y-89825274D01*
X183563126Y-90068495D01*
X183451184Y-90338748D01*
X183394116Y-90625646D01*
X183394116Y-90857298D01*
X183344923Y-90906491D01*
X183249160Y-90642092D01*
X182959545Y-90501202D01*
X182648008Y-90419522D01*
X182326521Y-90400188D01*
X182007441Y-90443945D01*
X181703028Y-90549111D01*
X181529072Y-90642092D01*
X181433309Y-90906491D01*
X181317641Y-90790823D01*
X181281737Y-90826727D01*
X181281737Y-87320303D01*
X184030324Y-87320303D01*
X184107959Y-87569378D01*
X184371999Y-87695277D01*
X184655527Y-87767245D01*
X184947647Y-87782517D01*
X185237135Y-87740505D01*
X185512863Y-87642825D01*
X185650273Y-87569378D01*
X185727908Y-87320303D01*
X184879116Y-86471511D01*
X184030324Y-87320303D01*
X181281737Y-87320303D01*
X181281737Y-86237085D01*
X181317641Y-86272989D01*
X181433309Y-86157321D01*
X181529072Y-86421720D01*
X181818687Y-86562610D01*
X182130224Y-86644290D01*
X182451711Y-86663624D01*
X182770791Y-86619867D01*
X183075204Y-86514701D01*
X183249160Y-86421720D01*
X183344923Y-86157321D01*
X183396431Y-86208829D01*
X183388505Y-86360437D01*
X183430517Y-86649925D01*
X183528197Y-86925653D01*
X183601644Y-87063063D01*
X183850719Y-87140698D01*
X184699511Y-86291906D01*
X184685369Y-86277764D01*
X184864974Y-86098159D01*
X184879116Y-86112301D01*
X185727908Y-85263509D01*
X185650273Y-85014434D01*
X185386233Y-84888535D01*
X185102705Y-84816567D01*
X184810585Y-84801295D01*
X184521097Y-84843307D01*
X184245369Y-84940987D01*
X184107959Y-85014434D01*
X184030325Y-85263507D01*
X184013549Y-85246731D01*
X184030834Y-84959311D01*
X183987077Y-84640231D01*
X183881911Y-84335818D01*
X183788930Y-84161862D01*
X183524529Y-84066098D01*
X182568721Y-85021906D01*
X182582864Y-85036049D01*
X182403259Y-85215654D01*
X182389116Y-85201511D01*
X182374974Y-85215654D01*
X182195369Y-85036049D01*
X182209511Y-85021906D01*
X182195369Y-85007764D01*
X182374974Y-84828159D01*
X182389116Y-84842301D01*
X183344924Y-83886493D01*
X183249160Y-83622092D01*
X182959545Y-83481202D01*
X182648008Y-83399522D01*
X182326521Y-83380188D01*
X182007441Y-83423945D01*
X181703028Y-83529111D01*
X181529072Y-83622092D01*
X181433309Y-83886491D01*
X181317641Y-83770823D01*
X181281737Y-83806727D01*
X181281737Y-59252996D01*
X181286018Y-59209527D01*
X181281737Y-59166058D01*
X181281737Y-59166050D01*
X181268932Y-59036037D01*
X181218326Y-58869214D01*
X181136148Y-58715468D01*
X181105381Y-58677979D01*
X181053269Y-58614480D01*
X181053267Y-58614478D01*
X181025554Y-58580710D01*
X180991788Y-58552999D01*
X177391385Y-54952597D01*
X177398701Y-54945281D01*
X177505720Y-54785116D01*
X177579436Y-54607149D01*
X177617016Y-54418221D01*
X177617016Y-54225591D01*
X177579436Y-54036663D01*
X177505720Y-53858696D01*
X177398701Y-53698531D01*
X177262491Y-53562321D01*
X177102326Y-53455302D01*
X176924359Y-53381586D01*
X176735431Y-53344006D01*
X176542801Y-53344006D01*
X176353873Y-53381586D01*
X176175906Y-53455302D01*
X176015741Y-53562321D01*
X175976982Y-53601080D01*
X175919429Y-53570317D01*
X175752606Y-53519711D01*
X175622593Y-53506906D01*
X175622585Y-53506906D01*
X175579116Y-53502625D01*
X175535647Y-53506906D01*
X171667914Y-53506906D01*
X171534359Y-53451586D01*
X171345431Y-53414006D01*
X171152801Y-53414006D01*
X170963873Y-53451586D01*
X170785906Y-53525302D01*
X170625741Y-53632321D01*
X170489531Y-53768531D01*
X170382512Y-53928696D01*
X170308796Y-54106663D01*
X170271216Y-54295591D01*
X170271216Y-54488221D01*
X170308796Y-54677149D01*
X170382512Y-54855116D01*
X170426933Y-54921596D01*
X140895610Y-54921596D01*
X140762055Y-54866276D01*
X140573127Y-54828696D01*
X140380497Y-54828696D01*
X140191569Y-54866276D01*
X140013602Y-54939992D01*
X139853437Y-55047011D01*
X139717227Y-55183221D01*
X139679088Y-55240300D01*
X138711041Y-54272252D01*
X138655720Y-54138696D01*
X138548701Y-53978531D01*
X138412491Y-53842321D01*
X138252326Y-53735302D01*
X138074359Y-53661586D01*
X137885431Y-53624006D01*
X137692801Y-53624006D01*
X137503873Y-53661586D01*
X137325906Y-53735302D01*
X137165741Y-53842321D01*
X137029531Y-53978531D01*
X136922512Y-54138696D01*
X136848796Y-54316663D01*
X136811216Y-54505591D01*
X136811216Y-54698221D01*
X136848796Y-54887149D01*
X136922512Y-55065116D01*
X137029531Y-55225281D01*
X137165741Y-55361491D01*
X137325906Y-55468510D01*
X137459462Y-55523831D01*
X139082586Y-57146955D01*
X139110299Y-57180723D01*
X139144067Y-57208436D01*
X139144069Y-57208438D01*
X139186914Y-57243600D01*
X139245057Y-57291317D01*
X139398803Y-57373495D01*
X139565626Y-57424101D01*
X139695639Y-57436906D01*
X139695649Y-57436906D01*
X139739115Y-57441187D01*
X139782581Y-57436906D01*
X166948510Y-57436906D01*
X168025178Y-58513575D01*
X168080498Y-58647130D01*
X168187517Y-58807295D01*
X168323727Y-58943505D01*
X168483892Y-59050524D01*
X168661859Y-59124240D01*
X168850787Y-59161820D01*
X169043417Y-59161820D01*
X169232345Y-59124240D01*
X169365900Y-59068920D01*
X176784552Y-59068920D01*
X178114116Y-60398485D01*
X178114116Y-69498060D01*
X178089743Y-69461925D01*
X178051930Y-69404140D01*
X178045205Y-69395896D01*
X177796398Y-69095141D01*
X177747369Y-69046453D01*
X177699072Y-68997133D01*
X177690874Y-68990351D01*
X177388390Y-68743651D01*
X177330892Y-68705450D01*
X177273880Y-68666412D01*
X177264521Y-68661352D01*
X176919879Y-68478102D01*
X176855983Y-68451766D01*
X176792546Y-68424576D01*
X176782390Y-68421432D01*
X176782384Y-68421430D01*
X176782378Y-68421429D01*
X176408711Y-68308612D01*
X176340927Y-68295190D01*
X176273409Y-68280839D01*
X176262835Y-68279728D01*
X176262826Y-68279726D01*
X176262818Y-68279726D01*
X175874359Y-68241637D01*
X175874354Y-68241637D01*
X175837426Y-68238000D01*
X132262574Y-68238000D01*
X132229357Y-68241272D01*
X132216974Y-68241185D01*
X132206385Y-68242223D01*
X131818193Y-68283024D01*
X131750487Y-68296922D01*
X131682700Y-68309853D01*
X131672514Y-68312928D01*
X131299640Y-68428352D01*
X131235985Y-68455110D01*
X131171938Y-68480986D01*
X131162544Y-68485981D01*
X130819189Y-68671632D01*
X130761925Y-68710257D01*
X130704140Y-68748070D01*
X130695896Y-68754795D01*
X130395141Y-69003602D01*
X130346453Y-69052631D01*
X130297133Y-69100928D01*
X130290351Y-69109126D01*
X130043651Y-69411610D01*
X130005450Y-69469108D01*
X129966412Y-69526120D01*
X129961352Y-69535479D01*
X129778102Y-69880121D01*
X129751766Y-69944017D01*
X129724576Y-70007454D01*
X129721432Y-70017610D01*
X129721430Y-70017616D01*
X129721430Y-70017618D01*
X129608612Y-70391289D01*
X129595190Y-70459073D01*
X129580839Y-70526591D01*
X129579728Y-70537165D01*
X129579726Y-70537174D01*
X129579726Y-70537182D01*
X129541637Y-70925641D01*
X129541637Y-70925647D01*
X129538000Y-70962575D01*
X129538001Y-91037426D01*
X129541272Y-91070634D01*
X129541185Y-91083026D01*
X129542223Y-91093614D01*
X129583024Y-91481807D01*
X129596909Y-91549450D01*
X129609852Y-91617300D01*
X129612928Y-91627485D01*
X129728352Y-92000360D01*
X129755110Y-92064015D01*
X129780986Y-92128062D01*
X129785981Y-92137456D01*
X129965250Y-92469005D01*
X129925906Y-92485302D01*
X129765741Y-92592321D01*
X129629531Y-92728531D01*
X129522512Y-92888696D01*
X129448796Y-93066663D01*
X129412064Y-93251327D01*
X128868102Y-93795290D01*
X128839026Y-93819152D01*
X128801009Y-93865477D01*
X128743803Y-93935182D01*
X128726927Y-93966756D01*
X128673046Y-94067560D01*
X128629474Y-94211197D01*
X128619087Y-94316663D01*
X128614762Y-94360574D01*
X128618448Y-94397997D01*
X128618449Y-97313476D01*
X128513844Y-97470028D01*
X128440128Y-97647995D01*
X128402548Y-97836923D01*
X128402548Y-98029553D01*
X128440128Y-98218481D01*
X128513844Y-98396448D01*
X128620863Y-98556613D01*
X128757073Y-98692823D01*
X128917238Y-98799842D01*
X129095205Y-98873558D01*
X129284133Y-98911138D01*
X129476763Y-98911138D01*
X129665691Y-98873558D01*
X129843658Y-98799842D01*
X130003823Y-98692823D01*
X130140033Y-98556613D01*
X130247052Y-98396448D01*
X130320768Y-98218481D01*
X130352449Y-98059210D01*
X130383873Y-98072226D01*
X130572801Y-98109806D01*
X130765431Y-98109806D01*
X130954359Y-98072226D01*
X131132326Y-97998510D01*
X131161833Y-97978794D01*
X131179531Y-98005281D01*
X131315741Y-98141491D01*
X131475906Y-98248510D01*
X131653873Y-98322226D01*
X131842801Y-98359806D01*
X132034039Y-98359806D01*
X132102512Y-98525116D01*
X132209531Y-98685281D01*
X132345741Y-98821491D01*
X132505906Y-98928510D01*
X132683873Y-99002226D01*
X132872801Y-99039806D01*
X133065431Y-99039806D01*
X133254359Y-99002226D01*
X133432326Y-98928510D01*
X133592491Y-98821491D01*
X133728701Y-98685281D01*
X133835720Y-98525116D01*
X133864563Y-98455481D01*
X133885741Y-98476659D01*
X134045906Y-98583678D01*
X134223873Y-98657394D01*
X134412801Y-98694974D01*
X134605431Y-98694974D01*
X134794359Y-98657394D01*
X134972326Y-98583678D01*
X135132491Y-98476659D01*
X135268701Y-98340449D01*
X135306694Y-98283588D01*
X135463309Y-98314741D01*
X135655939Y-98314741D01*
X135844867Y-98277161D01*
X136022834Y-98203445D01*
X136182999Y-98096426D01*
X136319209Y-97960216D01*
X136426228Y-97800051D01*
X136499944Y-97622084D01*
X136537524Y-97433156D01*
X136537524Y-97240526D01*
X136499944Y-97051598D01*
X136426228Y-96873631D01*
X136319209Y-96713466D01*
X136241522Y-96635779D01*
X136312494Y-96529562D01*
X136386210Y-96351595D01*
X136423790Y-96162667D01*
X136423790Y-95970037D01*
X136386210Y-95781109D01*
X136312494Y-95603142D01*
X136205475Y-95442977D01*
X136069265Y-95306767D01*
X135909100Y-95199748D01*
X135731133Y-95126032D01*
X135542205Y-95088452D01*
X135349575Y-95088452D01*
X135334215Y-95091507D01*
X135299436Y-94916663D01*
X135225720Y-94738696D01*
X135118701Y-94578531D01*
X134982491Y-94442321D01*
X134822326Y-94335302D01*
X134644359Y-94261586D01*
X134455431Y-94224006D01*
X134262801Y-94224006D01*
X134073873Y-94261586D01*
X133895906Y-94335302D01*
X133863555Y-94356919D01*
X133792527Y-94185442D01*
X133685508Y-94025277D01*
X133549298Y-93889067D01*
X133389133Y-93782048D01*
X133340733Y-93762000D01*
X148845950Y-93762000D01*
X148725741Y-93842321D01*
X148589531Y-93978531D01*
X148482512Y-94138696D01*
X148408796Y-94316663D01*
X148371216Y-94505591D01*
X148371216Y-94698221D01*
X148408796Y-94887149D01*
X148482512Y-95065116D01*
X148485390Y-95069423D01*
X148472512Y-95088696D01*
X148398796Y-95266663D01*
X148362064Y-95451327D01*
X148006769Y-95806622D01*
X147977694Y-95830484D01*
X147935150Y-95882325D01*
X147882471Y-95946514D01*
X147859196Y-95990060D01*
X147811714Y-96078892D01*
X147768142Y-96222529D01*
X147758011Y-96325395D01*
X147753430Y-96371906D01*
X147757116Y-96409329D01*
X147757117Y-98771135D01*
X147753430Y-98808568D01*
X147768143Y-98957946D01*
X147811715Y-99101583D01*
X147882471Y-99233960D01*
X147953837Y-99320919D01*
X147977695Y-99349990D01*
X148006765Y-99373847D01*
X148302064Y-99669146D01*
X148338796Y-99853811D01*
X148412512Y-100031778D01*
X148519531Y-100191943D01*
X148655741Y-100328153D01*
X148815906Y-100435172D01*
X148993873Y-100508888D01*
X149182801Y-100546468D01*
X149375431Y-100546468D01*
X149564359Y-100508888D01*
X149742326Y-100435172D01*
X149902491Y-100328153D01*
X150038701Y-100191943D01*
X150145720Y-100031778D01*
X150219436Y-99853811D01*
X150257016Y-99664883D01*
X150257016Y-99472253D01*
X150219436Y-99283325D01*
X150145720Y-99105358D01*
X150038701Y-98945193D01*
X149902491Y-98808983D01*
X149742326Y-98701964D01*
X149564359Y-98628248D01*
X149379694Y-98591516D01*
X149281116Y-98492938D01*
X149281116Y-96687536D01*
X149439695Y-96528958D01*
X149624359Y-96492226D01*
X149802326Y-96418510D01*
X149962491Y-96311491D01*
X150098701Y-96175281D01*
X150205720Y-96015116D01*
X150279436Y-95837149D01*
X150317016Y-95648221D01*
X150317016Y-95455591D01*
X150279436Y-95266663D01*
X150205720Y-95088696D01*
X150202842Y-95084389D01*
X150215720Y-95065116D01*
X150289436Y-94887149D01*
X150327016Y-94698221D01*
X150327016Y-94505591D01*
X150289436Y-94316663D01*
X150215720Y-94138696D01*
X150108701Y-93978531D01*
X149972491Y-93842321D01*
X149852282Y-93762000D01*
X160206062Y-93762000D01*
X160129531Y-93838531D01*
X160022512Y-93998696D01*
X159948796Y-94176663D01*
X159911216Y-94365591D01*
X159911216Y-94558221D01*
X159948796Y-94747149D01*
X160022512Y-94925116D01*
X160129531Y-95085281D01*
X160265741Y-95221491D01*
X160425906Y-95328510D01*
X160603873Y-95402226D01*
X160792801Y-95439806D01*
X160985431Y-95439806D01*
X161174359Y-95402226D01*
X161352326Y-95328510D01*
X161512491Y-95221491D01*
X161648701Y-95085281D01*
X161755720Y-94925116D01*
X161829436Y-94747149D01*
X161867016Y-94558221D01*
X161867016Y-94365591D01*
X161829436Y-94176663D01*
X161755720Y-93998696D01*
X161648701Y-93838531D01*
X161572170Y-93762000D01*
X175837426Y-93762000D01*
X175870643Y-93758728D01*
X175883026Y-93758815D01*
X175893614Y-93757777D01*
X176281807Y-93716976D01*
X176349450Y-93703091D01*
X176417300Y-93690148D01*
X176427483Y-93687073D01*
X176427489Y-93687071D01*
X176800360Y-93571648D01*
X176864015Y-93544890D01*
X176928062Y-93519014D01*
X176937456Y-93514019D01*
X177280811Y-93328367D01*
X177338066Y-93289749D01*
X177395859Y-93251930D01*
X177404104Y-93245205D01*
X177704859Y-92996398D01*
X177753530Y-92947386D01*
X177802867Y-92899072D01*
X177809648Y-92890875D01*
X178056349Y-92588390D01*
X178094561Y-92530877D01*
X178114117Y-92502316D01*
X178114117Y-96218968D01*
X178105720Y-96198696D01*
X177998701Y-96038531D01*
X177862491Y-95902321D01*
X177702326Y-95795302D01*
X177524359Y-95721586D01*
X177335431Y-95684006D01*
X177142801Y-95684006D01*
X176953873Y-95721586D01*
X176775906Y-95795302D01*
X176615741Y-95902321D01*
X176479531Y-96038531D01*
X176400122Y-96157375D01*
X176262326Y-96065302D01*
X176084359Y-95991586D01*
X175895431Y-95954006D01*
X175702801Y-95954006D01*
X175513873Y-95991586D01*
X175335906Y-96065302D01*
X175175741Y-96172321D01*
X175039531Y-96308531D01*
X174932512Y-96468696D01*
X174858796Y-96646663D01*
X174821216Y-96835591D01*
X174821216Y-97028221D01*
X174858796Y-97217149D01*
X174932512Y-97395116D01*
X175037117Y-97551668D01*
X175037116Y-107956276D01*
X162422473Y-120570919D01*
X151266827Y-120570919D01*
X151256542Y-120569906D01*
X151256539Y-120569906D01*
X151219116Y-120566220D01*
X151181693Y-120569906D01*
X147128877Y-120569906D01*
X146972326Y-120465302D01*
X146794359Y-120391586D01*
X146605431Y-120354006D01*
X146412801Y-120354006D01*
X146223873Y-120391586D01*
X146045906Y-120465302D01*
X145885741Y-120572321D01*
X145749531Y-120708531D01*
X145642512Y-120868696D01*
X145568796Y-121046663D01*
X145531216Y-121235591D01*
X145531216Y-121428221D01*
X145568796Y-121617149D01*
X145642512Y-121795116D01*
X145749531Y-121955281D01*
X145885741Y-122091491D01*
X146045906Y-122198510D01*
X146223873Y-122272226D01*
X146412801Y-122309806D01*
X146605431Y-122309806D01*
X146794359Y-122272226D01*
X146972326Y-122198510D01*
X147128877Y-122093906D01*
X151172418Y-122093906D01*
X151182703Y-122094919D01*
X151182706Y-122094919D01*
X151220129Y-122098605D01*
X151257552Y-122094919D01*
X162700680Y-122094919D01*
X162738103Y-122098605D01*
X162775526Y-122094919D01*
X162775529Y-122094919D01*
X162887481Y-122083893D01*
X163031118Y-122040321D01*
X163089093Y-122009332D01*
X163147356Y-122067595D01*
X163307521Y-122174614D01*
X163485488Y-122248330D01*
X163674416Y-122285910D01*
X163867046Y-122285910D01*
X164055974Y-122248330D01*
X164233941Y-122174614D01*
X164394106Y-122067595D01*
X164530316Y-121931385D01*
X164637335Y-121771220D01*
X164711051Y-121593253D01*
X164747783Y-121408588D01*
X177751463Y-108404908D01*
X177780538Y-108381047D01*
X177844977Y-108302528D01*
X177875761Y-108265018D01*
X177913581Y-108194261D01*
X177946518Y-108132640D01*
X177990090Y-107989003D01*
X178001116Y-107877051D01*
X178001116Y-107877048D01*
X178004802Y-107839625D01*
X178001116Y-107802202D01*
X178001116Y-97281667D01*
X178105720Y-97125116D01*
X178114117Y-97104844D01*
X178114117Y-97175381D01*
X178109835Y-97218860D01*
X178126921Y-97392350D01*
X178129417Y-97400578D01*
X178129417Y-97783235D01*
X178126921Y-97791463D01*
X178114116Y-97921476D01*
X178114116Y-97921483D01*
X178109835Y-97964952D01*
X178114116Y-98008421D01*
X178114117Y-118375326D01*
X173932538Y-122556906D01*
X155987914Y-122556906D01*
X155854359Y-122501586D01*
X155665431Y-122464006D01*
X155472801Y-122464006D01*
X155283873Y-122501586D01*
X155105906Y-122575302D01*
X154945741Y-122682321D01*
X154809531Y-122818531D01*
X154702512Y-122978696D01*
X154652045Y-123100535D01*
X154605720Y-122988696D01*
X154498701Y-122828531D01*
X154362491Y-122692321D01*
X154202326Y-122585302D01*
X154024359Y-122511586D01*
X153835431Y-122474006D01*
X153642801Y-122474006D01*
X153453873Y-122511586D01*
X153275906Y-122585302D01*
X153115741Y-122692321D01*
X152979531Y-122828531D01*
X152872512Y-122988696D01*
X152798796Y-123166663D01*
X152767856Y-123322207D01*
X145929929Y-123322207D01*
X145886462Y-123317926D01*
X145842996Y-123322207D01*
X145842986Y-123322207D01*
X145712973Y-123335012D01*
X145546150Y-123385618D01*
X145392404Y-123467796D01*
X145392402Y-123467797D01*
X145392403Y-123467797D01*
X145291416Y-123550675D01*
X145291414Y-123550677D01*
X145257646Y-123578390D01*
X145229933Y-123612158D01*
X143674067Y-125168025D01*
X143640300Y-125195737D01*
X143612587Y-125229505D01*
X143612584Y-125229508D01*
X143529706Y-125330495D01*
X143447528Y-125484241D01*
X143396921Y-125651064D01*
X143379835Y-125824554D01*
X143384117Y-125868033D01*
X143384116Y-149968437D01*
X143379835Y-150011906D01*
X143384116Y-150055375D01*
X143384116Y-150055382D01*
X143396921Y-150185395D01*
X143447527Y-150352218D01*
X143529705Y-150505964D01*
X143640299Y-150640723D01*
X143674072Y-150668440D01*
X144995000Y-151989369D01*
X144995000Y-152231335D01*
X145050147Y-152508574D01*
X145158320Y-152769727D01*
X145315363Y-153004759D01*
X145515241Y-153204637D01*
X145747759Y-153360000D01*
X145515241Y-153515363D01*
X145315363Y-153715241D01*
X145158320Y-153950273D01*
X145050147Y-154211426D01*
X144995000Y-154488665D01*
X144995000Y-154771335D01*
X145050147Y-155048574D01*
X145158320Y-155309727D01*
X145315363Y-155544759D01*
X145515241Y-155744637D01*
X145747759Y-155900000D01*
X145515241Y-156055363D01*
X145315363Y-156255241D01*
X145158320Y-156490273D01*
X145050147Y-156751426D01*
X144995000Y-157028665D01*
X144995000Y-157311335D01*
X145050147Y-157588574D01*
X145158320Y-157849727D01*
X145315363Y-158084759D01*
X145515241Y-158284637D01*
X145747759Y-158440000D01*
X145515241Y-158595363D01*
X145315363Y-158795241D01*
X145158320Y-159030273D01*
X145050147Y-159291426D01*
X144995000Y-159568665D01*
X144995000Y-159851335D01*
X145050147Y-160128574D01*
X145104844Y-160260624D01*
X126417031Y-160266522D01*
X126120259Y-160252332D01*
X125886614Y-160194348D01*
X125668685Y-160092088D01*
X125474768Y-159949446D01*
X125312251Y-159771857D01*
X125187320Y-159566076D01*
X125104741Y-159339959D01*
X125063560Y-159075850D01*
X125061996Y-159020917D01*
X125061207Y-156343889D01*
X125096885Y-156298648D01*
X125140394Y-156245034D01*
X125146193Y-156236124D01*
X125146197Y-156236119D01*
X125146200Y-156236114D01*
X125281073Y-156025701D01*
X125312487Y-155964207D01*
X125344766Y-155903139D01*
X125348727Y-155893265D01*
X125348728Y-155893264D01*
X125348730Y-155893258D01*
X125410708Y-155735591D01*
X134021216Y-155735591D01*
X134021216Y-155928221D01*
X134058796Y-156117149D01*
X134132512Y-156295116D01*
X134239531Y-156455281D01*
X134375741Y-156591491D01*
X134535906Y-156698510D01*
X134713873Y-156772226D01*
X134902801Y-156809806D01*
X135095431Y-156809806D01*
X135284359Y-156772226D01*
X135462326Y-156698510D01*
X135622491Y-156591491D01*
X135758701Y-156455281D01*
X135865720Y-156295116D01*
X135939436Y-156117149D01*
X135977016Y-155928221D01*
X135977016Y-155735591D01*
X135939436Y-155546663D01*
X135865720Y-155368696D01*
X135758701Y-155208531D01*
X135622491Y-155072321D01*
X135462326Y-154965302D01*
X135284359Y-154891586D01*
X135095431Y-154854006D01*
X134902801Y-154854006D01*
X134713873Y-154891586D01*
X134535906Y-154965302D01*
X134375741Y-155072321D01*
X134239531Y-155208531D01*
X134132512Y-155368696D01*
X134058796Y-155546663D01*
X134021216Y-155735591D01*
X125410708Y-155735591D01*
X125440165Y-155660657D01*
X125459030Y-155594253D01*
X125478839Y-155528061D01*
X125480806Y-155517605D01*
X125525323Y-155271667D01*
X125530934Y-155202835D01*
X125537506Y-155134077D01*
X125537405Y-155123453D01*
X125537406Y-155123442D01*
X125537405Y-155123432D01*
X125533303Y-154873538D01*
X125525438Y-154804934D01*
X125518530Y-154736209D01*
X125516365Y-154725793D01*
X125463803Y-154481448D01*
X125442758Y-154415664D01*
X125422636Y-154349600D01*
X125418491Y-154339809D01*
X125418489Y-154339803D01*
X125418486Y-154339798D01*
X125319468Y-154110322D01*
X125286048Y-154049883D01*
X125253475Y-153988981D01*
X125247504Y-153980175D01*
X125105795Y-153774298D01*
X125061272Y-153721501D01*
X125061120Y-153721315D01*
X125061194Y-148735591D01*
X139661216Y-148735591D01*
X139661216Y-148928221D01*
X139698796Y-149117149D01*
X139772512Y-149295116D01*
X139879531Y-149455281D01*
X140015741Y-149591491D01*
X140175906Y-149698510D01*
X140353873Y-149772226D01*
X140542801Y-149809806D01*
X140735431Y-149809806D01*
X140924359Y-149772226D01*
X141102326Y-149698510D01*
X141262491Y-149591491D01*
X141398701Y-149455281D01*
X141505720Y-149295116D01*
X141579436Y-149117149D01*
X141617016Y-148928221D01*
X141617016Y-148735591D01*
X141579436Y-148546663D01*
X141505720Y-148368696D01*
X141398701Y-148208531D01*
X141262491Y-148072321D01*
X141102326Y-147965302D01*
X140924359Y-147891586D01*
X140735431Y-147854006D01*
X140542801Y-147854006D01*
X140353873Y-147891586D01*
X140175906Y-147965302D01*
X140015741Y-148072321D01*
X139879531Y-148208531D01*
X139772512Y-148368696D01*
X139698796Y-148546663D01*
X139661216Y-148735591D01*
X125061194Y-148735591D01*
X125061306Y-141285646D01*
X132054116Y-141285646D01*
X132054116Y-141578166D01*
X132111184Y-141865064D01*
X132223126Y-142135317D01*
X132385641Y-142378538D01*
X132592484Y-142585381D01*
X132766876Y-142701906D01*
X132592484Y-142818431D01*
X132385641Y-143025274D01*
X132223126Y-143268495D01*
X132111184Y-143538748D01*
X132054116Y-143825646D01*
X132054116Y-144118166D01*
X132111184Y-144405064D01*
X132223126Y-144675317D01*
X132385641Y-144918538D01*
X132592484Y-145125381D01*
X132835705Y-145287896D01*
X133105958Y-145399838D01*
X133392856Y-145456906D01*
X133685376Y-145456906D01*
X133972274Y-145399838D01*
X134242527Y-145287896D01*
X134485748Y-145125381D01*
X134692591Y-144918538D01*
X134809116Y-144744146D01*
X134925641Y-144918538D01*
X135132484Y-145125381D01*
X135375705Y-145287896D01*
X135645958Y-145399838D01*
X135932856Y-145456906D01*
X136225376Y-145456906D01*
X136512274Y-145399838D01*
X136782527Y-145287896D01*
X137025748Y-145125381D01*
X137232591Y-144918538D01*
X137395106Y-144675317D01*
X137507048Y-144405064D01*
X137564116Y-144118166D01*
X137564116Y-143825646D01*
X137507048Y-143538748D01*
X137395106Y-143268495D01*
X137232591Y-143025274D01*
X137100736Y-142893419D01*
X137173296Y-142871408D01*
X137283610Y-142812443D01*
X137380301Y-142733091D01*
X137459653Y-142636400D01*
X137518618Y-142526086D01*
X137554928Y-142406388D01*
X137567188Y-142281906D01*
X137564116Y-141717656D01*
X137405366Y-141558906D01*
X136206116Y-141558906D01*
X136206116Y-141578906D01*
X135952116Y-141578906D01*
X135952116Y-141558906D01*
X135932116Y-141558906D01*
X135932116Y-141304906D01*
X135952116Y-141304906D01*
X135952116Y-140105656D01*
X136206116Y-140105656D01*
X136206116Y-141304906D01*
X137405366Y-141304906D01*
X137564116Y-141146156D01*
X137567188Y-140581906D01*
X137554928Y-140457424D01*
X137518618Y-140337726D01*
X137459653Y-140227412D01*
X137380301Y-140130721D01*
X137283610Y-140051369D01*
X137173296Y-139992404D01*
X137053598Y-139956094D01*
X136929116Y-139943834D01*
X136364866Y-139946906D01*
X136206116Y-140105656D01*
X135952116Y-140105656D01*
X135793366Y-139946906D01*
X135229116Y-139943834D01*
X135104634Y-139956094D01*
X134984936Y-139992404D01*
X134874622Y-140051369D01*
X134777931Y-140130721D01*
X134698579Y-140227412D01*
X134639614Y-140337726D01*
X134617603Y-140410286D01*
X134485748Y-140278431D01*
X134242527Y-140115916D01*
X133972274Y-140003974D01*
X133685376Y-139946906D01*
X133392856Y-139946906D01*
X133105958Y-140003974D01*
X132835705Y-140115916D01*
X132592484Y-140278431D01*
X132385641Y-140485274D01*
X132223126Y-140728495D01*
X132111184Y-140998748D01*
X132054116Y-141285646D01*
X125061306Y-141285646D01*
X125061332Y-139535591D01*
X138801216Y-139535591D01*
X138801216Y-139728221D01*
X138838796Y-139917149D01*
X138912512Y-140095116D01*
X139019531Y-140255281D01*
X139155741Y-140391491D01*
X139315906Y-140498510D01*
X139493873Y-140572226D01*
X139682801Y-140609806D01*
X139875431Y-140609806D01*
X140064359Y-140572226D01*
X140242326Y-140498510D01*
X140402491Y-140391491D01*
X140538701Y-140255281D01*
X140645720Y-140095116D01*
X140719436Y-139917149D01*
X140757016Y-139728221D01*
X140757016Y-139535591D01*
X140719436Y-139346663D01*
X140645720Y-139168696D01*
X140538701Y-139008531D01*
X140402491Y-138872321D01*
X140242326Y-138765302D01*
X140064359Y-138691586D01*
X139875431Y-138654006D01*
X139682801Y-138654006D01*
X139493873Y-138691586D01*
X139315906Y-138765302D01*
X139155741Y-138872321D01*
X139019531Y-139008531D01*
X138912512Y-139168696D01*
X138838796Y-139346663D01*
X138801216Y-139535591D01*
X125061332Y-139535591D01*
X125061800Y-108451906D01*
X130343430Y-108451906D01*
X130347117Y-108489339D01*
X130347116Y-127504483D01*
X130343430Y-127541906D01*
X130347116Y-127579329D01*
X130347116Y-127579331D01*
X130358142Y-127691283D01*
X130401714Y-127834920D01*
X130422199Y-127873245D01*
X130472471Y-127967298D01*
X130500698Y-128001692D01*
X130567694Y-128083328D01*
X130596770Y-128107190D01*
X140472064Y-137982485D01*
X140508796Y-138167149D01*
X140582512Y-138345116D01*
X140689531Y-138505281D01*
X140825741Y-138641491D01*
X140985906Y-138748510D01*
X141163873Y-138822226D01*
X141352801Y-138859806D01*
X141545431Y-138859806D01*
X141734359Y-138822226D01*
X141912326Y-138748510D01*
X142072491Y-138641491D01*
X142208701Y-138505281D01*
X142315720Y-138345116D01*
X142389436Y-138167149D01*
X142427016Y-137978221D01*
X142427016Y-137785591D01*
X142389436Y-137596663D01*
X142315720Y-137418696D01*
X142208701Y-137258531D01*
X142072491Y-137122321D01*
X141912326Y-137015302D01*
X141734359Y-136941586D01*
X141549695Y-136904854D01*
X131871116Y-127226276D01*
X131871116Y-108767536D01*
X138693059Y-101945593D01*
X151431216Y-101945593D01*
X151431216Y-102138223D01*
X151468796Y-102327151D01*
X151542512Y-102505118D01*
X151649531Y-102665283D01*
X151785741Y-102801493D01*
X151945906Y-102908512D01*
X152123873Y-102982228D01*
X152312801Y-103019808D01*
X152505431Y-103019808D01*
X152694359Y-102982228D01*
X152702604Y-102978813D01*
X152703862Y-102982961D01*
X152774618Y-103115338D01*
X152834415Y-103188200D01*
X152869842Y-103231368D01*
X152898913Y-103255226D01*
X152932465Y-103288778D01*
X152969197Y-103473443D01*
X153042913Y-103651410D01*
X153149932Y-103811575D01*
X153286142Y-103947785D01*
X153446307Y-104054804D01*
X153624274Y-104128520D01*
X153698121Y-104143209D01*
X153718796Y-104247149D01*
X153792512Y-104425116D01*
X153899531Y-104585281D01*
X154035741Y-104721491D01*
X154195906Y-104828510D01*
X154373873Y-104902226D01*
X154562801Y-104939806D01*
X154755431Y-104939806D01*
X154944359Y-104902226D01*
X155122326Y-104828510D01*
X155282491Y-104721491D01*
X155418701Y-104585281D01*
X155525720Y-104425116D01*
X155599436Y-104247149D01*
X155637016Y-104058221D01*
X155637016Y-103865591D01*
X155599436Y-103676663D01*
X155525720Y-103498696D01*
X155421116Y-103342145D01*
X155421116Y-103014408D01*
X155574372Y-102983924D01*
X155752339Y-102910208D01*
X155912504Y-102803189D01*
X156048714Y-102666979D01*
X156155733Y-102506814D01*
X156229449Y-102328847D01*
X156267029Y-102139919D01*
X156267029Y-101947289D01*
X156229449Y-101758361D01*
X156155733Y-101580394D01*
X156051129Y-101423843D01*
X156051129Y-97666679D01*
X156145720Y-97525114D01*
X156219436Y-97347147D01*
X156257016Y-97158219D01*
X156257016Y-96965589D01*
X156219436Y-96776661D01*
X156145720Y-96598694D01*
X156038701Y-96438529D01*
X155902491Y-96302319D01*
X155742326Y-96195300D01*
X155564359Y-96121584D01*
X155375431Y-96084004D01*
X155182801Y-96084004D01*
X154993873Y-96121584D01*
X154815906Y-96195300D01*
X154782991Y-96217293D01*
X154624359Y-96151586D01*
X154435431Y-96114006D01*
X154242801Y-96114006D01*
X154053873Y-96151586D01*
X153875906Y-96225302D01*
X153875807Y-96225368D01*
X153874473Y-96224477D01*
X153696506Y-96150761D01*
X153507578Y-96113181D01*
X153314948Y-96113181D01*
X153126020Y-96150761D01*
X152948053Y-96224477D01*
X152924572Y-96240166D01*
X152902326Y-96225302D01*
X152724359Y-96151586D01*
X152535431Y-96114006D01*
X152342801Y-96114006D01*
X152153873Y-96151586D01*
X151975906Y-96225302D01*
X151815741Y-96332321D01*
X151679531Y-96468531D01*
X151572512Y-96628696D01*
X151498796Y-96806663D01*
X151461216Y-96995591D01*
X151461216Y-97188221D01*
X151498796Y-97377149D01*
X151572512Y-97555116D01*
X151647117Y-97666770D01*
X151647116Y-101422147D01*
X151542512Y-101578698D01*
X151468796Y-101756665D01*
X151431216Y-101945593D01*
X138693059Y-101945593D01*
X141539695Y-99098958D01*
X141724359Y-99062226D01*
X141902326Y-98988510D01*
X142062491Y-98881491D01*
X142198701Y-98745281D01*
X142305720Y-98585116D01*
X142379436Y-98407149D01*
X142417016Y-98218221D01*
X142417016Y-98025591D01*
X142379436Y-97836663D01*
X142305720Y-97658696D01*
X142198701Y-97498531D01*
X142062491Y-97362321D01*
X141902326Y-97255302D01*
X141724359Y-97181586D01*
X141535431Y-97144006D01*
X141342801Y-97144006D01*
X141153873Y-97181586D01*
X140975906Y-97255302D01*
X140815741Y-97362321D01*
X140679531Y-97498531D01*
X140572512Y-97658696D01*
X140498796Y-97836663D01*
X140462064Y-98021327D01*
X130596765Y-107886627D01*
X130567695Y-107910484D01*
X130543838Y-107939554D01*
X130543837Y-107939555D01*
X130472471Y-108026514D01*
X130401715Y-108158891D01*
X130358143Y-108302528D01*
X130343430Y-108451906D01*
X125061800Y-108451906D01*
X125062000Y-95194492D01*
X125060302Y-95177251D01*
X125042498Y-94785443D01*
X125034216Y-94727979D01*
X125028409Y-94670203D01*
X125026244Y-94659786D01*
X124903045Y-94087057D01*
X124881986Y-94021228D01*
X124861879Y-93955211D01*
X124857735Y-93945419D01*
X124857732Y-93945411D01*
X124857728Y-93945404D01*
X124625637Y-93407521D01*
X124592215Y-93347076D01*
X124559645Y-93286179D01*
X124553674Y-93277374D01*
X124484806Y-93177319D01*
X124753308Y-93177319D01*
X124849072Y-93441720D01*
X125138687Y-93582610D01*
X125450224Y-93664290D01*
X125771711Y-93683624D01*
X126090791Y-93639867D01*
X126395204Y-93534701D01*
X126569160Y-93441720D01*
X126664924Y-93177319D01*
X125709116Y-92221511D01*
X124753308Y-93177319D01*
X124484806Y-93177319D01*
X124221521Y-92794808D01*
X124177001Y-92742013D01*
X124133219Y-92688597D01*
X124125651Y-92681119D01*
X123706093Y-92272258D01*
X123652162Y-92229113D01*
X123623542Y-92205553D01*
X123652274Y-92199838D01*
X123922527Y-92087896D01*
X124074504Y-91986349D01*
X124067398Y-92104501D01*
X124111155Y-92423581D01*
X124216321Y-92727994D01*
X124309302Y-92901950D01*
X124573703Y-92997714D01*
X125529511Y-92041906D01*
X125888721Y-92041906D01*
X126844529Y-92997714D01*
X127108930Y-92901950D01*
X127249820Y-92612335D01*
X127331500Y-92300798D01*
X127350834Y-91979311D01*
X127307077Y-91660231D01*
X127201911Y-91355818D01*
X127108930Y-91181862D01*
X126844529Y-91086098D01*
X125888721Y-92041906D01*
X125529511Y-92041906D01*
X125515369Y-92027764D01*
X125694974Y-91848159D01*
X125709116Y-91862301D01*
X126664924Y-90906493D01*
X126569160Y-90642092D01*
X126279545Y-90501202D01*
X125968008Y-90419522D01*
X125646521Y-90400188D01*
X125327441Y-90443945D01*
X125023028Y-90549111D01*
X124849072Y-90642092D01*
X124753309Y-90906491D01*
X124704116Y-90857298D01*
X124704116Y-90625646D01*
X124647048Y-90338748D01*
X124535106Y-90068495D01*
X124372591Y-89825274D01*
X124165748Y-89618431D01*
X123922527Y-89455916D01*
X123652274Y-89343974D01*
X123365376Y-89286906D01*
X123072856Y-89286906D01*
X122785958Y-89343974D01*
X122515705Y-89455916D01*
X122272484Y-89618431D01*
X122065641Y-89825274D01*
X122061116Y-89832046D01*
X122061116Y-87320303D01*
X122370324Y-87320303D01*
X122447959Y-87569378D01*
X122711999Y-87695277D01*
X122995527Y-87767245D01*
X123287647Y-87782517D01*
X123577135Y-87740505D01*
X123852863Y-87642825D01*
X123990273Y-87569378D01*
X124067908Y-87320303D01*
X123219116Y-86471511D01*
X122370324Y-87320303D01*
X122061116Y-87320303D01*
X122061116Y-87100302D01*
X122190719Y-87140698D01*
X123039511Y-86291906D01*
X122190719Y-85443114D01*
X122061116Y-85483510D01*
X122061116Y-85263509D01*
X122370324Y-85263509D01*
X123219116Y-86112301D01*
X123233259Y-86098159D01*
X123412864Y-86277764D01*
X123398721Y-86291906D01*
X124247513Y-87140698D01*
X124496588Y-87063063D01*
X124622487Y-86799023D01*
X124694455Y-86515495D01*
X124709727Y-86223375D01*
X124706879Y-86203751D01*
X124753309Y-86157321D01*
X124849072Y-86421720D01*
X125138687Y-86562610D01*
X125450224Y-86644290D01*
X125771711Y-86663624D01*
X126090791Y-86619867D01*
X126395204Y-86514701D01*
X126569160Y-86421720D01*
X126664924Y-86157319D01*
X125709116Y-85201511D01*
X125694974Y-85215654D01*
X125515369Y-85036049D01*
X125529511Y-85021906D01*
X125888721Y-85021906D01*
X126844529Y-85977714D01*
X127108930Y-85881950D01*
X127249820Y-85592335D01*
X127331500Y-85280798D01*
X127350834Y-84959311D01*
X127307077Y-84640231D01*
X127201911Y-84335818D01*
X127108930Y-84161862D01*
X126844529Y-84066098D01*
X125888721Y-85021906D01*
X125529511Y-85021906D01*
X124573703Y-84066098D01*
X124309302Y-84161862D01*
X124168412Y-84451477D01*
X124086732Y-84763014D01*
X124067398Y-85084501D01*
X124089047Y-85242367D01*
X124067907Y-85263507D01*
X123990273Y-85014434D01*
X123726233Y-84888535D01*
X123442705Y-84816567D01*
X123150585Y-84801295D01*
X122861097Y-84843307D01*
X122585369Y-84940987D01*
X122447959Y-85014434D01*
X122370324Y-85263509D01*
X122061116Y-85263509D01*
X122061116Y-83886493D01*
X124753308Y-83886493D01*
X125709116Y-84842301D01*
X126664924Y-83886493D01*
X126569160Y-83622092D01*
X126279545Y-83481202D01*
X125968008Y-83399522D01*
X125646521Y-83380188D01*
X125327441Y-83423945D01*
X125023028Y-83529111D01*
X124849072Y-83622092D01*
X124753308Y-83886493D01*
X122061116Y-83886493D01*
X122061116Y-78993906D01*
X123336542Y-78993906D01*
X123368715Y-78990737D01*
X123371668Y-78990758D01*
X123382256Y-78989720D01*
X123430088Y-78984693D01*
X123448494Y-78982880D01*
X123449108Y-78982694D01*
X123479305Y-78979520D01*
X123546967Y-78965631D01*
X123614799Y-78952692D01*
X123624974Y-78949619D01*
X123624984Y-78949617D01*
X123624993Y-78949613D01*
X123718203Y-78920760D01*
X123781902Y-78893984D01*
X123845909Y-78868123D01*
X123855291Y-78863134D01*
X123855299Y-78863131D01*
X123855305Y-78863127D01*
X123941141Y-78816716D01*
X123998420Y-78778080D01*
X124056186Y-78740280D01*
X124064428Y-78733557D01*
X124064432Y-78733554D01*
X124064436Y-78733550D01*
X124139619Y-78671353D01*
X124188284Y-78622347D01*
X124237623Y-78574032D01*
X124244405Y-78565834D01*
X124306081Y-78490213D01*
X124344319Y-78432661D01*
X124383325Y-78375695D01*
X124388376Y-78366352D01*
X124388381Y-78366345D01*
X124388385Y-78366336D01*
X124434197Y-78280175D01*
X124460511Y-78216333D01*
X124487720Y-78152850D01*
X124490866Y-78142686D01*
X124519070Y-78049268D01*
X124532479Y-77981550D01*
X124546846Y-77913959D01*
X124547958Y-77903378D01*
X124557480Y-77806261D01*
X124557480Y-77806250D01*
X124561116Y-77769332D01*
X124561116Y-76694480D01*
X124557947Y-76662307D01*
X124557968Y-76659354D01*
X124556930Y-76648766D01*
X124551904Y-76600942D01*
X124550090Y-76582528D01*
X124549904Y-76581914D01*
X124546730Y-76551718D01*
X124532843Y-76484062D01*
X124519902Y-76416223D01*
X124516829Y-76406048D01*
X124516827Y-76406038D01*
X124516823Y-76406029D01*
X124487970Y-76312819D01*
X124461204Y-76249145D01*
X124435333Y-76185112D01*
X124430344Y-76175731D01*
X124430341Y-76175723D01*
X124430337Y-76175717D01*
X124383925Y-76089881D01*
X124345308Y-76032628D01*
X124307490Y-75974836D01*
X124300771Y-75966599D01*
X124300764Y-75966589D01*
X124300756Y-75966581D01*
X124238563Y-75891403D01*
X124189557Y-75842738D01*
X124141242Y-75793399D01*
X124133044Y-75786617D01*
X124057423Y-75724941D01*
X123999853Y-75686691D01*
X123942904Y-75647697D01*
X123933562Y-75642646D01*
X123933555Y-75642641D01*
X123933548Y-75642638D01*
X123933546Y-75642637D01*
X123847385Y-75596825D01*
X123783543Y-75570511D01*
X123720060Y-75543302D01*
X123709896Y-75540156D01*
X123616478Y-75511951D01*
X123548723Y-75498535D01*
X123481169Y-75484176D01*
X123470588Y-75483064D01*
X123373471Y-75473542D01*
X123373460Y-75473542D01*
X123336542Y-75469906D01*
X122061116Y-75469906D01*
X122061116Y-74993906D01*
X123336542Y-74993906D01*
X123368715Y-74990737D01*
X123371668Y-74990758D01*
X123382256Y-74989720D01*
X123430088Y-74984693D01*
X123448494Y-74982880D01*
X123449108Y-74982694D01*
X123479305Y-74979520D01*
X123546967Y-74965631D01*
X123614799Y-74952692D01*
X123624974Y-74949619D01*
X123624984Y-74949617D01*
X123624993Y-74949613D01*
X123718203Y-74920760D01*
X123781902Y-74893984D01*
X123845909Y-74868123D01*
X123855291Y-74863134D01*
X123855299Y-74863131D01*
X123855305Y-74863127D01*
X123941141Y-74816716D01*
X123998420Y-74778080D01*
X124056186Y-74740280D01*
X124064428Y-74733557D01*
X124064432Y-74733554D01*
X124064436Y-74733550D01*
X124139619Y-74671353D01*
X124188284Y-74622347D01*
X124237623Y-74574032D01*
X124244405Y-74565834D01*
X124306081Y-74490213D01*
X124344319Y-74432661D01*
X124383325Y-74375695D01*
X124388376Y-74366352D01*
X124388381Y-74366345D01*
X124388385Y-74366336D01*
X124434197Y-74280175D01*
X124460511Y-74216333D01*
X124487720Y-74152850D01*
X124490866Y-74142686D01*
X124519070Y-74049268D01*
X124532479Y-73981550D01*
X124546846Y-73913959D01*
X124547958Y-73903378D01*
X124557480Y-73806261D01*
X124557480Y-73806250D01*
X124561116Y-73769332D01*
X124561116Y-71694480D01*
X124557947Y-71662307D01*
X124557968Y-71659354D01*
X124556930Y-71648766D01*
X124551904Y-71600942D01*
X124550090Y-71582528D01*
X124549904Y-71581914D01*
X124546730Y-71551718D01*
X124532843Y-71484062D01*
X124519902Y-71416223D01*
X124516829Y-71406048D01*
X124516827Y-71406038D01*
X124516823Y-71406029D01*
X124487970Y-71312819D01*
X124461204Y-71249145D01*
X124435333Y-71185112D01*
X124430344Y-71175731D01*
X124430341Y-71175723D01*
X124430337Y-71175717D01*
X124383925Y-71089881D01*
X124345308Y-71032628D01*
X124307490Y-70974836D01*
X124300771Y-70966599D01*
X124300764Y-70966589D01*
X124300756Y-70966581D01*
X124238563Y-70891403D01*
X124189557Y-70842738D01*
X124141242Y-70793399D01*
X124133044Y-70786617D01*
X124057423Y-70724941D01*
X123999853Y-70686691D01*
X123942904Y-70647697D01*
X123933562Y-70642646D01*
X123933555Y-70642641D01*
X123933548Y-70642638D01*
X123933546Y-70642637D01*
X123847385Y-70596825D01*
X123783543Y-70570511D01*
X123720060Y-70543302D01*
X123709896Y-70540156D01*
X123616478Y-70511951D01*
X123548723Y-70498535D01*
X123481169Y-70484176D01*
X123470588Y-70483064D01*
X123373471Y-70473542D01*
X123373460Y-70473542D01*
X123336542Y-70469906D01*
X122563693Y-70469906D01*
X124800190Y-68707203D01*
X124806703Y-68700942D01*
X124817217Y-68692244D01*
X124844128Y-68665144D01*
X124873502Y-68640723D01*
X124880927Y-68633104D01*
X125054106Y-68452891D01*
X125096884Y-68398647D01*
X125140393Y-68345033D01*
X125146192Y-68336123D01*
X125146196Y-68336118D01*
X125146199Y-68336113D01*
X125281072Y-68125700D01*
X125312486Y-68064206D01*
X125344765Y-68003138D01*
X125348726Y-67993264D01*
X125348727Y-67993263D01*
X125348729Y-67993257D01*
X125440164Y-67760656D01*
X125459029Y-67694252D01*
X125478838Y-67628060D01*
X125480805Y-67617604D01*
X125525322Y-67371666D01*
X125530933Y-67302834D01*
X125537505Y-67234076D01*
X125537404Y-67223452D01*
X125537405Y-67223441D01*
X125537404Y-67223431D01*
X125533302Y-66973537D01*
X125525437Y-66904933D01*
X125518529Y-66836208D01*
X125516364Y-66825792D01*
X125463802Y-66581447D01*
X125442757Y-66515663D01*
X125422635Y-66449599D01*
X125418490Y-66439808D01*
X125418488Y-66439802D01*
X125418485Y-66439797D01*
X125319467Y-66210321D01*
X125286047Y-66149882D01*
X125253474Y-66088980D01*
X125247503Y-66080174D01*
X125105794Y-65874297D01*
X125061271Y-65821500D01*
X125061142Y-65821342D01*
X125061180Y-65385591D01*
X149241216Y-65385591D01*
X149241216Y-65578221D01*
X149278796Y-65767149D01*
X149352512Y-65945116D01*
X149459531Y-66105281D01*
X149595741Y-66241491D01*
X149755906Y-66348510D01*
X149933873Y-66422226D01*
X150122801Y-66459806D01*
X150315431Y-66459806D01*
X150504359Y-66422226D01*
X150682326Y-66348510D01*
X150842491Y-66241491D01*
X150958391Y-66125591D01*
X151661216Y-66125591D01*
X151661216Y-66318221D01*
X151698796Y-66507149D01*
X151772512Y-66685116D01*
X151879531Y-66845281D01*
X152015741Y-66981491D01*
X152175906Y-67088510D01*
X152353873Y-67162226D01*
X152542801Y-67199806D01*
X152735431Y-67199806D01*
X152924359Y-67162226D01*
X153102326Y-67088510D01*
X153262491Y-66981491D01*
X153375193Y-66868789D01*
X153379531Y-66875281D01*
X153515741Y-67011491D01*
X153675906Y-67118510D01*
X153853873Y-67192226D01*
X154042801Y-67229806D01*
X154235431Y-67229806D01*
X154424359Y-67192226D01*
X154602326Y-67118510D01*
X154762491Y-67011491D01*
X154764988Y-67008994D01*
X154919895Y-67112499D01*
X155097862Y-67186215D01*
X155286790Y-67223795D01*
X155479420Y-67223795D01*
X155668348Y-67186215D01*
X155846315Y-67112499D01*
X156006480Y-67005480D01*
X156142690Y-66869270D01*
X156249709Y-66709105D01*
X156323425Y-66531138D01*
X156361005Y-66342210D01*
X156361005Y-66149580D01*
X156323425Y-65960652D01*
X156249709Y-65782685D01*
X156142690Y-65622520D01*
X156006480Y-65486310D01*
X155870710Y-65395591D01*
X161511216Y-65395591D01*
X161511216Y-65588221D01*
X161548796Y-65777149D01*
X161622512Y-65955116D01*
X161729531Y-66115281D01*
X161865741Y-66251491D01*
X162025906Y-66358510D01*
X162203873Y-66432226D01*
X162392801Y-66469806D01*
X162585431Y-66469806D01*
X162774359Y-66432226D01*
X162952326Y-66358510D01*
X163112491Y-66251491D01*
X163248701Y-66115281D01*
X163355720Y-65955116D01*
X163429436Y-65777149D01*
X163467016Y-65588221D01*
X163467016Y-65395591D01*
X163429436Y-65206663D01*
X163355720Y-65028696D01*
X163248701Y-64868531D01*
X163112491Y-64732321D01*
X162952326Y-64625302D01*
X162774359Y-64551586D01*
X162585431Y-64514006D01*
X162392801Y-64514006D01*
X162203873Y-64551586D01*
X162025906Y-64625302D01*
X161865741Y-64732321D01*
X161729531Y-64868531D01*
X161622512Y-65028696D01*
X161548796Y-65206663D01*
X161511216Y-65395591D01*
X155870710Y-65395591D01*
X155846315Y-65379291D01*
X155668348Y-65305575D01*
X155479420Y-65267995D01*
X155286790Y-65267995D01*
X155097862Y-65305575D01*
X154919895Y-65379291D01*
X154759730Y-65486310D01*
X154757233Y-65488807D01*
X154602326Y-65385302D01*
X154424359Y-65311586D01*
X154235431Y-65274006D01*
X154042801Y-65274006D01*
X153853873Y-65311586D01*
X153675906Y-65385302D01*
X153515741Y-65492321D01*
X153403039Y-65605023D01*
X153398701Y-65598531D01*
X153262491Y-65462321D01*
X153102326Y-65355302D01*
X152924359Y-65281586D01*
X152735431Y-65244006D01*
X152542801Y-65244006D01*
X152353873Y-65281586D01*
X152175906Y-65355302D01*
X152015741Y-65462321D01*
X151879531Y-65598531D01*
X151772512Y-65758696D01*
X151698796Y-65936663D01*
X151661216Y-66125591D01*
X150958391Y-66125591D01*
X150978701Y-66105281D01*
X151085720Y-65945116D01*
X151159436Y-65767149D01*
X151197016Y-65578221D01*
X151197016Y-65385591D01*
X151159436Y-65196663D01*
X151085720Y-65018696D01*
X150978701Y-64858531D01*
X150842491Y-64722321D01*
X150682326Y-64615302D01*
X150504359Y-64541586D01*
X150315431Y-64504006D01*
X150122801Y-64504006D01*
X149933873Y-64541586D01*
X149755906Y-64615302D01*
X149595741Y-64722321D01*
X149459531Y-64858531D01*
X149352512Y-65018696D01*
X149278796Y-65196663D01*
X149241216Y-65385591D01*
X125061180Y-65385591D01*
X125061440Y-62395591D01*
X160738906Y-62395591D01*
X160738906Y-62588221D01*
X160776486Y-62777149D01*
X160850202Y-62955116D01*
X160957221Y-63115281D01*
X161093431Y-63251491D01*
X161253596Y-63358510D01*
X161431563Y-63432226D01*
X161620491Y-63469806D01*
X161813121Y-63469806D01*
X162002049Y-63432226D01*
X162180016Y-63358510D01*
X162340181Y-63251491D01*
X162476391Y-63115281D01*
X162583410Y-62955116D01*
X162657126Y-62777149D01*
X162694706Y-62588221D01*
X162694706Y-62395591D01*
X162657126Y-62206663D01*
X162583410Y-62028696D01*
X162476391Y-61868531D01*
X162340181Y-61732321D01*
X162180016Y-61625302D01*
X162002049Y-61551586D01*
X161813121Y-61514006D01*
X161620491Y-61514006D01*
X161431563Y-61551586D01*
X161253596Y-61625302D01*
X161093431Y-61732321D01*
X160957221Y-61868531D01*
X160850202Y-62028696D01*
X160776486Y-62206663D01*
X160738906Y-62395591D01*
X125061440Y-62395591D01*
X125061996Y-56037462D01*
X125062000Y-56037426D01*
X125062000Y-55997007D01*
X125062003Y-55962641D01*
X125062000Y-55962611D01*
X125062000Y-48995591D01*
X128561216Y-48995591D01*
X128561216Y-49188221D01*
X128598796Y-49377149D01*
X128672512Y-49555116D01*
X128779531Y-49715281D01*
X128915741Y-49851491D01*
X129075906Y-49958510D01*
X129231642Y-50023018D01*
X129172068Y-50166842D01*
X129115000Y-50453740D01*
X129115000Y-50746260D01*
X129172068Y-51033158D01*
X129284010Y-51303411D01*
X129446525Y-51546632D01*
X129653368Y-51753475D01*
X129896589Y-51915990D01*
X130166842Y-52027932D01*
X130453740Y-52085000D01*
X130746260Y-52085000D01*
X131033158Y-52027932D01*
X131303411Y-51915990D01*
X131546632Y-51753475D01*
X131753475Y-51546632D01*
X131915990Y-51303411D01*
X132027932Y-51033158D01*
X132085000Y-50746260D01*
X132085000Y-50453740D01*
X136115000Y-50453740D01*
X136115000Y-50746260D01*
X136172068Y-51033158D01*
X136284010Y-51303411D01*
X136446525Y-51546632D01*
X136653368Y-51753475D01*
X136896589Y-51915990D01*
X137166842Y-52027932D01*
X137453740Y-52085000D01*
X137746260Y-52085000D01*
X138033158Y-52027932D01*
X138303411Y-51915990D01*
X138546632Y-51753475D01*
X138753475Y-51546632D01*
X138915990Y-51303411D01*
X139027932Y-51033158D01*
X139085000Y-50746260D01*
X139085000Y-50453740D01*
X169015000Y-50453740D01*
X169015000Y-50746260D01*
X169072068Y-51033158D01*
X169184010Y-51303411D01*
X169346525Y-51546632D01*
X169553368Y-51753475D01*
X169796589Y-51915990D01*
X170066842Y-52027932D01*
X170353740Y-52085000D01*
X170646260Y-52085000D01*
X170933158Y-52027932D01*
X171203411Y-51915990D01*
X171446632Y-51753475D01*
X171653475Y-51546632D01*
X171815990Y-51303411D01*
X171927932Y-51033158D01*
X171985000Y-50746260D01*
X171985000Y-50453740D01*
X176015000Y-50453740D01*
X176015000Y-50746260D01*
X176072068Y-51033158D01*
X176184010Y-51303411D01*
X176346525Y-51546632D01*
X176553368Y-51753475D01*
X176796589Y-51915990D01*
X177066842Y-52027932D01*
X177353740Y-52085000D01*
X177646260Y-52085000D01*
X177933158Y-52027932D01*
X178203411Y-51915990D01*
X178446632Y-51753475D01*
X178653475Y-51546632D01*
X178815990Y-51303411D01*
X178927932Y-51033158D01*
X178985000Y-50746260D01*
X178985000Y-50453740D01*
X178927932Y-50166842D01*
X178815990Y-49896589D01*
X178653475Y-49653368D01*
X178446632Y-49446525D01*
X178203411Y-49284010D01*
X177933158Y-49172068D01*
X177646260Y-49115000D01*
X177353740Y-49115000D01*
X177066842Y-49172068D01*
X176796589Y-49284010D01*
X176553368Y-49446525D01*
X176346525Y-49653368D01*
X176184010Y-49896589D01*
X176072068Y-50166842D01*
X176015000Y-50453740D01*
X171985000Y-50453740D01*
X171927932Y-50166842D01*
X171815990Y-49896589D01*
X171653475Y-49653368D01*
X171446632Y-49446525D01*
X171203411Y-49284010D01*
X170933158Y-49172068D01*
X170646260Y-49115000D01*
X170353740Y-49115000D01*
X170066842Y-49172068D01*
X169796589Y-49284010D01*
X169553368Y-49446525D01*
X169346525Y-49653368D01*
X169184010Y-49896589D01*
X169072068Y-50166842D01*
X169015000Y-50453740D01*
X139085000Y-50453740D01*
X139027932Y-50166842D01*
X138915990Y-49896589D01*
X138753475Y-49653368D01*
X138546632Y-49446525D01*
X138303411Y-49284010D01*
X138033158Y-49172068D01*
X137746260Y-49115000D01*
X137453740Y-49115000D01*
X137166842Y-49172068D01*
X136896589Y-49284010D01*
X136653368Y-49446525D01*
X136446525Y-49653368D01*
X136284010Y-49896589D01*
X136172068Y-50166842D01*
X136115000Y-50453740D01*
X132085000Y-50453740D01*
X132027932Y-50166842D01*
X131915990Y-49896589D01*
X131753475Y-49653368D01*
X131546632Y-49446525D01*
X131303411Y-49284010D01*
X131033158Y-49172068D01*
X130746260Y-49115000D01*
X130517016Y-49115000D01*
X130517016Y-48995591D01*
X130479436Y-48806663D01*
X130405720Y-48628696D01*
X130298701Y-48468531D01*
X130162491Y-48332321D01*
X130002326Y-48225302D01*
X129824359Y-48151586D01*
X129635431Y-48114006D01*
X129442801Y-48114006D01*
X129253873Y-48151586D01*
X129075906Y-48225302D01*
X128915741Y-48332321D01*
X128779531Y-48468531D01*
X128672512Y-48628696D01*
X128598796Y-48806663D01*
X128561216Y-48995591D01*
X125062000Y-48995591D01*
X125062000Y-46037266D01*
X125089162Y-45760250D01*
X125158789Y-45529630D01*
X125271887Y-45316924D01*
X125424145Y-45130237D01*
X125609761Y-44976682D01*
X125821671Y-44862102D01*
X126051797Y-44790866D01*
X126326442Y-44762000D01*
X181762734Y-44762000D01*
X182039750Y-44789162D01*
G37*
%TD.AperFunction*%
%TD*%
M02*
