M48
; DRILL file {KiCad (5.1.9-0-10_14)} date Friday, September 23, 2022 at 09:55:48 AM
; FORMAT={-:-/ absolute / inch / decimal}
; #@! TF.CreationDate,2022-09-23T09:55:48-07:00
; #@! TF.GenerationSoftware,Kicad,Pcbnew,(5.1.9-0-10_14)
FMAT,2
INCH
T1C0.0079
T2C0.0130
T3C0.0236
T4C0.0354
T5C0.0394
T6C0.0472
T7C0.0256
T8C0.0354
T9C0.0669
%
G90
G05
T1
X5.6252Y-5.9679
X5.6252Y-6.0043
X5.6252Y-6.0407
X5.6677Y-5.9679
X5.6677Y-6.0043
X5.6677Y-6.0407
T2
X5.0492Y-6.0413
X5.0492Y-6.1634
X5.0551Y-5.0453
X5.057Y-4.8583
X5.1Y-1.9328
X5.2539Y-2.1417
X5.37Y-5.0531
X5.3729Y-5.7572
X5.4232Y-5.8937
X5.4464Y-5.4469
X5.4468Y-6.2654
X5.4956Y-2.5484
X5.498Y-5.1339
X5.5236Y-5.0965
X5.5275Y-6.0118
X5.5315Y-5.252
X5.5315Y-5.2874
X5.5401Y-6.1031
X5.5551Y-5.7579
X5.5708Y-5.1713
X5.5826Y-6.1031
X5.5891Y-2.2474
X5.6252Y-6.1031
X5.6633Y-5.3957
X5.6677Y-6.1031
X5.6746Y-5.2376
X5.7007Y-5.0965
X5.7007Y-5.1339
X5.7007Y-5.1713
X5.7041Y-5.5841
X5.7165Y-6.2421
X5.7216Y-2.3787
X5.7342Y-1.8346
X5.75Y-6.0413
X5.754Y-3.9458
X5.7628Y-4.0206
X5.7956Y-5.6354
X5.7956Y-5.6728
X5.7956Y-5.7122
X5.7956Y-5.7516
X5.8366Y-5.2618
X5.8533Y-5.2258
X5.8728Y-5.2633
X5.8783Y-5.3815
X5.8787Y-3.7976
X5.8799Y-3.7245
X5.8976Y-5.6811
X5.9141Y-2.578
X5.9271Y-5.8106
X5.9787Y-5.6803
X6.0094Y-2.5953
X6.0177Y-5.2177
X6.0177Y-5.3106
X6.0181Y-5.2618
X6.059Y-5.6819
X6.0618Y-5.5031
X6.0645Y-5.2177
X6.0645Y-5.3106
X6.0649Y-4.6319
X6.0649Y-5.2618
X6.0716Y-3.6559
X6.0925Y-4.9685
X6.1114Y-5.2173
X6.1114Y-5.3102
X6.1118Y-5.2614
X6.1174Y-2.6081
X6.1543Y-1.9906
X6.1653Y-2.6076
X6.1736Y-5.6051
X6.2011Y-5.8106
X6.2153Y-2.1898
X6.2153Y-2.3424
X6.2311Y-5.1273
X6.25Y-3.7993
X6.25Y-3.7244
X6.2555Y-5.6075
X6.2594Y-5.374
X6.2665Y-5.1254
X6.2696Y-5.1634
X6.2696Y-5.1969
X6.2712Y-5.2382
X6.2728Y-5.4413
X6.2909Y-4.9433
X6.2909Y-5.0248
X6.2933Y-4.6358
X6.3023Y-6.1717
X6.311Y-4.4606
X6.3448Y-6.1295
X6.3668Y-2.4603
X6.3819Y-6.0906
X6.3878Y-1.8346
X6.3917Y-5.6713
X6.4015Y-3.8406
X6.4022Y-4.4781
X6.4055Y-2.565
X6.437Y-4.4685
X6.437Y-5.224
X6.4389Y-4.0433
X6.4389Y-4.2638
X6.4389Y-5.3591
X6.4389Y-5.4409
X6.4586Y-4.5315
X6.4586Y-4.6299
X6.4704Y-6.0965
X6.4763Y-4.4705
X6.5067Y-5.7874
X6.5236Y-5.0394
X6.5236Y-5.3543
X6.559Y-3.8406
X6.559Y-4.435
X6.5728Y-5.7854
X6.5819Y-5.6256
X6.6316Y-5.7835
X6.6358Y-5.8583
X6.6633Y-5.813
X6.6633Y-5.8445
X6.748Y-2.1378
X6.7519Y-2.4882
X6.7637Y-4.2618
X6.7637Y-4.435
X6.7815Y-2.3583
X6.8425Y-3.8429
X6.8484Y-4.4724
X6.8602Y-4.5335
X6.8838Y-2.3563
X6.8838Y-4.0453
X6.8858Y-4.2618
X6.8858Y-4.4685
X6.8976Y-4.6614
X6.92Y-4.4823
X6.9543Y-2.1387
X6.9586Y-4.4724
X7.0078Y-3.8425
X7.0236Y-4.2657
X7.0791Y-6.0362
X7.1209Y-4.5303
X7.187Y-4.5748
X7.2795Y-3.4894
T4
X4.8452Y-3.3961
X4.8452Y-3.5724
X5.9767Y-1.8016
X6.1531Y-1.8016
X7.2807Y-3.4007
X7.2807Y-3.5771
T5
X5.1677Y-4.8882
X5.1677Y-4.9882
X5.2677Y-4.8882
X5.2677Y-4.9882
X6.5137Y-6.2224
X6.6137Y-6.2224
X6.7338Y-4.8965
X6.7338Y-4.9965
X6.7338Y-5.0965
X6.7338Y-5.1965
X6.7338Y-5.2965
X6.8338Y-4.8965
X6.8338Y-4.9965
X6.8338Y-5.0965
X6.8338Y-5.1965
X6.8338Y-5.2965
T6
X4.9433Y-3.3461
X4.9433Y-3.6224
X5.9267Y-1.8996
X6.2031Y-1.8996
X7.1826Y-3.3507
X7.1826Y-3.6271
T7
X5.9507Y-6.0929
X6.1783Y-6.0929
T8
X5.4935Y-6.2244
X5.6608Y-6.2244
T9
X5.1417Y-1.9921
X5.4173Y-1.9921
X6.7126Y-1.9921
X6.9882Y-1.9921
T3
G00X5.8944Y-6.0949
M15
G01X5.8944Y-6.0516
M16
G05
G00X5.8944Y-6.2535
M15
G01X5.8944Y-6.222
M16
G05
G00X6.2346Y-6.0949
M15
G01X6.2346Y-6.0516
M16
G05
G00X6.2346Y-6.2535
M15
G01X6.2346Y-6.222
M16
G05
T0
M30
