M48
; DRILL file {KiCad (5.1.9-0-10_14)} date Tuesday, February 02, 2021 at 08:17:14 AM
; FORMAT={-:-/ absolute / inch / decimal}
; #@! TF.CreationDate,2021-02-02T08:17:14-08:00
; #@! TF.GenerationSoftware,Kicad,Pcbnew,(5.1.9-0-10_14)
; #@! TF.FileFunction,Plated,1,2,PTH
FMAT,2
INCH
T1C0.0130
T2C0.0197
T3C0.0394
T4C0.0433
%
G90
G05
T1
X5.78Y-2.88
X5.81Y-2.81
X5.8355Y-2.75
X5.84Y-3.09
X5.8705Y-3.03
X5.89Y-3.11
X5.9Y-3.2
X5.94Y-3.35
X6.09Y-3.2001
X6.1Y-3.37
X6.1088Y-3.3064
X6.1134Y-3.2246
X6.21Y-3.2001
X6.32Y-1.85
X6.37Y-1.47
X6.46Y-3.46
X6.52Y-3.46
X6.6075Y-3.0575
X6.8039Y-1.6661
X7.06Y-3.23
X7.11Y-3.23
X7.16Y-3.23
X7.2232Y-3.23
X7.31Y-3.23
X7.45Y-1.37
X7.45Y-1.41
X7.49Y-1.53
X7.51Y-1.45
X7.57Y-1.41
X7.65Y-1.37
X7.86Y-3.16
X7.91Y-3.47
X7.93Y-1.33
X7.94Y-3.35
X8.0Y-3.16
X8.01Y-2.3
X8.01Y-2.94
X8.04Y-1.44
X8.06Y-2.6
T2
X7.2579Y-3.3071
X7.4079Y-3.3071
T3
X6.652Y-1.616
X6.652Y-1.716
X6.752Y-1.616
X6.752Y-1.716
X6.852Y-1.616
X6.852Y-1.716
X6.952Y-1.616
X6.952Y-1.716
X7.052Y-1.616
X7.052Y-1.716
X7.152Y-1.616
X7.152Y-1.716
T4
X6.3579Y-3.0071
X6.3579Y-3.1071
X6.3579Y-3.2071
X6.3579Y-3.3071
X6.3579Y-3.4071
X6.3579Y-3.5071
X6.3579Y-3.6071
X6.4579Y-3.0071
X6.4579Y-3.6071
X6.5579Y-3.0071
X6.5579Y-3.6071
X6.6579Y-3.0071
X6.6579Y-3.6071
X6.7579Y-3.0071
X6.7579Y-3.6071
X6.8579Y-3.0071
X6.8579Y-3.6071
X6.9579Y-3.0071
X6.9579Y-3.6071
X7.0579Y-3.0071
X7.0579Y-3.6071
X7.1579Y-3.0071
X7.1579Y-3.5071
X7.1579Y-3.6071
X7.2579Y-3.0071
X7.2579Y-3.5071
X7.2579Y-3.6071
X7.3579Y-3.0071
X7.3579Y-3.5071
X7.3579Y-3.6071
X7.4579Y-3.0071
X7.4579Y-3.6071
X7.5579Y-3.0071
X7.5579Y-3.5071
X7.5579Y-3.6071
X7.6579Y-3.0071
X7.6579Y-3.6071
T0
M30
