%TF.GenerationSoftware,KiCad,Pcbnew,(5.1.9-0-10_14)*%
%TF.CreationDate,2022-09-23T09:55:45-07:00*%
%TF.ProjectId,integrator,696e7465-6772-4617-946f-722e6b696361,rev?*%
%TF.SameCoordinates,Original*%
%TF.FileFunction,Copper,L4,Bot*%
%TF.FilePolarity,Positive*%
%FSLAX46Y46*%
G04 Gerber Fmt 4.6, Leading zero omitted, Abs format (unit mm)*
G04 Created by KiCad (PCBNEW (5.1.9-0-10_14)) date 2022-09-23 09:55:45*
%MOMM*%
%LPD*%
G01*
G04 APERTURE LIST*
%TA.AperFunction,EtchedComponent*%
%ADD10C,0.100000*%
%TD*%
%TA.AperFunction,SMDPad,CuDef*%
%ADD11R,3.200400X3.200400*%
%TD*%
%TA.AperFunction,SMDPad,CuDef*%
%ADD12R,0.177800X0.812800*%
%TD*%
%TA.AperFunction,SMDPad,CuDef*%
%ADD13R,0.812800X0.177800*%
%TD*%
%TA.AperFunction,ComponentPad*%
%ADD14O,1.700000X1.700000*%
%TD*%
%TA.AperFunction,ComponentPad*%
%ADD15R,1.700000X1.700000*%
%TD*%
%TA.AperFunction,ComponentPad*%
%ADD16C,0.500000*%
%TD*%
%TA.AperFunction,SMDPad,CuDef*%
%ADD17R,1.700000X2.450000*%
%TD*%
%TA.AperFunction,SMDPad,CuDef*%
%ADD18R,1.300000X0.900000*%
%TD*%
%TA.AperFunction,SMDPad,CuDef*%
%ADD19R,0.750000X1.800000*%
%TD*%
%TA.AperFunction,SMDPad,CuDef*%
%ADD20R,0.600000X1.800000*%
%TD*%
%TA.AperFunction,SMDPad,CuDef*%
%ADD21C,0.100000*%
%TD*%
%TA.AperFunction,SMDPad,CuDef*%
%ADD22R,1.500000X1.000000*%
%TD*%
%TA.AperFunction,SMDPad,CuDef*%
%ADD23R,5.600000X2.100000*%
%TD*%
%TA.AperFunction,SMDPad,CuDef*%
%ADD24R,0.558800X1.003300*%
%TD*%
%TA.AperFunction,SMDPad,CuDef*%
%ADD25R,1.295400X0.889000*%
%TD*%
%TA.AperFunction,SMDPad,CuDef*%
%ADD26R,0.254000X0.660400*%
%TD*%
%TA.AperFunction,ComponentPad*%
%ADD27C,2.000000*%
%TD*%
%TA.AperFunction,ComponentPad*%
%ADD28C,1.700000*%
%TD*%
%TA.AperFunction,SMDPad,CuDef*%
%ADD29C,2.000000*%
%TD*%
%TA.AperFunction,SMDPad,CuDef*%
%ADD30R,2.600000X2.800000*%
%TD*%
%TA.AperFunction,SMDPad,CuDef*%
%ADD31R,2.200000X2.800000*%
%TD*%
%TA.AperFunction,SMDPad,CuDef*%
%ADD32R,2.800000X2.800000*%
%TD*%
%TA.AperFunction,SMDPad,CuDef*%
%ADD33R,0.304800X0.533400*%
%TD*%
%TA.AperFunction,SMDPad,CuDef*%
%ADD34R,0.533400X0.304800*%
%TD*%
%TA.AperFunction,ComponentPad*%
%ADD35O,1.000000X2.000000*%
%TD*%
%TA.AperFunction,ComponentPad*%
%ADD36O,1.050000X2.100000*%
%TD*%
%TA.AperFunction,SMDPad,CuDef*%
%ADD37R,0.600000X1.150000*%
%TD*%
%TA.AperFunction,SMDPad,CuDef*%
%ADD38R,0.300000X1.150000*%
%TD*%
%TA.AperFunction,SMDPad,CuDef*%
%ADD39R,1.100000X2.000000*%
%TD*%
%TA.AperFunction,SMDPad,CuDef*%
%ADD40R,1.100000X0.800000*%
%TD*%
%TA.AperFunction,ViaPad*%
%ADD41C,0.685800*%
%TD*%
%TA.AperFunction,Conductor*%
%ADD42C,0.508000*%
%TD*%
%TA.AperFunction,Conductor*%
%ADD43C,0.254000*%
%TD*%
%TA.AperFunction,Conductor*%
%ADD44C,0.750000*%
%TD*%
%TA.AperFunction,Conductor*%
%ADD45C,0.762000*%
%TD*%
%TA.AperFunction,Conductor*%
%ADD46C,0.500000*%
%TD*%
%TA.AperFunction,Conductor*%
%ADD47C,0.350000*%
%TD*%
G04 APERTURE END LIST*
D10*
%TO.C,JP8*%
G36*
X174649000Y-115700000D02*
G01*
X175149000Y-115700000D01*
X175149000Y-115300000D01*
X174649000Y-115300000D01*
X174649000Y-115700000D01*
G37*
G36*
X174649000Y-114900000D02*
G01*
X175149000Y-114900000D01*
X175149000Y-114500000D01*
X174649000Y-114500000D01*
X174649000Y-114900000D01*
G37*
%TO.C,JP7*%
G36*
X163149000Y-115700000D02*
G01*
X163649000Y-115700000D01*
X163649000Y-115300000D01*
X163149000Y-115300000D01*
X163149000Y-115700000D01*
G37*
G36*
X163149000Y-114900000D02*
G01*
X163649000Y-114900000D01*
X163649000Y-114500000D01*
X163149000Y-114500000D01*
X163149000Y-114900000D01*
G37*
%TO.C,JP6*%
G36*
X165049000Y-145250000D02*
G01*
X165049000Y-144750000D01*
X164649000Y-144750000D01*
X164649000Y-145250000D01*
X165049000Y-145250000D01*
G37*
G36*
X165849000Y-145250000D02*
G01*
X165849000Y-144750000D01*
X165449000Y-144750000D01*
X165449000Y-145250000D01*
X165849000Y-145250000D01*
G37*
%TD*%
%TO.P,LED4,2*%
%TO.N,led4*%
%TA.AperFunction,SMDPad,CuDef*%
G36*
G01*
X137205250Y-157550000D02*
X136692750Y-157550000D01*
G75*
G02*
X136474000Y-157331250I0J218750D01*
G01*
X136474000Y-156893750D01*
G75*
G02*
X136692750Y-156675000I218750J0D01*
G01*
X137205250Y-156675000D01*
G75*
G02*
X137424000Y-156893750I0J-218750D01*
G01*
X137424000Y-157331250D01*
G75*
G02*
X137205250Y-157550000I-218750J0D01*
G01*
G37*
%TD.AperFunction*%
%TO.P,LED4,1*%
%TO.N,Earth*%
%TA.AperFunction,SMDPad,CuDef*%
G36*
G01*
X137205250Y-159125000D02*
X136692750Y-159125000D01*
G75*
G02*
X136474000Y-158906250I0J218750D01*
G01*
X136474000Y-158468750D01*
G75*
G02*
X136692750Y-158250000I218750J0D01*
G01*
X137205250Y-158250000D01*
G75*
G02*
X137424000Y-158468750I0J-218750D01*
G01*
X137424000Y-158906250D01*
G75*
G02*
X137205250Y-159125000I-218750J0D01*
G01*
G37*
%TD.AperFunction*%
%TD*%
%TO.P,LED3,2*%
%TO.N,led3*%
%TA.AperFunction,SMDPad,CuDef*%
G36*
G01*
X153699000Y-50243750D02*
X153699000Y-50756250D01*
G75*
G02*
X153480250Y-50975000I-218750J0D01*
G01*
X153042750Y-50975000D01*
G75*
G02*
X152824000Y-50756250I0J218750D01*
G01*
X152824000Y-50243750D01*
G75*
G02*
X153042750Y-50025000I218750J0D01*
G01*
X153480250Y-50025000D01*
G75*
G02*
X153699000Y-50243750I0J-218750D01*
G01*
G37*
%TD.AperFunction*%
%TO.P,LED3,1*%
%TO.N,Earth*%
%TA.AperFunction,SMDPad,CuDef*%
G36*
G01*
X155274000Y-50243750D02*
X155274000Y-50756250D01*
G75*
G02*
X155055250Y-50975000I-218750J0D01*
G01*
X154617750Y-50975000D01*
G75*
G02*
X154399000Y-50756250I0J218750D01*
G01*
X154399000Y-50243750D01*
G75*
G02*
X154617750Y-50025000I218750J0D01*
G01*
X155055250Y-50025000D01*
G75*
G02*
X155274000Y-50243750I0J-218750D01*
G01*
G37*
%TD.AperFunction*%
%TD*%
%TO.P,LED2,2*%
%TO.N,led2*%
%TA.AperFunction,SMDPad,CuDef*%
G36*
G01*
X181882750Y-46400000D02*
X182395250Y-46400000D01*
G75*
G02*
X182614000Y-46618750I0J-218750D01*
G01*
X182614000Y-47056250D01*
G75*
G02*
X182395250Y-47275000I-218750J0D01*
G01*
X181882750Y-47275000D01*
G75*
G02*
X181664000Y-47056250I0J218750D01*
G01*
X181664000Y-46618750D01*
G75*
G02*
X181882750Y-46400000I218750J0D01*
G01*
G37*
%TD.AperFunction*%
%TO.P,LED2,1*%
%TO.N,Earth*%
%TA.AperFunction,SMDPad,CuDef*%
G36*
G01*
X181882750Y-44825000D02*
X182395250Y-44825000D01*
G75*
G02*
X182614000Y-45043750I0J-218750D01*
G01*
X182614000Y-45481250D01*
G75*
G02*
X182395250Y-45700000I-218750J0D01*
G01*
X181882750Y-45700000D01*
G75*
G02*
X181664000Y-45481250I0J218750D01*
G01*
X181664000Y-45043750D01*
G75*
G02*
X181882750Y-44825000I218750J0D01*
G01*
G37*
%TD.AperFunction*%
%TD*%
%TO.P,LED1,2*%
%TO.N,led1*%
%TA.AperFunction,SMDPad,CuDef*%
G36*
G01*
X125732750Y-46380000D02*
X126245250Y-46380000D01*
G75*
G02*
X126464000Y-46598750I0J-218750D01*
G01*
X126464000Y-47036250D01*
G75*
G02*
X126245250Y-47255000I-218750J0D01*
G01*
X125732750Y-47255000D01*
G75*
G02*
X125514000Y-47036250I0J218750D01*
G01*
X125514000Y-46598750D01*
G75*
G02*
X125732750Y-46380000I218750J0D01*
G01*
G37*
%TD.AperFunction*%
%TO.P,LED1,1*%
%TO.N,Earth*%
%TA.AperFunction,SMDPad,CuDef*%
G36*
G01*
X125732750Y-44805000D02*
X126245250Y-44805000D01*
G75*
G02*
X126464000Y-45023750I0J-218750D01*
G01*
X126464000Y-45461250D01*
G75*
G02*
X126245250Y-45680000I-218750J0D01*
G01*
X125732750Y-45680000D01*
G75*
G02*
X125514000Y-45461250I0J218750D01*
G01*
X125514000Y-45023750D01*
G75*
G02*
X125732750Y-44805000I218750J0D01*
G01*
G37*
%TD.AperFunction*%
%TD*%
D11*
%TO.P,U5,57*%
%TO.N,Earth*%
X154049000Y-133700000D03*
D12*
%TO.P,U5,56*%
%TO.N,Net-(R15-Pad1)*%
X151407400Y-137103600D03*
%TO.P,U5,55*%
%TO.N,Net-(U5-Pad55)*%
X151813800Y-137103600D03*
%TO.P,U5,54*%
%TO.N,Net-(U5-Pad54)*%
X152220200Y-137103600D03*
%TO.P,U5,53*%
%TO.N,Net-(U5-Pad53)*%
X152626600Y-137103600D03*
%TO.P,U5,52*%
%TO.N,Net-(U5-Pad52)*%
X153033000Y-137103600D03*
%TO.P,U5,51*%
%TO.N,Net-(U5-Pad51)*%
X153439400Y-137103600D03*
%TO.P,U5,50*%
%TO.N,VInt*%
X153845800Y-137103600D03*
%TO.P,U5,49*%
%TO.N,VReg*%
X154252200Y-137103600D03*
%TO.P,U5,48*%
X154658600Y-137103600D03*
%TO.P,U5,47*%
%TO.N,usb_d+*%
X155065000Y-137103600D03*
%TO.P,U5,46*%
%TO.N,usb_d-*%
X155471400Y-137103600D03*
%TO.P,U5,45*%
%TO.N,VInt*%
X155877800Y-137103600D03*
%TO.P,U5,44*%
%TO.N,VReg*%
X156284200Y-137103600D03*
%TO.P,U5,43*%
%TO.N,VAref*%
X156690600Y-137103600D03*
D13*
%TO.P,U5,42*%
%TO.N,VReg*%
X157452600Y-136341600D03*
%TO.P,U5,41*%
%TO.N,N/C*%
X157452600Y-135935200D03*
%TO.P,U5,40*%
X157452600Y-135528800D03*
%TO.P,U5,39*%
X157452600Y-135122400D03*
%TO.P,U5,38*%
%TO.N,po_wake*%
X157452600Y-134716000D03*
%TO.P,U5,37*%
%TO.N,N/C*%
X157452600Y-134309600D03*
%TO.P,U5,36*%
%TO.N,sw2*%
X157452600Y-133903200D03*
%TO.P,U5,35*%
%TO.N,led2*%
X157452600Y-133496800D03*
%TO.P,U5,34*%
%TO.N,po_reset*%
X157452600Y-133090400D03*
%TO.P,U5,33*%
%TO.N,VReg*%
X157452600Y-132684000D03*
%TO.P,U5,32*%
%TO.N,tip2*%
X157452600Y-132277600D03*
%TO.P,U5,31*%
%TO.N,ring2*%
X157452600Y-131871200D03*
%TO.P,U5,30*%
%TO.N,tip1*%
X157452600Y-131464800D03*
%TO.P,U5,29*%
%TO.N,ring1*%
X157452600Y-131058400D03*
D12*
%TO.P,U5,28*%
%TO.N,N/C*%
X156690600Y-130296400D03*
%TO.P,U5,27*%
X156284200Y-130296400D03*
%TO.P,U5,26*%
%TO.N,pi_reset*%
X155877800Y-130296400D03*
%TO.P,U5,25*%
%TO.N,pi_swdio*%
X155471400Y-130296400D03*
%TO.P,U5,24*%
%TO.N,pi_swclk*%
X155065000Y-130296400D03*
%TO.P,U5,23*%
%TO.N,VInt*%
X154658600Y-130296400D03*
%TO.P,U5,22*%
%TO.N,VReg*%
X154252200Y-130296400D03*
%TO.P,U5,21*%
%TO.N,/xout*%
X153845800Y-130296400D03*
%TO.P,U5,20*%
%TO.N,/xin*%
X153439400Y-130296400D03*
%TO.P,U5,19*%
%TO.N,Earth*%
X153033000Y-130296400D03*
%TO.P,U5,18*%
%TO.N,spi_mosi*%
X152626600Y-130296400D03*
%TO.P,U5,17*%
%TO.N,spi_cs*%
X152220200Y-130296400D03*
%TO.P,U5,16*%
%TO.N,spi_clock*%
X151813800Y-130296400D03*
%TO.P,U5,15*%
%TO.N,spi_miso*%
X151407400Y-130296400D03*
D13*
%TO.P,U5,14*%
%TO.N,imu_int*%
X150645400Y-131058400D03*
%TO.P,U5,13*%
%TO.N,sw1*%
X150645400Y-131464800D03*
%TO.P,U5,12*%
%TO.N,led1*%
X150645400Y-131871200D03*
%TO.P,U5,11*%
%TO.N,led3*%
X150645400Y-132277600D03*
%TO.P,U5,10*%
%TO.N,VReg*%
X150645400Y-132684000D03*
%TO.P,U5,9*%
%TO.N,N/C*%
X150645400Y-133090400D03*
%TO.P,U5,8*%
%TO.N,led4*%
X150645400Y-133496800D03*
%TO.P,U5,7*%
%TO.N,sw4*%
X150645400Y-133903200D03*
%TO.P,U5,6*%
%TO.N,po_play*%
X150645400Y-134309600D03*
%TO.P,U5,5*%
%TO.N,po_swo*%
X150645400Y-134716000D03*
%TO.P,U5,4*%
%TO.N,po_swdio*%
X150645400Y-135122400D03*
%TO.P,U5,3*%
%TO.N,po_swclk*%
X150645400Y-135528800D03*
%TO.P,U5,2*%
%TO.N,sw3*%
X150645400Y-135935200D03*
%TO.P,U5,1*%
%TO.N,VReg*%
X150645400Y-136341600D03*
%TD*%
D14*
%TO.P,J7,3*%
%TO.N,/po_batt*%
X131259000Y-124160000D03*
%TO.P,J7,4*%
%TO.N,VRaw*%
X131259000Y-126700000D03*
%TO.P,J7,2*%
%TO.N,/po_batt*%
X133799000Y-124160000D03*
D15*
%TO.P,J7,1*%
%TO.N,VReg*%
X133799000Y-126700000D03*
%TD*%
D16*
%TO.P,U2,13*%
%TO.N,N/C*%
X143959000Y-151585000D03*
X142879000Y-151585000D03*
X143959000Y-152510000D03*
X142879000Y-152510000D03*
X143959000Y-153435000D03*
X142879000Y-153435000D03*
D17*
X143419000Y-152510000D03*
%TO.P,U2,12*%
%TO.N,VReg*%
%TA.AperFunction,SMDPad,CuDef*%
G36*
G01*
X144519000Y-153560000D02*
X144519000Y-153460000D01*
G75*
G02*
X144569000Y-153410000I50000J0D01*
G01*
X145244000Y-153410000D01*
G75*
G02*
X145294000Y-153460000I0J-50000D01*
G01*
X145294000Y-153560000D01*
G75*
G02*
X145244000Y-153610000I-50000J0D01*
G01*
X144569000Y-153610000D01*
G75*
G02*
X144519000Y-153560000I0J50000D01*
G01*
G37*
%TD.AperFunction*%
%TO.P,U2,11*%
%TO.N,Earth*%
%TA.AperFunction,SMDPad,CuDef*%
G36*
G01*
X144519000Y-153160000D02*
X144519000Y-153060000D01*
G75*
G02*
X144569000Y-153010000I50000J0D01*
G01*
X145244000Y-153010000D01*
G75*
G02*
X145294000Y-153060000I0J-50000D01*
G01*
X145294000Y-153160000D01*
G75*
G02*
X145244000Y-153210000I-50000J0D01*
G01*
X144569000Y-153210000D01*
G75*
G02*
X144519000Y-153160000I0J50000D01*
G01*
G37*
%TD.AperFunction*%
%TO.P,U2,10*%
%TO.N,VRaw*%
%TA.AperFunction,SMDPad,CuDef*%
G36*
G01*
X144519000Y-152760000D02*
X144519000Y-152660000D01*
G75*
G02*
X144569000Y-152610000I50000J0D01*
G01*
X145244000Y-152610000D01*
G75*
G02*
X145294000Y-152660000I0J-50000D01*
G01*
X145294000Y-152760000D01*
G75*
G02*
X145244000Y-152810000I-50000J0D01*
G01*
X144569000Y-152810000D01*
G75*
G02*
X144519000Y-152760000I0J50000D01*
G01*
G37*
%TD.AperFunction*%
%TO.P,U2,9*%
%TA.AperFunction,SMDPad,CuDef*%
G36*
G01*
X144519000Y-152360000D02*
X144519000Y-152260000D01*
G75*
G02*
X144569000Y-152210000I50000J0D01*
G01*
X145244000Y-152210000D01*
G75*
G02*
X145294000Y-152260000I0J-50000D01*
G01*
X145294000Y-152360000D01*
G75*
G02*
X145244000Y-152410000I-50000J0D01*
G01*
X144569000Y-152410000D01*
G75*
G02*
X144519000Y-152360000I0J50000D01*
G01*
G37*
%TD.AperFunction*%
%TO.P,U2,8*%
%TO.N,N/C*%
%TA.AperFunction,SMDPad,CuDef*%
G36*
G01*
X144519000Y-151960000D02*
X144519000Y-151860000D01*
G75*
G02*
X144569000Y-151810000I50000J0D01*
G01*
X145244000Y-151810000D01*
G75*
G02*
X145294000Y-151860000I0J-50000D01*
G01*
X145294000Y-151960000D01*
G75*
G02*
X145244000Y-152010000I-50000J0D01*
G01*
X144569000Y-152010000D01*
G75*
G02*
X144519000Y-151960000I0J50000D01*
G01*
G37*
%TD.AperFunction*%
%TO.P,U2,7*%
%TA.AperFunction,SMDPad,CuDef*%
G36*
G01*
X144519000Y-151560000D02*
X144519000Y-151460000D01*
G75*
G02*
X144569000Y-151410000I50000J0D01*
G01*
X145244000Y-151410000D01*
G75*
G02*
X145294000Y-151460000I0J-50000D01*
G01*
X145294000Y-151560000D01*
G75*
G02*
X145244000Y-151610000I-50000J0D01*
G01*
X144569000Y-151610000D01*
G75*
G02*
X144519000Y-151560000I0J50000D01*
G01*
G37*
%TD.AperFunction*%
%TO.P,U2,6*%
%TO.N,VRaw*%
%TA.AperFunction,SMDPad,CuDef*%
G36*
G01*
X141544000Y-151560000D02*
X141544000Y-151460000D01*
G75*
G02*
X141594000Y-151410000I50000J0D01*
G01*
X142269000Y-151410000D01*
G75*
G02*
X142319000Y-151460000I0J-50000D01*
G01*
X142319000Y-151560000D01*
G75*
G02*
X142269000Y-151610000I-50000J0D01*
G01*
X141594000Y-151610000D01*
G75*
G02*
X141544000Y-151560000I0J50000D01*
G01*
G37*
%TD.AperFunction*%
%TO.P,U2,5*%
%TA.AperFunction,SMDPad,CuDef*%
G36*
G01*
X141544000Y-151960000D02*
X141544000Y-151860000D01*
G75*
G02*
X141594000Y-151810000I50000J0D01*
G01*
X142269000Y-151810000D01*
G75*
G02*
X142319000Y-151860000I0J-50000D01*
G01*
X142319000Y-151960000D01*
G75*
G02*
X142269000Y-152010000I-50000J0D01*
G01*
X141594000Y-152010000D01*
G75*
G02*
X141544000Y-151960000I0J50000D01*
G01*
G37*
%TD.AperFunction*%
%TO.P,U2,4*%
%TO.N,Net-(L1-Pad2)*%
%TA.AperFunction,SMDPad,CuDef*%
G36*
G01*
X141544000Y-152360000D02*
X141544000Y-152260000D01*
G75*
G02*
X141594000Y-152210000I50000J0D01*
G01*
X142269000Y-152210000D01*
G75*
G02*
X142319000Y-152260000I0J-50000D01*
G01*
X142319000Y-152360000D01*
G75*
G02*
X142269000Y-152410000I-50000J0D01*
G01*
X141594000Y-152410000D01*
G75*
G02*
X141544000Y-152360000I0J50000D01*
G01*
G37*
%TD.AperFunction*%
%TO.P,U2,3*%
%TO.N,Earth*%
%TA.AperFunction,SMDPad,CuDef*%
G36*
G01*
X141544000Y-152760000D02*
X141544000Y-152660000D01*
G75*
G02*
X141594000Y-152610000I50000J0D01*
G01*
X142269000Y-152610000D01*
G75*
G02*
X142319000Y-152660000I0J-50000D01*
G01*
X142319000Y-152760000D01*
G75*
G02*
X142269000Y-152810000I-50000J0D01*
G01*
X141594000Y-152810000D01*
G75*
G02*
X141544000Y-152760000I0J50000D01*
G01*
G37*
%TD.AperFunction*%
%TO.P,U2,2*%
%TO.N,Net-(L1-Pad1)*%
%TA.AperFunction,SMDPad,CuDef*%
G36*
G01*
X141544000Y-153160000D02*
X141544000Y-153060000D01*
G75*
G02*
X141594000Y-153010000I50000J0D01*
G01*
X142269000Y-153010000D01*
G75*
G02*
X142319000Y-153060000I0J-50000D01*
G01*
X142319000Y-153160000D01*
G75*
G02*
X142269000Y-153210000I-50000J0D01*
G01*
X141594000Y-153210000D01*
G75*
G02*
X141544000Y-153160000I0J50000D01*
G01*
G37*
%TD.AperFunction*%
%TO.P,U2,1*%
%TO.N,VReg*%
%TA.AperFunction,SMDPad,CuDef*%
G36*
G01*
X141544000Y-153560000D02*
X141544000Y-153460000D01*
G75*
G02*
X141594000Y-153410000I50000J0D01*
G01*
X142269000Y-153410000D01*
G75*
G02*
X142319000Y-153460000I0J-50000D01*
G01*
X142319000Y-153560000D01*
G75*
G02*
X142269000Y-153610000I-50000J0D01*
G01*
X141594000Y-153610000D01*
G75*
G02*
X141544000Y-153560000I0J50000D01*
G01*
G37*
%TD.AperFunction*%
%TD*%
%TO.P,U6,8*%
%TO.N,VReg*%
%TA.AperFunction,SMDPad,CuDef*%
G36*
G01*
X140944000Y-146800000D02*
X141244000Y-146800000D01*
G75*
G02*
X141394000Y-146950000I0J-150000D01*
G01*
X141394000Y-148250000D01*
G75*
G02*
X141244000Y-148400000I-150000J0D01*
G01*
X140944000Y-148400000D01*
G75*
G02*
X140794000Y-148250000I0J150000D01*
G01*
X140794000Y-146950000D01*
G75*
G02*
X140944000Y-146800000I150000J0D01*
G01*
G37*
%TD.AperFunction*%
%TO.P,U6,7*%
%TO.N,Net-(U5-Pad51)*%
%TA.AperFunction,SMDPad,CuDef*%
G36*
G01*
X142214000Y-146800000D02*
X142514000Y-146800000D01*
G75*
G02*
X142664000Y-146950000I0J-150000D01*
G01*
X142664000Y-148250000D01*
G75*
G02*
X142514000Y-148400000I-150000J0D01*
G01*
X142214000Y-148400000D01*
G75*
G02*
X142064000Y-148250000I0J150000D01*
G01*
X142064000Y-146950000D01*
G75*
G02*
X142214000Y-146800000I150000J0D01*
G01*
G37*
%TD.AperFunction*%
%TO.P,U6,6*%
%TO.N,Net-(U5-Pad52)*%
%TA.AperFunction,SMDPad,CuDef*%
G36*
G01*
X143484000Y-146800000D02*
X143784000Y-146800000D01*
G75*
G02*
X143934000Y-146950000I0J-150000D01*
G01*
X143934000Y-148250000D01*
G75*
G02*
X143784000Y-148400000I-150000J0D01*
G01*
X143484000Y-148400000D01*
G75*
G02*
X143334000Y-148250000I0J150000D01*
G01*
X143334000Y-146950000D01*
G75*
G02*
X143484000Y-146800000I150000J0D01*
G01*
G37*
%TD.AperFunction*%
%TO.P,U6,5*%
%TO.N,Net-(U5-Pad53)*%
%TA.AperFunction,SMDPad,CuDef*%
G36*
G01*
X144754000Y-146800000D02*
X145054000Y-146800000D01*
G75*
G02*
X145204000Y-146950000I0J-150000D01*
G01*
X145204000Y-148250000D01*
G75*
G02*
X145054000Y-148400000I-150000J0D01*
G01*
X144754000Y-148400000D01*
G75*
G02*
X144604000Y-148250000I0J150000D01*
G01*
X144604000Y-146950000D01*
G75*
G02*
X144754000Y-146800000I150000J0D01*
G01*
G37*
%TD.AperFunction*%
%TO.P,U6,4*%
%TO.N,Earth*%
%TA.AperFunction,SMDPad,CuDef*%
G36*
G01*
X144754000Y-139600000D02*
X145054000Y-139600000D01*
G75*
G02*
X145204000Y-139750000I0J-150000D01*
G01*
X145204000Y-141050000D01*
G75*
G02*
X145054000Y-141200000I-150000J0D01*
G01*
X144754000Y-141200000D01*
G75*
G02*
X144604000Y-141050000I0J150000D01*
G01*
X144604000Y-139750000D01*
G75*
G02*
X144754000Y-139600000I150000J0D01*
G01*
G37*
%TD.AperFunction*%
%TO.P,U6,3*%
%TO.N,Net-(U5-Pad54)*%
%TA.AperFunction,SMDPad,CuDef*%
G36*
G01*
X143484000Y-139600000D02*
X143784000Y-139600000D01*
G75*
G02*
X143934000Y-139750000I0J-150000D01*
G01*
X143934000Y-141050000D01*
G75*
G02*
X143784000Y-141200000I-150000J0D01*
G01*
X143484000Y-141200000D01*
G75*
G02*
X143334000Y-141050000I0J150000D01*
G01*
X143334000Y-139750000D01*
G75*
G02*
X143484000Y-139600000I150000J0D01*
G01*
G37*
%TD.AperFunction*%
%TO.P,U6,2*%
%TO.N,Net-(U5-Pad55)*%
%TA.AperFunction,SMDPad,CuDef*%
G36*
G01*
X142214000Y-139600000D02*
X142514000Y-139600000D01*
G75*
G02*
X142664000Y-139750000I0J-150000D01*
G01*
X142664000Y-141050000D01*
G75*
G02*
X142514000Y-141200000I-150000J0D01*
G01*
X142214000Y-141200000D01*
G75*
G02*
X142064000Y-141050000I0J150000D01*
G01*
X142064000Y-139750000D01*
G75*
G02*
X142214000Y-139600000I150000J0D01*
G01*
G37*
%TD.AperFunction*%
%TO.P,U6,1*%
%TO.N,Net-(R15-Pad1)*%
%TA.AperFunction,SMDPad,CuDef*%
G36*
G01*
X140944000Y-139600000D02*
X141244000Y-139600000D01*
G75*
G02*
X141394000Y-139750000I0J-150000D01*
G01*
X141394000Y-141050000D01*
G75*
G02*
X141244000Y-141200000I-150000J0D01*
G01*
X140944000Y-141200000D01*
G75*
G02*
X140794000Y-141050000I0J150000D01*
G01*
X140794000Y-139750000D01*
G75*
G02*
X140944000Y-139600000I150000J0D01*
G01*
G37*
%TD.AperFunction*%
%TD*%
D18*
%TO.P,SW4,mp2*%
%TO.N,Earth*%
X140059000Y-159150000D03*
%TO.P,SW4,mp1*%
X143259000Y-159150000D03*
D19*
%TO.P,SW4,3*%
%TO.N,N/C*%
X140434000Y-157200000D03*
D20*
%TO.P,SW4,2*%
%TO.N,Earth*%
X141659000Y-157200000D03*
D19*
%TO.P,SW4,1*%
%TO.N,sw4*%
X142884000Y-157200000D03*
%TD*%
%TA.AperFunction,SMDPad,CuDef*%
D21*
%TO.P,JP8,1*%
%TO.N,VAref*%
G36*
X174749000Y-115850000D02*
G01*
X174249000Y-115850000D01*
X174249000Y-115849398D01*
X174224466Y-115849398D01*
X174175635Y-115844588D01*
X174127510Y-115835016D01*
X174080555Y-115820772D01*
X174035222Y-115801995D01*
X173991949Y-115778864D01*
X173951150Y-115751604D01*
X173913221Y-115720476D01*
X173878524Y-115685779D01*
X173847396Y-115647850D01*
X173820136Y-115607051D01*
X173797005Y-115563778D01*
X173778228Y-115518445D01*
X173763984Y-115471490D01*
X173754412Y-115423365D01*
X173749602Y-115374534D01*
X173749602Y-115350000D01*
X173749000Y-115350000D01*
X173749000Y-114850000D01*
X173749602Y-114850000D01*
X173749602Y-114825466D01*
X173754412Y-114776635D01*
X173763984Y-114728510D01*
X173778228Y-114681555D01*
X173797005Y-114636222D01*
X173820136Y-114592949D01*
X173847396Y-114552150D01*
X173878524Y-114514221D01*
X173913221Y-114479524D01*
X173951150Y-114448396D01*
X173991949Y-114421136D01*
X174035222Y-114398005D01*
X174080555Y-114379228D01*
X174127510Y-114364984D01*
X174175635Y-114355412D01*
X174224466Y-114350602D01*
X174249000Y-114350602D01*
X174249000Y-114350000D01*
X174749000Y-114350000D01*
X174749000Y-115850000D01*
G37*
%TD.AperFunction*%
%TA.AperFunction,SMDPad,CuDef*%
%TO.P,JP8,2*%
%TO.N,Net-(C32-Pad1)*%
G36*
X175549000Y-114350602D02*
G01*
X175573534Y-114350602D01*
X175622365Y-114355412D01*
X175670490Y-114364984D01*
X175717445Y-114379228D01*
X175762778Y-114398005D01*
X175806051Y-114421136D01*
X175846850Y-114448396D01*
X175884779Y-114479524D01*
X175919476Y-114514221D01*
X175950604Y-114552150D01*
X175977864Y-114592949D01*
X176000995Y-114636222D01*
X176019772Y-114681555D01*
X176034016Y-114728510D01*
X176043588Y-114776635D01*
X176048398Y-114825466D01*
X176048398Y-114850000D01*
X176049000Y-114850000D01*
X176049000Y-115350000D01*
X176048398Y-115350000D01*
X176048398Y-115374534D01*
X176043588Y-115423365D01*
X176034016Y-115471490D01*
X176019772Y-115518445D01*
X176000995Y-115563778D01*
X175977864Y-115607051D01*
X175950604Y-115647850D01*
X175919476Y-115685779D01*
X175884779Y-115720476D01*
X175846850Y-115751604D01*
X175806051Y-115778864D01*
X175762778Y-115801995D01*
X175717445Y-115820772D01*
X175670490Y-115835016D01*
X175622365Y-115844588D01*
X175573534Y-115849398D01*
X175549000Y-115849398D01*
X175549000Y-115850000D01*
X175049000Y-115850000D01*
X175049000Y-114350000D01*
X175549000Y-114350000D01*
X175549000Y-114350602D01*
G37*
%TD.AperFunction*%
%TD*%
%TA.AperFunction,SMDPad,CuDef*%
%TO.P,JP7,1*%
%TO.N,Net-(C18-Pad1)*%
G36*
X163249000Y-115850000D02*
G01*
X162749000Y-115850000D01*
X162749000Y-115849398D01*
X162724466Y-115849398D01*
X162675635Y-115844588D01*
X162627510Y-115835016D01*
X162580555Y-115820772D01*
X162535222Y-115801995D01*
X162491949Y-115778864D01*
X162451150Y-115751604D01*
X162413221Y-115720476D01*
X162378524Y-115685779D01*
X162347396Y-115647850D01*
X162320136Y-115607051D01*
X162297005Y-115563778D01*
X162278228Y-115518445D01*
X162263984Y-115471490D01*
X162254412Y-115423365D01*
X162249602Y-115374534D01*
X162249602Y-115350000D01*
X162249000Y-115350000D01*
X162249000Y-114850000D01*
X162249602Y-114850000D01*
X162249602Y-114825466D01*
X162254412Y-114776635D01*
X162263984Y-114728510D01*
X162278228Y-114681555D01*
X162297005Y-114636222D01*
X162320136Y-114592949D01*
X162347396Y-114552150D01*
X162378524Y-114514221D01*
X162413221Y-114479524D01*
X162451150Y-114448396D01*
X162491949Y-114421136D01*
X162535222Y-114398005D01*
X162580555Y-114379228D01*
X162627510Y-114364984D01*
X162675635Y-114355412D01*
X162724466Y-114350602D01*
X162749000Y-114350602D01*
X162749000Y-114350000D01*
X163249000Y-114350000D01*
X163249000Y-115850000D01*
G37*
%TD.AperFunction*%
%TA.AperFunction,SMDPad,CuDef*%
%TO.P,JP7,2*%
%TO.N,VAref*%
G36*
X164049000Y-114350602D02*
G01*
X164073534Y-114350602D01*
X164122365Y-114355412D01*
X164170490Y-114364984D01*
X164217445Y-114379228D01*
X164262778Y-114398005D01*
X164306051Y-114421136D01*
X164346850Y-114448396D01*
X164384779Y-114479524D01*
X164419476Y-114514221D01*
X164450604Y-114552150D01*
X164477864Y-114592949D01*
X164500995Y-114636222D01*
X164519772Y-114681555D01*
X164534016Y-114728510D01*
X164543588Y-114776635D01*
X164548398Y-114825466D01*
X164548398Y-114850000D01*
X164549000Y-114850000D01*
X164549000Y-115350000D01*
X164548398Y-115350000D01*
X164548398Y-115374534D01*
X164543588Y-115423365D01*
X164534016Y-115471490D01*
X164519772Y-115518445D01*
X164500995Y-115563778D01*
X164477864Y-115607051D01*
X164450604Y-115647850D01*
X164419476Y-115685779D01*
X164384779Y-115720476D01*
X164346850Y-115751604D01*
X164306051Y-115778864D01*
X164262778Y-115801995D01*
X164217445Y-115820772D01*
X164170490Y-115835016D01*
X164122365Y-115844588D01*
X164073534Y-115849398D01*
X164049000Y-115849398D01*
X164049000Y-115850000D01*
X163549000Y-115850000D01*
X163549000Y-114350000D01*
X164049000Y-114350000D01*
X164049000Y-114350602D01*
G37*
%TD.AperFunction*%
%TD*%
D22*
%TO.P,JP6,2*%
%TO.N,AGnd*%
X165249000Y-144350000D03*
%TO.P,JP6,1*%
%TO.N,Earth*%
X165249000Y-145650000D03*
%TD*%
%TO.P,R13,2*%
%TO.N,/PWM_R1*%
%TA.AperFunction,SMDPad,CuDef*%
G36*
G01*
X161899000Y-107150001D02*
X161899000Y-106249999D01*
G75*
G02*
X162148999Y-106000000I249999J0D01*
G01*
X162674001Y-106000000D01*
G75*
G02*
X162924000Y-106249999I0J-249999D01*
G01*
X162924000Y-107150001D01*
G75*
G02*
X162674001Y-107400000I-249999J0D01*
G01*
X162148999Y-107400000D01*
G75*
G02*
X161899000Y-107150001I0J249999D01*
G01*
G37*
%TD.AperFunction*%
%TO.P,R13,1*%
%TO.N,/PWM_RR1*%
%TA.AperFunction,SMDPad,CuDef*%
G36*
G01*
X160074000Y-107150001D02*
X160074000Y-106249999D01*
G75*
G02*
X160323999Y-106000000I249999J0D01*
G01*
X160849001Y-106000000D01*
G75*
G02*
X161099000Y-106249999I0J-249999D01*
G01*
X161099000Y-107150001D01*
G75*
G02*
X160849001Y-107400000I-249999J0D01*
G01*
X160323999Y-107400000D01*
G75*
G02*
X160074000Y-107150001I0J249999D01*
G01*
G37*
%TD.AperFunction*%
%TD*%
%TO.P,R12,2*%
%TO.N,/PWM_L1*%
%TA.AperFunction,SMDPad,CuDef*%
G36*
G01*
X165199000Y-106249999D02*
X165199000Y-107150001D01*
G75*
G02*
X164949001Y-107400000I-249999J0D01*
G01*
X164423999Y-107400000D01*
G75*
G02*
X164174000Y-107150001I0J249999D01*
G01*
X164174000Y-106249999D01*
G75*
G02*
X164423999Y-106000000I249999J0D01*
G01*
X164949001Y-106000000D01*
G75*
G02*
X165199000Y-106249999I0J-249999D01*
G01*
G37*
%TD.AperFunction*%
%TO.P,R12,1*%
%TO.N,/PWM_LL1*%
%TA.AperFunction,SMDPad,CuDef*%
G36*
G01*
X167024000Y-106249999D02*
X167024000Y-107150001D01*
G75*
G02*
X166774001Y-107400000I-249999J0D01*
G01*
X166248999Y-107400000D01*
G75*
G02*
X165999000Y-107150001I0J249999D01*
G01*
X165999000Y-106249999D01*
G75*
G02*
X166248999Y-106000000I249999J0D01*
G01*
X166774001Y-106000000D01*
G75*
G02*
X167024000Y-106249999I0J-249999D01*
G01*
G37*
%TD.AperFunction*%
%TD*%
%TO.P,R20,2*%
%TO.N,tip2_out*%
%TA.AperFunction,SMDPad,CuDef*%
G36*
G01*
X176449001Y-99400000D02*
X175548999Y-99400000D01*
G75*
G02*
X175299000Y-99150001I0J249999D01*
G01*
X175299000Y-98624999D01*
G75*
G02*
X175548999Y-98375000I249999J0D01*
G01*
X176449001Y-98375000D01*
G75*
G02*
X176699000Y-98624999I0J-249999D01*
G01*
X176699000Y-99150001D01*
G75*
G02*
X176449001Y-99400000I-249999J0D01*
G01*
G37*
%TD.AperFunction*%
%TO.P,R20,1*%
%TO.N,AGnd*%
%TA.AperFunction,SMDPad,CuDef*%
G36*
G01*
X176449001Y-101225000D02*
X175548999Y-101225000D01*
G75*
G02*
X175299000Y-100975001I0J249999D01*
G01*
X175299000Y-100449999D01*
G75*
G02*
X175548999Y-100200000I249999J0D01*
G01*
X176449001Y-100200000D01*
G75*
G02*
X176699000Y-100449999I0J-249999D01*
G01*
X176699000Y-100975001D01*
G75*
G02*
X176449001Y-101225000I-249999J0D01*
G01*
G37*
%TD.AperFunction*%
%TD*%
%TO.P,R19,2*%
%TO.N,/PWM_R2*%
%TA.AperFunction,SMDPad,CuDef*%
G36*
G01*
X173199000Y-107150001D02*
X173199000Y-106249999D01*
G75*
G02*
X173448999Y-106000000I249999J0D01*
G01*
X173974001Y-106000000D01*
G75*
G02*
X174224000Y-106249999I0J-249999D01*
G01*
X174224000Y-107150001D01*
G75*
G02*
X173974001Y-107400000I-249999J0D01*
G01*
X173448999Y-107400000D01*
G75*
G02*
X173199000Y-107150001I0J249999D01*
G01*
G37*
%TD.AperFunction*%
%TO.P,R19,1*%
%TO.N,/PWM_RR2*%
%TA.AperFunction,SMDPad,CuDef*%
G36*
G01*
X171374000Y-107150001D02*
X171374000Y-106249999D01*
G75*
G02*
X171623999Y-106000000I249999J0D01*
G01*
X172149001Y-106000000D01*
G75*
G02*
X172399000Y-106249999I0J-249999D01*
G01*
X172399000Y-107150001D01*
G75*
G02*
X172149001Y-107400000I-249999J0D01*
G01*
X171623999Y-107400000D01*
G75*
G02*
X171374000Y-107150001I0J249999D01*
G01*
G37*
%TD.AperFunction*%
%TD*%
%TO.P,R18,2*%
%TO.N,/PWM_L2*%
%TA.AperFunction,SMDPad,CuDef*%
G36*
G01*
X176599000Y-106299999D02*
X176599000Y-107200001D01*
G75*
G02*
X176349001Y-107450000I-249999J0D01*
G01*
X175823999Y-107450000D01*
G75*
G02*
X175574000Y-107200001I0J249999D01*
G01*
X175574000Y-106299999D01*
G75*
G02*
X175823999Y-106050000I249999J0D01*
G01*
X176349001Y-106050000D01*
G75*
G02*
X176599000Y-106299999I0J-249999D01*
G01*
G37*
%TD.AperFunction*%
%TO.P,R18,1*%
%TO.N,/PWM_LL2*%
%TA.AperFunction,SMDPad,CuDef*%
G36*
G01*
X178424000Y-106299999D02*
X178424000Y-107200001D01*
G75*
G02*
X178174001Y-107450000I-249999J0D01*
G01*
X177648999Y-107450000D01*
G75*
G02*
X177399000Y-107200001I0J249999D01*
G01*
X177399000Y-106299999D01*
G75*
G02*
X177648999Y-106050000I249999J0D01*
G01*
X178174001Y-106050000D01*
G75*
G02*
X178424000Y-106299999I0J-249999D01*
G01*
G37*
%TD.AperFunction*%
%TD*%
%TO.P,R17,2*%
%TO.N,/PWM_RR2*%
%TA.AperFunction,SMDPad,CuDef*%
G36*
G01*
X172399000Y-102249999D02*
X172399000Y-103150001D01*
G75*
G02*
X172149001Y-103400000I-249999J0D01*
G01*
X171623999Y-103400000D01*
G75*
G02*
X171374000Y-103150001I0J249999D01*
G01*
X171374000Y-102249999D01*
G75*
G02*
X171623999Y-102000000I249999J0D01*
G01*
X172149001Y-102000000D01*
G75*
G02*
X172399000Y-102249999I0J-249999D01*
G01*
G37*
%TD.AperFunction*%
%TO.P,R17,1*%
%TO.N,AGnd*%
%TA.AperFunction,SMDPad,CuDef*%
G36*
G01*
X174224000Y-102249999D02*
X174224000Y-103150001D01*
G75*
G02*
X173974001Y-103400000I-249999J0D01*
G01*
X173448999Y-103400000D01*
G75*
G02*
X173199000Y-103150001I0J249999D01*
G01*
X173199000Y-102249999D01*
G75*
G02*
X173448999Y-102000000I249999J0D01*
G01*
X173974001Y-102000000D01*
G75*
G02*
X174224000Y-102249999I0J-249999D01*
G01*
G37*
%TD.AperFunction*%
%TD*%
%TO.P,R11,2*%
%TO.N,/PWM_RR1*%
%TA.AperFunction,SMDPad,CuDef*%
G36*
G01*
X161099000Y-102249999D02*
X161099000Y-103150001D01*
G75*
G02*
X160849001Y-103400000I-249999J0D01*
G01*
X160323999Y-103400000D01*
G75*
G02*
X160074000Y-103150001I0J249999D01*
G01*
X160074000Y-102249999D01*
G75*
G02*
X160323999Y-102000000I249999J0D01*
G01*
X160849001Y-102000000D01*
G75*
G02*
X161099000Y-102249999I0J-249999D01*
G01*
G37*
%TD.AperFunction*%
%TO.P,R11,1*%
%TO.N,AGnd*%
%TA.AperFunction,SMDPad,CuDef*%
G36*
G01*
X162924000Y-102249999D02*
X162924000Y-103150001D01*
G75*
G02*
X162674001Y-103400000I-249999J0D01*
G01*
X162148999Y-103400000D01*
G75*
G02*
X161899000Y-103150001I0J249999D01*
G01*
X161899000Y-102249999D01*
G75*
G02*
X162148999Y-102000000I249999J0D01*
G01*
X162674001Y-102000000D01*
G75*
G02*
X162924000Y-102249999I0J-249999D01*
G01*
G37*
%TD.AperFunction*%
%TD*%
%TO.P,R10,2*%
%TO.N,/PWM_LL1*%
%TA.AperFunction,SMDPad,CuDef*%
G36*
G01*
X165999000Y-103150001D02*
X165999000Y-102249999D01*
G75*
G02*
X166248999Y-102000000I249999J0D01*
G01*
X166774001Y-102000000D01*
G75*
G02*
X167024000Y-102249999I0J-249999D01*
G01*
X167024000Y-103150001D01*
G75*
G02*
X166774001Y-103400000I-249999J0D01*
G01*
X166248999Y-103400000D01*
G75*
G02*
X165999000Y-103150001I0J249999D01*
G01*
G37*
%TD.AperFunction*%
%TO.P,R10,1*%
%TO.N,AGnd*%
%TA.AperFunction,SMDPad,CuDef*%
G36*
G01*
X164174000Y-103150001D02*
X164174000Y-102249999D01*
G75*
G02*
X164423999Y-102000000I249999J0D01*
G01*
X164949001Y-102000000D01*
G75*
G02*
X165199000Y-102249999I0J-249999D01*
G01*
X165199000Y-103150001D01*
G75*
G02*
X164949001Y-103400000I-249999J0D01*
G01*
X164423999Y-103400000D01*
G75*
G02*
X164174000Y-103150001I0J249999D01*
G01*
G37*
%TD.AperFunction*%
%TD*%
%TO.P,R9,1*%
%TO.N,AGnd*%
%TA.AperFunction,SMDPad,CuDef*%
G36*
G01*
X163049001Y-101225000D02*
X162148999Y-101225000D01*
G75*
G02*
X161899000Y-100975001I0J249999D01*
G01*
X161899000Y-100449999D01*
G75*
G02*
X162148999Y-100200000I249999J0D01*
G01*
X163049001Y-100200000D01*
G75*
G02*
X163299000Y-100449999I0J-249999D01*
G01*
X163299000Y-100975001D01*
G75*
G02*
X163049001Y-101225000I-249999J0D01*
G01*
G37*
%TD.AperFunction*%
%TO.P,R9,2*%
%TO.N,ring1_out*%
%TA.AperFunction,SMDPad,CuDef*%
G36*
G01*
X163049001Y-99400000D02*
X162148999Y-99400000D01*
G75*
G02*
X161899000Y-99150001I0J249999D01*
G01*
X161899000Y-98624999D01*
G75*
G02*
X162148999Y-98375000I249999J0D01*
G01*
X163049001Y-98375000D01*
G75*
G02*
X163299000Y-98624999I0J-249999D01*
G01*
X163299000Y-99150001D01*
G75*
G02*
X163049001Y-99400000I-249999J0D01*
G01*
G37*
%TD.AperFunction*%
%TD*%
%TO.P,R8,2*%
%TO.N,ring2_out*%
%TA.AperFunction,SMDPad,CuDef*%
G36*
G01*
X174249001Y-99400000D02*
X173348999Y-99400000D01*
G75*
G02*
X173099000Y-99150001I0J249999D01*
G01*
X173099000Y-98624999D01*
G75*
G02*
X173348999Y-98375000I249999J0D01*
G01*
X174249001Y-98375000D01*
G75*
G02*
X174499000Y-98624999I0J-249999D01*
G01*
X174499000Y-99150001D01*
G75*
G02*
X174249001Y-99400000I-249999J0D01*
G01*
G37*
%TD.AperFunction*%
%TO.P,R8,1*%
%TO.N,AGnd*%
%TA.AperFunction,SMDPad,CuDef*%
G36*
G01*
X174249001Y-101225000D02*
X173348999Y-101225000D01*
G75*
G02*
X173099000Y-100975001I0J249999D01*
G01*
X173099000Y-100449999D01*
G75*
G02*
X173348999Y-100200000I249999J0D01*
G01*
X174249001Y-100200000D01*
G75*
G02*
X174499000Y-100449999I0J-249999D01*
G01*
X174499000Y-100975001D01*
G75*
G02*
X174249001Y-101225000I-249999J0D01*
G01*
G37*
%TD.AperFunction*%
%TD*%
%TO.P,R5,1*%
%TO.N,AGnd*%
%TA.AperFunction,SMDPad,CuDef*%
G36*
G01*
X165049001Y-101245000D02*
X164148999Y-101245000D01*
G75*
G02*
X163899000Y-100995001I0J249999D01*
G01*
X163899000Y-100469999D01*
G75*
G02*
X164148999Y-100220000I249999J0D01*
G01*
X165049001Y-100220000D01*
G75*
G02*
X165299000Y-100469999I0J-249999D01*
G01*
X165299000Y-100995001D01*
G75*
G02*
X165049001Y-101245000I-249999J0D01*
G01*
G37*
%TD.AperFunction*%
%TO.P,R5,2*%
%TO.N,tip1_out*%
%TA.AperFunction,SMDPad,CuDef*%
G36*
G01*
X165049001Y-99420000D02*
X164148999Y-99420000D01*
G75*
G02*
X163899000Y-99170001I0J249999D01*
G01*
X163899000Y-98644999D01*
G75*
G02*
X164148999Y-98395000I249999J0D01*
G01*
X165049001Y-98395000D01*
G75*
G02*
X165299000Y-98644999I0J-249999D01*
G01*
X165299000Y-99170001D01*
G75*
G02*
X165049001Y-99420000I-249999J0D01*
G01*
G37*
%TD.AperFunction*%
%TD*%
%TO.P,R4,2*%
%TO.N,/PWM_LL2*%
%TA.AperFunction,SMDPad,CuDef*%
G36*
G01*
X177399000Y-105200001D02*
X177399000Y-104299999D01*
G75*
G02*
X177648999Y-104050000I249999J0D01*
G01*
X178174001Y-104050000D01*
G75*
G02*
X178424000Y-104299999I0J-249999D01*
G01*
X178424000Y-105200001D01*
G75*
G02*
X178174001Y-105450000I-249999J0D01*
G01*
X177648999Y-105450000D01*
G75*
G02*
X177399000Y-105200001I0J249999D01*
G01*
G37*
%TD.AperFunction*%
%TO.P,R4,1*%
%TO.N,AGnd*%
%TA.AperFunction,SMDPad,CuDef*%
G36*
G01*
X175574000Y-105200001D02*
X175574000Y-104299999D01*
G75*
G02*
X175823999Y-104050000I249999J0D01*
G01*
X176349001Y-104050000D01*
G75*
G02*
X176599000Y-104299999I0J-249999D01*
G01*
X176599000Y-105200001D01*
G75*
G02*
X176349001Y-105450000I-249999J0D01*
G01*
X175823999Y-105450000D01*
G75*
G02*
X175574000Y-105200001I0J249999D01*
G01*
G37*
%TD.AperFunction*%
%TD*%
%TO.P,C32,2*%
%TO.N,AGnd*%
%TA.AperFunction,SMDPad,CuDef*%
G36*
G01*
X172274000Y-114200000D02*
X171324000Y-114200000D01*
G75*
G02*
X171074000Y-113950000I0J250000D01*
G01*
X171074000Y-113450000D01*
G75*
G02*
X171324000Y-113200000I250000J0D01*
G01*
X172274000Y-113200000D01*
G75*
G02*
X172524000Y-113450000I0J-250000D01*
G01*
X172524000Y-113950000D01*
G75*
G02*
X172274000Y-114200000I-250000J0D01*
G01*
G37*
%TD.AperFunction*%
%TO.P,C32,1*%
%TO.N,Net-(C32-Pad1)*%
%TA.AperFunction,SMDPad,CuDef*%
G36*
G01*
X172274000Y-116100000D02*
X171324000Y-116100000D01*
G75*
G02*
X171074000Y-115850000I0J250000D01*
G01*
X171074000Y-115350000D01*
G75*
G02*
X171324000Y-115100000I250000J0D01*
G01*
X172274000Y-115100000D01*
G75*
G02*
X172524000Y-115350000I0J-250000D01*
G01*
X172524000Y-115850000D01*
G75*
G02*
X172274000Y-116100000I-250000J0D01*
G01*
G37*
%TD.AperFunction*%
%TD*%
%TO.P,C18,2*%
%TO.N,AGnd*%
%TA.AperFunction,SMDPad,CuDef*%
G36*
G01*
X167074000Y-114200000D02*
X166124000Y-114200000D01*
G75*
G02*
X165874000Y-113950000I0J250000D01*
G01*
X165874000Y-113450000D01*
G75*
G02*
X166124000Y-113200000I250000J0D01*
G01*
X167074000Y-113200000D01*
G75*
G02*
X167324000Y-113450000I0J-250000D01*
G01*
X167324000Y-113950000D01*
G75*
G02*
X167074000Y-114200000I-250000J0D01*
G01*
G37*
%TD.AperFunction*%
%TO.P,C18,1*%
%TO.N,Net-(C18-Pad1)*%
%TA.AperFunction,SMDPad,CuDef*%
G36*
G01*
X167074000Y-116100000D02*
X166124000Y-116100000D01*
G75*
G02*
X165874000Y-115850000I0J250000D01*
G01*
X165874000Y-115350000D01*
G75*
G02*
X166124000Y-115100000I250000J0D01*
G01*
X167074000Y-115100000D01*
G75*
G02*
X167324000Y-115350000I0J-250000D01*
G01*
X167324000Y-115850000D01*
G75*
G02*
X167074000Y-116100000I-250000J0D01*
G01*
G37*
%TD.AperFunction*%
%TD*%
%TO.P,C17,2*%
%TO.N,AGnd*%
%TA.AperFunction,SMDPad,CuDef*%
G36*
G01*
X161949000Y-105175000D02*
X161949000Y-104225000D01*
G75*
G02*
X162199000Y-103975000I250000J0D01*
G01*
X162699000Y-103975000D01*
G75*
G02*
X162949000Y-104225000I0J-250000D01*
G01*
X162949000Y-105175000D01*
G75*
G02*
X162699000Y-105425000I-250000J0D01*
G01*
X162199000Y-105425000D01*
G75*
G02*
X161949000Y-105175000I0J250000D01*
G01*
G37*
%TD.AperFunction*%
%TO.P,C17,1*%
%TO.N,/PWM_RR1*%
%TA.AperFunction,SMDPad,CuDef*%
G36*
G01*
X160049000Y-105175000D02*
X160049000Y-104225000D01*
G75*
G02*
X160299000Y-103975000I250000J0D01*
G01*
X160799000Y-103975000D01*
G75*
G02*
X161049000Y-104225000I0J-250000D01*
G01*
X161049000Y-105175000D01*
G75*
G02*
X160799000Y-105425000I-250000J0D01*
G01*
X160299000Y-105425000D01*
G75*
G02*
X160049000Y-105175000I0J250000D01*
G01*
G37*
%TD.AperFunction*%
%TD*%
%TO.P,C13,2*%
%TO.N,AGnd*%
%TA.AperFunction,SMDPad,CuDef*%
G36*
G01*
X165149000Y-104225000D02*
X165149000Y-105175000D01*
G75*
G02*
X164899000Y-105425000I-250000J0D01*
G01*
X164399000Y-105425000D01*
G75*
G02*
X164149000Y-105175000I0J250000D01*
G01*
X164149000Y-104225000D01*
G75*
G02*
X164399000Y-103975000I250000J0D01*
G01*
X164899000Y-103975000D01*
G75*
G02*
X165149000Y-104225000I0J-250000D01*
G01*
G37*
%TD.AperFunction*%
%TO.P,C13,1*%
%TO.N,/PWM_LL1*%
%TA.AperFunction,SMDPad,CuDef*%
G36*
G01*
X167049000Y-104225000D02*
X167049000Y-105175000D01*
G75*
G02*
X166799000Y-105425000I-250000J0D01*
G01*
X166299000Y-105425000D01*
G75*
G02*
X166049000Y-105175000I0J250000D01*
G01*
X166049000Y-104225000D01*
G75*
G02*
X166299000Y-103975000I250000J0D01*
G01*
X166799000Y-103975000D01*
G75*
G02*
X167049000Y-104225000I0J-250000D01*
G01*
G37*
%TD.AperFunction*%
%TD*%
%TO.P,C8,2*%
%TO.N,AGnd*%
%TA.AperFunction,SMDPad,CuDef*%
G36*
G01*
X173249000Y-105175000D02*
X173249000Y-104225000D01*
G75*
G02*
X173499000Y-103975000I250000J0D01*
G01*
X173999000Y-103975000D01*
G75*
G02*
X174249000Y-104225000I0J-250000D01*
G01*
X174249000Y-105175000D01*
G75*
G02*
X173999000Y-105425000I-250000J0D01*
G01*
X173499000Y-105425000D01*
G75*
G02*
X173249000Y-105175000I0J250000D01*
G01*
G37*
%TD.AperFunction*%
%TO.P,C8,1*%
%TO.N,/PWM_RR2*%
%TA.AperFunction,SMDPad,CuDef*%
G36*
G01*
X171349000Y-105175000D02*
X171349000Y-104225000D01*
G75*
G02*
X171599000Y-103975000I250000J0D01*
G01*
X172099000Y-103975000D01*
G75*
G02*
X172349000Y-104225000I0J-250000D01*
G01*
X172349000Y-105175000D01*
G75*
G02*
X172099000Y-105425000I-250000J0D01*
G01*
X171599000Y-105425000D01*
G75*
G02*
X171349000Y-105175000I0J250000D01*
G01*
G37*
%TD.AperFunction*%
%TD*%
%TO.P,C7,2*%
%TO.N,AGnd*%
%TA.AperFunction,SMDPad,CuDef*%
G36*
G01*
X176549000Y-102275000D02*
X176549000Y-103225000D01*
G75*
G02*
X176299000Y-103475000I-250000J0D01*
G01*
X175799000Y-103475000D01*
G75*
G02*
X175549000Y-103225000I0J250000D01*
G01*
X175549000Y-102275000D01*
G75*
G02*
X175799000Y-102025000I250000J0D01*
G01*
X176299000Y-102025000D01*
G75*
G02*
X176549000Y-102275000I0J-250000D01*
G01*
G37*
%TD.AperFunction*%
%TO.P,C7,1*%
%TO.N,/PWM_LL2*%
%TA.AperFunction,SMDPad,CuDef*%
G36*
G01*
X178449000Y-102275000D02*
X178449000Y-103225000D01*
G75*
G02*
X178199000Y-103475000I-250000J0D01*
G01*
X177699000Y-103475000D01*
G75*
G02*
X177449000Y-103225000I0J250000D01*
G01*
X177449000Y-102275000D01*
G75*
G02*
X177699000Y-102025000I250000J0D01*
G01*
X178199000Y-102025000D01*
G75*
G02*
X178449000Y-102275000I0J-250000D01*
G01*
G37*
%TD.AperFunction*%
%TD*%
%TO.P,C3,2*%
%TO.N,AGnd*%
%TA.AperFunction,SMDPad,CuDef*%
G36*
G01*
X166099000Y-140875000D02*
X166099000Y-141825000D01*
G75*
G02*
X165849000Y-142075000I-250000J0D01*
G01*
X165349000Y-142075000D01*
G75*
G02*
X165099000Y-141825000I0J250000D01*
G01*
X165099000Y-140875000D01*
G75*
G02*
X165349000Y-140625000I250000J0D01*
G01*
X165849000Y-140625000D01*
G75*
G02*
X166099000Y-140875000I0J-250000D01*
G01*
G37*
%TD.AperFunction*%
%TO.P,C3,1*%
%TO.N,VAref*%
%TA.AperFunction,SMDPad,CuDef*%
G36*
G01*
X167999000Y-140875000D02*
X167999000Y-141825000D01*
G75*
G02*
X167749000Y-142075000I-250000J0D01*
G01*
X167249000Y-142075000D01*
G75*
G02*
X166999000Y-141825000I0J250000D01*
G01*
X166999000Y-140875000D01*
G75*
G02*
X167249000Y-140625000I250000J0D01*
G01*
X167749000Y-140625000D01*
G75*
G02*
X167999000Y-140875000I0J-250000D01*
G01*
G37*
%TD.AperFunction*%
%TD*%
%TO.P,C1,2*%
%TO.N,VReg*%
%TA.AperFunction,SMDPad,CuDef*%
G36*
G01*
X166999000Y-149275000D02*
X166999000Y-148325000D01*
G75*
G02*
X167249000Y-148075000I250000J0D01*
G01*
X167749000Y-148075000D01*
G75*
G02*
X167999000Y-148325000I0J-250000D01*
G01*
X167999000Y-149275000D01*
G75*
G02*
X167749000Y-149525000I-250000J0D01*
G01*
X167249000Y-149525000D01*
G75*
G02*
X166999000Y-149275000I0J250000D01*
G01*
G37*
%TD.AperFunction*%
%TO.P,C1,1*%
%TO.N,Earth*%
%TA.AperFunction,SMDPad,CuDef*%
G36*
G01*
X165099000Y-149275000D02*
X165099000Y-148325000D01*
G75*
G02*
X165349000Y-148075000I250000J0D01*
G01*
X165849000Y-148075000D01*
G75*
G02*
X166099000Y-148325000I0J-250000D01*
G01*
X166099000Y-149275000D01*
G75*
G02*
X165849000Y-149525000I-250000J0D01*
G01*
X165349000Y-149525000D01*
G75*
G02*
X165099000Y-149275000I0J250000D01*
G01*
G37*
%TD.AperFunction*%
%TD*%
D23*
%TO.P,Y1,2*%
%TO.N,Net-(C11-Pad1)*%
X158799000Y-121250000D03*
%TO.P,Y1,1*%
%TO.N,/xin*%
X149299000Y-121250000D03*
%TD*%
D24*
%TO.P,U7,6*%
%TO.N,/PWM_L2*%
X175849001Y-109447450D03*
%TO.P,U7,5*%
%TO.N,Net-(C32-Pad1)*%
X174899000Y-109447450D03*
%TO.P,U7,4*%
%TO.N,/PWM_R2*%
X173948999Y-109447450D03*
%TO.P,U7,3*%
%TO.N,ring2*%
X173948999Y-112152550D03*
%TO.P,U7,2*%
%TO.N,Earth*%
X174899000Y-112152550D03*
%TO.P,U7,1*%
%TO.N,tip2*%
X175849001Y-112152550D03*
%TD*%
%TO.P,U4,6*%
%TO.N,/PWM_L1*%
X164499001Y-109477450D03*
%TO.P,U4,5*%
%TO.N,Net-(C18-Pad1)*%
X163549000Y-109477450D03*
%TO.P,U4,4*%
%TO.N,/PWM_R1*%
X162598999Y-109477450D03*
%TO.P,U4,3*%
%TO.N,ring1*%
X162598999Y-112182550D03*
%TO.P,U4,2*%
%TO.N,Earth*%
X163549000Y-112182550D03*
%TO.P,U4,1*%
%TO.N,tip1*%
X164499001Y-112182550D03*
%TD*%
D25*
%TO.P,U1,9*%
%TO.N,AGnd*%
X167929000Y-144940000D03*
D26*
%TO.P,U1,8*%
%TO.N,VAref*%
X168679001Y-143962100D03*
%TO.P,U1,7*%
X168179000Y-143962100D03*
%TO.P,U1,6*%
%TO.N,AGnd*%
X167679000Y-143962100D03*
%TO.P,U1,5*%
X167178999Y-143962100D03*
%TO.P,U1,4*%
%TO.N,Earth*%
X167178999Y-145917900D03*
%TO.P,U1,3*%
%TO.N,VReg*%
X167679000Y-145917900D03*
%TO.P,U1,2*%
%TO.N,Earth*%
X168179000Y-145917900D03*
%TO.P,U1,1*%
%TO.N,VReg*%
X168679001Y-145917900D03*
%TD*%
D27*
%TO.P,SW2,3*%
%TO.N,Earth*%
X182439000Y-85108094D03*
%TO.P,SW2,4*%
X182439000Y-92128094D03*
D28*
%TO.P,SW2,1*%
X184929000Y-86378094D03*
%TO.P,SW2,2*%
%TO.N,sw2*%
X184929000Y-90858094D03*
%TD*%
D27*
%TO.P,SW1,3*%
%TO.N,Earth*%
X125559000Y-92010000D03*
%TO.P,SW1,4*%
X125559000Y-84990000D03*
D28*
%TO.P,SW1,1*%
%TO.N,sw1*%
X123069000Y-90740000D03*
%TO.P,SW1,2*%
%TO.N,Earth*%
X123069000Y-86260000D03*
%TD*%
%TO.P,R16,2*%
%TO.N,VReg*%
%TA.AperFunction,SMDPad,CuDef*%
G36*
G01*
X137949000Y-139899999D02*
X137949000Y-140800001D01*
G75*
G02*
X137699001Y-141050000I-249999J0D01*
G01*
X137173999Y-141050000D01*
G75*
G02*
X136924000Y-140800001I0J249999D01*
G01*
X136924000Y-139899999D01*
G75*
G02*
X137173999Y-139650000I249999J0D01*
G01*
X137699001Y-139650000D01*
G75*
G02*
X137949000Y-139899999I0J-249999D01*
G01*
G37*
%TD.AperFunction*%
%TO.P,R16,1*%
%TO.N,Net-(R15-Pad1)*%
%TA.AperFunction,SMDPad,CuDef*%
G36*
G01*
X139774000Y-139899999D02*
X139774000Y-140800001D01*
G75*
G02*
X139524001Y-141050000I-249999J0D01*
G01*
X138998999Y-141050000D01*
G75*
G02*
X138749000Y-140800001I0J249999D01*
G01*
X138749000Y-139899999D01*
G75*
G02*
X138998999Y-139650000I249999J0D01*
G01*
X139524001Y-139650000D01*
G75*
G02*
X139774000Y-139899999I0J-249999D01*
G01*
G37*
%TD.AperFunction*%
%TD*%
%TO.P,R15,2*%
%TO.N,Net-(JP1-Pad2)*%
%TA.AperFunction,SMDPad,CuDef*%
G36*
G01*
X166949000Y-155300001D02*
X166949000Y-154399999D01*
G75*
G02*
X167198999Y-154150000I249999J0D01*
G01*
X167724001Y-154150000D01*
G75*
G02*
X167974000Y-154399999I0J-249999D01*
G01*
X167974000Y-155300001D01*
G75*
G02*
X167724001Y-155550000I-249999J0D01*
G01*
X167198999Y-155550000D01*
G75*
G02*
X166949000Y-155300001I0J249999D01*
G01*
G37*
%TD.AperFunction*%
%TO.P,R15,1*%
%TO.N,Net-(R15-Pad1)*%
%TA.AperFunction,SMDPad,CuDef*%
G36*
G01*
X165124000Y-155300001D02*
X165124000Y-154399999D01*
G75*
G02*
X165373999Y-154150000I249999J0D01*
G01*
X165899001Y-154150000D01*
G75*
G02*
X166149000Y-154399999I0J-249999D01*
G01*
X166149000Y-155300001D01*
G75*
G02*
X165899001Y-155550000I-249999J0D01*
G01*
X165373999Y-155550000D01*
G75*
G02*
X165124000Y-155300001I0J249999D01*
G01*
G37*
%TD.AperFunction*%
%TD*%
%TO.P,R14,2*%
%TO.N,Net-(C11-Pad1)*%
%TA.AperFunction,SMDPad,CuDef*%
G36*
G01*
X154449000Y-125300001D02*
X154449000Y-124399999D01*
G75*
G02*
X154698999Y-124150000I249999J0D01*
G01*
X155224001Y-124150000D01*
G75*
G02*
X155474000Y-124399999I0J-249999D01*
G01*
X155474000Y-125300001D01*
G75*
G02*
X155224001Y-125550000I-249999J0D01*
G01*
X154698999Y-125550000D01*
G75*
G02*
X154449000Y-125300001I0J249999D01*
G01*
G37*
%TD.AperFunction*%
%TO.P,R14,1*%
%TO.N,/xout*%
%TA.AperFunction,SMDPad,CuDef*%
G36*
G01*
X152624000Y-125300001D02*
X152624000Y-124399999D01*
G75*
G02*
X152873999Y-124150000I249999J0D01*
G01*
X153399001Y-124150000D01*
G75*
G02*
X153649000Y-124399999I0J-249999D01*
G01*
X153649000Y-125300001D01*
G75*
G02*
X153399001Y-125550000I-249999J0D01*
G01*
X152873999Y-125550000D01*
G75*
G02*
X152624000Y-125300001I0J249999D01*
G01*
G37*
%TD.AperFunction*%
%TD*%
D29*
%TO.P,POGO1,12*%
%TO.N,po_play*%
X160399000Y-61230000D03*
%TO.P,POGO1,11*%
%TO.N,/po_batt*%
X160399000Y-63770000D03*
%TO.P,POGO1,10*%
%TO.N,Earth*%
X157859000Y-61230000D03*
%TO.P,POGO1,9*%
%TO.N,po_swo*%
X157859000Y-63770000D03*
%TO.P,POGO1,8*%
%TO.N,N/C*%
X155319000Y-61230000D03*
%TO.P,POGO1,7*%
%TO.N,po_swdio*%
X155319000Y-63770000D03*
%TO.P,POGO1,6*%
%TO.N,po_wake*%
X152779000Y-61230000D03*
%TO.P,POGO1,5*%
%TO.N,po_swclk*%
X152779000Y-63770000D03*
%TO.P,POGO1,4*%
%TO.N,N/C*%
X150239000Y-61230000D03*
%TO.P,POGO1,3*%
%TO.N,po_reset*%
X150239000Y-63770000D03*
%TO.P,POGO1,2*%
%TO.N,N/C*%
X147699000Y-61230000D03*
%TO.P,POGO1,1*%
X147699000Y-63770000D03*
%TD*%
%TO.P,L1,2*%
%TO.N,Net-(L1-Pad2)*%
%TA.AperFunction,SMDPad,CuDef*%
G36*
G01*
X139380250Y-151875000D02*
X138617750Y-151875000D01*
G75*
G02*
X138399000Y-151656250I0J218750D01*
G01*
X138399000Y-151218750D01*
G75*
G02*
X138617750Y-151000000I218750J0D01*
G01*
X139380250Y-151000000D01*
G75*
G02*
X139599000Y-151218750I0J-218750D01*
G01*
X139599000Y-151656250D01*
G75*
G02*
X139380250Y-151875000I-218750J0D01*
G01*
G37*
%TD.AperFunction*%
%TO.P,L1,1*%
%TO.N,Net-(L1-Pad1)*%
%TA.AperFunction,SMDPad,CuDef*%
G36*
G01*
X139380250Y-154000000D02*
X138617750Y-154000000D01*
G75*
G02*
X138399000Y-153781250I0J218750D01*
G01*
X138399000Y-153343750D01*
G75*
G02*
X138617750Y-153125000I218750J0D01*
G01*
X139380250Y-153125000D01*
G75*
G02*
X139599000Y-153343750I0J-218750D01*
G01*
X139599000Y-153781250D01*
G75*
G02*
X139380250Y-154000000I-218750J0D01*
G01*
G37*
%TD.AperFunction*%
%TD*%
%TA.AperFunction,SMDPad,CuDef*%
D21*
%TO.P,JP5,2*%
%TO.N,ring2_out*%
G36*
X171049602Y-109950000D02*
G01*
X171049602Y-109925466D01*
X171054412Y-109876635D01*
X171063984Y-109828510D01*
X171078228Y-109781555D01*
X171097005Y-109736222D01*
X171120136Y-109692949D01*
X171147396Y-109652150D01*
X171178524Y-109614221D01*
X171213221Y-109579524D01*
X171251150Y-109548396D01*
X171291949Y-109521136D01*
X171335222Y-109498005D01*
X171380555Y-109479228D01*
X171427510Y-109464984D01*
X171475635Y-109455412D01*
X171524466Y-109450602D01*
X171549000Y-109450602D01*
X171549000Y-109450000D01*
X172049000Y-109450000D01*
X172049000Y-109450602D01*
X172073534Y-109450602D01*
X172122365Y-109455412D01*
X172170490Y-109464984D01*
X172217445Y-109479228D01*
X172262778Y-109498005D01*
X172306051Y-109521136D01*
X172346850Y-109548396D01*
X172384779Y-109579524D01*
X172419476Y-109614221D01*
X172450604Y-109652150D01*
X172477864Y-109692949D01*
X172500995Y-109736222D01*
X172519772Y-109781555D01*
X172534016Y-109828510D01*
X172543588Y-109876635D01*
X172548398Y-109925466D01*
X172548398Y-109950000D01*
X172549000Y-109950000D01*
X172549000Y-110450000D01*
X171049000Y-110450000D01*
X171049000Y-109950000D01*
X171049602Y-109950000D01*
G37*
%TD.AperFunction*%
%TA.AperFunction,SMDPad,CuDef*%
%TO.P,JP5,1*%
%TO.N,ring2*%
G36*
X172549000Y-110750000D02*
G01*
X172549000Y-111250000D01*
X172548398Y-111250000D01*
X172548398Y-111274534D01*
X172543588Y-111323365D01*
X172534016Y-111371490D01*
X172519772Y-111418445D01*
X172500995Y-111463778D01*
X172477864Y-111507051D01*
X172450604Y-111547850D01*
X172419476Y-111585779D01*
X172384779Y-111620476D01*
X172346850Y-111651604D01*
X172306051Y-111678864D01*
X172262778Y-111701995D01*
X172217445Y-111720772D01*
X172170490Y-111735016D01*
X172122365Y-111744588D01*
X172073534Y-111749398D01*
X172049000Y-111749398D01*
X172049000Y-111750000D01*
X171549000Y-111750000D01*
X171549000Y-111749398D01*
X171524466Y-111749398D01*
X171475635Y-111744588D01*
X171427510Y-111735016D01*
X171380555Y-111720772D01*
X171335222Y-111701995D01*
X171291949Y-111678864D01*
X171251150Y-111651604D01*
X171213221Y-111620476D01*
X171178524Y-111585779D01*
X171147396Y-111547850D01*
X171120136Y-111507051D01*
X171097005Y-111463778D01*
X171078228Y-111418445D01*
X171063984Y-111371490D01*
X171054412Y-111323365D01*
X171049602Y-111274534D01*
X171049602Y-111250000D01*
X171049000Y-111250000D01*
X171049000Y-110750000D01*
X172549000Y-110750000D01*
G37*
%TD.AperFunction*%
%TD*%
%TA.AperFunction,SMDPad,CuDef*%
%TO.P,JP4,2*%
%TO.N,tip2_out*%
G36*
X177649602Y-109850000D02*
G01*
X177649602Y-109825466D01*
X177654412Y-109776635D01*
X177663984Y-109728510D01*
X177678228Y-109681555D01*
X177697005Y-109636222D01*
X177720136Y-109592949D01*
X177747396Y-109552150D01*
X177778524Y-109514221D01*
X177813221Y-109479524D01*
X177851150Y-109448396D01*
X177891949Y-109421136D01*
X177935222Y-109398005D01*
X177980555Y-109379228D01*
X178027510Y-109364984D01*
X178075635Y-109355412D01*
X178124466Y-109350602D01*
X178149000Y-109350602D01*
X178149000Y-109350000D01*
X178649000Y-109350000D01*
X178649000Y-109350602D01*
X178673534Y-109350602D01*
X178722365Y-109355412D01*
X178770490Y-109364984D01*
X178817445Y-109379228D01*
X178862778Y-109398005D01*
X178906051Y-109421136D01*
X178946850Y-109448396D01*
X178984779Y-109479524D01*
X179019476Y-109514221D01*
X179050604Y-109552150D01*
X179077864Y-109592949D01*
X179100995Y-109636222D01*
X179119772Y-109681555D01*
X179134016Y-109728510D01*
X179143588Y-109776635D01*
X179148398Y-109825466D01*
X179148398Y-109850000D01*
X179149000Y-109850000D01*
X179149000Y-110350000D01*
X177649000Y-110350000D01*
X177649000Y-109850000D01*
X177649602Y-109850000D01*
G37*
%TD.AperFunction*%
%TA.AperFunction,SMDPad,CuDef*%
%TO.P,JP4,1*%
%TO.N,tip2*%
G36*
X179149000Y-110650000D02*
G01*
X179149000Y-111150000D01*
X179148398Y-111150000D01*
X179148398Y-111174534D01*
X179143588Y-111223365D01*
X179134016Y-111271490D01*
X179119772Y-111318445D01*
X179100995Y-111363778D01*
X179077864Y-111407051D01*
X179050604Y-111447850D01*
X179019476Y-111485779D01*
X178984779Y-111520476D01*
X178946850Y-111551604D01*
X178906051Y-111578864D01*
X178862778Y-111601995D01*
X178817445Y-111620772D01*
X178770490Y-111635016D01*
X178722365Y-111644588D01*
X178673534Y-111649398D01*
X178649000Y-111649398D01*
X178649000Y-111650000D01*
X178149000Y-111650000D01*
X178149000Y-111649398D01*
X178124466Y-111649398D01*
X178075635Y-111644588D01*
X178027510Y-111635016D01*
X177980555Y-111620772D01*
X177935222Y-111601995D01*
X177891949Y-111578864D01*
X177851150Y-111551604D01*
X177813221Y-111520476D01*
X177778524Y-111485779D01*
X177747396Y-111447850D01*
X177720136Y-111407051D01*
X177697005Y-111363778D01*
X177678228Y-111318445D01*
X177663984Y-111271490D01*
X177654412Y-111223365D01*
X177649602Y-111174534D01*
X177649602Y-111150000D01*
X177649000Y-111150000D01*
X177649000Y-110650000D01*
X179149000Y-110650000D01*
G37*
%TD.AperFunction*%
%TD*%
%TA.AperFunction,SMDPad,CuDef*%
%TO.P,JP3,2*%
%TO.N,ring1*%
G36*
X161048398Y-111250000D02*
G01*
X161048398Y-111274534D01*
X161043588Y-111323365D01*
X161034016Y-111371490D01*
X161019772Y-111418445D01*
X161000995Y-111463778D01*
X160977864Y-111507051D01*
X160950604Y-111547850D01*
X160919476Y-111585779D01*
X160884779Y-111620476D01*
X160846850Y-111651604D01*
X160806051Y-111678864D01*
X160762778Y-111701995D01*
X160717445Y-111720772D01*
X160670490Y-111735016D01*
X160622365Y-111744588D01*
X160573534Y-111749398D01*
X160549000Y-111749398D01*
X160549000Y-111750000D01*
X160049000Y-111750000D01*
X160049000Y-111749398D01*
X160024466Y-111749398D01*
X159975635Y-111744588D01*
X159927510Y-111735016D01*
X159880555Y-111720772D01*
X159835222Y-111701995D01*
X159791949Y-111678864D01*
X159751150Y-111651604D01*
X159713221Y-111620476D01*
X159678524Y-111585779D01*
X159647396Y-111547850D01*
X159620136Y-111507051D01*
X159597005Y-111463778D01*
X159578228Y-111418445D01*
X159563984Y-111371490D01*
X159554412Y-111323365D01*
X159549602Y-111274534D01*
X159549602Y-111250000D01*
X159549000Y-111250000D01*
X159549000Y-110750000D01*
X161049000Y-110750000D01*
X161049000Y-111250000D01*
X161048398Y-111250000D01*
G37*
%TD.AperFunction*%
%TA.AperFunction,SMDPad,CuDef*%
%TO.P,JP3,1*%
%TO.N,/PWM_R1*%
G36*
X159549000Y-110450000D02*
G01*
X159549000Y-109950000D01*
X159549602Y-109950000D01*
X159549602Y-109925466D01*
X159554412Y-109876635D01*
X159563984Y-109828510D01*
X159578228Y-109781555D01*
X159597005Y-109736222D01*
X159620136Y-109692949D01*
X159647396Y-109652150D01*
X159678524Y-109614221D01*
X159713221Y-109579524D01*
X159751150Y-109548396D01*
X159791949Y-109521136D01*
X159835222Y-109498005D01*
X159880555Y-109479228D01*
X159927510Y-109464984D01*
X159975635Y-109455412D01*
X160024466Y-109450602D01*
X160049000Y-109450602D01*
X160049000Y-109450000D01*
X160549000Y-109450000D01*
X160549000Y-109450602D01*
X160573534Y-109450602D01*
X160622365Y-109455412D01*
X160670490Y-109464984D01*
X160717445Y-109479228D01*
X160762778Y-109498005D01*
X160806051Y-109521136D01*
X160846850Y-109548396D01*
X160884779Y-109579524D01*
X160919476Y-109614221D01*
X160950604Y-109652150D01*
X160977864Y-109692949D01*
X161000995Y-109736222D01*
X161019772Y-109781555D01*
X161034016Y-109828510D01*
X161043588Y-109876635D01*
X161048398Y-109925466D01*
X161048398Y-109950000D01*
X161049000Y-109950000D01*
X161049000Y-110450000D01*
X159549000Y-110450000D01*
G37*
%TD.AperFunction*%
%TD*%
%TA.AperFunction,SMDPad,CuDef*%
%TO.P,JP2,2*%
%TO.N,tip1*%
G36*
X167448398Y-111250000D02*
G01*
X167448398Y-111274534D01*
X167443588Y-111323365D01*
X167434016Y-111371490D01*
X167419772Y-111418445D01*
X167400995Y-111463778D01*
X167377864Y-111507051D01*
X167350604Y-111547850D01*
X167319476Y-111585779D01*
X167284779Y-111620476D01*
X167246850Y-111651604D01*
X167206051Y-111678864D01*
X167162778Y-111701995D01*
X167117445Y-111720772D01*
X167070490Y-111735016D01*
X167022365Y-111744588D01*
X166973534Y-111749398D01*
X166949000Y-111749398D01*
X166949000Y-111750000D01*
X166449000Y-111750000D01*
X166449000Y-111749398D01*
X166424466Y-111749398D01*
X166375635Y-111744588D01*
X166327510Y-111735016D01*
X166280555Y-111720772D01*
X166235222Y-111701995D01*
X166191949Y-111678864D01*
X166151150Y-111651604D01*
X166113221Y-111620476D01*
X166078524Y-111585779D01*
X166047396Y-111547850D01*
X166020136Y-111507051D01*
X165997005Y-111463778D01*
X165978228Y-111418445D01*
X165963984Y-111371490D01*
X165954412Y-111323365D01*
X165949602Y-111274534D01*
X165949602Y-111250000D01*
X165949000Y-111250000D01*
X165949000Y-110750000D01*
X167449000Y-110750000D01*
X167449000Y-111250000D01*
X167448398Y-111250000D01*
G37*
%TD.AperFunction*%
%TA.AperFunction,SMDPad,CuDef*%
%TO.P,JP2,1*%
%TO.N,/PWM_L1*%
G36*
X165949000Y-110450000D02*
G01*
X165949000Y-109950000D01*
X165949602Y-109950000D01*
X165949602Y-109925466D01*
X165954412Y-109876635D01*
X165963984Y-109828510D01*
X165978228Y-109781555D01*
X165997005Y-109736222D01*
X166020136Y-109692949D01*
X166047396Y-109652150D01*
X166078524Y-109614221D01*
X166113221Y-109579524D01*
X166151150Y-109548396D01*
X166191949Y-109521136D01*
X166235222Y-109498005D01*
X166280555Y-109479228D01*
X166327510Y-109464984D01*
X166375635Y-109455412D01*
X166424466Y-109450602D01*
X166449000Y-109450602D01*
X166449000Y-109450000D01*
X166949000Y-109450000D01*
X166949000Y-109450602D01*
X166973534Y-109450602D01*
X167022365Y-109455412D01*
X167070490Y-109464984D01*
X167117445Y-109479228D01*
X167162778Y-109498005D01*
X167206051Y-109521136D01*
X167246850Y-109548396D01*
X167284779Y-109579524D01*
X167319476Y-109614221D01*
X167350604Y-109652150D01*
X167377864Y-109692949D01*
X167400995Y-109736222D01*
X167419772Y-109781555D01*
X167434016Y-109828510D01*
X167443588Y-109876635D01*
X167448398Y-109925466D01*
X167448398Y-109950000D01*
X167449000Y-109950000D01*
X167449000Y-110450000D01*
X165949000Y-110450000D01*
G37*
%TD.AperFunction*%
%TD*%
D14*
%TO.P,BOOTSEL,2*%
%TO.N,Net-(JP1-Pad2)*%
X167989000Y-158050000D03*
D15*
%TO.P,BOOTSEL,1*%
%TO.N,Earth*%
X165449000Y-158050000D03*
%TD*%
%TO.P,D3,2*%
%TO.N,Net-(D3-Pad2)*%
%TA.AperFunction,SMDPad,CuDef*%
G36*
G01*
X148192750Y-150150000D02*
X148705250Y-150150000D01*
G75*
G02*
X148924000Y-150368750I0J-218750D01*
G01*
X148924000Y-150806250D01*
G75*
G02*
X148705250Y-151025000I-218750J0D01*
G01*
X148192750Y-151025000D01*
G75*
G02*
X147974000Y-150806250I0J218750D01*
G01*
X147974000Y-150368750D01*
G75*
G02*
X148192750Y-150150000I218750J0D01*
G01*
G37*
%TD.AperFunction*%
%TO.P,D3,1*%
%TO.N,VRaw*%
%TA.AperFunction,SMDPad,CuDef*%
G36*
G01*
X148192750Y-148575000D02*
X148705250Y-148575000D01*
G75*
G02*
X148924000Y-148793750I0J-218750D01*
G01*
X148924000Y-149231250D01*
G75*
G02*
X148705250Y-149450000I-218750J0D01*
G01*
X148192750Y-149450000D01*
G75*
G02*
X147974000Y-149231250I0J218750D01*
G01*
X147974000Y-148793750D01*
G75*
G02*
X148192750Y-148575000I218750J0D01*
G01*
G37*
%TD.AperFunction*%
%TD*%
%TO.P,C33,2*%
%TO.N,/PWM_RR2*%
%TA.AperFunction,SMDPad,CuDef*%
G36*
G01*
X171324000Y-100250000D02*
X172274000Y-100250000D01*
G75*
G02*
X172524000Y-100500000I0J-250000D01*
G01*
X172524000Y-101000000D01*
G75*
G02*
X172274000Y-101250000I-250000J0D01*
G01*
X171324000Y-101250000D01*
G75*
G02*
X171074000Y-101000000I0J250000D01*
G01*
X171074000Y-100500000D01*
G75*
G02*
X171324000Y-100250000I250000J0D01*
G01*
G37*
%TD.AperFunction*%
%TO.P,C33,1*%
%TO.N,ring2_out*%
%TA.AperFunction,SMDPad,CuDef*%
G36*
G01*
X171324000Y-98350000D02*
X172274000Y-98350000D01*
G75*
G02*
X172524000Y-98600000I0J-250000D01*
G01*
X172524000Y-99100000D01*
G75*
G02*
X172274000Y-99350000I-250000J0D01*
G01*
X171324000Y-99350000D01*
G75*
G02*
X171074000Y-99100000I0J250000D01*
G01*
X171074000Y-98600000D01*
G75*
G02*
X171324000Y-98350000I250000J0D01*
G01*
G37*
%TD.AperFunction*%
%TD*%
%TO.P,C31,2*%
%TO.N,AGnd*%
%TA.AperFunction,SMDPad,CuDef*%
G36*
G01*
X160514000Y-140740000D02*
X161464000Y-140740000D01*
G75*
G02*
X161714000Y-140990000I0J-250000D01*
G01*
X161714000Y-141490000D01*
G75*
G02*
X161464000Y-141740000I-250000J0D01*
G01*
X160514000Y-141740000D01*
G75*
G02*
X160264000Y-141490000I0J250000D01*
G01*
X160264000Y-140990000D01*
G75*
G02*
X160514000Y-140740000I250000J0D01*
G01*
G37*
%TD.AperFunction*%
%TO.P,C31,1*%
%TO.N,VAref*%
%TA.AperFunction,SMDPad,CuDef*%
G36*
G01*
X160514000Y-138840000D02*
X161464000Y-138840000D01*
G75*
G02*
X161714000Y-139090000I0J-250000D01*
G01*
X161714000Y-139590000D01*
G75*
G02*
X161464000Y-139840000I-250000J0D01*
G01*
X160514000Y-139840000D01*
G75*
G02*
X160264000Y-139590000I0J250000D01*
G01*
X160264000Y-139090000D01*
G75*
G02*
X160514000Y-138840000I250000J0D01*
G01*
G37*
%TD.AperFunction*%
%TD*%
%TO.P,C30,2*%
%TO.N,VInt*%
%TA.AperFunction,SMDPad,CuDef*%
G36*
G01*
X157294000Y-139830000D02*
X156344000Y-139830000D01*
G75*
G02*
X156094000Y-139580000I0J250000D01*
G01*
X156094000Y-139080000D01*
G75*
G02*
X156344000Y-138830000I250000J0D01*
G01*
X157294000Y-138830000D01*
G75*
G02*
X157544000Y-139080000I0J-250000D01*
G01*
X157544000Y-139580000D01*
G75*
G02*
X157294000Y-139830000I-250000J0D01*
G01*
G37*
%TD.AperFunction*%
%TO.P,C30,1*%
%TO.N,Earth*%
%TA.AperFunction,SMDPad,CuDef*%
G36*
G01*
X157294000Y-141730000D02*
X156344000Y-141730000D01*
G75*
G02*
X156094000Y-141480000I0J250000D01*
G01*
X156094000Y-140980000D01*
G75*
G02*
X156344000Y-140730000I250000J0D01*
G01*
X157294000Y-140730000D01*
G75*
G02*
X157544000Y-140980000I0J-250000D01*
G01*
X157544000Y-141480000D01*
G75*
G02*
X157294000Y-141730000I-250000J0D01*
G01*
G37*
%TD.AperFunction*%
%TD*%
%TO.P,C29,2*%
%TO.N,Earth*%
%TA.AperFunction,SMDPad,CuDef*%
G36*
G01*
X149324000Y-142650000D02*
X150274000Y-142650000D01*
G75*
G02*
X150524000Y-142900000I0J-250000D01*
G01*
X150524000Y-143400000D01*
G75*
G02*
X150274000Y-143650000I-250000J0D01*
G01*
X149324000Y-143650000D01*
G75*
G02*
X149074000Y-143400000I0J250000D01*
G01*
X149074000Y-142900000D01*
G75*
G02*
X149324000Y-142650000I250000J0D01*
G01*
G37*
%TD.AperFunction*%
%TO.P,C29,1*%
%TO.N,VInt*%
%TA.AperFunction,SMDPad,CuDef*%
G36*
G01*
X149324000Y-140750000D02*
X150274000Y-140750000D01*
G75*
G02*
X150524000Y-141000000I0J-250000D01*
G01*
X150524000Y-141500000D01*
G75*
G02*
X150274000Y-141750000I-250000J0D01*
G01*
X149324000Y-141750000D01*
G75*
G02*
X149074000Y-141500000I0J250000D01*
G01*
X149074000Y-141000000D01*
G75*
G02*
X149324000Y-140750000I250000J0D01*
G01*
G37*
%TD.AperFunction*%
%TD*%
%TO.P,C28,2*%
%TO.N,VReg*%
%TA.AperFunction,SMDPad,CuDef*%
G36*
G01*
X159354000Y-139840000D02*
X158404000Y-139840000D01*
G75*
G02*
X158154000Y-139590000I0J250000D01*
G01*
X158154000Y-139090000D01*
G75*
G02*
X158404000Y-138840000I250000J0D01*
G01*
X159354000Y-138840000D01*
G75*
G02*
X159604000Y-139090000I0J-250000D01*
G01*
X159604000Y-139590000D01*
G75*
G02*
X159354000Y-139840000I-250000J0D01*
G01*
G37*
%TD.AperFunction*%
%TO.P,C28,1*%
%TO.N,Earth*%
%TA.AperFunction,SMDPad,CuDef*%
G36*
G01*
X159354000Y-141740000D02*
X158404000Y-141740000D01*
G75*
G02*
X158154000Y-141490000I0J250000D01*
G01*
X158154000Y-140990000D01*
G75*
G02*
X158404000Y-140740000I250000J0D01*
G01*
X159354000Y-140740000D01*
G75*
G02*
X159604000Y-140990000I0J-250000D01*
G01*
X159604000Y-141490000D01*
G75*
G02*
X159354000Y-141740000I-250000J0D01*
G01*
G37*
%TD.AperFunction*%
%TD*%
%TO.P,C27,2*%
%TO.N,Earth*%
%TA.AperFunction,SMDPad,CuDef*%
G36*
G01*
X151374000Y-142650000D02*
X152324000Y-142650000D01*
G75*
G02*
X152574000Y-142900000I0J-250000D01*
G01*
X152574000Y-143400000D01*
G75*
G02*
X152324000Y-143650000I-250000J0D01*
G01*
X151374000Y-143650000D01*
G75*
G02*
X151124000Y-143400000I0J250000D01*
G01*
X151124000Y-142900000D01*
G75*
G02*
X151374000Y-142650000I250000J0D01*
G01*
G37*
%TD.AperFunction*%
%TO.P,C27,1*%
%TO.N,VReg*%
%TA.AperFunction,SMDPad,CuDef*%
G36*
G01*
X151374000Y-140750000D02*
X152324000Y-140750000D01*
G75*
G02*
X152574000Y-141000000I0J-250000D01*
G01*
X152574000Y-141500000D01*
G75*
G02*
X152324000Y-141750000I-250000J0D01*
G01*
X151374000Y-141750000D01*
G75*
G02*
X151124000Y-141500000I0J250000D01*
G01*
X151124000Y-141000000D01*
G75*
G02*
X151374000Y-140750000I250000J0D01*
G01*
G37*
%TD.AperFunction*%
%TD*%
%TO.P,C26,2*%
%TO.N,Earth*%
%TA.AperFunction,SMDPad,CuDef*%
G36*
G01*
X153424000Y-142650000D02*
X154374000Y-142650000D01*
G75*
G02*
X154624000Y-142900000I0J-250000D01*
G01*
X154624000Y-143400000D01*
G75*
G02*
X154374000Y-143650000I-250000J0D01*
G01*
X153424000Y-143650000D01*
G75*
G02*
X153174000Y-143400000I0J250000D01*
G01*
X153174000Y-142900000D01*
G75*
G02*
X153424000Y-142650000I250000J0D01*
G01*
G37*
%TD.AperFunction*%
%TO.P,C26,1*%
%TO.N,VReg*%
%TA.AperFunction,SMDPad,CuDef*%
G36*
G01*
X153424000Y-140750000D02*
X154374000Y-140750000D01*
G75*
G02*
X154624000Y-141000000I0J-250000D01*
G01*
X154624000Y-141500000D01*
G75*
G02*
X154374000Y-141750000I-250000J0D01*
G01*
X153424000Y-141750000D01*
G75*
G02*
X153174000Y-141500000I0J250000D01*
G01*
X153174000Y-141000000D01*
G75*
G02*
X153424000Y-140750000I250000J0D01*
G01*
G37*
%TD.AperFunction*%
%TD*%
%TO.P,C25,2*%
%TO.N,Earth*%
%TA.AperFunction,SMDPad,CuDef*%
G36*
G01*
X161849000Y-136575000D02*
X161849000Y-135625000D01*
G75*
G02*
X162099000Y-135375000I250000J0D01*
G01*
X162599000Y-135375000D01*
G75*
G02*
X162849000Y-135625000I0J-250000D01*
G01*
X162849000Y-136575000D01*
G75*
G02*
X162599000Y-136825000I-250000J0D01*
G01*
X162099000Y-136825000D01*
G75*
G02*
X161849000Y-136575000I0J250000D01*
G01*
G37*
%TD.AperFunction*%
%TO.P,C25,1*%
%TO.N,VReg*%
%TA.AperFunction,SMDPad,CuDef*%
G36*
G01*
X159949000Y-136575000D02*
X159949000Y-135625000D01*
G75*
G02*
X160199000Y-135375000I250000J0D01*
G01*
X160699000Y-135375000D01*
G75*
G02*
X160949000Y-135625000I0J-250000D01*
G01*
X160949000Y-136575000D01*
G75*
G02*
X160699000Y-136825000I-250000J0D01*
G01*
X160199000Y-136825000D01*
G75*
G02*
X159949000Y-136575000I0J250000D01*
G01*
G37*
%TD.AperFunction*%
%TD*%
%TO.P,C24,2*%
%TO.N,Earth*%
%TA.AperFunction,SMDPad,CuDef*%
G36*
G01*
X161839000Y-133175000D02*
X161839000Y-132225000D01*
G75*
G02*
X162089000Y-131975000I250000J0D01*
G01*
X162589000Y-131975000D01*
G75*
G02*
X162839000Y-132225000I0J-250000D01*
G01*
X162839000Y-133175000D01*
G75*
G02*
X162589000Y-133425000I-250000J0D01*
G01*
X162089000Y-133425000D01*
G75*
G02*
X161839000Y-133175000I0J250000D01*
G01*
G37*
%TD.AperFunction*%
%TO.P,C24,1*%
%TO.N,VReg*%
%TA.AperFunction,SMDPad,CuDef*%
G36*
G01*
X159939000Y-133175000D02*
X159939000Y-132225000D01*
G75*
G02*
X160189000Y-131975000I250000J0D01*
G01*
X160689000Y-131975000D01*
G75*
G02*
X160939000Y-132225000I0J-250000D01*
G01*
X160939000Y-133175000D01*
G75*
G02*
X160689000Y-133425000I-250000J0D01*
G01*
X160189000Y-133425000D01*
G75*
G02*
X159939000Y-133175000I0J250000D01*
G01*
G37*
%TD.AperFunction*%
%TD*%
%TO.P,C23,2*%
%TO.N,Earth*%
%TA.AperFunction,SMDPad,CuDef*%
G36*
G01*
X137949000Y-145775000D02*
X137949000Y-146725000D01*
G75*
G02*
X137699000Y-146975000I-250000J0D01*
G01*
X137199000Y-146975000D01*
G75*
G02*
X136949000Y-146725000I0J250000D01*
G01*
X136949000Y-145775000D01*
G75*
G02*
X137199000Y-145525000I250000J0D01*
G01*
X137699000Y-145525000D01*
G75*
G02*
X137949000Y-145775000I0J-250000D01*
G01*
G37*
%TD.AperFunction*%
%TO.P,C23,1*%
%TO.N,VReg*%
%TA.AperFunction,SMDPad,CuDef*%
G36*
G01*
X139849000Y-145775000D02*
X139849000Y-146725000D01*
G75*
G02*
X139599000Y-146975000I-250000J0D01*
G01*
X139099000Y-146975000D01*
G75*
G02*
X138849000Y-146725000I0J250000D01*
G01*
X138849000Y-145775000D01*
G75*
G02*
X139099000Y-145525000I250000J0D01*
G01*
X139599000Y-145525000D01*
G75*
G02*
X139849000Y-145775000I0J-250000D01*
G01*
G37*
%TD.AperFunction*%
%TD*%
%TO.P,C22,2*%
%TO.N,Earth*%
%TA.AperFunction,SMDPad,CuDef*%
G36*
G01*
X158099000Y-128075000D02*
X158099000Y-127125000D01*
G75*
G02*
X158349000Y-126875000I250000J0D01*
G01*
X158849000Y-126875000D01*
G75*
G02*
X159099000Y-127125000I0J-250000D01*
G01*
X159099000Y-128075000D01*
G75*
G02*
X158849000Y-128325000I-250000J0D01*
G01*
X158349000Y-128325000D01*
G75*
G02*
X158099000Y-128075000I0J250000D01*
G01*
G37*
%TD.AperFunction*%
%TO.P,C22,1*%
%TO.N,VInt*%
%TA.AperFunction,SMDPad,CuDef*%
G36*
G01*
X156199000Y-128075000D02*
X156199000Y-127125000D01*
G75*
G02*
X156449000Y-126875000I250000J0D01*
G01*
X156949000Y-126875000D01*
G75*
G02*
X157199000Y-127125000I0J-250000D01*
G01*
X157199000Y-128075000D01*
G75*
G02*
X156949000Y-128325000I-250000J0D01*
G01*
X156449000Y-128325000D01*
G75*
G02*
X156199000Y-128075000I0J250000D01*
G01*
G37*
%TD.AperFunction*%
%TD*%
%TO.P,C21,2*%
%TO.N,Earth*%
%TA.AperFunction,SMDPad,CuDef*%
G36*
G01*
X158099000Y-126025000D02*
X158099000Y-125075000D01*
G75*
G02*
X158349000Y-124825000I250000J0D01*
G01*
X158849000Y-124825000D01*
G75*
G02*
X159099000Y-125075000I0J-250000D01*
G01*
X159099000Y-126025000D01*
G75*
G02*
X158849000Y-126275000I-250000J0D01*
G01*
X158349000Y-126275000D01*
G75*
G02*
X158099000Y-126025000I0J250000D01*
G01*
G37*
%TD.AperFunction*%
%TO.P,C21,1*%
%TO.N,VReg*%
%TA.AperFunction,SMDPad,CuDef*%
G36*
G01*
X156199000Y-126025000D02*
X156199000Y-125075000D01*
G75*
G02*
X156449000Y-124825000I250000J0D01*
G01*
X156949000Y-124825000D01*
G75*
G02*
X157199000Y-125075000I0J-250000D01*
G01*
X157199000Y-126025000D01*
G75*
G02*
X156949000Y-126275000I-250000J0D01*
G01*
X156449000Y-126275000D01*
G75*
G02*
X156199000Y-126025000I0J250000D01*
G01*
G37*
%TD.AperFunction*%
%TD*%
%TO.P,C20,2*%
%TO.N,Earth*%
%TA.AperFunction,SMDPad,CuDef*%
G36*
G01*
X145499000Y-132625000D02*
X145499000Y-133575000D01*
G75*
G02*
X145249000Y-133825000I-250000J0D01*
G01*
X144749000Y-133825000D01*
G75*
G02*
X144499000Y-133575000I0J250000D01*
G01*
X144499000Y-132625000D01*
G75*
G02*
X144749000Y-132375000I250000J0D01*
G01*
X145249000Y-132375000D01*
G75*
G02*
X145499000Y-132625000I0J-250000D01*
G01*
G37*
%TD.AperFunction*%
%TO.P,C20,1*%
%TO.N,VReg*%
%TA.AperFunction,SMDPad,CuDef*%
G36*
G01*
X147399000Y-132625000D02*
X147399000Y-133575000D01*
G75*
G02*
X147149000Y-133825000I-250000J0D01*
G01*
X146649000Y-133825000D01*
G75*
G02*
X146399000Y-133575000I0J250000D01*
G01*
X146399000Y-132625000D01*
G75*
G02*
X146649000Y-132375000I250000J0D01*
G01*
X147149000Y-132375000D01*
G75*
G02*
X147399000Y-132625000I0J-250000D01*
G01*
G37*
%TD.AperFunction*%
%TD*%
%TO.P,C19,2*%
%TO.N,Earth*%
%TA.AperFunction,SMDPad,CuDef*%
G36*
G01*
X145549000Y-136625000D02*
X145549000Y-137575000D01*
G75*
G02*
X145299000Y-137825000I-250000J0D01*
G01*
X144799000Y-137825000D01*
G75*
G02*
X144549000Y-137575000I0J250000D01*
G01*
X144549000Y-136625000D01*
G75*
G02*
X144799000Y-136375000I250000J0D01*
G01*
X145299000Y-136375000D01*
G75*
G02*
X145549000Y-136625000I0J-250000D01*
G01*
G37*
%TD.AperFunction*%
%TO.P,C19,1*%
%TO.N,VReg*%
%TA.AperFunction,SMDPad,CuDef*%
G36*
G01*
X147449000Y-136625000D02*
X147449000Y-137575000D01*
G75*
G02*
X147199000Y-137825000I-250000J0D01*
G01*
X146699000Y-137825000D01*
G75*
G02*
X146449000Y-137575000I0J250000D01*
G01*
X146449000Y-136625000D01*
G75*
G02*
X146699000Y-136375000I250000J0D01*
G01*
X147199000Y-136375000D01*
G75*
G02*
X147449000Y-136625000I0J-250000D01*
G01*
G37*
%TD.AperFunction*%
%TD*%
%TO.P,C14,2*%
%TO.N,/PWM_LL2*%
%TA.AperFunction,SMDPad,CuDef*%
G36*
G01*
X177524000Y-100250000D02*
X178474000Y-100250000D01*
G75*
G02*
X178724000Y-100500000I0J-250000D01*
G01*
X178724000Y-101000000D01*
G75*
G02*
X178474000Y-101250000I-250000J0D01*
G01*
X177524000Y-101250000D01*
G75*
G02*
X177274000Y-101000000I0J250000D01*
G01*
X177274000Y-100500000D01*
G75*
G02*
X177524000Y-100250000I250000J0D01*
G01*
G37*
%TD.AperFunction*%
%TO.P,C14,1*%
%TO.N,tip2_out*%
%TA.AperFunction,SMDPad,CuDef*%
G36*
G01*
X177524000Y-98350000D02*
X178474000Y-98350000D01*
G75*
G02*
X178724000Y-98600000I0J-250000D01*
G01*
X178724000Y-99100000D01*
G75*
G02*
X178474000Y-99350000I-250000J0D01*
G01*
X177524000Y-99350000D01*
G75*
G02*
X177274000Y-99100000I0J250000D01*
G01*
X177274000Y-98600000D01*
G75*
G02*
X177524000Y-98350000I250000J0D01*
G01*
G37*
%TD.AperFunction*%
%TD*%
%TO.P,C12,2*%
%TO.N,/xin*%
%TA.AperFunction,SMDPad,CuDef*%
G36*
G01*
X151449000Y-117125000D02*
X151449000Y-118075000D01*
G75*
G02*
X151199000Y-118325000I-250000J0D01*
G01*
X150699000Y-118325000D01*
G75*
G02*
X150449000Y-118075000I0J250000D01*
G01*
X150449000Y-117125000D01*
G75*
G02*
X150699000Y-116875000I250000J0D01*
G01*
X151199000Y-116875000D01*
G75*
G02*
X151449000Y-117125000I0J-250000D01*
G01*
G37*
%TD.AperFunction*%
%TO.P,C12,1*%
%TO.N,Earth*%
%TA.AperFunction,SMDPad,CuDef*%
G36*
G01*
X153349000Y-117125000D02*
X153349000Y-118075000D01*
G75*
G02*
X153099000Y-118325000I-250000J0D01*
G01*
X152599000Y-118325000D01*
G75*
G02*
X152349000Y-118075000I0J250000D01*
G01*
X152349000Y-117125000D01*
G75*
G02*
X152599000Y-116875000I250000J0D01*
G01*
X153099000Y-116875000D01*
G75*
G02*
X153349000Y-117125000I0J-250000D01*
G01*
G37*
%TD.AperFunction*%
%TD*%
%TO.P,C11,2*%
%TO.N,Earth*%
%TA.AperFunction,SMDPad,CuDef*%
G36*
G01*
X155749000Y-117175000D02*
X155749000Y-118125000D01*
G75*
G02*
X155499000Y-118375000I-250000J0D01*
G01*
X154999000Y-118375000D01*
G75*
G02*
X154749000Y-118125000I0J250000D01*
G01*
X154749000Y-117175000D01*
G75*
G02*
X154999000Y-116925000I250000J0D01*
G01*
X155499000Y-116925000D01*
G75*
G02*
X155749000Y-117175000I0J-250000D01*
G01*
G37*
%TD.AperFunction*%
%TO.P,C11,1*%
%TO.N,Net-(C11-Pad1)*%
%TA.AperFunction,SMDPad,CuDef*%
G36*
G01*
X157649000Y-117175000D02*
X157649000Y-118125000D01*
G75*
G02*
X157399000Y-118375000I-250000J0D01*
G01*
X156899000Y-118375000D01*
G75*
G02*
X156649000Y-118125000I0J250000D01*
G01*
X156649000Y-117175000D01*
G75*
G02*
X156899000Y-116925000I250000J0D01*
G01*
X157399000Y-116925000D01*
G75*
G02*
X157649000Y-117175000I0J-250000D01*
G01*
G37*
%TD.AperFunction*%
%TD*%
%TO.P,C10,1*%
%TO.N,tip1_out*%
%TA.AperFunction,SMDPad,CuDef*%
G36*
G01*
X166124000Y-98350000D02*
X167074000Y-98350000D01*
G75*
G02*
X167324000Y-98600000I0J-250000D01*
G01*
X167324000Y-99100000D01*
G75*
G02*
X167074000Y-99350000I-250000J0D01*
G01*
X166124000Y-99350000D01*
G75*
G02*
X165874000Y-99100000I0J250000D01*
G01*
X165874000Y-98600000D01*
G75*
G02*
X166124000Y-98350000I250000J0D01*
G01*
G37*
%TD.AperFunction*%
%TO.P,C10,2*%
%TO.N,/PWM_LL1*%
%TA.AperFunction,SMDPad,CuDef*%
G36*
G01*
X166124000Y-100250000D02*
X167074000Y-100250000D01*
G75*
G02*
X167324000Y-100500000I0J-250000D01*
G01*
X167324000Y-101000000D01*
G75*
G02*
X167074000Y-101250000I-250000J0D01*
G01*
X166124000Y-101250000D01*
G75*
G02*
X165874000Y-101000000I0J250000D01*
G01*
X165874000Y-100500000D01*
G75*
G02*
X166124000Y-100250000I250000J0D01*
G01*
G37*
%TD.AperFunction*%
%TD*%
%TO.P,C9,2*%
%TO.N,Earth*%
%TA.AperFunction,SMDPad,CuDef*%
G36*
G01*
X145014000Y-156640000D02*
X145964000Y-156640000D01*
G75*
G02*
X146214000Y-156890000I0J-250000D01*
G01*
X146214000Y-157390000D01*
G75*
G02*
X145964000Y-157640000I-250000J0D01*
G01*
X145014000Y-157640000D01*
G75*
G02*
X144764000Y-157390000I0J250000D01*
G01*
X144764000Y-156890000D01*
G75*
G02*
X145014000Y-156640000I250000J0D01*
G01*
G37*
%TD.AperFunction*%
%TO.P,C9,1*%
%TO.N,VReg*%
%TA.AperFunction,SMDPad,CuDef*%
G36*
G01*
X145014000Y-154740000D02*
X145964000Y-154740000D01*
G75*
G02*
X146214000Y-154990000I0J-250000D01*
G01*
X146214000Y-155490000D01*
G75*
G02*
X145964000Y-155740000I-250000J0D01*
G01*
X145014000Y-155740000D01*
G75*
G02*
X144764000Y-155490000I0J250000D01*
G01*
X144764000Y-154990000D01*
G75*
G02*
X145014000Y-154740000I250000J0D01*
G01*
G37*
%TD.AperFunction*%
%TD*%
%TO.P,C6,1*%
%TO.N,ring1_out*%
%TA.AperFunction,SMDPad,CuDef*%
G36*
G01*
X160124000Y-98350000D02*
X161074000Y-98350000D01*
G75*
G02*
X161324000Y-98600000I0J-250000D01*
G01*
X161324000Y-99100000D01*
G75*
G02*
X161074000Y-99350000I-250000J0D01*
G01*
X160124000Y-99350000D01*
G75*
G02*
X159874000Y-99100000I0J250000D01*
G01*
X159874000Y-98600000D01*
G75*
G02*
X160124000Y-98350000I250000J0D01*
G01*
G37*
%TD.AperFunction*%
%TO.P,C6,2*%
%TO.N,/PWM_RR1*%
%TA.AperFunction,SMDPad,CuDef*%
G36*
G01*
X160124000Y-100250000D02*
X161074000Y-100250000D01*
G75*
G02*
X161324000Y-100500000I0J-250000D01*
G01*
X161324000Y-101000000D01*
G75*
G02*
X161074000Y-101250000I-250000J0D01*
G01*
X160124000Y-101250000D01*
G75*
G02*
X159874000Y-101000000I0J250000D01*
G01*
X159874000Y-100500000D01*
G75*
G02*
X160124000Y-100250000I250000J0D01*
G01*
G37*
%TD.AperFunction*%
%TD*%
%TO.P,C5,2*%
%TO.N,Earth*%
%TA.AperFunction,SMDPad,CuDef*%
G36*
G01*
X139399000Y-149225000D02*
X139399000Y-150175000D01*
G75*
G02*
X139149000Y-150425000I-250000J0D01*
G01*
X138649000Y-150425000D01*
G75*
G02*
X138399000Y-150175000I0J250000D01*
G01*
X138399000Y-149225000D01*
G75*
G02*
X138649000Y-148975000I250000J0D01*
G01*
X139149000Y-148975000D01*
G75*
G02*
X139399000Y-149225000I0J-250000D01*
G01*
G37*
%TD.AperFunction*%
%TO.P,C5,1*%
%TO.N,VRaw*%
%TA.AperFunction,SMDPad,CuDef*%
G36*
G01*
X141299000Y-149225000D02*
X141299000Y-150175000D01*
G75*
G02*
X141049000Y-150425000I-250000J0D01*
G01*
X140549000Y-150425000D01*
G75*
G02*
X140299000Y-150175000I0J250000D01*
G01*
X140299000Y-149225000D01*
G75*
G02*
X140549000Y-148975000I250000J0D01*
G01*
X141049000Y-148975000D01*
G75*
G02*
X141299000Y-149225000I0J-250000D01*
G01*
G37*
%TD.AperFunction*%
%TD*%
%TO.P,C16,2*%
%TO.N,Earth*%
%TA.AperFunction,SMDPad,CuDef*%
G36*
G01*
X178109000Y-155580000D02*
X178109000Y-154480000D01*
G75*
G02*
X178359000Y-154230000I250000J0D01*
G01*
X181359000Y-154230000D01*
G75*
G02*
X181609000Y-154480000I0J-250000D01*
G01*
X181609000Y-155580000D01*
G75*
G02*
X181359000Y-155830000I-250000J0D01*
G01*
X178359000Y-155830000D01*
G75*
G02*
X178109000Y-155580000I0J250000D01*
G01*
G37*
%TD.AperFunction*%
%TO.P,C16,1*%
%TO.N,N/C*%
%TA.AperFunction,SMDPad,CuDef*%
G36*
G01*
X172509000Y-155580000D02*
X172509000Y-154480000D01*
G75*
G02*
X172759000Y-154230000I250000J0D01*
G01*
X175759000Y-154230000D01*
G75*
G02*
X176009000Y-154480000I0J-250000D01*
G01*
X176009000Y-155580000D01*
G75*
G02*
X175759000Y-155830000I-250000J0D01*
G01*
X172759000Y-155830000D01*
G75*
G02*
X172509000Y-155580000I0J250000D01*
G01*
G37*
%TD.AperFunction*%
%TD*%
%TO.P,C15,2*%
%TO.N,Earth*%
%TA.AperFunction,SMDPad,CuDef*%
G36*
G01*
X129979000Y-154450000D02*
X129979000Y-155550000D01*
G75*
G02*
X129729000Y-155800000I-250000J0D01*
G01*
X126729000Y-155800000D01*
G75*
G02*
X126479000Y-155550000I0J250000D01*
G01*
X126479000Y-154450000D01*
G75*
G02*
X126729000Y-154200000I250000J0D01*
G01*
X129729000Y-154200000D01*
G75*
G02*
X129979000Y-154450000I0J-250000D01*
G01*
G37*
%TD.AperFunction*%
%TO.P,C15,1*%
%TO.N,VRaw*%
%TA.AperFunction,SMDPad,CuDef*%
G36*
G01*
X135579000Y-154450000D02*
X135579000Y-155550000D01*
G75*
G02*
X135329000Y-155800000I-250000J0D01*
G01*
X132329000Y-155800000D01*
G75*
G02*
X132079000Y-155550000I0J250000D01*
G01*
X132079000Y-154450000D01*
G75*
G02*
X132329000Y-154200000I250000J0D01*
G01*
X135329000Y-154200000D01*
G75*
G02*
X135579000Y-154450000I0J-250000D01*
G01*
G37*
%TD.AperFunction*%
%TD*%
D30*
%TO.P,J1,4*%
%TO.N,N/C*%
X142900000Y-51350000D03*
D31*
%TO.P,J1,3*%
%TO.N,ring1_out*%
X131500000Y-54300000D03*
%TO.P,J1,1*%
%TO.N,AGnd*%
X129500000Y-46900000D03*
D32*
%TO.P,J1,2*%
%TO.N,tip1_out*%
X138900000Y-46900000D03*
%TD*%
%TO.P,D2,2*%
%TO.N,VReg*%
%TA.AperFunction,SMDPad,CuDef*%
G36*
G01*
X136162750Y-126030000D02*
X136675250Y-126030000D01*
G75*
G02*
X136894000Y-126248750I0J-218750D01*
G01*
X136894000Y-126686250D01*
G75*
G02*
X136675250Y-126905000I-218750J0D01*
G01*
X136162750Y-126905000D01*
G75*
G02*
X135944000Y-126686250I0J218750D01*
G01*
X135944000Y-126248750D01*
G75*
G02*
X136162750Y-126030000I218750J0D01*
G01*
G37*
%TD.AperFunction*%
%TO.P,D2,1*%
%TO.N,/po_batt*%
%TA.AperFunction,SMDPad,CuDef*%
G36*
G01*
X136162750Y-124455000D02*
X136675250Y-124455000D01*
G75*
G02*
X136894000Y-124673750I0J-218750D01*
G01*
X136894000Y-125111250D01*
G75*
G02*
X136675250Y-125330000I-218750J0D01*
G01*
X136162750Y-125330000D01*
G75*
G02*
X135944000Y-125111250I0J218750D01*
G01*
X135944000Y-124673750D01*
G75*
G02*
X136162750Y-124455000I218750J0D01*
G01*
G37*
%TD.AperFunction*%
%TD*%
D33*
%TO.P,U3,14*%
%TO.N,spi_mosi*%
X153498874Y-96217100D03*
%TO.P,U3,13*%
%TO.N,spi_clock*%
X153999000Y-96217100D03*
%TO.P,U3,12*%
%TO.N,spi_cs*%
X154499126Y-96217100D03*
D34*
%TO.P,U3,11*%
%TO.N,N/C*%
X155180100Y-96040189D03*
%TO.P,U3,10*%
X155180100Y-95540063D03*
%TO.P,U3,9*%
X155180100Y-95039937D03*
%TO.P,U3,8*%
%TO.N,VReg*%
X155180100Y-94539811D03*
D33*
%TO.P,U3,7*%
%TO.N,Earth*%
X154499126Y-94362900D03*
%TO.P,U3,6*%
X153999000Y-94362900D03*
%TO.P,U3,5*%
%TO.N,VReg*%
X153498874Y-94362900D03*
D34*
%TO.P,U3,4*%
%TO.N,imu_int*%
X152817900Y-94539811D03*
%TO.P,U3,3*%
%TO.N,Earth*%
X152817900Y-95039937D03*
%TO.P,U3,2*%
X152817900Y-95540063D03*
%TO.P,U3,1*%
%TO.N,spi_miso*%
X152817900Y-96040189D03*
%TD*%
D35*
%TO.P,J5,S2*%
%TO.N,Earth*%
X158359000Y-158440000D03*
%TO.P,J5,S3*%
X149719000Y-158440000D03*
D36*
%TO.P,J5,S1*%
X158359000Y-154260000D03*
%TO.P,J5,S4*%
X149719000Y-154260000D03*
D37*
%TO.P,J5,A1_B12*%
X157239000Y-153685000D03*
%TO.P,J5,B1_A12*%
X150839000Y-153685000D03*
%TO.P,J5,A4_B9*%
%TO.N,Net-(D3-Pad2)*%
X156439000Y-153685000D03*
%TO.P,J5,B4_A9*%
X151639000Y-153685000D03*
D38*
%TO.P,J5,A7*%
%TO.N,Net-(J5-PadA7)*%
X153789000Y-153685000D03*
%TO.P,J5,A6*%
%TO.N,Net-(J5-PadA6)*%
X154289000Y-153685000D03*
%TO.P,J5,B6*%
X153289000Y-153685000D03*
%TO.P,J5,A8*%
%TO.N,N/C*%
X152789000Y-153685000D03*
%TO.P,J5,B5*%
%TO.N,Net-(J5-PadB5)*%
X152289000Y-153685000D03*
%TO.P,J5,B7*%
%TO.N,Net-(J5-PadA7)*%
X154789000Y-153685000D03*
%TO.P,J5,A5*%
%TO.N,Net-(J5-PadA5)*%
X155289000Y-153685000D03*
%TO.P,J5,B8*%
%TO.N,N/C*%
X155789000Y-153685000D03*
%TD*%
D27*
%TO.P,SW3,3*%
%TO.N,Earth*%
X150539000Y-48250000D03*
%TO.P,SW3,4*%
X157559000Y-48250000D03*
D28*
%TO.P,SW3,1*%
X151809000Y-45760000D03*
%TO.P,SW3,2*%
%TO.N,sw3*%
X156289000Y-45760000D03*
%TD*%
%TO.P,R7,2*%
%TO.N,usb_d+*%
%TA.AperFunction,SMDPad,CuDef*%
G36*
G01*
X153499002Y-149320000D02*
X152598998Y-149320000D01*
G75*
G02*
X152349000Y-149070002I0J249998D01*
G01*
X152349000Y-148544998D01*
G75*
G02*
X152598998Y-148295000I249998J0D01*
G01*
X153499002Y-148295000D01*
G75*
G02*
X153749000Y-148544998I0J-249998D01*
G01*
X153749000Y-149070002D01*
G75*
G02*
X153499002Y-149320000I-249998J0D01*
G01*
G37*
%TD.AperFunction*%
%TO.P,R7,1*%
%TO.N,Net-(J5-PadA6)*%
%TA.AperFunction,SMDPad,CuDef*%
G36*
G01*
X153499002Y-151145000D02*
X152598998Y-151145000D01*
G75*
G02*
X152349000Y-150895002I0J249998D01*
G01*
X152349000Y-150369998D01*
G75*
G02*
X152598998Y-150120000I249998J0D01*
G01*
X153499002Y-150120000D01*
G75*
G02*
X153749000Y-150369998I0J-249998D01*
G01*
X153749000Y-150895002D01*
G75*
G02*
X153499002Y-151145000I-249998J0D01*
G01*
G37*
%TD.AperFunction*%
%TD*%
%TO.P,R3,2*%
%TO.N,Net-(J5-PadA7)*%
%TA.AperFunction,SMDPad,CuDef*%
G36*
G01*
X154598998Y-150120000D02*
X155499002Y-150120000D01*
G75*
G02*
X155749000Y-150369998I0J-249998D01*
G01*
X155749000Y-150895002D01*
G75*
G02*
X155499002Y-151145000I-249998J0D01*
G01*
X154598998Y-151145000D01*
G75*
G02*
X154349000Y-150895002I0J249998D01*
G01*
X154349000Y-150369998D01*
G75*
G02*
X154598998Y-150120000I249998J0D01*
G01*
G37*
%TD.AperFunction*%
%TO.P,R3,1*%
%TO.N,usb_d-*%
%TA.AperFunction,SMDPad,CuDef*%
G36*
G01*
X154598998Y-148295000D02*
X155499002Y-148295000D01*
G75*
G02*
X155749000Y-148544998I0J-249998D01*
G01*
X155749000Y-149070002D01*
G75*
G02*
X155499002Y-149320000I-249998J0D01*
G01*
X154598998Y-149320000D01*
G75*
G02*
X154349000Y-149070002I0J249998D01*
G01*
X154349000Y-148544998D01*
G75*
G02*
X154598998Y-148295000I249998J0D01*
G01*
G37*
%TD.AperFunction*%
%TD*%
%TO.P,R2,2*%
%TO.N,Net-(J5-PadB5)*%
%TA.AperFunction,SMDPad,CuDef*%
G36*
G01*
X150108998Y-150120000D02*
X151009002Y-150120000D01*
G75*
G02*
X151259000Y-150369998I0J-249998D01*
G01*
X151259000Y-150895002D01*
G75*
G02*
X151009002Y-151145000I-249998J0D01*
G01*
X150108998Y-151145000D01*
G75*
G02*
X149859000Y-150895002I0J249998D01*
G01*
X149859000Y-150369998D01*
G75*
G02*
X150108998Y-150120000I249998J0D01*
G01*
G37*
%TD.AperFunction*%
%TO.P,R2,1*%
%TO.N,Earth*%
%TA.AperFunction,SMDPad,CuDef*%
G36*
G01*
X150108998Y-148295000D02*
X151009002Y-148295000D01*
G75*
G02*
X151259000Y-148544998I0J-249998D01*
G01*
X151259000Y-149070002D01*
G75*
G02*
X151009002Y-149320000I-249998J0D01*
G01*
X150108998Y-149320000D01*
G75*
G02*
X149859000Y-149070002I0J249998D01*
G01*
X149859000Y-148544998D01*
G75*
G02*
X150108998Y-148295000I249998J0D01*
G01*
G37*
%TD.AperFunction*%
%TD*%
%TO.P,R1,2*%
%TO.N,Earth*%
%TA.AperFunction,SMDPad,CuDef*%
G36*
G01*
X157969002Y-149320000D02*
X157068998Y-149320000D01*
G75*
G02*
X156819000Y-149070002I0J249998D01*
G01*
X156819000Y-148544998D01*
G75*
G02*
X157068998Y-148295000I249998J0D01*
G01*
X157969002Y-148295000D01*
G75*
G02*
X158219000Y-148544998I0J-249998D01*
G01*
X158219000Y-149070002D01*
G75*
G02*
X157969002Y-149320000I-249998J0D01*
G01*
G37*
%TD.AperFunction*%
%TO.P,R1,1*%
%TO.N,Net-(J5-PadA5)*%
%TA.AperFunction,SMDPad,CuDef*%
G36*
G01*
X157969002Y-151145000D02*
X157068998Y-151145000D01*
G75*
G02*
X156819000Y-150895002I0J249998D01*
G01*
X156819000Y-150369998D01*
G75*
G02*
X157068998Y-150120000I249998J0D01*
G01*
X157969002Y-150120000D01*
G75*
G02*
X158219000Y-150369998I0J-249998D01*
G01*
X158219000Y-150895002D01*
G75*
G02*
X157969002Y-151145000I-249998J0D01*
G01*
G37*
%TD.AperFunction*%
%TD*%
D14*
%TO.P,J6,10*%
%TO.N,pi_reset*%
X173579000Y-124370000D03*
%TO.P,J6,9*%
%TO.N,N/C*%
X171039000Y-124370000D03*
%TO.P,J6,8*%
X173579000Y-126910000D03*
%TO.P,J6,7*%
X171039000Y-126910000D03*
%TO.P,J6,6*%
X173579000Y-129450000D03*
%TO.P,J6,5*%
%TO.N,Earth*%
X171039000Y-129450000D03*
%TO.P,J6,4*%
%TO.N,pi_swclk*%
X173579000Y-131990000D03*
%TO.P,J6,3*%
%TO.N,Earth*%
X171039000Y-131990000D03*
%TO.P,J6,2*%
%TO.N,pi_swdio*%
X173579000Y-134530000D03*
D15*
%TO.P,J6,1*%
%TO.N,VReg*%
X171039000Y-134530000D03*
%TD*%
D39*
%TO.P,D1,1*%
%TO.N,VRaw*%
X128469000Y-126410000D03*
D40*
%TO.P,D1,2*%
%TO.N,/po_batt*%
X128469000Y-124510000D03*
%TD*%
%TO.P,C4,2*%
%TO.N,Earth*%
%TA.AperFunction,SMDPad,CuDef*%
G36*
G01*
X156924000Y-96000000D02*
X157874000Y-96000000D01*
G75*
G02*
X158124000Y-96250000I0J-250000D01*
G01*
X158124000Y-96750000D01*
G75*
G02*
X157874000Y-97000000I-250000J0D01*
G01*
X156924000Y-97000000D01*
G75*
G02*
X156674000Y-96750000I0J250000D01*
G01*
X156674000Y-96250000D01*
G75*
G02*
X156924000Y-96000000I250000J0D01*
G01*
G37*
%TD.AperFunction*%
%TO.P,C4,1*%
%TO.N,VReg*%
%TA.AperFunction,SMDPad,CuDef*%
G36*
G01*
X156924000Y-94100000D02*
X157874000Y-94100000D01*
G75*
G02*
X158124000Y-94350000I0J-250000D01*
G01*
X158124000Y-94850000D01*
G75*
G02*
X157874000Y-95100000I-250000J0D01*
G01*
X156924000Y-95100000D01*
G75*
G02*
X156674000Y-94850000I0J250000D01*
G01*
X156674000Y-94350000D01*
G75*
G02*
X156924000Y-94100000I250000J0D01*
G01*
G37*
%TD.AperFunction*%
%TD*%
%TO.P,C2,2*%
%TO.N,Earth*%
%TA.AperFunction,SMDPad,CuDef*%
G36*
G01*
X150174000Y-95950000D02*
X151124000Y-95950000D01*
G75*
G02*
X151374000Y-96200000I0J-250000D01*
G01*
X151374000Y-96700000D01*
G75*
G02*
X151124000Y-96950000I-250000J0D01*
G01*
X150174000Y-96950000D01*
G75*
G02*
X149924000Y-96700000I0J250000D01*
G01*
X149924000Y-96200000D01*
G75*
G02*
X150174000Y-95950000I250000J0D01*
G01*
G37*
%TD.AperFunction*%
%TO.P,C2,1*%
%TO.N,VReg*%
%TA.AperFunction,SMDPad,CuDef*%
G36*
G01*
X150174000Y-94050000D02*
X151124000Y-94050000D01*
G75*
G02*
X151374000Y-94300000I0J-250000D01*
G01*
X151374000Y-94800000D01*
G75*
G02*
X151124000Y-95050000I-250000J0D01*
G01*
X150174000Y-95050000D01*
G75*
G02*
X149924000Y-94800000I0J250000D01*
G01*
X149924000Y-94300000D01*
G75*
G02*
X150174000Y-94050000I250000J0D01*
G01*
G37*
%TD.AperFunction*%
%TD*%
D30*
%TO.P,J2,4*%
%TO.N,N/C*%
X165200000Y-49850000D03*
D31*
%TO.P,J2,3*%
%TO.N,ring2_out*%
X176600000Y-46900000D03*
%TO.P,J2,1*%
%TO.N,AGnd*%
X178600000Y-54300000D03*
D32*
%TO.P,J2,2*%
%TO.N,tip2_out*%
X169200000Y-54300000D03*
%TD*%
%TO.P,R6,2*%
%TO.N,po_reset*%
%TA.AperFunction,SMDPad,CuDef*%
G36*
G01*
X144899216Y-62881906D02*
X145799016Y-62881906D01*
G75*
G02*
X146049116Y-63132006I0J-250100D01*
G01*
X146049116Y-63656806D01*
G75*
G02*
X145799016Y-63906906I-250100J0D01*
G01*
X144899216Y-63906906D01*
G75*
G02*
X144649116Y-63656806I0J250100D01*
G01*
X144649116Y-63132006D01*
G75*
G02*
X144899216Y-62881906I250100J0D01*
G01*
G37*
%TD.AperFunction*%
%TO.P,R6,1*%
%TO.N,/po_batt*%
%TA.AperFunction,SMDPad,CuDef*%
G36*
G01*
X144899216Y-61056906D02*
X145799016Y-61056906D01*
G75*
G02*
X146049116Y-61307006I0J-250100D01*
G01*
X146049116Y-61831806D01*
G75*
G02*
X145799016Y-62081906I-250100J0D01*
G01*
X144899216Y-62081906D01*
G75*
G02*
X144649116Y-61831806I0J250100D01*
G01*
X144649116Y-61307006D01*
G75*
G02*
X144899216Y-61056906I250100J0D01*
G01*
G37*
%TD.AperFunction*%
%TD*%
D41*
%TO.N,Earth*%
X152859000Y-133650000D03*
X155239000Y-133640000D03*
X154049000Y-133650000D03*
X152849000Y-134890000D03*
X155229000Y-134880000D03*
X154039000Y-134890000D03*
X154039000Y-132530000D03*
X155229000Y-132520000D03*
X152849000Y-132530000D03*
X165271310Y-147000000D03*
X156599116Y-66231906D03*
X184899116Y-88631906D03*
X149319116Y-96460000D03*
X157869116Y-59497216D03*
X156319116Y-50561906D03*
X157869000Y-55620000D03*
X158749000Y-96502909D03*
X145649000Y-46600000D03*
X162249000Y-46600000D03*
X139589000Y-64730000D03*
X163499000Y-113500000D03*
X146049000Y-153450000D03*
X128249000Y-153450000D03*
X128249000Y-156550000D03*
X144884031Y-141835031D03*
X143849000Y-137050000D03*
X166949008Y-146950000D03*
X168443612Y-146900006D03*
X145199000Y-158550000D03*
X137749000Y-149700000D03*
X154049000Y-117650000D03*
X144133832Y-133035031D03*
X138349000Y-159140000D03*
X158889000Y-142430000D03*
X156809000Y-142370000D03*
X153899000Y-144320000D03*
X151859000Y-144280000D03*
X149799000Y-144300000D03*
X157509000Y-147590000D03*
X150549000Y-147590000D03*
X159789000Y-125560000D03*
X159789000Y-127630000D03*
X163499000Y-132690000D03*
X163549000Y-136120000D03*
X174899000Y-113500000D03*
X159849000Y-117750000D03*
X175199000Y-118400000D03*
X136471210Y-146233737D03*
X163549000Y-138200000D03*
X154219000Y-92860000D03*
X179809000Y-153320000D03*
X140399000Y-152700000D03*
X162349000Y-144050000D03*
X174849000Y-59850000D03*
X171499000Y-63200000D03*
%TO.N,/po_batt*%
X161716806Y-62491906D03*
X145329000Y-60420000D03*
X128449000Y-123400000D03*
%TO.N,VReg*%
X168548999Y-148800000D03*
X169248999Y-148450000D03*
X149349116Y-94601906D03*
X158749001Y-94600000D03*
X141099000Y-146250000D03*
X169248999Y-147650000D03*
X148249000Y-133650000D03*
X140719000Y-155020000D03*
X142879000Y-155020000D03*
X143959000Y-155020000D03*
X141799000Y-155020000D03*
X149309000Y-136690000D03*
X153969000Y-139780000D03*
X159329000Y-138210000D03*
X147209000Y-143140000D03*
X147209000Y-144090000D03*
X147209000Y-145090000D03*
X147209000Y-146090000D03*
X159289000Y-133050000D03*
X136399000Y-128350000D03*
X154749000Y-126200000D03*
X160079000Y-156760000D03*
X162099000Y-154700000D03*
X161159000Y-155690000D03*
X158989000Y-136500000D03*
%TO.N,AGnd*%
X167179000Y-142890000D03*
X176639116Y-54321906D03*
X129539116Y-49091906D03*
X163549000Y-102700000D03*
X174849000Y-102750000D03*
X166599000Y-112650000D03*
X171799000Y-112650000D03*
%TO.N,VAref*%
X164049000Y-115100000D03*
X174249000Y-115150000D03*
X165699000Y-136000000D03*
X165699000Y-128000000D03*
X164049000Y-117600000D03*
%TO.N,VRaw*%
X128399000Y-128150000D03*
%TO.N,ring1*%
X158270711Y-130232909D03*
X160299000Y-113300000D03*
%TO.N,tip1*%
X164499000Y-113550000D03*
X159169228Y-130184053D03*
%TO.N,ring2*%
X159249000Y-131150000D03*
X173949000Y-113600000D03*
%TO.N,tip2*%
X159249000Y-132000000D03*
X176749000Y-113600000D03*
%TO.N,led1*%
X144799000Y-130400000D03*
X139649000Y-130400000D03*
%TO.N,led3*%
X144799000Y-131350000D03*
X141499000Y-131350000D03*
%TO.N,led4*%
X148674519Y-132736228D03*
X140499000Y-133400000D03*
%TO.N,po_swo*%
X155383105Y-66245895D03*
%TO.N,po_wake*%
X182549000Y-116200000D03*
X180871210Y-115070503D03*
%TO.N,po_swclk*%
X152639116Y-65921479D03*
%TO.N,po_reset*%
X150219116Y-65481906D03*
X162699000Y-65150000D03*
%TO.N,Net-(R15-Pad1)*%
X138339000Y-138350000D03*
X164349000Y-154850000D03*
%TO.N,sw1*%
X144799000Y-129450000D03*
X140299000Y-129450000D03*
%TO.N,sw4*%
X149168427Y-133687390D03*
X140499000Y-134300000D03*
%TO.N,ring1_out*%
X162599000Y-97550000D03*
X133449000Y-54400000D03*
%TO.N,tip1_out*%
X166599000Y-97550000D03*
X141964310Y-57084690D03*
%TO.N,tip2_out*%
X177999000Y-97600000D03*
X178399000Y-108350000D03*
X171399000Y-54300000D03*
%TO.N,ring2_out*%
X173799000Y-97609521D03*
X171799000Y-108250000D03*
X172249000Y-59900000D03*
%TO.N,Net-(C18-Pad1)*%
X163549000Y-108300000D03*
X162616320Y-113743530D03*
%TO.N,Net-(C32-Pad1)*%
X174899000Y-108250000D03*
X175769000Y-113850000D03*
%TO.N,spi_mosi*%
X146375235Y-102123703D03*
X146151274Y-100222210D03*
%TD*%
D42*
%TO.N,*%
X144932750Y-151333750D02*
X144900250Y-151301250D01*
D43*
X155180100Y-96040189D02*
X155709189Y-96040189D01*
X155180100Y-95540063D02*
X155678937Y-95540063D01*
X155180100Y-95039937D02*
X155640239Y-95039937D01*
X174259000Y-155030000D02*
X174259000Y-153470000D01*
X174259000Y-153470000D02*
X174239000Y-153490000D01*
X174239000Y-153490000D02*
X174239000Y-156330000D01*
%TO.N,Earth*%
X154504116Y-95516906D02*
X154529116Y-95541906D01*
X154504116Y-94381906D02*
X154504116Y-95516906D01*
X154004116Y-95516906D02*
X154029116Y-95541906D01*
X154004116Y-94381906D02*
X154004116Y-95516906D01*
X154029116Y-95541906D02*
X152879116Y-95541906D01*
X154529116Y-95541906D02*
X154029116Y-95541906D01*
X157859000Y-59507332D02*
X157869116Y-59497216D01*
D44*
X157859000Y-61230000D02*
X157859000Y-59507332D01*
D43*
X156329116Y-50550000D02*
X154911225Y-50550000D01*
X154570906Y-95041906D02*
X152869116Y-95041906D01*
X154589000Y-95060000D02*
X154570906Y-95041906D01*
X154590906Y-95541906D02*
X154529116Y-95541906D01*
X154599000Y-95550000D02*
X154590906Y-95541906D01*
D42*
X156349000Y-96500000D02*
X158449000Y-96500000D01*
D43*
X157239000Y-153685000D02*
X157884000Y-153685000D01*
X150839000Y-153685000D02*
X150214000Y-153685000D01*
X145506101Y-44457101D02*
X145649000Y-44600000D01*
X145649000Y-44600000D02*
X145649000Y-46600000D01*
X125989000Y-44460000D02*
X125991899Y-44457101D01*
X125991899Y-44457101D02*
X145506101Y-44457101D01*
X125989000Y-45242500D02*
X125989000Y-44460000D01*
X145709000Y-153110000D02*
X146049000Y-153450000D01*
X144906500Y-153110000D02*
X145709000Y-153110000D01*
D45*
X128229000Y-153470000D02*
X128249000Y-153450000D01*
X128229000Y-155000000D02*
X128229000Y-153470000D01*
X128229000Y-156530000D02*
X128249000Y-156550000D01*
X128229000Y-155000000D02*
X128229000Y-156530000D01*
D43*
X140749000Y-159200000D02*
X140349000Y-159200000D01*
X141649000Y-158300000D02*
X140749000Y-159200000D01*
X142499000Y-159150000D02*
X141649000Y-158300000D01*
X143259000Y-159150000D02*
X142499000Y-159150000D01*
X141649000Y-158300000D02*
X141649000Y-157200000D01*
X144904000Y-141815062D02*
X144884031Y-141835031D01*
X144904000Y-140400000D02*
X144904000Y-141815062D01*
X143899000Y-137100000D02*
X143849000Y-137050000D01*
X145049000Y-137100000D02*
X143899000Y-137100000D01*
X167178999Y-145917900D02*
X167178999Y-146987056D01*
X165261944Y-146987056D02*
X165249000Y-146974112D01*
X165261944Y-146987056D02*
X165261944Y-145662944D01*
D42*
X165271310Y-147000000D02*
X166899008Y-147000000D01*
X166899008Y-147000000D02*
X166949008Y-146950000D01*
D43*
X168179000Y-145917900D02*
X168179000Y-146502100D01*
X168179000Y-146502100D02*
X168443612Y-146766712D01*
X168443612Y-146766712D02*
X168443612Y-146900006D01*
D42*
X165599000Y-148800000D02*
X164649000Y-148800000D01*
X164649000Y-148800000D02*
X164499000Y-148650000D01*
X164499000Y-147772310D02*
X165271310Y-147000000D01*
X164499000Y-148650000D02*
X164499000Y-147772310D01*
D43*
X145489000Y-158260000D02*
X145199000Y-158550000D01*
D42*
X145489000Y-157140000D02*
X145489000Y-158260000D01*
D43*
X144599000Y-159150000D02*
X145199000Y-158550000D01*
X143259000Y-159150000D02*
X144599000Y-159150000D01*
D45*
X138899000Y-149700000D02*
X137749000Y-149700000D01*
D43*
X155249000Y-117650000D02*
X154049000Y-117650000D01*
X153999000Y-117600000D02*
X154049000Y-117650000D01*
X152849000Y-117600000D02*
X153999000Y-117600000D01*
X156749000Y-141150000D02*
X156799000Y-141200000D01*
X145049000Y-133100000D02*
X144198801Y-133100000D01*
X144198801Y-133100000D02*
X144133832Y-133035031D01*
X138359000Y-159150000D02*
X138349000Y-159140000D01*
X140059000Y-159150000D02*
X138359000Y-159150000D01*
X136949000Y-158687500D02*
X136949000Y-159530000D01*
X136949000Y-159530000D02*
X136979000Y-159560000D01*
X137929000Y-159560000D02*
X138349000Y-159140000D01*
X136979000Y-159560000D02*
X137929000Y-159560000D01*
D42*
X158879000Y-142420000D02*
X158889000Y-142430000D01*
X158879000Y-141240000D02*
X158879000Y-142420000D01*
X156819000Y-142360000D02*
X156809000Y-142370000D01*
X156819000Y-141230000D02*
X156819000Y-142360000D01*
X153899000Y-143150000D02*
X153899000Y-144320000D01*
X151849000Y-144270000D02*
X151859000Y-144280000D01*
X151849000Y-143150000D02*
X151849000Y-144270000D01*
X149799000Y-143150000D02*
X149799000Y-144300000D01*
X151839000Y-144300000D02*
X151859000Y-144280000D01*
X149799000Y-144300000D02*
X151839000Y-144300000D01*
X153859000Y-144280000D02*
X153899000Y-144320000D01*
X151859000Y-144280000D02*
X153859000Y-144280000D01*
X158829000Y-142370000D02*
X158889000Y-142430000D01*
X156809000Y-142370000D02*
X158829000Y-142370000D01*
X157519000Y-147600000D02*
X157509000Y-147590000D01*
X157519000Y-148807500D02*
X157519000Y-147600000D01*
X150559000Y-147600000D02*
X150549000Y-147590000D01*
X150559000Y-148807500D02*
X150559000Y-147600000D01*
X159779000Y-125550000D02*
X159789000Y-125560000D01*
X158599000Y-125550000D02*
X159779000Y-125550000D01*
X159759000Y-127600000D02*
X159789000Y-127630000D01*
X158599000Y-127600000D02*
X159759000Y-127600000D01*
X163489000Y-132700000D02*
X163499000Y-132690000D01*
X162339000Y-132700000D02*
X163489000Y-132700000D01*
X163529000Y-136100000D02*
X163549000Y-136120000D01*
X162349000Y-136100000D02*
X163529000Y-136100000D01*
X163499000Y-112182550D02*
X163499000Y-113300000D01*
X174899000Y-112152550D02*
X174899000Y-113400000D01*
D43*
X137449000Y-146250000D02*
X136487473Y-146250000D01*
X136487473Y-146250000D02*
X136471210Y-146233737D01*
X154499126Y-93140126D02*
X154219000Y-92860000D01*
X154499126Y-94362900D02*
X154499126Y-93140126D01*
X154028526Y-93050474D02*
X154219000Y-92860000D01*
X154028526Y-94051194D02*
X154028526Y-93050474D01*
X153999000Y-94080720D02*
X154028526Y-94051194D01*
X153999000Y-94362900D02*
X153999000Y-94080720D01*
X152396247Y-95540000D02*
X152396310Y-95540063D01*
X152396310Y-95540063D02*
X152817900Y-95540063D01*
X152089000Y-95540000D02*
X152396247Y-95540000D01*
X151557094Y-96460000D02*
X149319116Y-96460000D01*
X151879000Y-96160000D02*
X151579000Y-96460000D01*
X152539000Y-95040000D02*
X151879000Y-95700000D01*
X151879000Y-95700000D02*
X151879000Y-96160000D01*
X152859000Y-95040000D02*
X152539000Y-95040000D01*
X179859000Y-153370000D02*
X179809000Y-153320000D01*
X179859000Y-155030000D02*
X179859000Y-153370000D01*
X179859000Y-155030000D02*
X179859000Y-156480000D01*
X153033000Y-132346000D02*
X152849000Y-132530000D01*
X153033000Y-130296400D02*
X153033000Y-132346000D01*
X140409000Y-152710000D02*
X140399000Y-152700000D01*
X141931500Y-152710000D02*
X140409000Y-152710000D01*
X167178999Y-145917900D02*
X167178999Y-145800000D01*
X182149000Y-45240000D02*
X182149000Y-44500000D01*
X182149000Y-44500000D02*
X163649000Y-44500000D01*
X163649000Y-44500000D02*
X162249000Y-45900000D01*
X162249000Y-45900000D02*
X162249000Y-46600000D01*
%TO.N,/po_batt*%
X160399000Y-63770000D02*
X161677094Y-62491906D01*
D46*
X161716806Y-62704216D02*
X161716806Y-62491906D01*
X161149116Y-63271906D02*
X161716806Y-62704216D01*
D43*
X161677094Y-62491906D02*
X161716806Y-62491906D01*
D46*
X145349116Y-60440116D02*
X145329000Y-60420000D01*
X145349116Y-61569406D02*
X145349116Y-60440116D01*
D45*
X136399000Y-124000000D02*
X136399000Y-124810000D01*
X136099000Y-123700000D02*
X136399000Y-124000000D01*
X128469000Y-124510000D02*
X128469000Y-123420000D01*
X128469000Y-123420000D02*
X128449000Y-123400000D01*
X130999000Y-123400000D02*
X131299000Y-123700000D01*
X128489000Y-123400000D02*
X130999000Y-123400000D01*
X128469000Y-123420000D02*
X128489000Y-123400000D01*
X135799000Y-123400000D02*
X135899000Y-123500000D01*
X130999000Y-123400000D02*
X133749000Y-123400000D01*
X133749000Y-123400000D02*
X135799000Y-123400000D01*
X133749000Y-124600000D02*
X133749000Y-123400000D01*
X130999000Y-123400000D02*
X130999000Y-124250000D01*
X130999000Y-124250000D02*
X131249000Y-124500000D01*
D43*
%TO.N,VReg*%
X149349116Y-94601906D02*
X150679116Y-94601906D01*
X150679116Y-94601906D02*
X150699116Y-94621906D01*
X150699116Y-94621906D02*
X151639116Y-94621906D01*
X151639116Y-94621906D02*
X152579116Y-93681906D01*
D46*
X152719116Y-93541906D02*
X152579116Y-93681906D01*
X153489116Y-93541906D02*
X152719116Y-93541906D01*
D43*
X153489116Y-94341906D02*
X153509116Y-94361906D01*
D46*
X152719116Y-93541906D02*
X153499116Y-93541906D01*
X153499116Y-93541906D02*
X153499116Y-93831906D01*
D47*
X153499116Y-93831906D02*
X153499116Y-94341906D01*
D43*
X156288811Y-94539811D02*
X156349000Y-94600000D01*
X155180100Y-94539811D02*
X156288811Y-94539811D01*
D46*
X156349000Y-94600000D02*
X158799000Y-94600000D01*
X155949000Y-94600000D02*
X156349000Y-94600000D01*
D45*
X133939000Y-128330000D02*
X135789000Y-128330000D01*
D46*
X133799000Y-128190000D02*
X133939000Y-128330000D01*
D45*
X133829000Y-128070000D02*
X133819000Y-128060000D01*
X133799000Y-128300000D02*
X133829000Y-128330000D01*
X133829000Y-128330000D02*
X133829000Y-128070000D01*
X133799000Y-127120000D02*
X133799000Y-128300000D01*
D42*
X141949000Y-154050000D02*
X141949000Y-153700000D01*
X142063401Y-154164401D02*
X141949000Y-154050000D01*
X144834599Y-154164401D02*
X142063401Y-154164401D01*
X144899000Y-154100000D02*
X144834599Y-154164401D01*
X144899000Y-153700000D02*
X144899000Y-154100000D01*
D43*
X141094000Y-146255000D02*
X141099000Y-146250000D01*
X141094000Y-147600000D02*
X141094000Y-146255000D01*
X149532999Y-132684000D02*
X149492589Y-132643590D01*
X150645400Y-132684000D02*
X149532999Y-132684000D01*
X160749000Y-132750000D02*
X160682591Y-132683591D01*
X157452600Y-136341600D02*
X158257400Y-136341600D01*
X158257400Y-136341600D02*
X158519000Y-136080000D01*
X168679000Y-146190000D02*
X169248999Y-146759999D01*
X169248999Y-146759999D02*
X169248999Y-147650000D01*
X169198999Y-147700000D02*
X169248999Y-147650000D01*
X167679000Y-146558992D02*
X167821302Y-146701294D01*
X167821302Y-146701294D02*
X167821302Y-147543310D01*
X167679000Y-145917900D02*
X167679000Y-146558992D01*
D42*
X169148999Y-147650000D02*
X169198999Y-147700000D01*
X167949000Y-147650000D02*
X169148999Y-147650000D01*
X169248999Y-148800000D02*
X169248999Y-147650000D01*
X167499000Y-148800000D02*
X169248999Y-148800000D01*
D43*
X156699000Y-125550000D02*
X155999000Y-125550000D01*
X145489000Y-155240000D02*
X145489000Y-154690000D01*
D42*
X145199000Y-154100000D02*
X144899000Y-154100000D01*
X145489000Y-154390000D02*
X145199000Y-154100000D01*
X145489000Y-154690000D02*
X145489000Y-154390000D01*
D43*
X140149000Y-146250000D02*
X140149000Y-144900000D01*
X139349000Y-146250000D02*
X140149000Y-146250000D01*
X140149000Y-146250000D02*
X141099000Y-146250000D01*
X140149000Y-144900000D02*
X136399000Y-141150000D01*
X136399000Y-141150000D02*
X136399000Y-140600000D01*
X136399000Y-140600000D02*
X136649000Y-140350000D01*
X136649000Y-140350000D02*
X137299000Y-140350000D01*
X146949000Y-132850000D02*
X146949000Y-133100000D01*
X147543604Y-133100000D02*
X147149000Y-133100000D01*
X147799000Y-132844604D02*
X147543604Y-133100000D01*
X147799000Y-133200000D02*
X148249000Y-133650000D01*
X147799000Y-132844604D02*
X147799000Y-133200000D01*
D45*
X136379000Y-128330000D02*
X136399000Y-128350000D01*
X135789000Y-128330000D02*
X136379000Y-128330000D01*
X136429000Y-128320000D02*
X136429000Y-126580000D01*
X136399000Y-128350000D02*
X136429000Y-128320000D01*
X141574599Y-154164401D02*
X140719000Y-155020000D01*
X142063401Y-154164401D02*
X141574599Y-154164401D01*
X143959000Y-155020000D02*
X143959000Y-154490000D01*
X143959000Y-154490000D02*
X142519000Y-154490000D01*
X140719000Y-155020000D02*
X141808998Y-155020000D01*
X141949000Y-154050000D02*
X141949000Y-154879998D01*
X141949000Y-154879998D02*
X141808998Y-155020000D01*
X142879000Y-155020000D02*
X141808998Y-155020000D01*
D43*
X158899000Y-138630000D02*
X158899000Y-139320000D01*
X148387400Y-136341600D02*
X147609000Y-137120000D01*
X147609000Y-137120000D02*
X146949000Y-137120000D01*
X149317400Y-136681600D02*
X149309000Y-136690000D01*
X149317400Y-136341600D02*
X149317400Y-136681600D01*
X150645400Y-136341600D02*
X149317400Y-136341600D01*
X149317400Y-136341600D02*
X148387400Y-136341600D01*
X154658600Y-139740400D02*
X154379000Y-140020000D01*
X154658600Y-137103600D02*
X154658600Y-139740400D01*
X151849000Y-140350000D02*
X152769000Y-140350000D01*
X151849000Y-141250000D02*
X151849000Y-140350000D01*
X153699000Y-139510000D02*
X153969000Y-139780000D01*
X153699000Y-139420000D02*
X153699000Y-139510000D01*
X152769000Y-140350000D02*
X153699000Y-139420000D01*
X154209000Y-140020000D02*
X153969000Y-139780000D01*
X154379000Y-140020000D02*
X154209000Y-140020000D01*
X153899000Y-141000000D02*
X153899000Y-140500000D01*
X153899000Y-140500000D02*
X154379000Y-140020000D01*
X153699000Y-139420000D02*
X154252200Y-138866800D01*
X154252200Y-138866800D02*
X154252200Y-137103600D01*
X159239000Y-138300000D02*
X159329000Y-138210000D01*
X158569000Y-138300000D02*
X159239000Y-138300000D01*
X158569000Y-138300000D02*
X158899000Y-138630000D01*
X158519000Y-136080000D02*
X158989000Y-136080000D01*
X158989000Y-136080000D02*
X160439000Y-136080000D01*
X160682591Y-132683591D02*
X159382591Y-132683591D01*
X155999000Y-125550000D02*
X155084000Y-126465000D01*
X159382591Y-132956409D02*
X159289000Y-133050000D01*
X159382591Y-132683591D02*
X159382591Y-132956409D01*
X149532999Y-132684000D02*
X148962925Y-132113926D01*
X147912772Y-132113926D02*
X147799000Y-132227698D01*
X147799000Y-132227698D02*
X147799000Y-132844604D01*
X148962925Y-132113926D02*
X147912772Y-132113926D01*
D46*
X149417094Y-93681906D02*
X152579116Y-93681906D01*
X149349116Y-93749884D02*
X149417094Y-93681906D01*
X149349116Y-94601906D02*
X149349116Y-93749884D01*
D43*
X155014000Y-126465000D02*
X154749000Y-126200000D01*
X155084000Y-126465000D02*
X155014000Y-126465000D01*
X158989000Y-136080000D02*
X158989000Y-136500000D01*
X154249000Y-127300000D02*
X154249000Y-130420000D01*
X155084000Y-126465000D02*
X154249000Y-127300000D01*
X159382591Y-132683591D02*
X157449000Y-132683591D01*
X156322299Y-137131119D02*
X156322299Y-137733521D01*
X156378179Y-137789401D02*
X156583152Y-137789401D01*
X156322299Y-137733521D02*
X156378179Y-137789401D01*
X156583152Y-137789401D02*
X157093751Y-138300000D01*
X157093751Y-138300000D02*
X158569000Y-138300000D01*
%TO.N,Net-(C11-Pad1)*%
X158799000Y-121250000D02*
X157299000Y-121250000D01*
X157299000Y-121250000D02*
X157199000Y-121150000D01*
X155649000Y-124850000D02*
X157199000Y-123300000D01*
X154961500Y-124850000D02*
X155649000Y-124850000D01*
X157149000Y-117650000D02*
X157999000Y-117650000D01*
X157999000Y-117650000D02*
X158199000Y-117850000D01*
X158199000Y-122300000D02*
X157199000Y-123300000D01*
X158199000Y-117850000D02*
X158199000Y-122300000D01*
%TO.N,Net-(J5-PadB5)*%
X152289000Y-152380000D02*
X152289000Y-153685000D01*
X150559000Y-151470000D02*
X151379000Y-151470000D01*
X151379000Y-151470000D02*
X152289000Y-152380000D01*
X150559000Y-150620000D02*
X150559000Y-151470000D01*
%TO.N,Net-(J5-PadA5)*%
X156499000Y-151670000D02*
X155289000Y-152880000D01*
X157519000Y-151600000D02*
X157449000Y-151670000D01*
X155289000Y-152880000D02*
X155289000Y-153400000D01*
X157449000Y-151670000D02*
X156499000Y-151670000D01*
X157519000Y-150632500D02*
X157519000Y-151600000D01*
%TO.N,AGnd*%
X167178999Y-142890001D02*
X167179000Y-142890000D01*
X167178999Y-143962100D02*
X167178999Y-142890001D01*
X167679000Y-143962100D02*
X167679000Y-142990000D01*
X167279000Y-142990000D02*
X167179000Y-142890000D01*
X167679000Y-142990000D02*
X167279000Y-142990000D01*
X178600000Y-54300000D02*
X178526094Y-54373906D01*
D46*
X176661022Y-54300000D02*
X176639116Y-54321906D01*
X178600000Y-54300000D02*
X176661022Y-54300000D01*
X129500000Y-46900000D02*
X129500000Y-49052790D01*
X129500000Y-49052790D02*
X129539116Y-49091906D01*
D43*
X162503310Y-104695690D02*
X162499000Y-104700000D01*
X163799000Y-102700000D02*
X163599000Y-102700000D01*
X163599000Y-102700000D02*
X163399000Y-102700000D01*
X165249000Y-144350000D02*
X165249000Y-142950000D01*
X167119000Y-142950000D02*
X167179000Y-142890000D01*
D45*
X165499000Y-142950000D02*
X167119000Y-142950000D01*
D43*
X165099000Y-142950000D02*
X165499000Y-142950000D01*
X165599000Y-141350000D02*
X164549000Y-141350000D01*
D45*
X164499000Y-142150000D02*
X165249000Y-142900000D01*
X164499000Y-141600000D02*
X164499000Y-142150000D01*
D43*
X160949000Y-141250000D02*
X160899000Y-141250000D01*
D42*
X164209000Y-142440000D02*
X164499000Y-142150000D01*
X161339000Y-142440000D02*
X164209000Y-142440000D01*
X160999000Y-142100000D02*
X161339000Y-142440000D01*
X160999000Y-141480000D02*
X160999000Y-142100000D01*
X175999000Y-100712500D02*
X175999000Y-101600000D01*
X173799000Y-101600000D02*
X173799000Y-100700000D01*
X174899000Y-102800000D02*
X174849000Y-102750000D01*
X174899000Y-104750000D02*
X174899000Y-102800000D01*
X174899000Y-104750000D02*
X173799000Y-104750000D01*
X174849000Y-102750000D02*
X173749000Y-102750000D01*
X176049000Y-102750000D02*
X174849000Y-102750000D01*
X176086500Y-104750000D02*
X174899000Y-104750000D01*
X175999000Y-101600000D02*
X174899000Y-101600000D01*
X174899000Y-102700000D02*
X174849000Y-102750000D01*
X174899000Y-101600000D02*
X174899000Y-102700000D01*
X174899000Y-101600000D02*
X173799000Y-101600000D01*
X163549000Y-102750000D02*
X163549000Y-104650000D01*
X164599000Y-101600000D02*
X164149000Y-101600000D01*
X164599000Y-100732500D02*
X164599000Y-101550000D01*
X162599000Y-101550000D02*
X162599000Y-100750000D01*
X162649000Y-101600000D02*
X162599000Y-101550000D01*
X164149000Y-101600000D02*
X162649000Y-101600000D01*
X163549000Y-101600000D02*
X163549000Y-102700000D01*
X164649000Y-104700000D02*
X162449000Y-104700000D01*
X164686500Y-102700000D02*
X162399000Y-102700000D01*
X166599000Y-113700000D02*
X166599000Y-112650000D01*
X171799000Y-113700000D02*
X171799000Y-112650000D01*
D43*
X167929000Y-144940000D02*
X166989000Y-144940000D01*
X166989000Y-144940000D02*
X166949000Y-144900000D01*
X166949000Y-144900000D02*
X166949000Y-144400000D01*
X166949000Y-144400000D02*
X167199000Y-144150000D01*
%TO.N,VAref*%
X168679000Y-142690000D02*
X168679000Y-143740000D01*
X168179000Y-143165000D02*
X168179000Y-143740000D01*
X168679000Y-142690000D02*
X168654000Y-142690000D01*
X168431500Y-142912500D02*
X168179000Y-143165000D01*
X168649000Y-142700000D02*
X168699000Y-142650000D01*
X157049000Y-137400000D02*
X156768130Y-137400000D01*
D45*
X168449000Y-142200000D02*
X168449000Y-143100000D01*
D43*
X167499000Y-141350000D02*
X168349000Y-141350000D01*
D42*
X168499000Y-140200000D02*
X165699000Y-137400000D01*
X165699000Y-137400000D02*
X160789000Y-137400000D01*
X168499000Y-142150000D02*
X168499000Y-140200000D01*
X168449000Y-142200000D02*
X168499000Y-142150000D01*
X165699000Y-137400000D02*
X165699000Y-136000000D01*
X165699000Y-128000000D02*
X165699000Y-126500000D01*
X165699000Y-126500000D02*
X162949000Y-123750000D01*
X162949000Y-123750000D02*
X162949000Y-118750000D01*
X164049000Y-117650000D02*
X164049000Y-117600000D01*
X162949000Y-118750000D02*
X164049000Y-117650000D01*
X160928302Y-137449302D02*
X158539334Y-137449302D01*
X160959000Y-137480000D02*
X160928302Y-137449302D01*
X160959000Y-139370000D02*
X160959000Y-137480000D01*
X158539334Y-137449302D02*
X158490032Y-137400000D01*
X158490032Y-137400000D02*
X156989000Y-137400000D01*
D45*
%TO.N,VRaw*%
X128419000Y-128130000D02*
X128419000Y-127140000D01*
X128399000Y-128150000D02*
X128419000Y-128130000D01*
X131259000Y-128100000D02*
X131209000Y-128150000D01*
X131259000Y-127120000D02*
X131259000Y-128100000D01*
D43*
X141931500Y-150382500D02*
X141849000Y-150300000D01*
D42*
X141931500Y-151750000D02*
X141931500Y-150382500D01*
D45*
X146999000Y-150400000D02*
X142249000Y-150400000D01*
X147049000Y-149900000D02*
X146999000Y-149950000D01*
X133849000Y-159250000D02*
X133849000Y-153750000D01*
X145299000Y-160250000D02*
X134849000Y-160250000D01*
X147049000Y-158500000D02*
X145299000Y-160250000D01*
X134849000Y-160250000D02*
X133849000Y-159250000D01*
X147649000Y-147950000D02*
X147049000Y-148550000D01*
X148449000Y-147950000D02*
X147649000Y-147950000D01*
X148449000Y-149012500D02*
X148449000Y-147950000D01*
X142249000Y-150400000D02*
X142249000Y-150300000D01*
X142249000Y-150300000D02*
X141649000Y-149700000D01*
X141649000Y-149700000D02*
X141199000Y-149700000D01*
X133849000Y-153750000D02*
X132875599Y-152776599D01*
X129949000Y-128150000D02*
X128399000Y-128150000D01*
X131209000Y-128150000D02*
X129949000Y-128150000D01*
X129875599Y-128223401D02*
X129949000Y-128150000D01*
X129875599Y-149726599D02*
X129875599Y-128223401D01*
X133049000Y-152900000D02*
X129875599Y-149726599D01*
X145989000Y-152490000D02*
X147059000Y-152490000D01*
D43*
X147049000Y-152690000D02*
X144909000Y-152690000D01*
D45*
X147049000Y-148550000D02*
X147049000Y-152690000D01*
X147049000Y-152690000D02*
X147049000Y-158500000D01*
D43*
X147009000Y-152310000D02*
X147019000Y-152320000D01*
X144906500Y-152310000D02*
X147009000Y-152310000D01*
D42*
%TO.N,VInt*%
X154099000Y-136050000D02*
X153949000Y-136200000D01*
X155599000Y-136050000D02*
X154099000Y-136050000D01*
X155749000Y-136200000D02*
X155599000Y-136050000D01*
D43*
X156699000Y-127600000D02*
X155949000Y-127600000D01*
X155949000Y-127600000D02*
X155399000Y-128150000D01*
X155399000Y-128150000D02*
X154655411Y-128893589D01*
X149799000Y-140400000D02*
X149799000Y-141200000D01*
X153845800Y-138633200D02*
X152569000Y-139910000D01*
X153845800Y-137103600D02*
X153845800Y-138633200D01*
X152569000Y-139910000D02*
X151399000Y-139910000D01*
X151399000Y-139910000D02*
X151399000Y-140320000D01*
X151399000Y-140320000D02*
X151394000Y-140325000D01*
X149874000Y-140325000D02*
X149799000Y-140400000D01*
X151394000Y-140325000D02*
X150644000Y-140325000D01*
X150644000Y-140325000D02*
X149874000Y-140325000D01*
X155399000Y-128150000D02*
X155399000Y-128120000D01*
X154655411Y-131166411D02*
X154819000Y-131330000D01*
X154655411Y-129603589D02*
X154655411Y-131166411D01*
X154655411Y-128893589D02*
X154655411Y-129603589D01*
X154655411Y-129603589D02*
X154655411Y-130243589D01*
D42*
X156259000Y-131820000D02*
X155769000Y-131330000D01*
X155769000Y-131330000D02*
X154819000Y-131330000D01*
X156259000Y-135550000D02*
X156259000Y-131820000D01*
X155749000Y-136060000D02*
X156259000Y-135550000D01*
X155749000Y-136200000D02*
X155749000Y-136060000D01*
D43*
X154049000Y-136200000D02*
X153839000Y-136410000D01*
X153839000Y-136928591D02*
X153845710Y-136935301D01*
X153839000Y-136410000D02*
X153839000Y-136928591D01*
X153845710Y-136935301D02*
X153845710Y-137110000D01*
X155889000Y-136330000D02*
X155889000Y-136990000D01*
X155749000Y-136200000D02*
X155879000Y-136330000D01*
X155915888Y-137696888D02*
X155915888Y-137901861D01*
X156209839Y-138195812D02*
X156414812Y-138195812D01*
X155915888Y-137901861D02*
X156209839Y-138195812D01*
X156819000Y-138600000D02*
X156819000Y-139320000D01*
X155905310Y-137686310D02*
X155915888Y-137696888D01*
X156414812Y-138195812D02*
X156819000Y-138600000D01*
X155905310Y-137270000D02*
X155905310Y-137686310D01*
D42*
%TO.N,Net-(D3-Pad2)*%
X156439000Y-153685000D02*
X156439000Y-152700000D01*
X151649000Y-152895678D02*
X151649000Y-153250000D01*
X150993322Y-152240000D02*
X151649000Y-152895678D01*
D45*
X149109000Y-152240000D02*
X150993322Y-152240000D01*
X148449000Y-152900000D02*
X149109000Y-152240000D01*
X148449000Y-153100000D02*
X148449000Y-152900000D01*
X148464000Y-155315000D02*
X148464000Y-150750000D01*
X148499000Y-155350000D02*
X148464000Y-155315000D01*
X148499000Y-155650000D02*
X148499000Y-155350000D01*
X148999000Y-156150000D02*
X148499000Y-155650000D01*
X159619000Y-155530000D02*
X158999000Y-156150000D01*
X158999000Y-156150000D02*
X148999000Y-156150000D01*
X159619000Y-152970000D02*
X159619000Y-155530000D01*
X156439000Y-152700000D02*
X156679000Y-152460000D01*
X159109000Y-152460000D02*
X159619000Y-152970000D01*
X156679000Y-152460000D02*
X159109000Y-152460000D01*
D43*
%TO.N,Net-(J5-PadA7)*%
X155049000Y-150632500D02*
X155049000Y-151400000D01*
X155049000Y-151400000D02*
X154749000Y-151700000D01*
X154724000Y-151725000D02*
X154749000Y-151750000D01*
X153749000Y-153645000D02*
X153749000Y-152700000D01*
X153789000Y-153685000D02*
X153749000Y-153645000D01*
X153849000Y-152600000D02*
X154724000Y-151725000D01*
X153749000Y-152700000D02*
X153849000Y-152600000D01*
X154149000Y-152300000D02*
X153849000Y-152600000D01*
X154749000Y-152900000D02*
X154149000Y-152300000D01*
X154749000Y-153200000D02*
X154749000Y-152900000D01*
%TO.N,Net-(J5-PadA6)*%
X153476258Y-154600000D02*
X153299000Y-154422742D01*
X154149000Y-154600000D02*
X153476258Y-154600000D01*
X153299000Y-154422742D02*
X153299000Y-154200000D01*
X154289000Y-154460000D02*
X154149000Y-154600000D01*
X154289000Y-153685000D02*
X154289000Y-154460000D01*
X153299000Y-152575391D02*
X153299000Y-153250000D01*
X153599000Y-152275391D02*
X153299000Y-152575391D01*
X153599000Y-152050000D02*
X153599000Y-152275391D01*
X153049000Y-151500000D02*
X153599000Y-152050000D01*
X153299000Y-153250000D02*
X153299000Y-153200000D01*
X153049000Y-150632500D02*
X153049000Y-151500000D01*
%TO.N,pi_reset*%
X155877800Y-129704758D02*
X156034532Y-129548026D01*
X155877800Y-130296400D02*
X155877800Y-129704758D01*
X163747026Y-129548026D02*
X170149000Y-135950000D01*
X175099000Y-134681366D02*
X175099000Y-125850000D01*
X170149000Y-135950000D02*
X173830366Y-135950000D01*
X156034532Y-129548026D02*
X163747026Y-129548026D01*
X173830366Y-135950000D02*
X175099000Y-134681366D01*
X175099000Y-125850000D02*
X173649000Y-124400000D01*
%TO.N,pi_swclk*%
X172299000Y-130750000D02*
X173549000Y-132000000D01*
X164134404Y-128735404D02*
X166149000Y-130750000D01*
X155065000Y-129368338D02*
X155697934Y-128735404D01*
X166149000Y-130750000D02*
X172299000Y-130750000D01*
X155697934Y-128735404D02*
X164134404Y-128735404D01*
X155065000Y-130296400D02*
X155065000Y-129368338D01*
%TO.N,pi_swdio*%
X163966105Y-129141715D02*
X155866233Y-129141715D01*
X173579000Y-134530000D02*
X172299000Y-133250000D01*
X172299000Y-133250000D02*
X168074390Y-133250000D01*
X168074390Y-133250000D02*
X163966105Y-129141715D01*
X155866233Y-129141715D02*
X155471400Y-129536548D01*
X155471400Y-129536548D02*
X155471400Y-130296400D01*
%TO.N,Net-(JP1-Pad2)*%
X167461500Y-154850000D02*
X168579000Y-154850000D01*
X168579000Y-154850000D02*
X168679000Y-154950000D01*
X168679000Y-154950000D02*
X168679000Y-157370000D01*
X168679000Y-157370000D02*
X168009000Y-158040000D01*
D42*
%TO.N,ring1*%
X160299000Y-113300000D02*
X160499000Y-113500000D01*
X160549000Y-113600000D02*
X161799000Y-113600000D01*
X160299000Y-111250000D02*
X160299000Y-113300000D01*
X161849000Y-112932549D02*
X161849000Y-113600000D01*
X162598999Y-112182550D02*
X161849000Y-112932549D01*
D43*
X157483620Y-131020000D02*
X158270711Y-130232909D01*
X157479000Y-131020000D02*
X157483620Y-131020000D01*
D42*
%TO.N,/PWM_R1*%
X162599000Y-108300000D02*
X162599000Y-109500000D01*
D43*
X163299000Y-107600000D02*
X162599000Y-108300000D01*
X163299000Y-106700000D02*
X163299000Y-107600000D01*
X162411500Y-106700000D02*
X163299000Y-106700000D01*
D42*
X160299000Y-109950000D02*
X160299000Y-108500000D01*
X160299000Y-108500000D02*
X160499000Y-108300000D01*
X160499000Y-108300000D02*
X162449000Y-108300000D01*
%TO.N,tip1*%
X164499000Y-113550000D02*
X164499000Y-112250000D01*
X166699000Y-111250000D02*
X165349000Y-112600000D01*
X165349000Y-112600000D02*
X165349000Y-113300000D01*
X164749000Y-113300000D02*
X164499000Y-113550000D01*
X165349000Y-113300000D02*
X164749000Y-113300000D01*
D43*
X159169228Y-130255250D02*
X159169228Y-130184053D01*
X157969920Y-131454558D02*
X159169228Y-130255250D01*
X157429000Y-131454558D02*
X157969920Y-131454558D01*
D42*
%TO.N,/PWM_L1*%
X164499000Y-108200000D02*
X164499000Y-109000000D01*
D43*
X163799000Y-106700000D02*
X163799000Y-107500000D01*
X164399000Y-109100000D02*
X164399000Y-109200000D01*
X164499000Y-109000000D02*
X164399000Y-109100000D01*
X163799000Y-107500000D02*
X164499000Y-108200000D01*
X164686500Y-106700000D02*
X163799000Y-106700000D01*
D42*
X166699000Y-109950000D02*
X166699000Y-108900000D01*
X165999000Y-108200000D02*
X164499000Y-108200000D01*
X166699000Y-108900000D02*
X165999000Y-108200000D01*
D43*
%TO.N,ring2*%
X171799000Y-111250000D02*
X171799000Y-111200000D01*
X173949000Y-112950000D02*
X173499000Y-112950000D01*
D42*
X173948999Y-112152550D02*
X173949000Y-112950000D01*
X173199000Y-112650000D02*
X171799000Y-111250000D01*
D43*
X173499000Y-112950000D02*
X173199000Y-112650000D01*
D42*
X173949000Y-113600000D02*
X173949000Y-113100000D01*
D43*
X158974889Y-131150000D02*
X159249000Y-131150000D01*
X158264020Y-131860869D02*
X158974889Y-131150000D01*
X157549000Y-131860869D02*
X158264020Y-131860869D01*
D42*
%TO.N,tip2*%
X175849001Y-112750001D02*
X176049000Y-112950000D01*
X175849001Y-112152550D02*
X175849001Y-112750001D01*
X178099000Y-111875000D02*
X178099000Y-111350000D01*
X176749000Y-113600000D02*
X176749000Y-113225000D01*
X176774000Y-113000000D02*
X176099000Y-113000000D01*
X176749000Y-113225000D02*
X177061500Y-112912500D01*
X177061500Y-112912500D02*
X178099000Y-111875000D01*
D43*
X158979000Y-132270000D02*
X159249000Y-132000000D01*
X157449000Y-132270000D02*
X158979000Y-132270000D01*
%TO.N,Net-(L1-Pad2)*%
X141099000Y-152300000D02*
X141499000Y-152300000D01*
X139999000Y-151200000D02*
X141099000Y-152300000D01*
X139372560Y-150700000D02*
X139999000Y-150700000D01*
X139368250Y-150704310D02*
X139372560Y-150700000D01*
X138999000Y-151437500D02*
X138999000Y-150704310D01*
X139999000Y-150700000D02*
X139999000Y-151200000D01*
X138999000Y-150704310D02*
X139368250Y-150704310D01*
X141919000Y-152300000D02*
X141922690Y-152303690D01*
X141499000Y-152300000D02*
X141919000Y-152300000D01*
%TO.N,Net-(L1-Pad1)*%
X141232690Y-153116310D02*
X141499000Y-153116310D01*
X139949000Y-154400000D02*
X141232690Y-153116310D01*
X138999000Y-154400000D02*
X139949000Y-154400000D01*
X138999000Y-153562500D02*
X138999000Y-154400000D01*
X141499000Y-153116310D02*
X141939000Y-153116310D01*
%TO.N,led1*%
X150645400Y-131871200D02*
X149885549Y-131871200D01*
X145700205Y-131301205D02*
X144799000Y-130400000D01*
X149885549Y-131871200D02*
X149315554Y-131301205D01*
X149315554Y-131301205D02*
X145700205Y-131301205D01*
X125989000Y-69660780D02*
X125989000Y-46817500D01*
X125989000Y-76089220D02*
X125936378Y-76036598D01*
X125849000Y-83450000D02*
X125989000Y-83310000D01*
X124949000Y-83450000D02*
X125849000Y-83450000D01*
X140799000Y-110350000D02*
X121849000Y-91400000D01*
X139649000Y-129179140D02*
X140799000Y-128029140D01*
X125936378Y-69713402D02*
X125989000Y-69660780D01*
X121849000Y-85550000D02*
X122699000Y-84700000D01*
X121849000Y-91400000D02*
X121849000Y-85550000D01*
X122699000Y-84700000D02*
X123699000Y-84700000D01*
X125989000Y-83310000D02*
X125989000Y-76089220D01*
X125936378Y-76036598D02*
X125936378Y-69713402D01*
X123699000Y-84700000D02*
X124949000Y-83450000D01*
X140799000Y-128029140D02*
X140799000Y-110350000D01*
X139649000Y-130400000D02*
X139649000Y-129179140D01*
%TO.N,led2*%
X182149000Y-47007848D02*
X182362029Y-46794819D01*
X167236093Y-134186313D02*
X158950701Y-134186311D01*
X169812402Y-136762622D02*
X167236093Y-134186313D01*
X174187158Y-136762622D02*
X169812402Y-136762622D01*
X183849000Y-91550000D02*
X183849000Y-92850000D01*
X183599000Y-91300000D02*
X183849000Y-91550000D01*
X183599000Y-90500000D02*
X183599000Y-91300000D01*
X158950701Y-134186311D02*
X158264390Y-133500000D01*
X183899000Y-84500000D02*
X183899000Y-85550000D01*
X183699000Y-90400000D02*
X183599000Y-90500000D01*
X182139000Y-46837500D02*
X182139000Y-82740000D01*
X181493413Y-129456367D02*
X174187158Y-136762622D01*
X183699000Y-85750000D02*
X183699000Y-90400000D01*
X158264390Y-133500000D02*
X157509000Y-133500000D01*
X183899000Y-85550000D02*
X183699000Y-85750000D01*
X181493413Y-95205587D02*
X181493413Y-129456367D01*
X183849000Y-92850000D02*
X181493413Y-95205587D01*
X182139000Y-82740000D02*
X183899000Y-84500000D01*
%TO.N,led3*%
X145156515Y-131707515D02*
X144799000Y-131350000D01*
X149141565Y-131707515D02*
X145156515Y-131707515D01*
X149711650Y-132277600D02*
X149141565Y-131707515D01*
X150645400Y-132277600D02*
X149711650Y-132277600D01*
X142055311Y-128496659D02*
X141717933Y-128834037D01*
X127349001Y-91315391D02*
X142055311Y-106021701D01*
X127349000Y-69450000D02*
X127349001Y-91315391D01*
X141717933Y-131131067D02*
X141499000Y-131350000D01*
X142055311Y-106021701D02*
X142055311Y-128496659D01*
X139979000Y-61720000D02*
X135079000Y-61720000D01*
X141717933Y-128834037D02*
X141717933Y-131131067D01*
X153261500Y-50500000D02*
X151199000Y-50500000D01*
X135079000Y-61720000D02*
X127349000Y-69450000D01*
X151199000Y-50500000D02*
X139979000Y-61720000D01*
%TO.N,led4*%
X150645400Y-133496800D02*
X149895800Y-133496800D01*
X149895800Y-133496800D02*
X149489411Y-133090411D01*
X149364660Y-133090411D02*
X149010477Y-132736228D01*
X149489411Y-133090411D02*
X149364660Y-133090411D01*
X149010477Y-132736228D02*
X148674519Y-132736228D01*
X135299000Y-153050000D02*
X135299000Y-138600000D01*
X135299000Y-138600000D02*
X140499000Y-133400000D01*
X136949000Y-157100000D02*
X136949000Y-154700000D01*
X136949000Y-154700000D02*
X135299000Y-153050000D01*
%TO.N,po_play*%
X132499000Y-67550000D02*
X158749000Y-67550000D01*
X129049000Y-71000000D02*
X132499000Y-67550000D01*
X129049000Y-90600000D02*
X129049000Y-71000000D01*
X143367449Y-133368449D02*
X143367449Y-129482961D01*
X158749000Y-67550000D02*
X162499000Y-63800000D01*
X144308600Y-134309600D02*
X143367449Y-133368449D01*
X143680555Y-129169855D02*
X143680555Y-105231555D01*
X150645400Y-134309600D02*
X144308600Y-134309600D01*
X143680555Y-105231555D02*
X129049000Y-90600000D01*
X143367449Y-129482961D02*
X143680555Y-129169855D01*
X161813213Y-61230000D02*
X160399000Y-61230000D01*
X162499000Y-63800000D02*
X162499000Y-61915787D01*
X162499000Y-61915787D02*
X161813213Y-61230000D01*
%TO.N,po_swo*%
X157859000Y-63770000D02*
X155383105Y-66245895D01*
X155383105Y-66245895D02*
X154679000Y-66950000D01*
X154679000Y-66950000D02*
X132206417Y-66950000D01*
X128592690Y-70563727D02*
X128592690Y-90718300D01*
X128592690Y-90718300D02*
X142399000Y-104524610D01*
X132206417Y-66950000D02*
X128592690Y-70563727D01*
X143144220Y-134716000D02*
X142961138Y-134532918D01*
X143274244Y-105425244D02*
X139749000Y-101900000D01*
X150645400Y-134716000D02*
X143144220Y-134716000D01*
X142961138Y-129314662D02*
X143274244Y-129001556D01*
X142961138Y-134532918D02*
X142961138Y-129314662D01*
X143274244Y-129001556D02*
X143274244Y-105425244D01*
%TO.N,po_swdio*%
X128186380Y-70112620D02*
X128186380Y-91003550D01*
X142554827Y-134701217D02*
X142976010Y-135122400D01*
X142976010Y-135122400D02*
X149985000Y-135122400D01*
X142867933Y-128833257D02*
X142554827Y-129146363D01*
X131755311Y-66543689D02*
X128186380Y-70112620D01*
X128186380Y-91003550D02*
X142867933Y-105685103D01*
X155319000Y-63770000D02*
X155319000Y-65280000D01*
X155319000Y-65280000D02*
X154055311Y-66543689D01*
X142554827Y-129146363D02*
X142554827Y-134701217D01*
X142867933Y-105685103D02*
X142867933Y-128833257D01*
X154055311Y-66543689D02*
X131755311Y-66543689D01*
X149985000Y-135122400D02*
X150645400Y-135122400D01*
%TO.N,po_wake*%
X155187094Y-58821906D02*
X168229116Y-58821906D01*
X152779000Y-61230000D02*
X155187094Y-58821906D01*
X180871210Y-71464000D02*
X180871210Y-115070503D01*
X168229116Y-58821906D02*
X180871210Y-71464000D01*
X182549000Y-129550000D02*
X182549000Y-116200000D01*
X174499000Y-137600000D02*
X182549000Y-129550000D01*
X157452600Y-134716000D02*
X158331170Y-134716000D01*
X158614103Y-134998933D02*
X166899493Y-134998933D01*
X169500560Y-137600000D02*
X174499000Y-137600000D01*
X166899493Y-134998933D02*
X169500560Y-137600000D01*
X158331170Y-134716000D02*
X158614103Y-134998933D01*
%TO.N,po_swclk*%
X152779000Y-63770000D02*
X152779000Y-65781595D01*
X152779000Y-65781595D02*
X152639116Y-65921479D01*
X150645400Y-135528800D02*
X142799000Y-135528800D01*
X142461622Y-128664958D02*
X142461622Y-105853402D01*
X142461622Y-105853402D02*
X127755311Y-91147091D01*
X127755311Y-91147091D02*
X127755311Y-69868299D01*
X142148516Y-134879516D02*
X142148516Y-128978064D01*
X127755311Y-69868299D02*
X131495820Y-66127790D01*
X131495820Y-66127790D02*
X152432805Y-66127790D01*
X142799000Y-135530000D02*
X142148516Y-134879516D01*
X152432805Y-66127790D02*
X152639116Y-65921479D01*
X142148516Y-128978064D02*
X142461622Y-128664958D01*
%TO.N,po_reset*%
X150199116Y-63731906D02*
X150199116Y-65461906D01*
X150199116Y-65461906D02*
X150219116Y-65481906D01*
X146160906Y-65481906D02*
X150219116Y-65481906D01*
X145369116Y-64690116D02*
X146160906Y-65481906D01*
X145369116Y-63361906D02*
X145369116Y-64690116D01*
X173668510Y-65150000D02*
X162699000Y-65150000D01*
X180249000Y-71730490D02*
X173668510Y-65150000D01*
X180249000Y-124700000D02*
X180249000Y-71730490D01*
X174018859Y-136356311D02*
X180249000Y-130126170D01*
X158429000Y-133090000D02*
X159119000Y-133780000D01*
X169980701Y-136356311D02*
X174018859Y-136356311D01*
X180249000Y-130126170D02*
X180249000Y-123950000D01*
X159119000Y-133780000D02*
X167404390Y-133780000D01*
X167404390Y-133780000D02*
X169980701Y-136356311D01*
X157459000Y-133090000D02*
X158429000Y-133090000D01*
%TO.N,Net-(R15-Pad1)*%
X142149000Y-138300000D02*
X142399000Y-138300000D01*
X141094000Y-139355000D02*
X142149000Y-138300000D01*
X141094000Y-140400000D02*
X141094000Y-139355000D01*
X141049000Y-138300000D02*
X142399000Y-138300000D01*
X140199000Y-139150000D02*
X141049000Y-138300000D01*
X140199000Y-140350000D02*
X140199000Y-139150000D01*
X139261500Y-140350000D02*
X140199000Y-140350000D01*
X138389000Y-138300000D02*
X138339000Y-138350000D01*
X141049000Y-138300000D02*
X138389000Y-138300000D01*
X164349000Y-154850000D02*
X165609000Y-154850000D01*
X165609000Y-154850000D02*
X165629000Y-154830000D01*
X148399000Y-137400000D02*
X151329000Y-137400000D01*
X142399000Y-138300000D02*
X147499000Y-138300000D01*
X147499000Y-138300000D02*
X148399000Y-137400000D01*
%TO.N,/PWM_R2*%
X174599000Y-107550000D02*
X173949000Y-108200000D01*
X174599000Y-106700000D02*
X174599000Y-107550000D01*
X173949000Y-109400000D02*
X173999000Y-109450000D01*
X173711500Y-106700000D02*
X174599000Y-106700000D01*
D42*
X173949000Y-108200000D02*
X173949000Y-109400000D01*
D43*
%TO.N,/PWM_L2*%
X175849000Y-109450000D02*
X175799000Y-109500000D01*
X175199000Y-107500000D02*
X175849000Y-108150000D01*
X175199000Y-106750000D02*
X175199000Y-107500000D01*
X176086500Y-106750000D02*
X175199000Y-106750000D01*
D42*
X175849000Y-108150000D02*
X175849000Y-109450000D01*
D43*
%TO.N,sw1*%
X150015559Y-131426601D02*
X150438993Y-131426601D01*
X149426338Y-130837380D02*
X150015559Y-131426601D01*
X146186380Y-130837380D02*
X149426338Y-130837380D01*
X144799000Y-129450000D02*
X146186380Y-130837380D01*
X141205311Y-109656311D02*
X122968391Y-91419391D01*
X141205311Y-128197439D02*
X141205311Y-109656311D01*
X140299000Y-129103750D02*
X141205311Y-128197439D01*
X122968391Y-91419391D02*
X122968391Y-90980609D01*
X140299000Y-129450000D02*
X140299000Y-129103750D01*
%TO.N,sw2*%
X181899724Y-129624666D02*
X181899724Y-95449276D01*
X181899724Y-95449276D02*
X184929000Y-92420000D01*
X169644103Y-137168933D02*
X174355457Y-137168933D01*
X167067793Y-134592623D02*
X169644103Y-137168933D01*
X184929000Y-92420000D02*
X184929000Y-90858094D01*
X158782402Y-134592622D02*
X167067793Y-134592623D01*
X158112401Y-133922621D02*
X158782402Y-134592622D01*
X174355457Y-137168933D02*
X181899724Y-129624666D01*
X157472021Y-133922621D02*
X158112401Y-133922621D01*
%TO.N,sw3*%
X139809000Y-61310000D02*
X155229000Y-45890000D01*
X134914390Y-61310000D02*
X139809000Y-61310000D01*
X126942690Y-69281700D02*
X134914390Y-61310000D01*
X126942689Y-91483689D02*
X126942690Y-69281700D01*
X141649000Y-128328360D02*
X141649000Y-106190000D01*
X155229000Y-45890000D02*
X156109000Y-45890000D01*
X141535310Y-132865450D02*
X140849000Y-132179140D01*
X141311622Y-128665738D02*
X141649000Y-128328360D01*
X150645400Y-135935200D02*
X142968410Y-135935200D01*
X141649000Y-106190000D02*
X126942689Y-91483689D01*
X142968410Y-135935200D02*
X142967300Y-135936310D01*
X140849000Y-129970860D02*
X141311622Y-129508238D01*
X140849000Y-132179140D02*
X140849000Y-129970860D01*
X141535310Y-135936310D02*
X141535310Y-132865450D01*
X142967300Y-135936310D02*
X141535310Y-135936310D01*
X141311622Y-129508238D02*
X141311622Y-128665738D01*
%TO.N,sw4*%
X150645400Y-133903200D02*
X149384237Y-133903200D01*
X149384237Y-133903200D02*
X149168427Y-133687390D01*
X142884000Y-157200000D02*
X142884000Y-156035000D01*
X136599000Y-151050000D02*
X135749000Y-150200000D01*
X135749000Y-150200000D02*
X135749000Y-139050000D01*
X136599000Y-153750000D02*
X136599000Y-151050000D01*
X142884000Y-156035000D02*
X142709000Y-155860000D01*
X138709000Y-155860000D02*
X136599000Y-153750000D01*
X142709000Y-155860000D02*
X138709000Y-155860000D01*
X135749000Y-139050000D02*
X140499000Y-134300000D01*
%TO.N,spi_clock*%
X151813800Y-130296400D02*
X151813800Y-129789410D01*
X151813800Y-129789410D02*
X144999000Y-122974610D01*
X144999000Y-122974610D02*
X144999000Y-102035390D01*
X144999000Y-102035390D02*
X146189978Y-100844412D01*
X149949198Y-100844412D02*
X154009000Y-96784610D01*
X146189978Y-100844412D02*
X149949198Y-100844412D01*
X154009000Y-96784610D02*
X154009000Y-96230000D01*
%TO.N,spi_cs*%
X146358277Y-101250723D02*
X150117497Y-101250723D01*
X152220200Y-130296400D02*
X152220200Y-129536548D01*
X154509000Y-96859220D02*
X154509000Y-96220000D01*
X145549000Y-122865348D02*
X145549000Y-102060000D01*
X145549000Y-102060000D02*
X146358277Y-101250723D01*
X152220200Y-129536548D02*
X145549000Y-122865348D01*
X150117497Y-101250723D02*
X154509000Y-96859220D01*
%TO.N,imu_int*%
X149389000Y-95500000D02*
X144089000Y-100800000D01*
X151499000Y-95500000D02*
X149389000Y-95500000D01*
X152459189Y-94539811D02*
X151499000Y-95500000D01*
X152817900Y-94539811D02*
X152459189Y-94539811D01*
X144086865Y-100812135D02*
X144089000Y-100810000D01*
X144086865Y-123287865D02*
X144086865Y-100812135D01*
X149999000Y-129200000D02*
X144086865Y-123287865D01*
X149999000Y-130750000D02*
X149999000Y-129200000D01*
X150269000Y-131020000D02*
X149990600Y-130741600D01*
%TO.N,spi_miso*%
X151407400Y-129978900D02*
X151407400Y-130296400D01*
X144499000Y-123070500D02*
X151407400Y-129978900D01*
X151426022Y-97460000D02*
X148003610Y-97460000D01*
X144499000Y-100964610D02*
X144499000Y-123070500D01*
X148003610Y-97460000D02*
X144499000Y-100964610D01*
X152844116Y-96041906D02*
X151426022Y-97460000D01*
%TO.N,Net-(U5-Pad55)*%
X151771489Y-137806311D02*
X148692689Y-137806311D01*
X142549000Y-138750000D02*
X142349000Y-138950000D01*
X151813800Y-137103600D02*
X151813800Y-137764000D01*
X151813800Y-137764000D02*
X151771489Y-137806311D01*
X142349000Y-138950000D02*
X142349000Y-140400000D01*
X147749000Y-138750000D02*
X142549000Y-138750000D01*
X148692689Y-137806311D02*
X147749000Y-138750000D01*
%TO.N,Net-(U5-Pad54)*%
X148980068Y-138212622D02*
X147992690Y-139200000D01*
X143599000Y-139200000D02*
X143599000Y-140350000D01*
X147992690Y-139200000D02*
X143599000Y-139200000D01*
X152220200Y-137103600D02*
X152220200Y-137932210D01*
X152220200Y-137932210D02*
X151939788Y-138212622D01*
X151939788Y-138212622D02*
X148980068Y-138212622D01*
%TO.N,Net-(U5-Pad53)*%
X152108087Y-138618933D02*
X149230067Y-138618933D01*
X152626600Y-138100420D02*
X152108087Y-138618933D01*
X152626600Y-137103600D02*
X152626600Y-138100420D01*
X149230067Y-138618933D02*
X144899000Y-142950000D01*
X144899000Y-142950000D02*
X144899000Y-147350000D01*
%TO.N,Net-(U5-Pad52)*%
X149461622Y-139037378D02*
X149449000Y-139050000D01*
X143861138Y-148762138D02*
X143599000Y-148500000D01*
X145149000Y-148762138D02*
X143861138Y-148762138D01*
X149461622Y-139037378D02*
X145483311Y-143015689D01*
X145483311Y-148427827D02*
X145149000Y-148762138D01*
X143599000Y-148500000D02*
X143599000Y-148050000D01*
X145483311Y-143015689D02*
X145483311Y-148427827D01*
X152270140Y-139031488D02*
X149467512Y-139031488D01*
X153032999Y-138268629D02*
X152270140Y-139031488D01*
X149467512Y-139031488D02*
X149461622Y-139037378D01*
X153033000Y-137103600D02*
X153032999Y-138268629D01*
%TO.N,Net-(U5-Pad51)*%
X149905311Y-139443689D02*
X149892690Y-139456310D01*
X145699000Y-149250000D02*
X142699000Y-149250000D01*
X145889622Y-149059378D02*
X145699000Y-149250000D01*
X145889622Y-143259378D02*
X145889622Y-149059378D01*
X149705311Y-139443689D02*
X145889622Y-143259378D01*
X142399000Y-148950000D02*
X142399000Y-147600000D01*
X142699000Y-149250000D02*
X142399000Y-148950000D01*
X149905311Y-139443689D02*
X149705311Y-139443689D01*
X153439400Y-138436838D02*
X152438440Y-139437798D01*
X149911202Y-139437798D02*
X149905311Y-139443689D01*
X153439400Y-137103600D02*
X153439400Y-138436838D01*
X152438440Y-139437798D02*
X149911202Y-139437798D01*
D46*
%TO.N,ring1_out*%
X131921906Y-55352906D02*
X131921906Y-54721906D01*
X131921906Y-54721906D02*
X131500000Y-54300000D01*
D42*
X162599000Y-97550000D02*
X162599000Y-98900000D01*
X160599000Y-98850000D02*
X160599000Y-98000000D01*
X161049000Y-97550000D02*
X162599000Y-97550000D01*
X160599000Y-98000000D02*
X161049000Y-97550000D01*
D46*
X133349000Y-54300000D02*
X133449000Y-54400000D01*
X131500000Y-54300000D02*
X133349000Y-54300000D01*
%TO.N,tip1_out*%
X138900000Y-46900000D02*
X138900000Y-52149000D01*
D42*
X166599000Y-97550000D02*
X166599000Y-98800000D01*
X164599000Y-98907500D02*
X164599000Y-98000000D01*
X165049000Y-97550000D02*
X166599000Y-97550000D01*
X164599000Y-98000000D02*
X165049000Y-97550000D01*
X138900000Y-53401000D02*
X138900000Y-52149000D01*
X141964310Y-56465310D02*
X138900000Y-53401000D01*
X141964310Y-57084690D02*
X141964310Y-56465310D01*
D46*
%TO.N,tip2_out*%
X177999000Y-98900000D02*
X177999000Y-97947690D01*
D42*
X175999000Y-98887500D02*
X175999000Y-98050000D01*
X176449000Y-97600000D02*
X177999000Y-97600000D01*
X175999000Y-98050000D02*
X176449000Y-97600000D01*
X178399000Y-109850000D02*
X178399000Y-108350000D01*
X171399000Y-54300000D02*
X169249000Y-54300000D01*
D46*
X177999000Y-97600000D02*
X177999000Y-98700000D01*
D42*
%TO.N,ring2_out*%
X173799000Y-98800000D02*
X173799000Y-97609521D01*
X171799000Y-98850000D02*
X172558521Y-98850000D01*
X172558521Y-98850000D02*
X173799000Y-97609521D01*
X171799000Y-109950000D02*
X171799000Y-108250000D01*
X172149000Y-49350000D02*
X174599000Y-46900000D01*
X172149000Y-59800000D02*
X172149000Y-49350000D01*
X174599000Y-46900000D02*
X176499000Y-46900000D01*
X172249000Y-59900000D02*
X172149000Y-59800000D01*
D43*
%TO.N,/PWM_RR1*%
X160586500Y-106700000D02*
X159699000Y-106700000D01*
X159699000Y-102700000D02*
X160599000Y-102700000D01*
X159699000Y-104700000D02*
X159699000Y-102700000D01*
X160549000Y-104700000D02*
X159699000Y-104700000D01*
X159699000Y-106700000D02*
X159699000Y-104700000D01*
X159699000Y-102700000D02*
X159699000Y-101600000D01*
X159699000Y-101600000D02*
X160599000Y-101600000D01*
X160599000Y-101600000D02*
X160599000Y-101100000D01*
D42*
%TO.N,/PWM_LL2*%
X177999000Y-100750000D02*
X177999000Y-101600000D01*
X177999000Y-101600000D02*
X178849000Y-101600000D01*
X178849000Y-101600000D02*
X178999000Y-101750000D01*
X178999000Y-106700000D02*
X178949000Y-106750000D01*
X178949000Y-106750000D02*
X177949000Y-106750000D01*
X178899000Y-104750000D02*
X178999000Y-104850000D01*
X177911500Y-104750000D02*
X178899000Y-104750000D01*
X178999000Y-104850000D02*
X178999000Y-106700000D01*
X177949000Y-102750000D02*
X178849000Y-102750000D01*
X178849000Y-102750000D02*
X178999000Y-102900000D01*
X178999000Y-102900000D02*
X178999000Y-104850000D01*
X178999000Y-101750000D02*
X178999000Y-102900000D01*
%TO.N,/PWM_RR2*%
X171799000Y-100750000D02*
X171799000Y-101600000D01*
X171799000Y-101600000D02*
X170799000Y-101600000D01*
X170799000Y-106700000D02*
X171799000Y-106700000D01*
X170949000Y-104700000D02*
X170799000Y-104550000D01*
X171849000Y-104700000D02*
X170949000Y-104700000D01*
X170799000Y-104550000D02*
X170799000Y-106700000D01*
X170849000Y-102700000D02*
X170799000Y-102650000D01*
X171886500Y-102700000D02*
X170849000Y-102700000D01*
X170799000Y-102650000D02*
X170799000Y-104550000D01*
X170799000Y-101600000D02*
X170799000Y-102650000D01*
%TO.N,/PWM_LL1*%
X166511500Y-102700000D02*
X167399000Y-102700000D01*
X167399000Y-106700000D02*
X166499000Y-106700000D01*
X167299000Y-104700000D02*
X167399000Y-104600000D01*
X166549000Y-104700000D02*
X167299000Y-104700000D01*
X167599000Y-104600000D02*
X167599000Y-106700000D01*
X167599000Y-102700000D02*
X167599000Y-104600000D01*
X167599000Y-102700000D02*
X167599000Y-101600000D01*
X167399000Y-101600000D02*
X166699000Y-101600000D01*
X166699000Y-101600000D02*
X166599000Y-101500000D01*
X166599000Y-101500000D02*
X166599000Y-100800000D01*
%TO.N,Net-(C18-Pad1)*%
X163549000Y-109477450D02*
X163549000Y-108300000D01*
X166599000Y-116700000D02*
X166599000Y-115600000D01*
X162849000Y-116700000D02*
X166599000Y-116700000D01*
X162749000Y-116600000D02*
X162849000Y-116700000D01*
X162749000Y-115100000D02*
X162749000Y-116600000D01*
X162749000Y-115100000D02*
X162749000Y-113876210D01*
X162749000Y-113876210D02*
X162616320Y-113743530D01*
%TO.N,Net-(C32-Pad1)*%
X174899000Y-109447450D02*
X174899000Y-108250000D01*
X175749000Y-114645936D02*
X175749000Y-113751981D01*
X175099000Y-116700000D02*
X175549000Y-116250000D01*
X175549000Y-116250000D02*
X175549000Y-115750000D01*
X171899000Y-116700000D02*
X175099000Y-116700000D01*
X171799000Y-116600000D02*
X171899000Y-116700000D01*
X171799000Y-115600000D02*
X171799000Y-116600000D01*
D43*
%TO.N,/xin*%
X151792691Y-125868299D02*
X151792691Y-125843691D01*
X153436280Y-127511888D02*
X151792691Y-125868299D01*
X153436280Y-130186639D02*
X153436280Y-127511888D01*
X151792691Y-125843691D02*
X150999000Y-125050000D01*
X150949000Y-121250000D02*
X150999000Y-121200000D01*
X149299000Y-121250000D02*
X150949000Y-121250000D01*
X150949000Y-117600000D02*
X149949000Y-117600000D01*
X149949000Y-117600000D02*
X149849000Y-117700000D01*
X149849000Y-117700000D02*
X149899000Y-117750000D01*
X149899000Y-123950000D02*
X150999000Y-125050000D01*
X149849000Y-121250000D02*
X149899000Y-121200000D01*
X149299000Y-121250000D02*
X149849000Y-121250000D01*
X149899000Y-121200000D02*
X149899000Y-123950000D01*
X149899000Y-117750000D02*
X149899000Y-121200000D01*
%TO.N,/xout*%
X152199000Y-124900000D02*
X152249000Y-124850000D01*
X153842590Y-127343590D02*
X152199000Y-125700000D01*
X152249000Y-124850000D02*
X153099000Y-124850000D01*
X152199000Y-125700000D02*
X152199000Y-124900000D01*
X153842590Y-130450000D02*
X153842590Y-127343590D01*
%TO.N,usb_d-*%
X155499000Y-145050000D02*
X155499000Y-137120000D01*
X154299000Y-146250000D02*
X155499000Y-145050000D01*
X154299000Y-147300000D02*
X154299000Y-146250000D01*
X155049000Y-148050000D02*
X154299000Y-147300000D01*
X155049000Y-148807500D02*
X155049000Y-148050000D01*
%TO.N,usb_d+*%
X155092690Y-144856310D02*
X155092690Y-137080000D01*
X153849000Y-147300000D02*
X153849000Y-146100000D01*
X153049000Y-148100000D02*
X153849000Y-147300000D01*
X153849000Y-146100000D02*
X155092690Y-144856310D01*
X153049000Y-148807500D02*
X153049000Y-148100000D01*
%TO.N,spi_mosi*%
X146032336Y-102466602D02*
X146375235Y-102123703D01*
X146032336Y-122774074D02*
X146032336Y-102466602D01*
X152626600Y-129368338D02*
X146032336Y-122774074D01*
X152626600Y-130296400D02*
X152626600Y-129368338D01*
X153499000Y-96720000D02*
X149996790Y-100222210D01*
X146636207Y-100222210D02*
X146151274Y-100222210D01*
X153499000Y-96240000D02*
X153499000Y-96720000D01*
X149996790Y-100222210D02*
X146636207Y-100222210D01*
%TD*%
M02*
