%TF.GenerationSoftware,KiCad,Pcbnew,(5.1.9-0-10_14)*%
%TF.CreationDate,2023-04-27T17:08:01-07:00*%
%TF.ProjectId,integrator,696e7465-6772-4617-946f-722e6b696361,rev?*%
%TF.SameCoordinates,Original*%
%TF.FileFunction,Profile,NP*%
%FSLAX46Y46*%
G04 Gerber Fmt 4.6, Leading zero omitted, Abs format (unit mm)*
G04 Created by KiCad (PCBNEW (5.1.9-0-10_14)) date 2023-04-27 17:08:01*
%MOMM*%
%LPD*%
G01*
G04 APERTURE LIST*
%TA.AperFunction,Profile*%
%ADD10C,0.254000*%
%TD*%
G04 APERTURE END LIST*
D10*
X141949000Y-93170000D02*
X142249000Y-93170000D01*
X137549000Y-93170000D02*
X141949000Y-93170000D01*
X137629000Y-67970000D02*
X142249000Y-67970000D01*
X137629000Y-67970000D02*
X133749000Y-67970000D01*
X124048000Y-46000000D02*
X124048000Y-56000000D01*
X126048000Y-44000000D02*
G75*
G03*
X124048000Y-46000000I0J-2000000D01*
G01*
X124048000Y-56000000D02*
X124049000Y-66020000D01*
X124299741Y-68139250D02*
G75*
G03*
X124049000Y-66020000I-450509J1021156D01*
G01*
X185999071Y-93021722D02*
G75*
G03*
X184048400Y-95903706I1050213J-2811984D01*
G01*
X184049116Y-154031906D02*
X184048400Y-95903706D01*
X183798259Y-68139250D02*
G75*
G02*
X184049000Y-66020000I450509J1021156D01*
G01*
X186798884Y-74231906D02*
X186798884Y-76231906D01*
X186798884Y-71231906D02*
X184598884Y-71231906D01*
X186798884Y-76231906D02*
X183998884Y-76231906D01*
X186052853Y-68887262D02*
G75*
G02*
X186798884Y-69892301I-303969J-1005039D01*
G01*
X186798884Y-69892301D02*
X186798884Y-71231906D01*
X183498884Y-76731906D02*
G75*
G02*
X183998884Y-76231906I500000J0D01*
G01*
X183498884Y-76731906D02*
X183498884Y-77731906D01*
X183998884Y-78231906D02*
X186798884Y-78231906D01*
X184598884Y-74231906D02*
X186798884Y-74231906D01*
X183998884Y-78231906D02*
G75*
G02*
X183498884Y-77731906I0J500000D01*
G01*
X183798259Y-68139250D02*
X186052853Y-68887262D01*
X184098884Y-71731906D02*
G75*
G02*
X184598884Y-71231906I500000J0D01*
G01*
X184098884Y-71731906D02*
X184098884Y-73731906D01*
X184598884Y-74231906D02*
G75*
G02*
X184098884Y-73731906I0J500000D01*
G01*
X172199000Y-93170000D02*
X167249000Y-93170000D01*
X173249000Y-67970000D02*
X168659000Y-67970000D01*
X124048509Y-156068362D02*
G75*
G03*
X124049116Y-154031906I-449277J1018362D01*
G01*
X124048509Y-156068362D02*
X124050000Y-159031906D01*
X184049723Y-156068362D02*
G75*
G02*
X184049116Y-154031906I449277J1018362D01*
G01*
X165849000Y-93170000D02*
X167249000Y-93170000D01*
X172199000Y-93170000D02*
X174749000Y-93170000D01*
X174749000Y-67970000D02*
X173249000Y-67970000D01*
X165849000Y-67970000D02*
X168659000Y-67970000D01*
X132049000Y-89370000D02*
X132049000Y-91470000D01*
X132049000Y-89370000D02*
X130299000Y-89370000D01*
X130299000Y-89370000D02*
G75*
G02*
X130299000Y-88370000I-50000J500000D01*
G01*
X133749000Y-93170000D02*
G75*
G02*
X132049000Y-91470000I0J1700000D01*
G01*
X133749000Y-67970000D02*
G75*
G03*
X132049000Y-69670000I0J-1700000D01*
G01*
X132049000Y-71770000D02*
X132049000Y-69670000D01*
X132049000Y-71770000D02*
X130299000Y-71770000D01*
X130299000Y-71770000D02*
G75*
G03*
X130299000Y-72770000I-50000J-500000D01*
G01*
X176449000Y-89370000D02*
X176449000Y-91470000D01*
X177799000Y-89370000D02*
G75*
G03*
X177799000Y-88370000I50000J500000D01*
G01*
X176449000Y-89370000D02*
X177799000Y-89370000D01*
X174749000Y-93170000D02*
G75*
G03*
X176449000Y-91470000I0J1700000D01*
G01*
X174749000Y-67970000D02*
G75*
G02*
X176449000Y-69670000I0J-1700000D01*
G01*
X177799000Y-71770000D02*
G75*
G02*
X177799000Y-72770000I50000J-500000D01*
G01*
X176449000Y-71770000D02*
X177799000Y-71770000D01*
X176449000Y-71770000D02*
X176449000Y-69670000D01*
X133749000Y-93170000D02*
X137549000Y-93170000D01*
X142249000Y-93170000D02*
G75*
G03*
X142849000Y-92590000I10000J590000D01*
G01*
X165249000Y-91070000D02*
X165249000Y-92570000D01*
X165249000Y-91070000D02*
X142849000Y-91070000D01*
X142849000Y-91070000D02*
X142849000Y-92590000D01*
X165849000Y-93170000D02*
G75*
G02*
X165249000Y-92570000I0J600000D01*
G01*
X142849000Y-68570000D02*
G75*
G03*
X142249000Y-67970000I-600000J0D01*
G01*
X165849000Y-67970000D02*
G75*
G03*
X165249000Y-68570000I0J-600000D01*
G01*
X142849000Y-70070000D02*
X142849000Y-68570000D01*
X165249000Y-70070000D02*
X165249000Y-68570000D01*
X142849000Y-70070000D02*
X165249000Y-70070000D01*
X184049723Y-156068362D02*
X184050000Y-159031906D01*
X124049116Y-154031906D02*
X124050000Y-95745456D01*
X123499116Y-74231906D02*
G75*
G03*
X123999116Y-73731906I0J500000D01*
G01*
X123999116Y-71731906D02*
X123999116Y-73731906D01*
X123999116Y-71731906D02*
G75*
G03*
X123499116Y-71231906I-500000J0D01*
G01*
X124299741Y-68139250D02*
X122045147Y-68887262D01*
X124099116Y-78231906D02*
G75*
G03*
X124599116Y-77731906I0J500000D01*
G01*
X123499116Y-74231906D02*
X121299116Y-74231906D01*
X124099116Y-78231906D02*
X121299116Y-78231906D01*
X124599116Y-76731906D02*
X124599116Y-77731906D01*
X124599116Y-76731906D02*
G75*
G03*
X124099116Y-76231906I-500000J0D01*
G01*
X121299116Y-69892301D02*
X121299116Y-71231906D01*
X122045147Y-68887262D02*
G75*
G03*
X121299116Y-69892301I303969J-1005039D01*
G01*
X121299116Y-76231906D02*
X124099116Y-76231906D01*
X121299116Y-71231906D02*
X123499116Y-71231906D01*
X121299116Y-74231906D02*
X121299116Y-76231906D01*
X186798884Y-78231906D02*
X186799116Y-92001906D01*
X182049116Y-161032790D02*
X147379000Y-161021906D01*
X126148947Y-161028528D02*
X147379116Y-161021906D01*
X126148947Y-161028528D02*
G75*
G02*
X124050000Y-159031906I-99831J1996622D01*
G01*
X182049116Y-161032790D02*
G75*
G03*
X184050000Y-159031906I0J2000884D01*
G01*
X122139002Y-92877495D02*
G75*
G02*
X121299116Y-91831906I210114J1028898D01*
G01*
X121299116Y-91831906D02*
X121299116Y-78231906D01*
X122138625Y-92878462D02*
G75*
G02*
X124050000Y-95745456I-1089509J-2796994D01*
G01*
X185999071Y-93021721D02*
G75*
G03*
X186799116Y-92001906I-249955J1019815D01*
G01*
X184050000Y-56000000D02*
X184049000Y-66020000D01*
X130299000Y-72770000D02*
X130299000Y-88370000D01*
X182050000Y-44000000D02*
G75*
G02*
X184050000Y-46000000I0J-2000000D01*
G01*
X177799000Y-72770000D02*
X177799000Y-88370000D01*
X184050000Y-46000000D02*
X184050000Y-56000000D01*
X126048000Y-44000000D02*
X182050000Y-44000000D01*
M02*
