%TF.GenerationSoftware,KiCad,Pcbnew,(5.1.9-0-10_14)*%
%TF.CreationDate,2022-03-13T20:30:51-07:00*%
%TF.ProjectId,integrator,696e7465-6772-4617-946f-722e6b696361,rev?*%
%TF.SameCoordinates,Original*%
%TF.FileFunction,Copper,L4,Bot*%
%TF.FilePolarity,Positive*%
%FSLAX46Y46*%
G04 Gerber Fmt 4.6, Leading zero omitted, Abs format (unit mm)*
G04 Created by KiCad (PCBNEW (5.1.9-0-10_14)) date 2022-03-13 20:30:51*
%MOMM*%
%LPD*%
G01*
G04 APERTURE LIST*
%TA.AperFunction,ComponentPad*%
%ADD10O,1.700000X1.700000*%
%TD*%
%TA.AperFunction,ComponentPad*%
%ADD11R,1.700000X1.700000*%
%TD*%
%TA.AperFunction,SMDPad,CuDef*%
%ADD12R,0.450000X0.600000*%
%TD*%
%TA.AperFunction,SMDPad,CuDef*%
%ADD13R,0.610000X0.350000*%
%TD*%
%TA.AperFunction,SMDPad,CuDef*%
%ADD14R,0.350000X0.610000*%
%TD*%
%TA.AperFunction,SMDPad,CuDef*%
%ADD15R,0.850000X1.000000*%
%TD*%
%TA.AperFunction,SMDPad,CuDef*%
%ADD16R,1.000000X0.600000*%
%TD*%
%TA.AperFunction,ComponentPad*%
%ADD17R,1.600000X1.600000*%
%TD*%
%TA.AperFunction,ComponentPad*%
%ADD18C,1.600000*%
%TD*%
%TA.AperFunction,SMDPad,CuDef*%
%ADD19C,2.000000*%
%TD*%
%TA.AperFunction,ComponentPad*%
%ADD20C,1.700000*%
%TD*%
%TA.AperFunction,ComponentPad*%
%ADD21C,2.000000*%
%TD*%
%TA.AperFunction,SMDPad,CuDef*%
%ADD22R,2.800000X2.800000*%
%TD*%
%TA.AperFunction,SMDPad,CuDef*%
%ADD23R,2.200000X2.800000*%
%TD*%
%TA.AperFunction,SMDPad,CuDef*%
%ADD24R,2.600000X2.800000*%
%TD*%
%TA.AperFunction,ViaPad*%
%ADD25C,0.685800*%
%TD*%
%TA.AperFunction,ViaPad*%
%ADD26C,1.000000*%
%TD*%
%TA.AperFunction,Conductor*%
%ADD27C,0.254000*%
%TD*%
%TA.AperFunction,Conductor*%
%ADD28C,0.508000*%
%TD*%
%TA.AperFunction,Conductor*%
%ADD29C,0.750000*%
%TD*%
%TA.AperFunction,Conductor*%
%ADD30C,0.500000*%
%TD*%
%TA.AperFunction,Conductor*%
%ADD31C,0.350000*%
%TD*%
%TA.AperFunction,Conductor*%
%ADD32C,0.100000*%
%TD*%
G04 APERTURE END LIST*
D10*
%TO.P,REF\u002A\u002A,4*%
%TO.N,N/C*%
X133539116Y-143971906D03*
%TO.P,REF\u002A\u002A,3*%
%TO.N,/+3.3v*%
X136079116Y-143971906D03*
%TO.P,REF\u002A\u002A,2*%
%TO.N,/po_batt*%
X133539116Y-141431906D03*
D11*
%TO.P,REF\u002A\u002A,1*%
%TO.N,Earth*%
X136079116Y-141431906D03*
%TD*%
D12*
%TO.P,D1,2*%
%TO.N,/po_batt*%
X139779116Y-141681906D03*
%TO.P,D1,1*%
%TO.N,/+3.3v*%
X139779116Y-143781906D03*
%TD*%
%TO.P,R2,1*%
%TO.N,Earth*%
%TA.AperFunction,SMDPad,CuDef*%
G36*
G01*
X165684116Y-46541905D02*
X165684116Y-47441907D01*
G75*
G02*
X165434117Y-47691906I-249999J0D01*
G01*
X164909115Y-47691906D01*
G75*
G02*
X164659116Y-47441907I0J249999D01*
G01*
X164659116Y-46541905D01*
G75*
G02*
X164909115Y-46291906I249999J0D01*
G01*
X165434117Y-46291906D01*
G75*
G02*
X165684116Y-46541905I0J-249999D01*
G01*
G37*
%TD.AperFunction*%
%TO.P,R2,2*%
%TO.N,Net-(R2-Pad2)*%
%TA.AperFunction,SMDPad,CuDef*%
G36*
G01*
X163859116Y-46541905D02*
X163859116Y-47441907D01*
G75*
G02*
X163609117Y-47691906I-249999J0D01*
G01*
X163084115Y-47691906D01*
G75*
G02*
X162834116Y-47441907I0J249999D01*
G01*
X162834116Y-46541905D01*
G75*
G02*
X163084115Y-46291906I249999J0D01*
G01*
X163609117Y-46291906D01*
G75*
G02*
X163859116Y-46541905I0J-249999D01*
G01*
G37*
%TD.AperFunction*%
%TD*%
D13*
%TO.P,U2,4*%
%TO.N,/imu_int1*%
X152844116Y-94541906D03*
%TO.P,U2,3*%
%TO.N,Earth*%
X152844116Y-95041906D03*
%TO.P,U2,2*%
X152844116Y-95541906D03*
%TO.P,U2,1*%
%TO.N,/spi_miso*%
X152844116Y-96041906D03*
D14*
%TO.P,U2,14*%
%TO.N,/spi_mosi*%
X153504116Y-96201906D03*
%TO.P,U2,13*%
%TO.N,/spi_clock*%
X154004116Y-96201906D03*
%TO.P,U2,12*%
%TO.N,/spi_cs*%
X154504116Y-96201906D03*
D13*
%TO.P,U2,11*%
%TO.N,Earth*%
X155164116Y-96041906D03*
%TO.P,U2,10*%
X155164116Y-95541906D03*
%TO.P,U2,9*%
X155164116Y-95041906D03*
%TO.P,U2,8*%
%TO.N,/+3.3v*%
X155164116Y-94541906D03*
D14*
%TO.P,U2,7*%
%TO.N,Earth*%
X154504116Y-94381906D03*
%TO.P,U2,6*%
X154004116Y-94381906D03*
%TO.P,U2,5*%
%TO.N,/+3.3v*%
X153504116Y-94381906D03*
%TD*%
%TO.P,C3,2*%
%TO.N,Earth*%
%TA.AperFunction,SMDPad,CuDef*%
G36*
G01*
X158964116Y-95841906D02*
X159914116Y-95841906D01*
G75*
G02*
X160164116Y-96091906I0J-250000D01*
G01*
X160164116Y-96591906D01*
G75*
G02*
X159914116Y-96841906I-250000J0D01*
G01*
X158964116Y-96841906D01*
G75*
G02*
X158714116Y-96591906I0J250000D01*
G01*
X158714116Y-96091906D01*
G75*
G02*
X158964116Y-95841906I250000J0D01*
G01*
G37*
%TD.AperFunction*%
%TO.P,C3,1*%
%TO.N,/+3.3v*%
%TA.AperFunction,SMDPad,CuDef*%
G36*
G01*
X158964116Y-93941906D02*
X159914116Y-93941906D01*
G75*
G02*
X160164116Y-94191906I0J-250000D01*
G01*
X160164116Y-94691906D01*
G75*
G02*
X159914116Y-94941906I-250000J0D01*
G01*
X158964116Y-94941906D01*
G75*
G02*
X158714116Y-94691906I0J250000D01*
G01*
X158714116Y-94191906D01*
G75*
G02*
X158964116Y-93941906I250000J0D01*
G01*
G37*
%TD.AperFunction*%
%TD*%
%TO.P,C2,2*%
%TO.N,Earth*%
%TA.AperFunction,SMDPad,CuDef*%
G36*
G01*
X156644116Y-95861906D02*
X157594116Y-95861906D01*
G75*
G02*
X157844116Y-96111906I0J-250000D01*
G01*
X157844116Y-96611906D01*
G75*
G02*
X157594116Y-96861906I-250000J0D01*
G01*
X156644116Y-96861906D01*
G75*
G02*
X156394116Y-96611906I0J250000D01*
G01*
X156394116Y-96111906D01*
G75*
G02*
X156644116Y-95861906I250000J0D01*
G01*
G37*
%TD.AperFunction*%
%TO.P,C2,1*%
%TO.N,/+3.3v*%
%TA.AperFunction,SMDPad,CuDef*%
G36*
G01*
X156644116Y-93961906D02*
X157594116Y-93961906D01*
G75*
G02*
X157844116Y-94211906I0J-250000D01*
G01*
X157844116Y-94711906D01*
G75*
G02*
X157594116Y-94961906I-250000J0D01*
G01*
X156644116Y-94961906D01*
G75*
G02*
X156394116Y-94711906I0J250000D01*
G01*
X156394116Y-94211906D01*
G75*
G02*
X156644116Y-93961906I250000J0D01*
G01*
G37*
%TD.AperFunction*%
%TD*%
%TO.P,C1,2*%
%TO.N,/+3.3v*%
%TA.AperFunction,SMDPad,CuDef*%
G36*
G01*
X151254116Y-95131906D02*
X150304116Y-95131906D01*
G75*
G02*
X150054116Y-94881906I0J250000D01*
G01*
X150054116Y-94381906D01*
G75*
G02*
X150304116Y-94131906I250000J0D01*
G01*
X151254116Y-94131906D01*
G75*
G02*
X151504116Y-94381906I0J-250000D01*
G01*
X151504116Y-94881906D01*
G75*
G02*
X151254116Y-95131906I-250000J0D01*
G01*
G37*
%TD.AperFunction*%
%TO.P,C1,1*%
%TO.N,Earth*%
%TA.AperFunction,SMDPad,CuDef*%
G36*
G01*
X151254116Y-97031906D02*
X150304116Y-97031906D01*
G75*
G02*
X150054116Y-96781906I0J250000D01*
G01*
X150054116Y-96281906D01*
G75*
G02*
X150304116Y-96031906I250000J0D01*
G01*
X151254116Y-96031906D01*
G75*
G02*
X151504116Y-96281906I0J-250000D01*
G01*
X151504116Y-96781906D01*
G75*
G02*
X151254116Y-97031906I-250000J0D01*
G01*
G37*
%TD.AperFunction*%
%TD*%
D15*
%TO.P,SW3,5*%
%TO.N,Net-(R2-Pad2)*%
X157124116Y-50641906D03*
%TO.P,SW3,6*%
%TO.N,/nonstop_led*%
X150974116Y-50641906D03*
D16*
%TO.P,SW3,1*%
%TO.N,Net-(SW3-Pad1)*%
X156249116Y-48791906D03*
%TO.P,SW3,2*%
%TO.N,/nonstop_sw*%
X151849116Y-48791906D03*
%TO.P,SW3,3*%
%TO.N,Net-(SW3-Pad3)*%
X156249116Y-52491906D03*
%TO.P,SW3,4*%
%TO.N,Earth*%
X151849116Y-52491906D03*
%TD*%
D17*
%TO.P,U1,1*%
%TO.N,Earth*%
X161670000Y-159710000D03*
D18*
%TO.P,U1,2*%
%TO.N,/nonstop_sw*%
X161670000Y-157170000D03*
%TO.P,U1,3*%
%TO.N,/nonstop_led*%
X161670000Y-154630000D03*
%TO.P,U1,4*%
%TO.N,/imu_int1*%
X161670000Y-152090000D03*
%TO.P,U1,5*%
%TO.N,Net-(U1-Pad5)*%
X161670000Y-149550000D03*
%TO.P,U1,6*%
%TO.N,/swo*%
X161670000Y-147010000D03*
%TO.P,U1,7*%
%TO.N,/swdio*%
X161670000Y-144470000D03*
%TO.P,U1,8*%
%TO.N,/swclk*%
X161670000Y-141930000D03*
%TO.P,U1,9*%
%TO.N,/po_reset*%
X161670000Y-139390000D03*
%TO.P,U1,10*%
%TO.N,/led2*%
X161670000Y-136850000D03*
%TO.P,U1,11*%
%TO.N,Net-(U1-Pad11)*%
X161670000Y-134310000D03*
%TO.P,U1,12*%
%TO.N,/spi_cs*%
X161670000Y-131770000D03*
%TO.P,U1,13*%
%TO.N,/spi_mosi*%
X161670000Y-129230000D03*
%TO.P,U1,33*%
%TO.N,Net-(U1-Pad33)*%
X146430000Y-159710000D03*
%TO.P,U1,32*%
%TO.N,/a_gnd*%
X146430000Y-157170000D03*
%TO.P,U1,31*%
%TO.N,/+3.3v*%
X146430000Y-154630000D03*
%TO.P,U1,30*%
%TO.N,/r_sync_out*%
X146430000Y-152090000D03*
%TO.P,U1,29*%
%TO.N,/sw2*%
X146430000Y-149550000D03*
%TO.P,U1,28*%
%TO.N,/sw1*%
X146430000Y-147010000D03*
%TO.P,U1,27*%
%TO.N,/l_sync_out*%
X146430000Y-144470000D03*
%TO.P,U1,26*%
%TO.N,Net-(U1-Pad26)*%
X146430000Y-141930000D03*
%TO.P,U1,25*%
%TO.N,Net-(U1-Pad25)*%
X146430000Y-139390000D03*
%TO.P,U1,24*%
%TO.N,Net-(U1-Pad24)*%
X146430000Y-136850000D03*
%TO.P,U1,23*%
%TO.N,/po_play*%
X146430000Y-134310000D03*
%TO.P,U1,22*%
%TO.N,/led1*%
X146430000Y-131770000D03*
%TO.P,U1,21*%
%TO.N,/po_wake*%
X146430000Y-129230000D03*
%TO.P,U1,14*%
%TO.N,/spi_miso*%
X161670000Y-126690000D03*
%TO.P,U1,15*%
%TO.N,Net-(U1-Pad15)*%
X159130000Y-126690000D03*
%TO.P,U1,16*%
%TO.N,Net-(U1-Pad16)*%
X156590000Y-126690000D03*
%TO.P,U1,20*%
%TO.N,/spi_clock*%
X146430000Y-126690000D03*
%TO.P,U1,19*%
%TO.N,/dac*%
X148970000Y-126690000D03*
%TO.P,U1,18*%
%TO.N,Net-(U1-Pad18)*%
X151510000Y-126690000D03*
%TO.P,U1,17*%
%TO.N,Net-(U1-Pad17)*%
X154050000Y-126690000D03*
%TD*%
%TO.P,R1,2*%
%TO.N,Earth*%
%TA.AperFunction,SMDPad,CuDef*%
G36*
G01*
X142509114Y-47981906D02*
X143409118Y-47981906D01*
G75*
G02*
X143659116Y-48231904I0J-249998D01*
G01*
X143659116Y-48756908D01*
G75*
G02*
X143409118Y-49006906I-249998J0D01*
G01*
X142509114Y-49006906D01*
G75*
G02*
X142259116Y-48756908I0J249998D01*
G01*
X142259116Y-48231904D01*
G75*
G02*
X142509114Y-47981906I249998J0D01*
G01*
G37*
%TD.AperFunction*%
%TO.P,R1,1*%
%TO.N,Net-(LED1-Pad1)*%
%TA.AperFunction,SMDPad,CuDef*%
G36*
G01*
X142509114Y-46156906D02*
X143409118Y-46156906D01*
G75*
G02*
X143659116Y-46406904I0J-249998D01*
G01*
X143659116Y-46931908D01*
G75*
G02*
X143409118Y-47181906I-249998J0D01*
G01*
X142509114Y-47181906D01*
G75*
G02*
X142259116Y-46931908I0J249998D01*
G01*
X142259116Y-46406904D01*
G75*
G02*
X142509114Y-46156906I249998J0D01*
G01*
G37*
%TD.AperFunction*%
%TD*%
%TO.P,LED2,2*%
%TO.N,/led2*%
%TA.AperFunction,SMDPad,CuDef*%
G36*
G01*
X181694697Y-46772722D02*
X182339932Y-46127487D01*
G75*
G02*
X182684646Y-46127487I172357J-172357D01*
G01*
X183029361Y-46472202D01*
G75*
G02*
X183029361Y-46816916I-172357J-172357D01*
G01*
X182384126Y-47462151D01*
G75*
G02*
X182039412Y-47462151I-172357J172357D01*
G01*
X181694697Y-47117436D01*
G75*
G02*
X181694697Y-46772722I172357J172357D01*
G01*
G37*
%TD.AperFunction*%
%TO.P,LED2,1*%
%TO.N,Net-(LED1-Pad1)*%
%TA.AperFunction,SMDPad,CuDef*%
G36*
G01*
X180368871Y-45446896D02*
X181014106Y-44801661D01*
G75*
G02*
X181358820Y-44801661I172357J-172357D01*
G01*
X181703535Y-45146376D01*
G75*
G02*
X181703535Y-45491090I-172357J-172357D01*
G01*
X181058300Y-46136325D01*
G75*
G02*
X180713586Y-46136325I-172357J172357D01*
G01*
X180368871Y-45791610D01*
G75*
G02*
X180368871Y-45446896I172357J172357D01*
G01*
G37*
%TD.AperFunction*%
%TD*%
%TO.P,LED1,2*%
%TO.N,/led1*%
%TA.AperFunction,SMDPad,CuDef*%
G36*
G01*
X125658300Y-46227487D02*
X126303535Y-46872722D01*
G75*
G02*
X126303535Y-47217436I-172357J-172357D01*
G01*
X125958820Y-47562151D01*
G75*
G02*
X125614106Y-47562151I-172357J172357D01*
G01*
X124968871Y-46916916D01*
G75*
G02*
X124968871Y-46572202I172357J172357D01*
G01*
X125313586Y-46227487D01*
G75*
G02*
X125658300Y-46227487I172357J-172357D01*
G01*
G37*
%TD.AperFunction*%
%TO.P,LED1,1*%
%TO.N,Net-(LED1-Pad1)*%
%TA.AperFunction,SMDPad,CuDef*%
G36*
G01*
X126984126Y-44901661D02*
X127629361Y-45546896D01*
G75*
G02*
X127629361Y-45891610I-172357J-172357D01*
G01*
X127284646Y-46236325D01*
G75*
G02*
X126939932Y-46236325I-172357J172357D01*
G01*
X126294697Y-45591090D01*
G75*
G02*
X126294697Y-45246376I172357J172357D01*
G01*
X126639412Y-44901661D01*
G75*
G02*
X126984126Y-44901661I172357J-172357D01*
G01*
G37*
%TD.AperFunction*%
%TD*%
D19*
%TO.P,POGO1,12*%
%TO.N,/po_play*%
X160399000Y-61230000D03*
%TO.P,POGO1,11*%
%TO.N,/po_batt*%
X160399000Y-63770000D03*
%TO.P,POGO1,10*%
%TO.N,Earth*%
X157859000Y-61230000D03*
%TO.P,POGO1,9*%
%TO.N,/swo*%
X157859000Y-63770000D03*
%TO.P,POGO1,8*%
%TO.N,Net-(POGO1-Pad8)*%
X155319000Y-61230000D03*
%TO.P,POGO1,7*%
%TO.N,/swdio*%
X155319000Y-63770000D03*
%TO.P,POGO1,6*%
%TO.N,/po_wake*%
X152779000Y-61230000D03*
%TO.P,POGO1,5*%
%TO.N,/swclk*%
X152779000Y-63770000D03*
%TO.P,POGO1,4*%
%TO.N,Net-(POGO1-Pad4)*%
X150239000Y-61230000D03*
%TO.P,POGO1,3*%
%TO.N,/po_reset*%
X150239000Y-63770000D03*
%TO.P,POGO1,2*%
%TO.N,Net-(POGO1-Pad2)*%
X147699000Y-61230000D03*
%TO.P,POGO1,1*%
%TO.N,Net-(POGO1-Pad1)*%
X147699000Y-63770000D03*
%TD*%
D20*
%TO.P,SW2,2*%
%TO.N,Earth*%
X123219116Y-86291906D03*
%TO.P,SW2,1*%
%TO.N,/sw2*%
X123219116Y-90771906D03*
D21*
%TO.P,SW2,4*%
%TO.N,Earth*%
X125709116Y-85021906D03*
%TO.P,SW2,3*%
X125709116Y-92041906D03*
%TD*%
%TO.P,SW1,3*%
%TO.N,Earth*%
X182389116Y-85021906D03*
%TO.P,SW1,4*%
X182389116Y-92041906D03*
D20*
%TO.P,SW1,1*%
X184879116Y-86291906D03*
%TO.P,SW1,2*%
%TO.N,/sw1*%
X184879116Y-90771906D03*
%TD*%
D22*
%TO.P,J1,2*%
%TO.N,/l_sync_out*%
X138900000Y-46900000D03*
D23*
%TO.P,J1,1*%
%TO.N,/a_gnd*%
X129500000Y-46900000D03*
%TO.P,J1,3*%
%TO.N,Net-(J1-Pad3)*%
X131500000Y-54300000D03*
D24*
%TO.P,J1,4*%
%TO.N,Net-(J1-Pad4)*%
X142900000Y-51350000D03*
%TD*%
D22*
%TO.P,J2,2*%
%TO.N,/r_sync_out*%
X169200000Y-54300000D03*
D23*
%TO.P,J2,1*%
%TO.N,/a_gnd*%
X178600000Y-54300000D03*
%TO.P,J2,3*%
%TO.N,Net-(J2-Pad3)*%
X176600000Y-46900000D03*
D24*
%TO.P,J2,4*%
%TO.N,Net-(J2-Pad4)*%
X165200000Y-49850000D03*
%TD*%
%TO.P,C4,2*%
%TO.N,Earth*%
%TA.AperFunction,SMDPad,CuDef*%
G36*
G01*
X129600000Y-155350000D02*
X129600000Y-156450000D01*
G75*
G02*
X129350000Y-156700000I-250000J0D01*
G01*
X126850000Y-156700000D01*
G75*
G02*
X126600000Y-156450000I0J250000D01*
G01*
X126600000Y-155350000D01*
G75*
G02*
X126850000Y-155100000I250000J0D01*
G01*
X129350000Y-155100000D01*
G75*
G02*
X129600000Y-155350000I0J-250000D01*
G01*
G37*
%TD.AperFunction*%
%TO.P,C4,1*%
%TO.N,/+3.3v*%
%TA.AperFunction,SMDPad,CuDef*%
G36*
G01*
X134000000Y-155350000D02*
X134000000Y-156450000D01*
G75*
G02*
X133750000Y-156700000I-250000J0D01*
G01*
X131250000Y-156700000D01*
G75*
G02*
X131000000Y-156450000I0J250000D01*
G01*
X131000000Y-155350000D01*
G75*
G02*
X131250000Y-155100000I250000J0D01*
G01*
X133750000Y-155100000D01*
G75*
G02*
X134000000Y-155350000I0J-250000D01*
G01*
G37*
%TD.AperFunction*%
%TD*%
%TO.P,C6,2*%
%TO.N,Earth*%
%TA.AperFunction,SMDPad,CuDef*%
G36*
G01*
X178500000Y-156450000D02*
X178500000Y-155350000D01*
G75*
G02*
X178750000Y-155100000I250000J0D01*
G01*
X181250000Y-155100000D01*
G75*
G02*
X181500000Y-155350000I0J-250000D01*
G01*
X181500000Y-156450000D01*
G75*
G02*
X181250000Y-156700000I-250000J0D01*
G01*
X178750000Y-156700000D01*
G75*
G02*
X178500000Y-156450000I0J250000D01*
G01*
G37*
%TD.AperFunction*%
%TO.P,C6,1*%
%TO.N,/+3.3v*%
%TA.AperFunction,SMDPad,CuDef*%
G36*
G01*
X174100000Y-156450000D02*
X174100000Y-155350000D01*
G75*
G02*
X174350000Y-155100000I250000J0D01*
G01*
X176850000Y-155100000D01*
G75*
G02*
X177100000Y-155350000I0J-250000D01*
G01*
X177100000Y-156450000D01*
G75*
G02*
X176850000Y-156700000I-250000J0D01*
G01*
X174350000Y-156700000D01*
G75*
G02*
X174100000Y-156450000I0J250000D01*
G01*
G37*
%TD.AperFunction*%
%TD*%
%TO.P,R4,2*%
%TO.N,Net-(J1-Pad3)*%
%TA.AperFunction,SMDPad,CuDef*%
G36*
G01*
X135349116Y-54241904D02*
X135349116Y-55141908D01*
G75*
G02*
X135099118Y-55391906I-249998J0D01*
G01*
X134574114Y-55391906D01*
G75*
G02*
X134324116Y-55141908I0J249998D01*
G01*
X134324116Y-54241904D01*
G75*
G02*
X134574114Y-53991906I249998J0D01*
G01*
X135099118Y-53991906D01*
G75*
G02*
X135349116Y-54241904I0J-249998D01*
G01*
G37*
%TD.AperFunction*%
%TO.P,R4,1*%
%TO.N,/dac*%
%TA.AperFunction,SMDPad,CuDef*%
G36*
G01*
X137174116Y-54241904D02*
X137174116Y-55141908D01*
G75*
G02*
X136924118Y-55391906I-249998J0D01*
G01*
X136399114Y-55391906D01*
G75*
G02*
X136149116Y-55141908I0J249998D01*
G01*
X136149116Y-54241904D01*
G75*
G02*
X136399114Y-53991906I249998J0D01*
G01*
X136924118Y-53991906D01*
G75*
G02*
X137174116Y-54241904I0J-249998D01*
G01*
G37*
%TD.AperFunction*%
%TD*%
%TO.P,R5,2*%
%TO.N,/dac*%
%TA.AperFunction,SMDPad,CuDef*%
G36*
G01*
X173839116Y-54191904D02*
X173839116Y-55091908D01*
G75*
G02*
X173589118Y-55341906I-249998J0D01*
G01*
X173064114Y-55341906D01*
G75*
G02*
X172814116Y-55091908I0J249998D01*
G01*
X172814116Y-54191904D01*
G75*
G02*
X173064114Y-53941906I249998J0D01*
G01*
X173589118Y-53941906D01*
G75*
G02*
X173839116Y-54191904I0J-249998D01*
G01*
G37*
%TD.AperFunction*%
%TO.P,R5,1*%
%TO.N,Net-(J2-Pad3)*%
%TA.AperFunction,SMDPad,CuDef*%
G36*
G01*
X175664116Y-54191904D02*
X175664116Y-55091908D01*
G75*
G02*
X175414118Y-55341906I-249998J0D01*
G01*
X174889114Y-55341906D01*
G75*
G02*
X174639116Y-55091908I0J249998D01*
G01*
X174639116Y-54191904D01*
G75*
G02*
X174889114Y-53941906I249998J0D01*
G01*
X175414118Y-53941906D01*
G75*
G02*
X175664116Y-54191904I0J-249998D01*
G01*
G37*
%TD.AperFunction*%
%TD*%
%TO.P,R6,2*%
%TO.N,Earth*%
%TA.AperFunction,SMDPad,CuDef*%
G36*
G01*
X145799118Y-62081906D02*
X144899114Y-62081906D01*
G75*
G02*
X144649116Y-61831908I0J249998D01*
G01*
X144649116Y-61306904D01*
G75*
G02*
X144899114Y-61056906I249998J0D01*
G01*
X145799118Y-61056906D01*
G75*
G02*
X146049116Y-61306904I0J-249998D01*
G01*
X146049116Y-61831908D01*
G75*
G02*
X145799118Y-62081906I-249998J0D01*
G01*
G37*
%TD.AperFunction*%
%TO.P,R6,1*%
%TO.N,/po_reset*%
%TA.AperFunction,SMDPad,CuDef*%
G36*
G01*
X145799118Y-63906906D02*
X144899114Y-63906906D01*
G75*
G02*
X144649116Y-63656908I0J249998D01*
G01*
X144649116Y-63131904D01*
G75*
G02*
X144899114Y-62881906I249998J0D01*
G01*
X145799118Y-62881906D01*
G75*
G02*
X146049116Y-63131904I0J-249998D01*
G01*
X146049116Y-63656908D01*
G75*
G02*
X145799118Y-63906906I-249998J0D01*
G01*
G37*
%TD.AperFunction*%
%TD*%
D25*
%TO.N,Earth*%
X156599116Y-66231906D03*
X125699116Y-155831906D03*
X184899116Y-88631906D03*
X181376906Y-155931906D03*
X144359116Y-48381906D03*
X150539116Y-52491906D03*
X149319116Y-96531906D03*
X145329116Y-59497216D03*
X157869116Y-59497216D03*
D26*
X170459116Y-127531906D03*
D25*
X160869116Y-96171906D03*
X166649116Y-46911906D03*
D26*
X170479116Y-121021906D03*
D25*
%TO.N,/+3.3v*%
X134999116Y-155831906D03*
X149349116Y-94601906D03*
X140639116Y-148831906D03*
X160889116Y-94461906D03*
%TO.N,/po_batt*%
X161716806Y-62491906D03*
X139779116Y-139631906D03*
%TO.N,/swo*%
X134359116Y-95201906D03*
X134509116Y-97717074D03*
X155383105Y-66245895D03*
%TO.N,/swdio*%
X131939116Y-97381906D03*
X131799147Y-94605459D03*
X154139116Y-66251906D03*
%TO.N,/po_wake*%
X175799116Y-96931906D03*
X146509116Y-121331906D03*
%TO.N,/swclk*%
X132925923Y-94648652D03*
X132969116Y-98061906D03*
X152639116Y-66221906D03*
%TO.N,/po_reset*%
X130419116Y-95431906D03*
X130669116Y-97131906D03*
X150219116Y-65481906D03*
X162489116Y-65491906D03*
%TO.N,/l_sync_out*%
X140476812Y-55806596D03*
%TO.N,/a_gnd*%
X129539116Y-49091906D03*
X176639116Y-54321906D03*
X153739116Y-123451906D03*
%TO.N,/r_sync_out*%
X171249116Y-54391906D03*
X179744426Y-95244053D03*
X180396737Y-93782635D03*
%TO.N,/led2*%
X163770731Y-121308010D03*
X177239116Y-96661906D03*
%TO.N,/dac*%
X168947102Y-58183920D03*
X137789116Y-54601906D03*
X155569116Y-123441906D03*
%TO.N,/spi_cs*%
X155289129Y-102043604D03*
X155279116Y-97061904D03*
%TO.N,/spi_miso*%
X152439116Y-97091906D03*
X152409116Y-102041908D03*
%TO.N,/spi_clock*%
X154659116Y-103961906D03*
X154339116Y-97091906D03*
%TO.N,/sw1*%
X141439116Y-98121906D03*
X141449116Y-137881906D03*
%TO.N,/nonstop_led*%
X135445890Y-96066352D03*
X135559624Y-97336841D03*
%TO.N,/imu_int1*%
X149339116Y-95551906D03*
X149279116Y-99568568D03*
%TO.N,/spi_mosi*%
X153411263Y-97091081D03*
X153909517Y-103188200D03*
%TO.N,/po_play*%
X130389116Y-93351906D03*
X129380448Y-97933238D03*
%TD*%
D27*
%TO.N,Earth*%
X125767210Y-155900000D02*
X125699116Y-155831906D01*
X128100000Y-155900000D02*
X125767210Y-155900000D01*
X180000000Y-155900000D02*
X181345000Y-155900000D01*
X181345000Y-155900000D02*
X181376906Y-155931906D01*
X155164116Y-95041906D02*
X152869116Y-95041906D01*
X154504116Y-95516906D02*
X154529116Y-95541906D01*
X154504116Y-94381906D02*
X154504116Y-95516906D01*
X155164116Y-95541906D02*
X154529116Y-95541906D01*
X154004116Y-95516906D02*
X154029116Y-95541906D01*
X154004116Y-94381906D02*
X154004116Y-95516906D01*
X154029116Y-95541906D02*
X152879116Y-95541906D01*
X154529116Y-95541906D02*
X154029116Y-95541906D01*
X150779116Y-96531906D02*
X149319116Y-96531906D01*
X155164116Y-95041906D02*
X155164116Y-95956906D01*
X152844116Y-95041906D02*
X152844116Y-95496906D01*
D28*
X155489116Y-96121906D02*
X155479116Y-96131906D01*
D27*
X145340000Y-59508100D02*
X145329116Y-59497216D01*
X145340000Y-61183500D02*
X145340000Y-59508100D01*
X157859000Y-59507332D02*
X157869116Y-59497216D01*
D29*
X157859000Y-61230000D02*
X157859000Y-59507332D01*
D27*
X155409116Y-96041906D02*
X155489116Y-96121906D01*
X155164116Y-96041906D02*
X155409116Y-96041906D01*
D30*
X151849116Y-52491906D02*
X150539116Y-52491906D01*
D28*
X155739116Y-96121906D02*
X155489116Y-96121906D01*
D27*
X166659116Y-46991906D02*
X165241225Y-46991906D01*
X141884116Y-48406906D02*
X141869116Y-48421906D01*
X144334116Y-48406906D02*
X141884116Y-48406906D01*
D28*
X160679116Y-96361906D02*
X160869116Y-96171906D01*
X156089116Y-96361906D02*
X160679116Y-96361906D01*
X155869116Y-96141906D02*
X156089116Y-96361906D01*
D27*
X150779116Y-96531906D02*
X151569116Y-96531906D01*
D30*
%TO.N,Net-(J1-Pad3)*%
X131921906Y-54721906D02*
X131500000Y-54300000D01*
X134509116Y-54721906D02*
X131921906Y-54721906D01*
X134769116Y-54461906D02*
X134509116Y-54721906D01*
%TO.N,Net-(J2-Pad3)*%
X180279116Y-50579116D02*
X176600000Y-46900000D01*
X180279116Y-56091906D02*
X180279116Y-50579116D01*
X179939116Y-56431906D02*
X180279116Y-56091906D01*
X175059116Y-54671906D02*
X175079116Y-54651906D01*
X177659116Y-56431906D02*
X179939116Y-56431906D01*
X175879116Y-54651906D02*
X177659116Y-56431906D01*
X175079116Y-54651906D02*
X175879116Y-54651906D01*
D27*
%TO.N,Net-(LED1-Pad1)*%
X127499116Y-45131906D02*
X127099116Y-45531906D01*
X142959116Y-46669406D02*
X144231616Y-46669406D01*
X142959116Y-46669406D02*
X141816616Y-46669406D01*
X159869116Y-45101906D02*
X159839116Y-45131906D01*
X180669116Y-45101906D02*
X159869116Y-45101906D01*
X153149116Y-45131906D02*
X149479116Y-45131906D01*
X159839116Y-45131906D02*
X153149116Y-45131906D01*
X181036203Y-45468993D02*
X180669116Y-45101906D01*
X144231616Y-46669406D02*
X144231616Y-45204406D01*
X144231616Y-45204406D02*
X144159116Y-45131906D01*
X144159116Y-45131906D02*
X127549116Y-45131906D01*
X149559116Y-45131906D02*
X144159116Y-45131906D01*
D30*
%TO.N,/+3.3v*%
X175600000Y-155900000D02*
X173618323Y-155900000D01*
X134931022Y-155900000D02*
X134999116Y-155831906D01*
X132500000Y-155900000D02*
X134931022Y-155900000D01*
X136079116Y-145531906D02*
X136179116Y-145631906D01*
X136079116Y-143971906D02*
X136079116Y-145531906D01*
X139779116Y-145631906D02*
X136179116Y-145631906D01*
D27*
X149349116Y-94601906D02*
X150679116Y-94601906D01*
X150679116Y-94601906D02*
X150699116Y-94621906D01*
X150699116Y-94621906D02*
X151639116Y-94621906D01*
X151639116Y-94621906D02*
X152579116Y-93681906D01*
D30*
X139779116Y-147971906D02*
X139779116Y-145631906D01*
X140639116Y-148831906D02*
X139779116Y-147971906D01*
X149379116Y-94631906D02*
X149349116Y-94601906D01*
X150779116Y-94631906D02*
X149379116Y-94631906D01*
X151629116Y-94631906D02*
X152579116Y-93681906D01*
X150779116Y-94631906D02*
X151629116Y-94631906D01*
X157119116Y-94461906D02*
X160889116Y-94461906D01*
D27*
X155809116Y-94541906D02*
X160969116Y-94541906D01*
D30*
X152719116Y-93541906D02*
X152579116Y-93681906D01*
X153489116Y-93541906D02*
X152719116Y-93541906D01*
D27*
X153489116Y-94341906D02*
X153509116Y-94361906D01*
D30*
X157119116Y-94461906D02*
X155459116Y-94461906D01*
X152719116Y-93541906D02*
X153499116Y-93541906D01*
X153499116Y-93541906D02*
X153499116Y-93831906D01*
D31*
X153499116Y-93831906D02*
X153499116Y-94341906D01*
D30*
X139779116Y-144191906D02*
X139779116Y-145631906D01*
D27*
%TO.N,/po_batt*%
X160399000Y-63770000D02*
X161677094Y-62491906D01*
D30*
X161716806Y-62704216D02*
X161716806Y-62491906D01*
X161149116Y-63271906D02*
X161716806Y-62704216D01*
D27*
X161677094Y-62491906D02*
X161716806Y-62491906D01*
D30*
X139779116Y-139631906D02*
X139779116Y-141271906D01*
D27*
%TO.N,/swo*%
X131590816Y-67565596D02*
X129322805Y-69833607D01*
X129322805Y-69833607D02*
X129322805Y-93316027D01*
X129322805Y-93316027D02*
X129990027Y-93983249D01*
X129990027Y-93983249D02*
X133140459Y-93983249D01*
X133140459Y-93983249D02*
X134359116Y-95201906D01*
X154063404Y-67565596D02*
X131590816Y-67565596D01*
X157859000Y-63770000D02*
X155383105Y-66245895D01*
X155383105Y-66245895D02*
X154063404Y-67565596D01*
X165611864Y-122111563D02*
X165611864Y-109743874D01*
X165540183Y-122183244D02*
X165611864Y-122111563D01*
X156058768Y-100190778D02*
X136982820Y-100190778D01*
X165611864Y-109743874D02*
X156058768Y-100190778D01*
X165540183Y-143139817D02*
X165540183Y-122183244D01*
X161670000Y-147010000D02*
X165540183Y-143139817D01*
X136982820Y-100190778D02*
X134509116Y-97717074D01*
%TO.N,/swdio*%
X131597083Y-94403395D02*
X131799147Y-94605459D01*
X128916494Y-93854752D02*
X129465137Y-94403395D01*
X129465137Y-94403395D02*
X131597083Y-94403395D01*
X155319000Y-65072022D02*
X154139116Y-66251906D01*
X128916494Y-69665308D02*
X128916494Y-93854752D01*
X131422516Y-67159286D02*
X128916494Y-69665308D01*
X153231736Y-67159286D02*
X131422516Y-67159286D01*
X155319000Y-63770000D02*
X155319000Y-65072022D01*
X154139116Y-66251906D02*
X153231736Y-67159286D01*
X161599116Y-144431906D02*
X165133872Y-140897150D01*
X155890469Y-100597089D02*
X136463439Y-100597089D01*
X165133872Y-122014949D02*
X165205554Y-121943265D01*
X165133872Y-140897150D02*
X165133872Y-122014949D01*
X133248256Y-97381906D02*
X131939116Y-97381906D01*
X136463439Y-100597089D02*
X133248256Y-97381906D01*
X165205554Y-109912174D02*
X155890469Y-100597089D01*
X165205554Y-121943265D02*
X165205554Y-109912174D01*
%TO.N,/po_wake*%
X168229116Y-58821906D02*
X179869116Y-70461906D01*
X152779000Y-61230000D02*
X155187094Y-58821906D01*
X155187094Y-58821906D02*
X168229116Y-58821906D01*
X179869116Y-92861906D02*
X175799116Y-96931906D01*
X179869116Y-70461906D02*
X179869116Y-92861906D01*
X146430000Y-129230000D02*
X143797210Y-129230000D01*
X143797210Y-129230000D02*
X143629116Y-129061906D01*
X143629116Y-129061906D02*
X143629116Y-124121906D01*
X146419116Y-121331906D02*
X146509116Y-121331906D01*
X143629116Y-124121906D02*
X146419116Y-121331906D01*
%TO.N,/swclk*%
X132070467Y-95504108D02*
X132925923Y-94648652D01*
X131066058Y-94809706D02*
X131760460Y-95504108D01*
X131760460Y-95504108D02*
X132070467Y-95504108D01*
X128510184Y-94023052D02*
X129296838Y-94809706D01*
X128510183Y-69497009D02*
X128510184Y-94023052D01*
X152779000Y-66082022D02*
X152639116Y-66221906D01*
X152108046Y-66752976D02*
X131254216Y-66752976D01*
X129296838Y-94809706D02*
X131066058Y-94809706D01*
X131254216Y-66752976D02*
X128510183Y-69497009D01*
X152779000Y-63770000D02*
X152779000Y-66082022D01*
X152639116Y-66221906D02*
X152108046Y-66752976D01*
X164727561Y-138872439D02*
X164727561Y-121846650D01*
X164799244Y-121774967D02*
X164799244Y-110080474D01*
X161670000Y-141930000D02*
X164727561Y-138872439D01*
X135910610Y-101003400D02*
X132969116Y-98061906D01*
X155722170Y-101003400D02*
X135910610Y-101003400D01*
X164799244Y-110080474D02*
X155722170Y-101003400D01*
X164727561Y-121846650D02*
X164799244Y-121774967D01*
%TO.N,/po_reset*%
X135067729Y-95444151D02*
X134601461Y-95910419D01*
X134601461Y-95910419D02*
X131592161Y-95910419D01*
X145492219Y-95444151D02*
X135067729Y-95444151D01*
X131113648Y-95431906D02*
X130419116Y-95431906D01*
X161988874Y-96011906D02*
X159841559Y-98159221D01*
X176899116Y-93601906D02*
X174489116Y-96011906D01*
X159841559Y-98159221D02*
X150514459Y-98159221D01*
X174489116Y-96011906D02*
X161988874Y-96011906D01*
X131592161Y-95910419D02*
X131113648Y-95431906D01*
X147775501Y-97727433D02*
X145492219Y-95444151D01*
X150514459Y-98159221D02*
X150082671Y-97727433D01*
X150082671Y-97727433D02*
X147775501Y-97727433D01*
X147489116Y-65481906D02*
X150219116Y-65481906D01*
X150199116Y-63731906D02*
X150199116Y-65461906D01*
X145369116Y-63361906D02*
X147489116Y-65481906D01*
X150199116Y-65461906D02*
X150219116Y-65481906D01*
X161670000Y-139390000D02*
X164321250Y-136738750D01*
X164321250Y-136738750D02*
X164321250Y-121678351D01*
X164392933Y-110248773D02*
X155553871Y-101409711D01*
X164392933Y-121606668D02*
X164392933Y-110248773D01*
X155553871Y-101409711D02*
X134946921Y-101409711D01*
X134946921Y-101409711D02*
X130669116Y-97131906D01*
X164321250Y-121678351D02*
X164392933Y-121606668D01*
X174000416Y-65481906D02*
X162499116Y-65481906D01*
X179029116Y-70510606D02*
X174000416Y-65481906D01*
X179029116Y-91461906D02*
X179029116Y-70510606D01*
X162499116Y-65481906D02*
X162489116Y-65491906D01*
X176889116Y-93601906D02*
X179029116Y-91461906D01*
D30*
%TO.N,/l_sync_out*%
X138900000Y-46900000D02*
X138900000Y-54229784D01*
X138900000Y-54229784D02*
X140476812Y-55806596D01*
D27*
%TO.N,/a_gnd*%
X178600000Y-54300000D02*
X178526094Y-54373906D01*
D30*
X129500000Y-46900000D02*
X129500000Y-49052790D01*
X129500000Y-49052790D02*
X129539116Y-49091906D01*
X176661022Y-54300000D02*
X176639116Y-54321906D01*
X178600000Y-54300000D02*
X176661022Y-54300000D01*
%TO.N,/r_sync_out*%
X171157210Y-54300000D02*
X171249116Y-54391906D01*
X169200000Y-54300000D02*
X171157210Y-54300000D01*
D27*
%TO.N,/led1*%
X126988417Y-48247033D02*
X125636203Y-46894819D01*
X130079116Y-97458540D02*
X126988417Y-94367841D01*
X145127210Y-131770000D02*
X130079116Y-116721906D01*
X126988417Y-94367841D02*
X126988417Y-50342605D01*
X130079116Y-116721906D02*
X130079116Y-97458540D01*
X146430000Y-131770000D02*
X145127210Y-131770000D01*
X126988417Y-50342605D02*
X126988417Y-48247033D01*
%TO.N,/led2*%
X163770731Y-121792943D02*
X163770731Y-121308010D01*
X161709116Y-136831906D02*
X163770731Y-134770291D01*
X163770731Y-134770291D02*
X163770731Y-121792943D01*
X183749815Y-92496140D02*
X179584049Y-96661906D01*
X182362029Y-46794819D02*
X182362029Y-83043421D01*
X182362029Y-83043421D02*
X183749815Y-84431207D01*
X183749815Y-84431207D02*
X183749815Y-92496140D01*
X179584049Y-96661906D02*
X177239116Y-96661906D01*
D30*
%TO.N,/dac*%
X168867102Y-58183920D02*
X168947102Y-58183920D01*
X172419116Y-54631906D02*
X168867102Y-58183920D01*
X173309116Y-54631906D02*
X172419116Y-54631906D01*
X137689116Y-54701906D02*
X137789116Y-54601906D01*
X136791616Y-54701906D02*
X137689116Y-54701906D01*
X136691616Y-54601906D02*
X136791616Y-54701906D01*
D27*
%TO.N,Net-(R2-Pad2)*%
X157124116Y-50641906D02*
X158109116Y-50641906D01*
X162379116Y-46981906D02*
X163339116Y-46981906D01*
X158631616Y-50729406D02*
X162379116Y-46981906D01*
X157576616Y-50729406D02*
X158631616Y-50729406D01*
%TO.N,/spi_cs*%
X161670000Y-131770000D02*
X162749301Y-130690699D01*
X162749301Y-123134108D02*
X162126914Y-122511721D01*
X162749301Y-130690699D02*
X162749301Y-123134108D01*
X162126914Y-108881389D02*
X155289129Y-102043604D01*
X162126914Y-122511721D02*
X162126914Y-108881389D01*
X154519116Y-96201906D02*
X154519116Y-96301904D01*
X154519116Y-96301904D02*
X154936217Y-96719005D01*
X154936217Y-96719005D02*
X155279116Y-97061904D01*
%TO.N,/spi_miso*%
X152169116Y-96041906D02*
X152019116Y-96191906D01*
X152844116Y-96041906D02*
X152169116Y-96041906D01*
X152019116Y-96191906D02*
X152019116Y-96545960D01*
X152019116Y-96545960D02*
X152573199Y-97100043D01*
X155273709Y-102781889D02*
X155129957Y-102781889D01*
X155129957Y-102781889D02*
X154389976Y-102041908D01*
X161670000Y-109178180D02*
X155273709Y-102781889D01*
X154389976Y-102041908D02*
X152409116Y-102041908D01*
X161670000Y-126690000D02*
X161670000Y-109178180D01*
%TO.N,/spi_clock*%
X154709116Y-104011906D02*
X154659116Y-103961906D01*
X154709116Y-116361906D02*
X154709116Y-104011906D01*
X146430000Y-124641022D02*
X154709116Y-116361906D01*
X146430000Y-126690000D02*
X146430000Y-124641022D01*
X154004116Y-96756906D02*
X154339116Y-97091906D01*
X154004116Y-96201906D02*
X154004116Y-96756906D01*
%TO.N,/sw1*%
X184969116Y-92287374D02*
X178690958Y-98565532D01*
X141450954Y-98133744D02*
X141439116Y-98121906D01*
X184969116Y-91355272D02*
X184969116Y-92287374D01*
X149914372Y-98133744D02*
X141450954Y-98133744D01*
X150346160Y-98565532D02*
X149914372Y-98133744D01*
X178690958Y-98565532D02*
X150346160Y-98565532D01*
X142969116Y-143741906D02*
X146279116Y-147051906D01*
X146279116Y-147051906D02*
X146349116Y-147051906D01*
X142969116Y-139401906D02*
X142969116Y-143741906D01*
X141449116Y-137881906D02*
X142969116Y-139401906D01*
%TO.N,/sw2*%
X146430000Y-149550000D02*
X137167831Y-149550000D01*
X137167831Y-149550000D02*
X125949116Y-138331285D01*
X123219116Y-91973987D02*
X123219116Y-90771906D01*
X125949116Y-138331285D02*
X125949116Y-94703987D01*
X125949116Y-94703987D02*
X123219116Y-91973987D01*
%TO.N,/nonstop_sw*%
X135398290Y-96688562D02*
X139084914Y-96688562D01*
X148940205Y-48791906D02*
X140750205Y-56981906D01*
X166830794Y-122616459D02*
X166759116Y-122688137D01*
X141140459Y-98744107D02*
X141737773Y-98744107D01*
X129827616Y-96489704D02*
X131022226Y-96489704D01*
X149746073Y-98540055D02*
X150177861Y-98971843D01*
X127547564Y-69310408D02*
X127547565Y-94209653D01*
X127547565Y-94209653D02*
X129827616Y-96489704D01*
X141941825Y-98540055D02*
X149746073Y-98540055D01*
X131022226Y-96489704D02*
X131292226Y-96759704D01*
X141737773Y-98744107D02*
X141941825Y-98540055D01*
X140750205Y-56981906D02*
X139876066Y-56981906D01*
X131292226Y-96759704D02*
X135327149Y-96759703D01*
X166759116Y-122688137D02*
X166759116Y-152031906D01*
X139876066Y-56981906D02*
X127547564Y-69310408D01*
X150177861Y-98971843D02*
X156689053Y-98971843D01*
X166830794Y-109113584D02*
X166830794Y-122616459D01*
X135327149Y-96759703D02*
X135398290Y-96688562D01*
X139084914Y-96688562D02*
X141140459Y-98744107D01*
X156689053Y-98971843D02*
X166830794Y-109113584D01*
X166759116Y-152031906D02*
X161932815Y-156858207D01*
X151849116Y-48791906D02*
X148940205Y-48791906D01*
%TO.N,/nonstop_led*%
X135298059Y-96066352D02*
X135082160Y-96282251D01*
X135445890Y-96066352D02*
X135298059Y-96066352D01*
X129995915Y-96083393D02*
X131190526Y-96083394D01*
X127953875Y-69478707D02*
X127953875Y-94041353D01*
X131460525Y-96353393D02*
X135158849Y-96353393D01*
X140044365Y-57388217D02*
X127953875Y-69478707D01*
X144302805Y-57388217D02*
X140044365Y-57388217D01*
X150974116Y-50716906D02*
X144302805Y-57388217D01*
X127953875Y-94041353D02*
X129995915Y-96083393D01*
X131190526Y-96083394D02*
X131460525Y-96353393D01*
X150974116Y-50641906D02*
X150974116Y-50716906D01*
X135158849Y-96353393D02*
X135445890Y-96066352D01*
X149577774Y-98946366D02*
X142110124Y-98946366D01*
X141906072Y-99150418D02*
X137373201Y-99150418D01*
X161670000Y-154630000D02*
X166352805Y-149947195D01*
X166352805Y-122519838D02*
X166424484Y-122448159D01*
X166352805Y-149947195D02*
X166352805Y-122519838D01*
X150009562Y-99378154D02*
X149577774Y-98946366D01*
X137373201Y-99150418D02*
X135559624Y-97336841D01*
X142110124Y-98946366D02*
X141906072Y-99150418D01*
X156395364Y-99378154D02*
X150009562Y-99378154D01*
X166424484Y-122448159D02*
X166424484Y-109407274D01*
X166424484Y-109407274D02*
X156395364Y-99378154D01*
%TO.N,/imu_int1*%
X152844116Y-94541906D02*
X152467816Y-94541906D01*
X152467816Y-94541906D02*
X151457816Y-95551906D01*
X151457816Y-95551906D02*
X149339116Y-95551906D01*
X161670000Y-152090000D02*
X165946494Y-147813506D01*
X165946494Y-122351543D02*
X166018174Y-122279861D01*
X166018174Y-109575574D02*
X156227065Y-99784465D01*
X156227065Y-99784465D02*
X149495013Y-99784465D01*
X149495013Y-99784465D02*
X149279116Y-99568568D01*
X165946494Y-147813506D02*
X165946494Y-122351543D01*
X166018174Y-122279861D02*
X166018174Y-109575574D01*
%TO.N,/spi_mosi*%
X153504116Y-96998228D02*
X153411263Y-97091081D01*
X153504116Y-96201906D02*
X153504116Y-96998228D01*
X161262806Y-120933607D02*
X161263690Y-120932723D01*
X161263690Y-109346480D02*
X155105410Y-103188200D01*
X161262806Y-121554815D02*
X161262806Y-120933607D01*
X160590699Y-126171935D02*
X161151935Y-125610699D01*
X160590699Y-127208065D02*
X160590699Y-126171935D01*
X161759116Y-128753674D02*
X161759116Y-127769301D01*
X161670000Y-128842790D02*
X161759116Y-128753674D01*
X161759116Y-127769301D02*
X161151935Y-127769301D01*
X155105410Y-103188200D02*
X153909517Y-103188200D01*
X161263690Y-120932723D02*
X161263690Y-109346480D01*
X161151935Y-127769301D02*
X160590699Y-127208065D01*
X161151935Y-125610699D02*
X161263690Y-125610699D01*
X161263690Y-125610699D02*
X161263690Y-121555699D01*
X161263690Y-121555699D02*
X161262806Y-121554815D01*
X161670000Y-129230000D02*
X161670000Y-128842790D01*
%TO.N,/po_play*%
X146430000Y-134310000D02*
X129380448Y-117260448D01*
X129380448Y-117260448D02*
X129380448Y-97933238D01*
X129729116Y-92691906D02*
X130389116Y-93351906D01*
X131759116Y-67971906D02*
X129729116Y-70001906D01*
X158090608Y-67971906D02*
X131759116Y-67971906D01*
X162339116Y-61241906D02*
X162339116Y-63723398D01*
X162327210Y-61230000D02*
X162339116Y-61241906D01*
X129729116Y-70001906D02*
X129729116Y-92691906D01*
X160399000Y-61230000D02*
X162327210Y-61230000D01*
X162339116Y-63723398D02*
X158090608Y-67971906D01*
%TD*%
%TO.N,Earth*%
X183037117Y-153719805D02*
X183001347Y-153765164D01*
X182957838Y-153818777D01*
X182952039Y-153827688D01*
X182952035Y-153827693D01*
X182952032Y-153827698D01*
X182817159Y-154038110D01*
X182785737Y-154099621D01*
X182753466Y-154160673D01*
X182749507Y-154170543D01*
X182749504Y-154170548D01*
X182749502Y-154170554D01*
X182658067Y-154403155D01*
X182639192Y-154469595D01*
X182619394Y-154535751D01*
X182617426Y-154546207D01*
X182572909Y-154792144D01*
X182567297Y-154860983D01*
X182560726Y-154929735D01*
X182560827Y-154940359D01*
X182560826Y-154940369D01*
X182560827Y-154940374D01*
X182564929Y-155190275D01*
X182572795Y-155258889D01*
X182579702Y-155327602D01*
X182581867Y-155338019D01*
X182634429Y-155582364D01*
X182655474Y-155648148D01*
X182675596Y-155714212D01*
X182679743Y-155724009D01*
X182778764Y-155953490D01*
X182812184Y-156013929D01*
X182844757Y-156074831D01*
X182850728Y-156083636D01*
X182992437Y-156289514D01*
X183036960Y-156342312D01*
X183037209Y-156342615D01*
X183037990Y-158994742D01*
X183010821Y-159271826D01*
X182941141Y-159502619D01*
X182827966Y-159715471D01*
X182675599Y-159902291D01*
X182489847Y-160055959D01*
X182277787Y-160170619D01*
X182047497Y-160241906D01*
X181772759Y-160270782D01*
X163106608Y-160264880D01*
X163105000Y-159995750D01*
X162946250Y-159837000D01*
X161797000Y-159837000D01*
X161797000Y-159857000D01*
X161543000Y-159857000D01*
X161543000Y-159837000D01*
X160393750Y-159837000D01*
X160235000Y-159995750D01*
X160233398Y-160263971D01*
X147755404Y-160260026D01*
X147809853Y-160128574D01*
X147865000Y-159851335D01*
X147865000Y-159568665D01*
X147809853Y-159291426D01*
X147701680Y-159030273D01*
X147544637Y-158795241D01*
X147344759Y-158595363D01*
X147112241Y-158440000D01*
X147344759Y-158284637D01*
X147544637Y-158084759D01*
X147701680Y-157849727D01*
X147809853Y-157588574D01*
X147865000Y-157311335D01*
X147865000Y-157028665D01*
X147809853Y-156751426D01*
X147701680Y-156490273D01*
X147544637Y-156255241D01*
X147344759Y-156055363D01*
X147112241Y-155900000D01*
X147344759Y-155744637D01*
X147544637Y-155544759D01*
X147701680Y-155309727D01*
X147809853Y-155048574D01*
X147865000Y-154771335D01*
X147865000Y-154488665D01*
X147809853Y-154211426D01*
X147701680Y-153950273D01*
X147544637Y-153715241D01*
X147344759Y-153515363D01*
X147112241Y-153360000D01*
X147344759Y-153204637D01*
X147544637Y-153004759D01*
X147701680Y-152769727D01*
X147809853Y-152508574D01*
X147865000Y-152231335D01*
X147865000Y-151948665D01*
X147809853Y-151671426D01*
X147701680Y-151410273D01*
X147544637Y-151175241D01*
X147344759Y-150975363D01*
X147112241Y-150820000D01*
X147344759Y-150664637D01*
X147544637Y-150464759D01*
X147701680Y-150229727D01*
X147809853Y-149968574D01*
X147865000Y-149691335D01*
X147865000Y-149408665D01*
X147809853Y-149131426D01*
X147701680Y-148870273D01*
X147544637Y-148635241D01*
X147344759Y-148435363D01*
X147112241Y-148280000D01*
X147344759Y-148124637D01*
X147544637Y-147924759D01*
X147701680Y-147689727D01*
X147809853Y-147428574D01*
X147865000Y-147151335D01*
X147865000Y-146868665D01*
X147809853Y-146591426D01*
X147701680Y-146330273D01*
X147544637Y-146095241D01*
X147344759Y-145895363D01*
X147112241Y-145740000D01*
X147344759Y-145584637D01*
X147544637Y-145384759D01*
X147701680Y-145149727D01*
X147809853Y-144888574D01*
X147865000Y-144611335D01*
X147865000Y-144328665D01*
X147809853Y-144051426D01*
X147701680Y-143790273D01*
X147544637Y-143555241D01*
X147344759Y-143355363D01*
X147112241Y-143200000D01*
X147344759Y-143044637D01*
X147544637Y-142844759D01*
X147701680Y-142609727D01*
X147809853Y-142348574D01*
X147865000Y-142071335D01*
X147865000Y-141788665D01*
X147809853Y-141511426D01*
X147701680Y-141250273D01*
X147544637Y-141015241D01*
X147344759Y-140815363D01*
X147112241Y-140660000D01*
X147344759Y-140504637D01*
X147544637Y-140304759D01*
X147701680Y-140069727D01*
X147809853Y-139808574D01*
X147865000Y-139531335D01*
X147865000Y-139248665D01*
X147809853Y-138971426D01*
X147701680Y-138710273D01*
X147544637Y-138475241D01*
X147344759Y-138275363D01*
X147112241Y-138120000D01*
X147344759Y-137964637D01*
X147544637Y-137764759D01*
X147701680Y-137529727D01*
X147703430Y-137525503D01*
X147723860Y-137565599D01*
X147730364Y-137578364D01*
X148250179Y-138426623D01*
X148250181Y-138426627D01*
X148320464Y-138523363D01*
X148966573Y-139279858D01*
X148966578Y-139279865D01*
X148987915Y-139301202D01*
X149051127Y-139364415D01*
X149051134Y-139364420D01*
X149807623Y-140010521D01*
X149807630Y-140010528D01*
X149904365Y-140080810D01*
X150752628Y-140600626D01*
X150859167Y-140654911D01*
X150859178Y-140654915D01*
X151778294Y-141035625D01*
X151778304Y-141035630D01*
X151892024Y-141072579D01*
X152859401Y-141304826D01*
X152977501Y-141323531D01*
X153969301Y-141401587D01*
X153989098Y-141401587D01*
X153989300Y-141401619D01*
X153999029Y-141401619D01*
X154027867Y-141403935D01*
X154047867Y-141403967D01*
X154078327Y-141401619D01*
X154108872Y-141401619D01*
X155100671Y-141323563D01*
X155100672Y-141323563D01*
X155218771Y-141304858D01*
X156186149Y-141072610D01*
X156299868Y-141035660D01*
X156299872Y-141035658D01*
X157219004Y-140654943D01*
X157325543Y-140600659D01*
X157325546Y-140600657D01*
X158173803Y-140080843D01*
X158173807Y-140080841D01*
X158270543Y-140010558D01*
X159027038Y-139364449D01*
X159027045Y-139364444D01*
X159090287Y-139301202D01*
X159111595Y-139279895D01*
X159111600Y-139279888D01*
X159757701Y-138523399D01*
X159757708Y-138523392D01*
X159827990Y-138426657D01*
X160347806Y-137578394D01*
X160386789Y-137501887D01*
X160398320Y-137529727D01*
X160555363Y-137764759D01*
X160755241Y-137964637D01*
X160987759Y-138120000D01*
X160755241Y-138275363D01*
X160555363Y-138475241D01*
X160398320Y-138710273D01*
X160290147Y-138971426D01*
X160235000Y-139248665D01*
X160235000Y-139531335D01*
X160290147Y-139808574D01*
X160398320Y-140069727D01*
X160555363Y-140304759D01*
X160755241Y-140504637D01*
X160987759Y-140660000D01*
X160755241Y-140815363D01*
X160555363Y-141015241D01*
X160398320Y-141250273D01*
X160290147Y-141511426D01*
X160235000Y-141788665D01*
X160235000Y-142071335D01*
X160290147Y-142348574D01*
X160398320Y-142609727D01*
X160555363Y-142844759D01*
X160755241Y-143044637D01*
X160987759Y-143200000D01*
X160755241Y-143355363D01*
X160555363Y-143555241D01*
X160398320Y-143790273D01*
X160290147Y-144051426D01*
X160235000Y-144328665D01*
X160235000Y-144611335D01*
X160290147Y-144888574D01*
X160398320Y-145149727D01*
X160555363Y-145384759D01*
X160755241Y-145584637D01*
X160987759Y-145740000D01*
X160755241Y-145895363D01*
X160555363Y-146095241D01*
X160398320Y-146330273D01*
X160290147Y-146591426D01*
X160235000Y-146868665D01*
X160235000Y-147151335D01*
X160290147Y-147428574D01*
X160398320Y-147689727D01*
X160555363Y-147924759D01*
X160755241Y-148124637D01*
X160987759Y-148280000D01*
X160755241Y-148435363D01*
X160555363Y-148635241D01*
X160398320Y-148870273D01*
X160290147Y-149131426D01*
X160235000Y-149408665D01*
X160235000Y-149691335D01*
X160290147Y-149968574D01*
X160398320Y-150229727D01*
X160555363Y-150464759D01*
X160755241Y-150664637D01*
X160987759Y-150820000D01*
X160755241Y-150975363D01*
X160555363Y-151175241D01*
X160398320Y-151410273D01*
X160290147Y-151671426D01*
X160235000Y-151948665D01*
X160235000Y-152231335D01*
X160290147Y-152508574D01*
X160398320Y-152769727D01*
X160555363Y-153004759D01*
X160755241Y-153204637D01*
X160987759Y-153360000D01*
X160755241Y-153515363D01*
X160555363Y-153715241D01*
X160398320Y-153950273D01*
X160290147Y-154211426D01*
X160235000Y-154488665D01*
X160235000Y-154771335D01*
X160290147Y-155048574D01*
X160398320Y-155309727D01*
X160555363Y-155544759D01*
X160755241Y-155744637D01*
X160987759Y-155900000D01*
X160755241Y-156055363D01*
X160555363Y-156255241D01*
X160398320Y-156490273D01*
X160290147Y-156751426D01*
X160235000Y-157028665D01*
X160235000Y-157311335D01*
X160290147Y-157588574D01*
X160398320Y-157849727D01*
X160555363Y-158084759D01*
X160753961Y-158283357D01*
X160745518Y-158284188D01*
X160625820Y-158320498D01*
X160515506Y-158379463D01*
X160418815Y-158458815D01*
X160339463Y-158555506D01*
X160280498Y-158665820D01*
X160244188Y-158785518D01*
X160231928Y-158910000D01*
X160235000Y-159424250D01*
X160393750Y-159583000D01*
X161543000Y-159583000D01*
X161543000Y-159563000D01*
X161797000Y-159563000D01*
X161797000Y-159583000D01*
X162946250Y-159583000D01*
X163105000Y-159424250D01*
X163108072Y-158910000D01*
X163095812Y-158785518D01*
X163059502Y-158665820D01*
X163000537Y-158555506D01*
X162921185Y-158458815D01*
X162824494Y-158379463D01*
X162714180Y-158320498D01*
X162594482Y-158284188D01*
X162586039Y-158283357D01*
X162784637Y-158084759D01*
X162941680Y-157849727D01*
X163049853Y-157588574D01*
X163105000Y-157311335D01*
X163105000Y-157028665D01*
X163061031Y-156807621D01*
X163968652Y-155900000D01*
X172729041Y-155900000D01*
X172746128Y-156073490D01*
X172796734Y-156240313D01*
X172878912Y-156394059D01*
X172989506Y-156528817D01*
X173124264Y-156639411D01*
X173278010Y-156721589D01*
X173444833Y-156772195D01*
X173526616Y-156780250D01*
X173529528Y-156789850D01*
X173611595Y-156943386D01*
X173722038Y-157077962D01*
X173856614Y-157188405D01*
X174010150Y-157270472D01*
X174176746Y-157321008D01*
X174350000Y-157338072D01*
X176850000Y-157338072D01*
X177023254Y-157321008D01*
X177189850Y-157270472D01*
X177343386Y-157188405D01*
X177477962Y-157077962D01*
X177588405Y-156943386D01*
X177670472Y-156789850D01*
X177697727Y-156700000D01*
X177861928Y-156700000D01*
X177874188Y-156824482D01*
X177910498Y-156944180D01*
X177969463Y-157054494D01*
X178048815Y-157151185D01*
X178145506Y-157230537D01*
X178255820Y-157289502D01*
X178375518Y-157325812D01*
X178500000Y-157338072D01*
X179714250Y-157335000D01*
X179873000Y-157176250D01*
X179873000Y-156027000D01*
X180127000Y-156027000D01*
X180127000Y-157176250D01*
X180285750Y-157335000D01*
X181500000Y-157338072D01*
X181624482Y-157325812D01*
X181744180Y-157289502D01*
X181854494Y-157230537D01*
X181951185Y-157151185D01*
X182030537Y-157054494D01*
X182089502Y-156944180D01*
X182125812Y-156824482D01*
X182138072Y-156700000D01*
X182135000Y-156185750D01*
X181976250Y-156027000D01*
X180127000Y-156027000D01*
X179873000Y-156027000D01*
X178023750Y-156027000D01*
X177865000Y-156185750D01*
X177861928Y-156700000D01*
X177697727Y-156700000D01*
X177721008Y-156623254D01*
X177738072Y-156450000D01*
X177738072Y-155350000D01*
X177721008Y-155176746D01*
X177697728Y-155100000D01*
X177861928Y-155100000D01*
X177865000Y-155614250D01*
X178023750Y-155773000D01*
X179873000Y-155773000D01*
X179873000Y-154623750D01*
X180127000Y-154623750D01*
X180127000Y-155773000D01*
X181976250Y-155773000D01*
X182135000Y-155614250D01*
X182138072Y-155100000D01*
X182125812Y-154975518D01*
X182089502Y-154855820D01*
X182030537Y-154745506D01*
X181951185Y-154648815D01*
X181854494Y-154569463D01*
X181744180Y-154510498D01*
X181624482Y-154474188D01*
X181500000Y-154461928D01*
X180285750Y-154465000D01*
X180127000Y-154623750D01*
X179873000Y-154623750D01*
X179714250Y-154465000D01*
X178500000Y-154461928D01*
X178375518Y-154474188D01*
X178255820Y-154510498D01*
X178145506Y-154569463D01*
X178048815Y-154648815D01*
X177969463Y-154745506D01*
X177910498Y-154855820D01*
X177874188Y-154975518D01*
X177861928Y-155100000D01*
X177697728Y-155100000D01*
X177670472Y-155010150D01*
X177588405Y-154856614D01*
X177477962Y-154722038D01*
X177343386Y-154611595D01*
X177189850Y-154529528D01*
X177023254Y-154478992D01*
X176850000Y-154461928D01*
X174350000Y-154461928D01*
X174176746Y-154478992D01*
X174010150Y-154529528D01*
X173856614Y-154611595D01*
X173722038Y-154722038D01*
X173611595Y-154856614D01*
X173529528Y-155010150D01*
X173526616Y-155019750D01*
X173444833Y-155027805D01*
X173278010Y-155078411D01*
X173124264Y-155160589D01*
X172989506Y-155271183D01*
X172878912Y-155405941D01*
X172796734Y-155559687D01*
X172746128Y-155726510D01*
X172729041Y-155900000D01*
X163968652Y-155900000D01*
X167271468Y-152597185D01*
X167300538Y-152573328D01*
X167395761Y-152457298D01*
X167466518Y-152324921D01*
X167510090Y-152181284D01*
X167521116Y-152069332D01*
X167521116Y-152069330D01*
X167524802Y-152031907D01*
X167521116Y-151994484D01*
X167521116Y-122941428D01*
X167538196Y-122909474D01*
X167581768Y-122765837D01*
X167592794Y-122653885D01*
X167592794Y-122653882D01*
X167596480Y-122616459D01*
X167592794Y-122579036D01*
X167592794Y-109151007D01*
X167596480Y-109113584D01*
X167588885Y-109036472D01*
X167581768Y-108964206D01*
X167538196Y-108820569D01*
X167490860Y-108732010D01*
X167467439Y-108688191D01*
X167425228Y-108636758D01*
X167372216Y-108572162D01*
X167343141Y-108548301D01*
X158122372Y-99327532D01*
X178653535Y-99327532D01*
X178690958Y-99331218D01*
X178728381Y-99327532D01*
X178728384Y-99327532D01*
X178840336Y-99316506D01*
X178983973Y-99272934D01*
X179116350Y-99202177D01*
X179232380Y-99106954D01*
X179256242Y-99077878D01*
X183037116Y-95297005D01*
X183037117Y-153719805D01*
%TA.AperFunction,Conductor*%
D32*
G36*
X183037117Y-153719805D02*
G01*
X183001347Y-153765164D01*
X182957838Y-153818777D01*
X182952039Y-153827688D01*
X182952035Y-153827693D01*
X182952032Y-153827698D01*
X182817159Y-154038110D01*
X182785737Y-154099621D01*
X182753466Y-154160673D01*
X182749507Y-154170543D01*
X182749504Y-154170548D01*
X182749502Y-154170554D01*
X182658067Y-154403155D01*
X182639192Y-154469595D01*
X182619394Y-154535751D01*
X182617426Y-154546207D01*
X182572909Y-154792144D01*
X182567297Y-154860983D01*
X182560726Y-154929735D01*
X182560827Y-154940359D01*
X182560826Y-154940369D01*
X182560827Y-154940374D01*
X182564929Y-155190275D01*
X182572795Y-155258889D01*
X182579702Y-155327602D01*
X182581867Y-155338019D01*
X182634429Y-155582364D01*
X182655474Y-155648148D01*
X182675596Y-155714212D01*
X182679743Y-155724009D01*
X182778764Y-155953490D01*
X182812184Y-156013929D01*
X182844757Y-156074831D01*
X182850728Y-156083636D01*
X182992437Y-156289514D01*
X183036960Y-156342312D01*
X183037209Y-156342615D01*
X183037990Y-158994742D01*
X183010821Y-159271826D01*
X182941141Y-159502619D01*
X182827966Y-159715471D01*
X182675599Y-159902291D01*
X182489847Y-160055959D01*
X182277787Y-160170619D01*
X182047497Y-160241906D01*
X181772759Y-160270782D01*
X163106608Y-160264880D01*
X163105000Y-159995750D01*
X162946250Y-159837000D01*
X161797000Y-159837000D01*
X161797000Y-159857000D01*
X161543000Y-159857000D01*
X161543000Y-159837000D01*
X160393750Y-159837000D01*
X160235000Y-159995750D01*
X160233398Y-160263971D01*
X147755404Y-160260026D01*
X147809853Y-160128574D01*
X147865000Y-159851335D01*
X147865000Y-159568665D01*
X147809853Y-159291426D01*
X147701680Y-159030273D01*
X147544637Y-158795241D01*
X147344759Y-158595363D01*
X147112241Y-158440000D01*
X147344759Y-158284637D01*
X147544637Y-158084759D01*
X147701680Y-157849727D01*
X147809853Y-157588574D01*
X147865000Y-157311335D01*
X147865000Y-157028665D01*
X147809853Y-156751426D01*
X147701680Y-156490273D01*
X147544637Y-156255241D01*
X147344759Y-156055363D01*
X147112241Y-155900000D01*
X147344759Y-155744637D01*
X147544637Y-155544759D01*
X147701680Y-155309727D01*
X147809853Y-155048574D01*
X147865000Y-154771335D01*
X147865000Y-154488665D01*
X147809853Y-154211426D01*
X147701680Y-153950273D01*
X147544637Y-153715241D01*
X147344759Y-153515363D01*
X147112241Y-153360000D01*
X147344759Y-153204637D01*
X147544637Y-153004759D01*
X147701680Y-152769727D01*
X147809853Y-152508574D01*
X147865000Y-152231335D01*
X147865000Y-151948665D01*
X147809853Y-151671426D01*
X147701680Y-151410273D01*
X147544637Y-151175241D01*
X147344759Y-150975363D01*
X147112241Y-150820000D01*
X147344759Y-150664637D01*
X147544637Y-150464759D01*
X147701680Y-150229727D01*
X147809853Y-149968574D01*
X147865000Y-149691335D01*
X147865000Y-149408665D01*
X147809853Y-149131426D01*
X147701680Y-148870273D01*
X147544637Y-148635241D01*
X147344759Y-148435363D01*
X147112241Y-148280000D01*
X147344759Y-148124637D01*
X147544637Y-147924759D01*
X147701680Y-147689727D01*
X147809853Y-147428574D01*
X147865000Y-147151335D01*
X147865000Y-146868665D01*
X147809853Y-146591426D01*
X147701680Y-146330273D01*
X147544637Y-146095241D01*
X147344759Y-145895363D01*
X147112241Y-145740000D01*
X147344759Y-145584637D01*
X147544637Y-145384759D01*
X147701680Y-145149727D01*
X147809853Y-144888574D01*
X147865000Y-144611335D01*
X147865000Y-144328665D01*
X147809853Y-144051426D01*
X147701680Y-143790273D01*
X147544637Y-143555241D01*
X147344759Y-143355363D01*
X147112241Y-143200000D01*
X147344759Y-143044637D01*
X147544637Y-142844759D01*
X147701680Y-142609727D01*
X147809853Y-142348574D01*
X147865000Y-142071335D01*
X147865000Y-141788665D01*
X147809853Y-141511426D01*
X147701680Y-141250273D01*
X147544637Y-141015241D01*
X147344759Y-140815363D01*
X147112241Y-140660000D01*
X147344759Y-140504637D01*
X147544637Y-140304759D01*
X147701680Y-140069727D01*
X147809853Y-139808574D01*
X147865000Y-139531335D01*
X147865000Y-139248665D01*
X147809853Y-138971426D01*
X147701680Y-138710273D01*
X147544637Y-138475241D01*
X147344759Y-138275363D01*
X147112241Y-138120000D01*
X147344759Y-137964637D01*
X147544637Y-137764759D01*
X147701680Y-137529727D01*
X147703430Y-137525503D01*
X147723860Y-137565599D01*
X147730364Y-137578364D01*
X148250179Y-138426623D01*
X148250181Y-138426627D01*
X148320464Y-138523363D01*
X148966573Y-139279858D01*
X148966578Y-139279865D01*
X148987915Y-139301202D01*
X149051127Y-139364415D01*
X149051134Y-139364420D01*
X149807623Y-140010521D01*
X149807630Y-140010528D01*
X149904365Y-140080810D01*
X150752628Y-140600626D01*
X150859167Y-140654911D01*
X150859178Y-140654915D01*
X151778294Y-141035625D01*
X151778304Y-141035630D01*
X151892024Y-141072579D01*
X152859401Y-141304826D01*
X152977501Y-141323531D01*
X153969301Y-141401587D01*
X153989098Y-141401587D01*
X153989300Y-141401619D01*
X153999029Y-141401619D01*
X154027867Y-141403935D01*
X154047867Y-141403967D01*
X154078327Y-141401619D01*
X154108872Y-141401619D01*
X155100671Y-141323563D01*
X155100672Y-141323563D01*
X155218771Y-141304858D01*
X156186149Y-141072610D01*
X156299868Y-141035660D01*
X156299872Y-141035658D01*
X157219004Y-140654943D01*
X157325543Y-140600659D01*
X157325546Y-140600657D01*
X158173803Y-140080843D01*
X158173807Y-140080841D01*
X158270543Y-140010558D01*
X159027038Y-139364449D01*
X159027045Y-139364444D01*
X159090287Y-139301202D01*
X159111595Y-139279895D01*
X159111600Y-139279888D01*
X159757701Y-138523399D01*
X159757708Y-138523392D01*
X159827990Y-138426657D01*
X160347806Y-137578394D01*
X160386789Y-137501887D01*
X160398320Y-137529727D01*
X160555363Y-137764759D01*
X160755241Y-137964637D01*
X160987759Y-138120000D01*
X160755241Y-138275363D01*
X160555363Y-138475241D01*
X160398320Y-138710273D01*
X160290147Y-138971426D01*
X160235000Y-139248665D01*
X160235000Y-139531335D01*
X160290147Y-139808574D01*
X160398320Y-140069727D01*
X160555363Y-140304759D01*
X160755241Y-140504637D01*
X160987759Y-140660000D01*
X160755241Y-140815363D01*
X160555363Y-141015241D01*
X160398320Y-141250273D01*
X160290147Y-141511426D01*
X160235000Y-141788665D01*
X160235000Y-142071335D01*
X160290147Y-142348574D01*
X160398320Y-142609727D01*
X160555363Y-142844759D01*
X160755241Y-143044637D01*
X160987759Y-143200000D01*
X160755241Y-143355363D01*
X160555363Y-143555241D01*
X160398320Y-143790273D01*
X160290147Y-144051426D01*
X160235000Y-144328665D01*
X160235000Y-144611335D01*
X160290147Y-144888574D01*
X160398320Y-145149727D01*
X160555363Y-145384759D01*
X160755241Y-145584637D01*
X160987759Y-145740000D01*
X160755241Y-145895363D01*
X160555363Y-146095241D01*
X160398320Y-146330273D01*
X160290147Y-146591426D01*
X160235000Y-146868665D01*
X160235000Y-147151335D01*
X160290147Y-147428574D01*
X160398320Y-147689727D01*
X160555363Y-147924759D01*
X160755241Y-148124637D01*
X160987759Y-148280000D01*
X160755241Y-148435363D01*
X160555363Y-148635241D01*
X160398320Y-148870273D01*
X160290147Y-149131426D01*
X160235000Y-149408665D01*
X160235000Y-149691335D01*
X160290147Y-149968574D01*
X160398320Y-150229727D01*
X160555363Y-150464759D01*
X160755241Y-150664637D01*
X160987759Y-150820000D01*
X160755241Y-150975363D01*
X160555363Y-151175241D01*
X160398320Y-151410273D01*
X160290147Y-151671426D01*
X160235000Y-151948665D01*
X160235000Y-152231335D01*
X160290147Y-152508574D01*
X160398320Y-152769727D01*
X160555363Y-153004759D01*
X160755241Y-153204637D01*
X160987759Y-153360000D01*
X160755241Y-153515363D01*
X160555363Y-153715241D01*
X160398320Y-153950273D01*
X160290147Y-154211426D01*
X160235000Y-154488665D01*
X160235000Y-154771335D01*
X160290147Y-155048574D01*
X160398320Y-155309727D01*
X160555363Y-155544759D01*
X160755241Y-155744637D01*
X160987759Y-155900000D01*
X160755241Y-156055363D01*
X160555363Y-156255241D01*
X160398320Y-156490273D01*
X160290147Y-156751426D01*
X160235000Y-157028665D01*
X160235000Y-157311335D01*
X160290147Y-157588574D01*
X160398320Y-157849727D01*
X160555363Y-158084759D01*
X160753961Y-158283357D01*
X160745518Y-158284188D01*
X160625820Y-158320498D01*
X160515506Y-158379463D01*
X160418815Y-158458815D01*
X160339463Y-158555506D01*
X160280498Y-158665820D01*
X160244188Y-158785518D01*
X160231928Y-158910000D01*
X160235000Y-159424250D01*
X160393750Y-159583000D01*
X161543000Y-159583000D01*
X161543000Y-159563000D01*
X161797000Y-159563000D01*
X161797000Y-159583000D01*
X162946250Y-159583000D01*
X163105000Y-159424250D01*
X163108072Y-158910000D01*
X163095812Y-158785518D01*
X163059502Y-158665820D01*
X163000537Y-158555506D01*
X162921185Y-158458815D01*
X162824494Y-158379463D01*
X162714180Y-158320498D01*
X162594482Y-158284188D01*
X162586039Y-158283357D01*
X162784637Y-158084759D01*
X162941680Y-157849727D01*
X163049853Y-157588574D01*
X163105000Y-157311335D01*
X163105000Y-157028665D01*
X163061031Y-156807621D01*
X163968652Y-155900000D01*
X172729041Y-155900000D01*
X172746128Y-156073490D01*
X172796734Y-156240313D01*
X172878912Y-156394059D01*
X172989506Y-156528817D01*
X173124264Y-156639411D01*
X173278010Y-156721589D01*
X173444833Y-156772195D01*
X173526616Y-156780250D01*
X173529528Y-156789850D01*
X173611595Y-156943386D01*
X173722038Y-157077962D01*
X173856614Y-157188405D01*
X174010150Y-157270472D01*
X174176746Y-157321008D01*
X174350000Y-157338072D01*
X176850000Y-157338072D01*
X177023254Y-157321008D01*
X177189850Y-157270472D01*
X177343386Y-157188405D01*
X177477962Y-157077962D01*
X177588405Y-156943386D01*
X177670472Y-156789850D01*
X177697727Y-156700000D01*
X177861928Y-156700000D01*
X177874188Y-156824482D01*
X177910498Y-156944180D01*
X177969463Y-157054494D01*
X178048815Y-157151185D01*
X178145506Y-157230537D01*
X178255820Y-157289502D01*
X178375518Y-157325812D01*
X178500000Y-157338072D01*
X179714250Y-157335000D01*
X179873000Y-157176250D01*
X179873000Y-156027000D01*
X180127000Y-156027000D01*
X180127000Y-157176250D01*
X180285750Y-157335000D01*
X181500000Y-157338072D01*
X181624482Y-157325812D01*
X181744180Y-157289502D01*
X181854494Y-157230537D01*
X181951185Y-157151185D01*
X182030537Y-157054494D01*
X182089502Y-156944180D01*
X182125812Y-156824482D01*
X182138072Y-156700000D01*
X182135000Y-156185750D01*
X181976250Y-156027000D01*
X180127000Y-156027000D01*
X179873000Y-156027000D01*
X178023750Y-156027000D01*
X177865000Y-156185750D01*
X177861928Y-156700000D01*
X177697727Y-156700000D01*
X177721008Y-156623254D01*
X177738072Y-156450000D01*
X177738072Y-155350000D01*
X177721008Y-155176746D01*
X177697728Y-155100000D01*
X177861928Y-155100000D01*
X177865000Y-155614250D01*
X178023750Y-155773000D01*
X179873000Y-155773000D01*
X179873000Y-154623750D01*
X180127000Y-154623750D01*
X180127000Y-155773000D01*
X181976250Y-155773000D01*
X182135000Y-155614250D01*
X182138072Y-155100000D01*
X182125812Y-154975518D01*
X182089502Y-154855820D01*
X182030537Y-154745506D01*
X181951185Y-154648815D01*
X181854494Y-154569463D01*
X181744180Y-154510498D01*
X181624482Y-154474188D01*
X181500000Y-154461928D01*
X180285750Y-154465000D01*
X180127000Y-154623750D01*
X179873000Y-154623750D01*
X179714250Y-154465000D01*
X178500000Y-154461928D01*
X178375518Y-154474188D01*
X178255820Y-154510498D01*
X178145506Y-154569463D01*
X178048815Y-154648815D01*
X177969463Y-154745506D01*
X177910498Y-154855820D01*
X177874188Y-154975518D01*
X177861928Y-155100000D01*
X177697728Y-155100000D01*
X177670472Y-155010150D01*
X177588405Y-154856614D01*
X177477962Y-154722038D01*
X177343386Y-154611595D01*
X177189850Y-154529528D01*
X177023254Y-154478992D01*
X176850000Y-154461928D01*
X174350000Y-154461928D01*
X174176746Y-154478992D01*
X174010150Y-154529528D01*
X173856614Y-154611595D01*
X173722038Y-154722038D01*
X173611595Y-154856614D01*
X173529528Y-155010150D01*
X173526616Y-155019750D01*
X173444833Y-155027805D01*
X173278010Y-155078411D01*
X173124264Y-155160589D01*
X172989506Y-155271183D01*
X172878912Y-155405941D01*
X172796734Y-155559687D01*
X172746128Y-155726510D01*
X172729041Y-155900000D01*
X163968652Y-155900000D01*
X167271468Y-152597185D01*
X167300538Y-152573328D01*
X167395761Y-152457298D01*
X167466518Y-152324921D01*
X167510090Y-152181284D01*
X167521116Y-152069332D01*
X167521116Y-152069330D01*
X167524802Y-152031907D01*
X167521116Y-151994484D01*
X167521116Y-122941428D01*
X167538196Y-122909474D01*
X167581768Y-122765837D01*
X167592794Y-122653885D01*
X167592794Y-122653882D01*
X167596480Y-122616459D01*
X167592794Y-122579036D01*
X167592794Y-109151007D01*
X167596480Y-109113584D01*
X167588885Y-109036472D01*
X167581768Y-108964206D01*
X167538196Y-108820569D01*
X167490860Y-108732010D01*
X167467439Y-108688191D01*
X167425228Y-108636758D01*
X167372216Y-108572162D01*
X167343141Y-108548301D01*
X158122372Y-99327532D01*
X178653535Y-99327532D01*
X178690958Y-99331218D01*
X178728381Y-99327532D01*
X178728384Y-99327532D01*
X178840336Y-99316506D01*
X178983973Y-99272934D01*
X179116350Y-99202177D01*
X179232380Y-99106954D01*
X179256242Y-99077878D01*
X183037116Y-95297005D01*
X183037117Y-153719805D01*
G37*
%TD.AperFunction*%
D27*
X125187117Y-95019619D02*
X125187116Y-138293862D01*
X125183430Y-138331285D01*
X125187116Y-138368708D01*
X125187116Y-138368710D01*
X125198142Y-138480662D01*
X125241714Y-138624299D01*
X125255950Y-138650932D01*
X125312471Y-138756677D01*
X125338312Y-138788164D01*
X125407694Y-138872707D01*
X125436770Y-138896569D01*
X136602552Y-150062352D01*
X136626409Y-150091422D01*
X136655479Y-150115279D01*
X136742438Y-150186645D01*
X136813195Y-150224465D01*
X136874816Y-150257402D01*
X137018453Y-150300974D01*
X137130405Y-150312000D01*
X137130408Y-150312000D01*
X137167831Y-150315686D01*
X137205254Y-150312000D01*
X145213293Y-150312000D01*
X145315363Y-150464759D01*
X145515241Y-150664637D01*
X145747759Y-150820000D01*
X145515241Y-150975363D01*
X145315363Y-151175241D01*
X145158320Y-151410273D01*
X145050147Y-151671426D01*
X144995000Y-151948665D01*
X144995000Y-152231335D01*
X145050147Y-152508574D01*
X145158320Y-152769727D01*
X145315363Y-153004759D01*
X145515241Y-153204637D01*
X145747759Y-153360000D01*
X145515241Y-153515363D01*
X145315363Y-153715241D01*
X145158320Y-153950273D01*
X145050147Y-154211426D01*
X144995000Y-154488665D01*
X144995000Y-154771335D01*
X145050147Y-155048574D01*
X145158320Y-155309727D01*
X145315363Y-155544759D01*
X145515241Y-155744637D01*
X145747759Y-155900000D01*
X145515241Y-156055363D01*
X145315363Y-156255241D01*
X145158320Y-156490273D01*
X145050147Y-156751426D01*
X144995000Y-157028665D01*
X144995000Y-157311335D01*
X145050147Y-157588574D01*
X145158320Y-157849727D01*
X145315363Y-158084759D01*
X145515241Y-158284637D01*
X145747759Y-158440000D01*
X145515241Y-158595363D01*
X145315363Y-158795241D01*
X145158320Y-159030273D01*
X145050147Y-159291426D01*
X144995000Y-159568665D01*
X144995000Y-159851335D01*
X145050147Y-160128574D01*
X145104844Y-160260624D01*
X126417031Y-160266522D01*
X126120259Y-160252332D01*
X125886614Y-160194348D01*
X125668685Y-160092088D01*
X125474768Y-159949446D01*
X125312251Y-159771857D01*
X125187320Y-159566076D01*
X125104741Y-159339959D01*
X125063560Y-159075850D01*
X125061996Y-159020917D01*
X125061312Y-156700000D01*
X125961928Y-156700000D01*
X125974188Y-156824482D01*
X126010498Y-156944180D01*
X126069463Y-157054494D01*
X126148815Y-157151185D01*
X126245506Y-157230537D01*
X126355820Y-157289502D01*
X126475518Y-157325812D01*
X126600000Y-157338072D01*
X127814250Y-157335000D01*
X127973000Y-157176250D01*
X127973000Y-156027000D01*
X128227000Y-156027000D01*
X128227000Y-157176250D01*
X128385750Y-157335000D01*
X129600000Y-157338072D01*
X129724482Y-157325812D01*
X129844180Y-157289502D01*
X129954494Y-157230537D01*
X130051185Y-157151185D01*
X130130537Y-157054494D01*
X130189502Y-156944180D01*
X130225812Y-156824482D01*
X130238072Y-156700000D01*
X130235000Y-156185750D01*
X130076250Y-156027000D01*
X128227000Y-156027000D01*
X127973000Y-156027000D01*
X126123750Y-156027000D01*
X125965000Y-156185750D01*
X125961928Y-156700000D01*
X125061312Y-156700000D01*
X125061207Y-156343889D01*
X125096885Y-156298648D01*
X125140394Y-156245034D01*
X125146193Y-156236124D01*
X125146197Y-156236119D01*
X125146200Y-156236114D01*
X125281073Y-156025701D01*
X125312487Y-155964207D01*
X125344766Y-155903139D01*
X125348727Y-155893265D01*
X125348728Y-155893264D01*
X125348730Y-155893258D01*
X125440165Y-155660657D01*
X125459030Y-155594253D01*
X125478839Y-155528061D01*
X125480806Y-155517605D01*
X125525323Y-155271667D01*
X125530934Y-155202835D01*
X125537506Y-155134077D01*
X125537405Y-155123453D01*
X125537406Y-155123442D01*
X125537405Y-155123432D01*
X125537021Y-155100000D01*
X125961928Y-155100000D01*
X125965000Y-155614250D01*
X126123750Y-155773000D01*
X127973000Y-155773000D01*
X127973000Y-154623750D01*
X128227000Y-154623750D01*
X128227000Y-155773000D01*
X130076250Y-155773000D01*
X130235000Y-155614250D01*
X130236578Y-155350000D01*
X130361928Y-155350000D01*
X130361928Y-156450000D01*
X130378992Y-156623254D01*
X130429528Y-156789850D01*
X130511595Y-156943386D01*
X130622038Y-157077962D01*
X130756614Y-157188405D01*
X130910150Y-157270472D01*
X131076746Y-157321008D01*
X131250000Y-157338072D01*
X133750000Y-157338072D01*
X133923254Y-157321008D01*
X134089850Y-157270472D01*
X134243386Y-157188405D01*
X134377962Y-157077962D01*
X134488405Y-156943386D01*
X134570472Y-156789850D01*
X134571943Y-156785000D01*
X134778092Y-156785000D01*
X134902801Y-156809806D01*
X135095431Y-156809806D01*
X135284359Y-156772226D01*
X135462326Y-156698510D01*
X135622491Y-156591491D01*
X135758701Y-156455281D01*
X135865720Y-156295116D01*
X135939436Y-156117149D01*
X135977016Y-155928221D01*
X135977016Y-155735591D01*
X135939436Y-155546663D01*
X135865720Y-155368696D01*
X135758701Y-155208531D01*
X135622491Y-155072321D01*
X135462326Y-154965302D01*
X135284359Y-154891586D01*
X135095431Y-154854006D01*
X134902801Y-154854006D01*
X134713873Y-154891586D01*
X134544580Y-154961709D01*
X134488405Y-154856614D01*
X134377962Y-154722038D01*
X134243386Y-154611595D01*
X134089850Y-154529528D01*
X133923254Y-154478992D01*
X133750000Y-154461928D01*
X131250000Y-154461928D01*
X131076746Y-154478992D01*
X130910150Y-154529528D01*
X130756614Y-154611595D01*
X130622038Y-154722038D01*
X130511595Y-154856614D01*
X130429528Y-155010150D01*
X130378992Y-155176746D01*
X130361928Y-155350000D01*
X130236578Y-155350000D01*
X130238072Y-155100000D01*
X130225812Y-154975518D01*
X130189502Y-154855820D01*
X130130537Y-154745506D01*
X130051185Y-154648815D01*
X129954494Y-154569463D01*
X129844180Y-154510498D01*
X129724482Y-154474188D01*
X129600000Y-154461928D01*
X128385750Y-154465000D01*
X128227000Y-154623750D01*
X127973000Y-154623750D01*
X127814250Y-154465000D01*
X126600000Y-154461928D01*
X126475518Y-154474188D01*
X126355820Y-154510498D01*
X126245506Y-154569463D01*
X126148815Y-154648815D01*
X126069463Y-154745506D01*
X126010498Y-154855820D01*
X125974188Y-154975518D01*
X125961928Y-155100000D01*
X125537021Y-155100000D01*
X125533303Y-154873538D01*
X125525438Y-154804934D01*
X125518530Y-154736209D01*
X125516365Y-154725793D01*
X125463803Y-154481448D01*
X125442758Y-154415664D01*
X125422636Y-154349600D01*
X125418491Y-154339809D01*
X125418489Y-154339803D01*
X125418486Y-154339798D01*
X125319468Y-154110322D01*
X125286048Y-154049883D01*
X125253475Y-153988981D01*
X125247504Y-153980175D01*
X125105795Y-153774298D01*
X125061272Y-153721501D01*
X125061120Y-153721315D01*
X125062000Y-95194492D01*
X125060302Y-95177251D01*
X125046761Y-94879263D01*
X125187117Y-95019619D01*
%TA.AperFunction,Conductor*%
D32*
G36*
X125187117Y-95019619D02*
G01*
X125187116Y-138293862D01*
X125183430Y-138331285D01*
X125187116Y-138368708D01*
X125187116Y-138368710D01*
X125198142Y-138480662D01*
X125241714Y-138624299D01*
X125255950Y-138650932D01*
X125312471Y-138756677D01*
X125338312Y-138788164D01*
X125407694Y-138872707D01*
X125436770Y-138896569D01*
X136602552Y-150062352D01*
X136626409Y-150091422D01*
X136655479Y-150115279D01*
X136742438Y-150186645D01*
X136813195Y-150224465D01*
X136874816Y-150257402D01*
X137018453Y-150300974D01*
X137130405Y-150312000D01*
X137130408Y-150312000D01*
X137167831Y-150315686D01*
X137205254Y-150312000D01*
X145213293Y-150312000D01*
X145315363Y-150464759D01*
X145515241Y-150664637D01*
X145747759Y-150820000D01*
X145515241Y-150975363D01*
X145315363Y-151175241D01*
X145158320Y-151410273D01*
X145050147Y-151671426D01*
X144995000Y-151948665D01*
X144995000Y-152231335D01*
X145050147Y-152508574D01*
X145158320Y-152769727D01*
X145315363Y-153004759D01*
X145515241Y-153204637D01*
X145747759Y-153360000D01*
X145515241Y-153515363D01*
X145315363Y-153715241D01*
X145158320Y-153950273D01*
X145050147Y-154211426D01*
X144995000Y-154488665D01*
X144995000Y-154771335D01*
X145050147Y-155048574D01*
X145158320Y-155309727D01*
X145315363Y-155544759D01*
X145515241Y-155744637D01*
X145747759Y-155900000D01*
X145515241Y-156055363D01*
X145315363Y-156255241D01*
X145158320Y-156490273D01*
X145050147Y-156751426D01*
X144995000Y-157028665D01*
X144995000Y-157311335D01*
X145050147Y-157588574D01*
X145158320Y-157849727D01*
X145315363Y-158084759D01*
X145515241Y-158284637D01*
X145747759Y-158440000D01*
X145515241Y-158595363D01*
X145315363Y-158795241D01*
X145158320Y-159030273D01*
X145050147Y-159291426D01*
X144995000Y-159568665D01*
X144995000Y-159851335D01*
X145050147Y-160128574D01*
X145104844Y-160260624D01*
X126417031Y-160266522D01*
X126120259Y-160252332D01*
X125886614Y-160194348D01*
X125668685Y-160092088D01*
X125474768Y-159949446D01*
X125312251Y-159771857D01*
X125187320Y-159566076D01*
X125104741Y-159339959D01*
X125063560Y-159075850D01*
X125061996Y-159020917D01*
X125061312Y-156700000D01*
X125961928Y-156700000D01*
X125974188Y-156824482D01*
X126010498Y-156944180D01*
X126069463Y-157054494D01*
X126148815Y-157151185D01*
X126245506Y-157230537D01*
X126355820Y-157289502D01*
X126475518Y-157325812D01*
X126600000Y-157338072D01*
X127814250Y-157335000D01*
X127973000Y-157176250D01*
X127973000Y-156027000D01*
X128227000Y-156027000D01*
X128227000Y-157176250D01*
X128385750Y-157335000D01*
X129600000Y-157338072D01*
X129724482Y-157325812D01*
X129844180Y-157289502D01*
X129954494Y-157230537D01*
X130051185Y-157151185D01*
X130130537Y-157054494D01*
X130189502Y-156944180D01*
X130225812Y-156824482D01*
X130238072Y-156700000D01*
X130235000Y-156185750D01*
X130076250Y-156027000D01*
X128227000Y-156027000D01*
X127973000Y-156027000D01*
X126123750Y-156027000D01*
X125965000Y-156185750D01*
X125961928Y-156700000D01*
X125061312Y-156700000D01*
X125061207Y-156343889D01*
X125096885Y-156298648D01*
X125140394Y-156245034D01*
X125146193Y-156236124D01*
X125146197Y-156236119D01*
X125146200Y-156236114D01*
X125281073Y-156025701D01*
X125312487Y-155964207D01*
X125344766Y-155903139D01*
X125348727Y-155893265D01*
X125348728Y-155893264D01*
X125348730Y-155893258D01*
X125440165Y-155660657D01*
X125459030Y-155594253D01*
X125478839Y-155528061D01*
X125480806Y-155517605D01*
X125525323Y-155271667D01*
X125530934Y-155202835D01*
X125537506Y-155134077D01*
X125537405Y-155123453D01*
X125537406Y-155123442D01*
X125537405Y-155123432D01*
X125537021Y-155100000D01*
X125961928Y-155100000D01*
X125965000Y-155614250D01*
X126123750Y-155773000D01*
X127973000Y-155773000D01*
X127973000Y-154623750D01*
X128227000Y-154623750D01*
X128227000Y-155773000D01*
X130076250Y-155773000D01*
X130235000Y-155614250D01*
X130236578Y-155350000D01*
X130361928Y-155350000D01*
X130361928Y-156450000D01*
X130378992Y-156623254D01*
X130429528Y-156789850D01*
X130511595Y-156943386D01*
X130622038Y-157077962D01*
X130756614Y-157188405D01*
X130910150Y-157270472D01*
X131076746Y-157321008D01*
X131250000Y-157338072D01*
X133750000Y-157338072D01*
X133923254Y-157321008D01*
X134089850Y-157270472D01*
X134243386Y-157188405D01*
X134377962Y-157077962D01*
X134488405Y-156943386D01*
X134570472Y-156789850D01*
X134571943Y-156785000D01*
X134778092Y-156785000D01*
X134902801Y-156809806D01*
X135095431Y-156809806D01*
X135284359Y-156772226D01*
X135462326Y-156698510D01*
X135622491Y-156591491D01*
X135758701Y-156455281D01*
X135865720Y-156295116D01*
X135939436Y-156117149D01*
X135977016Y-155928221D01*
X135977016Y-155735591D01*
X135939436Y-155546663D01*
X135865720Y-155368696D01*
X135758701Y-155208531D01*
X135622491Y-155072321D01*
X135462326Y-154965302D01*
X135284359Y-154891586D01*
X135095431Y-154854006D01*
X134902801Y-154854006D01*
X134713873Y-154891586D01*
X134544580Y-154961709D01*
X134488405Y-154856614D01*
X134377962Y-154722038D01*
X134243386Y-154611595D01*
X134089850Y-154529528D01*
X133923254Y-154478992D01*
X133750000Y-154461928D01*
X131250000Y-154461928D01*
X131076746Y-154478992D01*
X130910150Y-154529528D01*
X130756614Y-154611595D01*
X130622038Y-154722038D01*
X130511595Y-154856614D01*
X130429528Y-155010150D01*
X130378992Y-155176746D01*
X130361928Y-155350000D01*
X130236578Y-155350000D01*
X130238072Y-155100000D01*
X130225812Y-154975518D01*
X130189502Y-154855820D01*
X130130537Y-154745506D01*
X130051185Y-154648815D01*
X129954494Y-154569463D01*
X129844180Y-154510498D01*
X129724482Y-154474188D01*
X129600000Y-154461928D01*
X128385750Y-154465000D01*
X128227000Y-154623750D01*
X127973000Y-154623750D01*
X127814250Y-154465000D01*
X126600000Y-154461928D01*
X126475518Y-154474188D01*
X126355820Y-154510498D01*
X126245506Y-154569463D01*
X126148815Y-154648815D01*
X126069463Y-154745506D01*
X126010498Y-154855820D01*
X125974188Y-154975518D01*
X125961928Y-155100000D01*
X125537021Y-155100000D01*
X125533303Y-154873538D01*
X125525438Y-154804934D01*
X125518530Y-154736209D01*
X125516365Y-154725793D01*
X125463803Y-154481448D01*
X125442758Y-154415664D01*
X125422636Y-154349600D01*
X125418491Y-154339809D01*
X125418489Y-154339803D01*
X125418486Y-154339798D01*
X125319468Y-154110322D01*
X125286048Y-154049883D01*
X125253475Y-153988981D01*
X125247504Y-153980175D01*
X125105795Y-153774298D01*
X125061272Y-153721501D01*
X125061120Y-153721315D01*
X125062000Y-95194492D01*
X125060302Y-95177251D01*
X125046761Y-94879263D01*
X125187117Y-95019619D01*
G37*
%TD.AperFunction*%
D27*
X128736836Y-97193890D02*
X128620863Y-97309863D01*
X128513844Y-97470028D01*
X128440128Y-97647995D01*
X128402548Y-97836923D01*
X128402548Y-98029553D01*
X128440128Y-98218481D01*
X128513844Y-98396448D01*
X128618449Y-98553000D01*
X128618448Y-117223025D01*
X128614762Y-117260448D01*
X128618448Y-117297871D01*
X128618448Y-117297873D01*
X128629474Y-117409825D01*
X128673046Y-117553462D01*
X128673047Y-117553463D01*
X128743803Y-117685840D01*
X128783431Y-117734126D01*
X128839026Y-117801870D01*
X128868102Y-117825732D01*
X145030843Y-133988473D01*
X144995000Y-134168665D01*
X144995000Y-134451335D01*
X145050147Y-134728574D01*
X145158320Y-134989727D01*
X145315363Y-135224759D01*
X145515241Y-135424637D01*
X145747759Y-135580000D01*
X145515241Y-135735363D01*
X145315363Y-135935241D01*
X145158320Y-136170273D01*
X145050147Y-136431426D01*
X144995000Y-136708665D01*
X144995000Y-136991335D01*
X145050147Y-137268574D01*
X145158320Y-137529727D01*
X145315363Y-137764759D01*
X145515241Y-137964637D01*
X145747759Y-138120000D01*
X145515241Y-138275363D01*
X145315363Y-138475241D01*
X145158320Y-138710273D01*
X145050147Y-138971426D01*
X144995000Y-139248665D01*
X144995000Y-139531335D01*
X145050147Y-139808574D01*
X145158320Y-140069727D01*
X145315363Y-140304759D01*
X145515241Y-140504637D01*
X145747759Y-140660000D01*
X145515241Y-140815363D01*
X145315363Y-141015241D01*
X145158320Y-141250273D01*
X145050147Y-141511426D01*
X144995000Y-141788665D01*
X144995000Y-142071335D01*
X145050147Y-142348574D01*
X145158320Y-142609727D01*
X145315363Y-142844759D01*
X145515241Y-143044637D01*
X145747759Y-143200000D01*
X145515241Y-143355363D01*
X145315363Y-143555241D01*
X145158320Y-143790273D01*
X145050147Y-144051426D01*
X144995000Y-144328665D01*
X144995000Y-144611335D01*
X145014573Y-144709732D01*
X143731116Y-143426276D01*
X143731116Y-139439329D01*
X143734802Y-139401906D01*
X143731116Y-139364480D01*
X143720090Y-139252528D01*
X143676518Y-139108891D01*
X143635929Y-139032954D01*
X143605761Y-138976513D01*
X143570973Y-138934125D01*
X143510538Y-138860484D01*
X143481463Y-138836623D01*
X142426168Y-137781328D01*
X142389436Y-137596663D01*
X142315720Y-137418696D01*
X142208701Y-137258531D01*
X142072491Y-137122321D01*
X141912326Y-137015302D01*
X141734359Y-136941586D01*
X141545431Y-136904006D01*
X141352801Y-136904006D01*
X141163873Y-136941586D01*
X140985906Y-137015302D01*
X140825741Y-137122321D01*
X140689531Y-137258531D01*
X140582512Y-137418696D01*
X140508796Y-137596663D01*
X140471216Y-137785591D01*
X140471216Y-137978221D01*
X140508796Y-138167149D01*
X140582512Y-138345116D01*
X140689531Y-138505281D01*
X140825741Y-138641491D01*
X140985906Y-138748510D01*
X141163873Y-138822226D01*
X141348538Y-138858958D01*
X142207116Y-139717536D01*
X142207117Y-143704473D01*
X142203430Y-143741906D01*
X142218143Y-143891284D01*
X142261715Y-144034921D01*
X142332471Y-144167298D01*
X142364552Y-144206388D01*
X142427695Y-144283328D01*
X142456765Y-144307185D01*
X144998857Y-146849277D01*
X144995000Y-146868665D01*
X144995000Y-147151335D01*
X145050147Y-147428574D01*
X145158320Y-147689727D01*
X145315363Y-147924759D01*
X145515241Y-148124637D01*
X145747759Y-148280000D01*
X145515241Y-148435363D01*
X145315363Y-148635241D01*
X145213293Y-148788000D01*
X141617016Y-148788000D01*
X141617016Y-148735591D01*
X141579436Y-148546663D01*
X141505720Y-148368696D01*
X141398701Y-148208531D01*
X141262491Y-148072321D01*
X141102326Y-147965302D01*
X140968770Y-147909982D01*
X140664116Y-147605328D01*
X140664116Y-145675383D01*
X140668398Y-145631906D01*
X140664116Y-145588429D01*
X140664116Y-144148429D01*
X140651311Y-144018416D01*
X140642188Y-143988342D01*
X140642188Y-143481906D01*
X140629928Y-143357424D01*
X140593618Y-143237726D01*
X140534653Y-143127412D01*
X140455301Y-143030721D01*
X140358610Y-142951369D01*
X140248296Y-142892404D01*
X140128598Y-142856094D01*
X140004116Y-142843834D01*
X139554116Y-142843834D01*
X139429634Y-142856094D01*
X139309936Y-142892404D01*
X139199622Y-142951369D01*
X139102931Y-143030721D01*
X139023579Y-143127412D01*
X138964614Y-143237726D01*
X138928304Y-143357424D01*
X138916044Y-143481906D01*
X138916044Y-143988343D01*
X138906921Y-144018417D01*
X138894116Y-144148430D01*
X138894116Y-144746906D01*
X137347272Y-144746906D01*
X137395106Y-144675317D01*
X137507048Y-144405064D01*
X137564116Y-144118166D01*
X137564116Y-143825646D01*
X137507048Y-143538748D01*
X137395106Y-143268495D01*
X137232591Y-143025274D01*
X137100736Y-142893419D01*
X137173296Y-142871408D01*
X137283610Y-142812443D01*
X137380301Y-142733091D01*
X137459653Y-142636400D01*
X137518618Y-142526086D01*
X137554928Y-142406388D01*
X137567188Y-142281906D01*
X137564116Y-141717656D01*
X137405366Y-141558906D01*
X136206116Y-141558906D01*
X136206116Y-141578906D01*
X135952116Y-141578906D01*
X135952116Y-141558906D01*
X135932116Y-141558906D01*
X135932116Y-141304906D01*
X135952116Y-141304906D01*
X135952116Y-140105656D01*
X136206116Y-140105656D01*
X136206116Y-141304906D01*
X137405366Y-141304906D01*
X137564116Y-141146156D01*
X137567188Y-140581906D01*
X137554928Y-140457424D01*
X137518618Y-140337726D01*
X137459653Y-140227412D01*
X137380301Y-140130721D01*
X137283610Y-140051369D01*
X137173296Y-139992404D01*
X137053598Y-139956094D01*
X136929116Y-139943834D01*
X136364866Y-139946906D01*
X136206116Y-140105656D01*
X135952116Y-140105656D01*
X135793366Y-139946906D01*
X135229116Y-139943834D01*
X135104634Y-139956094D01*
X134984936Y-139992404D01*
X134874622Y-140051369D01*
X134777931Y-140130721D01*
X134698579Y-140227412D01*
X134639614Y-140337726D01*
X134617603Y-140410286D01*
X134485748Y-140278431D01*
X134242527Y-140115916D01*
X133972274Y-140003974D01*
X133685376Y-139946906D01*
X133392856Y-139946906D01*
X133105958Y-140003974D01*
X132835705Y-140115916D01*
X132592484Y-140278431D01*
X132385641Y-140485274D01*
X132223126Y-140728495D01*
X132111184Y-140998748D01*
X132054116Y-141285646D01*
X132054116Y-141578166D01*
X132111184Y-141865064D01*
X132223126Y-142135317D01*
X132385641Y-142378538D01*
X132592484Y-142585381D01*
X132766876Y-142701906D01*
X132592484Y-142818431D01*
X132385641Y-143025274D01*
X132223126Y-143268495D01*
X132147217Y-143451756D01*
X128231052Y-139535591D01*
X138801216Y-139535591D01*
X138801216Y-139728221D01*
X138838796Y-139917149D01*
X138894116Y-140050705D01*
X138894117Y-141315383D01*
X138906922Y-141445396D01*
X138916044Y-141475467D01*
X138916044Y-141981906D01*
X138928304Y-142106388D01*
X138964614Y-142226086D01*
X139023579Y-142336400D01*
X139102931Y-142433091D01*
X139199622Y-142512443D01*
X139309936Y-142571408D01*
X139429634Y-142607718D01*
X139554116Y-142619978D01*
X140004116Y-142619978D01*
X140128598Y-142607718D01*
X140248296Y-142571408D01*
X140358610Y-142512443D01*
X140455301Y-142433091D01*
X140534653Y-142336400D01*
X140593618Y-142226086D01*
X140629928Y-142106388D01*
X140642188Y-141981906D01*
X140642188Y-141475470D01*
X140651311Y-141445396D01*
X140664116Y-141315383D01*
X140664116Y-140050704D01*
X140719436Y-139917149D01*
X140757016Y-139728221D01*
X140757016Y-139535591D01*
X140719436Y-139346663D01*
X140645720Y-139168696D01*
X140538701Y-139008531D01*
X140402491Y-138872321D01*
X140242326Y-138765302D01*
X140064359Y-138691586D01*
X139875431Y-138654006D01*
X139682801Y-138654006D01*
X139493873Y-138691586D01*
X139315906Y-138765302D01*
X139155741Y-138872321D01*
X139019531Y-139008531D01*
X138912512Y-139168696D01*
X138838796Y-139346663D01*
X138801216Y-139535591D01*
X128231052Y-139535591D01*
X126711116Y-138015655D01*
X126711116Y-95168170D01*
X128736836Y-97193890D01*
%TA.AperFunction,Conductor*%
D32*
G36*
X128736836Y-97193890D02*
G01*
X128620863Y-97309863D01*
X128513844Y-97470028D01*
X128440128Y-97647995D01*
X128402548Y-97836923D01*
X128402548Y-98029553D01*
X128440128Y-98218481D01*
X128513844Y-98396448D01*
X128618449Y-98553000D01*
X128618448Y-117223025D01*
X128614762Y-117260448D01*
X128618448Y-117297871D01*
X128618448Y-117297873D01*
X128629474Y-117409825D01*
X128673046Y-117553462D01*
X128673047Y-117553463D01*
X128743803Y-117685840D01*
X128783431Y-117734126D01*
X128839026Y-117801870D01*
X128868102Y-117825732D01*
X145030843Y-133988473D01*
X144995000Y-134168665D01*
X144995000Y-134451335D01*
X145050147Y-134728574D01*
X145158320Y-134989727D01*
X145315363Y-135224759D01*
X145515241Y-135424637D01*
X145747759Y-135580000D01*
X145515241Y-135735363D01*
X145315363Y-135935241D01*
X145158320Y-136170273D01*
X145050147Y-136431426D01*
X144995000Y-136708665D01*
X144995000Y-136991335D01*
X145050147Y-137268574D01*
X145158320Y-137529727D01*
X145315363Y-137764759D01*
X145515241Y-137964637D01*
X145747759Y-138120000D01*
X145515241Y-138275363D01*
X145315363Y-138475241D01*
X145158320Y-138710273D01*
X145050147Y-138971426D01*
X144995000Y-139248665D01*
X144995000Y-139531335D01*
X145050147Y-139808574D01*
X145158320Y-140069727D01*
X145315363Y-140304759D01*
X145515241Y-140504637D01*
X145747759Y-140660000D01*
X145515241Y-140815363D01*
X145315363Y-141015241D01*
X145158320Y-141250273D01*
X145050147Y-141511426D01*
X144995000Y-141788665D01*
X144995000Y-142071335D01*
X145050147Y-142348574D01*
X145158320Y-142609727D01*
X145315363Y-142844759D01*
X145515241Y-143044637D01*
X145747759Y-143200000D01*
X145515241Y-143355363D01*
X145315363Y-143555241D01*
X145158320Y-143790273D01*
X145050147Y-144051426D01*
X144995000Y-144328665D01*
X144995000Y-144611335D01*
X145014573Y-144709732D01*
X143731116Y-143426276D01*
X143731116Y-139439329D01*
X143734802Y-139401906D01*
X143731116Y-139364480D01*
X143720090Y-139252528D01*
X143676518Y-139108891D01*
X143635929Y-139032954D01*
X143605761Y-138976513D01*
X143570973Y-138934125D01*
X143510538Y-138860484D01*
X143481463Y-138836623D01*
X142426168Y-137781328D01*
X142389436Y-137596663D01*
X142315720Y-137418696D01*
X142208701Y-137258531D01*
X142072491Y-137122321D01*
X141912326Y-137015302D01*
X141734359Y-136941586D01*
X141545431Y-136904006D01*
X141352801Y-136904006D01*
X141163873Y-136941586D01*
X140985906Y-137015302D01*
X140825741Y-137122321D01*
X140689531Y-137258531D01*
X140582512Y-137418696D01*
X140508796Y-137596663D01*
X140471216Y-137785591D01*
X140471216Y-137978221D01*
X140508796Y-138167149D01*
X140582512Y-138345116D01*
X140689531Y-138505281D01*
X140825741Y-138641491D01*
X140985906Y-138748510D01*
X141163873Y-138822226D01*
X141348538Y-138858958D01*
X142207116Y-139717536D01*
X142207117Y-143704473D01*
X142203430Y-143741906D01*
X142218143Y-143891284D01*
X142261715Y-144034921D01*
X142332471Y-144167298D01*
X142364552Y-144206388D01*
X142427695Y-144283328D01*
X142456765Y-144307185D01*
X144998857Y-146849277D01*
X144995000Y-146868665D01*
X144995000Y-147151335D01*
X145050147Y-147428574D01*
X145158320Y-147689727D01*
X145315363Y-147924759D01*
X145515241Y-148124637D01*
X145747759Y-148280000D01*
X145515241Y-148435363D01*
X145315363Y-148635241D01*
X145213293Y-148788000D01*
X141617016Y-148788000D01*
X141617016Y-148735591D01*
X141579436Y-148546663D01*
X141505720Y-148368696D01*
X141398701Y-148208531D01*
X141262491Y-148072321D01*
X141102326Y-147965302D01*
X140968770Y-147909982D01*
X140664116Y-147605328D01*
X140664116Y-145675383D01*
X140668398Y-145631906D01*
X140664116Y-145588429D01*
X140664116Y-144148429D01*
X140651311Y-144018416D01*
X140642188Y-143988342D01*
X140642188Y-143481906D01*
X140629928Y-143357424D01*
X140593618Y-143237726D01*
X140534653Y-143127412D01*
X140455301Y-143030721D01*
X140358610Y-142951369D01*
X140248296Y-142892404D01*
X140128598Y-142856094D01*
X140004116Y-142843834D01*
X139554116Y-142843834D01*
X139429634Y-142856094D01*
X139309936Y-142892404D01*
X139199622Y-142951369D01*
X139102931Y-143030721D01*
X139023579Y-143127412D01*
X138964614Y-143237726D01*
X138928304Y-143357424D01*
X138916044Y-143481906D01*
X138916044Y-143988343D01*
X138906921Y-144018417D01*
X138894116Y-144148430D01*
X138894116Y-144746906D01*
X137347272Y-144746906D01*
X137395106Y-144675317D01*
X137507048Y-144405064D01*
X137564116Y-144118166D01*
X137564116Y-143825646D01*
X137507048Y-143538748D01*
X137395106Y-143268495D01*
X137232591Y-143025274D01*
X137100736Y-142893419D01*
X137173296Y-142871408D01*
X137283610Y-142812443D01*
X137380301Y-142733091D01*
X137459653Y-142636400D01*
X137518618Y-142526086D01*
X137554928Y-142406388D01*
X137567188Y-142281906D01*
X137564116Y-141717656D01*
X137405366Y-141558906D01*
X136206116Y-141558906D01*
X136206116Y-141578906D01*
X135952116Y-141578906D01*
X135952116Y-141558906D01*
X135932116Y-141558906D01*
X135932116Y-141304906D01*
X135952116Y-141304906D01*
X135952116Y-140105656D01*
X136206116Y-140105656D01*
X136206116Y-141304906D01*
X137405366Y-141304906D01*
X137564116Y-141146156D01*
X137567188Y-140581906D01*
X137554928Y-140457424D01*
X137518618Y-140337726D01*
X137459653Y-140227412D01*
X137380301Y-140130721D01*
X137283610Y-140051369D01*
X137173296Y-139992404D01*
X137053598Y-139956094D01*
X136929116Y-139943834D01*
X136364866Y-139946906D01*
X136206116Y-140105656D01*
X135952116Y-140105656D01*
X135793366Y-139946906D01*
X135229116Y-139943834D01*
X135104634Y-139956094D01*
X134984936Y-139992404D01*
X134874622Y-140051369D01*
X134777931Y-140130721D01*
X134698579Y-140227412D01*
X134639614Y-140337726D01*
X134617603Y-140410286D01*
X134485748Y-140278431D01*
X134242527Y-140115916D01*
X133972274Y-140003974D01*
X133685376Y-139946906D01*
X133392856Y-139946906D01*
X133105958Y-140003974D01*
X132835705Y-140115916D01*
X132592484Y-140278431D01*
X132385641Y-140485274D01*
X132223126Y-140728495D01*
X132111184Y-140998748D01*
X132054116Y-141285646D01*
X132054116Y-141578166D01*
X132111184Y-141865064D01*
X132223126Y-142135317D01*
X132385641Y-142378538D01*
X132592484Y-142585381D01*
X132766876Y-142701906D01*
X132592484Y-142818431D01*
X132385641Y-143025274D01*
X132223126Y-143268495D01*
X132147217Y-143451756D01*
X128231052Y-139535591D01*
X138801216Y-139535591D01*
X138801216Y-139728221D01*
X138838796Y-139917149D01*
X138894116Y-140050705D01*
X138894117Y-141315383D01*
X138906922Y-141445396D01*
X138916044Y-141475467D01*
X138916044Y-141981906D01*
X138928304Y-142106388D01*
X138964614Y-142226086D01*
X139023579Y-142336400D01*
X139102931Y-142433091D01*
X139199622Y-142512443D01*
X139309936Y-142571408D01*
X139429634Y-142607718D01*
X139554116Y-142619978D01*
X140004116Y-142619978D01*
X140128598Y-142607718D01*
X140248296Y-142571408D01*
X140358610Y-142512443D01*
X140455301Y-142433091D01*
X140534653Y-142336400D01*
X140593618Y-142226086D01*
X140629928Y-142106388D01*
X140642188Y-141981906D01*
X140642188Y-141475470D01*
X140651311Y-141445396D01*
X140664116Y-141315383D01*
X140664116Y-140050704D01*
X140719436Y-139917149D01*
X140757016Y-139728221D01*
X140757016Y-139535591D01*
X140719436Y-139346663D01*
X140645720Y-139168696D01*
X140538701Y-139008531D01*
X140402491Y-138872321D01*
X140242326Y-138765302D01*
X140064359Y-138691586D01*
X139875431Y-138654006D01*
X139682801Y-138654006D01*
X139493873Y-138691586D01*
X139315906Y-138765302D01*
X139155741Y-138872321D01*
X139019531Y-139008531D01*
X138912512Y-139168696D01*
X138838796Y-139346663D01*
X138801216Y-139535591D01*
X128231052Y-139535591D01*
X126711116Y-138015655D01*
X126711116Y-95168170D01*
X128736836Y-97193890D01*
G37*
%TD.AperFunction*%
D27*
X148725741Y-93842321D02*
X148589531Y-93978531D01*
X148482512Y-94138696D01*
X148408796Y-94316663D01*
X148371216Y-94505591D01*
X148371216Y-94698221D01*
X148408796Y-94887149D01*
X148482512Y-95065116D01*
X148485390Y-95069423D01*
X148472512Y-95088696D01*
X148398796Y-95266663D01*
X148361216Y-95455591D01*
X148361216Y-95648221D01*
X148398796Y-95837149D01*
X148472512Y-96015116D01*
X148579531Y-96175281D01*
X148715741Y-96311491D01*
X148875906Y-96418510D01*
X149053873Y-96492226D01*
X149242801Y-96529806D01*
X149435431Y-96529806D01*
X149624359Y-96492226D01*
X149802326Y-96418510D01*
X149822686Y-96404906D01*
X150652116Y-96404906D01*
X150652116Y-96384906D01*
X150906116Y-96384906D01*
X150906116Y-96404906D01*
X150926116Y-96404906D01*
X150926116Y-96658906D01*
X150906116Y-96658906D01*
X150906116Y-96678906D01*
X150652116Y-96678906D01*
X150652116Y-96658906D01*
X149577866Y-96658906D01*
X149419116Y-96817656D01*
X149416997Y-96965433D01*
X148091132Y-96965433D01*
X146057503Y-94931805D01*
X146033641Y-94902729D01*
X145917611Y-94807506D01*
X145785234Y-94736749D01*
X145641597Y-94693177D01*
X145529645Y-94682151D01*
X145529642Y-94682151D01*
X145492219Y-94678465D01*
X145454796Y-94682151D01*
X135187938Y-94682151D01*
X135118701Y-94578531D01*
X134982491Y-94442321D01*
X134822326Y-94335302D01*
X134644359Y-94261586D01*
X134459695Y-94224854D01*
X133996840Y-93762000D01*
X148845950Y-93762000D01*
X148725741Y-93842321D01*
%TA.AperFunction,Conductor*%
D32*
G36*
X148725741Y-93842321D02*
G01*
X148589531Y-93978531D01*
X148482512Y-94138696D01*
X148408796Y-94316663D01*
X148371216Y-94505591D01*
X148371216Y-94698221D01*
X148408796Y-94887149D01*
X148482512Y-95065116D01*
X148485390Y-95069423D01*
X148472512Y-95088696D01*
X148398796Y-95266663D01*
X148361216Y-95455591D01*
X148361216Y-95648221D01*
X148398796Y-95837149D01*
X148472512Y-96015116D01*
X148579531Y-96175281D01*
X148715741Y-96311491D01*
X148875906Y-96418510D01*
X149053873Y-96492226D01*
X149242801Y-96529806D01*
X149435431Y-96529806D01*
X149624359Y-96492226D01*
X149802326Y-96418510D01*
X149822686Y-96404906D01*
X150652116Y-96404906D01*
X150652116Y-96384906D01*
X150906116Y-96384906D01*
X150906116Y-96404906D01*
X150926116Y-96404906D01*
X150926116Y-96658906D01*
X150906116Y-96658906D01*
X150906116Y-96678906D01*
X150652116Y-96678906D01*
X150652116Y-96658906D01*
X149577866Y-96658906D01*
X149419116Y-96817656D01*
X149416997Y-96965433D01*
X148091132Y-96965433D01*
X146057503Y-94931805D01*
X146033641Y-94902729D01*
X145917611Y-94807506D01*
X145785234Y-94736749D01*
X145641597Y-94693177D01*
X145529645Y-94682151D01*
X145529642Y-94682151D01*
X145492219Y-94678465D01*
X145454796Y-94682151D01*
X135187938Y-94682151D01*
X135118701Y-94578531D01*
X134982491Y-94442321D01*
X134822326Y-94335302D01*
X134644359Y-94261586D01*
X134459695Y-94224854D01*
X133996840Y-93762000D01*
X148845950Y-93762000D01*
X148725741Y-93842321D01*
G37*
%TD.AperFunction*%
D27*
X159566116Y-96214906D02*
X159586116Y-96214906D01*
X159586116Y-96468906D01*
X159566116Y-96468906D01*
X159566116Y-96488906D01*
X159312116Y-96488906D01*
X159312116Y-96468906D01*
X158237866Y-96468906D01*
X158217866Y-96488906D01*
X157246116Y-96488906D01*
X157246116Y-96508906D01*
X156992116Y-96508906D01*
X156992116Y-96488906D01*
X156972116Y-96488906D01*
X156972116Y-96234906D01*
X156992116Y-96234906D01*
X156992116Y-96214906D01*
X157246116Y-96214906D01*
X157246116Y-96234906D01*
X158320366Y-96234906D01*
X158340366Y-96214906D01*
X159312116Y-96214906D01*
X159312116Y-96194906D01*
X159566116Y-96194906D01*
X159566116Y-96214906D01*
%TA.AperFunction,Conductor*%
D32*
G36*
X159566116Y-96214906D02*
G01*
X159586116Y-96214906D01*
X159586116Y-96468906D01*
X159566116Y-96468906D01*
X159566116Y-96488906D01*
X159312116Y-96488906D01*
X159312116Y-96468906D01*
X158237866Y-96468906D01*
X158217866Y-96488906D01*
X157246116Y-96488906D01*
X157246116Y-96508906D01*
X156992116Y-96508906D01*
X156992116Y-96488906D01*
X156972116Y-96488906D01*
X156972116Y-96234906D01*
X156992116Y-96234906D01*
X156992116Y-96214906D01*
X157246116Y-96214906D01*
X157246116Y-96234906D01*
X158320366Y-96234906D01*
X158340366Y-96214906D01*
X159312116Y-96214906D01*
X159312116Y-96194906D01*
X159566116Y-96194906D01*
X159566116Y-96214906D01*
G37*
%TD.AperFunction*%
D27*
X174173486Y-95249906D02*
X162026297Y-95249906D01*
X161988874Y-95246220D01*
X161951451Y-95249906D01*
X161951448Y-95249906D01*
X161839496Y-95260932D01*
X161695859Y-95304504D01*
X161663020Y-95322057D01*
X161563481Y-95375261D01*
X161493560Y-95432644D01*
X161447452Y-95470484D01*
X161423595Y-95499554D01*
X160708245Y-96214904D01*
X160640368Y-96214904D01*
X160799116Y-96056156D01*
X160802188Y-95841906D01*
X160789928Y-95717424D01*
X160753618Y-95597726D01*
X160694653Y-95487412D01*
X160628814Y-95407187D01*
X160792801Y-95439806D01*
X160985431Y-95439806D01*
X161174359Y-95402226D01*
X161352326Y-95328510D01*
X161512491Y-95221491D01*
X161648701Y-95085281D01*
X161755720Y-94925116D01*
X161829436Y-94747149D01*
X161867016Y-94558221D01*
X161867016Y-94365591D01*
X161829436Y-94176663D01*
X161755720Y-93998696D01*
X161648701Y-93838531D01*
X161572170Y-93762000D01*
X175661392Y-93762000D01*
X174173486Y-95249906D01*
%TA.AperFunction,Conductor*%
D32*
G36*
X174173486Y-95249906D02*
G01*
X162026297Y-95249906D01*
X161988874Y-95246220D01*
X161951451Y-95249906D01*
X161951448Y-95249906D01*
X161839496Y-95260932D01*
X161695859Y-95304504D01*
X161663020Y-95322057D01*
X161563481Y-95375261D01*
X161493560Y-95432644D01*
X161447452Y-95470484D01*
X161423595Y-95499554D01*
X160708245Y-96214904D01*
X160640368Y-96214904D01*
X160799116Y-96056156D01*
X160802188Y-95841906D01*
X160789928Y-95717424D01*
X160753618Y-95597726D01*
X160694653Y-95487412D01*
X160628814Y-95407187D01*
X160792801Y-95439806D01*
X160985431Y-95439806D01*
X161174359Y-95402226D01*
X161352326Y-95328510D01*
X161512491Y-95221491D01*
X161648701Y-95085281D01*
X161755720Y-94925116D01*
X161829436Y-94747149D01*
X161867016Y-94558221D01*
X161867016Y-94365591D01*
X161829436Y-94176663D01*
X161755720Y-93998696D01*
X161648701Y-93838531D01*
X161572170Y-93762000D01*
X175661392Y-93762000D01*
X174173486Y-95249906D01*
G37*
%TD.AperFunction*%
D27*
X179726531Y-45956712D02*
X179808020Y-46109167D01*
X179917686Y-46242795D01*
X180262401Y-46587510D01*
X180396029Y-46697176D01*
X180548484Y-46778665D01*
X180713908Y-46828846D01*
X180885943Y-46845790D01*
X180996080Y-46834942D01*
X180985232Y-46945079D01*
X181002176Y-47117114D01*
X181052357Y-47282538D01*
X181133846Y-47434993D01*
X181243512Y-47568621D01*
X181588227Y-47913336D01*
X181600029Y-47923022D01*
X181600030Y-83005988D01*
X181596343Y-83043421D01*
X181611056Y-83192799D01*
X181654628Y-83336436D01*
X181725384Y-83468813D01*
X181759000Y-83509774D01*
X181703028Y-83529111D01*
X181529072Y-83622092D01*
X181433308Y-83886493D01*
X182389116Y-84842301D01*
X182403259Y-84828159D01*
X182582864Y-85007764D01*
X182568721Y-85021906D01*
X182582864Y-85036049D01*
X182403259Y-85215654D01*
X182389116Y-85201511D01*
X181433308Y-86157319D01*
X181529072Y-86421720D01*
X181818687Y-86562610D01*
X182130224Y-86644290D01*
X182451711Y-86663624D01*
X182770791Y-86619867D01*
X182987815Y-86544891D01*
X182987816Y-90514955D01*
X182959545Y-90501202D01*
X182648008Y-90419522D01*
X182326521Y-90400188D01*
X182007441Y-90443945D01*
X181703028Y-90549111D01*
X181529072Y-90642092D01*
X181433308Y-90906493D01*
X182389116Y-91862301D01*
X182403259Y-91848159D01*
X182582864Y-92027764D01*
X182568721Y-92041906D01*
X182582864Y-92056049D01*
X182403259Y-92235654D01*
X182389116Y-92221511D01*
X181433308Y-93177319D01*
X181529072Y-93441720D01*
X181661959Y-93506366D01*
X181374637Y-93793687D01*
X181374637Y-93686320D01*
X181337057Y-93497392D01*
X181263341Y-93319425D01*
X181156322Y-93159260D01*
X181020112Y-93023050D01*
X180859947Y-92916031D01*
X180681980Y-92842315D01*
X180631891Y-92832352D01*
X180631116Y-92824484D01*
X180631116Y-92104501D01*
X180747398Y-92104501D01*
X180791155Y-92423581D01*
X180896321Y-92727994D01*
X180989302Y-92901950D01*
X181253703Y-92997714D01*
X182209511Y-92041906D01*
X181253703Y-91086098D01*
X180989302Y-91181862D01*
X180848412Y-91471477D01*
X180766732Y-91783014D01*
X180747398Y-92104501D01*
X180631116Y-92104501D01*
X180631116Y-85084501D01*
X180747398Y-85084501D01*
X180791155Y-85403581D01*
X180896321Y-85707994D01*
X180989302Y-85881950D01*
X181253703Y-85977714D01*
X182209511Y-85021906D01*
X181253703Y-84066098D01*
X180989302Y-84161862D01*
X180848412Y-84451477D01*
X180766732Y-84763014D01*
X180747398Y-85084501D01*
X180631116Y-85084501D01*
X180631116Y-70499329D01*
X180634802Y-70461906D01*
X180627213Y-70384851D01*
X180620090Y-70312528D01*
X180576518Y-70168891D01*
X180525449Y-70073347D01*
X180505761Y-70036513D01*
X180434395Y-69949554D01*
X180410538Y-69920484D01*
X180381469Y-69896628D01*
X169485275Y-59000435D01*
X169570477Y-58943505D01*
X169706687Y-58807295D01*
X169813706Y-58647130D01*
X169887422Y-58469163D01*
X169900827Y-58401774D01*
X172516662Y-55785939D01*
X172570729Y-55830311D01*
X172724264Y-55912378D01*
X172890860Y-55962914D01*
X173064114Y-55979978D01*
X173589118Y-55979978D01*
X173762372Y-55962914D01*
X173928968Y-55912378D01*
X174082503Y-55830311D01*
X174217078Y-55719868D01*
X174239116Y-55693015D01*
X174261154Y-55719868D01*
X174395729Y-55830311D01*
X174549264Y-55912378D01*
X174715860Y-55962914D01*
X174889114Y-55979978D01*
X175414118Y-55979978D01*
X175587372Y-55962914D01*
X175753968Y-55912378D01*
X175841319Y-55865687D01*
X177002586Y-57026955D01*
X177030299Y-57060723D01*
X177064067Y-57088436D01*
X177064069Y-57088438D01*
X177072311Y-57095202D01*
X177165057Y-57171317D01*
X177318803Y-57253495D01*
X177485626Y-57304101D01*
X177615639Y-57316906D01*
X177615649Y-57316906D01*
X177659115Y-57321187D01*
X177702581Y-57316906D01*
X179895647Y-57316906D01*
X179939116Y-57321187D01*
X179982585Y-57316906D01*
X179982593Y-57316906D01*
X180112606Y-57304101D01*
X180279429Y-57253495D01*
X180433175Y-57171317D01*
X180567933Y-57060723D01*
X180595650Y-57026950D01*
X180874161Y-56748439D01*
X180907933Y-56720723D01*
X181018527Y-56585965D01*
X181100705Y-56432219D01*
X181151311Y-56265396D01*
X181164116Y-56135383D01*
X181164116Y-56135375D01*
X181168397Y-56091906D01*
X181164116Y-56048437D01*
X181164116Y-50622585D01*
X181168397Y-50579116D01*
X181164116Y-50535647D01*
X181164116Y-50535639D01*
X181151311Y-50405626D01*
X181100705Y-50238803D01*
X181018527Y-50085057D01*
X180989420Y-50049590D01*
X180935648Y-49984069D01*
X180935646Y-49984067D01*
X180907933Y-49950299D01*
X180874165Y-49922586D01*
X178338072Y-47386494D01*
X178338072Y-45863906D01*
X179698379Y-45863906D01*
X179726531Y-45956712D01*
%TA.AperFunction,Conductor*%
D32*
G36*
X179726531Y-45956712D02*
G01*
X179808020Y-46109167D01*
X179917686Y-46242795D01*
X180262401Y-46587510D01*
X180396029Y-46697176D01*
X180548484Y-46778665D01*
X180713908Y-46828846D01*
X180885943Y-46845790D01*
X180996080Y-46834942D01*
X180985232Y-46945079D01*
X181002176Y-47117114D01*
X181052357Y-47282538D01*
X181133846Y-47434993D01*
X181243512Y-47568621D01*
X181588227Y-47913336D01*
X181600029Y-47923022D01*
X181600030Y-83005988D01*
X181596343Y-83043421D01*
X181611056Y-83192799D01*
X181654628Y-83336436D01*
X181725384Y-83468813D01*
X181759000Y-83509774D01*
X181703028Y-83529111D01*
X181529072Y-83622092D01*
X181433308Y-83886493D01*
X182389116Y-84842301D01*
X182403259Y-84828159D01*
X182582864Y-85007764D01*
X182568721Y-85021906D01*
X182582864Y-85036049D01*
X182403259Y-85215654D01*
X182389116Y-85201511D01*
X181433308Y-86157319D01*
X181529072Y-86421720D01*
X181818687Y-86562610D01*
X182130224Y-86644290D01*
X182451711Y-86663624D01*
X182770791Y-86619867D01*
X182987815Y-86544891D01*
X182987816Y-90514955D01*
X182959545Y-90501202D01*
X182648008Y-90419522D01*
X182326521Y-90400188D01*
X182007441Y-90443945D01*
X181703028Y-90549111D01*
X181529072Y-90642092D01*
X181433308Y-90906493D01*
X182389116Y-91862301D01*
X182403259Y-91848159D01*
X182582864Y-92027764D01*
X182568721Y-92041906D01*
X182582864Y-92056049D01*
X182403259Y-92235654D01*
X182389116Y-92221511D01*
X181433308Y-93177319D01*
X181529072Y-93441720D01*
X181661959Y-93506366D01*
X181374637Y-93793687D01*
X181374637Y-93686320D01*
X181337057Y-93497392D01*
X181263341Y-93319425D01*
X181156322Y-93159260D01*
X181020112Y-93023050D01*
X180859947Y-92916031D01*
X180681980Y-92842315D01*
X180631891Y-92832352D01*
X180631116Y-92824484D01*
X180631116Y-92104501D01*
X180747398Y-92104501D01*
X180791155Y-92423581D01*
X180896321Y-92727994D01*
X180989302Y-92901950D01*
X181253703Y-92997714D01*
X182209511Y-92041906D01*
X181253703Y-91086098D01*
X180989302Y-91181862D01*
X180848412Y-91471477D01*
X180766732Y-91783014D01*
X180747398Y-92104501D01*
X180631116Y-92104501D01*
X180631116Y-85084501D01*
X180747398Y-85084501D01*
X180791155Y-85403581D01*
X180896321Y-85707994D01*
X180989302Y-85881950D01*
X181253703Y-85977714D01*
X182209511Y-85021906D01*
X181253703Y-84066098D01*
X180989302Y-84161862D01*
X180848412Y-84451477D01*
X180766732Y-84763014D01*
X180747398Y-85084501D01*
X180631116Y-85084501D01*
X180631116Y-70499329D01*
X180634802Y-70461906D01*
X180627213Y-70384851D01*
X180620090Y-70312528D01*
X180576518Y-70168891D01*
X180525449Y-70073347D01*
X180505761Y-70036513D01*
X180434395Y-69949554D01*
X180410538Y-69920484D01*
X180381469Y-69896628D01*
X169485275Y-59000435D01*
X169570477Y-58943505D01*
X169706687Y-58807295D01*
X169813706Y-58647130D01*
X169887422Y-58469163D01*
X169900827Y-58401774D01*
X172516662Y-55785939D01*
X172570729Y-55830311D01*
X172724264Y-55912378D01*
X172890860Y-55962914D01*
X173064114Y-55979978D01*
X173589118Y-55979978D01*
X173762372Y-55962914D01*
X173928968Y-55912378D01*
X174082503Y-55830311D01*
X174217078Y-55719868D01*
X174239116Y-55693015D01*
X174261154Y-55719868D01*
X174395729Y-55830311D01*
X174549264Y-55912378D01*
X174715860Y-55962914D01*
X174889114Y-55979978D01*
X175414118Y-55979978D01*
X175587372Y-55962914D01*
X175753968Y-55912378D01*
X175841319Y-55865687D01*
X177002586Y-57026955D01*
X177030299Y-57060723D01*
X177064067Y-57088436D01*
X177064069Y-57088438D01*
X177072311Y-57095202D01*
X177165057Y-57171317D01*
X177318803Y-57253495D01*
X177485626Y-57304101D01*
X177615639Y-57316906D01*
X177615649Y-57316906D01*
X177659115Y-57321187D01*
X177702581Y-57316906D01*
X179895647Y-57316906D01*
X179939116Y-57321187D01*
X179982585Y-57316906D01*
X179982593Y-57316906D01*
X180112606Y-57304101D01*
X180279429Y-57253495D01*
X180433175Y-57171317D01*
X180567933Y-57060723D01*
X180595650Y-57026950D01*
X180874161Y-56748439D01*
X180907933Y-56720723D01*
X181018527Y-56585965D01*
X181100705Y-56432219D01*
X181151311Y-56265396D01*
X181164116Y-56135383D01*
X181164116Y-56135375D01*
X181168397Y-56091906D01*
X181164116Y-56048437D01*
X181164116Y-50622585D01*
X181168397Y-50579116D01*
X181164116Y-50535647D01*
X181164116Y-50535639D01*
X181151311Y-50405626D01*
X181100705Y-50238803D01*
X181018527Y-50085057D01*
X180989420Y-50049590D01*
X180935648Y-49984069D01*
X180935646Y-49984067D01*
X180907933Y-49950299D01*
X180874165Y-49922586D01*
X178338072Y-47386494D01*
X178338072Y-45863906D01*
X179698379Y-45863906D01*
X179726531Y-45956712D01*
G37*
%TD.AperFunction*%
D27*
X125902864Y-92027764D02*
X125888721Y-92041906D01*
X125902864Y-92056049D01*
X125723259Y-92235654D01*
X125709116Y-92221511D01*
X125694974Y-92235654D01*
X125515369Y-92056049D01*
X125529511Y-92041906D01*
X125515369Y-92027764D01*
X125694974Y-91848159D01*
X125709116Y-91862301D01*
X125723259Y-91848159D01*
X125902864Y-92027764D01*
%TA.AperFunction,Conductor*%
D32*
G36*
X125902864Y-92027764D02*
G01*
X125888721Y-92041906D01*
X125902864Y-92056049D01*
X125723259Y-92235654D01*
X125709116Y-92221511D01*
X125694974Y-92235654D01*
X125515369Y-92056049D01*
X125529511Y-92041906D01*
X125515369Y-92027764D01*
X125694974Y-91848159D01*
X125709116Y-91862301D01*
X125723259Y-91848159D01*
X125902864Y-92027764D01*
G37*
%TD.AperFunction*%
D27*
X125162921Y-48013336D02*
X125296549Y-48123002D01*
X125449004Y-48204491D01*
X125614428Y-48254672D01*
X125786463Y-48271616D01*
X125922018Y-48258265D01*
X126226418Y-48562665D01*
X126226417Y-50380030D01*
X126226418Y-50380040D01*
X126226417Y-83467273D01*
X125968008Y-83399522D01*
X125646521Y-83380188D01*
X125327441Y-83423945D01*
X125023028Y-83529111D01*
X124849072Y-83622092D01*
X124753308Y-83886493D01*
X125709116Y-84842301D01*
X125723259Y-84828159D01*
X125902864Y-85007764D01*
X125888721Y-85021906D01*
X125902864Y-85036049D01*
X125723259Y-85215654D01*
X125709116Y-85201511D01*
X125694974Y-85215654D01*
X125515369Y-85036049D01*
X125529511Y-85021906D01*
X124573703Y-84066098D01*
X124309302Y-84161862D01*
X124168412Y-84451477D01*
X124086732Y-84763014D01*
X124067398Y-85084501D01*
X124089047Y-85242367D01*
X124067907Y-85263507D01*
X123990273Y-85014434D01*
X123726233Y-84888535D01*
X123442705Y-84816567D01*
X123150585Y-84801295D01*
X122861097Y-84843307D01*
X122585369Y-84940987D01*
X122447959Y-85014434D01*
X122370324Y-85263509D01*
X123219116Y-86112301D01*
X123233259Y-86098159D01*
X123412864Y-86277764D01*
X123398721Y-86291906D01*
X124247513Y-87140698D01*
X124496588Y-87063063D01*
X124622487Y-86799023D01*
X124694455Y-86515495D01*
X124709727Y-86223375D01*
X124706879Y-86203751D01*
X124753309Y-86157321D01*
X124849072Y-86421720D01*
X125138687Y-86562610D01*
X125450224Y-86644290D01*
X125771711Y-86663624D01*
X126090791Y-86619867D01*
X126226417Y-86573012D01*
X126226417Y-90487273D01*
X125968008Y-90419522D01*
X125646521Y-90400188D01*
X125327441Y-90443945D01*
X125023028Y-90549111D01*
X124849072Y-90642092D01*
X124753309Y-90906491D01*
X124704116Y-90857298D01*
X124704116Y-90625646D01*
X124647048Y-90338748D01*
X124535106Y-90068495D01*
X124372591Y-89825274D01*
X124165748Y-89618431D01*
X123922527Y-89455916D01*
X123652274Y-89343974D01*
X123365376Y-89286906D01*
X123072856Y-89286906D01*
X122785958Y-89343974D01*
X122515705Y-89455916D01*
X122272484Y-89618431D01*
X122065641Y-89825274D01*
X122061116Y-89832046D01*
X122061116Y-87320303D01*
X122370324Y-87320303D01*
X122447959Y-87569378D01*
X122711999Y-87695277D01*
X122995527Y-87767245D01*
X123287647Y-87782517D01*
X123577135Y-87740505D01*
X123852863Y-87642825D01*
X123990273Y-87569378D01*
X124067908Y-87320303D01*
X123219116Y-86471511D01*
X122370324Y-87320303D01*
X122061116Y-87320303D01*
X122061116Y-87100302D01*
X122190719Y-87140698D01*
X123039511Y-86291906D01*
X122190719Y-85443114D01*
X122061116Y-85483510D01*
X122061116Y-78993906D01*
X123336542Y-78993906D01*
X123368715Y-78990737D01*
X123371668Y-78990758D01*
X123382256Y-78989720D01*
X123430088Y-78984693D01*
X123448494Y-78982880D01*
X123449108Y-78982694D01*
X123479305Y-78979520D01*
X123546967Y-78965631D01*
X123614799Y-78952692D01*
X123624974Y-78949619D01*
X123624984Y-78949617D01*
X123624993Y-78949613D01*
X123718203Y-78920760D01*
X123781902Y-78893984D01*
X123845909Y-78868123D01*
X123855291Y-78863134D01*
X123855299Y-78863131D01*
X123855305Y-78863127D01*
X123941141Y-78816716D01*
X123998420Y-78778080D01*
X124056186Y-78740280D01*
X124064428Y-78733557D01*
X124064432Y-78733554D01*
X124064436Y-78733550D01*
X124139619Y-78671353D01*
X124188284Y-78622347D01*
X124237623Y-78574032D01*
X124244405Y-78565834D01*
X124306081Y-78490213D01*
X124344319Y-78432661D01*
X124383325Y-78375695D01*
X124388376Y-78366352D01*
X124388381Y-78366345D01*
X124388385Y-78366336D01*
X124434197Y-78280175D01*
X124460511Y-78216333D01*
X124487720Y-78152850D01*
X124490866Y-78142686D01*
X124519070Y-78049268D01*
X124532479Y-77981550D01*
X124546846Y-77913959D01*
X124547958Y-77903378D01*
X124557480Y-77806261D01*
X124557480Y-77806250D01*
X124561116Y-77769332D01*
X124561116Y-76694480D01*
X124557947Y-76662307D01*
X124557968Y-76659354D01*
X124556930Y-76648766D01*
X124551904Y-76600942D01*
X124550090Y-76582528D01*
X124549904Y-76581914D01*
X124546730Y-76551718D01*
X124532843Y-76484062D01*
X124519902Y-76416223D01*
X124516829Y-76406048D01*
X124516827Y-76406038D01*
X124516823Y-76406029D01*
X124487970Y-76312819D01*
X124461204Y-76249145D01*
X124435333Y-76185112D01*
X124430344Y-76175731D01*
X124430341Y-76175723D01*
X124430337Y-76175717D01*
X124383925Y-76089881D01*
X124345308Y-76032628D01*
X124307490Y-75974836D01*
X124300771Y-75966599D01*
X124300764Y-75966589D01*
X124300756Y-75966581D01*
X124238563Y-75891403D01*
X124189557Y-75842738D01*
X124141242Y-75793399D01*
X124133044Y-75786617D01*
X124057423Y-75724941D01*
X123999853Y-75686691D01*
X123942904Y-75647697D01*
X123933562Y-75642646D01*
X123933555Y-75642641D01*
X123933548Y-75642638D01*
X123933546Y-75642637D01*
X123847385Y-75596825D01*
X123783543Y-75570511D01*
X123720060Y-75543302D01*
X123709896Y-75540156D01*
X123616478Y-75511951D01*
X123548723Y-75498535D01*
X123481169Y-75484176D01*
X123470588Y-75483064D01*
X123373471Y-75473542D01*
X123373460Y-75473542D01*
X123336542Y-75469906D01*
X122061116Y-75469906D01*
X122061116Y-74993906D01*
X123336542Y-74993906D01*
X123368715Y-74990737D01*
X123371668Y-74990758D01*
X123382256Y-74989720D01*
X123430088Y-74984693D01*
X123448494Y-74982880D01*
X123449108Y-74982694D01*
X123479305Y-74979520D01*
X123546967Y-74965631D01*
X123614799Y-74952692D01*
X123624974Y-74949619D01*
X123624984Y-74949617D01*
X123624993Y-74949613D01*
X123718203Y-74920760D01*
X123781902Y-74893984D01*
X123845909Y-74868123D01*
X123855291Y-74863134D01*
X123855299Y-74863131D01*
X123855305Y-74863127D01*
X123941141Y-74816716D01*
X123998420Y-74778080D01*
X124056186Y-74740280D01*
X124064428Y-74733557D01*
X124064432Y-74733554D01*
X124064436Y-74733550D01*
X124139619Y-74671353D01*
X124188284Y-74622347D01*
X124237623Y-74574032D01*
X124244405Y-74565834D01*
X124306081Y-74490213D01*
X124344319Y-74432661D01*
X124383325Y-74375695D01*
X124388376Y-74366352D01*
X124388381Y-74366345D01*
X124388385Y-74366336D01*
X124434197Y-74280175D01*
X124460511Y-74216333D01*
X124487720Y-74152850D01*
X124490866Y-74142686D01*
X124519070Y-74049268D01*
X124532479Y-73981550D01*
X124546846Y-73913959D01*
X124547958Y-73903378D01*
X124557480Y-73806261D01*
X124557480Y-73806250D01*
X124561116Y-73769332D01*
X124561116Y-71694480D01*
X124557947Y-71662307D01*
X124557968Y-71659354D01*
X124556930Y-71648766D01*
X124551904Y-71600942D01*
X124550090Y-71582528D01*
X124549904Y-71581914D01*
X124546730Y-71551718D01*
X124532843Y-71484062D01*
X124519902Y-71416223D01*
X124516829Y-71406048D01*
X124516827Y-71406038D01*
X124516823Y-71406029D01*
X124487970Y-71312819D01*
X124461204Y-71249145D01*
X124435333Y-71185112D01*
X124430344Y-71175731D01*
X124430341Y-71175723D01*
X124430337Y-71175717D01*
X124383925Y-71089881D01*
X124345308Y-71032628D01*
X124307490Y-70974836D01*
X124300771Y-70966599D01*
X124300764Y-70966589D01*
X124300756Y-70966581D01*
X124238563Y-70891403D01*
X124189557Y-70842738D01*
X124141242Y-70793399D01*
X124133044Y-70786617D01*
X124057423Y-70724941D01*
X123999853Y-70686691D01*
X123942904Y-70647697D01*
X123933562Y-70642646D01*
X123933555Y-70642641D01*
X123933548Y-70642638D01*
X123933546Y-70642637D01*
X123847385Y-70596825D01*
X123783543Y-70570511D01*
X123720060Y-70543302D01*
X123709896Y-70540156D01*
X123616478Y-70511951D01*
X123548723Y-70498535D01*
X123481169Y-70484176D01*
X123470588Y-70483064D01*
X123373471Y-70473542D01*
X123373460Y-70473542D01*
X123336542Y-70469906D01*
X122563693Y-70469906D01*
X124800190Y-68707203D01*
X124806703Y-68700942D01*
X124817217Y-68692244D01*
X124844128Y-68665144D01*
X124873502Y-68640723D01*
X124880927Y-68633104D01*
X125054106Y-68452891D01*
X125096884Y-68398647D01*
X125140393Y-68345033D01*
X125146192Y-68336123D01*
X125146196Y-68336118D01*
X125146199Y-68336113D01*
X125281072Y-68125700D01*
X125312486Y-68064206D01*
X125344765Y-68003138D01*
X125348726Y-67993264D01*
X125348727Y-67993263D01*
X125348729Y-67993257D01*
X125440164Y-67760656D01*
X125459029Y-67694252D01*
X125478838Y-67628060D01*
X125480805Y-67617604D01*
X125525322Y-67371666D01*
X125530933Y-67302834D01*
X125537505Y-67234076D01*
X125537404Y-67223452D01*
X125537405Y-67223441D01*
X125537404Y-67223431D01*
X125533302Y-66973537D01*
X125525437Y-66904933D01*
X125518529Y-66836208D01*
X125516364Y-66825792D01*
X125463802Y-66581447D01*
X125442757Y-66515663D01*
X125422635Y-66449599D01*
X125418490Y-66439808D01*
X125418488Y-66439802D01*
X125418485Y-66439797D01*
X125319467Y-66210321D01*
X125286047Y-66149882D01*
X125253474Y-66088980D01*
X125247503Y-66080174D01*
X125105794Y-65874297D01*
X125061271Y-65821500D01*
X125061142Y-65821342D01*
X125061996Y-56037462D01*
X125062000Y-56037426D01*
X125062000Y-55997007D01*
X125062003Y-55962641D01*
X125062000Y-55962611D01*
X125062000Y-47912415D01*
X125162921Y-48013336D01*
%TA.AperFunction,Conductor*%
D32*
G36*
X125162921Y-48013336D02*
G01*
X125296549Y-48123002D01*
X125449004Y-48204491D01*
X125614428Y-48254672D01*
X125786463Y-48271616D01*
X125922018Y-48258265D01*
X126226418Y-48562665D01*
X126226417Y-50380030D01*
X126226418Y-50380040D01*
X126226417Y-83467273D01*
X125968008Y-83399522D01*
X125646521Y-83380188D01*
X125327441Y-83423945D01*
X125023028Y-83529111D01*
X124849072Y-83622092D01*
X124753308Y-83886493D01*
X125709116Y-84842301D01*
X125723259Y-84828159D01*
X125902864Y-85007764D01*
X125888721Y-85021906D01*
X125902864Y-85036049D01*
X125723259Y-85215654D01*
X125709116Y-85201511D01*
X125694974Y-85215654D01*
X125515369Y-85036049D01*
X125529511Y-85021906D01*
X124573703Y-84066098D01*
X124309302Y-84161862D01*
X124168412Y-84451477D01*
X124086732Y-84763014D01*
X124067398Y-85084501D01*
X124089047Y-85242367D01*
X124067907Y-85263507D01*
X123990273Y-85014434D01*
X123726233Y-84888535D01*
X123442705Y-84816567D01*
X123150585Y-84801295D01*
X122861097Y-84843307D01*
X122585369Y-84940987D01*
X122447959Y-85014434D01*
X122370324Y-85263509D01*
X123219116Y-86112301D01*
X123233259Y-86098159D01*
X123412864Y-86277764D01*
X123398721Y-86291906D01*
X124247513Y-87140698D01*
X124496588Y-87063063D01*
X124622487Y-86799023D01*
X124694455Y-86515495D01*
X124709727Y-86223375D01*
X124706879Y-86203751D01*
X124753309Y-86157321D01*
X124849072Y-86421720D01*
X125138687Y-86562610D01*
X125450224Y-86644290D01*
X125771711Y-86663624D01*
X126090791Y-86619867D01*
X126226417Y-86573012D01*
X126226417Y-90487273D01*
X125968008Y-90419522D01*
X125646521Y-90400188D01*
X125327441Y-90443945D01*
X125023028Y-90549111D01*
X124849072Y-90642092D01*
X124753309Y-90906491D01*
X124704116Y-90857298D01*
X124704116Y-90625646D01*
X124647048Y-90338748D01*
X124535106Y-90068495D01*
X124372591Y-89825274D01*
X124165748Y-89618431D01*
X123922527Y-89455916D01*
X123652274Y-89343974D01*
X123365376Y-89286906D01*
X123072856Y-89286906D01*
X122785958Y-89343974D01*
X122515705Y-89455916D01*
X122272484Y-89618431D01*
X122065641Y-89825274D01*
X122061116Y-89832046D01*
X122061116Y-87320303D01*
X122370324Y-87320303D01*
X122447959Y-87569378D01*
X122711999Y-87695277D01*
X122995527Y-87767245D01*
X123287647Y-87782517D01*
X123577135Y-87740505D01*
X123852863Y-87642825D01*
X123990273Y-87569378D01*
X124067908Y-87320303D01*
X123219116Y-86471511D01*
X122370324Y-87320303D01*
X122061116Y-87320303D01*
X122061116Y-87100302D01*
X122190719Y-87140698D01*
X123039511Y-86291906D01*
X122190719Y-85443114D01*
X122061116Y-85483510D01*
X122061116Y-78993906D01*
X123336542Y-78993906D01*
X123368715Y-78990737D01*
X123371668Y-78990758D01*
X123382256Y-78989720D01*
X123430088Y-78984693D01*
X123448494Y-78982880D01*
X123449108Y-78982694D01*
X123479305Y-78979520D01*
X123546967Y-78965631D01*
X123614799Y-78952692D01*
X123624974Y-78949619D01*
X123624984Y-78949617D01*
X123624993Y-78949613D01*
X123718203Y-78920760D01*
X123781902Y-78893984D01*
X123845909Y-78868123D01*
X123855291Y-78863134D01*
X123855299Y-78863131D01*
X123855305Y-78863127D01*
X123941141Y-78816716D01*
X123998420Y-78778080D01*
X124056186Y-78740280D01*
X124064428Y-78733557D01*
X124064432Y-78733554D01*
X124064436Y-78733550D01*
X124139619Y-78671353D01*
X124188284Y-78622347D01*
X124237623Y-78574032D01*
X124244405Y-78565834D01*
X124306081Y-78490213D01*
X124344319Y-78432661D01*
X124383325Y-78375695D01*
X124388376Y-78366352D01*
X124388381Y-78366345D01*
X124388385Y-78366336D01*
X124434197Y-78280175D01*
X124460511Y-78216333D01*
X124487720Y-78152850D01*
X124490866Y-78142686D01*
X124519070Y-78049268D01*
X124532479Y-77981550D01*
X124546846Y-77913959D01*
X124547958Y-77903378D01*
X124557480Y-77806261D01*
X124557480Y-77806250D01*
X124561116Y-77769332D01*
X124561116Y-76694480D01*
X124557947Y-76662307D01*
X124557968Y-76659354D01*
X124556930Y-76648766D01*
X124551904Y-76600942D01*
X124550090Y-76582528D01*
X124549904Y-76581914D01*
X124546730Y-76551718D01*
X124532843Y-76484062D01*
X124519902Y-76416223D01*
X124516829Y-76406048D01*
X124516827Y-76406038D01*
X124516823Y-76406029D01*
X124487970Y-76312819D01*
X124461204Y-76249145D01*
X124435333Y-76185112D01*
X124430344Y-76175731D01*
X124430341Y-76175723D01*
X124430337Y-76175717D01*
X124383925Y-76089881D01*
X124345308Y-76032628D01*
X124307490Y-75974836D01*
X124300771Y-75966599D01*
X124300764Y-75966589D01*
X124300756Y-75966581D01*
X124238563Y-75891403D01*
X124189557Y-75842738D01*
X124141242Y-75793399D01*
X124133044Y-75786617D01*
X124057423Y-75724941D01*
X123999853Y-75686691D01*
X123942904Y-75647697D01*
X123933562Y-75642646D01*
X123933555Y-75642641D01*
X123933548Y-75642638D01*
X123933546Y-75642637D01*
X123847385Y-75596825D01*
X123783543Y-75570511D01*
X123720060Y-75543302D01*
X123709896Y-75540156D01*
X123616478Y-75511951D01*
X123548723Y-75498535D01*
X123481169Y-75484176D01*
X123470588Y-75483064D01*
X123373471Y-75473542D01*
X123373460Y-75473542D01*
X123336542Y-75469906D01*
X122061116Y-75469906D01*
X122061116Y-74993906D01*
X123336542Y-74993906D01*
X123368715Y-74990737D01*
X123371668Y-74990758D01*
X123382256Y-74989720D01*
X123430088Y-74984693D01*
X123448494Y-74982880D01*
X123449108Y-74982694D01*
X123479305Y-74979520D01*
X123546967Y-74965631D01*
X123614799Y-74952692D01*
X123624974Y-74949619D01*
X123624984Y-74949617D01*
X123624993Y-74949613D01*
X123718203Y-74920760D01*
X123781902Y-74893984D01*
X123845909Y-74868123D01*
X123855291Y-74863134D01*
X123855299Y-74863131D01*
X123855305Y-74863127D01*
X123941141Y-74816716D01*
X123998420Y-74778080D01*
X124056186Y-74740280D01*
X124064428Y-74733557D01*
X124064432Y-74733554D01*
X124064436Y-74733550D01*
X124139619Y-74671353D01*
X124188284Y-74622347D01*
X124237623Y-74574032D01*
X124244405Y-74565834D01*
X124306081Y-74490213D01*
X124344319Y-74432661D01*
X124383325Y-74375695D01*
X124388376Y-74366352D01*
X124388381Y-74366345D01*
X124388385Y-74366336D01*
X124434197Y-74280175D01*
X124460511Y-74216333D01*
X124487720Y-74152850D01*
X124490866Y-74142686D01*
X124519070Y-74049268D01*
X124532479Y-73981550D01*
X124546846Y-73913959D01*
X124547958Y-73903378D01*
X124557480Y-73806261D01*
X124557480Y-73806250D01*
X124561116Y-73769332D01*
X124561116Y-71694480D01*
X124557947Y-71662307D01*
X124557968Y-71659354D01*
X124556930Y-71648766D01*
X124551904Y-71600942D01*
X124550090Y-71582528D01*
X124549904Y-71581914D01*
X124546730Y-71551718D01*
X124532843Y-71484062D01*
X124519902Y-71416223D01*
X124516829Y-71406048D01*
X124516827Y-71406038D01*
X124516823Y-71406029D01*
X124487970Y-71312819D01*
X124461204Y-71249145D01*
X124435333Y-71185112D01*
X124430344Y-71175731D01*
X124430341Y-71175723D01*
X124430337Y-71175717D01*
X124383925Y-71089881D01*
X124345308Y-71032628D01*
X124307490Y-70974836D01*
X124300771Y-70966599D01*
X124300764Y-70966589D01*
X124300756Y-70966581D01*
X124238563Y-70891403D01*
X124189557Y-70842738D01*
X124141242Y-70793399D01*
X124133044Y-70786617D01*
X124057423Y-70724941D01*
X123999853Y-70686691D01*
X123942904Y-70647697D01*
X123933562Y-70642646D01*
X123933555Y-70642641D01*
X123933548Y-70642638D01*
X123933546Y-70642637D01*
X123847385Y-70596825D01*
X123783543Y-70570511D01*
X123720060Y-70543302D01*
X123709896Y-70540156D01*
X123616478Y-70511951D01*
X123548723Y-70498535D01*
X123481169Y-70484176D01*
X123470588Y-70483064D01*
X123373471Y-70473542D01*
X123373460Y-70473542D01*
X123336542Y-70469906D01*
X122563693Y-70469906D01*
X124800190Y-68707203D01*
X124806703Y-68700942D01*
X124817217Y-68692244D01*
X124844128Y-68665144D01*
X124873502Y-68640723D01*
X124880927Y-68633104D01*
X125054106Y-68452891D01*
X125096884Y-68398647D01*
X125140393Y-68345033D01*
X125146192Y-68336123D01*
X125146196Y-68336118D01*
X125146199Y-68336113D01*
X125281072Y-68125700D01*
X125312486Y-68064206D01*
X125344765Y-68003138D01*
X125348726Y-67993264D01*
X125348727Y-67993263D01*
X125348729Y-67993257D01*
X125440164Y-67760656D01*
X125459029Y-67694252D01*
X125478838Y-67628060D01*
X125480805Y-67617604D01*
X125525322Y-67371666D01*
X125530933Y-67302834D01*
X125537505Y-67234076D01*
X125537404Y-67223452D01*
X125537405Y-67223441D01*
X125537404Y-67223431D01*
X125533302Y-66973537D01*
X125525437Y-66904933D01*
X125518529Y-66836208D01*
X125516364Y-66825792D01*
X125463802Y-66581447D01*
X125442757Y-66515663D01*
X125422635Y-66449599D01*
X125418490Y-66439808D01*
X125418488Y-66439802D01*
X125418485Y-66439797D01*
X125319467Y-66210321D01*
X125286047Y-66149882D01*
X125253474Y-66088980D01*
X125247503Y-66080174D01*
X125105794Y-65874297D01*
X125061271Y-65821500D01*
X125061142Y-65821342D01*
X125061996Y-56037462D01*
X125062000Y-56037426D01*
X125062000Y-55997007D01*
X125062003Y-55962641D01*
X125062000Y-55962611D01*
X125062000Y-47912415D01*
X125162921Y-48013336D01*
G37*
%TD.AperFunction*%
D27*
X183215443Y-68627095D02*
X183216941Y-68629244D01*
X183298041Y-68707202D01*
X185534538Y-70469906D01*
X184761690Y-70469906D01*
X184729517Y-70473075D01*
X184726564Y-70473054D01*
X184715976Y-70474092D01*
X184668152Y-70479118D01*
X184649738Y-70480932D01*
X184649124Y-70481118D01*
X184618928Y-70484292D01*
X184551272Y-70498179D01*
X184483433Y-70511120D01*
X184473258Y-70514193D01*
X184473248Y-70514195D01*
X184473239Y-70514199D01*
X184380029Y-70543052D01*
X184316355Y-70569818D01*
X184252322Y-70595689D01*
X184242941Y-70600678D01*
X184242933Y-70600681D01*
X184242929Y-70600684D01*
X184157091Y-70647097D01*
X184099838Y-70685714D01*
X184042046Y-70723532D01*
X184033809Y-70730251D01*
X184033799Y-70730258D01*
X184033791Y-70730266D01*
X183958613Y-70792459D01*
X183909948Y-70841465D01*
X183860609Y-70889780D01*
X183853827Y-70897978D01*
X183792151Y-70973599D01*
X183753901Y-71031169D01*
X183714907Y-71088118D01*
X183709856Y-71097460D01*
X183709851Y-71097467D01*
X183709848Y-71097474D01*
X183709847Y-71097476D01*
X183664035Y-71183637D01*
X183637721Y-71247479D01*
X183610512Y-71310962D01*
X183607366Y-71321126D01*
X183579161Y-71414544D01*
X183565745Y-71482299D01*
X183551386Y-71549853D01*
X183550274Y-71560434D01*
X183540752Y-71657551D01*
X183540752Y-71657563D01*
X183537116Y-71694481D01*
X183537117Y-73769332D01*
X183540285Y-73801495D01*
X183540264Y-73804458D01*
X183541302Y-73815046D01*
X183546345Y-73863029D01*
X183548143Y-73881284D01*
X183548328Y-73881893D01*
X183551502Y-73912095D01*
X183565391Y-73979757D01*
X183578330Y-74047589D01*
X183581403Y-74057764D01*
X183581405Y-74057774D01*
X183581409Y-74057783D01*
X183610262Y-74150993D01*
X183637038Y-74214692D01*
X183662899Y-74278699D01*
X183667888Y-74288081D01*
X183667891Y-74288089D01*
X183667892Y-74288090D01*
X183667894Y-74288093D01*
X183714306Y-74373931D01*
X183752942Y-74431210D01*
X183790742Y-74488976D01*
X183797464Y-74497216D01*
X183797468Y-74497222D01*
X183797472Y-74497226D01*
X183859669Y-74572409D01*
X183908675Y-74621074D01*
X183956990Y-74670413D01*
X183965188Y-74677195D01*
X184040809Y-74738871D01*
X184098361Y-74777109D01*
X184155327Y-74816115D01*
X184164670Y-74821166D01*
X184164677Y-74821171D01*
X184164684Y-74821174D01*
X184164686Y-74821175D01*
X184250847Y-74866987D01*
X184314689Y-74893301D01*
X184378172Y-74920510D01*
X184388336Y-74923656D01*
X184481754Y-74951860D01*
X184549472Y-74965269D01*
X184617063Y-74979636D01*
X184627644Y-74980748D01*
X184724761Y-74990270D01*
X184724772Y-74990270D01*
X184761690Y-74993906D01*
X186037116Y-74993906D01*
X186037117Y-75469906D01*
X184761690Y-75469906D01*
X184729517Y-75473075D01*
X184726564Y-75473054D01*
X184715976Y-75474092D01*
X184668152Y-75479118D01*
X184649738Y-75480932D01*
X184649124Y-75481118D01*
X184618928Y-75484292D01*
X184551272Y-75498179D01*
X184483433Y-75511120D01*
X184473258Y-75514193D01*
X184473248Y-75514195D01*
X184473239Y-75514199D01*
X184380029Y-75543052D01*
X184316355Y-75569818D01*
X184252322Y-75595689D01*
X184242941Y-75600678D01*
X184242933Y-75600681D01*
X184242929Y-75600684D01*
X184157091Y-75647097D01*
X184099838Y-75685714D01*
X184042046Y-75723532D01*
X184033809Y-75730251D01*
X184033799Y-75730258D01*
X184033791Y-75730266D01*
X183958613Y-75792459D01*
X183909948Y-75841465D01*
X183860609Y-75889780D01*
X183853827Y-75897978D01*
X183792151Y-75973599D01*
X183753901Y-76031169D01*
X183714907Y-76088118D01*
X183709856Y-76097460D01*
X183709851Y-76097467D01*
X183709848Y-76097474D01*
X183709847Y-76097476D01*
X183664035Y-76183637D01*
X183637721Y-76247479D01*
X183610512Y-76310962D01*
X183607366Y-76321126D01*
X183579161Y-76414544D01*
X183565745Y-76482299D01*
X183551386Y-76549853D01*
X183550274Y-76560434D01*
X183540752Y-76657551D01*
X183540752Y-76657563D01*
X183537116Y-76694481D01*
X183537117Y-77769332D01*
X183540285Y-77801495D01*
X183540264Y-77804458D01*
X183541302Y-77815046D01*
X183546345Y-77863029D01*
X183548143Y-77881284D01*
X183548328Y-77881893D01*
X183551502Y-77912095D01*
X183565391Y-77979757D01*
X183578330Y-78047589D01*
X183581403Y-78057764D01*
X183581405Y-78057774D01*
X183581409Y-78057783D01*
X183610262Y-78150993D01*
X183637038Y-78214692D01*
X183662899Y-78278699D01*
X183667888Y-78288081D01*
X183667891Y-78288089D01*
X183667892Y-78288090D01*
X183667894Y-78288093D01*
X183714306Y-78373931D01*
X183752942Y-78431210D01*
X183790742Y-78488976D01*
X183797464Y-78497216D01*
X183797468Y-78497222D01*
X183797472Y-78497226D01*
X183859669Y-78572409D01*
X183908675Y-78621074D01*
X183956990Y-78670413D01*
X183965188Y-78677195D01*
X184040809Y-78738871D01*
X184098361Y-78777109D01*
X184155327Y-78816115D01*
X184164670Y-78821166D01*
X184164677Y-78821171D01*
X184164684Y-78821174D01*
X184164686Y-78821175D01*
X184250847Y-78866987D01*
X184314689Y-78893301D01*
X184378172Y-78920510D01*
X184388336Y-78923656D01*
X184481754Y-78951860D01*
X184549472Y-78965269D01*
X184617063Y-78979636D01*
X184627644Y-78980748D01*
X184724761Y-78990270D01*
X184724772Y-78990270D01*
X184761690Y-78993906D01*
X186037116Y-78993906D01*
X186037117Y-85483511D01*
X185907513Y-85443114D01*
X185058721Y-86291906D01*
X185907513Y-87140698D01*
X186037117Y-87100301D01*
X186037117Y-89832047D01*
X186032591Y-89825274D01*
X185825748Y-89618431D01*
X185582527Y-89455916D01*
X185312274Y-89343974D01*
X185025376Y-89286906D01*
X184732856Y-89286906D01*
X184511815Y-89330874D01*
X184511815Y-87730767D01*
X184655527Y-87767245D01*
X184947647Y-87782517D01*
X185237135Y-87740505D01*
X185512863Y-87642825D01*
X185650273Y-87569378D01*
X185727908Y-87320303D01*
X184879116Y-86471511D01*
X184864974Y-86485654D01*
X184685369Y-86306049D01*
X184699511Y-86291906D01*
X184685369Y-86277764D01*
X184864974Y-86098159D01*
X184879116Y-86112301D01*
X185727908Y-85263509D01*
X185650273Y-85014434D01*
X185386233Y-84888535D01*
X185102705Y-84816567D01*
X184810585Y-84801295D01*
X184521097Y-84843307D01*
X184511815Y-84846595D01*
X184511815Y-84468630D01*
X184515501Y-84431207D01*
X184506106Y-84335818D01*
X184500789Y-84281829D01*
X184457217Y-84138192D01*
X184386461Y-84005816D01*
X184386460Y-84005814D01*
X184315094Y-83918855D01*
X184291237Y-83889785D01*
X184262168Y-83865929D01*
X183124029Y-82727791D01*
X183124029Y-68538013D01*
X183215443Y-68627095D01*
%TA.AperFunction,Conductor*%
D32*
G36*
X183215443Y-68627095D02*
G01*
X183216941Y-68629244D01*
X183298041Y-68707202D01*
X185534538Y-70469906D01*
X184761690Y-70469906D01*
X184729517Y-70473075D01*
X184726564Y-70473054D01*
X184715976Y-70474092D01*
X184668152Y-70479118D01*
X184649738Y-70480932D01*
X184649124Y-70481118D01*
X184618928Y-70484292D01*
X184551272Y-70498179D01*
X184483433Y-70511120D01*
X184473258Y-70514193D01*
X184473248Y-70514195D01*
X184473239Y-70514199D01*
X184380029Y-70543052D01*
X184316355Y-70569818D01*
X184252322Y-70595689D01*
X184242941Y-70600678D01*
X184242933Y-70600681D01*
X184242929Y-70600684D01*
X184157091Y-70647097D01*
X184099838Y-70685714D01*
X184042046Y-70723532D01*
X184033809Y-70730251D01*
X184033799Y-70730258D01*
X184033791Y-70730266D01*
X183958613Y-70792459D01*
X183909948Y-70841465D01*
X183860609Y-70889780D01*
X183853827Y-70897978D01*
X183792151Y-70973599D01*
X183753901Y-71031169D01*
X183714907Y-71088118D01*
X183709856Y-71097460D01*
X183709851Y-71097467D01*
X183709848Y-71097474D01*
X183709847Y-71097476D01*
X183664035Y-71183637D01*
X183637721Y-71247479D01*
X183610512Y-71310962D01*
X183607366Y-71321126D01*
X183579161Y-71414544D01*
X183565745Y-71482299D01*
X183551386Y-71549853D01*
X183550274Y-71560434D01*
X183540752Y-71657551D01*
X183540752Y-71657563D01*
X183537116Y-71694481D01*
X183537117Y-73769332D01*
X183540285Y-73801495D01*
X183540264Y-73804458D01*
X183541302Y-73815046D01*
X183546345Y-73863029D01*
X183548143Y-73881284D01*
X183548328Y-73881893D01*
X183551502Y-73912095D01*
X183565391Y-73979757D01*
X183578330Y-74047589D01*
X183581403Y-74057764D01*
X183581405Y-74057774D01*
X183581409Y-74057783D01*
X183610262Y-74150993D01*
X183637038Y-74214692D01*
X183662899Y-74278699D01*
X183667888Y-74288081D01*
X183667891Y-74288089D01*
X183667892Y-74288090D01*
X183667894Y-74288093D01*
X183714306Y-74373931D01*
X183752942Y-74431210D01*
X183790742Y-74488976D01*
X183797464Y-74497216D01*
X183797468Y-74497222D01*
X183797472Y-74497226D01*
X183859669Y-74572409D01*
X183908675Y-74621074D01*
X183956990Y-74670413D01*
X183965188Y-74677195D01*
X184040809Y-74738871D01*
X184098361Y-74777109D01*
X184155327Y-74816115D01*
X184164670Y-74821166D01*
X184164677Y-74821171D01*
X184164684Y-74821174D01*
X184164686Y-74821175D01*
X184250847Y-74866987D01*
X184314689Y-74893301D01*
X184378172Y-74920510D01*
X184388336Y-74923656D01*
X184481754Y-74951860D01*
X184549472Y-74965269D01*
X184617063Y-74979636D01*
X184627644Y-74980748D01*
X184724761Y-74990270D01*
X184724772Y-74990270D01*
X184761690Y-74993906D01*
X186037116Y-74993906D01*
X186037117Y-75469906D01*
X184761690Y-75469906D01*
X184729517Y-75473075D01*
X184726564Y-75473054D01*
X184715976Y-75474092D01*
X184668152Y-75479118D01*
X184649738Y-75480932D01*
X184649124Y-75481118D01*
X184618928Y-75484292D01*
X184551272Y-75498179D01*
X184483433Y-75511120D01*
X184473258Y-75514193D01*
X184473248Y-75514195D01*
X184473239Y-75514199D01*
X184380029Y-75543052D01*
X184316355Y-75569818D01*
X184252322Y-75595689D01*
X184242941Y-75600678D01*
X184242933Y-75600681D01*
X184242929Y-75600684D01*
X184157091Y-75647097D01*
X184099838Y-75685714D01*
X184042046Y-75723532D01*
X184033809Y-75730251D01*
X184033799Y-75730258D01*
X184033791Y-75730266D01*
X183958613Y-75792459D01*
X183909948Y-75841465D01*
X183860609Y-75889780D01*
X183853827Y-75897978D01*
X183792151Y-75973599D01*
X183753901Y-76031169D01*
X183714907Y-76088118D01*
X183709856Y-76097460D01*
X183709851Y-76097467D01*
X183709848Y-76097474D01*
X183709847Y-76097476D01*
X183664035Y-76183637D01*
X183637721Y-76247479D01*
X183610512Y-76310962D01*
X183607366Y-76321126D01*
X183579161Y-76414544D01*
X183565745Y-76482299D01*
X183551386Y-76549853D01*
X183550274Y-76560434D01*
X183540752Y-76657551D01*
X183540752Y-76657563D01*
X183537116Y-76694481D01*
X183537117Y-77769332D01*
X183540285Y-77801495D01*
X183540264Y-77804458D01*
X183541302Y-77815046D01*
X183546345Y-77863029D01*
X183548143Y-77881284D01*
X183548328Y-77881893D01*
X183551502Y-77912095D01*
X183565391Y-77979757D01*
X183578330Y-78047589D01*
X183581403Y-78057764D01*
X183581405Y-78057774D01*
X183581409Y-78057783D01*
X183610262Y-78150993D01*
X183637038Y-78214692D01*
X183662899Y-78278699D01*
X183667888Y-78288081D01*
X183667891Y-78288089D01*
X183667892Y-78288090D01*
X183667894Y-78288093D01*
X183714306Y-78373931D01*
X183752942Y-78431210D01*
X183790742Y-78488976D01*
X183797464Y-78497216D01*
X183797468Y-78497222D01*
X183797472Y-78497226D01*
X183859669Y-78572409D01*
X183908675Y-78621074D01*
X183956990Y-78670413D01*
X183965188Y-78677195D01*
X184040809Y-78738871D01*
X184098361Y-78777109D01*
X184155327Y-78816115D01*
X184164670Y-78821166D01*
X184164677Y-78821171D01*
X184164684Y-78821174D01*
X184164686Y-78821175D01*
X184250847Y-78866987D01*
X184314689Y-78893301D01*
X184378172Y-78920510D01*
X184388336Y-78923656D01*
X184481754Y-78951860D01*
X184549472Y-78965269D01*
X184617063Y-78979636D01*
X184627644Y-78980748D01*
X184724761Y-78990270D01*
X184724772Y-78990270D01*
X184761690Y-78993906D01*
X186037116Y-78993906D01*
X186037117Y-85483511D01*
X185907513Y-85443114D01*
X185058721Y-86291906D01*
X185907513Y-87140698D01*
X186037117Y-87100301D01*
X186037117Y-89832047D01*
X186032591Y-89825274D01*
X185825748Y-89618431D01*
X185582527Y-89455916D01*
X185312274Y-89343974D01*
X185025376Y-89286906D01*
X184732856Y-89286906D01*
X184511815Y-89330874D01*
X184511815Y-87730767D01*
X184655527Y-87767245D01*
X184947647Y-87782517D01*
X185237135Y-87740505D01*
X185512863Y-87642825D01*
X185650273Y-87569378D01*
X185727908Y-87320303D01*
X184879116Y-86471511D01*
X184864974Y-86485654D01*
X184685369Y-86306049D01*
X184699511Y-86291906D01*
X184685369Y-86277764D01*
X184864974Y-86098159D01*
X184879116Y-86112301D01*
X185727908Y-85263509D01*
X185650273Y-85014434D01*
X185386233Y-84888535D01*
X185102705Y-84816567D01*
X184810585Y-84801295D01*
X184521097Y-84843307D01*
X184511815Y-84846595D01*
X184511815Y-84468630D01*
X184515501Y-84431207D01*
X184506106Y-84335818D01*
X184500789Y-84281829D01*
X184457217Y-84138192D01*
X184386461Y-84005816D01*
X184386460Y-84005814D01*
X184315094Y-83918855D01*
X184291237Y-83889785D01*
X184262168Y-83865929D01*
X183124029Y-82727791D01*
X183124029Y-68538013D01*
X183215443Y-68627095D01*
G37*
%TD.AperFunction*%
D27*
X159129013Y-64812252D02*
X159356748Y-65039987D01*
X159624537Y-65218918D01*
X159724542Y-65260342D01*
X157774978Y-67209906D01*
X155549245Y-67209906D01*
X155668348Y-67186215D01*
X155846315Y-67112499D01*
X156006480Y-67005480D01*
X156142690Y-66869270D01*
X156249709Y-66709105D01*
X156323425Y-66531138D01*
X156360157Y-66346473D01*
X157369625Y-65337006D01*
X157382088Y-65342168D01*
X157697967Y-65405000D01*
X158020033Y-65405000D01*
X158335912Y-65342168D01*
X158633463Y-65218918D01*
X158901252Y-65039987D01*
X159128987Y-64812252D01*
X159129000Y-64812233D01*
X159129013Y-64812252D01*
%TA.AperFunction,Conductor*%
D32*
G36*
X159129013Y-64812252D02*
G01*
X159356748Y-65039987D01*
X159624537Y-65218918D01*
X159724542Y-65260342D01*
X157774978Y-67209906D01*
X155549245Y-67209906D01*
X155668348Y-67186215D01*
X155846315Y-67112499D01*
X156006480Y-67005480D01*
X156142690Y-66869270D01*
X156249709Y-66709105D01*
X156323425Y-66531138D01*
X156360157Y-66346473D01*
X157369625Y-65337006D01*
X157382088Y-65342168D01*
X157697967Y-65405000D01*
X158020033Y-65405000D01*
X158335912Y-65342168D01*
X158633463Y-65218918D01*
X158901252Y-65039987D01*
X159128987Y-64812252D01*
X159129000Y-64812233D01*
X159129013Y-64812252D01*
G37*
%TD.AperFunction*%
D27*
X162456154Y-45913944D02*
X162345711Y-46048519D01*
X162263644Y-46202055D01*
X162255659Y-46228379D01*
X162229738Y-46230932D01*
X162086101Y-46274504D01*
X161953724Y-46345261D01*
X161837694Y-46440484D01*
X161813837Y-46469554D01*
X158361280Y-49922112D01*
X158258494Y-49890932D01*
X158146542Y-49879906D01*
X158129093Y-49879906D01*
X158079653Y-49787412D01*
X158000301Y-49690721D01*
X157903610Y-49611369D01*
X157793296Y-49552404D01*
X157673598Y-49516094D01*
X157549116Y-49503834D01*
X157232518Y-49503834D01*
X157279653Y-49446400D01*
X157338618Y-49336086D01*
X157374928Y-49216388D01*
X157387188Y-49091906D01*
X157387188Y-48491906D01*
X157374928Y-48367424D01*
X157338618Y-48247726D01*
X157279653Y-48137412D01*
X157200301Y-48040721D01*
X157103610Y-47961369D01*
X156993296Y-47902404D01*
X156873598Y-47866094D01*
X156749116Y-47853834D01*
X155749116Y-47853834D01*
X155624634Y-47866094D01*
X155504936Y-47902404D01*
X155394622Y-47961369D01*
X155297931Y-48040721D01*
X155218579Y-48137412D01*
X155159614Y-48247726D01*
X155123304Y-48367424D01*
X155111044Y-48491906D01*
X155111044Y-49091906D01*
X155123304Y-49216388D01*
X155159614Y-49336086D01*
X155218579Y-49446400D01*
X155297931Y-49543091D01*
X155394622Y-49622443D01*
X155504936Y-49681408D01*
X155624634Y-49717718D01*
X155749116Y-49729978D01*
X156215714Y-49729978D01*
X156168579Y-49787412D01*
X156109614Y-49897726D01*
X156073304Y-50017424D01*
X156061044Y-50141906D01*
X156061044Y-51141906D01*
X156073304Y-51266388D01*
X156109614Y-51386086D01*
X156168579Y-51496400D01*
X156215714Y-51553834D01*
X155749116Y-51553834D01*
X155624634Y-51566094D01*
X155504936Y-51602404D01*
X155394622Y-51661369D01*
X155297931Y-51740721D01*
X155218579Y-51837412D01*
X155159614Y-51947726D01*
X155123304Y-52067424D01*
X155111044Y-52191906D01*
X155111044Y-52791906D01*
X155123304Y-52916388D01*
X155159614Y-53036086D01*
X155218579Y-53146400D01*
X155297931Y-53243091D01*
X155394622Y-53322443D01*
X155504936Y-53381408D01*
X155624634Y-53417718D01*
X155749116Y-53429978D01*
X156749116Y-53429978D01*
X156873598Y-53417718D01*
X156993296Y-53381408D01*
X157103610Y-53322443D01*
X157200301Y-53243091D01*
X157279653Y-53146400D01*
X157338618Y-53036086D01*
X157374928Y-52916388D01*
X157387188Y-52791906D01*
X157387188Y-52191906D01*
X157374928Y-52067424D01*
X157338618Y-51947726D01*
X157279653Y-51837412D01*
X157232518Y-51779978D01*
X157549116Y-51779978D01*
X157673598Y-51767718D01*
X157793296Y-51731408D01*
X157903610Y-51672443D01*
X158000301Y-51593091D01*
X158079653Y-51496400D01*
X158082322Y-51491406D01*
X158594193Y-51491406D01*
X158631616Y-51495092D01*
X158669039Y-51491406D01*
X158669042Y-51491406D01*
X158780994Y-51480380D01*
X158924631Y-51436808D01*
X159057008Y-51366051D01*
X159173038Y-51270828D01*
X159196900Y-51241752D01*
X162416772Y-48021881D01*
X162456154Y-48069868D01*
X162590729Y-48180311D01*
X162744265Y-48262378D01*
X162910861Y-48312914D01*
X163084115Y-48329978D01*
X163273749Y-48329978D01*
X163261928Y-48450000D01*
X163261928Y-51250000D01*
X163274188Y-51374482D01*
X163310498Y-51494180D01*
X163369463Y-51604494D01*
X163448815Y-51701185D01*
X163545506Y-51780537D01*
X163655820Y-51839502D01*
X163775518Y-51875812D01*
X163900000Y-51888072D01*
X166500000Y-51888072D01*
X166624482Y-51875812D01*
X166744180Y-51839502D01*
X166854494Y-51780537D01*
X166951185Y-51701185D01*
X167030537Y-51604494D01*
X167089502Y-51494180D01*
X167125812Y-51374482D01*
X167138072Y-51250000D01*
X167138072Y-50453740D01*
X169015000Y-50453740D01*
X169015000Y-50746260D01*
X169072068Y-51033158D01*
X169184010Y-51303411D01*
X169346525Y-51546632D01*
X169553368Y-51753475D01*
X169796589Y-51915990D01*
X170066842Y-52027932D01*
X170353740Y-52085000D01*
X170646260Y-52085000D01*
X170933158Y-52027932D01*
X171203411Y-51915990D01*
X171446632Y-51753475D01*
X171653475Y-51546632D01*
X171815990Y-51303411D01*
X171927932Y-51033158D01*
X171985000Y-50746260D01*
X171985000Y-50453740D01*
X171927932Y-50166842D01*
X171815990Y-49896589D01*
X171653475Y-49653368D01*
X171446632Y-49446525D01*
X171203411Y-49284010D01*
X170933158Y-49172068D01*
X170646260Y-49115000D01*
X170353740Y-49115000D01*
X170066842Y-49172068D01*
X169796589Y-49284010D01*
X169553368Y-49446525D01*
X169346525Y-49653368D01*
X169184010Y-49896589D01*
X169072068Y-50166842D01*
X169015000Y-50453740D01*
X167138072Y-50453740D01*
X167138072Y-48450000D01*
X167125812Y-48325518D01*
X167089502Y-48205820D01*
X167030537Y-48095506D01*
X166951185Y-47998815D01*
X166854494Y-47919463D01*
X166744180Y-47860498D01*
X166624482Y-47824188D01*
X166500000Y-47811928D01*
X166310367Y-47811928D01*
X166322188Y-47691906D01*
X166319116Y-47277656D01*
X166160366Y-47118906D01*
X165298616Y-47118906D01*
X165298616Y-47138906D01*
X165044616Y-47138906D01*
X165044616Y-47118906D01*
X165024616Y-47118906D01*
X165024616Y-46864906D01*
X165044616Y-46864906D01*
X165044616Y-46844906D01*
X165298616Y-46844906D01*
X165298616Y-46864906D01*
X166160366Y-46864906D01*
X166319116Y-46706156D01*
X166322188Y-46291906D01*
X166309928Y-46167424D01*
X166273618Y-46047726D01*
X166214653Y-45937412D01*
X166154328Y-45863906D01*
X174861928Y-45863906D01*
X174861928Y-48300000D01*
X174874188Y-48424482D01*
X174910498Y-48544180D01*
X174969463Y-48654494D01*
X175048815Y-48751185D01*
X175145506Y-48830537D01*
X175255820Y-48889502D01*
X175375518Y-48925812D01*
X175500000Y-48938072D01*
X177386494Y-48938072D01*
X177563422Y-49115000D01*
X177353740Y-49115000D01*
X177066842Y-49172068D01*
X176796589Y-49284010D01*
X176553368Y-49446525D01*
X176346525Y-49653368D01*
X176184010Y-49896589D01*
X176072068Y-50166842D01*
X176015000Y-50453740D01*
X176015000Y-50746260D01*
X176072068Y-51033158D01*
X176184010Y-51303411D01*
X176346525Y-51546632D01*
X176553368Y-51753475D01*
X176796589Y-51915990D01*
X177066842Y-52027932D01*
X177353740Y-52085000D01*
X177646260Y-52085000D01*
X177933158Y-52027932D01*
X178203411Y-51915990D01*
X178446632Y-51753475D01*
X178653475Y-51546632D01*
X178815990Y-51303411D01*
X178927932Y-51033158D01*
X178985000Y-50746260D01*
X178985000Y-50536579D01*
X179394117Y-50945696D01*
X179394117Y-52261928D01*
X177500000Y-52261928D01*
X177375518Y-52274188D01*
X177255820Y-52310498D01*
X177145506Y-52369463D01*
X177048815Y-52448815D01*
X176969463Y-52545506D01*
X176910498Y-52655820D01*
X176874188Y-52775518D01*
X176861928Y-52900000D01*
X176861928Y-53369168D01*
X176735431Y-53344006D01*
X176542801Y-53344006D01*
X176353873Y-53381586D01*
X176175906Y-53455302D01*
X176029168Y-53553349D01*
X175907503Y-53453501D01*
X175753968Y-53371434D01*
X175587372Y-53320898D01*
X175414118Y-53303834D01*
X174889114Y-53303834D01*
X174715860Y-53320898D01*
X174549264Y-53371434D01*
X174395729Y-53453501D01*
X174261154Y-53563944D01*
X174239116Y-53590797D01*
X174217078Y-53563944D01*
X174082503Y-53453501D01*
X173928968Y-53371434D01*
X173762372Y-53320898D01*
X173589118Y-53303834D01*
X173064114Y-53303834D01*
X172890860Y-53320898D01*
X172724264Y-53371434D01*
X172570729Y-53453501D01*
X172436154Y-53563944D01*
X172325711Y-53698519D01*
X172295636Y-53754786D01*
X172245626Y-53759711D01*
X172078803Y-53810317D01*
X172047722Y-53826930D01*
X172008701Y-53768531D01*
X171872491Y-53632321D01*
X171712326Y-53525302D01*
X171534359Y-53451586D01*
X171345431Y-53414006D01*
X171238072Y-53414006D01*
X171238072Y-52900000D01*
X171225812Y-52775518D01*
X171189502Y-52655820D01*
X171130537Y-52545506D01*
X171051185Y-52448815D01*
X170954494Y-52369463D01*
X170844180Y-52310498D01*
X170724482Y-52274188D01*
X170600000Y-52261928D01*
X167800000Y-52261928D01*
X167675518Y-52274188D01*
X167555820Y-52310498D01*
X167445506Y-52369463D01*
X167348815Y-52448815D01*
X167269463Y-52545506D01*
X167210498Y-52655820D01*
X167174188Y-52775518D01*
X167161928Y-52900000D01*
X167161928Y-55700000D01*
X167174188Y-55824482D01*
X167210498Y-55944180D01*
X167269463Y-56054494D01*
X167348815Y-56151185D01*
X167445506Y-56230537D01*
X167555820Y-56289502D01*
X167675518Y-56325812D01*
X167800000Y-56338072D01*
X169461372Y-56338072D01*
X168478576Y-57320868D01*
X168323727Y-57424335D01*
X168187517Y-57560545D01*
X168080498Y-57720710D01*
X168006782Y-57898677D01*
X167974712Y-58059906D01*
X155224516Y-58059906D01*
X155187093Y-58056220D01*
X155149670Y-58059906D01*
X155149668Y-58059906D01*
X155037716Y-58070932D01*
X154894079Y-58114504D01*
X154761702Y-58185261D01*
X154645672Y-58280484D01*
X154621815Y-58309554D01*
X153268375Y-59662994D01*
X153255912Y-59657832D01*
X152940033Y-59595000D01*
X152617967Y-59595000D01*
X152302088Y-59657832D01*
X152004537Y-59781082D01*
X151736748Y-59960013D01*
X151509013Y-60187748D01*
X151509000Y-60187767D01*
X151508987Y-60187748D01*
X151281252Y-59960013D01*
X151013463Y-59781082D01*
X150715912Y-59657832D01*
X150400033Y-59595000D01*
X150077967Y-59595000D01*
X149762088Y-59657832D01*
X149464537Y-59781082D01*
X149196748Y-59960013D01*
X148969013Y-60187748D01*
X148969000Y-60187767D01*
X148968987Y-60187748D01*
X148741252Y-59960013D01*
X148473463Y-59781082D01*
X148175912Y-59657832D01*
X147860033Y-59595000D01*
X147537967Y-59595000D01*
X147222088Y-59657832D01*
X146924537Y-59781082D01*
X146656748Y-59960013D01*
X146429013Y-60187748D01*
X146250772Y-60454504D01*
X146173598Y-60431094D01*
X146049116Y-60418834D01*
X145634866Y-60421906D01*
X145476116Y-60580656D01*
X145476116Y-61442406D01*
X145496116Y-61442406D01*
X145496116Y-61696406D01*
X145476116Y-61696406D01*
X145476116Y-61716406D01*
X145222116Y-61716406D01*
X145222116Y-61696406D01*
X144172866Y-61696406D01*
X144014116Y-61855156D01*
X144011044Y-62081906D01*
X144023304Y-62206388D01*
X144059614Y-62326086D01*
X144118579Y-62436400D01*
X144197931Y-62533091D01*
X144227392Y-62557269D01*
X144160711Y-62638519D01*
X144078644Y-62792054D01*
X144028108Y-62958650D01*
X144011044Y-63131904D01*
X144011044Y-63656908D01*
X144028108Y-63830162D01*
X144078644Y-63996758D01*
X144160711Y-64150293D01*
X144271154Y-64284868D01*
X144405729Y-64395311D01*
X144559264Y-64477378D01*
X144725860Y-64527914D01*
X144899114Y-64544978D01*
X145474558Y-64544978D01*
X146920555Y-65990976D01*
X132519236Y-65990976D01*
X137453306Y-61056906D01*
X144011044Y-61056906D01*
X144014116Y-61283656D01*
X144172866Y-61442406D01*
X145222116Y-61442406D01*
X145222116Y-60580656D01*
X145063366Y-60421906D01*
X144649116Y-60418834D01*
X144524634Y-60431094D01*
X144404936Y-60467404D01*
X144294622Y-60526369D01*
X144197931Y-60605721D01*
X144118579Y-60702412D01*
X144059614Y-60812726D01*
X144023304Y-60932424D01*
X144011044Y-61056906D01*
X137453306Y-61056906D01*
X140359996Y-58150217D01*
X144265382Y-58150217D01*
X144302805Y-58153903D01*
X144340228Y-58150217D01*
X144340231Y-58150217D01*
X144452183Y-58139191D01*
X144595820Y-58095619D01*
X144728197Y-58024862D01*
X144844227Y-57929639D01*
X144868089Y-57900563D01*
X149976746Y-52791906D01*
X150711044Y-52791906D01*
X150723304Y-52916388D01*
X150759614Y-53036086D01*
X150818579Y-53146400D01*
X150897931Y-53243091D01*
X150994622Y-53322443D01*
X151104936Y-53381408D01*
X151224634Y-53417718D01*
X151349116Y-53429978D01*
X151563366Y-53426906D01*
X151722116Y-53268156D01*
X151722116Y-52618906D01*
X151976116Y-52618906D01*
X151976116Y-53268156D01*
X152134866Y-53426906D01*
X152349116Y-53429978D01*
X152473598Y-53417718D01*
X152593296Y-53381408D01*
X152703610Y-53322443D01*
X152800301Y-53243091D01*
X152879653Y-53146400D01*
X152938618Y-53036086D01*
X152974928Y-52916388D01*
X152987188Y-52791906D01*
X152984116Y-52777656D01*
X152825366Y-52618906D01*
X151976116Y-52618906D01*
X151722116Y-52618906D01*
X150872866Y-52618906D01*
X150714116Y-52777656D01*
X150711044Y-52791906D01*
X149976746Y-52791906D01*
X150732916Y-52035737D01*
X150723304Y-52067424D01*
X150711044Y-52191906D01*
X150714116Y-52206156D01*
X150872866Y-52364906D01*
X151722116Y-52364906D01*
X151722116Y-52344906D01*
X151976116Y-52344906D01*
X151976116Y-52364906D01*
X152825366Y-52364906D01*
X152984116Y-52206156D01*
X152987188Y-52191906D01*
X152974928Y-52067424D01*
X152938618Y-51947726D01*
X152879653Y-51837412D01*
X152800301Y-51740721D01*
X152703610Y-51661369D01*
X152593296Y-51602404D01*
X152473598Y-51566094D01*
X152349116Y-51553834D01*
X152134866Y-51556906D01*
X151976118Y-51715654D01*
X151976118Y-51556906D01*
X151879997Y-51556906D01*
X151929653Y-51496400D01*
X151988618Y-51386086D01*
X152024928Y-51266388D01*
X152037188Y-51141906D01*
X152037188Y-50141906D01*
X152024928Y-50017424D01*
X151988618Y-49897726D01*
X151929653Y-49787412D01*
X151882518Y-49729978D01*
X152349116Y-49729978D01*
X152473598Y-49717718D01*
X152593296Y-49681408D01*
X152703610Y-49622443D01*
X152800301Y-49543091D01*
X152879653Y-49446400D01*
X152938618Y-49336086D01*
X152974928Y-49216388D01*
X152987188Y-49091906D01*
X152987188Y-48491906D01*
X152974928Y-48367424D01*
X152938618Y-48247726D01*
X152879653Y-48137412D01*
X152800301Y-48040721D01*
X152703610Y-47961369D01*
X152593296Y-47902404D01*
X152473598Y-47866094D01*
X152349116Y-47853834D01*
X151349116Y-47853834D01*
X151224634Y-47866094D01*
X151104936Y-47902404D01*
X150994622Y-47961369D01*
X150911109Y-48029906D01*
X148977627Y-48029906D01*
X148940204Y-48026220D01*
X148902781Y-48029906D01*
X148902779Y-48029906D01*
X148790827Y-48040932D01*
X148647190Y-48084504D01*
X148514813Y-48155261D01*
X148398783Y-48250484D01*
X148374926Y-48279554D01*
X144838072Y-51816408D01*
X144838072Y-49950000D01*
X144825812Y-49825518D01*
X144789502Y-49705820D01*
X144730537Y-49595506D01*
X144651185Y-49498815D01*
X144554494Y-49419463D01*
X144444180Y-49360498D01*
X144324482Y-49324188D01*
X144215292Y-49313434D01*
X144248618Y-49251086D01*
X144284928Y-49131388D01*
X144297188Y-49006906D01*
X144294116Y-48780156D01*
X144135366Y-48621406D01*
X143086116Y-48621406D01*
X143086116Y-48641406D01*
X142832116Y-48641406D01*
X142832116Y-48621406D01*
X141782866Y-48621406D01*
X141624116Y-48780156D01*
X141621044Y-49006906D01*
X141633304Y-49131388D01*
X141669614Y-49251086D01*
X141702135Y-49311928D01*
X141600000Y-49311928D01*
X141475518Y-49324188D01*
X141355820Y-49360498D01*
X141245506Y-49419463D01*
X141148815Y-49498815D01*
X141069463Y-49595506D01*
X141010498Y-49705820D01*
X140974188Y-49825518D01*
X140961928Y-49950000D01*
X140961928Y-52750000D01*
X140974188Y-52874482D01*
X141010498Y-52994180D01*
X141069463Y-53104494D01*
X141148815Y-53201185D01*
X141245506Y-53280537D01*
X141355820Y-53339502D01*
X141475518Y-53375812D01*
X141600000Y-53388072D01*
X143266409Y-53388072D01*
X141330470Y-55324011D01*
X141236397Y-55183221D01*
X141100187Y-55047011D01*
X140940022Y-54939992D01*
X140806467Y-54884672D01*
X139785000Y-53863206D01*
X139785000Y-48938072D01*
X140300000Y-48938072D01*
X140424482Y-48925812D01*
X140544180Y-48889502D01*
X140654494Y-48830537D01*
X140751185Y-48751185D01*
X140830537Y-48654494D01*
X140889502Y-48544180D01*
X140925812Y-48424482D01*
X140938072Y-48300000D01*
X140938072Y-45893906D01*
X141786807Y-45893906D01*
X141775423Y-45907777D01*
X141667238Y-45918432D01*
X141523601Y-45962004D01*
X141391224Y-46032761D01*
X141275194Y-46127984D01*
X141179971Y-46244014D01*
X141109214Y-46376391D01*
X141065642Y-46520028D01*
X141050930Y-46669406D01*
X141065642Y-46818784D01*
X141109214Y-46962421D01*
X141179971Y-47094798D01*
X141275194Y-47210828D01*
X141391224Y-47306051D01*
X141523601Y-47376808D01*
X141667238Y-47420380D01*
X141775423Y-47431035D01*
X141837392Y-47506543D01*
X141807931Y-47530721D01*
X141728579Y-47627412D01*
X141669614Y-47737726D01*
X141633304Y-47857424D01*
X141621044Y-47981906D01*
X141624116Y-48208656D01*
X141782866Y-48367406D01*
X142832116Y-48367406D01*
X142832116Y-48347406D01*
X143086116Y-48347406D01*
X143086116Y-48367406D01*
X144135366Y-48367406D01*
X144294116Y-48208656D01*
X144297188Y-47981906D01*
X144284928Y-47857424D01*
X144248618Y-47737726D01*
X144189653Y-47627412D01*
X144110301Y-47530721D01*
X144080840Y-47506543D01*
X144142504Y-47431406D01*
X144194190Y-47431406D01*
X144231616Y-47435092D01*
X144269041Y-47431406D01*
X144269042Y-47431406D01*
X144380994Y-47420380D01*
X144524631Y-47376808D01*
X144657008Y-47306051D01*
X144773038Y-47210828D01*
X144868261Y-47094798D01*
X144939018Y-46962421D01*
X144982590Y-46818784D01*
X144997302Y-46669406D01*
X144993616Y-46631980D01*
X144993616Y-45893906D01*
X159801693Y-45893906D01*
X159839116Y-45897592D01*
X159876539Y-45893906D01*
X159876542Y-45893906D01*
X159988494Y-45882880D01*
X160051043Y-45863906D01*
X162517125Y-45863906D01*
X162456154Y-45913944D01*
%TA.AperFunction,Conductor*%
D32*
G36*
X162456154Y-45913944D02*
G01*
X162345711Y-46048519D01*
X162263644Y-46202055D01*
X162255659Y-46228379D01*
X162229738Y-46230932D01*
X162086101Y-46274504D01*
X161953724Y-46345261D01*
X161837694Y-46440484D01*
X161813837Y-46469554D01*
X158361280Y-49922112D01*
X158258494Y-49890932D01*
X158146542Y-49879906D01*
X158129093Y-49879906D01*
X158079653Y-49787412D01*
X158000301Y-49690721D01*
X157903610Y-49611369D01*
X157793296Y-49552404D01*
X157673598Y-49516094D01*
X157549116Y-49503834D01*
X157232518Y-49503834D01*
X157279653Y-49446400D01*
X157338618Y-49336086D01*
X157374928Y-49216388D01*
X157387188Y-49091906D01*
X157387188Y-48491906D01*
X157374928Y-48367424D01*
X157338618Y-48247726D01*
X157279653Y-48137412D01*
X157200301Y-48040721D01*
X157103610Y-47961369D01*
X156993296Y-47902404D01*
X156873598Y-47866094D01*
X156749116Y-47853834D01*
X155749116Y-47853834D01*
X155624634Y-47866094D01*
X155504936Y-47902404D01*
X155394622Y-47961369D01*
X155297931Y-48040721D01*
X155218579Y-48137412D01*
X155159614Y-48247726D01*
X155123304Y-48367424D01*
X155111044Y-48491906D01*
X155111044Y-49091906D01*
X155123304Y-49216388D01*
X155159614Y-49336086D01*
X155218579Y-49446400D01*
X155297931Y-49543091D01*
X155394622Y-49622443D01*
X155504936Y-49681408D01*
X155624634Y-49717718D01*
X155749116Y-49729978D01*
X156215714Y-49729978D01*
X156168579Y-49787412D01*
X156109614Y-49897726D01*
X156073304Y-50017424D01*
X156061044Y-50141906D01*
X156061044Y-51141906D01*
X156073304Y-51266388D01*
X156109614Y-51386086D01*
X156168579Y-51496400D01*
X156215714Y-51553834D01*
X155749116Y-51553834D01*
X155624634Y-51566094D01*
X155504936Y-51602404D01*
X155394622Y-51661369D01*
X155297931Y-51740721D01*
X155218579Y-51837412D01*
X155159614Y-51947726D01*
X155123304Y-52067424D01*
X155111044Y-52191906D01*
X155111044Y-52791906D01*
X155123304Y-52916388D01*
X155159614Y-53036086D01*
X155218579Y-53146400D01*
X155297931Y-53243091D01*
X155394622Y-53322443D01*
X155504936Y-53381408D01*
X155624634Y-53417718D01*
X155749116Y-53429978D01*
X156749116Y-53429978D01*
X156873598Y-53417718D01*
X156993296Y-53381408D01*
X157103610Y-53322443D01*
X157200301Y-53243091D01*
X157279653Y-53146400D01*
X157338618Y-53036086D01*
X157374928Y-52916388D01*
X157387188Y-52791906D01*
X157387188Y-52191906D01*
X157374928Y-52067424D01*
X157338618Y-51947726D01*
X157279653Y-51837412D01*
X157232518Y-51779978D01*
X157549116Y-51779978D01*
X157673598Y-51767718D01*
X157793296Y-51731408D01*
X157903610Y-51672443D01*
X158000301Y-51593091D01*
X158079653Y-51496400D01*
X158082322Y-51491406D01*
X158594193Y-51491406D01*
X158631616Y-51495092D01*
X158669039Y-51491406D01*
X158669042Y-51491406D01*
X158780994Y-51480380D01*
X158924631Y-51436808D01*
X159057008Y-51366051D01*
X159173038Y-51270828D01*
X159196900Y-51241752D01*
X162416772Y-48021881D01*
X162456154Y-48069868D01*
X162590729Y-48180311D01*
X162744265Y-48262378D01*
X162910861Y-48312914D01*
X163084115Y-48329978D01*
X163273749Y-48329978D01*
X163261928Y-48450000D01*
X163261928Y-51250000D01*
X163274188Y-51374482D01*
X163310498Y-51494180D01*
X163369463Y-51604494D01*
X163448815Y-51701185D01*
X163545506Y-51780537D01*
X163655820Y-51839502D01*
X163775518Y-51875812D01*
X163900000Y-51888072D01*
X166500000Y-51888072D01*
X166624482Y-51875812D01*
X166744180Y-51839502D01*
X166854494Y-51780537D01*
X166951185Y-51701185D01*
X167030537Y-51604494D01*
X167089502Y-51494180D01*
X167125812Y-51374482D01*
X167138072Y-51250000D01*
X167138072Y-50453740D01*
X169015000Y-50453740D01*
X169015000Y-50746260D01*
X169072068Y-51033158D01*
X169184010Y-51303411D01*
X169346525Y-51546632D01*
X169553368Y-51753475D01*
X169796589Y-51915990D01*
X170066842Y-52027932D01*
X170353740Y-52085000D01*
X170646260Y-52085000D01*
X170933158Y-52027932D01*
X171203411Y-51915990D01*
X171446632Y-51753475D01*
X171653475Y-51546632D01*
X171815990Y-51303411D01*
X171927932Y-51033158D01*
X171985000Y-50746260D01*
X171985000Y-50453740D01*
X171927932Y-50166842D01*
X171815990Y-49896589D01*
X171653475Y-49653368D01*
X171446632Y-49446525D01*
X171203411Y-49284010D01*
X170933158Y-49172068D01*
X170646260Y-49115000D01*
X170353740Y-49115000D01*
X170066842Y-49172068D01*
X169796589Y-49284010D01*
X169553368Y-49446525D01*
X169346525Y-49653368D01*
X169184010Y-49896589D01*
X169072068Y-50166842D01*
X169015000Y-50453740D01*
X167138072Y-50453740D01*
X167138072Y-48450000D01*
X167125812Y-48325518D01*
X167089502Y-48205820D01*
X167030537Y-48095506D01*
X166951185Y-47998815D01*
X166854494Y-47919463D01*
X166744180Y-47860498D01*
X166624482Y-47824188D01*
X166500000Y-47811928D01*
X166310367Y-47811928D01*
X166322188Y-47691906D01*
X166319116Y-47277656D01*
X166160366Y-47118906D01*
X165298616Y-47118906D01*
X165298616Y-47138906D01*
X165044616Y-47138906D01*
X165044616Y-47118906D01*
X165024616Y-47118906D01*
X165024616Y-46864906D01*
X165044616Y-46864906D01*
X165044616Y-46844906D01*
X165298616Y-46844906D01*
X165298616Y-46864906D01*
X166160366Y-46864906D01*
X166319116Y-46706156D01*
X166322188Y-46291906D01*
X166309928Y-46167424D01*
X166273618Y-46047726D01*
X166214653Y-45937412D01*
X166154328Y-45863906D01*
X174861928Y-45863906D01*
X174861928Y-48300000D01*
X174874188Y-48424482D01*
X174910498Y-48544180D01*
X174969463Y-48654494D01*
X175048815Y-48751185D01*
X175145506Y-48830537D01*
X175255820Y-48889502D01*
X175375518Y-48925812D01*
X175500000Y-48938072D01*
X177386494Y-48938072D01*
X177563422Y-49115000D01*
X177353740Y-49115000D01*
X177066842Y-49172068D01*
X176796589Y-49284010D01*
X176553368Y-49446525D01*
X176346525Y-49653368D01*
X176184010Y-49896589D01*
X176072068Y-50166842D01*
X176015000Y-50453740D01*
X176015000Y-50746260D01*
X176072068Y-51033158D01*
X176184010Y-51303411D01*
X176346525Y-51546632D01*
X176553368Y-51753475D01*
X176796589Y-51915990D01*
X177066842Y-52027932D01*
X177353740Y-52085000D01*
X177646260Y-52085000D01*
X177933158Y-52027932D01*
X178203411Y-51915990D01*
X178446632Y-51753475D01*
X178653475Y-51546632D01*
X178815990Y-51303411D01*
X178927932Y-51033158D01*
X178985000Y-50746260D01*
X178985000Y-50536579D01*
X179394117Y-50945696D01*
X179394117Y-52261928D01*
X177500000Y-52261928D01*
X177375518Y-52274188D01*
X177255820Y-52310498D01*
X177145506Y-52369463D01*
X177048815Y-52448815D01*
X176969463Y-52545506D01*
X176910498Y-52655820D01*
X176874188Y-52775518D01*
X176861928Y-52900000D01*
X176861928Y-53369168D01*
X176735431Y-53344006D01*
X176542801Y-53344006D01*
X176353873Y-53381586D01*
X176175906Y-53455302D01*
X176029168Y-53553349D01*
X175907503Y-53453501D01*
X175753968Y-53371434D01*
X175587372Y-53320898D01*
X175414118Y-53303834D01*
X174889114Y-53303834D01*
X174715860Y-53320898D01*
X174549264Y-53371434D01*
X174395729Y-53453501D01*
X174261154Y-53563944D01*
X174239116Y-53590797D01*
X174217078Y-53563944D01*
X174082503Y-53453501D01*
X173928968Y-53371434D01*
X173762372Y-53320898D01*
X173589118Y-53303834D01*
X173064114Y-53303834D01*
X172890860Y-53320898D01*
X172724264Y-53371434D01*
X172570729Y-53453501D01*
X172436154Y-53563944D01*
X172325711Y-53698519D01*
X172295636Y-53754786D01*
X172245626Y-53759711D01*
X172078803Y-53810317D01*
X172047722Y-53826930D01*
X172008701Y-53768531D01*
X171872491Y-53632321D01*
X171712326Y-53525302D01*
X171534359Y-53451586D01*
X171345431Y-53414006D01*
X171238072Y-53414006D01*
X171238072Y-52900000D01*
X171225812Y-52775518D01*
X171189502Y-52655820D01*
X171130537Y-52545506D01*
X171051185Y-52448815D01*
X170954494Y-52369463D01*
X170844180Y-52310498D01*
X170724482Y-52274188D01*
X170600000Y-52261928D01*
X167800000Y-52261928D01*
X167675518Y-52274188D01*
X167555820Y-52310498D01*
X167445506Y-52369463D01*
X167348815Y-52448815D01*
X167269463Y-52545506D01*
X167210498Y-52655820D01*
X167174188Y-52775518D01*
X167161928Y-52900000D01*
X167161928Y-55700000D01*
X167174188Y-55824482D01*
X167210498Y-55944180D01*
X167269463Y-56054494D01*
X167348815Y-56151185D01*
X167445506Y-56230537D01*
X167555820Y-56289502D01*
X167675518Y-56325812D01*
X167800000Y-56338072D01*
X169461372Y-56338072D01*
X168478576Y-57320868D01*
X168323727Y-57424335D01*
X168187517Y-57560545D01*
X168080498Y-57720710D01*
X168006782Y-57898677D01*
X167974712Y-58059906D01*
X155224516Y-58059906D01*
X155187093Y-58056220D01*
X155149670Y-58059906D01*
X155149668Y-58059906D01*
X155037716Y-58070932D01*
X154894079Y-58114504D01*
X154761702Y-58185261D01*
X154645672Y-58280484D01*
X154621815Y-58309554D01*
X153268375Y-59662994D01*
X153255912Y-59657832D01*
X152940033Y-59595000D01*
X152617967Y-59595000D01*
X152302088Y-59657832D01*
X152004537Y-59781082D01*
X151736748Y-59960013D01*
X151509013Y-60187748D01*
X151509000Y-60187767D01*
X151508987Y-60187748D01*
X151281252Y-59960013D01*
X151013463Y-59781082D01*
X150715912Y-59657832D01*
X150400033Y-59595000D01*
X150077967Y-59595000D01*
X149762088Y-59657832D01*
X149464537Y-59781082D01*
X149196748Y-59960013D01*
X148969013Y-60187748D01*
X148969000Y-60187767D01*
X148968987Y-60187748D01*
X148741252Y-59960013D01*
X148473463Y-59781082D01*
X148175912Y-59657832D01*
X147860033Y-59595000D01*
X147537967Y-59595000D01*
X147222088Y-59657832D01*
X146924537Y-59781082D01*
X146656748Y-59960013D01*
X146429013Y-60187748D01*
X146250772Y-60454504D01*
X146173598Y-60431094D01*
X146049116Y-60418834D01*
X145634866Y-60421906D01*
X145476116Y-60580656D01*
X145476116Y-61442406D01*
X145496116Y-61442406D01*
X145496116Y-61696406D01*
X145476116Y-61696406D01*
X145476116Y-61716406D01*
X145222116Y-61716406D01*
X145222116Y-61696406D01*
X144172866Y-61696406D01*
X144014116Y-61855156D01*
X144011044Y-62081906D01*
X144023304Y-62206388D01*
X144059614Y-62326086D01*
X144118579Y-62436400D01*
X144197931Y-62533091D01*
X144227392Y-62557269D01*
X144160711Y-62638519D01*
X144078644Y-62792054D01*
X144028108Y-62958650D01*
X144011044Y-63131904D01*
X144011044Y-63656908D01*
X144028108Y-63830162D01*
X144078644Y-63996758D01*
X144160711Y-64150293D01*
X144271154Y-64284868D01*
X144405729Y-64395311D01*
X144559264Y-64477378D01*
X144725860Y-64527914D01*
X144899114Y-64544978D01*
X145474558Y-64544978D01*
X146920555Y-65990976D01*
X132519236Y-65990976D01*
X137453306Y-61056906D01*
X144011044Y-61056906D01*
X144014116Y-61283656D01*
X144172866Y-61442406D01*
X145222116Y-61442406D01*
X145222116Y-60580656D01*
X145063366Y-60421906D01*
X144649116Y-60418834D01*
X144524634Y-60431094D01*
X144404936Y-60467404D01*
X144294622Y-60526369D01*
X144197931Y-60605721D01*
X144118579Y-60702412D01*
X144059614Y-60812726D01*
X144023304Y-60932424D01*
X144011044Y-61056906D01*
X137453306Y-61056906D01*
X140359996Y-58150217D01*
X144265382Y-58150217D01*
X144302805Y-58153903D01*
X144340228Y-58150217D01*
X144340231Y-58150217D01*
X144452183Y-58139191D01*
X144595820Y-58095619D01*
X144728197Y-58024862D01*
X144844227Y-57929639D01*
X144868089Y-57900563D01*
X149976746Y-52791906D01*
X150711044Y-52791906D01*
X150723304Y-52916388D01*
X150759614Y-53036086D01*
X150818579Y-53146400D01*
X150897931Y-53243091D01*
X150994622Y-53322443D01*
X151104936Y-53381408D01*
X151224634Y-53417718D01*
X151349116Y-53429978D01*
X151563366Y-53426906D01*
X151722116Y-53268156D01*
X151722116Y-52618906D01*
X151976116Y-52618906D01*
X151976116Y-53268156D01*
X152134866Y-53426906D01*
X152349116Y-53429978D01*
X152473598Y-53417718D01*
X152593296Y-53381408D01*
X152703610Y-53322443D01*
X152800301Y-53243091D01*
X152879653Y-53146400D01*
X152938618Y-53036086D01*
X152974928Y-52916388D01*
X152987188Y-52791906D01*
X152984116Y-52777656D01*
X152825366Y-52618906D01*
X151976116Y-52618906D01*
X151722116Y-52618906D01*
X150872866Y-52618906D01*
X150714116Y-52777656D01*
X150711044Y-52791906D01*
X149976746Y-52791906D01*
X150732916Y-52035737D01*
X150723304Y-52067424D01*
X150711044Y-52191906D01*
X150714116Y-52206156D01*
X150872866Y-52364906D01*
X151722116Y-52364906D01*
X151722116Y-52344906D01*
X151976116Y-52344906D01*
X151976116Y-52364906D01*
X152825366Y-52364906D01*
X152984116Y-52206156D01*
X152987188Y-52191906D01*
X152974928Y-52067424D01*
X152938618Y-51947726D01*
X152879653Y-51837412D01*
X152800301Y-51740721D01*
X152703610Y-51661369D01*
X152593296Y-51602404D01*
X152473598Y-51566094D01*
X152349116Y-51553834D01*
X152134866Y-51556906D01*
X151976118Y-51715654D01*
X151976118Y-51556906D01*
X151879997Y-51556906D01*
X151929653Y-51496400D01*
X151988618Y-51386086D01*
X152024928Y-51266388D01*
X152037188Y-51141906D01*
X152037188Y-50141906D01*
X152024928Y-50017424D01*
X151988618Y-49897726D01*
X151929653Y-49787412D01*
X151882518Y-49729978D01*
X152349116Y-49729978D01*
X152473598Y-49717718D01*
X152593296Y-49681408D01*
X152703610Y-49622443D01*
X152800301Y-49543091D01*
X152879653Y-49446400D01*
X152938618Y-49336086D01*
X152974928Y-49216388D01*
X152987188Y-49091906D01*
X152987188Y-48491906D01*
X152974928Y-48367424D01*
X152938618Y-48247726D01*
X152879653Y-48137412D01*
X152800301Y-48040721D01*
X152703610Y-47961369D01*
X152593296Y-47902404D01*
X152473598Y-47866094D01*
X152349116Y-47853834D01*
X151349116Y-47853834D01*
X151224634Y-47866094D01*
X151104936Y-47902404D01*
X150994622Y-47961369D01*
X150911109Y-48029906D01*
X148977627Y-48029906D01*
X148940204Y-48026220D01*
X148902781Y-48029906D01*
X148902779Y-48029906D01*
X148790827Y-48040932D01*
X148647190Y-48084504D01*
X148514813Y-48155261D01*
X148398783Y-48250484D01*
X148374926Y-48279554D01*
X144838072Y-51816408D01*
X144838072Y-49950000D01*
X144825812Y-49825518D01*
X144789502Y-49705820D01*
X144730537Y-49595506D01*
X144651185Y-49498815D01*
X144554494Y-49419463D01*
X144444180Y-49360498D01*
X144324482Y-49324188D01*
X144215292Y-49313434D01*
X144248618Y-49251086D01*
X144284928Y-49131388D01*
X144297188Y-49006906D01*
X144294116Y-48780156D01*
X144135366Y-48621406D01*
X143086116Y-48621406D01*
X143086116Y-48641406D01*
X142832116Y-48641406D01*
X142832116Y-48621406D01*
X141782866Y-48621406D01*
X141624116Y-48780156D01*
X141621044Y-49006906D01*
X141633304Y-49131388D01*
X141669614Y-49251086D01*
X141702135Y-49311928D01*
X141600000Y-49311928D01*
X141475518Y-49324188D01*
X141355820Y-49360498D01*
X141245506Y-49419463D01*
X141148815Y-49498815D01*
X141069463Y-49595506D01*
X141010498Y-49705820D01*
X140974188Y-49825518D01*
X140961928Y-49950000D01*
X140961928Y-52750000D01*
X140974188Y-52874482D01*
X141010498Y-52994180D01*
X141069463Y-53104494D01*
X141148815Y-53201185D01*
X141245506Y-53280537D01*
X141355820Y-53339502D01*
X141475518Y-53375812D01*
X141600000Y-53388072D01*
X143266409Y-53388072D01*
X141330470Y-55324011D01*
X141236397Y-55183221D01*
X141100187Y-55047011D01*
X140940022Y-54939992D01*
X140806467Y-54884672D01*
X139785000Y-53863206D01*
X139785000Y-48938072D01*
X140300000Y-48938072D01*
X140424482Y-48925812D01*
X140544180Y-48889502D01*
X140654494Y-48830537D01*
X140751185Y-48751185D01*
X140830537Y-48654494D01*
X140889502Y-48544180D01*
X140925812Y-48424482D01*
X140938072Y-48300000D01*
X140938072Y-45893906D01*
X141786807Y-45893906D01*
X141775423Y-45907777D01*
X141667238Y-45918432D01*
X141523601Y-45962004D01*
X141391224Y-46032761D01*
X141275194Y-46127984D01*
X141179971Y-46244014D01*
X141109214Y-46376391D01*
X141065642Y-46520028D01*
X141050930Y-46669406D01*
X141065642Y-46818784D01*
X141109214Y-46962421D01*
X141179971Y-47094798D01*
X141275194Y-47210828D01*
X141391224Y-47306051D01*
X141523601Y-47376808D01*
X141667238Y-47420380D01*
X141775423Y-47431035D01*
X141837392Y-47506543D01*
X141807931Y-47530721D01*
X141728579Y-47627412D01*
X141669614Y-47737726D01*
X141633304Y-47857424D01*
X141621044Y-47981906D01*
X141624116Y-48208656D01*
X141782866Y-48367406D01*
X142832116Y-48367406D01*
X142832116Y-48347406D01*
X143086116Y-48347406D01*
X143086116Y-48367406D01*
X144135366Y-48367406D01*
X144294116Y-48208656D01*
X144297188Y-47981906D01*
X144284928Y-47857424D01*
X144248618Y-47737726D01*
X144189653Y-47627412D01*
X144110301Y-47530721D01*
X144080840Y-47506543D01*
X144142504Y-47431406D01*
X144194190Y-47431406D01*
X144231616Y-47435092D01*
X144269041Y-47431406D01*
X144269042Y-47431406D01*
X144380994Y-47420380D01*
X144524631Y-47376808D01*
X144657008Y-47306051D01*
X144773038Y-47210828D01*
X144868261Y-47094798D01*
X144939018Y-46962421D01*
X144982590Y-46818784D01*
X144997302Y-46669406D01*
X144993616Y-46631980D01*
X144993616Y-45893906D01*
X159801693Y-45893906D01*
X159839116Y-45897592D01*
X159876539Y-45893906D01*
X159876542Y-45893906D01*
X159988494Y-45882880D01*
X160051043Y-45863906D01*
X162517125Y-45863906D01*
X162456154Y-45913944D01*
G37*
%TD.AperFunction*%
D27*
X173049486Y-64719906D02*
X163093911Y-64719906D01*
X162952326Y-64625302D01*
X162774359Y-64551586D01*
X162619384Y-64520760D01*
X162851462Y-64288682D01*
X162880538Y-64264820D01*
X162940973Y-64191179D01*
X162975761Y-64148791D01*
X163046517Y-64016414D01*
X163046518Y-64016413D01*
X163090090Y-63872776D01*
X163101116Y-63760824D01*
X163101116Y-63760821D01*
X163104802Y-63723398D01*
X163101116Y-63685975D01*
X163101116Y-61279329D01*
X163104802Y-61241906D01*
X163101116Y-61204480D01*
X163090090Y-61092528D01*
X163046518Y-60948891D01*
X162975761Y-60816514D01*
X162880538Y-60700484D01*
X162873999Y-60695117D01*
X162868632Y-60688578D01*
X162752602Y-60593355D01*
X162620225Y-60522598D01*
X162476588Y-60479026D01*
X162364636Y-60468000D01*
X162364633Y-60468000D01*
X162327210Y-60464314D01*
X162289787Y-60468000D01*
X161853080Y-60468000D01*
X161847918Y-60455537D01*
X161668987Y-60187748D01*
X161441252Y-59960013D01*
X161173463Y-59781082D01*
X160875912Y-59657832D01*
X160560033Y-59595000D01*
X160237967Y-59595000D01*
X159922088Y-59657832D01*
X159624537Y-59781082D01*
X159356748Y-59960013D01*
X159129013Y-60187748D01*
X159056280Y-60296600D01*
X158994413Y-60274192D01*
X158038605Y-61230000D01*
X158994413Y-62185808D01*
X159056280Y-62163400D01*
X159129013Y-62272252D01*
X159356748Y-62499987D01*
X159356767Y-62500000D01*
X159356748Y-62500013D01*
X159129013Y-62727748D01*
X159129000Y-62727767D01*
X159128987Y-62727748D01*
X158901252Y-62500013D01*
X158792400Y-62427280D01*
X158814808Y-62365413D01*
X157859000Y-61409605D01*
X156903192Y-62365413D01*
X156925600Y-62427280D01*
X156816748Y-62500013D01*
X156589013Y-62727748D01*
X156589000Y-62727767D01*
X156588987Y-62727748D01*
X156361252Y-62500013D01*
X156361233Y-62500000D01*
X156361252Y-62499987D01*
X156588987Y-62272252D01*
X156661720Y-62163400D01*
X156723587Y-62185808D01*
X157679395Y-61230000D01*
X156723587Y-60274192D01*
X156661720Y-60296600D01*
X156588987Y-60187748D01*
X156495826Y-60094587D01*
X156903192Y-60094587D01*
X157859000Y-61050395D01*
X158814808Y-60094587D01*
X158719044Y-59830186D01*
X158429429Y-59689296D01*
X158117892Y-59607616D01*
X157796405Y-59588282D01*
X157477325Y-59632039D01*
X157172912Y-59737205D01*
X156998956Y-59830186D01*
X156903192Y-60094587D01*
X156495826Y-60094587D01*
X156361252Y-59960013D01*
X156093463Y-59781082D01*
X155795912Y-59657832D01*
X155489707Y-59596924D01*
X155502725Y-59583906D01*
X167913486Y-59583906D01*
X173049486Y-64719906D01*
%TA.AperFunction,Conductor*%
D32*
G36*
X173049486Y-64719906D02*
G01*
X163093911Y-64719906D01*
X162952326Y-64625302D01*
X162774359Y-64551586D01*
X162619384Y-64520760D01*
X162851462Y-64288682D01*
X162880538Y-64264820D01*
X162940973Y-64191179D01*
X162975761Y-64148791D01*
X163046517Y-64016414D01*
X163046518Y-64016413D01*
X163090090Y-63872776D01*
X163101116Y-63760824D01*
X163101116Y-63760821D01*
X163104802Y-63723398D01*
X163101116Y-63685975D01*
X163101116Y-61279329D01*
X163104802Y-61241906D01*
X163101116Y-61204480D01*
X163090090Y-61092528D01*
X163046518Y-60948891D01*
X162975761Y-60816514D01*
X162880538Y-60700484D01*
X162873999Y-60695117D01*
X162868632Y-60688578D01*
X162752602Y-60593355D01*
X162620225Y-60522598D01*
X162476588Y-60479026D01*
X162364636Y-60468000D01*
X162364633Y-60468000D01*
X162327210Y-60464314D01*
X162289787Y-60468000D01*
X161853080Y-60468000D01*
X161847918Y-60455537D01*
X161668987Y-60187748D01*
X161441252Y-59960013D01*
X161173463Y-59781082D01*
X160875912Y-59657832D01*
X160560033Y-59595000D01*
X160237967Y-59595000D01*
X159922088Y-59657832D01*
X159624537Y-59781082D01*
X159356748Y-59960013D01*
X159129013Y-60187748D01*
X159056280Y-60296600D01*
X158994413Y-60274192D01*
X158038605Y-61230000D01*
X158994413Y-62185808D01*
X159056280Y-62163400D01*
X159129013Y-62272252D01*
X159356748Y-62499987D01*
X159356767Y-62500000D01*
X159356748Y-62500013D01*
X159129013Y-62727748D01*
X159129000Y-62727767D01*
X159128987Y-62727748D01*
X158901252Y-62500013D01*
X158792400Y-62427280D01*
X158814808Y-62365413D01*
X157859000Y-61409605D01*
X156903192Y-62365413D01*
X156925600Y-62427280D01*
X156816748Y-62500013D01*
X156589013Y-62727748D01*
X156589000Y-62727767D01*
X156588987Y-62727748D01*
X156361252Y-62500013D01*
X156361233Y-62500000D01*
X156361252Y-62499987D01*
X156588987Y-62272252D01*
X156661720Y-62163400D01*
X156723587Y-62185808D01*
X157679395Y-61230000D01*
X156723587Y-60274192D01*
X156661720Y-60296600D01*
X156588987Y-60187748D01*
X156495826Y-60094587D01*
X156903192Y-60094587D01*
X157859000Y-61050395D01*
X158814808Y-60094587D01*
X158719044Y-59830186D01*
X158429429Y-59689296D01*
X158117892Y-59607616D01*
X157796405Y-59588282D01*
X157477325Y-59632039D01*
X157172912Y-59737205D01*
X156998956Y-59830186D01*
X156903192Y-60094587D01*
X156495826Y-60094587D01*
X156361252Y-59960013D01*
X156093463Y-59781082D01*
X155795912Y-59657832D01*
X155489707Y-59596924D01*
X155502725Y-59583906D01*
X167913486Y-59583906D01*
X173049486Y-64719906D01*
G37*
%TD.AperFunction*%
%TD*%
M02*
