%TF.GenerationSoftware,KiCad,Pcbnew,(5.1.9-0-10_14)*%
%TF.CreationDate,2022-05-11T18:09:50-07:00*%
%TF.ProjectId,integrator,696e7465-6772-4617-946f-722e6b696361,rev?*%
%TF.SameCoordinates,Original*%
%TF.FileFunction,Legend,Bot*%
%TF.FilePolarity,Positive*%
%FSLAX46Y46*%
G04 Gerber Fmt 4.6, Leading zero omitted, Abs format (unit mm)*
G04 Created by KiCad (PCBNEW (5.1.9-0-10_14)) date 2022-05-11 18:09:50*
%MOMM*%
%LPD*%
G01*
G04 APERTURE LIST*
%ADD10C,0.127000*%
%ADD11C,0.375000*%
%ADD12C,0.120000*%
%ADD13C,0.100000*%
%ADD14C,0.200000*%
%ADD15C,0.150000*%
%ADD16C,0.249999*%
%ADD17C,0.203200*%
%ADD18C,0.125000*%
G04 APERTURE END LIST*
D10*
X142509000Y-120110000D02*
X140579000Y-120130000D01*
X141479000Y-118710000D02*
X141509000Y-117530000D01*
X141499000Y-120050000D02*
X142369000Y-118690000D01*
X140689000Y-118710000D02*
X141499000Y-120050000D01*
X142359000Y-118740000D02*
X140689000Y-118710000D01*
X130849000Y-116330000D02*
X129049000Y-116370000D01*
X129939000Y-117560000D02*
X129979000Y-118970000D01*
X129179000Y-117550000D02*
X130789000Y-117570000D01*
X130049000Y-116360000D02*
X129179000Y-117550000D01*
X130809000Y-117630000D02*
X130049000Y-116360000D01*
X128249116Y-44631906D02*
X127919116Y-44871906D01*
X127919116Y-44341906D02*
X128249116Y-44631906D01*
X127889116Y-44621906D02*
X127579116Y-44621906D01*
X127909116Y-44841906D02*
X127919116Y-44341906D01*
X179929116Y-44561906D02*
X180239116Y-44561906D01*
X179569116Y-44551906D02*
X179899116Y-44311906D01*
X179899116Y-44841906D02*
X179569116Y-44551906D01*
X179909116Y-44341906D02*
X179899116Y-44841906D01*
D11*
X164340068Y-48157142D02*
X164340068Y-45157142D01*
X163425782Y-48157142D01*
X163425782Y-45157142D01*
X162359116Y-45157142D02*
X162054354Y-45157142D01*
X161901973Y-45300000D01*
X161749592Y-45585714D01*
X161673401Y-46157142D01*
X161673401Y-47157142D01*
X161749592Y-47728571D01*
X161901973Y-48014285D01*
X162054354Y-48157142D01*
X162359116Y-48157142D01*
X162511496Y-48014285D01*
X162663877Y-47728571D01*
X162740068Y-47157142D01*
X162740068Y-46157142D01*
X162663877Y-45585714D01*
X162511496Y-45300000D01*
X162359116Y-45157142D01*
X160987687Y-48157142D02*
X160987687Y-45157142D01*
X160073401Y-48157142D01*
X160073401Y-45157142D01*
X159311496Y-47014285D02*
X158092449Y-47014285D01*
X148873401Y-48014285D02*
X148644830Y-48157142D01*
X148263877Y-48157142D01*
X148111496Y-48014285D01*
X148035306Y-47871428D01*
X147959115Y-47585714D01*
X147959115Y-47300000D01*
X148035306Y-47014285D01*
X148111496Y-46871428D01*
X148263877Y-46728571D01*
X148568639Y-46585714D01*
X148721020Y-46442857D01*
X148797211Y-46300000D01*
X148873401Y-46014285D01*
X148873401Y-45728571D01*
X148797211Y-45442857D01*
X148721020Y-45300000D01*
X148568639Y-45157142D01*
X148187687Y-45157142D01*
X147959115Y-45300000D01*
X147501973Y-45157142D02*
X146587687Y-45157142D01*
X147044830Y-48157142D02*
X147044830Y-45157142D01*
X145749592Y-45157142D02*
X145444830Y-45157142D01*
X145292449Y-45300000D01*
X145140068Y-45585714D01*
X145063877Y-46157142D01*
X145063877Y-47157142D01*
X145140068Y-47728571D01*
X145292449Y-48014285D01*
X145444830Y-48157142D01*
X145749592Y-48157142D01*
X145901973Y-48014285D01*
X146054354Y-47728571D01*
X146130544Y-47157142D01*
X146130544Y-46157142D01*
X146054354Y-45585714D01*
X145901973Y-45300000D01*
X145749592Y-45157142D01*
X144378163Y-48157142D02*
X144378163Y-45157142D01*
X143768639Y-45157142D01*
X143616258Y-45300000D01*
X143540068Y-45442857D01*
X143463877Y-45728571D01*
X143463877Y-46157142D01*
X143540068Y-46442857D01*
X143616258Y-46585714D01*
X143768639Y-46728571D01*
X144378163Y-46728571D01*
X142778163Y-47871428D02*
X142701973Y-48014285D01*
X142778163Y-48157142D01*
X142854354Y-48014285D01*
X142778163Y-47871428D01*
X142778163Y-48157142D01*
X142778163Y-47014285D02*
X142854354Y-45300000D01*
X142778163Y-45157142D01*
X142701973Y-45300000D01*
X142778163Y-47014285D01*
X142778163Y-45157142D01*
D10*
X157872830Y-59276620D02*
X157872830Y-58768620D01*
X157872830Y-58841191D02*
X157836544Y-58804906D01*
X157763973Y-58768620D01*
X157655116Y-58768620D01*
X157582544Y-58804906D01*
X157546258Y-58877477D01*
X157546258Y-59276620D01*
X157546258Y-58877477D02*
X157509973Y-58804906D01*
X157437401Y-58768620D01*
X157328544Y-58768620D01*
X157255973Y-58804906D01*
X157219687Y-58877477D01*
X157219687Y-59276620D01*
X156530258Y-59276620D02*
X156530258Y-58877477D01*
X156566544Y-58804906D01*
X156639116Y-58768620D01*
X156784258Y-58768620D01*
X156856830Y-58804906D01*
X156530258Y-59240334D02*
X156602830Y-59276620D01*
X156784258Y-59276620D01*
X156856830Y-59240334D01*
X156893116Y-59167763D01*
X156893116Y-59095191D01*
X156856830Y-59022620D01*
X156784258Y-58986334D01*
X156602830Y-58986334D01*
X156530258Y-58950048D01*
X155840830Y-58768620D02*
X155840830Y-59385477D01*
X155877116Y-59458048D01*
X155913401Y-59494334D01*
X155985973Y-59530620D01*
X156094830Y-59530620D01*
X156167401Y-59494334D01*
X155840830Y-59240334D02*
X155913401Y-59276620D01*
X156058544Y-59276620D01*
X156131116Y-59240334D01*
X156167401Y-59204048D01*
X156203687Y-59131477D01*
X156203687Y-58913763D01*
X156167401Y-58841191D01*
X156131116Y-58804906D01*
X156058544Y-58768620D01*
X155913401Y-58768620D01*
X155840830Y-58804906D01*
X155477973Y-59276620D02*
X155477973Y-58768620D01*
X155477973Y-58514620D02*
X155514258Y-58550906D01*
X155477973Y-58587191D01*
X155441687Y-58550906D01*
X155477973Y-58514620D01*
X155477973Y-58587191D01*
X154788544Y-59240334D02*
X154861116Y-59276620D01*
X155006258Y-59276620D01*
X155078830Y-59240334D01*
X155115116Y-59204048D01*
X155151401Y-59131477D01*
X155151401Y-58913763D01*
X155115116Y-58841191D01*
X155078830Y-58804906D01*
X155006258Y-58768620D01*
X154861116Y-58768620D01*
X154788544Y-58804906D01*
X153990258Y-58768620D02*
X153699973Y-58768620D01*
X153881401Y-59276620D02*
X153881401Y-58623477D01*
X153845116Y-58550906D01*
X153772544Y-58514620D01*
X153699973Y-58514620D01*
X153445973Y-59276620D02*
X153445973Y-58768620D01*
X153445973Y-58514620D02*
X153482258Y-58550906D01*
X153445973Y-58587191D01*
X153409687Y-58550906D01*
X153445973Y-58514620D01*
X153445973Y-58587191D01*
X153083116Y-58768620D02*
X153083116Y-59276620D01*
X153083116Y-58841191D02*
X153046830Y-58804906D01*
X152974258Y-58768620D01*
X152865401Y-58768620D01*
X152792830Y-58804906D01*
X152756544Y-58877477D01*
X152756544Y-59276620D01*
X152067116Y-58768620D02*
X152067116Y-59385477D01*
X152103401Y-59458048D01*
X152139687Y-59494334D01*
X152212258Y-59530620D01*
X152321116Y-59530620D01*
X152393687Y-59494334D01*
X152067116Y-59240334D02*
X152139687Y-59276620D01*
X152284830Y-59276620D01*
X152357401Y-59240334D01*
X152393687Y-59204048D01*
X152429973Y-59131477D01*
X152429973Y-58913763D01*
X152393687Y-58841191D01*
X152357401Y-58804906D01*
X152284830Y-58768620D01*
X152139687Y-58768620D01*
X152067116Y-58804906D01*
X151413973Y-59240334D02*
X151486544Y-59276620D01*
X151631687Y-59276620D01*
X151704258Y-59240334D01*
X151740544Y-59167763D01*
X151740544Y-58877477D01*
X151704258Y-58804906D01*
X151631687Y-58768620D01*
X151486544Y-58768620D01*
X151413973Y-58804906D01*
X151377687Y-58877477D01*
X151377687Y-58950048D01*
X151740544Y-59022620D01*
X151051116Y-59276620D02*
X151051116Y-58768620D01*
X151051116Y-58913763D02*
X151014830Y-58841191D01*
X150978544Y-58804906D01*
X150905973Y-58768620D01*
X150833401Y-58768620D01*
X150615687Y-59240334D02*
X150543116Y-59276620D01*
X150397973Y-59276620D01*
X150325401Y-59240334D01*
X150289116Y-59167763D01*
X150289116Y-59131477D01*
X150325401Y-59058906D01*
X150397973Y-59022620D01*
X150506830Y-59022620D01*
X150579401Y-58986334D01*
X150615687Y-58913763D01*
X150615687Y-58877477D01*
X150579401Y-58804906D01*
X150506830Y-58768620D01*
X150397973Y-58768620D01*
X150325401Y-58804906D01*
D12*
%TO.C,C17*%
X137134000Y-150608748D02*
X137134000Y-151131252D01*
X135664000Y-150608748D02*
X135664000Y-151131252D01*
%TO.C,U3*%
X152322600Y-93867600D02*
X153104693Y-93867600D01*
X155675400Y-93867600D02*
X155675400Y-94145630D01*
X155675400Y-96712400D02*
X154893307Y-96712400D01*
X152322600Y-96712400D02*
X152322600Y-96434370D01*
X152322600Y-94145630D02*
X152322600Y-93867600D01*
X154893307Y-93867600D02*
X155675400Y-93867600D01*
X155675400Y-96434370D02*
X155675400Y-96712400D01*
X153104693Y-96712400D02*
X152322600Y-96712400D01*
D13*
G36*
X155954800Y-95730563D02*
G01*
X155954800Y-95349563D01*
X155700800Y-95349563D01*
X155700800Y-95730563D01*
X155954800Y-95730563D01*
G37*
X155954800Y-95730563D02*
X155954800Y-95349563D01*
X155700800Y-95349563D01*
X155700800Y-95730563D01*
X155954800Y-95730563D01*
D12*
%TO.C,U1*%
X141198700Y-130971933D02*
X141198700Y-130108067D01*
X143459300Y-130108067D02*
X143459300Y-130971933D01*
X143180600Y-132398900D02*
G75*
G03*
X143180600Y-132398900I-101600J0D01*
G01*
%TO.C,J7*%
X139079000Y-115470000D02*
X137749000Y-115470000D01*
X139079000Y-116800000D02*
X139079000Y-115470000D01*
X136479000Y-115470000D02*
X133879000Y-115470000D01*
X136479000Y-118070000D02*
X136479000Y-115470000D01*
X139079000Y-118070000D02*
X136479000Y-118070000D01*
X133879000Y-115470000D02*
X133879000Y-120670000D01*
X139079000Y-118070000D02*
X139079000Y-120670000D01*
X139079000Y-120670000D02*
X133879000Y-120670000D01*
%TO.C,R9*%
X145534000Y-131922936D02*
X145534000Y-132377064D01*
X144064000Y-131922936D02*
X144064000Y-132377064D01*
%TO.C,U4*%
X150601500Y-128882500D02*
X150126500Y-128882500D01*
X159346500Y-119662500D02*
X159346500Y-120137500D01*
X158871500Y-119662500D02*
X159346500Y-119662500D01*
X150126500Y-119662500D02*
X150126500Y-120137500D01*
X150601500Y-119662500D02*
X150126500Y-119662500D01*
X159346500Y-128882500D02*
X159346500Y-128407500D01*
X158871500Y-128882500D02*
X159346500Y-128882500D01*
D14*
%TO.C,J5*%
X159829000Y-159760000D02*
X159829000Y-161040000D01*
X159829000Y-161040000D02*
X150249000Y-161040000D01*
X150249000Y-161040000D02*
X150249000Y-159760000D01*
X159829000Y-155790000D02*
X159829000Y-157040000D01*
X150249000Y-155790000D02*
X150249000Y-157040000D01*
D12*
%TO.C,LED4*%
X146754000Y-156860000D02*
X146754000Y-159145000D01*
X146754000Y-159145000D02*
X145284000Y-159145000D01*
X145284000Y-159145000D02*
X145284000Y-156860000D01*
%TO.C,LED3*%
X153249000Y-49765000D02*
X155534000Y-49765000D01*
X155534000Y-49765000D02*
X155534000Y-51235000D01*
X155534000Y-51235000D02*
X153249000Y-51235000D01*
%TO.C,LED2*%
X181404000Y-46850000D02*
X181404000Y-44565000D01*
X181404000Y-44565000D02*
X182874000Y-44565000D01*
X182874000Y-44565000D02*
X182874000Y-46850000D01*
%TO.C,LED1*%
X125254000Y-46830000D02*
X125254000Y-44545000D01*
X125254000Y-44545000D02*
X126724000Y-44545000D01*
X126724000Y-44545000D02*
X126724000Y-46830000D01*
%TO.C,C16*%
X173015250Y-157271250D02*
X173015250Y-156483750D01*
X172621500Y-156877500D02*
X173409000Y-156877500D01*
X173649000Y-152684437D02*
X174713437Y-151620000D01*
X173649000Y-157375563D02*
X174713437Y-158440000D01*
X173649000Y-157375563D02*
X173649000Y-156090000D01*
X173649000Y-152684437D02*
X173649000Y-153970000D01*
X174713437Y-151620000D02*
X180469000Y-151620000D01*
X174713437Y-158440000D02*
X180469000Y-158440000D01*
X180469000Y-158440000D02*
X180469000Y-156090000D01*
X180469000Y-151620000D02*
X180469000Y-153970000D01*
%TO.C,C15*%
X135072750Y-152758750D02*
X135072750Y-153546250D01*
X135466500Y-153152500D02*
X134679000Y-153152500D01*
X134439000Y-157345563D02*
X133374563Y-158410000D01*
X134439000Y-152654437D02*
X133374563Y-151590000D01*
X134439000Y-152654437D02*
X134439000Y-153940000D01*
X134439000Y-157345563D02*
X134439000Y-156060000D01*
X133374563Y-158410000D02*
X127619000Y-158410000D01*
X133374563Y-151590000D02*
X127619000Y-151590000D01*
X127619000Y-151590000D02*
X127619000Y-153940000D01*
X127619000Y-158410000D02*
X127619000Y-156060000D01*
D15*
%TO.C,U2*%
X142268999Y-149560000D02*
X142268999Y-154560000D01*
X143869001Y-149560000D02*
X143869001Y-154560000D01*
X142268999Y-154560000D02*
X143869001Y-154560000D01*
X142268999Y-149560000D02*
X143869001Y-149560000D01*
D16*
X140744001Y-154865001D02*
G75*
G03*
X140744001Y-154865001I-125001J0D01*
G01*
D15*
%TO.C,SW3*%
X155319000Y-43290000D02*
X152779000Y-43290000D01*
X155319000Y-42020000D02*
X155319000Y-43290000D01*
X152779000Y-42020000D02*
X155319000Y-42020000D01*
X152779000Y-43290000D02*
X152779000Y-42020000D01*
X150239000Y-43290000D02*
X150239000Y-49570000D01*
X157859000Y-43290000D02*
X150239000Y-43290000D01*
X157859000Y-49570000D02*
X157859000Y-43290000D01*
X150239000Y-49570000D02*
X157859000Y-49570000D01*
D17*
%TO.C,Y1*%
X155649000Y-134350000D02*
X155649000Y-130950000D01*
X151449000Y-134350000D02*
X155649000Y-134350000D01*
X151449000Y-130950000D02*
X151449000Y-134350000D01*
X155649000Y-130950000D02*
X151449000Y-130950000D01*
D12*
%TO.C,R10*%
X172104000Y-58247064D02*
X172104000Y-57792936D01*
X173574000Y-58247064D02*
X173574000Y-57792936D01*
%TO.C,R8*%
X138016064Y-57835000D02*
X137561936Y-57835000D01*
X138016064Y-56365000D02*
X137561936Y-56365000D01*
%TO.C,R7*%
X154614000Y-149492936D02*
X154614000Y-149947064D01*
X153144000Y-149492936D02*
X153144000Y-149947064D01*
%TO.C,R3*%
X155464000Y-149947064D02*
X155464000Y-149492936D01*
X156934000Y-149947064D02*
X156934000Y-149492936D01*
%TO.C,R2*%
X152294000Y-149492936D02*
X152294000Y-149947064D01*
X150824000Y-149492936D02*
X150824000Y-149947064D01*
%TO.C,R1*%
X157784000Y-149947064D02*
X157784000Y-149492936D01*
X159254000Y-149947064D02*
X159254000Y-149492936D01*
%TO.C,L1*%
X147248622Y-129860000D02*
X146449378Y-129860000D01*
X147248622Y-128740000D02*
X146449378Y-128740000D01*
%TO.C,J6*%
X169769000Y-135800000D02*
X171039000Y-135800000D01*
X169769000Y-134530000D02*
X169769000Y-135800000D01*
X172081929Y-123990000D02*
X172536071Y-123990000D01*
X172081929Y-124750000D02*
X172536071Y-124750000D01*
X174621929Y-123990000D02*
X175019000Y-123990000D01*
X174621929Y-124750000D02*
X175019000Y-124750000D01*
X183679000Y-123990000D02*
X177679000Y-123990000D01*
X183679000Y-124750000D02*
X183679000Y-123990000D01*
X177679000Y-124750000D02*
X183679000Y-124750000D01*
X175019000Y-125640000D02*
X177679000Y-125640000D01*
X172081929Y-126530000D02*
X172536071Y-126530000D01*
X172081929Y-127290000D02*
X172536071Y-127290000D01*
X174621929Y-126530000D02*
X175019000Y-126530000D01*
X174621929Y-127290000D02*
X175019000Y-127290000D01*
X183679000Y-126530000D02*
X177679000Y-126530000D01*
X183679000Y-127290000D02*
X183679000Y-126530000D01*
X177679000Y-127290000D02*
X183679000Y-127290000D01*
X175019000Y-128180000D02*
X177679000Y-128180000D01*
X172081929Y-129070000D02*
X172536071Y-129070000D01*
X172081929Y-129830000D02*
X172536071Y-129830000D01*
X174621929Y-129070000D02*
X175019000Y-129070000D01*
X174621929Y-129830000D02*
X175019000Y-129830000D01*
X183679000Y-129070000D02*
X177679000Y-129070000D01*
X183679000Y-129830000D02*
X183679000Y-129070000D01*
X177679000Y-129830000D02*
X183679000Y-129830000D01*
X175019000Y-130720000D02*
X177679000Y-130720000D01*
X172081929Y-131610000D02*
X172536071Y-131610000D01*
X172081929Y-132370000D02*
X172536071Y-132370000D01*
X174621929Y-131610000D02*
X175019000Y-131610000D01*
X174621929Y-132370000D02*
X175019000Y-132370000D01*
X183679000Y-131610000D02*
X177679000Y-131610000D01*
X183679000Y-132370000D02*
X183679000Y-131610000D01*
X177679000Y-132370000D02*
X183679000Y-132370000D01*
X175019000Y-133260000D02*
X177679000Y-133260000D01*
X172149000Y-134150000D02*
X172536071Y-134150000D01*
X172149000Y-134910000D02*
X172536071Y-134910000D01*
X174621929Y-134150000D02*
X175019000Y-134150000D01*
X174621929Y-134910000D02*
X175019000Y-134910000D01*
X177679000Y-134250000D02*
X183679000Y-134250000D01*
X177679000Y-134370000D02*
X183679000Y-134370000D01*
X177679000Y-134490000D02*
X183679000Y-134490000D01*
X177679000Y-134610000D02*
X183679000Y-134610000D01*
X177679000Y-134730000D02*
X183679000Y-134730000D01*
X177679000Y-134850000D02*
X183679000Y-134850000D01*
X183679000Y-134150000D02*
X177679000Y-134150000D01*
X183679000Y-134910000D02*
X183679000Y-134150000D01*
X177679000Y-134910000D02*
X183679000Y-134910000D01*
X177679000Y-135860000D02*
X175019000Y-135860000D01*
X177679000Y-123040000D02*
X177679000Y-135860000D01*
X175019000Y-123040000D02*
X177679000Y-123040000D01*
X175019000Y-135860000D02*
X175019000Y-123040000D01*
D10*
%TO.C,J4*%
X165599000Y-73000000D02*
X165599000Y-74150000D01*
X165599000Y-76850000D02*
X165599000Y-78000000D01*
D14*
X171699000Y-78600000D02*
G75*
G03*
X171699000Y-78600000I-100000J0D01*
G01*
D10*
X169599000Y-73000000D02*
X165599000Y-73000000D01*
X169599000Y-73500000D02*
X169599000Y-73000000D01*
X173599000Y-73500000D02*
X169599000Y-73500000D01*
X173599000Y-77500000D02*
X173599000Y-73500000D01*
X169599000Y-77500000D02*
X173599000Y-77500000D01*
X169599000Y-78000000D02*
X169599000Y-77500000D01*
X165599000Y-78000000D02*
X169599000Y-78000000D01*
%TO.C,J3*%
X165599000Y-84000000D02*
X165599000Y-85150000D01*
X165599000Y-87850000D02*
X165599000Y-89000000D01*
D14*
X171699000Y-89600000D02*
G75*
G03*
X171699000Y-89600000I-100000J0D01*
G01*
D10*
X169599000Y-84000000D02*
X165599000Y-84000000D01*
X169599000Y-84500000D02*
X169599000Y-84000000D01*
X173599000Y-84500000D02*
X169599000Y-84500000D01*
X173599000Y-88500000D02*
X173599000Y-84500000D01*
X169599000Y-88500000D02*
X173599000Y-88500000D01*
X169599000Y-89000000D02*
X169599000Y-88500000D01*
X165599000Y-89000000D02*
X169599000Y-89000000D01*
D13*
%TO.C,D2*%
X140069000Y-117090000D02*
G75*
G03*
X140069000Y-117090000I-50000J0D01*
G01*
D12*
%TO.C,D1*%
X133219000Y-119810000D02*
X133219000Y-116760000D01*
X131619000Y-119810000D02*
X133219000Y-119810000D01*
X131619000Y-116760000D02*
X131619000Y-119810000D01*
%TO.C,C14*%
X149014000Y-116511252D02*
X149014000Y-115988748D01*
X150484000Y-116511252D02*
X150484000Y-115988748D01*
%TO.C,C13*%
X151114000Y-116511252D02*
X151114000Y-115988748D01*
X152584000Y-116511252D02*
X152584000Y-115988748D01*
%TO.C,C12*%
X153737748Y-134765000D02*
X154260252Y-134765000D01*
X153737748Y-136235000D02*
X154260252Y-136235000D01*
%TO.C,C11*%
X150984000Y-134538748D02*
X150984000Y-135061252D01*
X149514000Y-134538748D02*
X149514000Y-135061252D01*
%TO.C,C10*%
X148260252Y-132335000D02*
X147737748Y-132335000D01*
X148260252Y-130865000D02*
X147737748Y-130865000D01*
%TO.C,C9*%
X148284000Y-134538748D02*
X148284000Y-135061252D01*
X146814000Y-134538748D02*
X146814000Y-135061252D01*
%TO.C,C8*%
X146537748Y-118815000D02*
X147060252Y-118815000D01*
X146537748Y-120285000D02*
X147060252Y-120285000D01*
%TO.C,C7*%
X147060252Y-126435000D02*
X146537748Y-126435000D01*
X147060252Y-124965000D02*
X146537748Y-124965000D01*
%TO.C,C6*%
X147060252Y-124385000D02*
X146537748Y-124385000D01*
X147060252Y-122915000D02*
X146537748Y-122915000D01*
%TO.C,C5*%
X147060252Y-122335000D02*
X146537748Y-122335000D01*
X147060252Y-120865000D02*
X146537748Y-120865000D01*
%TO.C,C4*%
X158134000Y-95288748D02*
X158134000Y-95811252D01*
X156664000Y-95288748D02*
X156664000Y-95811252D01*
%TO.C,C3*%
X140334000Y-125951252D02*
X140334000Y-125428748D01*
X141804000Y-125951252D02*
X141804000Y-125428748D01*
%TO.C,C2*%
X151384000Y-95238748D02*
X151384000Y-95761252D01*
X149914000Y-95238748D02*
X149914000Y-95761252D01*
%TO.C,C1*%
X141614000Y-135061252D02*
X141614000Y-134538748D01*
X143084000Y-135061252D02*
X143084000Y-134538748D01*
D15*
%TO.C,SW2*%
X187399000Y-89888094D02*
X187399000Y-87348094D01*
X188669000Y-89888094D02*
X187399000Y-89888094D01*
X188669000Y-87348094D02*
X188669000Y-89888094D01*
X187399000Y-87348094D02*
X188669000Y-87348094D01*
X187399000Y-84808094D02*
X181119000Y-84808094D01*
X187399000Y-92428094D02*
X187399000Y-84808094D01*
X181119000Y-92428094D02*
X187399000Y-92428094D01*
X181119000Y-84808094D02*
X181119000Y-92428094D01*
%TO.C,SW1*%
X126879000Y-92310000D02*
X126879000Y-84690000D01*
X126879000Y-84690000D02*
X120599000Y-84690000D01*
X120599000Y-84690000D02*
X120599000Y-92310000D01*
X120599000Y-92310000D02*
X126879000Y-92310000D01*
X120599000Y-89770000D02*
X119329000Y-89770000D01*
X119329000Y-89770000D02*
X119329000Y-87230000D01*
X119329000Y-87230000D02*
X120599000Y-87230000D01*
X120599000Y-87230000D02*
X120599000Y-89770000D01*
D10*
%TO.C,J1*%
X124600000Y-48100000D02*
X127100000Y-48100000D01*
X124600000Y-53100000D02*
X124600000Y-48100000D01*
X127100000Y-53100000D02*
X124600000Y-53100000D01*
X140500000Y-47600000D02*
X141600000Y-47600000D01*
D14*
X126400000Y-47300000D02*
G75*
G03*
X126400000Y-47300000I-100000J0D01*
G01*
D10*
X130800000Y-47600000D02*
X137300000Y-47600000D01*
X127100000Y-47600000D02*
X128200000Y-47600000D01*
X141600000Y-53600000D02*
X141600000Y-47600000D01*
X132800000Y-53600000D02*
X141600000Y-53600000D01*
X127100000Y-53600000D02*
X130200000Y-53600000D01*
X127100000Y-53100000D02*
X127100000Y-53600000D01*
X127100000Y-48100000D02*
X127100000Y-53100000D01*
X127100000Y-47600000D02*
X127100000Y-48100000D01*
%TO.C,J2*%
X183500000Y-53100000D02*
X181000000Y-53100000D01*
X183500000Y-48100000D02*
X183500000Y-53100000D01*
X181000000Y-48100000D02*
X183500000Y-48100000D01*
X167600000Y-53600000D02*
X166500000Y-53600000D01*
D14*
X181900000Y-53900000D02*
G75*
G03*
X181900000Y-53900000I-100000J0D01*
G01*
D10*
X177300000Y-53600000D02*
X170800000Y-53600000D01*
X181000000Y-53600000D02*
X179900000Y-53600000D01*
X166500000Y-47600000D02*
X166500000Y-53600000D01*
X175300000Y-47600000D02*
X166500000Y-47600000D01*
X181000000Y-47600000D02*
X177900000Y-47600000D01*
X181000000Y-48100000D02*
X181000000Y-47600000D01*
X181000000Y-53100000D02*
X181000000Y-48100000D01*
X181000000Y-53600000D02*
X181000000Y-53100000D01*
D12*
%TO.C,R4*%
X131766064Y-57825000D02*
X131311936Y-57825000D01*
X131766064Y-56355000D02*
X131311936Y-56355000D01*
%TO.C,R5*%
X176064000Y-57792936D02*
X176064000Y-58247064D01*
X174594000Y-57792936D02*
X174594000Y-58247064D01*
%TO.C,R6*%
X146084116Y-62254842D02*
X146084116Y-62708970D01*
X144614116Y-62254842D02*
X144614116Y-62708970D01*
%TO.C,C17*%
D15*
X135076142Y-150227142D02*
X135123761Y-150179523D01*
X135171380Y-150036666D01*
X135171380Y-149941428D01*
X135123761Y-149798571D01*
X135028523Y-149703333D01*
X134933285Y-149655714D01*
X134742809Y-149608095D01*
X134599952Y-149608095D01*
X134409476Y-149655714D01*
X134314238Y-149703333D01*
X134219000Y-149798571D01*
X134171380Y-149941428D01*
X134171380Y-150036666D01*
X134219000Y-150179523D01*
X134266619Y-150227142D01*
X135171380Y-151179523D02*
X135171380Y-150608095D01*
X135171380Y-150893809D02*
X134171380Y-150893809D01*
X134314238Y-150798571D01*
X134409476Y-150703333D01*
X134457095Y-150608095D01*
X134171380Y-151512857D02*
X134171380Y-152179523D01*
X135171380Y-151750952D01*
%TO.C,SW4*%
X138642333Y-159004761D02*
X138499476Y-159052380D01*
X138261380Y-159052380D01*
X138166142Y-159004761D01*
X138118523Y-158957142D01*
X138070904Y-158861904D01*
X138070904Y-158766666D01*
X138118523Y-158671428D01*
X138166142Y-158623809D01*
X138261380Y-158576190D01*
X138451857Y-158528571D01*
X138547095Y-158480952D01*
X138594714Y-158433333D01*
X138642333Y-158338095D01*
X138642333Y-158242857D01*
X138594714Y-158147619D01*
X138547095Y-158100000D01*
X138451857Y-158052380D01*
X138213761Y-158052380D01*
X138070904Y-158100000D01*
X137737571Y-158052380D02*
X137499476Y-159052380D01*
X137309000Y-158338095D01*
X137118523Y-159052380D01*
X136880428Y-158052380D01*
X136070904Y-158385714D02*
X136070904Y-159052380D01*
X136309000Y-158004761D02*
X136547095Y-158719047D01*
X135928047Y-158719047D01*
%TO.C,U3*%
X154430904Y-92032380D02*
X154430904Y-92841904D01*
X154383285Y-92937142D01*
X154335666Y-92984761D01*
X154240428Y-93032380D01*
X154049952Y-93032380D01*
X153954714Y-92984761D01*
X153907095Y-92937142D01*
X153859476Y-92841904D01*
X153859476Y-92032380D01*
X153478523Y-92032380D02*
X152859476Y-92032380D01*
X153192809Y-92413333D01*
X153049952Y-92413333D01*
X152954714Y-92460952D01*
X152907095Y-92508571D01*
X152859476Y-92603809D01*
X152859476Y-92841904D01*
X152907095Y-92937142D01*
X152954714Y-92984761D01*
X153049952Y-93032380D01*
X153335666Y-93032380D01*
X153430904Y-92984761D01*
X153478523Y-92937142D01*
X151916200Y-95742632D02*
X151916200Y-95980728D01*
X152154295Y-95885490D02*
X151916200Y-95980728D01*
X151678104Y-95885490D01*
X152059057Y-96171204D02*
X151916200Y-95980728D01*
X151773342Y-96171204D01*
X151916200Y-95742632D02*
X151916200Y-95980728D01*
X152154295Y-95885490D02*
X151916200Y-95980728D01*
X151678104Y-95885490D01*
X152059057Y-96171204D02*
X151916200Y-95980728D01*
X151773342Y-96171204D01*
%TO.C,U1*%
X139661380Y-129708095D02*
X140470904Y-129708095D01*
X140566142Y-129755714D01*
X140613761Y-129803333D01*
X140661380Y-129898571D01*
X140661380Y-130089047D01*
X140613761Y-130184285D01*
X140566142Y-130231904D01*
X140470904Y-130279523D01*
X139661380Y-130279523D01*
X140661380Y-131279523D02*
X140661380Y-130708095D01*
X140661380Y-130993809D02*
X139661380Y-130993809D01*
X139804238Y-130898571D01*
X139899476Y-130803333D01*
X139947095Y-130708095D01*
X141781380Y-130540000D02*
X142019476Y-130540000D01*
X141924238Y-130301904D02*
X142019476Y-130540000D01*
X141924238Y-130778095D01*
X142209952Y-130397142D02*
X142019476Y-130540000D01*
X142209952Y-130682857D01*
%TO.C,R9*%
X145311380Y-134933333D02*
X144835190Y-134600000D01*
X145311380Y-134361904D02*
X144311380Y-134361904D01*
X144311380Y-134742857D01*
X144359000Y-134838095D01*
X144406619Y-134885714D01*
X144501857Y-134933333D01*
X144644714Y-134933333D01*
X144739952Y-134885714D01*
X144787571Y-134838095D01*
X144835190Y-134742857D01*
X144835190Y-134361904D01*
X145311380Y-135409523D02*
X145311380Y-135600000D01*
X145263761Y-135695238D01*
X145216142Y-135742857D01*
X145073285Y-135838095D01*
X144882809Y-135885714D01*
X144501857Y-135885714D01*
X144406619Y-135838095D01*
X144359000Y-135790476D01*
X144311380Y-135695238D01*
X144311380Y-135504761D01*
X144359000Y-135409523D01*
X144406619Y-135361904D01*
X144501857Y-135314285D01*
X144739952Y-135314285D01*
X144835190Y-135361904D01*
X144882809Y-135409523D01*
X144930428Y-135504761D01*
X144930428Y-135695238D01*
X144882809Y-135790476D01*
X144835190Y-135838095D01*
X144739952Y-135885714D01*
%TO.C,U4*%
X160310904Y-117902380D02*
X160310904Y-118711904D01*
X160263285Y-118807142D01*
X160215666Y-118854761D01*
X160120428Y-118902380D01*
X159929952Y-118902380D01*
X159834714Y-118854761D01*
X159787095Y-118807142D01*
X159739476Y-118711904D01*
X159739476Y-117902380D01*
X158834714Y-118235714D02*
X158834714Y-118902380D01*
X159072809Y-117854761D02*
X159310904Y-118569047D01*
X158691857Y-118569047D01*
%TO.C,J5*%
X155502333Y-158112380D02*
X155502333Y-158826666D01*
X155549952Y-158969523D01*
X155645190Y-159064761D01*
X155788047Y-159112380D01*
X155883285Y-159112380D01*
X154549952Y-158112380D02*
X155026142Y-158112380D01*
X155073761Y-158588571D01*
X155026142Y-158540952D01*
X154930904Y-158493333D01*
X154692809Y-158493333D01*
X154597571Y-158540952D01*
X154549952Y-158588571D01*
X154502333Y-158683809D01*
X154502333Y-158921904D01*
X154549952Y-159017142D01*
X154597571Y-159064761D01*
X154692809Y-159112380D01*
X154930904Y-159112380D01*
X155026142Y-159064761D01*
X155073761Y-159017142D01*
%TO.C,LED4*%
X148121380Y-156540952D02*
X148121380Y-156064761D01*
X147121380Y-156064761D01*
X147597571Y-156874285D02*
X147597571Y-157207619D01*
X148121380Y-157350476D02*
X148121380Y-156874285D01*
X147121380Y-156874285D01*
X147121380Y-157350476D01*
X148121380Y-157779047D02*
X147121380Y-157779047D01*
X147121380Y-158017142D01*
X147169000Y-158160000D01*
X147264238Y-158255238D01*
X147359476Y-158302857D01*
X147549952Y-158350476D01*
X147692809Y-158350476D01*
X147883285Y-158302857D01*
X147978523Y-158255238D01*
X148073761Y-158160000D01*
X148121380Y-158017142D01*
X148121380Y-157779047D01*
X147454714Y-159207619D02*
X148121380Y-159207619D01*
X147073761Y-158969523D02*
X147788047Y-158731428D01*
X147788047Y-159350476D01*
%TO.C,LED2*%
X182541380Y-48600952D02*
X182541380Y-48124761D01*
X181541380Y-48124761D01*
X182017571Y-48934285D02*
X182017571Y-49267619D01*
X182541380Y-49410476D02*
X182541380Y-48934285D01*
X181541380Y-48934285D01*
X181541380Y-49410476D01*
X182541380Y-49839047D02*
X181541380Y-49839047D01*
X181541380Y-50077142D01*
X181589000Y-50220000D01*
X181684238Y-50315238D01*
X181779476Y-50362857D01*
X181969952Y-50410476D01*
X182112809Y-50410476D01*
X182303285Y-50362857D01*
X182398523Y-50315238D01*
X182493761Y-50220000D01*
X182541380Y-50077142D01*
X182541380Y-49839047D01*
X181636619Y-50791428D02*
X181589000Y-50839047D01*
X181541380Y-50934285D01*
X181541380Y-51172380D01*
X181589000Y-51267619D01*
X181636619Y-51315238D01*
X181731857Y-51362857D01*
X181827095Y-51362857D01*
X181969952Y-51315238D01*
X182541380Y-50743809D01*
X182541380Y-51362857D01*
%TO.C,LED1*%
X126531380Y-48680952D02*
X126531380Y-48204761D01*
X125531380Y-48204761D01*
X126007571Y-49014285D02*
X126007571Y-49347619D01*
X126531380Y-49490476D02*
X126531380Y-49014285D01*
X125531380Y-49014285D01*
X125531380Y-49490476D01*
X126531380Y-49919047D02*
X125531380Y-49919047D01*
X125531380Y-50157142D01*
X125579000Y-50300000D01*
X125674238Y-50395238D01*
X125769476Y-50442857D01*
X125959952Y-50490476D01*
X126102809Y-50490476D01*
X126293285Y-50442857D01*
X126388523Y-50395238D01*
X126483761Y-50300000D01*
X126531380Y-50157142D01*
X126531380Y-49919047D01*
X126531380Y-51442857D02*
X126531380Y-50871428D01*
X126531380Y-51157142D02*
X125531380Y-51157142D01*
X125674238Y-51061904D01*
X125769476Y-50966666D01*
X125817095Y-50871428D01*
%TO.C,C16*%
X177701857Y-159737142D02*
X177749476Y-159784761D01*
X177892333Y-159832380D01*
X177987571Y-159832380D01*
X178130428Y-159784761D01*
X178225666Y-159689523D01*
X178273285Y-159594285D01*
X178320904Y-159403809D01*
X178320904Y-159260952D01*
X178273285Y-159070476D01*
X178225666Y-158975238D01*
X178130428Y-158880000D01*
X177987571Y-158832380D01*
X177892333Y-158832380D01*
X177749476Y-158880000D01*
X177701857Y-158927619D01*
X176749476Y-159832380D02*
X177320904Y-159832380D01*
X177035190Y-159832380D02*
X177035190Y-158832380D01*
X177130428Y-158975238D01*
X177225666Y-159070476D01*
X177320904Y-159118095D01*
X175892333Y-158832380D02*
X176082809Y-158832380D01*
X176178047Y-158880000D01*
X176225666Y-158927619D01*
X176320904Y-159070476D01*
X176368523Y-159260952D01*
X176368523Y-159641904D01*
X176320904Y-159737142D01*
X176273285Y-159784761D01*
X176178047Y-159832380D01*
X175987571Y-159832380D01*
X175892333Y-159784761D01*
X175844714Y-159737142D01*
X175797095Y-159641904D01*
X175797095Y-159403809D01*
X175844714Y-159308571D01*
X175892333Y-159260952D01*
X175987571Y-159213333D01*
X176178047Y-159213333D01*
X176273285Y-159260952D01*
X176320904Y-159308571D01*
X176368523Y-159403809D01*
%TO.C,C15*%
X131671857Y-151007142D02*
X131719476Y-151054761D01*
X131862333Y-151102380D01*
X131957571Y-151102380D01*
X132100428Y-151054761D01*
X132195666Y-150959523D01*
X132243285Y-150864285D01*
X132290904Y-150673809D01*
X132290904Y-150530952D01*
X132243285Y-150340476D01*
X132195666Y-150245238D01*
X132100428Y-150150000D01*
X131957571Y-150102380D01*
X131862333Y-150102380D01*
X131719476Y-150150000D01*
X131671857Y-150197619D01*
X130719476Y-151102380D02*
X131290904Y-151102380D01*
X131005190Y-151102380D02*
X131005190Y-150102380D01*
X131100428Y-150245238D01*
X131195666Y-150340476D01*
X131290904Y-150388095D01*
X129814714Y-150102380D02*
X130290904Y-150102380D01*
X130338523Y-150578571D01*
X130290904Y-150530952D01*
X130195666Y-150483333D01*
X129957571Y-150483333D01*
X129862333Y-150530952D01*
X129814714Y-150578571D01*
X129767095Y-150673809D01*
X129767095Y-150911904D01*
X129814714Y-151007142D01*
X129862333Y-151054761D01*
X129957571Y-151102380D01*
X130195666Y-151102380D01*
X130290904Y-151054761D01*
X130338523Y-151007142D01*
%TO.C,U2*%
X143858404Y-147652380D02*
X143858404Y-148461904D01*
X143810785Y-148557142D01*
X143763166Y-148604761D01*
X143667928Y-148652380D01*
X143477452Y-148652380D01*
X143382214Y-148604761D01*
X143334595Y-148557142D01*
X143286976Y-148461904D01*
X143286976Y-147652380D01*
X142858404Y-147747619D02*
X142810785Y-147700000D01*
X142715547Y-147652380D01*
X142477452Y-147652380D01*
X142382214Y-147700000D01*
X142334595Y-147747619D01*
X142286976Y-147842857D01*
X142286976Y-147938095D01*
X142334595Y-148080952D01*
X142906023Y-148652380D01*
X142286976Y-148652380D01*
%TO.C,SW3*%
X155382333Y-41084761D02*
X155239476Y-41132380D01*
X155001380Y-41132380D01*
X154906142Y-41084761D01*
X154858523Y-41037142D01*
X154810904Y-40941904D01*
X154810904Y-40846666D01*
X154858523Y-40751428D01*
X154906142Y-40703809D01*
X155001380Y-40656190D01*
X155191857Y-40608571D01*
X155287095Y-40560952D01*
X155334714Y-40513333D01*
X155382333Y-40418095D01*
X155382333Y-40322857D01*
X155334714Y-40227619D01*
X155287095Y-40180000D01*
X155191857Y-40132380D01*
X154953761Y-40132380D01*
X154810904Y-40180000D01*
X154477571Y-40132380D02*
X154239476Y-41132380D01*
X154049000Y-40418095D01*
X153858523Y-41132380D01*
X153620428Y-40132380D01*
X153334714Y-40132380D02*
X152715666Y-40132380D01*
X153049000Y-40513333D01*
X152906142Y-40513333D01*
X152810904Y-40560952D01*
X152763285Y-40608571D01*
X152715666Y-40703809D01*
X152715666Y-40941904D01*
X152763285Y-41037142D01*
X152810904Y-41084761D01*
X152906142Y-41132380D01*
X153191857Y-41132380D01*
X153287095Y-41084761D01*
X153334714Y-41037142D01*
%TO.C,Y1*%
X157495816Y-132806159D02*
X157495816Y-133282975D01*
X157829588Y-132281660D02*
X157495816Y-132806159D01*
X157162045Y-132281660D01*
X156303775Y-133282975D02*
X156875955Y-133282975D01*
X156589865Y-133282975D02*
X156589865Y-132281660D01*
X156685228Y-132424705D01*
X156780591Y-132520069D01*
X156875955Y-132567750D01*
%TO.C,R10*%
X171621380Y-57287142D02*
X171145190Y-56953809D01*
X171621380Y-56715714D02*
X170621380Y-56715714D01*
X170621380Y-57096666D01*
X170669000Y-57191904D01*
X170716619Y-57239523D01*
X170811857Y-57287142D01*
X170954714Y-57287142D01*
X171049952Y-57239523D01*
X171097571Y-57191904D01*
X171145190Y-57096666D01*
X171145190Y-56715714D01*
X171621380Y-58239523D02*
X171621380Y-57668095D01*
X171621380Y-57953809D02*
X170621380Y-57953809D01*
X170764238Y-57858571D01*
X170859476Y-57763333D01*
X170907095Y-57668095D01*
X170621380Y-58858571D02*
X170621380Y-58953809D01*
X170669000Y-59049047D01*
X170716619Y-59096666D01*
X170811857Y-59144285D01*
X171002333Y-59191904D01*
X171240428Y-59191904D01*
X171430904Y-59144285D01*
X171526142Y-59096666D01*
X171573761Y-59049047D01*
X171621380Y-58953809D01*
X171621380Y-58858571D01*
X171573761Y-58763333D01*
X171526142Y-58715714D01*
X171430904Y-58668095D01*
X171240428Y-58620476D01*
X171002333Y-58620476D01*
X170811857Y-58668095D01*
X170716619Y-58715714D01*
X170669000Y-58763333D01*
X170621380Y-58858571D01*
%TO.C,R8*%
X137955666Y-55902380D02*
X138289000Y-55426190D01*
X138527095Y-55902380D02*
X138527095Y-54902380D01*
X138146142Y-54902380D01*
X138050904Y-54950000D01*
X138003285Y-54997619D01*
X137955666Y-55092857D01*
X137955666Y-55235714D01*
X138003285Y-55330952D01*
X138050904Y-55378571D01*
X138146142Y-55426190D01*
X138527095Y-55426190D01*
X137384238Y-55330952D02*
X137479476Y-55283333D01*
X137527095Y-55235714D01*
X137574714Y-55140476D01*
X137574714Y-55092857D01*
X137527095Y-54997619D01*
X137479476Y-54950000D01*
X137384238Y-54902380D01*
X137193761Y-54902380D01*
X137098523Y-54950000D01*
X137050904Y-54997619D01*
X137003285Y-55092857D01*
X137003285Y-55140476D01*
X137050904Y-55235714D01*
X137098523Y-55283333D01*
X137193761Y-55330952D01*
X137384238Y-55330952D01*
X137479476Y-55378571D01*
X137527095Y-55426190D01*
X137574714Y-55521428D01*
X137574714Y-55711904D01*
X137527095Y-55807142D01*
X137479476Y-55854761D01*
X137384238Y-55902380D01*
X137193761Y-55902380D01*
X137098523Y-55854761D01*
X137050904Y-55807142D01*
X137003285Y-55711904D01*
X137003285Y-55521428D01*
X137050904Y-55426190D01*
X137098523Y-55378571D01*
X137193761Y-55330952D01*
%TO.C,R7*%
X154411380Y-146733333D02*
X153935190Y-146400000D01*
X154411380Y-146161904D02*
X153411380Y-146161904D01*
X153411380Y-146542857D01*
X153459000Y-146638095D01*
X153506619Y-146685714D01*
X153601857Y-146733333D01*
X153744714Y-146733333D01*
X153839952Y-146685714D01*
X153887571Y-146638095D01*
X153935190Y-146542857D01*
X153935190Y-146161904D01*
X153411380Y-147066666D02*
X153411380Y-147733333D01*
X154411380Y-147304761D01*
%TO.C,R3*%
X156681380Y-146663333D02*
X156205190Y-146330000D01*
X156681380Y-146091904D02*
X155681380Y-146091904D01*
X155681380Y-146472857D01*
X155729000Y-146568095D01*
X155776619Y-146615714D01*
X155871857Y-146663333D01*
X156014714Y-146663333D01*
X156109952Y-146615714D01*
X156157571Y-146568095D01*
X156205190Y-146472857D01*
X156205190Y-146091904D01*
X155681380Y-146996666D02*
X155681380Y-147615714D01*
X156062333Y-147282380D01*
X156062333Y-147425238D01*
X156109952Y-147520476D01*
X156157571Y-147568095D01*
X156252809Y-147615714D01*
X156490904Y-147615714D01*
X156586142Y-147568095D01*
X156633761Y-147520476D01*
X156681380Y-147425238D01*
X156681380Y-147139523D01*
X156633761Y-147044285D01*
X156586142Y-146996666D01*
%TO.C,R2*%
X151761380Y-146713333D02*
X151285190Y-146380000D01*
X151761380Y-146141904D02*
X150761380Y-146141904D01*
X150761380Y-146522857D01*
X150809000Y-146618095D01*
X150856619Y-146665714D01*
X150951857Y-146713333D01*
X151094714Y-146713333D01*
X151189952Y-146665714D01*
X151237571Y-146618095D01*
X151285190Y-146522857D01*
X151285190Y-146141904D01*
X150856619Y-147094285D02*
X150809000Y-147141904D01*
X150761380Y-147237142D01*
X150761380Y-147475238D01*
X150809000Y-147570476D01*
X150856619Y-147618095D01*
X150951857Y-147665714D01*
X151047095Y-147665714D01*
X151189952Y-147618095D01*
X151761380Y-147046666D01*
X151761380Y-147665714D01*
%TO.C,R1*%
X159081380Y-146683333D02*
X158605190Y-146350000D01*
X159081380Y-146111904D02*
X158081380Y-146111904D01*
X158081380Y-146492857D01*
X158129000Y-146588095D01*
X158176619Y-146635714D01*
X158271857Y-146683333D01*
X158414714Y-146683333D01*
X158509952Y-146635714D01*
X158557571Y-146588095D01*
X158605190Y-146492857D01*
X158605190Y-146111904D01*
X159081380Y-147635714D02*
X159081380Y-147064285D01*
X159081380Y-147350000D02*
X158081380Y-147350000D01*
X158224238Y-147254761D01*
X158319476Y-147159523D01*
X158367095Y-147064285D01*
%TO.C,L1*%
X147015666Y-128202380D02*
X147491857Y-128202380D01*
X147491857Y-127202380D01*
X146158523Y-128202380D02*
X146729952Y-128202380D01*
X146444238Y-128202380D02*
X146444238Y-127202380D01*
X146539476Y-127345238D01*
X146634714Y-127440476D01*
X146729952Y-127488095D01*
%TO.C,J6*%
X172782333Y-136922380D02*
X172782333Y-137636666D01*
X172829952Y-137779523D01*
X172925190Y-137874761D01*
X173068047Y-137922380D01*
X173163285Y-137922380D01*
X171877571Y-136922380D02*
X172068047Y-136922380D01*
X172163285Y-136970000D01*
X172210904Y-137017619D01*
X172306142Y-137160476D01*
X172353761Y-137350952D01*
X172353761Y-137731904D01*
X172306142Y-137827142D01*
X172258523Y-137874761D01*
X172163285Y-137922380D01*
X171972809Y-137922380D01*
X171877571Y-137874761D01*
X171829952Y-137827142D01*
X171782333Y-137731904D01*
X171782333Y-137493809D01*
X171829952Y-137398571D01*
X171877571Y-137350952D01*
X171972809Y-137303333D01*
X172163285Y-137303333D01*
X172258523Y-137350952D01*
X172306142Y-137398571D01*
X172353761Y-137493809D01*
%TO.C,D2*%
X142101380Y-115241904D02*
X141101380Y-115241904D01*
X141101380Y-115480000D01*
X141149000Y-115622857D01*
X141244238Y-115718095D01*
X141339476Y-115765714D01*
X141529952Y-115813333D01*
X141672809Y-115813333D01*
X141863285Y-115765714D01*
X141958523Y-115718095D01*
X142053761Y-115622857D01*
X142101380Y-115480000D01*
X142101380Y-115241904D01*
X141196619Y-116194285D02*
X141149000Y-116241904D01*
X141101380Y-116337142D01*
X141101380Y-116575238D01*
X141149000Y-116670476D01*
X141196619Y-116718095D01*
X141291857Y-116765714D01*
X141387095Y-116765714D01*
X141529952Y-116718095D01*
X142101380Y-116146666D01*
X142101380Y-116765714D01*
%TO.C,D1*%
X130581380Y-119691904D02*
X129581380Y-119691904D01*
X129581380Y-119930000D01*
X129629000Y-120072857D01*
X129724238Y-120168095D01*
X129819476Y-120215714D01*
X130009952Y-120263333D01*
X130152809Y-120263333D01*
X130343285Y-120215714D01*
X130438523Y-120168095D01*
X130533761Y-120072857D01*
X130581380Y-119930000D01*
X130581380Y-119691904D01*
X130581380Y-121215714D02*
X130581380Y-120644285D01*
X130581380Y-120930000D02*
X129581380Y-120930000D01*
X129724238Y-120834761D01*
X129819476Y-120739523D01*
X129867095Y-120644285D01*
%TO.C,C14*%
X148176142Y-115567142D02*
X148223761Y-115519523D01*
X148271380Y-115376666D01*
X148271380Y-115281428D01*
X148223761Y-115138571D01*
X148128523Y-115043333D01*
X148033285Y-114995714D01*
X147842809Y-114948095D01*
X147699952Y-114948095D01*
X147509476Y-114995714D01*
X147414238Y-115043333D01*
X147319000Y-115138571D01*
X147271380Y-115281428D01*
X147271380Y-115376666D01*
X147319000Y-115519523D01*
X147366619Y-115567142D01*
X148271380Y-116519523D02*
X148271380Y-115948095D01*
X148271380Y-116233809D02*
X147271380Y-116233809D01*
X147414238Y-116138571D01*
X147509476Y-116043333D01*
X147557095Y-115948095D01*
X147604714Y-117376666D02*
X148271380Y-117376666D01*
X147223761Y-117138571D02*
X147938047Y-116900476D01*
X147938047Y-117519523D01*
%TO.C,C13*%
X153886142Y-115607142D02*
X153933761Y-115559523D01*
X153981380Y-115416666D01*
X153981380Y-115321428D01*
X153933761Y-115178571D01*
X153838523Y-115083333D01*
X153743285Y-115035714D01*
X153552809Y-114988095D01*
X153409952Y-114988095D01*
X153219476Y-115035714D01*
X153124238Y-115083333D01*
X153029000Y-115178571D01*
X152981380Y-115321428D01*
X152981380Y-115416666D01*
X153029000Y-115559523D01*
X153076619Y-115607142D01*
X153981380Y-116559523D02*
X153981380Y-115988095D01*
X153981380Y-116273809D02*
X152981380Y-116273809D01*
X153124238Y-116178571D01*
X153219476Y-116083333D01*
X153267095Y-115988095D01*
X152981380Y-116892857D02*
X152981380Y-117511904D01*
X153362333Y-117178571D01*
X153362333Y-117321428D01*
X153409952Y-117416666D01*
X153457571Y-117464285D01*
X153552809Y-117511904D01*
X153790904Y-117511904D01*
X153886142Y-117464285D01*
X153933761Y-117416666D01*
X153981380Y-117321428D01*
X153981380Y-117035714D01*
X153933761Y-116940476D01*
X153886142Y-116892857D01*
%TO.C,C12*%
X154641857Y-137537142D02*
X154689476Y-137584761D01*
X154832333Y-137632380D01*
X154927571Y-137632380D01*
X155070428Y-137584761D01*
X155165666Y-137489523D01*
X155213285Y-137394285D01*
X155260904Y-137203809D01*
X155260904Y-137060952D01*
X155213285Y-136870476D01*
X155165666Y-136775238D01*
X155070428Y-136680000D01*
X154927571Y-136632380D01*
X154832333Y-136632380D01*
X154689476Y-136680000D01*
X154641857Y-136727619D01*
X153689476Y-137632380D02*
X154260904Y-137632380D01*
X153975190Y-137632380D02*
X153975190Y-136632380D01*
X154070428Y-136775238D01*
X154165666Y-136870476D01*
X154260904Y-136918095D01*
X153308523Y-136727619D02*
X153260904Y-136680000D01*
X153165666Y-136632380D01*
X152927571Y-136632380D01*
X152832333Y-136680000D01*
X152784714Y-136727619D01*
X152737095Y-136822857D01*
X152737095Y-136918095D01*
X152784714Y-137060952D01*
X153356142Y-137632380D01*
X152737095Y-137632380D01*
%TO.C,C11*%
X150576142Y-137617142D02*
X150623761Y-137569523D01*
X150671380Y-137426666D01*
X150671380Y-137331428D01*
X150623761Y-137188571D01*
X150528523Y-137093333D01*
X150433285Y-137045714D01*
X150242809Y-136998095D01*
X150099952Y-136998095D01*
X149909476Y-137045714D01*
X149814238Y-137093333D01*
X149719000Y-137188571D01*
X149671380Y-137331428D01*
X149671380Y-137426666D01*
X149719000Y-137569523D01*
X149766619Y-137617142D01*
X150671380Y-138569523D02*
X150671380Y-137998095D01*
X150671380Y-138283809D02*
X149671380Y-138283809D01*
X149814238Y-138188571D01*
X149909476Y-138093333D01*
X149957095Y-137998095D01*
X150671380Y-139521904D02*
X150671380Y-138950476D01*
X150671380Y-139236190D02*
X149671380Y-139236190D01*
X149814238Y-139140952D01*
X149909476Y-139045714D01*
X149957095Y-138950476D01*
%TO.C,C10*%
X150726142Y-130327142D02*
X150773761Y-130279523D01*
X150821380Y-130136666D01*
X150821380Y-130041428D01*
X150773761Y-129898571D01*
X150678523Y-129803333D01*
X150583285Y-129755714D01*
X150392809Y-129708095D01*
X150249952Y-129708095D01*
X150059476Y-129755714D01*
X149964238Y-129803333D01*
X149869000Y-129898571D01*
X149821380Y-130041428D01*
X149821380Y-130136666D01*
X149869000Y-130279523D01*
X149916619Y-130327142D01*
X150821380Y-131279523D02*
X150821380Y-130708095D01*
X150821380Y-130993809D02*
X149821380Y-130993809D01*
X149964238Y-130898571D01*
X150059476Y-130803333D01*
X150107095Y-130708095D01*
X149821380Y-131898571D02*
X149821380Y-131993809D01*
X149869000Y-132089047D01*
X149916619Y-132136666D01*
X150011857Y-132184285D01*
X150202333Y-132231904D01*
X150440428Y-132231904D01*
X150630904Y-132184285D01*
X150726142Y-132136666D01*
X150773761Y-132089047D01*
X150821380Y-131993809D01*
X150821380Y-131898571D01*
X150773761Y-131803333D01*
X150726142Y-131755714D01*
X150630904Y-131708095D01*
X150440428Y-131660476D01*
X150202333Y-131660476D01*
X150011857Y-131708095D01*
X149916619Y-131755714D01*
X149869000Y-131803333D01*
X149821380Y-131898571D01*
%TO.C,C9*%
X147826142Y-138203333D02*
X147873761Y-138155714D01*
X147921380Y-138012857D01*
X147921380Y-137917619D01*
X147873761Y-137774761D01*
X147778523Y-137679523D01*
X147683285Y-137631904D01*
X147492809Y-137584285D01*
X147349952Y-137584285D01*
X147159476Y-137631904D01*
X147064238Y-137679523D01*
X146969000Y-137774761D01*
X146921380Y-137917619D01*
X146921380Y-138012857D01*
X146969000Y-138155714D01*
X147016619Y-138203333D01*
X147921380Y-138679523D02*
X147921380Y-138870000D01*
X147873761Y-138965238D01*
X147826142Y-139012857D01*
X147683285Y-139108095D01*
X147492809Y-139155714D01*
X147111857Y-139155714D01*
X147016619Y-139108095D01*
X146969000Y-139060476D01*
X146921380Y-138965238D01*
X146921380Y-138774761D01*
X146969000Y-138679523D01*
X147016619Y-138631904D01*
X147111857Y-138584285D01*
X147349952Y-138584285D01*
X147445190Y-138631904D01*
X147492809Y-138679523D01*
X147540428Y-138774761D01*
X147540428Y-138965238D01*
X147492809Y-139060476D01*
X147445190Y-139108095D01*
X147349952Y-139155714D01*
%TO.C,C8*%
X144365666Y-119937142D02*
X144413285Y-119984761D01*
X144556142Y-120032380D01*
X144651380Y-120032380D01*
X144794238Y-119984761D01*
X144889476Y-119889523D01*
X144937095Y-119794285D01*
X144984714Y-119603809D01*
X144984714Y-119460952D01*
X144937095Y-119270476D01*
X144889476Y-119175238D01*
X144794238Y-119080000D01*
X144651380Y-119032380D01*
X144556142Y-119032380D01*
X144413285Y-119080000D01*
X144365666Y-119127619D01*
X143794238Y-119460952D02*
X143889476Y-119413333D01*
X143937095Y-119365714D01*
X143984714Y-119270476D01*
X143984714Y-119222857D01*
X143937095Y-119127619D01*
X143889476Y-119080000D01*
X143794238Y-119032380D01*
X143603761Y-119032380D01*
X143508523Y-119080000D01*
X143460904Y-119127619D01*
X143413285Y-119222857D01*
X143413285Y-119270476D01*
X143460904Y-119365714D01*
X143508523Y-119413333D01*
X143603761Y-119460952D01*
X143794238Y-119460952D01*
X143889476Y-119508571D01*
X143937095Y-119556190D01*
X143984714Y-119651428D01*
X143984714Y-119841904D01*
X143937095Y-119937142D01*
X143889476Y-119984761D01*
X143794238Y-120032380D01*
X143603761Y-120032380D01*
X143508523Y-119984761D01*
X143460904Y-119937142D01*
X143413285Y-119841904D01*
X143413285Y-119651428D01*
X143460904Y-119556190D01*
X143508523Y-119508571D01*
X143603761Y-119460952D01*
%TO.C,C7*%
X144325666Y-126117142D02*
X144373285Y-126164761D01*
X144516142Y-126212380D01*
X144611380Y-126212380D01*
X144754238Y-126164761D01*
X144849476Y-126069523D01*
X144897095Y-125974285D01*
X144944714Y-125783809D01*
X144944714Y-125640952D01*
X144897095Y-125450476D01*
X144849476Y-125355238D01*
X144754238Y-125260000D01*
X144611380Y-125212380D01*
X144516142Y-125212380D01*
X144373285Y-125260000D01*
X144325666Y-125307619D01*
X143992333Y-125212380D02*
X143325666Y-125212380D01*
X143754238Y-126212380D01*
%TO.C,C6*%
X144365666Y-124037142D02*
X144413285Y-124084761D01*
X144556142Y-124132380D01*
X144651380Y-124132380D01*
X144794238Y-124084761D01*
X144889476Y-123989523D01*
X144937095Y-123894285D01*
X144984714Y-123703809D01*
X144984714Y-123560952D01*
X144937095Y-123370476D01*
X144889476Y-123275238D01*
X144794238Y-123180000D01*
X144651380Y-123132380D01*
X144556142Y-123132380D01*
X144413285Y-123180000D01*
X144365666Y-123227619D01*
X143508523Y-123132380D02*
X143699000Y-123132380D01*
X143794238Y-123180000D01*
X143841857Y-123227619D01*
X143937095Y-123370476D01*
X143984714Y-123560952D01*
X143984714Y-123941904D01*
X143937095Y-124037142D01*
X143889476Y-124084761D01*
X143794238Y-124132380D01*
X143603761Y-124132380D01*
X143508523Y-124084761D01*
X143460904Y-124037142D01*
X143413285Y-123941904D01*
X143413285Y-123703809D01*
X143460904Y-123608571D01*
X143508523Y-123560952D01*
X143603761Y-123513333D01*
X143794238Y-123513333D01*
X143889476Y-123560952D01*
X143937095Y-123608571D01*
X143984714Y-123703809D01*
%TO.C,C5*%
X144365666Y-121987142D02*
X144413285Y-122034761D01*
X144556142Y-122082380D01*
X144651380Y-122082380D01*
X144794238Y-122034761D01*
X144889476Y-121939523D01*
X144937095Y-121844285D01*
X144984714Y-121653809D01*
X144984714Y-121510952D01*
X144937095Y-121320476D01*
X144889476Y-121225238D01*
X144794238Y-121130000D01*
X144651380Y-121082380D01*
X144556142Y-121082380D01*
X144413285Y-121130000D01*
X144365666Y-121177619D01*
X143460904Y-121082380D02*
X143937095Y-121082380D01*
X143984714Y-121558571D01*
X143937095Y-121510952D01*
X143841857Y-121463333D01*
X143603761Y-121463333D01*
X143508523Y-121510952D01*
X143460904Y-121558571D01*
X143413285Y-121653809D01*
X143413285Y-121891904D01*
X143460904Y-121987142D01*
X143508523Y-122034761D01*
X143603761Y-122082380D01*
X143841857Y-122082380D01*
X143937095Y-122034761D01*
X143984714Y-121987142D01*
%TO.C,C4*%
X160206142Y-95383333D02*
X160253761Y-95335714D01*
X160301380Y-95192857D01*
X160301380Y-95097619D01*
X160253761Y-94954761D01*
X160158523Y-94859523D01*
X160063285Y-94811904D01*
X159872809Y-94764285D01*
X159729952Y-94764285D01*
X159539476Y-94811904D01*
X159444238Y-94859523D01*
X159349000Y-94954761D01*
X159301380Y-95097619D01*
X159301380Y-95192857D01*
X159349000Y-95335714D01*
X159396619Y-95383333D01*
X159634714Y-96240476D02*
X160301380Y-96240476D01*
X159253761Y-96002380D02*
X159968047Y-95764285D01*
X159968047Y-96383333D01*
%TO.C,C3*%
X139766142Y-124243333D02*
X139813761Y-124195714D01*
X139861380Y-124052857D01*
X139861380Y-123957619D01*
X139813761Y-123814761D01*
X139718523Y-123719523D01*
X139623285Y-123671904D01*
X139432809Y-123624285D01*
X139289952Y-123624285D01*
X139099476Y-123671904D01*
X139004238Y-123719523D01*
X138909000Y-123814761D01*
X138861380Y-123957619D01*
X138861380Y-124052857D01*
X138909000Y-124195714D01*
X138956619Y-124243333D01*
X138861380Y-124576666D02*
X138861380Y-125195714D01*
X139242333Y-124862380D01*
X139242333Y-125005238D01*
X139289952Y-125100476D01*
X139337571Y-125148095D01*
X139432809Y-125195714D01*
X139670904Y-125195714D01*
X139766142Y-125148095D01*
X139813761Y-125100476D01*
X139861380Y-125005238D01*
X139861380Y-124719523D01*
X139813761Y-124624285D01*
X139766142Y-124576666D01*
%TO.C,C2*%
X148606142Y-95333333D02*
X148653761Y-95285714D01*
X148701380Y-95142857D01*
X148701380Y-95047619D01*
X148653761Y-94904761D01*
X148558523Y-94809523D01*
X148463285Y-94761904D01*
X148272809Y-94714285D01*
X148129952Y-94714285D01*
X147939476Y-94761904D01*
X147844238Y-94809523D01*
X147749000Y-94904761D01*
X147701380Y-95047619D01*
X147701380Y-95142857D01*
X147749000Y-95285714D01*
X147796619Y-95333333D01*
X147796619Y-95714285D02*
X147749000Y-95761904D01*
X147701380Y-95857142D01*
X147701380Y-96095238D01*
X147749000Y-96190476D01*
X147796619Y-96238095D01*
X147891857Y-96285714D01*
X147987095Y-96285714D01*
X148129952Y-96238095D01*
X148701380Y-95666666D01*
X148701380Y-96285714D01*
%TO.C,C1*%
X142536142Y-138333333D02*
X142583761Y-138285714D01*
X142631380Y-138142857D01*
X142631380Y-138047619D01*
X142583761Y-137904761D01*
X142488523Y-137809523D01*
X142393285Y-137761904D01*
X142202809Y-137714285D01*
X142059952Y-137714285D01*
X141869476Y-137761904D01*
X141774238Y-137809523D01*
X141679000Y-137904761D01*
X141631380Y-138047619D01*
X141631380Y-138142857D01*
X141679000Y-138285714D01*
X141726619Y-138333333D01*
X142631380Y-139285714D02*
X142631380Y-138714285D01*
X142631380Y-139000000D02*
X141631380Y-139000000D01*
X141774238Y-138904761D01*
X141869476Y-138809523D01*
X141917095Y-138714285D01*
%TO.C,SW2*%
X182773761Y-87266666D02*
X182821380Y-87409523D01*
X182821380Y-87647619D01*
X182773761Y-87742857D01*
X182726142Y-87790476D01*
X182630904Y-87838095D01*
X182535666Y-87838095D01*
X182440428Y-87790476D01*
X182392809Y-87742857D01*
X182345190Y-87647619D01*
X182297571Y-87457142D01*
X182249952Y-87361904D01*
X182202333Y-87314285D01*
X182107095Y-87266666D01*
X182011857Y-87266666D01*
X181916619Y-87314285D01*
X181869000Y-87361904D01*
X181821380Y-87457142D01*
X181821380Y-87695238D01*
X181869000Y-87838095D01*
X181821380Y-88171428D02*
X182821380Y-88409523D01*
X182107095Y-88600000D01*
X182821380Y-88790476D01*
X181821380Y-89028571D01*
X181916619Y-89361904D02*
X181869000Y-89409523D01*
X181821380Y-89504761D01*
X181821380Y-89742857D01*
X181869000Y-89838095D01*
X181916619Y-89885714D01*
X182011857Y-89933333D01*
X182107095Y-89933333D01*
X182249952Y-89885714D01*
X182821380Y-89314285D01*
X182821380Y-89933333D01*
D18*
X185869476Y-82064285D02*
X185798047Y-82088095D01*
X185774238Y-82111904D01*
X185750428Y-82159523D01*
X185750428Y-82230952D01*
X185774238Y-82278571D01*
X185798047Y-82302380D01*
X185845666Y-82326190D01*
X186036142Y-82326190D01*
X186036142Y-81826190D01*
X185869476Y-81826190D01*
X185821857Y-81850000D01*
X185798047Y-81873809D01*
X185774238Y-81921428D01*
X185774238Y-81969047D01*
X185798047Y-82016666D01*
X185821857Y-82040476D01*
X185869476Y-82064285D01*
X186036142Y-82064285D01*
X185298047Y-82326190D02*
X185536142Y-82326190D01*
X185536142Y-81826190D01*
X185036142Y-81826190D02*
X184940904Y-81826190D01*
X184893285Y-81850000D01*
X184845666Y-81897619D01*
X184821857Y-81992857D01*
X184821857Y-82159523D01*
X184845666Y-82254761D01*
X184893285Y-82302380D01*
X184940904Y-82326190D01*
X185036142Y-82326190D01*
X185083761Y-82302380D01*
X185131380Y-82254761D01*
X185155190Y-82159523D01*
X185155190Y-81992857D01*
X185131380Y-81897619D01*
X185083761Y-81850000D01*
X185036142Y-81826190D01*
X184512333Y-81826190D02*
X184417095Y-81826190D01*
X184369476Y-81850000D01*
X184321857Y-81897619D01*
X184298047Y-81992857D01*
X184298047Y-82159523D01*
X184321857Y-82254761D01*
X184369476Y-82302380D01*
X184417095Y-82326190D01*
X184512333Y-82326190D01*
X184559952Y-82302380D01*
X184607571Y-82254761D01*
X184631380Y-82159523D01*
X184631380Y-81992857D01*
X184607571Y-81897619D01*
X184559952Y-81850000D01*
X184512333Y-81826190D01*
X184083761Y-82326190D02*
X184083761Y-81826190D01*
X183893285Y-81826190D01*
X183845666Y-81850000D01*
X183821857Y-81873809D01*
X183798047Y-81921428D01*
X183798047Y-81992857D01*
X183821857Y-82040476D01*
X183845666Y-82064285D01*
X183893285Y-82088095D01*
X184083761Y-82088095D01*
%TO.C,SW1*%
D15*
X125563761Y-87266666D02*
X125611380Y-87409523D01*
X125611380Y-87647619D01*
X125563761Y-87742857D01*
X125516142Y-87790476D01*
X125420904Y-87838095D01*
X125325666Y-87838095D01*
X125230428Y-87790476D01*
X125182809Y-87742857D01*
X125135190Y-87647619D01*
X125087571Y-87457142D01*
X125039952Y-87361904D01*
X124992333Y-87314285D01*
X124897095Y-87266666D01*
X124801857Y-87266666D01*
X124706619Y-87314285D01*
X124659000Y-87361904D01*
X124611380Y-87457142D01*
X124611380Y-87695238D01*
X124659000Y-87838095D01*
X124611380Y-88171428D02*
X125611380Y-88409523D01*
X124897095Y-88600000D01*
X125611380Y-88790476D01*
X124611380Y-89028571D01*
X125611380Y-89933333D02*
X125611380Y-89361904D01*
X125611380Y-89647619D02*
X124611380Y-89647619D01*
X124754238Y-89552380D01*
X124849476Y-89457142D01*
X124897095Y-89361904D01*
D18*
X123938047Y-81674285D02*
X123866619Y-81698095D01*
X123842809Y-81721904D01*
X123819000Y-81769523D01*
X123819000Y-81840952D01*
X123842809Y-81888571D01*
X123866619Y-81912380D01*
X123914238Y-81936190D01*
X124104714Y-81936190D01*
X124104714Y-81436190D01*
X123938047Y-81436190D01*
X123890428Y-81460000D01*
X123866619Y-81483809D01*
X123842809Y-81531428D01*
X123842809Y-81579047D01*
X123866619Y-81626666D01*
X123890428Y-81650476D01*
X123938047Y-81674285D01*
X124104714Y-81674285D01*
X123366619Y-81936190D02*
X123604714Y-81936190D01*
X123604714Y-81436190D01*
X123199952Y-81674285D02*
X123033285Y-81674285D01*
X122961857Y-81936190D02*
X123199952Y-81936190D01*
X123199952Y-81436190D01*
X122961857Y-81436190D01*
X122747571Y-81674285D02*
X122580904Y-81674285D01*
X122509476Y-81936190D02*
X122747571Y-81936190D01*
X122747571Y-81436190D01*
X122509476Y-81436190D01*
X122295190Y-81936190D02*
X122295190Y-81436190D01*
X122104714Y-81436190D01*
X122057095Y-81460000D01*
X122033285Y-81483809D01*
X122009476Y-81531428D01*
X122009476Y-81602857D01*
X122033285Y-81650476D01*
X122057095Y-81674285D01*
X122104714Y-81698095D01*
X122295190Y-81698095D01*
%TO.C,R4*%
D15*
X131635666Y-59312380D02*
X131969000Y-58836190D01*
X132207095Y-59312380D02*
X132207095Y-58312380D01*
X131826142Y-58312380D01*
X131730904Y-58360000D01*
X131683285Y-58407619D01*
X131635666Y-58502857D01*
X131635666Y-58645714D01*
X131683285Y-58740952D01*
X131730904Y-58788571D01*
X131826142Y-58836190D01*
X132207095Y-58836190D01*
X130778523Y-58645714D02*
X130778523Y-59312380D01*
X131016619Y-58264761D02*
X131254714Y-58979047D01*
X130635666Y-58979047D01*
%TO.C,R5*%
X177471380Y-57923333D02*
X176995190Y-57590000D01*
X177471380Y-57351904D02*
X176471380Y-57351904D01*
X176471380Y-57732857D01*
X176519000Y-57828095D01*
X176566619Y-57875714D01*
X176661857Y-57923333D01*
X176804714Y-57923333D01*
X176899952Y-57875714D01*
X176947571Y-57828095D01*
X176995190Y-57732857D01*
X176995190Y-57351904D01*
X176471380Y-58828095D02*
X176471380Y-58351904D01*
X176947571Y-58304285D01*
X176899952Y-58351904D01*
X176852333Y-58447142D01*
X176852333Y-58685238D01*
X176899952Y-58780476D01*
X176947571Y-58828095D01*
X177042809Y-58875714D01*
X177280904Y-58875714D01*
X177376142Y-58828095D01*
X177423761Y-58780476D01*
X177471380Y-58685238D01*
X177471380Y-58447142D01*
X177423761Y-58351904D01*
X177376142Y-58304285D01*
%TO.C,R6*%
X145505782Y-60564286D02*
X145839116Y-60088096D01*
X146077211Y-60564286D02*
X146077211Y-59564286D01*
X145696258Y-59564286D01*
X145601020Y-59611906D01*
X145553401Y-59659525D01*
X145505782Y-59754763D01*
X145505782Y-59897620D01*
X145553401Y-59992858D01*
X145601020Y-60040477D01*
X145696258Y-60088096D01*
X146077211Y-60088096D01*
X144648639Y-59564286D02*
X144839116Y-59564286D01*
X144934354Y-59611906D01*
X144981973Y-59659525D01*
X145077211Y-59802382D01*
X145124830Y-59992858D01*
X145124830Y-60373810D01*
X145077211Y-60469048D01*
X145029592Y-60516667D01*
X144934354Y-60564286D01*
X144743877Y-60564286D01*
X144648639Y-60516667D01*
X144601020Y-60469048D01*
X144553401Y-60373810D01*
X144553401Y-60135715D01*
X144601020Y-60040477D01*
X144648639Y-59992858D01*
X144743877Y-59945239D01*
X144934354Y-59945239D01*
X145029592Y-59992858D01*
X145077211Y-60040477D01*
X145124830Y-60135715D01*
%TD*%
M02*
