%TF.GenerationSoftware,KiCad,Pcbnew,(5.1.9-0-10_14)*%
%TF.CreationDate,2022-08-08T15:51:30-07:00*%
%TF.ProjectId,integrator,696e7465-6772-4617-946f-722e6b696361,rev?*%
%TF.SameCoordinates,Original*%
%TF.FileFunction,Profile,NP*%
%FSLAX46Y46*%
G04 Gerber Fmt 4.6, Leading zero omitted, Abs format (unit mm)*
G04 Created by KiCad (PCBNEW (5.1.9-0-10_14)) date 2022-08-08 15:51:30*
%MOMM*%
%LPD*%
G01*
G04 APERTURE LIST*
%TA.AperFunction,Profile*%
%ADD10C,0.254000*%
%TD*%
G04 APERTURE END LIST*
D10*
X183799723Y-68168362D02*
G75*
G02*
X183799116Y-66131906I449277J1018362D01*
G01*
X124298509Y-68136456D02*
G75*
G03*
X124299116Y-66100000I-449277J1018362D01*
G01*
X124298509Y-156068362D02*
G75*
G03*
X124299116Y-154031906I-449277J1018362D01*
G01*
X124298509Y-156068362D02*
X124300000Y-159031906D01*
X183799723Y-156068362D02*
G75*
G02*
X183799116Y-154031906I449277J1018362D01*
G01*
X167249000Y-90020000D02*
X166449000Y-90019999D01*
X165849000Y-93620000D02*
X167249000Y-93620000D01*
X172189000Y-93610000D02*
X174349000Y-93620000D01*
X172189000Y-90010000D02*
X174049000Y-90020000D01*
X171689000Y-90510000D02*
X171689000Y-93110000D01*
X167749000Y-93120000D02*
G75*
G02*
X167249000Y-93620000I-500000J0D01*
G01*
X167749000Y-90520000D02*
G75*
G03*
X167249000Y-90020000I-500000J0D01*
G01*
X167749000Y-90520000D02*
X167749000Y-93120000D01*
X171689000Y-93110000D02*
G75*
G03*
X172189000Y-93610000I500000J0D01*
G01*
X171689000Y-90510000D02*
G75*
G02*
X172189000Y-90010000I500000J0D01*
G01*
X172749000Y-71520000D02*
G75*
G03*
X173249000Y-72020000I500000J0D01*
G01*
X172749000Y-68920000D02*
G75*
G02*
X173249000Y-68420000I500000J0D01*
G01*
X172749000Y-68920000D02*
X172749000Y-71520000D01*
X174048999Y-72020001D02*
X173249000Y-72020000D01*
X169159000Y-71510000D02*
G75*
G02*
X168659000Y-72010000I-500000J0D01*
G01*
X166449001Y-72020001D02*
X168659000Y-72010000D01*
X169159000Y-68910000D02*
G75*
G03*
X168659000Y-68410000I-500000J0D01*
G01*
X174349000Y-68420000D02*
X173249000Y-68420000D01*
X165849000Y-68420000D02*
X168659000Y-68410000D01*
X166449000Y-90019999D02*
G75*
G02*
X166449001Y-72020001I3000000J8999999D01*
G01*
X169159000Y-68910000D02*
X169159000Y-71510000D01*
X174048999Y-72020001D02*
X174049000Y-90020000D01*
X132049000Y-89820000D02*
X132049000Y-91920000D01*
X132049000Y-89820000D02*
X130299000Y-89820000D01*
X130299000Y-89820000D02*
G75*
G02*
X130299000Y-88820000I-50000J500000D01*
G01*
X133749000Y-93620000D02*
G75*
G02*
X132049000Y-91920000I0J1700000D01*
G01*
X133749000Y-68420000D02*
G75*
G03*
X132049000Y-70120000I0J-1700000D01*
G01*
X132049000Y-72220000D02*
X132049000Y-70120000D01*
X132049000Y-72220000D02*
X130299000Y-72220000D01*
X130299000Y-72220000D02*
G75*
G03*
X130299000Y-73220000I-50000J-500000D01*
G01*
X176049000Y-89820000D02*
X176049000Y-91920000D01*
X177799000Y-89820000D02*
G75*
G03*
X177799000Y-88820000I50000J500000D01*
G01*
X176049000Y-89820000D02*
X177799000Y-89820000D01*
X174349000Y-93620000D02*
G75*
G03*
X176049000Y-91920000I0J1700000D01*
G01*
X174349000Y-68420000D02*
G75*
G02*
X176049000Y-70120000I0J-1700000D01*
G01*
X177799000Y-72220000D02*
G75*
G02*
X177799000Y-73220000I50000J-500000D01*
G01*
X176049000Y-72220000D02*
X177799000Y-72220000D01*
X176049000Y-72220000D02*
X176049000Y-70120000D01*
X133749000Y-93620000D02*
X142249000Y-93620000D01*
X142249000Y-93620000D02*
G75*
G03*
X142849000Y-93020000I0J600000D01*
G01*
X165249000Y-91520000D02*
X165249000Y-93020000D01*
X165249000Y-91520000D02*
X142849000Y-91520000D01*
X142849000Y-91520000D02*
X142849000Y-93020000D01*
X165849000Y-93620000D02*
G75*
G02*
X165249000Y-93020000I0J600000D01*
G01*
X142849000Y-69020000D02*
G75*
G03*
X142249000Y-68420000I-600000J0D01*
G01*
X165849000Y-68420000D02*
G75*
G03*
X165249000Y-69020000I0J-600000D01*
G01*
X142249000Y-68420000D02*
X133749000Y-68420000D01*
X142849000Y-70520000D02*
X142849000Y-69020000D01*
X165249000Y-70520000D02*
X165249000Y-69020000D01*
X142849000Y-70520000D02*
X165249000Y-70520000D01*
X183799723Y-156068362D02*
X183800000Y-159031906D01*
X124299116Y-154031906D02*
X124300000Y-95831906D01*
X123499116Y-74231906D02*
G75*
G03*
X123999116Y-73731906I0J500000D01*
G01*
X123999116Y-71731906D02*
X123999116Y-73731906D01*
X123999116Y-71731906D02*
G75*
G03*
X123499116Y-71231906I-500000J0D01*
G01*
X124298509Y-68136456D02*
X121722195Y-70162914D01*
X123499116Y-78231906D02*
G75*
G03*
X123999116Y-77731906I0J500000D01*
G01*
X123499116Y-74231906D02*
X121299116Y-74231906D01*
X123499116Y-78231906D02*
X121299116Y-78231906D01*
X123999116Y-76731906D02*
X123999116Y-77731906D01*
X123999116Y-76731906D02*
G75*
G03*
X123499116Y-76231906I-500000J0D01*
G01*
X121299116Y-71005215D02*
X121299116Y-71231906D01*
X121722195Y-70162914D02*
G75*
G03*
X121299116Y-71005215I626921J-842301D01*
G01*
X121299116Y-76231906D02*
X123499116Y-76231906D01*
X121299116Y-71231906D02*
X123499116Y-71231906D01*
X121299116Y-74231906D02*
X121299116Y-76231906D01*
X183799723Y-68168362D02*
X186376037Y-70162914D01*
X186799116Y-74231906D02*
X186799116Y-76231906D01*
X184099116Y-71731906D02*
G75*
G02*
X184599116Y-71231906I500000J0D01*
G01*
X184599116Y-74231906D02*
G75*
G02*
X184099116Y-73731906I0J500000D01*
G01*
X186799116Y-78231906D02*
X186799116Y-92001906D01*
X184599116Y-78231906D02*
G75*
G02*
X184099116Y-77731906I0J500000D01*
G01*
X184099116Y-76731906D02*
G75*
G02*
X184599116Y-76231906I500000J0D01*
G01*
X184599116Y-78231906D02*
X186799116Y-78231906D01*
X184099116Y-76731906D02*
X184099116Y-77731906D01*
X186799116Y-76231906D02*
X184599116Y-76231906D01*
X184599116Y-74231906D02*
X186799116Y-74231906D01*
X184099116Y-71731906D02*
X184099116Y-73731906D01*
X186799116Y-71231906D02*
X184599116Y-71231906D01*
X181799116Y-161032790D02*
X147379116Y-161021906D01*
X126398947Y-161028528D02*
X147379116Y-161021906D01*
X126398947Y-161028528D02*
G75*
G02*
X124300000Y-159031906I-99831J1996622D01*
G01*
X181799116Y-161032790D02*
G75*
G03*
X183800000Y-159031906I0J2000884D01*
G01*
X124299116Y-66100000D02*
X124300000Y-56000000D01*
X122140111Y-92877721D02*
G75*
G02*
X121299116Y-91831906I209005J1029124D01*
G01*
X121299116Y-91831906D02*
X121299116Y-78231906D01*
X122139592Y-92880274D02*
G75*
G02*
X124300000Y-95831906I-840476J-2881632D01*
G01*
X185999071Y-93021721D02*
G75*
G03*
X186799116Y-92001906I-249955J1019815D01*
G01*
X186376037Y-70162914D02*
G75*
G02*
X186799116Y-71005215I-626921J-842301D01*
G01*
X183800000Y-56000000D02*
X183799116Y-66131906D01*
X183801500Y-95831934D02*
X183799116Y-154031906D01*
X183801500Y-95831934D02*
G75*
G02*
X185999116Y-93021906I2997616J-79972D01*
G01*
X186799116Y-71005215D02*
X186799116Y-71231906D01*
X130299000Y-73220000D02*
X130299000Y-88820000D01*
X124300000Y-46000000D02*
G75*
G02*
X126300000Y-44000000I2000000J0D01*
G01*
X181800000Y-44000000D02*
G75*
G02*
X183800000Y-46000000I0J-2000000D01*
G01*
X177799000Y-73220000D02*
X177799000Y-88820000D01*
X183800000Y-46000000D02*
X183800000Y-56000000D01*
X126300000Y-44000000D02*
X181800000Y-44000000D01*
X124300000Y-56000000D02*
X124300000Y-46000000D01*
M02*
