M48
; DRILL file {KiCad (5.1.9-0-10_14)} date Wednesday, May 11, 2022 at 06:10:06 PM
; FORMAT={-:-/ absolute / inch / decimal}
; #@! TF.CreationDate,2022-05-11T18:10:06-07:00
; #@! TF.GenerationSoftware,Kicad,Pcbnew,(5.1.9-0-10_14)
FMAT,2
INCH
T1C0.0079
T2C0.0130
T3C0.0197
T4C0.0236
T5C0.0354
T6C0.0394
T7C0.0472
T8C0.0197
T9C0.0256
T10C0.0354
T11C0.0454
T12C0.0669
%
G90
G05
T1
X5.9837Y-4.7844
X5.9837Y-4.8385
X5.9837Y-4.8926
X5.9837Y-4.9468
X5.9837Y-5.0009
X6.0379Y-4.7844
X6.0379Y-4.8385
X6.0379Y-4.8926
X6.0379Y-4.9468
X6.0379Y-5.0009
X6.092Y-4.7844
X6.092Y-4.8385
X6.092Y-4.8926
X6.092Y-4.9468
X6.092Y-5.0009
X6.1461Y-4.7844
X6.1461Y-4.8385
X6.1461Y-4.8926
X6.1461Y-4.9468
X6.1461Y-5.0009
X6.2003Y-4.7844
X6.2003Y-4.8385
X6.2003Y-4.8926
X6.2003Y-4.9468
X6.2003Y-5.0009
T2
X5.1Y-1.9328
X5.1437Y-3.8441
X5.1889Y-3.7261
X5.1966Y-3.8289
X5.2275Y-3.7783
X5.235Y-3.8607
X5.2378Y-3.9047
X5.2669Y-2.2484
X5.2843Y-3.7894
X5.2956Y-3.8471
X5.3704Y-5.8531
X5.3805Y-6.0959
X5.4055Y-6.0709
X5.446Y-6.1768
X5.4956Y-2.5484
X5.5106Y-2.2474
X5.5535Y-4.8606
X5.5736Y-5.2203
X5.574Y-5.0587
X5.6043Y-5.3941
X5.624Y-5.0209
X5.633Y-5.2201
X5.6569Y-5.0046
X5.6909Y-4.7067
X5.6909Y-4.7874
X5.6909Y-4.8681
X5.6909Y-4.9488
X5.7007Y-6.1756
X5.7027Y-5.0886
X5.7216Y-2.3787
X5.7342Y-1.8346
X5.7492Y-6.2886
X5.7519Y-5.2244
X5.811Y-5.3917
X5.8267Y-2.1012
X5.8622Y-5.3031
X5.8681Y-4.9488
X5.8681Y-4.9016
X5.8787Y-3.8005
X5.8795Y-3.7619
X5.8799Y-3.7245
X5.8878Y-4.4331
X5.9141Y-2.578
X5.935Y-4.4803
X5.9547Y-4.6732
X5.9763Y-5.3346
X5.9819Y-4.2563
X5.9822Y-4.4035
X6.0094Y-2.6057
X6.0098Y-5.7756
X6.0196Y-4.2835
X6.0204Y-4.3685
X6.0315Y-3.8346
X6.0649Y-5.5039
X6.0678Y-3.8349
X6.0685Y-2.6083
X6.0689Y-4.0354
X6.0749Y-4.0906
X6.097Y-4.0661
X6.1043Y-3.8346
X6.1174Y-2.6081
X6.1417Y-3.8996
X6.1507Y-4.0134
X6.1515Y-5.1555
X6.1515Y-5.1909
X6.1543Y-1.9906
X6.1653Y-2.6076
X6.17Y-4.1035
X6.2027Y-5.7776
X6.2153Y-2.1898
X6.2153Y-2.3424
X6.25Y-3.7993
X6.25Y-3.7244
X6.3169Y-5.3701
X6.3668Y-2.4603
X6.3681Y-4.0445
X6.3831Y-4.0861
X6.3878Y-1.8346
X6.3972Y-2.5784
X6.4003Y-4.2857
X6.4015Y-6.0118
X6.4261Y-4.4343
X6.4421Y-4.2857
X6.4519Y-4.9534
X6.4586Y-5.3898
X6.4586Y-4.998
X6.4586Y-5.0394
X6.4735Y-4.9285
X6.4799Y-4.4378
X6.4868Y-4.2868
X6.4983Y-4.9068
X6.5307Y-4.9002
X6.5609Y-4.4366
X6.5716Y-5.3122
X6.6555Y-4.7835
X6.7421Y-2.1414
X6.8966Y-2.4738
X6.946Y-2.4783
X6.9543Y-2.1387
X7.0102Y-3.9795
X7.1338Y-3.9626
X7.2795Y-3.4894
T5
X4.8452Y-3.3961
X4.8452Y-3.5724
X5.9767Y-1.8016
X6.1531Y-1.8016
X7.2807Y-3.4007
X7.2807Y-3.5771
T6
X5.3232Y-4.5984
X5.3232Y-4.6984
X5.4232Y-4.5984
X5.4232Y-4.6984
X6.7338Y-4.8965
X6.7338Y-4.9965
X6.7338Y-5.0965
X6.7338Y-5.1965
X6.7338Y-5.2965
X6.8338Y-4.8965
X6.8338Y-4.9965
X6.8338Y-5.0965
X6.8338Y-5.1965
X6.8338Y-5.2965
T7
X4.9433Y-3.3461
X4.9433Y-3.6224
X5.9267Y-1.8996
X6.2031Y-1.8996
X7.1826Y-3.3507
X7.1826Y-3.6271
T8
X6.5937Y-3.6803
X6.6291Y-3.6803
X6.6425Y-2.6988
X6.6645Y-3.6803
X6.6779Y-2.6988
X6.7Y-3.6803
X6.7133Y-2.6988
X6.7354Y-3.6803
X6.7488Y-2.6988
X6.7708Y-3.6803
X6.7842Y-2.6988
X6.8196Y-2.6988
T9
X5.9901Y-6.0929
X6.2177Y-6.0929
T10
X5.4935Y-6.2106
X5.6608Y-6.2106
T11
X5.0803Y-5.8465
X5.0807Y-2.5
X7.0885Y-2.5
T12
X5.1417Y-1.9921
X5.4173Y-1.9921
X6.7126Y-1.9921
X6.9882Y-1.9921
T3
G00X6.5472Y-2.9528
M15
G01X6.5472Y-2.9921
M16
G05
G00X6.5472Y-3.3858
M15
G01X6.5472Y-3.4252
M16
G05
G00X6.6456Y-2.9528
M15
G01X6.6456Y-2.9921
M16
G05
G00X6.6456Y-3.3858
M15
G01X6.6456Y-3.4252
M16
G05
G00X6.7441Y-2.9528
M15
G01X6.7441Y-2.9921
M16
G05
G00X6.7441Y-3.3858
M15
G01X6.7441Y-3.4252
M16
G05
T4
G00X5.9338Y-6.0949
M15
G01X5.9338Y-6.0516
M16
G05
G00X5.9338Y-6.2535
M15
G01X5.9338Y-6.222
M16
G05
G00X6.274Y-6.0949
M15
G01X6.274Y-6.0516
M16
G05
G00X6.274Y-6.2535
M15
G01X6.274Y-6.222
M16
G05
T0
M30
