%TF.GenerationSoftware,KiCad,Pcbnew,(5.1.9-0-10_14)*%
%TF.CreationDate,2022-10-10T16:55:22-07:00*%
%TF.ProjectId,integrator,696e7465-6772-4617-946f-722e6b696361,rev?*%
%TF.SameCoordinates,Original*%
%TF.FileFunction,Legend,Bot*%
%TF.FilePolarity,Positive*%
%FSLAX46Y46*%
G04 Gerber Fmt 4.6, Leading zero omitted, Abs format (unit mm)*
G04 Created by KiCad (PCBNEW (5.1.9-0-10_14)) date 2022-10-10 16:55:22*
%MOMM*%
%LPD*%
G01*
G04 APERTURE LIST*
%ADD10C,0.127000*%
%ADD11C,0.152400*%
%ADD12C,0.375000*%
%ADD13C,0.120000*%
%ADD14C,0.150000*%
%ADD15C,0.200000*%
%ADD16C,0.100000*%
%ADD17C,0.125000*%
G04 APERTURE END LIST*
D10*
X127949000Y-45300000D02*
X127099000Y-44800000D01*
X127099000Y-45800000D02*
X127899000Y-45300000D01*
X127099000Y-44800000D02*
X127099000Y-45800000D01*
X127949000Y-44800000D02*
X127949000Y-45850000D01*
X180149000Y-45300000D02*
X180999000Y-45800000D01*
X180999000Y-44800000D02*
X180199000Y-45300000D01*
X180999000Y-45800000D02*
X180999000Y-44800000D01*
X180149000Y-45800000D02*
X180149000Y-44750000D01*
X138949000Y-123450000D02*
X138649000Y-123450000D01*
X138949000Y-123150000D02*
X138949000Y-123450000D01*
X137399000Y-122800000D02*
X137799000Y-122800000D01*
X137399000Y-123200000D02*
X137399000Y-122800000D01*
X127099000Y-126050000D02*
X126799000Y-126000000D01*
X127049000Y-125650000D02*
X127099000Y-126050000D01*
X125549000Y-125350000D02*
X125799000Y-125350000D01*
X125549000Y-125700000D02*
X125549000Y-125350000D01*
X138199000Y-124350000D02*
X138199000Y-125950000D01*
X137399000Y-123200000D02*
X138899000Y-123150000D01*
X137449000Y-124300000D02*
X138899000Y-124300000D01*
X138149000Y-123200000D02*
X137449000Y-124300000D01*
X138899000Y-124200000D02*
X138149000Y-123200000D01*
X126299000Y-124350000D02*
X126349000Y-123050000D01*
X125549000Y-125700000D02*
X127049000Y-125650000D01*
X127099000Y-124450000D02*
X125549000Y-124350000D01*
X126299000Y-125650000D02*
X127099000Y-124450000D01*
X125499000Y-124300000D02*
X126299000Y-125650000D01*
D11*
X143393952Y-160469142D02*
X143393952Y-159925142D01*
X143393952Y-160080571D02*
X143345571Y-160002857D01*
X143297190Y-159964000D01*
X143200428Y-159925142D01*
X143103666Y-159925142D01*
X142377952Y-160430285D02*
X142474714Y-160469142D01*
X142668238Y-160469142D01*
X142765000Y-160430285D01*
X142813380Y-160352571D01*
X142813380Y-160041714D01*
X142765000Y-159964000D01*
X142668238Y-159925142D01*
X142474714Y-159925142D01*
X142377952Y-159964000D01*
X142329571Y-160041714D01*
X142329571Y-160119428D01*
X142813380Y-160197142D01*
X141942523Y-160430285D02*
X141845761Y-160469142D01*
X141652238Y-160469142D01*
X141555476Y-160430285D01*
X141507095Y-160352571D01*
X141507095Y-160313714D01*
X141555476Y-160236000D01*
X141652238Y-160197142D01*
X141797380Y-160197142D01*
X141894142Y-160158285D01*
X141942523Y-160080571D01*
X141942523Y-160041714D01*
X141894142Y-159964000D01*
X141797380Y-159925142D01*
X141652238Y-159925142D01*
X141555476Y-159964000D01*
X140684619Y-160430285D02*
X140781380Y-160469142D01*
X140974904Y-160469142D01*
X141071666Y-160430285D01*
X141120047Y-160352571D01*
X141120047Y-160041714D01*
X141071666Y-159964000D01*
X140974904Y-159925142D01*
X140781380Y-159925142D01*
X140684619Y-159964000D01*
X140636238Y-160041714D01*
X140636238Y-160119428D01*
X141120047Y-160197142D01*
X140345952Y-159925142D02*
X139958904Y-159925142D01*
X140200809Y-159653142D02*
X140200809Y-160352571D01*
X140152428Y-160430285D01*
X140055666Y-160469142D01*
X139958904Y-160469142D01*
D12*
X164340068Y-48157142D02*
X164340068Y-45157142D01*
X163425782Y-48157142D01*
X163425782Y-45157142D01*
X162359116Y-45157142D02*
X162054354Y-45157142D01*
X161901973Y-45300000D01*
X161749592Y-45585714D01*
X161673401Y-46157142D01*
X161673401Y-47157142D01*
X161749592Y-47728571D01*
X161901973Y-48014285D01*
X162054354Y-48157142D01*
X162359116Y-48157142D01*
X162511496Y-48014285D01*
X162663877Y-47728571D01*
X162740068Y-47157142D01*
X162740068Y-46157142D01*
X162663877Y-45585714D01*
X162511496Y-45300000D01*
X162359116Y-45157142D01*
X160987687Y-48157142D02*
X160987687Y-45157142D01*
X160073401Y-48157142D01*
X160073401Y-45157142D01*
X159311496Y-47014285D02*
X158092449Y-47014285D01*
X148873401Y-48014285D02*
X148644830Y-48157142D01*
X148263877Y-48157142D01*
X148111496Y-48014285D01*
X148035306Y-47871428D01*
X147959115Y-47585714D01*
X147959115Y-47300000D01*
X148035306Y-47014285D01*
X148111496Y-46871428D01*
X148263877Y-46728571D01*
X148568639Y-46585714D01*
X148721020Y-46442857D01*
X148797211Y-46300000D01*
X148873401Y-46014285D01*
X148873401Y-45728571D01*
X148797211Y-45442857D01*
X148721020Y-45300000D01*
X148568639Y-45157142D01*
X148187687Y-45157142D01*
X147959115Y-45300000D01*
X147501973Y-45157142D02*
X146587687Y-45157142D01*
X147044830Y-48157142D02*
X147044830Y-45157142D01*
X145749592Y-45157142D02*
X145444830Y-45157142D01*
X145292449Y-45300000D01*
X145140068Y-45585714D01*
X145063877Y-46157142D01*
X145063877Y-47157142D01*
X145140068Y-47728571D01*
X145292449Y-48014285D01*
X145444830Y-48157142D01*
X145749592Y-48157142D01*
X145901973Y-48014285D01*
X146054354Y-47728571D01*
X146130544Y-47157142D01*
X146130544Y-46157142D01*
X146054354Y-45585714D01*
X145901973Y-45300000D01*
X145749592Y-45157142D01*
X144378163Y-48157142D02*
X144378163Y-45157142D01*
X143768639Y-45157142D01*
X143616258Y-45300000D01*
X143540068Y-45442857D01*
X143463877Y-45728571D01*
X143463877Y-46157142D01*
X143540068Y-46442857D01*
X143616258Y-46585714D01*
X143768639Y-46728571D01*
X144378163Y-46728571D01*
X142778163Y-47871428D02*
X142701973Y-48014285D01*
X142778163Y-48157142D01*
X142854354Y-48014285D01*
X142778163Y-47871428D01*
X142778163Y-48157142D01*
X142778163Y-47014285D02*
X142854354Y-45300000D01*
X142778163Y-45157142D01*
X142701973Y-45300000D01*
X142778163Y-47014285D01*
X142778163Y-45157142D01*
D10*
X157872830Y-58944714D02*
X157872830Y-58436714D01*
X157872830Y-58509285D02*
X157836544Y-58473000D01*
X157763973Y-58436714D01*
X157655116Y-58436714D01*
X157582544Y-58473000D01*
X157546258Y-58545571D01*
X157546258Y-58944714D01*
X157546258Y-58545571D02*
X157509973Y-58473000D01*
X157437401Y-58436714D01*
X157328544Y-58436714D01*
X157255973Y-58473000D01*
X157219687Y-58545571D01*
X157219687Y-58944714D01*
X156530258Y-58944714D02*
X156530258Y-58545571D01*
X156566544Y-58473000D01*
X156639116Y-58436714D01*
X156784258Y-58436714D01*
X156856830Y-58473000D01*
X156530258Y-58908428D02*
X156602830Y-58944714D01*
X156784258Y-58944714D01*
X156856830Y-58908428D01*
X156893116Y-58835857D01*
X156893116Y-58763285D01*
X156856830Y-58690714D01*
X156784258Y-58654428D01*
X156602830Y-58654428D01*
X156530258Y-58618142D01*
X155840830Y-58436714D02*
X155840830Y-59053571D01*
X155877116Y-59126142D01*
X155913401Y-59162428D01*
X155985973Y-59198714D01*
X156094830Y-59198714D01*
X156167401Y-59162428D01*
X155840830Y-58908428D02*
X155913401Y-58944714D01*
X156058544Y-58944714D01*
X156131116Y-58908428D01*
X156167401Y-58872142D01*
X156203687Y-58799571D01*
X156203687Y-58581857D01*
X156167401Y-58509285D01*
X156131116Y-58473000D01*
X156058544Y-58436714D01*
X155913401Y-58436714D01*
X155840830Y-58473000D01*
X155477973Y-58944714D02*
X155477973Y-58436714D01*
X155477973Y-58182714D02*
X155514258Y-58219000D01*
X155477973Y-58255285D01*
X155441687Y-58219000D01*
X155477973Y-58182714D01*
X155477973Y-58255285D01*
X154788544Y-58908428D02*
X154861116Y-58944714D01*
X155006258Y-58944714D01*
X155078830Y-58908428D01*
X155115116Y-58872142D01*
X155151401Y-58799571D01*
X155151401Y-58581857D01*
X155115116Y-58509285D01*
X155078830Y-58473000D01*
X155006258Y-58436714D01*
X154861116Y-58436714D01*
X154788544Y-58473000D01*
X153990258Y-58436714D02*
X153699973Y-58436714D01*
X153881401Y-58944714D02*
X153881401Y-58291571D01*
X153845116Y-58219000D01*
X153772544Y-58182714D01*
X153699973Y-58182714D01*
X153445973Y-58944714D02*
X153445973Y-58436714D01*
X153445973Y-58182714D02*
X153482258Y-58219000D01*
X153445973Y-58255285D01*
X153409687Y-58219000D01*
X153445973Y-58182714D01*
X153445973Y-58255285D01*
X153083116Y-58436714D02*
X153083116Y-58944714D01*
X153083116Y-58509285D02*
X153046830Y-58473000D01*
X152974258Y-58436714D01*
X152865401Y-58436714D01*
X152792830Y-58473000D01*
X152756544Y-58545571D01*
X152756544Y-58944714D01*
X152067116Y-58436714D02*
X152067116Y-59053571D01*
X152103401Y-59126142D01*
X152139687Y-59162428D01*
X152212258Y-59198714D01*
X152321116Y-59198714D01*
X152393687Y-59162428D01*
X152067116Y-58908428D02*
X152139687Y-58944714D01*
X152284830Y-58944714D01*
X152357401Y-58908428D01*
X152393687Y-58872142D01*
X152429973Y-58799571D01*
X152429973Y-58581857D01*
X152393687Y-58509285D01*
X152357401Y-58473000D01*
X152284830Y-58436714D01*
X152139687Y-58436714D01*
X152067116Y-58473000D01*
X151413973Y-58908428D02*
X151486544Y-58944714D01*
X151631687Y-58944714D01*
X151704258Y-58908428D01*
X151740544Y-58835857D01*
X151740544Y-58545571D01*
X151704258Y-58473000D01*
X151631687Y-58436714D01*
X151486544Y-58436714D01*
X151413973Y-58473000D01*
X151377687Y-58545571D01*
X151377687Y-58618142D01*
X151740544Y-58690714D01*
X151051116Y-58944714D02*
X151051116Y-58436714D01*
X151051116Y-58581857D02*
X151014830Y-58509285D01*
X150978544Y-58473000D01*
X150905973Y-58436714D01*
X150833401Y-58436714D01*
X150615687Y-58908428D02*
X150543116Y-58944714D01*
X150397973Y-58944714D01*
X150325401Y-58908428D01*
X150289116Y-58835857D01*
X150289116Y-58799571D01*
X150325401Y-58727000D01*
X150397973Y-58690714D01*
X150506830Y-58690714D01*
X150579401Y-58654428D01*
X150615687Y-58581857D01*
X150615687Y-58545571D01*
X150579401Y-58473000D01*
X150506830Y-58436714D01*
X150397973Y-58436714D01*
X150325401Y-58473000D01*
D13*
%TO.C,U1*%
X165089000Y-143020000D02*
X165089000Y-141070000D01*
X165089000Y-143020000D02*
X165089000Y-144970000D01*
X170209000Y-143020000D02*
X170209000Y-141070000D01*
X170209000Y-143020000D02*
X170209000Y-146470000D01*
%TO.C,C12*%
X152039580Y-118110000D02*
X151758420Y-118110000D01*
X152039580Y-117090000D02*
X151758420Y-117090000D01*
%TO.C,C11*%
X156339580Y-118160000D02*
X156058420Y-118160000D01*
X156339580Y-117140000D02*
X156058420Y-117140000D01*
%TO.C,C34*%
X143984000Y-62238748D02*
X143984000Y-62761252D01*
X142514000Y-62238748D02*
X142514000Y-62761252D01*
%TO.C,C16*%
X173105250Y-157191250D02*
X173105250Y-156403750D01*
X172711500Y-156797500D02*
X173499000Y-156797500D01*
X173739000Y-152604437D02*
X174803437Y-151540000D01*
X173739000Y-157295563D02*
X174803437Y-158360000D01*
X173739000Y-157295563D02*
X173739000Y-156010000D01*
X173739000Y-152604437D02*
X173739000Y-153890000D01*
X174803437Y-151540000D02*
X180559000Y-151540000D01*
X174803437Y-158360000D02*
X180559000Y-158360000D01*
X180559000Y-158360000D02*
X180559000Y-156010000D01*
X180559000Y-151540000D02*
X180559000Y-153890000D01*
%TO.C,JP11*%
X134299000Y-148900000D02*
X131499000Y-148900000D01*
X131499000Y-148900000D02*
X131499000Y-150900000D01*
X131499000Y-150900000D02*
X134299000Y-150900000D01*
X134299000Y-150900000D02*
X134299000Y-148900000D01*
D14*
%TO.C,POGO1*%
X162177000Y-65548000D02*
X162177000Y-59452000D01*
X145921000Y-65548000D02*
X162177000Y-65548000D01*
X145921000Y-59452000D02*
X145921000Y-65548000D01*
X162177000Y-59452000D02*
X145921000Y-59452000D01*
X154049000Y-59198000D02*
X154049000Y-65802000D01*
X146429000Y-63770000D02*
X145413000Y-63770000D01*
X146429000Y-61230000D02*
X145413000Y-61230000D01*
X161669000Y-63770000D02*
X162685000Y-63770000D01*
X161669000Y-61230000D02*
X162685000Y-61230000D01*
X161669000Y-65040000D02*
X161669000Y-59960000D01*
X146429000Y-65040000D02*
X161669000Y-65040000D01*
X146429000Y-59960000D02*
X146429000Y-65040000D01*
X161669000Y-59960000D02*
X146429000Y-59960000D01*
D13*
%TO.C,JP10*%
X174699000Y-130500000D02*
X177499000Y-130500000D01*
X177499000Y-130500000D02*
X177499000Y-128500000D01*
X177499000Y-128500000D02*
X174699000Y-128500000D01*
X174699000Y-128500000D02*
X174699000Y-130500000D01*
%TO.C,JP9*%
X135899000Y-150500000D02*
X135899000Y-153300000D01*
X135899000Y-153300000D02*
X137899000Y-153300000D01*
X137899000Y-153300000D02*
X137899000Y-150500000D01*
X137899000Y-150500000D02*
X135899000Y-150500000D01*
%TO.C,D1*%
X129204000Y-124960000D02*
X129204000Y-127245000D01*
X129204000Y-127245000D02*
X127734000Y-127245000D01*
X127734000Y-127245000D02*
X127734000Y-124960000D01*
D14*
%TO.C,SW3*%
X150239000Y-49570000D02*
X157859000Y-49570000D01*
X157859000Y-49570000D02*
X157859000Y-43290000D01*
X157859000Y-43290000D02*
X150239000Y-43290000D01*
X150239000Y-43290000D02*
X150239000Y-49570000D01*
X152779000Y-43290000D02*
X152779000Y-42020000D01*
X152779000Y-42020000D02*
X155319000Y-42020000D01*
X155319000Y-42020000D02*
X155319000Y-43290000D01*
X155319000Y-43290000D02*
X152779000Y-43290000D01*
D13*
%TO.C,LED4*%
X136214000Y-159385000D02*
X136214000Y-157100000D01*
X137684000Y-159385000D02*
X136214000Y-159385000D01*
X137684000Y-157100000D02*
X137684000Y-159385000D01*
%TO.C,LED3*%
X155534000Y-51235000D02*
X153249000Y-51235000D01*
X155534000Y-49765000D02*
X155534000Y-51235000D01*
X153249000Y-49765000D02*
X155534000Y-49765000D01*
%TO.C,LED2*%
X182874000Y-44565000D02*
X182874000Y-46850000D01*
X181404000Y-44565000D02*
X182874000Y-44565000D01*
X181404000Y-46850000D02*
X181404000Y-44565000D01*
%TO.C,LED1*%
X126724000Y-44545000D02*
X126724000Y-46830000D01*
X125254000Y-44545000D02*
X126724000Y-44545000D01*
X125254000Y-46830000D02*
X125254000Y-44545000D01*
D11*
%TO.C,U5*%
X154036300Y-137764000D02*
X153655300Y-137764000D01*
X154036300Y-138018000D02*
X154036300Y-137764000D01*
X153655300Y-138018000D02*
X154036300Y-138018000D01*
X153655300Y-137764000D02*
X153655300Y-138018000D01*
X158113000Y-135719300D02*
X158367000Y-135719300D01*
X158113000Y-135338300D02*
X158113000Y-135719300D01*
X158367000Y-135338300D02*
X158113000Y-135338300D01*
X158367000Y-135719300D02*
X158367000Y-135338300D01*
X158113000Y-131655300D02*
X158367000Y-131655300D01*
X158113000Y-131274300D02*
X158113000Y-131655300D01*
X158367000Y-131274300D02*
X158113000Y-131274300D01*
X158367000Y-131655300D02*
X158367000Y-131274300D01*
X153629900Y-129636000D02*
X153248900Y-129636000D01*
X153629900Y-129382000D02*
X153629900Y-129636000D01*
X153248900Y-129382000D02*
X153629900Y-129382000D01*
X153248900Y-129636000D02*
X153248900Y-129382000D01*
X149985000Y-132874500D02*
X149731000Y-132874500D01*
X149985000Y-132493500D02*
X149985000Y-132874500D01*
X149731000Y-132493500D02*
X149985000Y-132493500D01*
X149731000Y-132874500D02*
X149731000Y-132493500D01*
X150985760Y-137332200D02*
X150416800Y-137332200D01*
X157681200Y-136763240D02*
X157681200Y-137332200D01*
X157112240Y-130067800D02*
X157681200Y-130067800D01*
X150416800Y-130636760D02*
X150416800Y-130067800D01*
X150416800Y-137332200D02*
X150416800Y-136763240D01*
X157681200Y-137332200D02*
X157112240Y-137332200D01*
X157681200Y-130067800D02*
X157681200Y-130636760D01*
X150416800Y-130067800D02*
X150985760Y-130067800D01*
D13*
%TO.C,J7*%
X129929000Y-128030000D02*
X129929000Y-122830000D01*
X132529000Y-128030000D02*
X129929000Y-128030000D01*
X135129000Y-122830000D02*
X129929000Y-122830000D01*
X132529000Y-128030000D02*
X132529000Y-125430000D01*
X132529000Y-125430000D02*
X135129000Y-125430000D01*
X135129000Y-125430000D02*
X135129000Y-122830000D01*
X133799000Y-128030000D02*
X135129000Y-128030000D01*
X135129000Y-128030000D02*
X135129000Y-126700000D01*
%TO.C,U2*%
X143419000Y-154120000D02*
X144919000Y-154120000D01*
X141919000Y-150900000D02*
X144919000Y-150900000D01*
%TO.C,U6*%
X140534000Y-141275000D02*
X140534000Y-139600000D01*
X140274000Y-141275000D02*
X140534000Y-141275000D01*
X140274000Y-144000000D02*
X140274000Y-141275000D01*
X140274000Y-146725000D02*
X140534000Y-146725000D01*
X140274000Y-144000000D02*
X140274000Y-146725000D01*
X145724000Y-141275000D02*
X145464000Y-141275000D01*
X145724000Y-144000000D02*
X145724000Y-141275000D01*
X145724000Y-146725000D02*
X145464000Y-146725000D01*
X145724000Y-144000000D02*
X145724000Y-146725000D01*
%TO.C,JP8*%
X173499000Y-114800000D02*
X173499000Y-115400000D01*
X175599000Y-114100000D02*
X174199000Y-114100000D01*
X176299000Y-115400000D02*
X176299000Y-114800000D01*
X174199000Y-116100000D02*
X175599000Y-116100000D01*
X173499000Y-115400000D02*
G75*
G03*
X174199000Y-116100000I700000J0D01*
G01*
X174199000Y-114100000D02*
G75*
G03*
X173499000Y-114800000I0J-700000D01*
G01*
X176299000Y-114800000D02*
G75*
G03*
X175599000Y-114100000I-700000J0D01*
G01*
X175599000Y-116100000D02*
G75*
G03*
X176299000Y-115400000I0J700000D01*
G01*
%TO.C,JP7*%
X161999000Y-114800000D02*
X161999000Y-115400000D01*
X164099000Y-114100000D02*
X162699000Y-114100000D01*
X164799000Y-115400000D02*
X164799000Y-114800000D01*
X162699000Y-116100000D02*
X164099000Y-116100000D01*
X161999000Y-115400000D02*
G75*
G03*
X162699000Y-116100000I700000J0D01*
G01*
X162699000Y-114100000D02*
G75*
G03*
X161999000Y-114800000I0J-700000D01*
G01*
X164799000Y-114800000D02*
G75*
G03*
X164099000Y-114100000I-700000J0D01*
G01*
X164099000Y-116100000D02*
G75*
G03*
X164799000Y-115400000I0J700000D01*
G01*
%TO.C,JP6*%
X164949000Y-146400000D02*
X164949000Y-143600000D01*
X164949000Y-143600000D02*
X162949000Y-143600000D01*
X162949000Y-143600000D02*
X162949000Y-146400000D01*
X162949000Y-146400000D02*
X164949000Y-146400000D01*
%TO.C,R13*%
X161271936Y-105965000D02*
X161726064Y-105965000D01*
X161271936Y-107435000D02*
X161726064Y-107435000D01*
%TO.C,R12*%
X165826064Y-107435000D02*
X165371936Y-107435000D01*
X165826064Y-105965000D02*
X165371936Y-105965000D01*
%TO.C,R20*%
X175264000Y-99827064D02*
X175264000Y-99372936D01*
X176734000Y-99827064D02*
X176734000Y-99372936D01*
%TO.C,R19*%
X172571936Y-105965000D02*
X173026064Y-105965000D01*
X172571936Y-107435000D02*
X173026064Y-107435000D01*
%TO.C,R18*%
X177226064Y-107485000D02*
X176771936Y-107485000D01*
X177226064Y-106015000D02*
X176771936Y-106015000D01*
%TO.C,R17*%
X173026064Y-103435000D02*
X172571936Y-103435000D01*
X173026064Y-101965000D02*
X172571936Y-101965000D01*
%TO.C,R11*%
X161726064Y-103435000D02*
X161271936Y-103435000D01*
X161726064Y-101965000D02*
X161271936Y-101965000D01*
%TO.C,R10*%
X165371936Y-101965000D02*
X165826064Y-101965000D01*
X165371936Y-103435000D02*
X165826064Y-103435000D01*
%TO.C,R9*%
X163334000Y-99827064D02*
X163334000Y-99372936D01*
X161864000Y-99827064D02*
X161864000Y-99372936D01*
%TO.C,R8*%
X173064000Y-99827064D02*
X173064000Y-99372936D01*
X174534000Y-99827064D02*
X174534000Y-99372936D01*
%TO.C,R5*%
X165334000Y-99847064D02*
X165334000Y-99392936D01*
X163864000Y-99847064D02*
X163864000Y-99392936D01*
%TO.C,R4*%
X176771936Y-102015000D02*
X177226064Y-102015000D01*
X176771936Y-103485000D02*
X177226064Y-103485000D01*
%TO.C,C32*%
X171064000Y-114911252D02*
X171064000Y-114388748D01*
X172534000Y-114911252D02*
X172534000Y-114388748D01*
%TO.C,C18*%
X165864000Y-114911252D02*
X165864000Y-114388748D01*
X167334000Y-114911252D02*
X167334000Y-114388748D01*
%TO.C,C17*%
X161237748Y-103965000D02*
X161760252Y-103965000D01*
X161237748Y-105435000D02*
X161760252Y-105435000D01*
%TO.C,C13*%
X165860252Y-105435000D02*
X165337748Y-105435000D01*
X165860252Y-103965000D02*
X165337748Y-103965000D01*
%TO.C,C8*%
X172537748Y-103965000D02*
X173060252Y-103965000D01*
X172537748Y-105435000D02*
X173060252Y-105435000D01*
%TO.C,C7*%
X177260252Y-105485000D02*
X176737748Y-105485000D01*
X177260252Y-104015000D02*
X176737748Y-104015000D01*
%TO.C,C3*%
X167734000Y-137488748D02*
X167734000Y-138011252D01*
X166264000Y-137488748D02*
X166264000Y-138011252D01*
%TO.C,C1*%
X166287748Y-148065000D02*
X166810252Y-148065000D01*
X166287748Y-149535000D02*
X166810252Y-149535000D01*
D10*
%TO.C,Y1*%
X148349000Y-118900000D02*
X159749000Y-118900000D01*
X148349000Y-123600000D02*
X159749000Y-123600000D01*
D13*
%TO.C,U7*%
X176575400Y-109822100D02*
X176575400Y-111777900D01*
X173222600Y-111777900D02*
X173222600Y-109822100D01*
%TO.C,U4*%
X165225400Y-109852100D02*
X165225400Y-111807900D01*
X161872600Y-111807900D02*
X161872600Y-109852100D01*
D14*
%TO.C,SW2*%
X187399000Y-89888094D02*
X187399000Y-87348094D01*
X188669000Y-89888094D02*
X187399000Y-89888094D01*
X188669000Y-87348094D02*
X188669000Y-89888094D01*
X187399000Y-87348094D02*
X188669000Y-87348094D01*
X187399000Y-84808094D02*
X181119000Y-84808094D01*
X187399000Y-92428094D02*
X187399000Y-84808094D01*
X181119000Y-92428094D02*
X187399000Y-92428094D01*
X181119000Y-84808094D02*
X181119000Y-92428094D01*
%TO.C,SW1*%
X120599000Y-87230000D02*
X120599000Y-89770000D01*
X119329000Y-87230000D02*
X120599000Y-87230000D01*
X119329000Y-89770000D02*
X119329000Y-87230000D01*
X120599000Y-89770000D02*
X119329000Y-89770000D01*
X120599000Y-92310000D02*
X126879000Y-92310000D01*
X120599000Y-84690000D02*
X120599000Y-92310000D01*
X126879000Y-84690000D02*
X120599000Y-84690000D01*
X126879000Y-92310000D02*
X126879000Y-84690000D01*
D13*
%TO.C,R16*%
X138576064Y-141085000D02*
X138121936Y-141085000D01*
X138576064Y-139615000D02*
X138121936Y-139615000D01*
%TO.C,R15*%
X166321936Y-154115000D02*
X166776064Y-154115000D01*
X166321936Y-155585000D02*
X166776064Y-155585000D01*
%TO.C,R14*%
X153821936Y-124115000D02*
X154276064Y-124115000D01*
X153821936Y-125585000D02*
X154276064Y-125585000D01*
%TO.C,L1*%
X138439000Y-152899622D02*
X138439000Y-152100378D01*
X139559000Y-152899622D02*
X139559000Y-152100378D01*
%TO.C,JP5*%
X172799000Y-111300000D02*
X172799000Y-109900000D01*
X172099000Y-109200000D02*
X171499000Y-109200000D01*
X170799000Y-109900000D02*
X170799000Y-111300000D01*
X171499000Y-112000000D02*
X172099000Y-112000000D01*
X172099000Y-112000000D02*
G75*
G03*
X172799000Y-111300000I0J700000D01*
G01*
X170799000Y-111300000D02*
G75*
G03*
X171499000Y-112000000I700000J0D01*
G01*
X171499000Y-109200000D02*
G75*
G03*
X170799000Y-109900000I0J-700000D01*
G01*
X172799000Y-109900000D02*
G75*
G03*
X172099000Y-109200000I-700000J0D01*
G01*
%TO.C,JP4*%
X179399000Y-111200000D02*
X179399000Y-109800000D01*
X178699000Y-109100000D02*
X178099000Y-109100000D01*
X177399000Y-109800000D02*
X177399000Y-111200000D01*
X178099000Y-111900000D02*
X178699000Y-111900000D01*
X178699000Y-111900000D02*
G75*
G03*
X179399000Y-111200000I0J700000D01*
G01*
X177399000Y-111200000D02*
G75*
G03*
X178099000Y-111900000I700000J0D01*
G01*
X178099000Y-109100000D02*
G75*
G03*
X177399000Y-109800000I0J-700000D01*
G01*
X179399000Y-109800000D02*
G75*
G03*
X178699000Y-109100000I-700000J0D01*
G01*
%TO.C,JP3*%
X159299000Y-109900000D02*
X159299000Y-111300000D01*
X159999000Y-112000000D02*
X160599000Y-112000000D01*
X161299000Y-111300000D02*
X161299000Y-109900000D01*
X160599000Y-109200000D02*
X159999000Y-109200000D01*
X159999000Y-109200000D02*
G75*
G03*
X159299000Y-109900000I0J-700000D01*
G01*
X161299000Y-109900000D02*
G75*
G03*
X160599000Y-109200000I-700000J0D01*
G01*
X160599000Y-112000000D02*
G75*
G03*
X161299000Y-111300000I0J700000D01*
G01*
X159299000Y-111300000D02*
G75*
G03*
X159999000Y-112000000I700000J0D01*
G01*
%TO.C,JP2*%
X165699000Y-109900000D02*
X165699000Y-111300000D01*
X166399000Y-112000000D02*
X166999000Y-112000000D01*
X167699000Y-111300000D02*
X167699000Y-109900000D01*
X166999000Y-109200000D02*
X166399000Y-109200000D01*
X166399000Y-109200000D02*
G75*
G03*
X165699000Y-109900000I0J-700000D01*
G01*
X167699000Y-109900000D02*
G75*
G03*
X166999000Y-109200000I-700000J0D01*
G01*
X166999000Y-112000000D02*
G75*
G03*
X167699000Y-111300000I0J700000D01*
G01*
X165699000Y-111300000D02*
G75*
G03*
X166399000Y-112000000I700000J0D01*
G01*
%TO.C,JP1*%
X164119000Y-156720000D02*
X164119000Y-158050000D01*
X165449000Y-156720000D02*
X164119000Y-156720000D01*
X166719000Y-156720000D02*
X166719000Y-159380000D01*
X166719000Y-159380000D02*
X169319000Y-159380000D01*
X166719000Y-156720000D02*
X169319000Y-156720000D01*
X169319000Y-156720000D02*
X169319000Y-159380000D01*
%TO.C,D3*%
X149184000Y-148315000D02*
X149184000Y-150600000D01*
X147714000Y-148315000D02*
X149184000Y-148315000D01*
X147714000Y-150600000D02*
X147714000Y-148315000D01*
%TO.C,C33*%
X172534000Y-99338748D02*
X172534000Y-99861252D01*
X171064000Y-99338748D02*
X171064000Y-99861252D01*
%TO.C,C31*%
X161724000Y-140028748D02*
X161724000Y-140551252D01*
X160254000Y-140028748D02*
X160254000Y-140551252D01*
%TO.C,C30*%
X156084000Y-140541252D02*
X156084000Y-140018748D01*
X157554000Y-140541252D02*
X157554000Y-140018748D01*
%TO.C,C29*%
X150534000Y-141938748D02*
X150534000Y-142461252D01*
X149064000Y-141938748D02*
X149064000Y-142461252D01*
%TO.C,C28*%
X158144000Y-140551252D02*
X158144000Y-140028748D01*
X159614000Y-140551252D02*
X159614000Y-140028748D01*
%TO.C,C27*%
X152584000Y-141938748D02*
X152584000Y-142461252D01*
X151114000Y-141938748D02*
X151114000Y-142461252D01*
%TO.C,C26*%
X154634000Y-141938748D02*
X154634000Y-142461252D01*
X153164000Y-141938748D02*
X153164000Y-142461252D01*
%TO.C,C25*%
X161137748Y-135365000D02*
X161660252Y-135365000D01*
X161137748Y-136835000D02*
X161660252Y-136835000D01*
%TO.C,C24*%
X161127748Y-131965000D02*
X161650252Y-131965000D01*
X161127748Y-133435000D02*
X161650252Y-133435000D01*
%TO.C,C23*%
X138660252Y-146985000D02*
X138137748Y-146985000D01*
X138660252Y-145515000D02*
X138137748Y-145515000D01*
%TO.C,C22*%
X157387748Y-126865000D02*
X157910252Y-126865000D01*
X157387748Y-128335000D02*
X157910252Y-128335000D01*
%TO.C,C21*%
X157387748Y-124815000D02*
X157910252Y-124815000D01*
X157387748Y-126285000D02*
X157910252Y-126285000D01*
%TO.C,C20*%
X146210252Y-133835000D02*
X145687748Y-133835000D01*
X146210252Y-132365000D02*
X145687748Y-132365000D01*
%TO.C,C19*%
X146260252Y-137835000D02*
X145737748Y-137835000D01*
X146260252Y-136365000D02*
X145737748Y-136365000D01*
%TO.C,C14*%
X178734000Y-99338748D02*
X178734000Y-99861252D01*
X177264000Y-99338748D02*
X177264000Y-99861252D01*
%TO.C,C10*%
X165864000Y-99338748D02*
X165864000Y-99861252D01*
X167334000Y-99338748D02*
X167334000Y-99861252D01*
%TO.C,C9*%
X146224000Y-155928748D02*
X146224000Y-156451252D01*
X144754000Y-155928748D02*
X144754000Y-156451252D01*
%TO.C,C6*%
X159864000Y-99338748D02*
X159864000Y-99861252D01*
X161334000Y-99338748D02*
X161334000Y-99861252D01*
%TO.C,C5*%
X140110252Y-150435000D02*
X139587748Y-150435000D01*
X140110252Y-148965000D02*
X139587748Y-148965000D01*
%TO.C,C15*%
X127619000Y-158410000D02*
X127619000Y-156060000D01*
X127619000Y-151590000D02*
X127619000Y-153940000D01*
X133374563Y-151590000D02*
X127619000Y-151590000D01*
X133374563Y-158410000D02*
X127619000Y-158410000D01*
X134439000Y-157345563D02*
X134439000Y-156060000D01*
X134439000Y-152654437D02*
X134439000Y-153940000D01*
X134439000Y-152654437D02*
X133374563Y-151590000D01*
X134439000Y-157345563D02*
X133374563Y-158410000D01*
X135466500Y-153152500D02*
X134679000Y-153152500D01*
X135072750Y-152758750D02*
X135072750Y-153546250D01*
D10*
%TO.C,J1*%
X124600000Y-48100000D02*
X127100000Y-48100000D01*
X124600000Y-53100000D02*
X124600000Y-48100000D01*
X127100000Y-53100000D02*
X124600000Y-53100000D01*
X140500000Y-47600000D02*
X141600000Y-47600000D01*
D15*
X126400000Y-47300000D02*
G75*
G03*
X126400000Y-47300000I-100000J0D01*
G01*
D10*
X130800000Y-47600000D02*
X137300000Y-47600000D01*
X127100000Y-47600000D02*
X128200000Y-47600000D01*
X141600000Y-53600000D02*
X141600000Y-47600000D01*
X132800000Y-53600000D02*
X141600000Y-53600000D01*
X127100000Y-53600000D02*
X130200000Y-53600000D01*
X127100000Y-53100000D02*
X127100000Y-53600000D01*
X127100000Y-48100000D02*
X127100000Y-53100000D01*
X127100000Y-47600000D02*
X127100000Y-48100000D01*
D13*
%TO.C,D2*%
X135684000Y-126480000D02*
X135684000Y-124195000D01*
X135684000Y-124195000D02*
X137154000Y-124195000D01*
X137154000Y-124195000D02*
X137154000Y-126480000D01*
D16*
%TO.C,U3*%
G36*
X155954800Y-95730563D02*
G01*
X155954800Y-95349563D01*
X155700800Y-95349563D01*
X155700800Y-95730563D01*
X155954800Y-95730563D01*
G37*
X155954800Y-95730563D02*
X155954800Y-95349563D01*
X155700800Y-95349563D01*
X155700800Y-95730563D01*
X155954800Y-95730563D01*
D13*
X153104693Y-96712400D02*
X152322600Y-96712400D01*
X155675400Y-96434370D02*
X155675400Y-96712400D01*
X154893307Y-93867600D02*
X155675400Y-93867600D01*
X152322600Y-94145630D02*
X152322600Y-93867600D01*
X152322600Y-96712400D02*
X152322600Y-96434370D01*
X155675400Y-96712400D02*
X154893307Y-96712400D01*
X155675400Y-93867600D02*
X155675400Y-94145630D01*
X152322600Y-93867600D02*
X153104693Y-93867600D01*
D15*
%TO.C,J5*%
X158829000Y-159760000D02*
X158829000Y-161040000D01*
X158829000Y-161040000D02*
X149249000Y-161040000D01*
X149249000Y-161040000D02*
X149249000Y-159760000D01*
X158829000Y-155790000D02*
X158829000Y-157040000D01*
X149249000Y-155790000D02*
X149249000Y-157040000D01*
D13*
%TO.C,R7*%
X153784000Y-149947064D02*
X153784000Y-149492936D01*
X152314000Y-149947064D02*
X152314000Y-149492936D01*
%TO.C,R3*%
X154314000Y-149492936D02*
X154314000Y-149947064D01*
X155784000Y-149492936D02*
X155784000Y-149947064D01*
%TO.C,R2*%
X149824000Y-149492936D02*
X149824000Y-149947064D01*
X151294000Y-149492936D02*
X151294000Y-149947064D01*
%TO.C,R1*%
X158254000Y-149947064D02*
X158254000Y-149492936D01*
X156784000Y-149947064D02*
X156784000Y-149492936D01*
%TO.C,J6*%
X175019000Y-135860000D02*
X175019000Y-123040000D01*
X175019000Y-123040000D02*
X177679000Y-123040000D01*
X177679000Y-123040000D02*
X177679000Y-135860000D01*
X177679000Y-135860000D02*
X175019000Y-135860000D01*
X177679000Y-134910000D02*
X183679000Y-134910000D01*
X183679000Y-134910000D02*
X183679000Y-134150000D01*
X183679000Y-134150000D02*
X177679000Y-134150000D01*
X177679000Y-134850000D02*
X183679000Y-134850000D01*
X177679000Y-134730000D02*
X183679000Y-134730000D01*
X177679000Y-134610000D02*
X183679000Y-134610000D01*
X177679000Y-134490000D02*
X183679000Y-134490000D01*
X177679000Y-134370000D02*
X183679000Y-134370000D01*
X177679000Y-134250000D02*
X183679000Y-134250000D01*
X174621929Y-134910000D02*
X175019000Y-134910000D01*
X174621929Y-134150000D02*
X175019000Y-134150000D01*
X172149000Y-134910000D02*
X172536071Y-134910000D01*
X172149000Y-134150000D02*
X172536071Y-134150000D01*
X175019000Y-133260000D02*
X177679000Y-133260000D01*
X177679000Y-132370000D02*
X183679000Y-132370000D01*
X183679000Y-132370000D02*
X183679000Y-131610000D01*
X183679000Y-131610000D02*
X177679000Y-131610000D01*
X174621929Y-132370000D02*
X175019000Y-132370000D01*
X174621929Y-131610000D02*
X175019000Y-131610000D01*
X172081929Y-132370000D02*
X172536071Y-132370000D01*
X172081929Y-131610000D02*
X172536071Y-131610000D01*
X175019000Y-130720000D02*
X177679000Y-130720000D01*
X177679000Y-129830000D02*
X183679000Y-129830000D01*
X183679000Y-129830000D02*
X183679000Y-129070000D01*
X183679000Y-129070000D02*
X177679000Y-129070000D01*
X174621929Y-129830000D02*
X175019000Y-129830000D01*
X174621929Y-129070000D02*
X175019000Y-129070000D01*
X172081929Y-129830000D02*
X172536071Y-129830000D01*
X172081929Y-129070000D02*
X172536071Y-129070000D01*
X175019000Y-128180000D02*
X177679000Y-128180000D01*
X177679000Y-127290000D02*
X183679000Y-127290000D01*
X183679000Y-127290000D02*
X183679000Y-126530000D01*
X183679000Y-126530000D02*
X177679000Y-126530000D01*
X174621929Y-127290000D02*
X175019000Y-127290000D01*
X174621929Y-126530000D02*
X175019000Y-126530000D01*
X172081929Y-127290000D02*
X172536071Y-127290000D01*
X172081929Y-126530000D02*
X172536071Y-126530000D01*
X175019000Y-125640000D02*
X177679000Y-125640000D01*
X177679000Y-124750000D02*
X183679000Y-124750000D01*
X183679000Y-124750000D02*
X183679000Y-123990000D01*
X183679000Y-123990000D02*
X177679000Y-123990000D01*
X174621929Y-124750000D02*
X175019000Y-124750000D01*
X174621929Y-123990000D02*
X175019000Y-123990000D01*
X172081929Y-124750000D02*
X172536071Y-124750000D01*
X172081929Y-123990000D02*
X172536071Y-123990000D01*
X169769000Y-134530000D02*
X169769000Y-135800000D01*
X169769000Y-135800000D02*
X171039000Y-135800000D01*
%TO.C,C4*%
X156664000Y-95288748D02*
X156664000Y-95811252D01*
X158134000Y-95288748D02*
X158134000Y-95811252D01*
%TO.C,C2*%
X149914000Y-95238748D02*
X149914000Y-95761252D01*
X151384000Y-95238748D02*
X151384000Y-95761252D01*
D10*
%TO.C,J2*%
X183500000Y-53100000D02*
X181000000Y-53100000D01*
X183500000Y-48100000D02*
X183500000Y-53100000D01*
X181000000Y-48100000D02*
X183500000Y-48100000D01*
X167600000Y-53600000D02*
X166500000Y-53600000D01*
D15*
X181900000Y-53900000D02*
G75*
G03*
X181900000Y-53900000I-100000J0D01*
G01*
D10*
X177300000Y-53600000D02*
X170800000Y-53600000D01*
X181000000Y-53600000D02*
X179900000Y-53600000D01*
X166500000Y-47600000D02*
X166500000Y-53600000D01*
X175300000Y-47600000D02*
X166500000Y-47600000D01*
X181000000Y-47600000D02*
X177900000Y-47600000D01*
X181000000Y-48100000D02*
X181000000Y-47600000D01*
X181000000Y-53100000D02*
X181000000Y-48100000D01*
X181000000Y-53600000D02*
X181000000Y-53100000D01*
D13*
%TO.C,R6*%
X144614116Y-62254842D02*
X144614116Y-62708970D01*
X146084116Y-62254842D02*
X146084116Y-62708970D01*
%TO.C,U1*%
D14*
X170501380Y-142258095D02*
X171310904Y-142258095D01*
X171406142Y-142305714D01*
X171453761Y-142353333D01*
X171501380Y-142448571D01*
X171501380Y-142639047D01*
X171453761Y-142734285D01*
X171406142Y-142781904D01*
X171310904Y-142829523D01*
X170501380Y-142829523D01*
X171501380Y-143829523D02*
X171501380Y-143258095D01*
X171501380Y-143543809D02*
X170501380Y-143543809D01*
X170644238Y-143448571D01*
X170739476Y-143353333D01*
X170787095Y-143258095D01*
%TO.C,C12*%
X152541857Y-116527142D02*
X152589476Y-116574761D01*
X152732333Y-116622380D01*
X152827571Y-116622380D01*
X152970428Y-116574761D01*
X153065666Y-116479523D01*
X153113285Y-116384285D01*
X153160904Y-116193809D01*
X153160904Y-116050952D01*
X153113285Y-115860476D01*
X153065666Y-115765238D01*
X152970428Y-115670000D01*
X152827571Y-115622380D01*
X152732333Y-115622380D01*
X152589476Y-115670000D01*
X152541857Y-115717619D01*
X151589476Y-116622380D02*
X152160904Y-116622380D01*
X151875190Y-116622380D02*
X151875190Y-115622380D01*
X151970428Y-115765238D01*
X152065666Y-115860476D01*
X152160904Y-115908095D01*
X151208523Y-115717619D02*
X151160904Y-115670000D01*
X151065666Y-115622380D01*
X150827571Y-115622380D01*
X150732333Y-115670000D01*
X150684714Y-115717619D01*
X150637095Y-115812857D01*
X150637095Y-115908095D01*
X150684714Y-116050952D01*
X151256142Y-116622380D01*
X150637095Y-116622380D01*
%TO.C,C11*%
X156841857Y-116577142D02*
X156889476Y-116624761D01*
X157032333Y-116672380D01*
X157127571Y-116672380D01*
X157270428Y-116624761D01*
X157365666Y-116529523D01*
X157413285Y-116434285D01*
X157460904Y-116243809D01*
X157460904Y-116100952D01*
X157413285Y-115910476D01*
X157365666Y-115815238D01*
X157270428Y-115720000D01*
X157127571Y-115672380D01*
X157032333Y-115672380D01*
X156889476Y-115720000D01*
X156841857Y-115767619D01*
X155889476Y-116672380D02*
X156460904Y-116672380D01*
X156175190Y-116672380D02*
X156175190Y-115672380D01*
X156270428Y-115815238D01*
X156365666Y-115910476D01*
X156460904Y-115958095D01*
X154937095Y-116672380D02*
X155508523Y-116672380D01*
X155222809Y-116672380D02*
X155222809Y-115672380D01*
X155318047Y-115815238D01*
X155413285Y-115910476D01*
X155508523Y-115958095D01*
%TO.C,C34*%
X141926142Y-61857142D02*
X141973761Y-61809523D01*
X142021380Y-61666666D01*
X142021380Y-61571428D01*
X141973761Y-61428571D01*
X141878523Y-61333333D01*
X141783285Y-61285714D01*
X141592809Y-61238095D01*
X141449952Y-61238095D01*
X141259476Y-61285714D01*
X141164238Y-61333333D01*
X141069000Y-61428571D01*
X141021380Y-61571428D01*
X141021380Y-61666666D01*
X141069000Y-61809523D01*
X141116619Y-61857142D01*
X141021380Y-62190476D02*
X141021380Y-62809523D01*
X141402333Y-62476190D01*
X141402333Y-62619047D01*
X141449952Y-62714285D01*
X141497571Y-62761904D01*
X141592809Y-62809523D01*
X141830904Y-62809523D01*
X141926142Y-62761904D01*
X141973761Y-62714285D01*
X142021380Y-62619047D01*
X142021380Y-62333333D01*
X141973761Y-62238095D01*
X141926142Y-62190476D01*
X141354714Y-63666666D02*
X142021380Y-63666666D01*
X140973761Y-63428571D02*
X141688047Y-63190476D01*
X141688047Y-63809523D01*
%TO.C,C16*%
X177791857Y-159657142D02*
X177839476Y-159704761D01*
X177982333Y-159752380D01*
X178077571Y-159752380D01*
X178220428Y-159704761D01*
X178315666Y-159609523D01*
X178363285Y-159514285D01*
X178410904Y-159323809D01*
X178410904Y-159180952D01*
X178363285Y-158990476D01*
X178315666Y-158895238D01*
X178220428Y-158800000D01*
X178077571Y-158752380D01*
X177982333Y-158752380D01*
X177839476Y-158800000D01*
X177791857Y-158847619D01*
X176839476Y-159752380D02*
X177410904Y-159752380D01*
X177125190Y-159752380D02*
X177125190Y-158752380D01*
X177220428Y-158895238D01*
X177315666Y-158990476D01*
X177410904Y-159038095D01*
X175982333Y-158752380D02*
X176172809Y-158752380D01*
X176268047Y-158800000D01*
X176315666Y-158847619D01*
X176410904Y-158990476D01*
X176458523Y-159180952D01*
X176458523Y-159561904D01*
X176410904Y-159657142D01*
X176363285Y-159704761D01*
X176268047Y-159752380D01*
X176077571Y-159752380D01*
X175982333Y-159704761D01*
X175934714Y-159657142D01*
X175887095Y-159561904D01*
X175887095Y-159323809D01*
X175934714Y-159228571D01*
X175982333Y-159180952D01*
X176077571Y-159133333D01*
X176268047Y-159133333D01*
X176363285Y-159180952D01*
X176410904Y-159228571D01*
X176458523Y-159323809D01*
%TO.C,JP11*%
X134208523Y-147552380D02*
X134208523Y-148266666D01*
X134256142Y-148409523D01*
X134351380Y-148504761D01*
X134494238Y-148552380D01*
X134589476Y-148552380D01*
X133732333Y-148552380D02*
X133732333Y-147552380D01*
X133351380Y-147552380D01*
X133256142Y-147600000D01*
X133208523Y-147647619D01*
X133160904Y-147742857D01*
X133160904Y-147885714D01*
X133208523Y-147980952D01*
X133256142Y-148028571D01*
X133351380Y-148076190D01*
X133732333Y-148076190D01*
X132208523Y-148552380D02*
X132779952Y-148552380D01*
X132494238Y-148552380D02*
X132494238Y-147552380D01*
X132589476Y-147695238D01*
X132684714Y-147790476D01*
X132779952Y-147838095D01*
X131256142Y-148552380D02*
X131827571Y-148552380D01*
X131541857Y-148552380D02*
X131541857Y-147552380D01*
X131637095Y-147695238D01*
X131732333Y-147790476D01*
X131827571Y-147838095D01*
%TO.C,JP10*%
X177408523Y-130752380D02*
X177408523Y-131466666D01*
X177456142Y-131609523D01*
X177551380Y-131704761D01*
X177694238Y-131752380D01*
X177789476Y-131752380D01*
X176932333Y-131752380D02*
X176932333Y-130752380D01*
X176551380Y-130752380D01*
X176456142Y-130800000D01*
X176408523Y-130847619D01*
X176360904Y-130942857D01*
X176360904Y-131085714D01*
X176408523Y-131180952D01*
X176456142Y-131228571D01*
X176551380Y-131276190D01*
X176932333Y-131276190D01*
X175408523Y-131752380D02*
X175979952Y-131752380D01*
X175694238Y-131752380D02*
X175694238Y-130752380D01*
X175789476Y-130895238D01*
X175884714Y-130990476D01*
X175979952Y-131038095D01*
X174789476Y-130752380D02*
X174694238Y-130752380D01*
X174599000Y-130800000D01*
X174551380Y-130847619D01*
X174503761Y-130942857D01*
X174456142Y-131133333D01*
X174456142Y-131371428D01*
X174503761Y-131561904D01*
X174551380Y-131657142D01*
X174599000Y-131704761D01*
X174694238Y-131752380D01*
X174789476Y-131752380D01*
X174884714Y-131704761D01*
X174932333Y-131657142D01*
X174979952Y-131561904D01*
X175027571Y-131371428D01*
X175027571Y-131133333D01*
X174979952Y-130942857D01*
X174932333Y-130847619D01*
X174884714Y-130800000D01*
X174789476Y-130752380D01*
%TO.C,JP9*%
X134551380Y-151066666D02*
X135265666Y-151066666D01*
X135408523Y-151019047D01*
X135503761Y-150923809D01*
X135551380Y-150780952D01*
X135551380Y-150685714D01*
X135551380Y-151542857D02*
X134551380Y-151542857D01*
X134551380Y-151923809D01*
X134599000Y-152019047D01*
X134646619Y-152066666D01*
X134741857Y-152114285D01*
X134884714Y-152114285D01*
X134979952Y-152066666D01*
X135027571Y-152019047D01*
X135075190Y-151923809D01*
X135075190Y-151542857D01*
X135551380Y-152590476D02*
X135551380Y-152780952D01*
X135503761Y-152876190D01*
X135456142Y-152923809D01*
X135313285Y-153019047D01*
X135122809Y-153066666D01*
X134741857Y-153066666D01*
X134646619Y-153019047D01*
X134599000Y-152971428D01*
X134551380Y-152876190D01*
X134551380Y-152685714D01*
X134599000Y-152590476D01*
X134646619Y-152542857D01*
X134741857Y-152495238D01*
X134979952Y-152495238D01*
X135075190Y-152542857D01*
X135122809Y-152590476D01*
X135170428Y-152685714D01*
X135170428Y-152876190D01*
X135122809Y-152971428D01*
X135075190Y-153019047D01*
X134979952Y-153066666D01*
%TO.C,D1*%
X130351380Y-125021904D02*
X129351380Y-125021904D01*
X129351380Y-125260000D01*
X129399000Y-125402857D01*
X129494238Y-125498095D01*
X129589476Y-125545714D01*
X129779952Y-125593333D01*
X129922809Y-125593333D01*
X130113285Y-125545714D01*
X130208523Y-125498095D01*
X130303761Y-125402857D01*
X130351380Y-125260000D01*
X130351380Y-125021904D01*
X130351380Y-126545714D02*
X130351380Y-125974285D01*
X130351380Y-126260000D02*
X129351380Y-126260000D01*
X129494238Y-126164761D01*
X129589476Y-126069523D01*
X129637095Y-125974285D01*
%TO.C,SW3*%
X155382333Y-41084761D02*
X155239476Y-41132380D01*
X155001380Y-41132380D01*
X154906142Y-41084761D01*
X154858523Y-41037142D01*
X154810904Y-40941904D01*
X154810904Y-40846666D01*
X154858523Y-40751428D01*
X154906142Y-40703809D01*
X155001380Y-40656190D01*
X155191857Y-40608571D01*
X155287095Y-40560952D01*
X155334714Y-40513333D01*
X155382333Y-40418095D01*
X155382333Y-40322857D01*
X155334714Y-40227619D01*
X155287095Y-40180000D01*
X155191857Y-40132380D01*
X154953761Y-40132380D01*
X154810904Y-40180000D01*
X154477571Y-40132380D02*
X154239476Y-41132380D01*
X154049000Y-40418095D01*
X153858523Y-41132380D01*
X153620428Y-40132380D01*
X153334714Y-40132380D02*
X152715666Y-40132380D01*
X153049000Y-40513333D01*
X152906142Y-40513333D01*
X152810904Y-40560952D01*
X152763285Y-40608571D01*
X152715666Y-40703809D01*
X152715666Y-40941904D01*
X152763285Y-41037142D01*
X152810904Y-41084761D01*
X152906142Y-41132380D01*
X153191857Y-41132380D01*
X153287095Y-41084761D01*
X153334714Y-41037142D01*
D17*
X148949000Y-45986190D02*
X148949000Y-45486190D01*
X148758523Y-45486190D01*
X148710904Y-45510000D01*
X148687095Y-45533809D01*
X148663285Y-45581428D01*
X148663285Y-45652857D01*
X148687095Y-45700476D01*
X148710904Y-45724285D01*
X148758523Y-45748095D01*
X148949000Y-45748095D01*
X148353761Y-45486190D02*
X148258523Y-45486190D01*
X148210904Y-45510000D01*
X148163285Y-45557619D01*
X148139476Y-45652857D01*
X148139476Y-45819523D01*
X148163285Y-45914761D01*
X148210904Y-45962380D01*
X148258523Y-45986190D01*
X148353761Y-45986190D01*
X148401380Y-45962380D01*
X148449000Y-45914761D01*
X148472809Y-45819523D01*
X148472809Y-45652857D01*
X148449000Y-45557619D01*
X148401380Y-45510000D01*
X148353761Y-45486190D01*
X147687095Y-45986190D02*
X147925190Y-45986190D01*
X147925190Y-45486190D01*
X147520428Y-45724285D02*
X147353761Y-45724285D01*
X147282333Y-45986190D02*
X147520428Y-45986190D01*
X147520428Y-45486190D01*
X147282333Y-45486190D01*
X146425190Y-45986190D02*
X146710904Y-45986190D01*
X146568047Y-45986190D02*
X146568047Y-45486190D01*
X146615666Y-45557619D01*
X146663285Y-45605238D01*
X146710904Y-45629047D01*
X161649000Y-45986190D02*
X161649000Y-45486190D01*
X161458523Y-45486190D01*
X161410904Y-45510000D01*
X161387095Y-45533809D01*
X161363285Y-45581428D01*
X161363285Y-45652857D01*
X161387095Y-45700476D01*
X161410904Y-45724285D01*
X161458523Y-45748095D01*
X161649000Y-45748095D01*
X161053761Y-45486190D02*
X160958523Y-45486190D01*
X160910904Y-45510000D01*
X160863285Y-45557619D01*
X160839476Y-45652857D01*
X160839476Y-45819523D01*
X160863285Y-45914761D01*
X160910904Y-45962380D01*
X160958523Y-45986190D01*
X161053761Y-45986190D01*
X161101380Y-45962380D01*
X161149000Y-45914761D01*
X161172809Y-45819523D01*
X161172809Y-45652857D01*
X161149000Y-45557619D01*
X161101380Y-45510000D01*
X161053761Y-45486190D01*
X160387095Y-45986190D02*
X160625190Y-45986190D01*
X160625190Y-45486190D01*
X160220428Y-45724285D02*
X160053761Y-45724285D01*
X159982333Y-45986190D02*
X160220428Y-45986190D01*
X160220428Y-45486190D01*
X159982333Y-45486190D01*
X159410904Y-45533809D02*
X159387095Y-45510000D01*
X159339476Y-45486190D01*
X159220428Y-45486190D01*
X159172809Y-45510000D01*
X159149000Y-45533809D01*
X159125190Y-45581428D01*
X159125190Y-45629047D01*
X159149000Y-45700476D01*
X159434714Y-45986190D01*
X159125190Y-45986190D01*
X148318047Y-48526190D02*
X148318047Y-48026190D01*
X148151380Y-48383333D01*
X147984714Y-48026190D01*
X147984714Y-48526190D01*
X147746619Y-48526190D02*
X147746619Y-48026190D01*
X147460904Y-48526190D01*
X147460904Y-48026190D01*
X147294238Y-48026190D02*
X147008523Y-48026190D01*
X147151380Y-48526190D02*
X147151380Y-48026190D01*
X161018047Y-48526190D02*
X161018047Y-48026190D01*
X160851380Y-48383333D01*
X160684714Y-48026190D01*
X160684714Y-48526190D01*
X160446619Y-48526190D02*
X160446619Y-48026190D01*
X160160904Y-48526190D01*
X160160904Y-48026190D01*
X159994238Y-48026190D02*
X159708523Y-48026190D01*
X159851380Y-48526190D02*
X159851380Y-48026190D01*
%TO.C,LED4*%
D14*
X138468047Y-156002380D02*
X138944238Y-156002380D01*
X138944238Y-155002380D01*
X138134714Y-155478571D02*
X137801380Y-155478571D01*
X137658523Y-156002380D02*
X138134714Y-156002380D01*
X138134714Y-155002380D01*
X137658523Y-155002380D01*
X137229952Y-156002380D02*
X137229952Y-155002380D01*
X136991857Y-155002380D01*
X136849000Y-155050000D01*
X136753761Y-155145238D01*
X136706142Y-155240476D01*
X136658523Y-155430952D01*
X136658523Y-155573809D01*
X136706142Y-155764285D01*
X136753761Y-155859523D01*
X136849000Y-155954761D01*
X136991857Y-156002380D01*
X137229952Y-156002380D01*
X135801380Y-155335714D02*
X135801380Y-156002380D01*
X136039476Y-154954761D02*
X136277571Y-155669047D01*
X135658523Y-155669047D01*
%TO.C,LED2*%
X182541380Y-48600952D02*
X182541380Y-48124761D01*
X181541380Y-48124761D01*
X182017571Y-48934285D02*
X182017571Y-49267619D01*
X182541380Y-49410476D02*
X182541380Y-48934285D01*
X181541380Y-48934285D01*
X181541380Y-49410476D01*
X182541380Y-49839047D02*
X181541380Y-49839047D01*
X181541380Y-50077142D01*
X181589000Y-50220000D01*
X181684238Y-50315238D01*
X181779476Y-50362857D01*
X181969952Y-50410476D01*
X182112809Y-50410476D01*
X182303285Y-50362857D01*
X182398523Y-50315238D01*
X182493761Y-50220000D01*
X182541380Y-50077142D01*
X182541380Y-49839047D01*
X181636619Y-50791428D02*
X181589000Y-50839047D01*
X181541380Y-50934285D01*
X181541380Y-51172380D01*
X181589000Y-51267619D01*
X181636619Y-51315238D01*
X181731857Y-51362857D01*
X181827095Y-51362857D01*
X181969952Y-51315238D01*
X182541380Y-50743809D01*
X182541380Y-51362857D01*
%TO.C,LED1*%
X126531380Y-48680952D02*
X126531380Y-48204761D01*
X125531380Y-48204761D01*
X126007571Y-49014285D02*
X126007571Y-49347619D01*
X126531380Y-49490476D02*
X126531380Y-49014285D01*
X125531380Y-49014285D01*
X125531380Y-49490476D01*
X126531380Y-49919047D02*
X125531380Y-49919047D01*
X125531380Y-50157142D01*
X125579000Y-50300000D01*
X125674238Y-50395238D01*
X125769476Y-50442857D01*
X125959952Y-50490476D01*
X126102809Y-50490476D01*
X126293285Y-50442857D01*
X126388523Y-50395238D01*
X126483761Y-50300000D01*
X126531380Y-50157142D01*
X126531380Y-49919047D01*
X126531380Y-51442857D02*
X126531380Y-50871428D01*
X126531380Y-51157142D02*
X125531380Y-51157142D01*
X125674238Y-51061904D01*
X125769476Y-50966666D01*
X125817095Y-50871428D01*
%TO.C,U5*%
X154810904Y-133152380D02*
X154810904Y-133961904D01*
X154763285Y-134057142D01*
X154715666Y-134104761D01*
X154620428Y-134152380D01*
X154429952Y-134152380D01*
X154334714Y-134104761D01*
X154287095Y-134057142D01*
X154239476Y-133961904D01*
X154239476Y-133152380D01*
X153287095Y-133152380D02*
X153763285Y-133152380D01*
X153810904Y-133628571D01*
X153763285Y-133580952D01*
X153668047Y-133533333D01*
X153429952Y-133533333D01*
X153334714Y-133580952D01*
X153287095Y-133628571D01*
X153239476Y-133723809D01*
X153239476Y-133961904D01*
X153287095Y-134057142D01*
X153334714Y-134104761D01*
X153429952Y-134152380D01*
X153668047Y-134152380D01*
X153763285Y-134104761D01*
X153810904Y-134057142D01*
X149399000Y-136252380D02*
X149399000Y-136490476D01*
X149637095Y-136395238D02*
X149399000Y-136490476D01*
X149160904Y-136395238D01*
X149541857Y-136680952D02*
X149399000Y-136490476D01*
X149256142Y-136680952D01*
X149399000Y-136252380D02*
X149399000Y-136490476D01*
X149637095Y-136395238D02*
X149399000Y-136490476D01*
X149160904Y-136395238D01*
X149541857Y-136680952D02*
X149399000Y-136490476D01*
X149256142Y-136680952D01*
%TO.C,U2*%
X147360904Y-152102380D02*
X147360904Y-152911904D01*
X147313285Y-153007142D01*
X147265666Y-153054761D01*
X147170428Y-153102380D01*
X146979952Y-153102380D01*
X146884714Y-153054761D01*
X146837095Y-153007142D01*
X146789476Y-152911904D01*
X146789476Y-152102380D01*
X146360904Y-152197619D02*
X146313285Y-152150000D01*
X146218047Y-152102380D01*
X145979952Y-152102380D01*
X145884714Y-152150000D01*
X145837095Y-152197619D01*
X145789476Y-152292857D01*
X145789476Y-152388095D01*
X145837095Y-152530952D01*
X146408523Y-153102380D01*
X145789476Y-153102380D01*
D10*
X140999000Y-153332714D02*
X140999000Y-153514142D01*
X141180428Y-153441571D02*
X140999000Y-153514142D01*
X140817571Y-153441571D01*
X141107857Y-153659285D02*
X140999000Y-153514142D01*
X140890142Y-153659285D01*
%TO.C,U6*%
D14*
X142451380Y-143288095D02*
X143260904Y-143288095D01*
X143356142Y-143335714D01*
X143403761Y-143383333D01*
X143451380Y-143478571D01*
X143451380Y-143669047D01*
X143403761Y-143764285D01*
X143356142Y-143811904D01*
X143260904Y-143859523D01*
X142451380Y-143859523D01*
X142451380Y-144764285D02*
X142451380Y-144573809D01*
X142499000Y-144478571D01*
X142546619Y-144430952D01*
X142689476Y-144335714D01*
X142879952Y-144288095D01*
X143260904Y-144288095D01*
X143356142Y-144335714D01*
X143403761Y-144383333D01*
X143451380Y-144478571D01*
X143451380Y-144669047D01*
X143403761Y-144764285D01*
X143356142Y-144811904D01*
X143260904Y-144859523D01*
X143022809Y-144859523D01*
X142927571Y-144811904D01*
X142879952Y-144764285D01*
X142832333Y-144669047D01*
X142832333Y-144478571D01*
X142879952Y-144383333D01*
X142927571Y-144335714D01*
X143022809Y-144288095D01*
D10*
X140631714Y-138850000D02*
X140813142Y-138850000D01*
X140740571Y-138668571D02*
X140813142Y-138850000D01*
X140740571Y-139031428D01*
X140958285Y-138741142D02*
X140813142Y-138850000D01*
X140958285Y-138958857D01*
%TO.C,SW4*%
D14*
X143182333Y-155854761D02*
X143039476Y-155902380D01*
X142801380Y-155902380D01*
X142706142Y-155854761D01*
X142658523Y-155807142D01*
X142610904Y-155711904D01*
X142610904Y-155616666D01*
X142658523Y-155521428D01*
X142706142Y-155473809D01*
X142801380Y-155426190D01*
X142991857Y-155378571D01*
X143087095Y-155330952D01*
X143134714Y-155283333D01*
X143182333Y-155188095D01*
X143182333Y-155092857D01*
X143134714Y-154997619D01*
X143087095Y-154950000D01*
X142991857Y-154902380D01*
X142753761Y-154902380D01*
X142610904Y-154950000D01*
X142277571Y-154902380D02*
X142039476Y-155902380D01*
X141849000Y-155188095D01*
X141658523Y-155902380D01*
X141420428Y-154902380D01*
X140610904Y-155235714D02*
X140610904Y-155902380D01*
X140849000Y-154854761D02*
X141087095Y-155569047D01*
X140468047Y-155569047D01*
%TO.C,JP8*%
X175532333Y-116352380D02*
X175532333Y-117066666D01*
X175579952Y-117209523D01*
X175675190Y-117304761D01*
X175818047Y-117352380D01*
X175913285Y-117352380D01*
X175056142Y-117352380D02*
X175056142Y-116352380D01*
X174675190Y-116352380D01*
X174579952Y-116400000D01*
X174532333Y-116447619D01*
X174484714Y-116542857D01*
X174484714Y-116685714D01*
X174532333Y-116780952D01*
X174579952Y-116828571D01*
X174675190Y-116876190D01*
X175056142Y-116876190D01*
X173913285Y-116780952D02*
X174008523Y-116733333D01*
X174056142Y-116685714D01*
X174103761Y-116590476D01*
X174103761Y-116542857D01*
X174056142Y-116447619D01*
X174008523Y-116400000D01*
X173913285Y-116352380D01*
X173722809Y-116352380D01*
X173627571Y-116400000D01*
X173579952Y-116447619D01*
X173532333Y-116542857D01*
X173532333Y-116590476D01*
X173579952Y-116685714D01*
X173627571Y-116733333D01*
X173722809Y-116780952D01*
X173913285Y-116780952D01*
X174008523Y-116828571D01*
X174056142Y-116876190D01*
X174103761Y-116971428D01*
X174103761Y-117161904D01*
X174056142Y-117257142D01*
X174008523Y-117304761D01*
X173913285Y-117352380D01*
X173722809Y-117352380D01*
X173627571Y-117304761D01*
X173579952Y-117257142D01*
X173532333Y-117161904D01*
X173532333Y-116971428D01*
X173579952Y-116876190D01*
X173627571Y-116828571D01*
X173722809Y-116780952D01*
%TO.C,JP7*%
X164232333Y-116352380D02*
X164232333Y-117066666D01*
X164279952Y-117209523D01*
X164375190Y-117304761D01*
X164518047Y-117352380D01*
X164613285Y-117352380D01*
X163756142Y-117352380D02*
X163756142Y-116352380D01*
X163375190Y-116352380D01*
X163279952Y-116400000D01*
X163232333Y-116447619D01*
X163184714Y-116542857D01*
X163184714Y-116685714D01*
X163232333Y-116780952D01*
X163279952Y-116828571D01*
X163375190Y-116876190D01*
X163756142Y-116876190D01*
X162851380Y-116352380D02*
X162184714Y-116352380D01*
X162613285Y-117352380D01*
%TO.C,JP6*%
X161501380Y-144166666D02*
X162215666Y-144166666D01*
X162358523Y-144119047D01*
X162453761Y-144023809D01*
X162501380Y-143880952D01*
X162501380Y-143785714D01*
X162501380Y-144642857D02*
X161501380Y-144642857D01*
X161501380Y-145023809D01*
X161549000Y-145119047D01*
X161596619Y-145166666D01*
X161691857Y-145214285D01*
X161834714Y-145214285D01*
X161929952Y-145166666D01*
X161977571Y-145119047D01*
X162025190Y-145023809D01*
X162025190Y-144642857D01*
X161501380Y-146071428D02*
X161501380Y-145880952D01*
X161549000Y-145785714D01*
X161596619Y-145738095D01*
X161739476Y-145642857D01*
X161929952Y-145595238D01*
X162310904Y-145595238D01*
X162406142Y-145642857D01*
X162453761Y-145690476D01*
X162501380Y-145785714D01*
X162501380Y-145976190D01*
X162453761Y-146071428D01*
X162406142Y-146119047D01*
X162310904Y-146166666D01*
X162072809Y-146166666D01*
X161977571Y-146119047D01*
X161929952Y-146071428D01*
X161882333Y-145976190D01*
X161882333Y-145785714D01*
X161929952Y-145690476D01*
X161977571Y-145642857D01*
X162072809Y-145595238D01*
%TO.C,R13*%
X159091857Y-107252380D02*
X159425190Y-106776190D01*
X159663285Y-107252380D02*
X159663285Y-106252380D01*
X159282333Y-106252380D01*
X159187095Y-106300000D01*
X159139476Y-106347619D01*
X159091857Y-106442857D01*
X159091857Y-106585714D01*
X159139476Y-106680952D01*
X159187095Y-106728571D01*
X159282333Y-106776190D01*
X159663285Y-106776190D01*
X158139476Y-107252380D02*
X158710904Y-107252380D01*
X158425190Y-107252380D02*
X158425190Y-106252380D01*
X158520428Y-106395238D01*
X158615666Y-106490476D01*
X158710904Y-106538095D01*
X157806142Y-106252380D02*
X157187095Y-106252380D01*
X157520428Y-106633333D01*
X157377571Y-106633333D01*
X157282333Y-106680952D01*
X157234714Y-106728571D01*
X157187095Y-106823809D01*
X157187095Y-107061904D01*
X157234714Y-107157142D01*
X157282333Y-107204761D01*
X157377571Y-107252380D01*
X157663285Y-107252380D01*
X157758523Y-107204761D01*
X157806142Y-107157142D01*
%TO.C,R12*%
X168991857Y-106852380D02*
X169325190Y-106376190D01*
X169563285Y-106852380D02*
X169563285Y-105852380D01*
X169182333Y-105852380D01*
X169087095Y-105900000D01*
X169039476Y-105947619D01*
X168991857Y-106042857D01*
X168991857Y-106185714D01*
X169039476Y-106280952D01*
X169087095Y-106328571D01*
X169182333Y-106376190D01*
X169563285Y-106376190D01*
X168039476Y-106852380D02*
X168610904Y-106852380D01*
X168325190Y-106852380D02*
X168325190Y-105852380D01*
X168420428Y-105995238D01*
X168515666Y-106090476D01*
X168610904Y-106138095D01*
X167658523Y-105947619D02*
X167610904Y-105900000D01*
X167515666Y-105852380D01*
X167277571Y-105852380D01*
X167182333Y-105900000D01*
X167134714Y-105947619D01*
X167087095Y-106042857D01*
X167087095Y-106138095D01*
X167134714Y-106280952D01*
X167706142Y-106852380D01*
X167087095Y-106852380D01*
%TO.C,R20*%
X176501380Y-95907142D02*
X176025190Y-95573809D01*
X176501380Y-95335714D02*
X175501380Y-95335714D01*
X175501380Y-95716666D01*
X175549000Y-95811904D01*
X175596619Y-95859523D01*
X175691857Y-95907142D01*
X175834714Y-95907142D01*
X175929952Y-95859523D01*
X175977571Y-95811904D01*
X176025190Y-95716666D01*
X176025190Y-95335714D01*
X175596619Y-96288095D02*
X175549000Y-96335714D01*
X175501380Y-96430952D01*
X175501380Y-96669047D01*
X175549000Y-96764285D01*
X175596619Y-96811904D01*
X175691857Y-96859523D01*
X175787095Y-96859523D01*
X175929952Y-96811904D01*
X176501380Y-96240476D01*
X176501380Y-96859523D01*
X175501380Y-97478571D02*
X175501380Y-97573809D01*
X175549000Y-97669047D01*
X175596619Y-97716666D01*
X175691857Y-97764285D01*
X175882333Y-97811904D01*
X176120428Y-97811904D01*
X176310904Y-97764285D01*
X176406142Y-97716666D01*
X176453761Y-97669047D01*
X176501380Y-97573809D01*
X176501380Y-97478571D01*
X176453761Y-97383333D01*
X176406142Y-97335714D01*
X176310904Y-97288095D01*
X176120428Y-97240476D01*
X175882333Y-97240476D01*
X175691857Y-97288095D01*
X175596619Y-97335714D01*
X175549000Y-97383333D01*
X175501380Y-97478571D01*
%TO.C,R19*%
X170391857Y-107952380D02*
X170725190Y-107476190D01*
X170963285Y-107952380D02*
X170963285Y-106952380D01*
X170582333Y-106952380D01*
X170487095Y-107000000D01*
X170439476Y-107047619D01*
X170391857Y-107142857D01*
X170391857Y-107285714D01*
X170439476Y-107380952D01*
X170487095Y-107428571D01*
X170582333Y-107476190D01*
X170963285Y-107476190D01*
X169439476Y-107952380D02*
X170010904Y-107952380D01*
X169725190Y-107952380D02*
X169725190Y-106952380D01*
X169820428Y-107095238D01*
X169915666Y-107190476D01*
X170010904Y-107238095D01*
X168963285Y-107952380D02*
X168772809Y-107952380D01*
X168677571Y-107904761D01*
X168629952Y-107857142D01*
X168534714Y-107714285D01*
X168487095Y-107523809D01*
X168487095Y-107142857D01*
X168534714Y-107047619D01*
X168582333Y-107000000D01*
X168677571Y-106952380D01*
X168868047Y-106952380D01*
X168963285Y-107000000D01*
X169010904Y-107047619D01*
X169058523Y-107142857D01*
X169058523Y-107380952D01*
X169010904Y-107476190D01*
X168963285Y-107523809D01*
X168868047Y-107571428D01*
X168677571Y-107571428D01*
X168582333Y-107523809D01*
X168534714Y-107476190D01*
X168487095Y-107380952D01*
%TO.C,R18*%
X180691857Y-107252380D02*
X181025190Y-106776190D01*
X181263285Y-107252380D02*
X181263285Y-106252380D01*
X180882333Y-106252380D01*
X180787095Y-106300000D01*
X180739476Y-106347619D01*
X180691857Y-106442857D01*
X180691857Y-106585714D01*
X180739476Y-106680952D01*
X180787095Y-106728571D01*
X180882333Y-106776190D01*
X181263285Y-106776190D01*
X179739476Y-107252380D02*
X180310904Y-107252380D01*
X180025190Y-107252380D02*
X180025190Y-106252380D01*
X180120428Y-106395238D01*
X180215666Y-106490476D01*
X180310904Y-106538095D01*
X179168047Y-106680952D02*
X179263285Y-106633333D01*
X179310904Y-106585714D01*
X179358523Y-106490476D01*
X179358523Y-106442857D01*
X179310904Y-106347619D01*
X179263285Y-106300000D01*
X179168047Y-106252380D01*
X178977571Y-106252380D01*
X178882333Y-106300000D01*
X178834714Y-106347619D01*
X178787095Y-106442857D01*
X178787095Y-106490476D01*
X178834714Y-106585714D01*
X178882333Y-106633333D01*
X178977571Y-106680952D01*
X179168047Y-106680952D01*
X179263285Y-106728571D01*
X179310904Y-106776190D01*
X179358523Y-106871428D01*
X179358523Y-107061904D01*
X179310904Y-107157142D01*
X179263285Y-107204761D01*
X179168047Y-107252380D01*
X178977571Y-107252380D01*
X178882333Y-107204761D01*
X178834714Y-107157142D01*
X178787095Y-107061904D01*
X178787095Y-106871428D01*
X178834714Y-106776190D01*
X178882333Y-106728571D01*
X178977571Y-106680952D01*
%TO.C,R17*%
X170391857Y-103702380D02*
X170725190Y-103226190D01*
X170963285Y-103702380D02*
X170963285Y-102702380D01*
X170582333Y-102702380D01*
X170487095Y-102750000D01*
X170439476Y-102797619D01*
X170391857Y-102892857D01*
X170391857Y-103035714D01*
X170439476Y-103130952D01*
X170487095Y-103178571D01*
X170582333Y-103226190D01*
X170963285Y-103226190D01*
X169439476Y-103702380D02*
X170010904Y-103702380D01*
X169725190Y-103702380D02*
X169725190Y-102702380D01*
X169820428Y-102845238D01*
X169915666Y-102940476D01*
X170010904Y-102988095D01*
X169106142Y-102702380D02*
X168439476Y-102702380D01*
X168868047Y-103702380D01*
%TO.C,R11*%
X159091857Y-103202380D02*
X159425190Y-102726190D01*
X159663285Y-103202380D02*
X159663285Y-102202380D01*
X159282333Y-102202380D01*
X159187095Y-102250000D01*
X159139476Y-102297619D01*
X159091857Y-102392857D01*
X159091857Y-102535714D01*
X159139476Y-102630952D01*
X159187095Y-102678571D01*
X159282333Y-102726190D01*
X159663285Y-102726190D01*
X158139476Y-103202380D02*
X158710904Y-103202380D01*
X158425190Y-103202380D02*
X158425190Y-102202380D01*
X158520428Y-102345238D01*
X158615666Y-102440476D01*
X158710904Y-102488095D01*
X157187095Y-103202380D02*
X157758523Y-103202380D01*
X157472809Y-103202380D02*
X157472809Y-102202380D01*
X157568047Y-102345238D01*
X157663285Y-102440476D01*
X157758523Y-102488095D01*
%TO.C,R10*%
X169191857Y-102552380D02*
X169525190Y-102076190D01*
X169763285Y-102552380D02*
X169763285Y-101552380D01*
X169382333Y-101552380D01*
X169287095Y-101600000D01*
X169239476Y-101647619D01*
X169191857Y-101742857D01*
X169191857Y-101885714D01*
X169239476Y-101980952D01*
X169287095Y-102028571D01*
X169382333Y-102076190D01*
X169763285Y-102076190D01*
X168239476Y-102552380D02*
X168810904Y-102552380D01*
X168525190Y-102552380D02*
X168525190Y-101552380D01*
X168620428Y-101695238D01*
X168715666Y-101790476D01*
X168810904Y-101838095D01*
X167620428Y-101552380D02*
X167525190Y-101552380D01*
X167429952Y-101600000D01*
X167382333Y-101647619D01*
X167334714Y-101742857D01*
X167287095Y-101933333D01*
X167287095Y-102171428D01*
X167334714Y-102361904D01*
X167382333Y-102457142D01*
X167429952Y-102504761D01*
X167525190Y-102552380D01*
X167620428Y-102552380D01*
X167715666Y-102504761D01*
X167763285Y-102457142D01*
X167810904Y-102361904D01*
X167858523Y-102171428D01*
X167858523Y-101933333D01*
X167810904Y-101742857D01*
X167763285Y-101647619D01*
X167715666Y-101600000D01*
X167620428Y-101552380D01*
%TO.C,R9*%
X163151380Y-96733333D02*
X162675190Y-96400000D01*
X163151380Y-96161904D02*
X162151380Y-96161904D01*
X162151380Y-96542857D01*
X162199000Y-96638095D01*
X162246619Y-96685714D01*
X162341857Y-96733333D01*
X162484714Y-96733333D01*
X162579952Y-96685714D01*
X162627571Y-96638095D01*
X162675190Y-96542857D01*
X162675190Y-96161904D01*
X163151380Y-97209523D02*
X163151380Y-97400000D01*
X163103761Y-97495238D01*
X163056142Y-97542857D01*
X162913285Y-97638095D01*
X162722809Y-97685714D01*
X162341857Y-97685714D01*
X162246619Y-97638095D01*
X162199000Y-97590476D01*
X162151380Y-97495238D01*
X162151380Y-97304761D01*
X162199000Y-97209523D01*
X162246619Y-97161904D01*
X162341857Y-97114285D01*
X162579952Y-97114285D01*
X162675190Y-97161904D01*
X162722809Y-97209523D01*
X162770428Y-97304761D01*
X162770428Y-97495238D01*
X162722809Y-97590476D01*
X162675190Y-97638095D01*
X162579952Y-97685714D01*
%TO.C,R8*%
X174251380Y-96733333D02*
X173775190Y-96400000D01*
X174251380Y-96161904D02*
X173251380Y-96161904D01*
X173251380Y-96542857D01*
X173299000Y-96638095D01*
X173346619Y-96685714D01*
X173441857Y-96733333D01*
X173584714Y-96733333D01*
X173679952Y-96685714D01*
X173727571Y-96638095D01*
X173775190Y-96542857D01*
X173775190Y-96161904D01*
X173679952Y-97304761D02*
X173632333Y-97209523D01*
X173584714Y-97161904D01*
X173489476Y-97114285D01*
X173441857Y-97114285D01*
X173346619Y-97161904D01*
X173299000Y-97209523D01*
X173251380Y-97304761D01*
X173251380Y-97495238D01*
X173299000Y-97590476D01*
X173346619Y-97638095D01*
X173441857Y-97685714D01*
X173489476Y-97685714D01*
X173584714Y-97638095D01*
X173632333Y-97590476D01*
X173679952Y-97495238D01*
X173679952Y-97304761D01*
X173727571Y-97209523D01*
X173775190Y-97161904D01*
X173870428Y-97114285D01*
X174060904Y-97114285D01*
X174156142Y-97161904D01*
X174203761Y-97209523D01*
X174251380Y-97304761D01*
X174251380Y-97495238D01*
X174203761Y-97590476D01*
X174156142Y-97638095D01*
X174060904Y-97685714D01*
X173870428Y-97685714D01*
X173775190Y-97638095D01*
X173727571Y-97590476D01*
X173679952Y-97495238D01*
%TO.C,R5*%
X165151380Y-96783333D02*
X164675190Y-96450000D01*
X165151380Y-96211904D02*
X164151380Y-96211904D01*
X164151380Y-96592857D01*
X164199000Y-96688095D01*
X164246619Y-96735714D01*
X164341857Y-96783333D01*
X164484714Y-96783333D01*
X164579952Y-96735714D01*
X164627571Y-96688095D01*
X164675190Y-96592857D01*
X164675190Y-96211904D01*
X164151380Y-97688095D02*
X164151380Y-97211904D01*
X164627571Y-97164285D01*
X164579952Y-97211904D01*
X164532333Y-97307142D01*
X164532333Y-97545238D01*
X164579952Y-97640476D01*
X164627571Y-97688095D01*
X164722809Y-97735714D01*
X164960904Y-97735714D01*
X165056142Y-97688095D01*
X165103761Y-97640476D01*
X165151380Y-97545238D01*
X165151380Y-97307142D01*
X165103761Y-97211904D01*
X165056142Y-97164285D01*
%TO.C,R4*%
X179815666Y-103302380D02*
X180149000Y-102826190D01*
X180387095Y-103302380D02*
X180387095Y-102302380D01*
X180006142Y-102302380D01*
X179910904Y-102350000D01*
X179863285Y-102397619D01*
X179815666Y-102492857D01*
X179815666Y-102635714D01*
X179863285Y-102730952D01*
X179910904Y-102778571D01*
X180006142Y-102826190D01*
X180387095Y-102826190D01*
X178958523Y-102635714D02*
X178958523Y-103302380D01*
X179196619Y-102254761D02*
X179434714Y-102969047D01*
X178815666Y-102969047D01*
%TO.C,C32*%
X172006142Y-117207142D02*
X172053761Y-117159523D01*
X172101380Y-117016666D01*
X172101380Y-116921428D01*
X172053761Y-116778571D01*
X171958523Y-116683333D01*
X171863285Y-116635714D01*
X171672809Y-116588095D01*
X171529952Y-116588095D01*
X171339476Y-116635714D01*
X171244238Y-116683333D01*
X171149000Y-116778571D01*
X171101380Y-116921428D01*
X171101380Y-117016666D01*
X171149000Y-117159523D01*
X171196619Y-117207142D01*
X171101380Y-117540476D02*
X171101380Y-118159523D01*
X171482333Y-117826190D01*
X171482333Y-117969047D01*
X171529952Y-118064285D01*
X171577571Y-118111904D01*
X171672809Y-118159523D01*
X171910904Y-118159523D01*
X172006142Y-118111904D01*
X172053761Y-118064285D01*
X172101380Y-117969047D01*
X172101380Y-117683333D01*
X172053761Y-117588095D01*
X172006142Y-117540476D01*
X171196619Y-118540476D02*
X171149000Y-118588095D01*
X171101380Y-118683333D01*
X171101380Y-118921428D01*
X171149000Y-119016666D01*
X171196619Y-119064285D01*
X171291857Y-119111904D01*
X171387095Y-119111904D01*
X171529952Y-119064285D01*
X172101380Y-118492857D01*
X172101380Y-119111904D01*
%TO.C,C18*%
X166956142Y-117307142D02*
X167003761Y-117259523D01*
X167051380Y-117116666D01*
X167051380Y-117021428D01*
X167003761Y-116878571D01*
X166908523Y-116783333D01*
X166813285Y-116735714D01*
X166622809Y-116688095D01*
X166479952Y-116688095D01*
X166289476Y-116735714D01*
X166194238Y-116783333D01*
X166099000Y-116878571D01*
X166051380Y-117021428D01*
X166051380Y-117116666D01*
X166099000Y-117259523D01*
X166146619Y-117307142D01*
X167051380Y-118259523D02*
X167051380Y-117688095D01*
X167051380Y-117973809D02*
X166051380Y-117973809D01*
X166194238Y-117878571D01*
X166289476Y-117783333D01*
X166337095Y-117688095D01*
X166479952Y-118830952D02*
X166432333Y-118735714D01*
X166384714Y-118688095D01*
X166289476Y-118640476D01*
X166241857Y-118640476D01*
X166146619Y-118688095D01*
X166099000Y-118735714D01*
X166051380Y-118830952D01*
X166051380Y-119021428D01*
X166099000Y-119116666D01*
X166146619Y-119164285D01*
X166241857Y-119211904D01*
X166289476Y-119211904D01*
X166384714Y-119164285D01*
X166432333Y-119116666D01*
X166479952Y-119021428D01*
X166479952Y-118830952D01*
X166527571Y-118735714D01*
X166575190Y-118688095D01*
X166670428Y-118640476D01*
X166860904Y-118640476D01*
X166956142Y-118688095D01*
X167003761Y-118735714D01*
X167051380Y-118830952D01*
X167051380Y-119021428D01*
X167003761Y-119116666D01*
X166956142Y-119164285D01*
X166860904Y-119211904D01*
X166670428Y-119211904D01*
X166575190Y-119164285D01*
X166527571Y-119116666D01*
X166479952Y-119021428D01*
%TO.C,C17*%
X159091857Y-105107142D02*
X159139476Y-105154761D01*
X159282333Y-105202380D01*
X159377571Y-105202380D01*
X159520428Y-105154761D01*
X159615666Y-105059523D01*
X159663285Y-104964285D01*
X159710904Y-104773809D01*
X159710904Y-104630952D01*
X159663285Y-104440476D01*
X159615666Y-104345238D01*
X159520428Y-104250000D01*
X159377571Y-104202380D01*
X159282333Y-104202380D01*
X159139476Y-104250000D01*
X159091857Y-104297619D01*
X158139476Y-105202380D02*
X158710904Y-105202380D01*
X158425190Y-105202380D02*
X158425190Y-104202380D01*
X158520428Y-104345238D01*
X158615666Y-104440476D01*
X158710904Y-104488095D01*
X157806142Y-104202380D02*
X157139476Y-104202380D01*
X157568047Y-105202380D01*
%TO.C,C13*%
X169191857Y-104707142D02*
X169239476Y-104754761D01*
X169382333Y-104802380D01*
X169477571Y-104802380D01*
X169620428Y-104754761D01*
X169715666Y-104659523D01*
X169763285Y-104564285D01*
X169810904Y-104373809D01*
X169810904Y-104230952D01*
X169763285Y-104040476D01*
X169715666Y-103945238D01*
X169620428Y-103850000D01*
X169477571Y-103802380D01*
X169382333Y-103802380D01*
X169239476Y-103850000D01*
X169191857Y-103897619D01*
X168239476Y-104802380D02*
X168810904Y-104802380D01*
X168525190Y-104802380D02*
X168525190Y-103802380D01*
X168620428Y-103945238D01*
X168715666Y-104040476D01*
X168810904Y-104088095D01*
X167906142Y-103802380D02*
X167287095Y-103802380D01*
X167620428Y-104183333D01*
X167477571Y-104183333D01*
X167382333Y-104230952D01*
X167334714Y-104278571D01*
X167287095Y-104373809D01*
X167287095Y-104611904D01*
X167334714Y-104707142D01*
X167382333Y-104754761D01*
X167477571Y-104802380D01*
X167763285Y-104802380D01*
X167858523Y-104754761D01*
X167906142Y-104707142D01*
%TO.C,C8*%
X170315666Y-105757142D02*
X170363285Y-105804761D01*
X170506142Y-105852380D01*
X170601380Y-105852380D01*
X170744238Y-105804761D01*
X170839476Y-105709523D01*
X170887095Y-105614285D01*
X170934714Y-105423809D01*
X170934714Y-105280952D01*
X170887095Y-105090476D01*
X170839476Y-104995238D01*
X170744238Y-104900000D01*
X170601380Y-104852380D01*
X170506142Y-104852380D01*
X170363285Y-104900000D01*
X170315666Y-104947619D01*
X169744238Y-105280952D02*
X169839476Y-105233333D01*
X169887095Y-105185714D01*
X169934714Y-105090476D01*
X169934714Y-105042857D01*
X169887095Y-104947619D01*
X169839476Y-104900000D01*
X169744238Y-104852380D01*
X169553761Y-104852380D01*
X169458523Y-104900000D01*
X169410904Y-104947619D01*
X169363285Y-105042857D01*
X169363285Y-105090476D01*
X169410904Y-105185714D01*
X169458523Y-105233333D01*
X169553761Y-105280952D01*
X169744238Y-105280952D01*
X169839476Y-105328571D01*
X169887095Y-105376190D01*
X169934714Y-105471428D01*
X169934714Y-105661904D01*
X169887095Y-105757142D01*
X169839476Y-105804761D01*
X169744238Y-105852380D01*
X169553761Y-105852380D01*
X169458523Y-105804761D01*
X169410904Y-105757142D01*
X169363285Y-105661904D01*
X169363285Y-105471428D01*
X169410904Y-105376190D01*
X169458523Y-105328571D01*
X169553761Y-105280952D01*
%TO.C,C7*%
X179865666Y-105207142D02*
X179913285Y-105254761D01*
X180056142Y-105302380D01*
X180151380Y-105302380D01*
X180294238Y-105254761D01*
X180389476Y-105159523D01*
X180437095Y-105064285D01*
X180484714Y-104873809D01*
X180484714Y-104730952D01*
X180437095Y-104540476D01*
X180389476Y-104445238D01*
X180294238Y-104350000D01*
X180151380Y-104302380D01*
X180056142Y-104302380D01*
X179913285Y-104350000D01*
X179865666Y-104397619D01*
X179532333Y-104302380D02*
X178865666Y-104302380D01*
X179294238Y-105302380D01*
%TO.C,C3*%
X165676142Y-137583333D02*
X165723761Y-137535714D01*
X165771380Y-137392857D01*
X165771380Y-137297619D01*
X165723761Y-137154761D01*
X165628523Y-137059523D01*
X165533285Y-137011904D01*
X165342809Y-136964285D01*
X165199952Y-136964285D01*
X165009476Y-137011904D01*
X164914238Y-137059523D01*
X164819000Y-137154761D01*
X164771380Y-137297619D01*
X164771380Y-137392857D01*
X164819000Y-137535714D01*
X164866619Y-137583333D01*
X164771380Y-137916666D02*
X164771380Y-138535714D01*
X165152333Y-138202380D01*
X165152333Y-138345238D01*
X165199952Y-138440476D01*
X165247571Y-138488095D01*
X165342809Y-138535714D01*
X165580904Y-138535714D01*
X165676142Y-138488095D01*
X165723761Y-138440476D01*
X165771380Y-138345238D01*
X165771380Y-138059523D01*
X165723761Y-137964285D01*
X165676142Y-137916666D01*
%TO.C,C1*%
X166715666Y-150837142D02*
X166763285Y-150884761D01*
X166906142Y-150932380D01*
X167001380Y-150932380D01*
X167144238Y-150884761D01*
X167239476Y-150789523D01*
X167287095Y-150694285D01*
X167334714Y-150503809D01*
X167334714Y-150360952D01*
X167287095Y-150170476D01*
X167239476Y-150075238D01*
X167144238Y-149980000D01*
X167001380Y-149932380D01*
X166906142Y-149932380D01*
X166763285Y-149980000D01*
X166715666Y-150027619D01*
X165763285Y-150932380D02*
X166334714Y-150932380D01*
X166049000Y-150932380D02*
X166049000Y-149932380D01*
X166144238Y-150075238D01*
X166239476Y-150170476D01*
X166334714Y-150218095D01*
%TO.C,Y1*%
X148585761Y-124491161D02*
X148585761Y-124795923D01*
X148799095Y-124155923D02*
X148585761Y-124491161D01*
X148372428Y-124155923D01*
X147823857Y-124795923D02*
X148189571Y-124795923D01*
X148006714Y-124795923D02*
X148006714Y-124155923D01*
X148067666Y-124247352D01*
X148128619Y-124308304D01*
X148189571Y-124338780D01*
%TO.C,U7*%
X174351380Y-110038095D02*
X175160904Y-110038095D01*
X175256142Y-110085714D01*
X175303761Y-110133333D01*
X175351380Y-110228571D01*
X175351380Y-110419047D01*
X175303761Y-110514285D01*
X175256142Y-110561904D01*
X175160904Y-110609523D01*
X174351380Y-110609523D01*
X174351380Y-110990476D02*
X174351380Y-111657142D01*
X175351380Y-111228571D01*
X175701380Y-113400000D02*
X175939476Y-113400000D01*
X175844238Y-113161904D02*
X175939476Y-113400000D01*
X175844238Y-113638095D01*
X176129952Y-113257142D02*
X175939476Y-113400000D01*
X176129952Y-113542857D01*
X175701380Y-113400000D02*
X175939476Y-113400000D01*
X175844238Y-113161904D02*
X175939476Y-113400000D01*
X175844238Y-113638095D01*
X176129952Y-113257142D02*
X175939476Y-113400000D01*
X176129952Y-113542857D01*
%TO.C,U4*%
X163001380Y-110068095D02*
X163810904Y-110068095D01*
X163906142Y-110115714D01*
X163953761Y-110163333D01*
X164001380Y-110258571D01*
X164001380Y-110449047D01*
X163953761Y-110544285D01*
X163906142Y-110591904D01*
X163810904Y-110639523D01*
X163001380Y-110639523D01*
X163334714Y-111544285D02*
X164001380Y-111544285D01*
X162953761Y-111306190D02*
X163668047Y-111068095D01*
X163668047Y-111687142D01*
X164351380Y-113350000D02*
X164589476Y-113350000D01*
X164494238Y-113111904D02*
X164589476Y-113350000D01*
X164494238Y-113588095D01*
X164779952Y-113207142D02*
X164589476Y-113350000D01*
X164779952Y-113492857D01*
%TO.C,SW2*%
X190413761Y-87284760D02*
X190461380Y-87427617D01*
X190461380Y-87665713D01*
X190413761Y-87760951D01*
X190366142Y-87808570D01*
X190270904Y-87856189D01*
X190175666Y-87856189D01*
X190080428Y-87808570D01*
X190032809Y-87760951D01*
X189985190Y-87665713D01*
X189937571Y-87475236D01*
X189889952Y-87379998D01*
X189842333Y-87332379D01*
X189747095Y-87284760D01*
X189651857Y-87284760D01*
X189556619Y-87332379D01*
X189509000Y-87379998D01*
X189461380Y-87475236D01*
X189461380Y-87713332D01*
X189509000Y-87856189D01*
X189461380Y-88189522D02*
X190461380Y-88427617D01*
X189747095Y-88618094D01*
X190461380Y-88808570D01*
X189461380Y-89046665D01*
X189556619Y-89379998D02*
X189509000Y-89427617D01*
X189461380Y-89522855D01*
X189461380Y-89760951D01*
X189509000Y-89856189D01*
X189556619Y-89903808D01*
X189651857Y-89951427D01*
X189747095Y-89951427D01*
X189889952Y-89903808D01*
X190461380Y-89332379D01*
X190461380Y-89951427D01*
%TO.C,SW1*%
X118393761Y-87166666D02*
X118441380Y-87309523D01*
X118441380Y-87547619D01*
X118393761Y-87642857D01*
X118346142Y-87690476D01*
X118250904Y-87738095D01*
X118155666Y-87738095D01*
X118060428Y-87690476D01*
X118012809Y-87642857D01*
X117965190Y-87547619D01*
X117917571Y-87357142D01*
X117869952Y-87261904D01*
X117822333Y-87214285D01*
X117727095Y-87166666D01*
X117631857Y-87166666D01*
X117536619Y-87214285D01*
X117489000Y-87261904D01*
X117441380Y-87357142D01*
X117441380Y-87595238D01*
X117489000Y-87738095D01*
X117441380Y-88071428D02*
X118441380Y-88309523D01*
X117727095Y-88500000D01*
X118441380Y-88690476D01*
X117441380Y-88928571D01*
X118441380Y-89833333D02*
X118441380Y-89261904D01*
X118441380Y-89547619D02*
X117441380Y-89547619D01*
X117584238Y-89452380D01*
X117679476Y-89357142D01*
X117727095Y-89261904D01*
%TO.C,R16*%
X135791857Y-140852380D02*
X136125190Y-140376190D01*
X136363285Y-140852380D02*
X136363285Y-139852380D01*
X135982333Y-139852380D01*
X135887095Y-139900000D01*
X135839476Y-139947619D01*
X135791857Y-140042857D01*
X135791857Y-140185714D01*
X135839476Y-140280952D01*
X135887095Y-140328571D01*
X135982333Y-140376190D01*
X136363285Y-140376190D01*
X134839476Y-140852380D02*
X135410904Y-140852380D01*
X135125190Y-140852380D02*
X135125190Y-139852380D01*
X135220428Y-139995238D01*
X135315666Y-140090476D01*
X135410904Y-140138095D01*
X133982333Y-139852380D02*
X134172809Y-139852380D01*
X134268047Y-139900000D01*
X134315666Y-139947619D01*
X134410904Y-140090476D01*
X134458523Y-140280952D01*
X134458523Y-140661904D01*
X134410904Y-140757142D01*
X134363285Y-140804761D01*
X134268047Y-140852380D01*
X134077571Y-140852380D01*
X133982333Y-140804761D01*
X133934714Y-140757142D01*
X133887095Y-140661904D01*
X133887095Y-140423809D01*
X133934714Y-140328571D01*
X133982333Y-140280952D01*
X134077571Y-140233333D01*
X134268047Y-140233333D01*
X134363285Y-140280952D01*
X134410904Y-140328571D01*
X134458523Y-140423809D01*
%TO.C,R15*%
X167341857Y-153602380D02*
X167675190Y-153126190D01*
X167913285Y-153602380D02*
X167913285Y-152602380D01*
X167532333Y-152602380D01*
X167437095Y-152650000D01*
X167389476Y-152697619D01*
X167341857Y-152792857D01*
X167341857Y-152935714D01*
X167389476Y-153030952D01*
X167437095Y-153078571D01*
X167532333Y-153126190D01*
X167913285Y-153126190D01*
X166389476Y-153602380D02*
X166960904Y-153602380D01*
X166675190Y-153602380D02*
X166675190Y-152602380D01*
X166770428Y-152745238D01*
X166865666Y-152840476D01*
X166960904Y-152888095D01*
X165484714Y-152602380D02*
X165960904Y-152602380D01*
X166008523Y-153078571D01*
X165960904Y-153030952D01*
X165865666Y-152983333D01*
X165627571Y-152983333D01*
X165532333Y-153030952D01*
X165484714Y-153078571D01*
X165437095Y-153173809D01*
X165437095Y-153411904D01*
X165484714Y-153507142D01*
X165532333Y-153554761D01*
X165627571Y-153602380D01*
X165865666Y-153602380D01*
X165960904Y-153554761D01*
X166008523Y-153507142D01*
%TO.C,R14*%
X151641857Y-125402380D02*
X151975190Y-124926190D01*
X152213285Y-125402380D02*
X152213285Y-124402380D01*
X151832333Y-124402380D01*
X151737095Y-124450000D01*
X151689476Y-124497619D01*
X151641857Y-124592857D01*
X151641857Y-124735714D01*
X151689476Y-124830952D01*
X151737095Y-124878571D01*
X151832333Y-124926190D01*
X152213285Y-124926190D01*
X150689476Y-125402380D02*
X151260904Y-125402380D01*
X150975190Y-125402380D02*
X150975190Y-124402380D01*
X151070428Y-124545238D01*
X151165666Y-124640476D01*
X151260904Y-124688095D01*
X149832333Y-124735714D02*
X149832333Y-125402380D01*
X150070428Y-124354761D02*
X150308523Y-125069047D01*
X149689476Y-125069047D01*
%TO.C,L1*%
X137851380Y-152433333D02*
X137851380Y-151957142D01*
X136851380Y-151957142D01*
X137851380Y-153290476D02*
X137851380Y-152719047D01*
X137851380Y-153004761D02*
X136851380Y-153004761D01*
X136994238Y-152909523D01*
X137089476Y-152814285D01*
X137137095Y-152719047D01*
%TO.C,JP5*%
X169451380Y-109716666D02*
X170165666Y-109716666D01*
X170308523Y-109669047D01*
X170403761Y-109573809D01*
X170451380Y-109430952D01*
X170451380Y-109335714D01*
X170451380Y-110192857D02*
X169451380Y-110192857D01*
X169451380Y-110573809D01*
X169499000Y-110669047D01*
X169546619Y-110716666D01*
X169641857Y-110764285D01*
X169784714Y-110764285D01*
X169879952Y-110716666D01*
X169927571Y-110669047D01*
X169975190Y-110573809D01*
X169975190Y-110192857D01*
X169451380Y-111669047D02*
X169451380Y-111192857D01*
X169927571Y-111145238D01*
X169879952Y-111192857D01*
X169832333Y-111288095D01*
X169832333Y-111526190D01*
X169879952Y-111621428D01*
X169927571Y-111669047D01*
X170022809Y-111716666D01*
X170260904Y-111716666D01*
X170356142Y-111669047D01*
X170403761Y-111621428D01*
X170451380Y-111526190D01*
X170451380Y-111288095D01*
X170403761Y-111192857D01*
X170356142Y-111145238D01*
%TO.C,JP4*%
X179801380Y-109516666D02*
X180515666Y-109516666D01*
X180658523Y-109469047D01*
X180753761Y-109373809D01*
X180801380Y-109230952D01*
X180801380Y-109135714D01*
X180801380Y-109992857D02*
X179801380Y-109992857D01*
X179801380Y-110373809D01*
X179849000Y-110469047D01*
X179896619Y-110516666D01*
X179991857Y-110564285D01*
X180134714Y-110564285D01*
X180229952Y-110516666D01*
X180277571Y-110469047D01*
X180325190Y-110373809D01*
X180325190Y-109992857D01*
X180134714Y-111421428D02*
X180801380Y-111421428D01*
X179753761Y-111183333D02*
X180468047Y-110945238D01*
X180468047Y-111564285D01*
%TO.C,JP3*%
X157901380Y-109766666D02*
X158615666Y-109766666D01*
X158758523Y-109719047D01*
X158853761Y-109623809D01*
X158901380Y-109480952D01*
X158901380Y-109385714D01*
X158901380Y-110242857D02*
X157901380Y-110242857D01*
X157901380Y-110623809D01*
X157949000Y-110719047D01*
X157996619Y-110766666D01*
X158091857Y-110814285D01*
X158234714Y-110814285D01*
X158329952Y-110766666D01*
X158377571Y-110719047D01*
X158425190Y-110623809D01*
X158425190Y-110242857D01*
X157901380Y-111147619D02*
X157901380Y-111766666D01*
X158282333Y-111433333D01*
X158282333Y-111576190D01*
X158329952Y-111671428D01*
X158377571Y-111719047D01*
X158472809Y-111766666D01*
X158710904Y-111766666D01*
X158806142Y-111719047D01*
X158853761Y-111671428D01*
X158901380Y-111576190D01*
X158901380Y-111290476D01*
X158853761Y-111195238D01*
X158806142Y-111147619D01*
%TO.C,JP2*%
X168051380Y-109666666D02*
X168765666Y-109666666D01*
X168908523Y-109619047D01*
X169003761Y-109523809D01*
X169051380Y-109380952D01*
X169051380Y-109285714D01*
X169051380Y-110142857D02*
X168051380Y-110142857D01*
X168051380Y-110523809D01*
X168099000Y-110619047D01*
X168146619Y-110666666D01*
X168241857Y-110714285D01*
X168384714Y-110714285D01*
X168479952Y-110666666D01*
X168527571Y-110619047D01*
X168575190Y-110523809D01*
X168575190Y-110142857D01*
X168146619Y-111095238D02*
X168099000Y-111142857D01*
X168051380Y-111238095D01*
X168051380Y-111476190D01*
X168099000Y-111571428D01*
X168146619Y-111619047D01*
X168241857Y-111666666D01*
X168337095Y-111666666D01*
X168479952Y-111619047D01*
X169051380Y-111047619D01*
X169051380Y-111666666D01*
%TO.C,JP1*%
X167382333Y-155952380D02*
X167382333Y-156666666D01*
X167429952Y-156809523D01*
X167525190Y-156904761D01*
X167668047Y-156952380D01*
X167763285Y-156952380D01*
X166906142Y-156952380D02*
X166906142Y-155952380D01*
X166525190Y-155952380D01*
X166429952Y-156000000D01*
X166382333Y-156047619D01*
X166334714Y-156142857D01*
X166334714Y-156285714D01*
X166382333Y-156380952D01*
X166429952Y-156428571D01*
X166525190Y-156476190D01*
X166906142Y-156476190D01*
X165382333Y-156952380D02*
X165953761Y-156952380D01*
X165668047Y-156952380D02*
X165668047Y-155952380D01*
X165763285Y-156095238D01*
X165858523Y-156190476D01*
X165953761Y-156238095D01*
%TO.C,D3*%
X149087095Y-148052380D02*
X149087095Y-147052380D01*
X148849000Y-147052380D01*
X148706142Y-147100000D01*
X148610904Y-147195238D01*
X148563285Y-147290476D01*
X148515666Y-147480952D01*
X148515666Y-147623809D01*
X148563285Y-147814285D01*
X148610904Y-147909523D01*
X148706142Y-148004761D01*
X148849000Y-148052380D01*
X149087095Y-148052380D01*
X148182333Y-147052380D02*
X147563285Y-147052380D01*
X147896619Y-147433333D01*
X147753761Y-147433333D01*
X147658523Y-147480952D01*
X147610904Y-147528571D01*
X147563285Y-147623809D01*
X147563285Y-147861904D01*
X147610904Y-147957142D01*
X147658523Y-148004761D01*
X147753761Y-148052380D01*
X148039476Y-148052380D01*
X148134714Y-148004761D01*
X148182333Y-147957142D01*
%TO.C,C33*%
X172206142Y-95807142D02*
X172253761Y-95759523D01*
X172301380Y-95616666D01*
X172301380Y-95521428D01*
X172253761Y-95378571D01*
X172158523Y-95283333D01*
X172063285Y-95235714D01*
X171872809Y-95188095D01*
X171729952Y-95188095D01*
X171539476Y-95235714D01*
X171444238Y-95283333D01*
X171349000Y-95378571D01*
X171301380Y-95521428D01*
X171301380Y-95616666D01*
X171349000Y-95759523D01*
X171396619Y-95807142D01*
X171301380Y-96140476D02*
X171301380Y-96759523D01*
X171682333Y-96426190D01*
X171682333Y-96569047D01*
X171729952Y-96664285D01*
X171777571Y-96711904D01*
X171872809Y-96759523D01*
X172110904Y-96759523D01*
X172206142Y-96711904D01*
X172253761Y-96664285D01*
X172301380Y-96569047D01*
X172301380Y-96283333D01*
X172253761Y-96188095D01*
X172206142Y-96140476D01*
X171301380Y-97092857D02*
X171301380Y-97711904D01*
X171682333Y-97378571D01*
X171682333Y-97521428D01*
X171729952Y-97616666D01*
X171777571Y-97664285D01*
X171872809Y-97711904D01*
X172110904Y-97711904D01*
X172206142Y-97664285D01*
X172253761Y-97616666D01*
X172301380Y-97521428D01*
X172301380Y-97235714D01*
X172253761Y-97140476D01*
X172206142Y-97092857D01*
%TO.C,C31*%
X161246142Y-142897142D02*
X161293761Y-142849523D01*
X161341380Y-142706666D01*
X161341380Y-142611428D01*
X161293761Y-142468571D01*
X161198523Y-142373333D01*
X161103285Y-142325714D01*
X160912809Y-142278095D01*
X160769952Y-142278095D01*
X160579476Y-142325714D01*
X160484238Y-142373333D01*
X160389000Y-142468571D01*
X160341380Y-142611428D01*
X160341380Y-142706666D01*
X160389000Y-142849523D01*
X160436619Y-142897142D01*
X160341380Y-143230476D02*
X160341380Y-143849523D01*
X160722333Y-143516190D01*
X160722333Y-143659047D01*
X160769952Y-143754285D01*
X160817571Y-143801904D01*
X160912809Y-143849523D01*
X161150904Y-143849523D01*
X161246142Y-143801904D01*
X161293761Y-143754285D01*
X161341380Y-143659047D01*
X161341380Y-143373333D01*
X161293761Y-143278095D01*
X161246142Y-143230476D01*
X161341380Y-144801904D02*
X161341380Y-144230476D01*
X161341380Y-144516190D02*
X160341380Y-144516190D01*
X160484238Y-144420952D01*
X160579476Y-144325714D01*
X160627095Y-144230476D01*
%TO.C,C30*%
X157176142Y-142837142D02*
X157223761Y-142789523D01*
X157271380Y-142646666D01*
X157271380Y-142551428D01*
X157223761Y-142408571D01*
X157128523Y-142313333D01*
X157033285Y-142265714D01*
X156842809Y-142218095D01*
X156699952Y-142218095D01*
X156509476Y-142265714D01*
X156414238Y-142313333D01*
X156319000Y-142408571D01*
X156271380Y-142551428D01*
X156271380Y-142646666D01*
X156319000Y-142789523D01*
X156366619Y-142837142D01*
X156271380Y-143170476D02*
X156271380Y-143789523D01*
X156652333Y-143456190D01*
X156652333Y-143599047D01*
X156699952Y-143694285D01*
X156747571Y-143741904D01*
X156842809Y-143789523D01*
X157080904Y-143789523D01*
X157176142Y-143741904D01*
X157223761Y-143694285D01*
X157271380Y-143599047D01*
X157271380Y-143313333D01*
X157223761Y-143218095D01*
X157176142Y-143170476D01*
X156271380Y-144408571D02*
X156271380Y-144503809D01*
X156319000Y-144599047D01*
X156366619Y-144646666D01*
X156461857Y-144694285D01*
X156652333Y-144741904D01*
X156890428Y-144741904D01*
X157080904Y-144694285D01*
X157176142Y-144646666D01*
X157223761Y-144599047D01*
X157271380Y-144503809D01*
X157271380Y-144408571D01*
X157223761Y-144313333D01*
X157176142Y-144265714D01*
X157080904Y-144218095D01*
X156890428Y-144170476D01*
X156652333Y-144170476D01*
X156461857Y-144218095D01*
X156366619Y-144265714D01*
X156319000Y-144313333D01*
X156271380Y-144408571D01*
%TO.C,C29*%
X150256142Y-138607142D02*
X150303761Y-138559523D01*
X150351380Y-138416666D01*
X150351380Y-138321428D01*
X150303761Y-138178571D01*
X150208523Y-138083333D01*
X150113285Y-138035714D01*
X149922809Y-137988095D01*
X149779952Y-137988095D01*
X149589476Y-138035714D01*
X149494238Y-138083333D01*
X149399000Y-138178571D01*
X149351380Y-138321428D01*
X149351380Y-138416666D01*
X149399000Y-138559523D01*
X149446619Y-138607142D01*
X149446619Y-138988095D02*
X149399000Y-139035714D01*
X149351380Y-139130952D01*
X149351380Y-139369047D01*
X149399000Y-139464285D01*
X149446619Y-139511904D01*
X149541857Y-139559523D01*
X149637095Y-139559523D01*
X149779952Y-139511904D01*
X150351380Y-138940476D01*
X150351380Y-139559523D01*
X150351380Y-140035714D02*
X150351380Y-140226190D01*
X150303761Y-140321428D01*
X150256142Y-140369047D01*
X150113285Y-140464285D01*
X149922809Y-140511904D01*
X149541857Y-140511904D01*
X149446619Y-140464285D01*
X149399000Y-140416666D01*
X149351380Y-140321428D01*
X149351380Y-140130952D01*
X149399000Y-140035714D01*
X149446619Y-139988095D01*
X149541857Y-139940476D01*
X149779952Y-139940476D01*
X149875190Y-139988095D01*
X149922809Y-140035714D01*
X149970428Y-140130952D01*
X149970428Y-140321428D01*
X149922809Y-140416666D01*
X149875190Y-140464285D01*
X149779952Y-140511904D01*
%TO.C,C28*%
X159286142Y-142797142D02*
X159333761Y-142749523D01*
X159381380Y-142606666D01*
X159381380Y-142511428D01*
X159333761Y-142368571D01*
X159238523Y-142273333D01*
X159143285Y-142225714D01*
X158952809Y-142178095D01*
X158809952Y-142178095D01*
X158619476Y-142225714D01*
X158524238Y-142273333D01*
X158429000Y-142368571D01*
X158381380Y-142511428D01*
X158381380Y-142606666D01*
X158429000Y-142749523D01*
X158476619Y-142797142D01*
X158476619Y-143178095D02*
X158429000Y-143225714D01*
X158381380Y-143320952D01*
X158381380Y-143559047D01*
X158429000Y-143654285D01*
X158476619Y-143701904D01*
X158571857Y-143749523D01*
X158667095Y-143749523D01*
X158809952Y-143701904D01*
X159381380Y-143130476D01*
X159381380Y-143749523D01*
X158809952Y-144320952D02*
X158762333Y-144225714D01*
X158714714Y-144178095D01*
X158619476Y-144130476D01*
X158571857Y-144130476D01*
X158476619Y-144178095D01*
X158429000Y-144225714D01*
X158381380Y-144320952D01*
X158381380Y-144511428D01*
X158429000Y-144606666D01*
X158476619Y-144654285D01*
X158571857Y-144701904D01*
X158619476Y-144701904D01*
X158714714Y-144654285D01*
X158762333Y-144606666D01*
X158809952Y-144511428D01*
X158809952Y-144320952D01*
X158857571Y-144225714D01*
X158905190Y-144178095D01*
X159000428Y-144130476D01*
X159190904Y-144130476D01*
X159286142Y-144178095D01*
X159333761Y-144225714D01*
X159381380Y-144320952D01*
X159381380Y-144511428D01*
X159333761Y-144606666D01*
X159286142Y-144654285D01*
X159190904Y-144701904D01*
X159000428Y-144701904D01*
X158905190Y-144654285D01*
X158857571Y-144606666D01*
X158809952Y-144511428D01*
%TO.C,C27*%
X152356142Y-138507142D02*
X152403761Y-138459523D01*
X152451380Y-138316666D01*
X152451380Y-138221428D01*
X152403761Y-138078571D01*
X152308523Y-137983333D01*
X152213285Y-137935714D01*
X152022809Y-137888095D01*
X151879952Y-137888095D01*
X151689476Y-137935714D01*
X151594238Y-137983333D01*
X151499000Y-138078571D01*
X151451380Y-138221428D01*
X151451380Y-138316666D01*
X151499000Y-138459523D01*
X151546619Y-138507142D01*
X151546619Y-138888095D02*
X151499000Y-138935714D01*
X151451380Y-139030952D01*
X151451380Y-139269047D01*
X151499000Y-139364285D01*
X151546619Y-139411904D01*
X151641857Y-139459523D01*
X151737095Y-139459523D01*
X151879952Y-139411904D01*
X152451380Y-138840476D01*
X152451380Y-139459523D01*
X151451380Y-139792857D02*
X151451380Y-140459523D01*
X152451380Y-140030952D01*
%TO.C,C26*%
X154206142Y-138507142D02*
X154253761Y-138459523D01*
X154301380Y-138316666D01*
X154301380Y-138221428D01*
X154253761Y-138078571D01*
X154158523Y-137983333D01*
X154063285Y-137935714D01*
X153872809Y-137888095D01*
X153729952Y-137888095D01*
X153539476Y-137935714D01*
X153444238Y-137983333D01*
X153349000Y-138078571D01*
X153301380Y-138221428D01*
X153301380Y-138316666D01*
X153349000Y-138459523D01*
X153396619Y-138507142D01*
X153396619Y-138888095D02*
X153349000Y-138935714D01*
X153301380Y-139030952D01*
X153301380Y-139269047D01*
X153349000Y-139364285D01*
X153396619Y-139411904D01*
X153491857Y-139459523D01*
X153587095Y-139459523D01*
X153729952Y-139411904D01*
X154301380Y-138840476D01*
X154301380Y-139459523D01*
X153301380Y-140316666D02*
X153301380Y-140126190D01*
X153349000Y-140030952D01*
X153396619Y-139983333D01*
X153539476Y-139888095D01*
X153729952Y-139840476D01*
X154110904Y-139840476D01*
X154206142Y-139888095D01*
X154253761Y-139935714D01*
X154301380Y-140030952D01*
X154301380Y-140221428D01*
X154253761Y-140316666D01*
X154206142Y-140364285D01*
X154110904Y-140411904D01*
X153872809Y-140411904D01*
X153777571Y-140364285D01*
X153729952Y-140316666D01*
X153682333Y-140221428D01*
X153682333Y-140030952D01*
X153729952Y-139935714D01*
X153777571Y-139888095D01*
X153872809Y-139840476D01*
%TO.C,C25*%
X165041857Y-135557142D02*
X165089476Y-135604761D01*
X165232333Y-135652380D01*
X165327571Y-135652380D01*
X165470428Y-135604761D01*
X165565666Y-135509523D01*
X165613285Y-135414285D01*
X165660904Y-135223809D01*
X165660904Y-135080952D01*
X165613285Y-134890476D01*
X165565666Y-134795238D01*
X165470428Y-134700000D01*
X165327571Y-134652380D01*
X165232333Y-134652380D01*
X165089476Y-134700000D01*
X165041857Y-134747619D01*
X164660904Y-134747619D02*
X164613285Y-134700000D01*
X164518047Y-134652380D01*
X164279952Y-134652380D01*
X164184714Y-134700000D01*
X164137095Y-134747619D01*
X164089476Y-134842857D01*
X164089476Y-134938095D01*
X164137095Y-135080952D01*
X164708523Y-135652380D01*
X164089476Y-135652380D01*
X163184714Y-134652380D02*
X163660904Y-134652380D01*
X163708523Y-135128571D01*
X163660904Y-135080952D01*
X163565666Y-135033333D01*
X163327571Y-135033333D01*
X163232333Y-135080952D01*
X163184714Y-135128571D01*
X163137095Y-135223809D01*
X163137095Y-135461904D01*
X163184714Y-135557142D01*
X163232333Y-135604761D01*
X163327571Y-135652380D01*
X163565666Y-135652380D01*
X163660904Y-135604761D01*
X163708523Y-135557142D01*
%TO.C,C24*%
X165041857Y-132157142D02*
X165089476Y-132204761D01*
X165232333Y-132252380D01*
X165327571Y-132252380D01*
X165470428Y-132204761D01*
X165565666Y-132109523D01*
X165613285Y-132014285D01*
X165660904Y-131823809D01*
X165660904Y-131680952D01*
X165613285Y-131490476D01*
X165565666Y-131395238D01*
X165470428Y-131300000D01*
X165327571Y-131252380D01*
X165232333Y-131252380D01*
X165089476Y-131300000D01*
X165041857Y-131347619D01*
X164660904Y-131347619D02*
X164613285Y-131300000D01*
X164518047Y-131252380D01*
X164279952Y-131252380D01*
X164184714Y-131300000D01*
X164137095Y-131347619D01*
X164089476Y-131442857D01*
X164089476Y-131538095D01*
X164137095Y-131680952D01*
X164708523Y-132252380D01*
X164089476Y-132252380D01*
X163232333Y-131585714D02*
X163232333Y-132252380D01*
X163470428Y-131204761D02*
X163708523Y-131919047D01*
X163089476Y-131919047D01*
%TO.C,C23*%
X136191857Y-145557142D02*
X136239476Y-145604761D01*
X136382333Y-145652380D01*
X136477571Y-145652380D01*
X136620428Y-145604761D01*
X136715666Y-145509523D01*
X136763285Y-145414285D01*
X136810904Y-145223809D01*
X136810904Y-145080952D01*
X136763285Y-144890476D01*
X136715666Y-144795238D01*
X136620428Y-144700000D01*
X136477571Y-144652380D01*
X136382333Y-144652380D01*
X136239476Y-144700000D01*
X136191857Y-144747619D01*
X135810904Y-144747619D02*
X135763285Y-144700000D01*
X135668047Y-144652380D01*
X135429952Y-144652380D01*
X135334714Y-144700000D01*
X135287095Y-144747619D01*
X135239476Y-144842857D01*
X135239476Y-144938095D01*
X135287095Y-145080952D01*
X135858523Y-145652380D01*
X135239476Y-145652380D01*
X134906142Y-144652380D02*
X134287095Y-144652380D01*
X134620428Y-145033333D01*
X134477571Y-145033333D01*
X134382333Y-145080952D01*
X134334714Y-145128571D01*
X134287095Y-145223809D01*
X134287095Y-145461904D01*
X134334714Y-145557142D01*
X134382333Y-145604761D01*
X134477571Y-145652380D01*
X134763285Y-145652380D01*
X134858523Y-145604761D01*
X134906142Y-145557142D01*
%TO.C,C22*%
X162041857Y-128057142D02*
X162089476Y-128104761D01*
X162232333Y-128152380D01*
X162327571Y-128152380D01*
X162470428Y-128104761D01*
X162565666Y-128009523D01*
X162613285Y-127914285D01*
X162660904Y-127723809D01*
X162660904Y-127580952D01*
X162613285Y-127390476D01*
X162565666Y-127295238D01*
X162470428Y-127200000D01*
X162327571Y-127152380D01*
X162232333Y-127152380D01*
X162089476Y-127200000D01*
X162041857Y-127247619D01*
X161660904Y-127247619D02*
X161613285Y-127200000D01*
X161518047Y-127152380D01*
X161279952Y-127152380D01*
X161184714Y-127200000D01*
X161137095Y-127247619D01*
X161089476Y-127342857D01*
X161089476Y-127438095D01*
X161137095Y-127580952D01*
X161708523Y-128152380D01*
X161089476Y-128152380D01*
X160708523Y-127247619D02*
X160660904Y-127200000D01*
X160565666Y-127152380D01*
X160327571Y-127152380D01*
X160232333Y-127200000D01*
X160184714Y-127247619D01*
X160137095Y-127342857D01*
X160137095Y-127438095D01*
X160184714Y-127580952D01*
X160756142Y-128152380D01*
X160137095Y-128152380D01*
%TO.C,C21*%
X161891857Y-125857142D02*
X161939476Y-125904761D01*
X162082333Y-125952380D01*
X162177571Y-125952380D01*
X162320428Y-125904761D01*
X162415666Y-125809523D01*
X162463285Y-125714285D01*
X162510904Y-125523809D01*
X162510904Y-125380952D01*
X162463285Y-125190476D01*
X162415666Y-125095238D01*
X162320428Y-125000000D01*
X162177571Y-124952380D01*
X162082333Y-124952380D01*
X161939476Y-125000000D01*
X161891857Y-125047619D01*
X161510904Y-125047619D02*
X161463285Y-125000000D01*
X161368047Y-124952380D01*
X161129952Y-124952380D01*
X161034714Y-125000000D01*
X160987095Y-125047619D01*
X160939476Y-125142857D01*
X160939476Y-125238095D01*
X160987095Y-125380952D01*
X161558523Y-125952380D01*
X160939476Y-125952380D01*
X159987095Y-125952380D02*
X160558523Y-125952380D01*
X160272809Y-125952380D02*
X160272809Y-124952380D01*
X160368047Y-125095238D01*
X160463285Y-125190476D01*
X160558523Y-125238095D01*
%TO.C,C20*%
X143741857Y-132057142D02*
X143789476Y-132104761D01*
X143932333Y-132152380D01*
X144027571Y-132152380D01*
X144170428Y-132104761D01*
X144265666Y-132009523D01*
X144313285Y-131914285D01*
X144360904Y-131723809D01*
X144360904Y-131580952D01*
X144313285Y-131390476D01*
X144265666Y-131295238D01*
X144170428Y-131200000D01*
X144027571Y-131152380D01*
X143932333Y-131152380D01*
X143789476Y-131200000D01*
X143741857Y-131247619D01*
X143360904Y-131247619D02*
X143313285Y-131200000D01*
X143218047Y-131152380D01*
X142979952Y-131152380D01*
X142884714Y-131200000D01*
X142837095Y-131247619D01*
X142789476Y-131342857D01*
X142789476Y-131438095D01*
X142837095Y-131580952D01*
X143408523Y-132152380D01*
X142789476Y-132152380D01*
X142170428Y-131152380D02*
X142075190Y-131152380D01*
X141979952Y-131200000D01*
X141932333Y-131247619D01*
X141884714Y-131342857D01*
X141837095Y-131533333D01*
X141837095Y-131771428D01*
X141884714Y-131961904D01*
X141932333Y-132057142D01*
X141979952Y-132104761D01*
X142075190Y-132152380D01*
X142170428Y-132152380D01*
X142265666Y-132104761D01*
X142313285Y-132057142D01*
X142360904Y-131961904D01*
X142408523Y-131771428D01*
X142408523Y-131533333D01*
X142360904Y-131342857D01*
X142313285Y-131247619D01*
X142265666Y-131200000D01*
X142170428Y-131152380D01*
%TO.C,C19*%
X143541857Y-136357142D02*
X143589476Y-136404761D01*
X143732333Y-136452380D01*
X143827571Y-136452380D01*
X143970428Y-136404761D01*
X144065666Y-136309523D01*
X144113285Y-136214285D01*
X144160904Y-136023809D01*
X144160904Y-135880952D01*
X144113285Y-135690476D01*
X144065666Y-135595238D01*
X143970428Y-135500000D01*
X143827571Y-135452380D01*
X143732333Y-135452380D01*
X143589476Y-135500000D01*
X143541857Y-135547619D01*
X142589476Y-136452380D02*
X143160904Y-136452380D01*
X142875190Y-136452380D02*
X142875190Y-135452380D01*
X142970428Y-135595238D01*
X143065666Y-135690476D01*
X143160904Y-135738095D01*
X142113285Y-136452380D02*
X141922809Y-136452380D01*
X141827571Y-136404761D01*
X141779952Y-136357142D01*
X141684714Y-136214285D01*
X141637095Y-136023809D01*
X141637095Y-135642857D01*
X141684714Y-135547619D01*
X141732333Y-135500000D01*
X141827571Y-135452380D01*
X142018047Y-135452380D01*
X142113285Y-135500000D01*
X142160904Y-135547619D01*
X142208523Y-135642857D01*
X142208523Y-135880952D01*
X142160904Y-135976190D01*
X142113285Y-136023809D01*
X142018047Y-136071428D01*
X141827571Y-136071428D01*
X141732333Y-136023809D01*
X141684714Y-135976190D01*
X141637095Y-135880952D01*
%TO.C,C14*%
X178456142Y-95707142D02*
X178503761Y-95659523D01*
X178551380Y-95516666D01*
X178551380Y-95421428D01*
X178503761Y-95278571D01*
X178408523Y-95183333D01*
X178313285Y-95135714D01*
X178122809Y-95088095D01*
X177979952Y-95088095D01*
X177789476Y-95135714D01*
X177694238Y-95183333D01*
X177599000Y-95278571D01*
X177551380Y-95421428D01*
X177551380Y-95516666D01*
X177599000Y-95659523D01*
X177646619Y-95707142D01*
X178551380Y-96659523D02*
X178551380Y-96088095D01*
X178551380Y-96373809D02*
X177551380Y-96373809D01*
X177694238Y-96278571D01*
X177789476Y-96183333D01*
X177837095Y-96088095D01*
X177884714Y-97516666D02*
X178551380Y-97516666D01*
X177503761Y-97278571D02*
X178218047Y-97040476D01*
X178218047Y-97659523D01*
%TO.C,C10*%
X166956142Y-95857142D02*
X167003761Y-95809523D01*
X167051380Y-95666666D01*
X167051380Y-95571428D01*
X167003761Y-95428571D01*
X166908523Y-95333333D01*
X166813285Y-95285714D01*
X166622809Y-95238095D01*
X166479952Y-95238095D01*
X166289476Y-95285714D01*
X166194238Y-95333333D01*
X166099000Y-95428571D01*
X166051380Y-95571428D01*
X166051380Y-95666666D01*
X166099000Y-95809523D01*
X166146619Y-95857142D01*
X167051380Y-96809523D02*
X167051380Y-96238095D01*
X167051380Y-96523809D02*
X166051380Y-96523809D01*
X166194238Y-96428571D01*
X166289476Y-96333333D01*
X166337095Y-96238095D01*
X166051380Y-97428571D02*
X166051380Y-97523809D01*
X166099000Y-97619047D01*
X166146619Y-97666666D01*
X166241857Y-97714285D01*
X166432333Y-97761904D01*
X166670428Y-97761904D01*
X166860904Y-97714285D01*
X166956142Y-97666666D01*
X167003761Y-97619047D01*
X167051380Y-97523809D01*
X167051380Y-97428571D01*
X167003761Y-97333333D01*
X166956142Y-97285714D01*
X166860904Y-97238095D01*
X166670428Y-97190476D01*
X166432333Y-97190476D01*
X166241857Y-97238095D01*
X166146619Y-97285714D01*
X166099000Y-97333333D01*
X166051380Y-97428571D01*
%TO.C,C9*%
X147506142Y-156023333D02*
X147553761Y-155975714D01*
X147601380Y-155832857D01*
X147601380Y-155737619D01*
X147553761Y-155594761D01*
X147458523Y-155499523D01*
X147363285Y-155451904D01*
X147172809Y-155404285D01*
X147029952Y-155404285D01*
X146839476Y-155451904D01*
X146744238Y-155499523D01*
X146649000Y-155594761D01*
X146601380Y-155737619D01*
X146601380Y-155832857D01*
X146649000Y-155975714D01*
X146696619Y-156023333D01*
X147601380Y-156499523D02*
X147601380Y-156690000D01*
X147553761Y-156785238D01*
X147506142Y-156832857D01*
X147363285Y-156928095D01*
X147172809Y-156975714D01*
X146791857Y-156975714D01*
X146696619Y-156928095D01*
X146649000Y-156880476D01*
X146601380Y-156785238D01*
X146601380Y-156594761D01*
X146649000Y-156499523D01*
X146696619Y-156451904D01*
X146791857Y-156404285D01*
X147029952Y-156404285D01*
X147125190Y-156451904D01*
X147172809Y-156499523D01*
X147220428Y-156594761D01*
X147220428Y-156785238D01*
X147172809Y-156880476D01*
X147125190Y-156928095D01*
X147029952Y-156975714D01*
%TO.C,C6*%
X161056142Y-96733333D02*
X161103761Y-96685714D01*
X161151380Y-96542857D01*
X161151380Y-96447619D01*
X161103761Y-96304761D01*
X161008523Y-96209523D01*
X160913285Y-96161904D01*
X160722809Y-96114285D01*
X160579952Y-96114285D01*
X160389476Y-96161904D01*
X160294238Y-96209523D01*
X160199000Y-96304761D01*
X160151380Y-96447619D01*
X160151380Y-96542857D01*
X160199000Y-96685714D01*
X160246619Y-96733333D01*
X160151380Y-97590476D02*
X160151380Y-97400000D01*
X160199000Y-97304761D01*
X160246619Y-97257142D01*
X160389476Y-97161904D01*
X160579952Y-97114285D01*
X160960904Y-97114285D01*
X161056142Y-97161904D01*
X161103761Y-97209523D01*
X161151380Y-97304761D01*
X161151380Y-97495238D01*
X161103761Y-97590476D01*
X161056142Y-97638095D01*
X160960904Y-97685714D01*
X160722809Y-97685714D01*
X160627571Y-97638095D01*
X160579952Y-97590476D01*
X160532333Y-97495238D01*
X160532333Y-97304761D01*
X160579952Y-97209523D01*
X160627571Y-97161904D01*
X160722809Y-97114285D01*
%TO.C,C5*%
X137615666Y-149057142D02*
X137663285Y-149104761D01*
X137806142Y-149152380D01*
X137901380Y-149152380D01*
X138044238Y-149104761D01*
X138139476Y-149009523D01*
X138187095Y-148914285D01*
X138234714Y-148723809D01*
X138234714Y-148580952D01*
X138187095Y-148390476D01*
X138139476Y-148295238D01*
X138044238Y-148200000D01*
X137901380Y-148152380D01*
X137806142Y-148152380D01*
X137663285Y-148200000D01*
X137615666Y-148247619D01*
X136710904Y-148152380D02*
X137187095Y-148152380D01*
X137234714Y-148628571D01*
X137187095Y-148580952D01*
X137091857Y-148533333D01*
X136853761Y-148533333D01*
X136758523Y-148580952D01*
X136710904Y-148628571D01*
X136663285Y-148723809D01*
X136663285Y-148961904D01*
X136710904Y-149057142D01*
X136758523Y-149104761D01*
X136853761Y-149152380D01*
X137091857Y-149152380D01*
X137187095Y-149104761D01*
X137234714Y-149057142D01*
%TO.C,C15*%
X131641857Y-153157142D02*
X131689476Y-153204761D01*
X131832333Y-153252380D01*
X131927571Y-153252380D01*
X132070428Y-153204761D01*
X132165666Y-153109523D01*
X132213285Y-153014285D01*
X132260904Y-152823809D01*
X132260904Y-152680952D01*
X132213285Y-152490476D01*
X132165666Y-152395238D01*
X132070428Y-152300000D01*
X131927571Y-152252380D01*
X131832333Y-152252380D01*
X131689476Y-152300000D01*
X131641857Y-152347619D01*
X130689476Y-153252380D02*
X131260904Y-153252380D01*
X130975190Y-153252380D02*
X130975190Y-152252380D01*
X131070428Y-152395238D01*
X131165666Y-152490476D01*
X131260904Y-152538095D01*
X129784714Y-152252380D02*
X130260904Y-152252380D01*
X130308523Y-152728571D01*
X130260904Y-152680952D01*
X130165666Y-152633333D01*
X129927571Y-152633333D01*
X129832333Y-152680952D01*
X129784714Y-152728571D01*
X129737095Y-152823809D01*
X129737095Y-153061904D01*
X129784714Y-153157142D01*
X129832333Y-153204761D01*
X129927571Y-153252380D01*
X130165666Y-153252380D01*
X130260904Y-153204761D01*
X130308523Y-153157142D01*
%TO.C,D2*%
X138751380Y-126711904D02*
X137751380Y-126711904D01*
X137751380Y-126950000D01*
X137799000Y-127092857D01*
X137894238Y-127188095D01*
X137989476Y-127235714D01*
X138179952Y-127283333D01*
X138322809Y-127283333D01*
X138513285Y-127235714D01*
X138608523Y-127188095D01*
X138703761Y-127092857D01*
X138751380Y-126950000D01*
X138751380Y-126711904D01*
X137846619Y-127664285D02*
X137799000Y-127711904D01*
X137751380Y-127807142D01*
X137751380Y-128045238D01*
X137799000Y-128140476D01*
X137846619Y-128188095D01*
X137941857Y-128235714D01*
X138037095Y-128235714D01*
X138179952Y-128188095D01*
X138751380Y-127616666D01*
X138751380Y-128235714D01*
%TO.C,U3*%
X154430904Y-92032380D02*
X154430904Y-92841904D01*
X154383285Y-92937142D01*
X154335666Y-92984761D01*
X154240428Y-93032380D01*
X154049952Y-93032380D01*
X153954714Y-92984761D01*
X153907095Y-92937142D01*
X153859476Y-92841904D01*
X153859476Y-92032380D01*
X153478523Y-92032380D02*
X152859476Y-92032380D01*
X153192809Y-92413333D01*
X153049952Y-92413333D01*
X152954714Y-92460952D01*
X152907095Y-92508571D01*
X152859476Y-92603809D01*
X152859476Y-92841904D01*
X152907095Y-92937142D01*
X152954714Y-92984761D01*
X153049952Y-93032380D01*
X153335666Y-93032380D01*
X153430904Y-92984761D01*
X153478523Y-92937142D01*
X151916200Y-95742632D02*
X151916200Y-95980728D01*
X152154295Y-95885490D02*
X151916200Y-95980728D01*
X151678104Y-95885490D01*
X152059057Y-96171204D02*
X151916200Y-95980728D01*
X151773342Y-96171204D01*
X151916200Y-95742632D02*
X151916200Y-95980728D01*
X152154295Y-95885490D02*
X151916200Y-95980728D01*
X151678104Y-95885490D01*
X152059057Y-96171204D02*
X151916200Y-95980728D01*
X151773342Y-96171204D01*
%TO.C,J5*%
X154502333Y-158112380D02*
X154502333Y-158826666D01*
X154549952Y-158969523D01*
X154645190Y-159064761D01*
X154788047Y-159112380D01*
X154883285Y-159112380D01*
X153549952Y-158112380D02*
X154026142Y-158112380D01*
X154073761Y-158588571D01*
X154026142Y-158540952D01*
X153930904Y-158493333D01*
X153692809Y-158493333D01*
X153597571Y-158540952D01*
X153549952Y-158588571D01*
X153502333Y-158683809D01*
X153502333Y-158921904D01*
X153549952Y-159017142D01*
X153597571Y-159064761D01*
X153692809Y-159112380D01*
X153930904Y-159112380D01*
X154026142Y-159064761D01*
X154073761Y-159017142D01*
%TO.C,R7*%
X153165666Y-147902380D02*
X153499000Y-147426190D01*
X153737095Y-147902380D02*
X153737095Y-146902380D01*
X153356142Y-146902380D01*
X153260904Y-146950000D01*
X153213285Y-146997619D01*
X153165666Y-147092857D01*
X153165666Y-147235714D01*
X153213285Y-147330952D01*
X153260904Y-147378571D01*
X153356142Y-147426190D01*
X153737095Y-147426190D01*
X152832333Y-146902380D02*
X152165666Y-146902380D01*
X152594238Y-147902380D01*
%TO.C,R3*%
X155315666Y-147852380D02*
X155649000Y-147376190D01*
X155887095Y-147852380D02*
X155887095Y-146852380D01*
X155506142Y-146852380D01*
X155410904Y-146900000D01*
X155363285Y-146947619D01*
X155315666Y-147042857D01*
X155315666Y-147185714D01*
X155363285Y-147280952D01*
X155410904Y-147328571D01*
X155506142Y-147376190D01*
X155887095Y-147376190D01*
X154982333Y-146852380D02*
X154363285Y-146852380D01*
X154696619Y-147233333D01*
X154553761Y-147233333D01*
X154458523Y-147280952D01*
X154410904Y-147328571D01*
X154363285Y-147423809D01*
X154363285Y-147661904D01*
X154410904Y-147757142D01*
X154458523Y-147804761D01*
X154553761Y-147852380D01*
X154839476Y-147852380D01*
X154934714Y-147804761D01*
X154982333Y-147757142D01*
%TO.C,R2*%
X150715666Y-147852380D02*
X151049000Y-147376190D01*
X151287095Y-147852380D02*
X151287095Y-146852380D01*
X150906142Y-146852380D01*
X150810904Y-146900000D01*
X150763285Y-146947619D01*
X150715666Y-147042857D01*
X150715666Y-147185714D01*
X150763285Y-147280952D01*
X150810904Y-147328571D01*
X150906142Y-147376190D01*
X151287095Y-147376190D01*
X150334714Y-146947619D02*
X150287095Y-146900000D01*
X150191857Y-146852380D01*
X149953761Y-146852380D01*
X149858523Y-146900000D01*
X149810904Y-146947619D01*
X149763285Y-147042857D01*
X149763285Y-147138095D01*
X149810904Y-147280952D01*
X150382333Y-147852380D01*
X149763285Y-147852380D01*
%TO.C,R1*%
X157565666Y-147852380D02*
X157899000Y-147376190D01*
X158137095Y-147852380D02*
X158137095Y-146852380D01*
X157756142Y-146852380D01*
X157660904Y-146900000D01*
X157613285Y-146947619D01*
X157565666Y-147042857D01*
X157565666Y-147185714D01*
X157613285Y-147280952D01*
X157660904Y-147328571D01*
X157756142Y-147376190D01*
X158137095Y-147376190D01*
X156613285Y-147852380D02*
X157184714Y-147852380D01*
X156899000Y-147852380D02*
X156899000Y-146852380D01*
X156994238Y-146995238D01*
X157089476Y-147090476D01*
X157184714Y-147138095D01*
%TO.C,J6*%
X172782333Y-136922380D02*
X172782333Y-137636666D01*
X172829952Y-137779523D01*
X172925190Y-137874761D01*
X173068047Y-137922380D01*
X173163285Y-137922380D01*
X171877571Y-136922380D02*
X172068047Y-136922380D01*
X172163285Y-136970000D01*
X172210904Y-137017619D01*
X172306142Y-137160476D01*
X172353761Y-137350952D01*
X172353761Y-137731904D01*
X172306142Y-137827142D01*
X172258523Y-137874761D01*
X172163285Y-137922380D01*
X171972809Y-137922380D01*
X171877571Y-137874761D01*
X171829952Y-137827142D01*
X171782333Y-137731904D01*
X171782333Y-137493809D01*
X171829952Y-137398571D01*
X171877571Y-137350952D01*
X171972809Y-137303333D01*
X172163285Y-137303333D01*
X172258523Y-137350952D01*
X172306142Y-137398571D01*
X172353761Y-137493809D01*
%TO.C,C4*%
X159556142Y-95383333D02*
X159603761Y-95335714D01*
X159651380Y-95192857D01*
X159651380Y-95097619D01*
X159603761Y-94954761D01*
X159508523Y-94859523D01*
X159413285Y-94811904D01*
X159222809Y-94764285D01*
X159079952Y-94764285D01*
X158889476Y-94811904D01*
X158794238Y-94859523D01*
X158699000Y-94954761D01*
X158651380Y-95097619D01*
X158651380Y-95192857D01*
X158699000Y-95335714D01*
X158746619Y-95383333D01*
X158984714Y-96240476D02*
X159651380Y-96240476D01*
X158603761Y-96002380D02*
X159318047Y-95764285D01*
X159318047Y-96383333D01*
%TO.C,C2*%
X148606142Y-95333333D02*
X148653761Y-95285714D01*
X148701380Y-95142857D01*
X148701380Y-95047619D01*
X148653761Y-94904761D01*
X148558523Y-94809523D01*
X148463285Y-94761904D01*
X148272809Y-94714285D01*
X148129952Y-94714285D01*
X147939476Y-94761904D01*
X147844238Y-94809523D01*
X147749000Y-94904761D01*
X147701380Y-95047619D01*
X147701380Y-95142857D01*
X147749000Y-95285714D01*
X147796619Y-95333333D01*
X147796619Y-95714285D02*
X147749000Y-95761904D01*
X147701380Y-95857142D01*
X147701380Y-96095238D01*
X147749000Y-96190476D01*
X147796619Y-96238095D01*
X147891857Y-96285714D01*
X147987095Y-96285714D01*
X148129952Y-96238095D01*
X148701380Y-95666666D01*
X148701380Y-96285714D01*
%TO.C,R6*%
X145505782Y-60564286D02*
X145839116Y-60088096D01*
X146077211Y-60564286D02*
X146077211Y-59564286D01*
X145696258Y-59564286D01*
X145601020Y-59611906D01*
X145553401Y-59659525D01*
X145505782Y-59754763D01*
X145505782Y-59897620D01*
X145553401Y-59992858D01*
X145601020Y-60040477D01*
X145696258Y-60088096D01*
X146077211Y-60088096D01*
X144648639Y-59564286D02*
X144839116Y-59564286D01*
X144934354Y-59611906D01*
X144981973Y-59659525D01*
X145077211Y-59802382D01*
X145124830Y-59992858D01*
X145124830Y-60373810D01*
X145077211Y-60469048D01*
X145029592Y-60516667D01*
X144934354Y-60564286D01*
X144743877Y-60564286D01*
X144648639Y-60516667D01*
X144601020Y-60469048D01*
X144553401Y-60373810D01*
X144553401Y-60135715D01*
X144601020Y-60040477D01*
X144648639Y-59992858D01*
X144743877Y-59945239D01*
X144934354Y-59945239D01*
X145029592Y-59992858D01*
X145077211Y-60040477D01*
X145124830Y-60135715D01*
%TD*%
M02*
