%TF.GenerationSoftware,KiCad,Pcbnew,(5.1.9-0-10_14)*%
%TF.CreationDate,2021-02-02T08:17:03-08:00*%
%TF.ProjectId,integrator,696e7465-6772-4617-946f-722e6b696361,rev?*%
%TF.SameCoordinates,Original*%
%TF.FileFunction,Copper,L1,Top*%
%TF.FilePolarity,Positive*%
%FSLAX46Y46*%
G04 Gerber Fmt 4.6, Leading zero omitted, Abs format (unit mm)*
G04 Created by KiCad (PCBNEW (5.1.9-0-10_14)) date 2021-02-02 08:17:03*
%MOMM*%
%LPD*%
G01*
G04 APERTURE LIST*
%TA.AperFunction,SMDPad,CuDef*%
%ADD10R,1.050000X1.450000*%
%TD*%
%TA.AperFunction,SMDPad,CuDef*%
%ADD11R,2.800000X2.800000*%
%TD*%
%TA.AperFunction,SMDPad,CuDef*%
%ADD12R,2.200000X2.800000*%
%TD*%
%TA.AperFunction,SMDPad,CuDef*%
%ADD13R,2.600000X2.800000*%
%TD*%
%TA.AperFunction,ComponentPad*%
%ADD14C,1.600000*%
%TD*%
%TA.AperFunction,ComponentPad*%
%ADD15R,1.600000X1.600000*%
%TD*%
%TA.AperFunction,ComponentPad*%
%ADD16C,1.900000*%
%TD*%
%TA.AperFunction,SMDPad,CuDef*%
%ADD17R,0.300000X0.800000*%
%TD*%
%TA.AperFunction,SMDPad,CuDef*%
%ADD18R,0.800000X0.300000*%
%TD*%
%TA.AperFunction,ComponentPad*%
%ADD19R,1.700000X1.700000*%
%TD*%
%TA.AperFunction,ComponentPad*%
%ADD20O,1.700000X1.700000*%
%TD*%
%TA.AperFunction,ViaPad*%
%ADD21C,0.685800*%
%TD*%
%TA.AperFunction,Conductor*%
%ADD22C,0.254000*%
%TD*%
%TA.AperFunction,Conductor*%
%ADD23C,0.100000*%
%TD*%
G04 APERTURE END LIST*
D10*
%TO.P,SW1,2*%
%TO.N,Net-(SW1-Pad2)*%
X205231000Y-63725000D03*
%TO.P,SW1,1*%
%TO.N,Earth*%
X205231000Y-68275000D03*
%TD*%
%TO.P,SW2,2*%
%TO.N,Net-(SW2-Pad2)*%
X146813000Y-68467400D03*
%TO.P,SW2,1*%
%TO.N,Earth*%
X146813000Y-63917400D03*
%TD*%
%TO.P,LED1,2*%
%TO.N,Net-(LED1-Pad2)*%
%TA.AperFunction,SMDPad,CuDef*%
G36*
G01*
X163993750Y-34387500D02*
X164506250Y-34387500D01*
G75*
G02*
X164725000Y-34606250I0J-218750D01*
G01*
X164725000Y-35043750D01*
G75*
G02*
X164506250Y-35262500I-218750J0D01*
G01*
X163993750Y-35262500D01*
G75*
G02*
X163775000Y-35043750I0J218750D01*
G01*
X163775000Y-34606250D01*
G75*
G02*
X163993750Y-34387500I218750J0D01*
G01*
G37*
%TD.AperFunction*%
%TO.P,LED1,1*%
%TO.N,Net-(LED1-Pad1)*%
%TA.AperFunction,SMDPad,CuDef*%
G36*
G01*
X163993750Y-32812500D02*
X164506250Y-32812500D01*
G75*
G02*
X164725000Y-33031250I0J-218750D01*
G01*
X164725000Y-33468750D01*
G75*
G02*
X164506250Y-33687500I-218750J0D01*
G01*
X163993750Y-33687500D01*
G75*
G02*
X163775000Y-33468750I0J218750D01*
G01*
X163775000Y-33031250D01*
G75*
G02*
X163993750Y-32812500I218750J0D01*
G01*
G37*
%TD.AperFunction*%
%TD*%
%TO.P,LED2,2*%
%TO.N,Net-(LED2-Pad2)*%
%TA.AperFunction,SMDPad,CuDef*%
G36*
G01*
X187493750Y-34387500D02*
X188006250Y-34387500D01*
G75*
G02*
X188225000Y-34606250I0J-218750D01*
G01*
X188225000Y-35043750D01*
G75*
G02*
X188006250Y-35262500I-218750J0D01*
G01*
X187493750Y-35262500D01*
G75*
G02*
X187275000Y-35043750I0J218750D01*
G01*
X187275000Y-34606250D01*
G75*
G02*
X187493750Y-34387500I218750J0D01*
G01*
G37*
%TD.AperFunction*%
%TO.P,LED2,1*%
%TO.N,Net-(LED1-Pad1)*%
%TA.AperFunction,SMDPad,CuDef*%
G36*
G01*
X187493750Y-32812500D02*
X188006250Y-32812500D01*
G75*
G02*
X188225000Y-33031250I0J-218750D01*
G01*
X188225000Y-33468750D01*
G75*
G02*
X188006250Y-33687500I-218750J0D01*
G01*
X187493750Y-33687500D01*
G75*
G02*
X187275000Y-33468750I0J218750D01*
G01*
X187275000Y-33031250D01*
G75*
G02*
X187493750Y-32812500I218750J0D01*
G01*
G37*
%TD.AperFunction*%
%TD*%
%TO.P,C1,2*%
%TO.N,Earth*%
%TA.AperFunction,SMDPad,CuDef*%
G36*
G01*
X149565000Y-83655000D02*
X150065000Y-83655000D01*
G75*
G02*
X150290000Y-83880000I0J-225000D01*
G01*
X150290000Y-84330000D01*
G75*
G02*
X150065000Y-84555000I-225000J0D01*
G01*
X149565000Y-84555000D01*
G75*
G02*
X149340000Y-84330000I0J225000D01*
G01*
X149340000Y-83880000D01*
G75*
G02*
X149565000Y-83655000I225000J0D01*
G01*
G37*
%TD.AperFunction*%
%TO.P,C1,1*%
%TO.N,Net-(C1-Pad1)*%
%TA.AperFunction,SMDPad,CuDef*%
G36*
G01*
X149565000Y-82105000D02*
X150065000Y-82105000D01*
G75*
G02*
X150290000Y-82330000I0J-225000D01*
G01*
X150290000Y-82780000D01*
G75*
G02*
X150065000Y-83005000I-225000J0D01*
G01*
X149565000Y-83005000D01*
G75*
G02*
X149340000Y-82780000I0J225000D01*
G01*
X149340000Y-82330000D01*
G75*
G02*
X149565000Y-82105000I225000J0D01*
G01*
G37*
%TD.AperFunction*%
%TD*%
%TO.P,C2,1*%
%TO.N,Net-(C2-Pad1)*%
%TA.AperFunction,SMDPad,CuDef*%
G36*
G01*
X151765000Y-86755000D02*
X151765000Y-86255000D01*
G75*
G02*
X151990000Y-86030000I225000J0D01*
G01*
X152440000Y-86030000D01*
G75*
G02*
X152665000Y-86255000I0J-225000D01*
G01*
X152665000Y-86755000D01*
G75*
G02*
X152440000Y-86980000I-225000J0D01*
G01*
X151990000Y-86980000D01*
G75*
G02*
X151765000Y-86755000I0J225000D01*
G01*
G37*
%TD.AperFunction*%
%TO.P,C2,2*%
%TO.N,Earth*%
%TA.AperFunction,SMDPad,CuDef*%
G36*
G01*
X153315000Y-86755000D02*
X153315000Y-86255000D01*
G75*
G02*
X153540000Y-86030000I225000J0D01*
G01*
X153990000Y-86030000D01*
G75*
G02*
X154215000Y-86255000I0J-225000D01*
G01*
X154215000Y-86755000D01*
G75*
G02*
X153990000Y-86980000I-225000J0D01*
G01*
X153540000Y-86980000D01*
G75*
G02*
X153315000Y-86755000I0J225000D01*
G01*
G37*
%TD.AperFunction*%
%TD*%
%TO.P,C3,2*%
%TO.N,Earth*%
%TA.AperFunction,SMDPad,CuDef*%
G36*
G01*
X155915000Y-83655000D02*
X156415000Y-83655000D01*
G75*
G02*
X156640000Y-83880000I0J-225000D01*
G01*
X156640000Y-84330000D01*
G75*
G02*
X156415000Y-84555000I-225000J0D01*
G01*
X155915000Y-84555000D01*
G75*
G02*
X155690000Y-84330000I0J225000D01*
G01*
X155690000Y-83880000D01*
G75*
G02*
X155915000Y-83655000I225000J0D01*
G01*
G37*
%TD.AperFunction*%
%TO.P,C3,1*%
%TO.N,Net-(C3-Pad1)*%
%TA.AperFunction,SMDPad,CuDef*%
G36*
G01*
X155915000Y-82105000D02*
X156415000Y-82105000D01*
G75*
G02*
X156640000Y-82330000I0J-225000D01*
G01*
X156640000Y-82780000D01*
G75*
G02*
X156415000Y-83005000I-225000J0D01*
G01*
X155915000Y-83005000D01*
G75*
G02*
X155690000Y-82780000I0J225000D01*
G01*
X155690000Y-82330000D01*
G75*
G02*
X155915000Y-82105000I225000J0D01*
G01*
G37*
%TD.AperFunction*%
%TD*%
D11*
%TO.P,J1,2*%
%TO.N,Net-(J1-Pad2)*%
X160300000Y-33700000D03*
D12*
%TO.P,J1,1*%
%TO.N,Earth*%
X150900000Y-33700000D03*
%TO.P,J1,3*%
%TO.N,Net-(J1-Pad3)*%
X152900000Y-26300000D03*
D13*
%TO.P,J1,4*%
%TO.N,Net-(J1-Pad4)*%
X164300000Y-29250000D03*
%TD*%
%TO.P,J2,4*%
%TO.N,Net-(J2-Pad4)*%
X187700000Y-30750000D03*
D12*
%TO.P,J2,3*%
%TO.N,Net-(J2-Pad3)*%
X199100000Y-33700000D03*
%TO.P,J2,1*%
%TO.N,Earth*%
X201100000Y-26300000D03*
D11*
%TO.P,J2,2*%
%TO.N,Net-(J2-Pad2)*%
X191700000Y-26300000D03*
%TD*%
%TO.P,R1,1*%
%TO.N,Net-(LED1-Pad1)*%
%TA.AperFunction,SMDPad,CuDef*%
G36*
G01*
X175225000Y-36700000D02*
X175775000Y-36700000D01*
G75*
G02*
X175975000Y-36900000I0J-200000D01*
G01*
X175975000Y-37300000D01*
G75*
G02*
X175775000Y-37500000I-200000J0D01*
G01*
X175225000Y-37500000D01*
G75*
G02*
X175025000Y-37300000I0J200000D01*
G01*
X175025000Y-36900000D01*
G75*
G02*
X175225000Y-36700000I200000J0D01*
G01*
G37*
%TD.AperFunction*%
%TO.P,R1,2*%
%TO.N,Earth*%
%TA.AperFunction,SMDPad,CuDef*%
G36*
G01*
X175225000Y-38350000D02*
X175775000Y-38350000D01*
G75*
G02*
X175975000Y-38550000I0J-200000D01*
G01*
X175975000Y-38950000D01*
G75*
G02*
X175775000Y-39150000I-200000J0D01*
G01*
X175225000Y-39150000D01*
G75*
G02*
X175025000Y-38950000I0J200000D01*
G01*
X175025000Y-38550000D01*
G75*
G02*
X175225000Y-38350000I200000J0D01*
G01*
G37*
%TD.AperFunction*%
%TD*%
D14*
%TO.P,U1,17*%
%TO.N,Net-(U1-Pad17)*%
X161490000Y-84000000D03*
%TO.P,U1,18*%
%TO.N,Net-(U1-Pad18)*%
X161490000Y-86540000D03*
%TO.P,U1,19*%
%TO.N,Net-(J2-Pad3)*%
X161490000Y-89080000D03*
%TO.P,U1,20*%
%TO.N,Net-(U1-Pad20)*%
X161490000Y-91620000D03*
%TO.P,U1,16*%
%TO.N,Net-(C1-Pad1)*%
X161490000Y-81460000D03*
%TO.P,U1,15*%
%TO.N,Net-(U1-Pad15)*%
X161490000Y-78920000D03*
%TO.P,U1,14*%
%TO.N,Net-(U1-Pad14)*%
X161490000Y-76380000D03*
%TO.P,U1,21*%
%TO.N,Net-(U1-Pad21)*%
X164030000Y-91620000D03*
%TO.P,U1,22*%
%TO.N,Net-(U1-Pad22)*%
X166570000Y-91620000D03*
%TO.P,U1,23*%
%TO.N,Net-(POGO1-Pad12)*%
X169110000Y-91620000D03*
%TO.P,U1,24*%
%TO.N,Net-(POGO1-Pad6)*%
X171650000Y-91620000D03*
%TO.P,U1,25*%
%TO.N,Net-(U1-Pad25)*%
X174190000Y-91620000D03*
%TO.P,U1,26*%
%TO.N,Net-(U1-Pad26)*%
X176730000Y-91620000D03*
%TO.P,U1,27*%
%TO.N,Net-(LED1-Pad2)*%
X179270000Y-91620000D03*
%TO.P,U1,28*%
%TO.N,Net-(LED2-Pad2)*%
X181810000Y-91620000D03*
%TO.P,U1,29*%
%TO.N,Net-(U1-Pad29)*%
X184350000Y-91620000D03*
%TO.P,U1,30*%
%TO.N,Net-(U1-Pad30)*%
X186890000Y-91620000D03*
%TO.P,U1,31*%
%TO.N,Net-(U1-Pad31)*%
X189430000Y-91620000D03*
%TO.P,U1,32*%
%TO.N,Net-(U1-Pad32)*%
X191970000Y-91620000D03*
%TO.P,U1,33*%
%TO.N,Net-(POGO1-Pad4)*%
X194510000Y-91620000D03*
%TO.P,U1,34*%
%TO.N,Net-(U1-Pad34)*%
X191970000Y-89080000D03*
%TO.P,U1,35*%
%TO.N,Net-(U1-Pad35)*%
X186890000Y-89080000D03*
%TO.P,U1,36*%
%TO.N,Net-(U1-Pad36)*%
X184350000Y-89080000D03*
%TO.P,U1,37*%
%TO.N,Net-(U1-Pad37)*%
X181810000Y-89080000D03*
%TO.P,U1,13*%
%TO.N,Net-(U1-Pad13)*%
X164030000Y-76380000D03*
%TO.P,U1,12*%
%TO.N,Net-(U1-Pad12)*%
X166570000Y-76380000D03*
%TO.P,U1,11*%
%TO.N,Net-(SW2-Pad2)*%
X169110000Y-76380000D03*
%TO.P,U1,10*%
%TO.N,Net-(J2-Pad2)*%
X171650000Y-76380000D03*
%TO.P,U1,9*%
%TO.N,Net-(POGO1-Pad3)*%
X174190000Y-76380000D03*
%TO.P,U1,8*%
%TO.N,Net-(POGO1-Pad5)*%
X176730000Y-76380000D03*
%TO.P,U1,7*%
%TO.N,Net-(POGO1-Pad7)*%
X179270000Y-76380000D03*
%TO.P,U1,6*%
%TO.N,Net-(POGO1-Pad9)*%
X181810000Y-76380000D03*
%TO.P,U1,5*%
%TO.N,Net-(SW1-Pad2)*%
X184350000Y-76380000D03*
%TO.P,U1,4*%
%TO.N,Net-(U1-Pad4)*%
X186890000Y-76380000D03*
%TO.P,U1,3*%
%TO.N,Net-(U1-Pad3)*%
X189430000Y-76380000D03*
%TO.P,U1,2*%
%TO.N,Net-(U1-Pad2)*%
X191970000Y-76380000D03*
D15*
%TO.P,U1,1*%
%TO.N,Earth*%
X194510000Y-76380000D03*
D16*
%TO.P,U1,52*%
%TO.N,N/C*%
X184350000Y-84000000D03*
X188160000Y-84000000D03*
%TD*%
D17*
%TO.P,U2,P$1*%
%TO.N,Net-(C1-Pad1)*%
X151990000Y-84610000D03*
%TO.P,U2,P$2*%
%TO.N,Net-(C2-Pad1)*%
X152490000Y-84610000D03*
%TO.P,U2,P$3*%
%TO.N,Earth*%
X152990000Y-84610000D03*
%TO.P,U2,P$4*%
%TO.N,Net-(U1-Pad25)*%
X153490000Y-84610000D03*
%TO.P,U2,P$5*%
%TO.N,Earth*%
X153990000Y-84610000D03*
D18*
%TO.P,U2,P$6*%
%TO.N,Net-(U1-Pad26)*%
X154270000Y-83830000D03*
%TO.P,U2,P$7*%
%TO.N,Earth*%
X154270000Y-83330000D03*
%TO.P,U2,P$8*%
%TO.N,Net-(C3-Pad1)*%
X154270000Y-82830000D03*
D17*
%TO.P,U2,P$9*%
%TO.N,Net-(U1-Pad4)*%
X153990000Y-82050000D03*
%TO.P,U2,P$10*%
%TO.N,Earth*%
X153490000Y-82050000D03*
%TO.P,U2,P$11*%
%TO.N,Net-(U2-PadP$11)*%
X152990000Y-82050000D03*
%TO.P,U2,P$12*%
%TO.N,Earth*%
X152490000Y-82050000D03*
%TO.P,U2,P$13*%
X151990000Y-82050000D03*
D18*
%TO.P,U2,P$14*%
%TO.N,Net-(C1-Pad1)*%
X151710000Y-82830000D03*
%TO.P,U2,P$15*%
%TO.N,Net-(U2-PadP$15)*%
X151710000Y-83330000D03*
%TO.P,U2,P$16*%
%TO.N,Earth*%
X151710000Y-83830000D03*
%TD*%
D19*
%TO.P,POGO1,1*%
%TO.N,Net-(POGO1-Pad1)*%
X168960800Y-43586400D03*
D20*
%TO.P,POGO1,2*%
%TO.N,Earth*%
X168960800Y-41046400D03*
%TO.P,POGO1,3*%
%TO.N,Net-(POGO1-Pad3)*%
X171500800Y-43586400D03*
%TO.P,POGO1,4*%
%TO.N,Net-(POGO1-Pad4)*%
X171500800Y-41046400D03*
%TO.P,POGO1,5*%
%TO.N,Net-(POGO1-Pad5)*%
X174040800Y-43586400D03*
%TO.P,POGO1,6*%
%TO.N,Net-(POGO1-Pad6)*%
X174040800Y-41046400D03*
%TO.P,POGO1,7*%
%TO.N,Net-(POGO1-Pad7)*%
X176580800Y-43586400D03*
%TO.P,POGO1,8*%
%TO.N,Net-(POGO1-Pad8)*%
X176580800Y-41046400D03*
%TO.P,POGO1,9*%
%TO.N,Net-(POGO1-Pad9)*%
X179120800Y-43586400D03*
%TO.P,POGO1,10*%
%TO.N,Net-(POGO1-Pad10)*%
X179120800Y-41046400D03*
%TO.P,POGO1,11*%
%TO.N,Net-(POGO1-Pad11)*%
X181660800Y-43586400D03*
%TO.P,POGO1,12*%
%TO.N,Net-(POGO1-Pad12)*%
X181660800Y-41046400D03*
%TD*%
D21*
%TO.N,Net-(C1-Pad1)*%
X149860000Y-81280000D03*
X150876000Y-85090000D03*
%TO.N,Earth*%
X154686000Y-81282301D03*
X157734000Y-81282301D03*
X192278000Y-35814000D03*
X189230000Y-35814008D03*
X199644000Y-80264000D03*
X203200000Y-80264000D03*
%TO.N,Net-(J2-Pad3)*%
X203454000Y-74676000D03*
X201422000Y-33782000D03*
X203454000Y-58420000D03*
%TO.N,Net-(J2-Pad2)*%
X190754000Y-36830000D03*
X179323992Y-82042000D03*
%TO.N,Net-(LED1-Pad2)*%
X161798000Y-37338000D03*
X147574000Y-71374000D03*
%TO.N,Net-(LED2-Pad2)*%
X200914000Y-88138000D03*
X204216000Y-36576000D03*
X189230000Y-34798000D03*
X194310000Y-34798000D03*
%TO.N,Net-(SW1-Pad2)*%
X204724000Y-66040000D03*
X201676000Y-85090000D03*
%TO.N,Net-(SW2-Pad2)*%
X167830005Y-77659995D03*
X146812014Y-73152000D03*
%TO.N,Net-(U1-Pad25)*%
X164084000Y-87884000D03*
X154940000Y-85598000D03*
%TO.N,Net-(U1-Pad26)*%
X155163117Y-83983183D03*
X165608000Y-87884000D03*
%TO.N,Net-(U1-Pad4)*%
X155280042Y-81904601D03*
X185674000Y-82042000D03*
%TO.N,Net-(POGO1-Pad4)*%
X190246000Y-38862000D03*
%TO.N,Net-(POGO1-Pad5)*%
X180594000Y-82042000D03*
%TO.N,Net-(POGO1-Pad6)*%
X148336000Y-78485996D03*
X148221690Y-69850000D03*
X172817935Y-42320064D03*
%TO.N,Net-(POGO1-Pad7)*%
X181864000Y-82042000D03*
%TO.N,Net-(POGO1-Pad9)*%
X183469546Y-82042000D03*
%TO.N,Net-(POGO1-Pad12)*%
X160528000Y-46990000D03*
X149111968Y-76962000D03*
X149606000Y-78994000D03*
%TD*%
D22*
%TO.N,Net-(C1-Pad1)*%
X151560599Y-81426479D02*
X152327077Y-80660001D01*
X151560599Y-82680599D02*
X151560599Y-81426479D01*
X160690001Y-80660001D02*
X161490000Y-81460000D01*
X152327077Y-80660001D02*
X160690001Y-80660001D01*
X151710000Y-82830000D02*
X151560599Y-82680599D01*
X150090000Y-82830000D02*
X149815000Y-82555000D01*
X151710000Y-82830000D02*
X150090000Y-82830000D01*
X149860000Y-82510000D02*
X149815000Y-82555000D01*
X149860000Y-81280000D02*
X149860000Y-82510000D01*
X151990000Y-84610000D02*
X151356000Y-84610000D01*
X151356000Y-84610000D02*
X150876000Y-85090000D01*
%TO.N,Earth*%
X194510000Y-76400000D02*
X199898000Y-81788000D01*
X194510000Y-76380000D02*
X194510000Y-76400000D01*
X150090000Y-83830000D02*
X149815000Y-84105000D01*
X151710000Y-83830000D02*
X150090000Y-83830000D01*
X155390000Y-83330000D02*
X156165000Y-84105000D01*
X154270000Y-83330000D02*
X155390000Y-83330000D01*
X156210000Y-84150000D02*
X156165000Y-84105000D01*
X156210000Y-85344000D02*
X156210000Y-84150000D01*
X154912000Y-84610000D02*
X155646000Y-85344000D01*
X155646000Y-85344000D02*
X156210000Y-85344000D01*
X153990000Y-84610000D02*
X154912000Y-84610000D01*
X157734000Y-81282301D02*
X157734000Y-84074000D01*
X156196000Y-84074000D02*
X156165000Y-84105000D01*
X157734000Y-84074000D02*
X156196000Y-84074000D01*
X153490000Y-82050000D02*
X153490000Y-81354000D01*
X153490000Y-81354000D02*
X153418301Y-81282301D01*
X153418301Y-81282301D02*
X154686000Y-81282301D01*
X152757699Y-81282301D02*
X153418301Y-81282301D01*
X201100000Y-26300000D02*
X199760000Y-26300000D01*
X201100000Y-26992000D02*
X192278000Y-35814000D01*
X201100000Y-26300000D02*
X201100000Y-26992000D01*
X146525000Y-63917400D02*
X148499400Y-63917400D01*
X150900000Y-46704854D02*
X150900000Y-33700000D01*
X148499400Y-49105454D02*
X150900000Y-46704854D01*
X148499400Y-63917400D02*
X148499400Y-49105454D01*
X152990000Y-85730000D02*
X153765000Y-86505000D01*
X152990000Y-84610000D02*
X152990000Y-85730000D01*
X152397699Y-81282301D02*
X152757699Y-81282301D01*
X151990000Y-81690000D02*
X152397699Y-81282301D01*
X151990000Y-82050000D02*
X151990000Y-81690000D01*
X152490000Y-81282301D02*
X152757699Y-81282301D01*
X152490000Y-82050000D02*
X152490000Y-81282301D01*
X205475000Y-77989000D02*
X203200000Y-80264000D01*
X205475000Y-68275000D02*
X205475000Y-77989000D01*
%TO.N,Net-(C2-Pad1)*%
X152490000Y-86230000D02*
X152215000Y-86505000D01*
X152490000Y-84610000D02*
X152490000Y-86230000D01*
%TO.N,Net-(C3-Pad1)*%
X155890000Y-82830000D02*
X156165000Y-82555000D01*
X154270000Y-82830000D02*
X155890000Y-82830000D01*
%TO.N,Net-(J2-Pad3)*%
X199182000Y-33782000D02*
X199100000Y-33700000D01*
X201422000Y-33782000D02*
X199182000Y-33782000D01*
X203454000Y-58420000D02*
X202685821Y-59188179D01*
X202685821Y-60284076D02*
X201685821Y-61284075D01*
X202685821Y-71715924D02*
X202685821Y-73907821D01*
X201685821Y-70715924D02*
X202685821Y-71715924D01*
X202685821Y-73907821D02*
X203454000Y-74676000D01*
X202685821Y-59188179D02*
X202685821Y-60284076D01*
X201685821Y-61284075D02*
X201685821Y-70715924D01*
%TO.N,Net-(J2-Pad2)*%
X191700000Y-26300000D02*
X191700000Y-27756000D01*
X190754000Y-28702000D02*
X190754000Y-36830000D01*
X191700000Y-27756000D02*
X190754000Y-28702000D01*
X177292000Y-78232000D02*
X179323992Y-80263992D01*
X173502000Y-78232000D02*
X177292000Y-78232000D01*
X179323992Y-80263992D02*
X179323992Y-82042000D01*
X171650000Y-76380000D02*
X173502000Y-78232000D01*
%TO.N,Net-(LED1-Pad2)*%
X164250000Y-34886000D02*
X161798000Y-37338000D01*
X164250000Y-34825000D02*
X164250000Y-34886000D01*
X147574000Y-73565008D02*
X147574000Y-71374000D01*
X147574000Y-85852000D02*
X147574000Y-73565008D01*
X156210000Y-94488000D02*
X147574000Y-85852000D01*
X176402000Y-94488000D02*
X156210000Y-94488000D01*
X179270000Y-91620000D02*
X176402000Y-94488000D01*
%TO.N,Net-(LED1-Pad1)*%
X185658000Y-37100000D02*
X175500000Y-37100000D01*
X186750000Y-36008000D02*
X185658000Y-37100000D01*
X186750000Y-33250000D02*
X186750000Y-36008000D01*
X187750000Y-33250000D02*
X186750000Y-33250000D01*
X166364000Y-37100000D02*
X167100000Y-37100000D01*
X165250000Y-35986000D02*
X166364000Y-37100000D01*
X165250000Y-33250000D02*
X165250000Y-35986000D01*
X167100000Y-37100000D02*
X175500000Y-37100000D01*
X164250000Y-33250000D02*
X165250000Y-33250000D01*
%TO.N,Net-(LED2-Pad2)*%
X181810000Y-91620000D02*
X183896000Y-93706000D01*
X183896000Y-93706000D02*
X194036000Y-93706000D01*
X195346000Y-93706000D02*
X200914000Y-88138000D01*
X194036000Y-93706000D02*
X195346000Y-93706000D01*
X189203000Y-34825000D02*
X189230000Y-34798000D01*
X187750000Y-34825000D02*
X189203000Y-34825000D01*
X196088000Y-36576000D02*
X194310000Y-34798000D01*
X204216000Y-36576000D02*
X196088000Y-36576000D01*
%TO.N,Net-(SW1-Pad2)*%
X204724000Y-64476000D02*
X205475000Y-63725000D01*
X204724000Y-66040000D02*
X204724000Y-64476000D01*
X198996302Y-82410302D02*
X201333101Y-84747101D01*
X186804302Y-82410302D02*
X198996302Y-82410302D01*
X186550302Y-82664302D02*
X186804302Y-82410302D01*
X201333101Y-84747101D02*
X201676000Y-85090000D01*
X185375294Y-82664302D02*
X186550302Y-82664302D01*
X184350000Y-81639008D02*
X185375294Y-82664302D01*
X184350000Y-76380000D02*
X184350000Y-81639008D01*
%TO.N,Net-(SW2-Pad2)*%
X169110000Y-76380000D02*
X167830005Y-77659995D01*
X146812000Y-73151986D02*
X146812014Y-73152000D01*
X146812000Y-68754400D02*
X146812000Y-73151986D01*
X146525000Y-68467400D02*
X146812000Y-68754400D01*
%TO.N,Net-(U1-Pad25)*%
X153824000Y-85598000D02*
X154940000Y-85598000D01*
X153490000Y-85264000D02*
X153824000Y-85598000D01*
X153490000Y-84610000D02*
X153490000Y-85264000D01*
X172740000Y-90170000D02*
X174190000Y-91620000D01*
X164592000Y-90170000D02*
X172740000Y-90170000D01*
X164084000Y-89662000D02*
X164592000Y-90170000D01*
X164084000Y-87884000D02*
X164084000Y-89662000D01*
%TO.N,Net-(U1-Pad26)*%
X155009934Y-83830000D02*
X155163117Y-83983183D01*
X154270000Y-83830000D02*
X155009934Y-83830000D01*
X167132000Y-89408000D02*
X165608000Y-87884000D01*
X174518000Y-89408000D02*
X167132000Y-89408000D01*
X176730000Y-91620000D02*
X174518000Y-89408000D01*
%TO.N,Net-(U1-Pad4)*%
X155134643Y-82050000D02*
X155280042Y-81904601D01*
X153990000Y-82050000D02*
X155134643Y-82050000D01*
X186890000Y-76380000D02*
X186890000Y-80826000D01*
X186890000Y-80826000D02*
X185674000Y-82042000D01*
%TO.N,Net-(POGO1-Pad4)*%
X201279410Y-70884264D02*
X201279410Y-61115736D01*
X193257146Y-38862000D02*
X190730933Y-38862000D01*
X202806302Y-84975698D02*
X202806302Y-82251294D01*
X202806302Y-82251294D02*
X201422000Y-80866992D01*
X190730933Y-38862000D02*
X190246000Y-38862000D01*
X202279410Y-74115736D02*
X202279410Y-71884264D01*
X196162000Y-91620000D02*
X202806302Y-84975698D01*
X201279410Y-61115736D02*
X202279410Y-60115736D01*
X202279410Y-47884264D02*
X193257146Y-38862000D01*
X201422000Y-80866992D02*
X201422000Y-74973146D01*
X194510000Y-91620000D02*
X196162000Y-91620000D01*
X202279410Y-60115736D02*
X202279410Y-47884264D01*
X201422000Y-74973146D02*
X202279410Y-74115736D01*
X202279410Y-71884264D02*
X201279410Y-70884264D01*
%TO.N,Net-(POGO1-Pad5)*%
X180594000Y-80772000D02*
X180594000Y-82042000D01*
X176730000Y-76908000D02*
X180594000Y-80772000D01*
X176730000Y-76380000D02*
X176730000Y-76908000D01*
%TO.N,Net-(POGO1-Pad6)*%
X174040800Y-41046400D02*
X172817935Y-42269265D01*
X172817935Y-42269265D02*
X172817935Y-42320064D01*
X148336000Y-78485996D02*
X148336000Y-69964310D01*
X148336000Y-69964310D02*
X148221690Y-69850000D01*
%TO.N,Net-(POGO1-Pad7)*%
X181864000Y-81280000D02*
X181864000Y-82042000D01*
X179270000Y-78686000D02*
X181864000Y-81280000D01*
X179270000Y-76380000D02*
X179270000Y-78686000D01*
%TO.N,Net-(POGO1-Pad9)*%
X181810000Y-80382454D02*
X183469546Y-82042000D01*
X181810000Y-76380000D02*
X181810000Y-80382454D01*
%TO.N,Net-(POGO1-Pad12)*%
X149111968Y-78499968D02*
X149606000Y-78994000D01*
X149111968Y-76962000D02*
X149111968Y-78499968D01*
X183642000Y-42926000D02*
X181762400Y-41046400D01*
X183642000Y-47498000D02*
X183642000Y-42926000D01*
X161036000Y-47498000D02*
X183642000Y-47498000D01*
X181762400Y-41046400D02*
X181660800Y-41046400D01*
X160528000Y-46990000D02*
X161036000Y-47498000D01*
%TD*%
%TO.N,Earth*%
X151161928Y-27700000D02*
X151174188Y-27824482D01*
X151210498Y-27944180D01*
X151269463Y-28054494D01*
X151348815Y-28151185D01*
X151445506Y-28230537D01*
X151555820Y-28289502D01*
X151675518Y-28325812D01*
X151800000Y-28338072D01*
X154000000Y-28338072D01*
X154124482Y-28325812D01*
X154244180Y-28289502D01*
X154354494Y-28230537D01*
X154451185Y-28151185D01*
X154530537Y-28054494D01*
X154589502Y-27944180D01*
X154625812Y-27824482D01*
X154638072Y-27700000D01*
X154638072Y-25127000D01*
X163947394Y-25127000D01*
X164873000Y-26052606D01*
X164873000Y-27211928D01*
X163000000Y-27211928D01*
X162875518Y-27224188D01*
X162755820Y-27260498D01*
X162645506Y-27319463D01*
X162548815Y-27398815D01*
X162469463Y-27495506D01*
X162410498Y-27605820D01*
X162374188Y-27725518D01*
X162361928Y-27850000D01*
X162361928Y-30650000D01*
X162374188Y-30774482D01*
X162410498Y-30894180D01*
X162469463Y-31004494D01*
X162548815Y-31101185D01*
X162645506Y-31180537D01*
X162755820Y-31239502D01*
X162875518Y-31275812D01*
X163000000Y-31288072D01*
X164873000Y-31288072D01*
X164873000Y-32260420D01*
X164834142Y-32239650D01*
X164673408Y-32190892D01*
X164506250Y-32174428D01*
X163993750Y-32174428D01*
X163826592Y-32190892D01*
X163665858Y-32239650D01*
X163517725Y-32318829D01*
X163387885Y-32425385D01*
X163281329Y-32555225D01*
X163202150Y-32703358D01*
X163153392Y-32864092D01*
X163136928Y-33031250D01*
X163136928Y-33468750D01*
X163153392Y-33635908D01*
X163202150Y-33796642D01*
X163281329Y-33944775D01*
X163357426Y-34037500D01*
X163281329Y-34130225D01*
X163202150Y-34278358D01*
X163153392Y-34439092D01*
X163136928Y-34606250D01*
X163136928Y-34921442D01*
X161697422Y-36360948D01*
X161512757Y-36397680D01*
X161334790Y-36471396D01*
X161174625Y-36578415D01*
X161038415Y-36714625D01*
X160931396Y-36874790D01*
X160857680Y-37052757D01*
X160820100Y-37241685D01*
X160820100Y-37434315D01*
X160857680Y-37623243D01*
X160931396Y-37801210D01*
X161038415Y-37961375D01*
X161174625Y-38097585D01*
X161334790Y-38204604D01*
X161512757Y-38278320D01*
X161701685Y-38315900D01*
X161894315Y-38315900D01*
X162083243Y-38278320D01*
X162261210Y-38204604D01*
X162421375Y-38097585D01*
X162557585Y-37961375D01*
X162664604Y-37801210D01*
X162738320Y-37623243D01*
X162775052Y-37438578D01*
X164313058Y-35900572D01*
X164488001Y-35900572D01*
X164488001Y-35948567D01*
X164484314Y-35986000D01*
X164499027Y-36135378D01*
X164542599Y-36279015D01*
X164613355Y-36411392D01*
X164676068Y-36487807D01*
X164708579Y-36527422D01*
X164737649Y-36551279D01*
X165798721Y-37612352D01*
X165822578Y-37641422D01*
X165851648Y-37665279D01*
X165938607Y-37736645D01*
X165988648Y-37763392D01*
X166070985Y-37807402D01*
X166214622Y-37850974D01*
X166326574Y-37862000D01*
X166326577Y-37862000D01*
X166364000Y-37865686D01*
X166401423Y-37862000D01*
X174607276Y-37862000D01*
X174611863Y-37867590D01*
X174573815Y-37898815D01*
X174494463Y-37995506D01*
X174435498Y-38105820D01*
X174399188Y-38225518D01*
X174386928Y-38350000D01*
X174390000Y-38464250D01*
X174548750Y-38623000D01*
X175373000Y-38623000D01*
X175373000Y-38603000D01*
X175627000Y-38603000D01*
X175627000Y-38623000D01*
X176451250Y-38623000D01*
X176610000Y-38464250D01*
X176613072Y-38350000D01*
X176600812Y-38225518D01*
X176564502Y-38105820D01*
X176505537Y-37995506D01*
X176426185Y-37898815D01*
X176388137Y-37867590D01*
X176392724Y-37862000D01*
X185620577Y-37862000D01*
X185658000Y-37865686D01*
X185695423Y-37862000D01*
X185695426Y-37862000D01*
X185807378Y-37850974D01*
X185951015Y-37807402D01*
X186083392Y-37736645D01*
X186199422Y-37641422D01*
X186223284Y-37612346D01*
X187262352Y-36573279D01*
X187291422Y-36549422D01*
X187386645Y-36433392D01*
X187457402Y-36301015D01*
X187500974Y-36157378D01*
X187512000Y-36045426D01*
X187512000Y-36045424D01*
X187515686Y-36008001D01*
X187512000Y-35970578D01*
X187512000Y-35900572D01*
X188006250Y-35900572D01*
X188173408Y-35884108D01*
X188334142Y-35835350D01*
X188482275Y-35756171D01*
X188612115Y-35649615D01*
X188658949Y-35592547D01*
X188766790Y-35664604D01*
X188944757Y-35738320D01*
X189133685Y-35775900D01*
X189326315Y-35775900D01*
X189515243Y-35738320D01*
X189693210Y-35664604D01*
X189853375Y-35557585D01*
X189989585Y-35421375D01*
X189992001Y-35417759D01*
X189992001Y-36210238D01*
X189887396Y-36366790D01*
X189813680Y-36544757D01*
X189776100Y-36733685D01*
X189776100Y-36926315D01*
X189813680Y-37115243D01*
X189887396Y-37293210D01*
X189994415Y-37453375D01*
X190130625Y-37589585D01*
X190290790Y-37696604D01*
X190468757Y-37770320D01*
X190657685Y-37807900D01*
X190850315Y-37807900D01*
X191039243Y-37770320D01*
X191217210Y-37696604D01*
X191377375Y-37589585D01*
X191513585Y-37453375D01*
X191620604Y-37293210D01*
X191694320Y-37115243D01*
X191731900Y-36926315D01*
X191731900Y-36733685D01*
X191694320Y-36544757D01*
X191620604Y-36366790D01*
X191516000Y-36210239D01*
X191516000Y-32300000D01*
X197361928Y-32300000D01*
X197361928Y-35100000D01*
X197374188Y-35224482D01*
X197410498Y-35344180D01*
X197469463Y-35454494D01*
X197548815Y-35551185D01*
X197645506Y-35630537D01*
X197755820Y-35689502D01*
X197875518Y-35725812D01*
X198000000Y-35738072D01*
X200200000Y-35738072D01*
X200324482Y-35725812D01*
X200444180Y-35689502D01*
X200554494Y-35630537D01*
X200651185Y-35551185D01*
X200730537Y-35454494D01*
X200789502Y-35344180D01*
X200825812Y-35224482D01*
X200838072Y-35100000D01*
X200838072Y-34567943D01*
X200958790Y-34648604D01*
X201136757Y-34722320D01*
X201325685Y-34759900D01*
X201518315Y-34759900D01*
X201707243Y-34722320D01*
X201885210Y-34648604D01*
X202045375Y-34541585D01*
X202181585Y-34405375D01*
X202288604Y-34245210D01*
X202362320Y-34067243D01*
X202399900Y-33878315D01*
X202399900Y-33685685D01*
X202362320Y-33496757D01*
X202288604Y-33318790D01*
X202181585Y-33158625D01*
X202045375Y-33022415D01*
X201885210Y-32915396D01*
X201707243Y-32841680D01*
X201518315Y-32804100D01*
X201325685Y-32804100D01*
X201136757Y-32841680D01*
X200958790Y-32915396D01*
X200838072Y-32996057D01*
X200838072Y-32300000D01*
X200825812Y-32175518D01*
X200789502Y-32055820D01*
X200730537Y-31945506D01*
X200651185Y-31848815D01*
X200554494Y-31769463D01*
X200444180Y-31710498D01*
X200324482Y-31674188D01*
X200200000Y-31661928D01*
X198000000Y-31661928D01*
X197875518Y-31674188D01*
X197755820Y-31710498D01*
X197645506Y-31769463D01*
X197548815Y-31848815D01*
X197469463Y-31945506D01*
X197410498Y-32055820D01*
X197374188Y-32175518D01*
X197361928Y-32300000D01*
X191516000Y-32300000D01*
X191516000Y-30151287D01*
X191572068Y-30433158D01*
X191684010Y-30703411D01*
X191846525Y-30946632D01*
X192053368Y-31153475D01*
X192296589Y-31315990D01*
X192566842Y-31427932D01*
X192853740Y-31485000D01*
X193146260Y-31485000D01*
X193433158Y-31427932D01*
X193703411Y-31315990D01*
X193946632Y-31153475D01*
X194153475Y-30946632D01*
X194315990Y-30703411D01*
X194427932Y-30433158D01*
X194485000Y-30146260D01*
X194485000Y-29853740D01*
X198515000Y-29853740D01*
X198515000Y-30146260D01*
X198572068Y-30433158D01*
X198684010Y-30703411D01*
X198846525Y-30946632D01*
X199053368Y-31153475D01*
X199296589Y-31315990D01*
X199566842Y-31427932D01*
X199853740Y-31485000D01*
X200146260Y-31485000D01*
X200433158Y-31427932D01*
X200703411Y-31315990D01*
X200946632Y-31153475D01*
X201153475Y-30946632D01*
X201315990Y-30703411D01*
X201427932Y-30433158D01*
X201485000Y-30146260D01*
X201485000Y-29853740D01*
X201427932Y-29566842D01*
X201315990Y-29296589D01*
X201153475Y-29053368D01*
X200946632Y-28846525D01*
X200703411Y-28684010D01*
X200433158Y-28572068D01*
X200146260Y-28515000D01*
X199853740Y-28515000D01*
X199566842Y-28572068D01*
X199296589Y-28684010D01*
X199053368Y-28846525D01*
X198846525Y-29053368D01*
X198684010Y-29296589D01*
X198572068Y-29566842D01*
X198515000Y-29853740D01*
X194485000Y-29853740D01*
X194427932Y-29566842D01*
X194315990Y-29296589D01*
X194153475Y-29053368D01*
X193946632Y-28846525D01*
X193703411Y-28684010D01*
X193433158Y-28572068D01*
X193146260Y-28515000D01*
X192853740Y-28515000D01*
X192566842Y-28572068D01*
X192296589Y-28684010D01*
X192053368Y-28846525D01*
X191846525Y-29053368D01*
X191684010Y-29296589D01*
X191572068Y-29566842D01*
X191516000Y-29848713D01*
X191516000Y-29017630D01*
X192195559Y-28338072D01*
X193100000Y-28338072D01*
X193224482Y-28325812D01*
X193344180Y-28289502D01*
X193454494Y-28230537D01*
X193551185Y-28151185D01*
X193630537Y-28054494D01*
X193689502Y-27944180D01*
X193725812Y-27824482D01*
X193738072Y-27700000D01*
X199361928Y-27700000D01*
X199374188Y-27824482D01*
X199410498Y-27944180D01*
X199469463Y-28054494D01*
X199548815Y-28151185D01*
X199645506Y-28230537D01*
X199755820Y-28289502D01*
X199875518Y-28325812D01*
X200000000Y-28338072D01*
X200814250Y-28335000D01*
X200973000Y-28176250D01*
X200973000Y-26427000D01*
X201227000Y-26427000D01*
X201227000Y-28176250D01*
X201385750Y-28335000D01*
X202200000Y-28338072D01*
X202324482Y-28325812D01*
X202444180Y-28289502D01*
X202554494Y-28230537D01*
X202651185Y-28151185D01*
X202730537Y-28054494D01*
X202789502Y-27944180D01*
X202825812Y-27824482D01*
X202838072Y-27700000D01*
X202835000Y-26585750D01*
X202676250Y-26427000D01*
X201227000Y-26427000D01*
X200973000Y-26427000D01*
X199523750Y-26427000D01*
X199365000Y-26585750D01*
X199361928Y-27700000D01*
X193738072Y-27700000D01*
X193738072Y-25127000D01*
X199362554Y-25127000D01*
X199365000Y-26014250D01*
X199523750Y-26173000D01*
X200973000Y-26173000D01*
X200973000Y-26153000D01*
X201227000Y-26153000D01*
X201227000Y-26173000D01*
X202676250Y-26173000D01*
X202835000Y-26014250D01*
X202837446Y-25127000D01*
X203947394Y-25127000D01*
X204873000Y-26052606D01*
X204873000Y-35850040D01*
X204839375Y-35816415D01*
X204679210Y-35709396D01*
X204501243Y-35635680D01*
X204312315Y-35598100D01*
X204119685Y-35598100D01*
X203930757Y-35635680D01*
X203752790Y-35709396D01*
X203596239Y-35814000D01*
X196403630Y-35814000D01*
X195287052Y-34697422D01*
X195250320Y-34512757D01*
X195176604Y-34334790D01*
X195069585Y-34174625D01*
X194933375Y-34038415D01*
X194773210Y-33931396D01*
X194595243Y-33857680D01*
X194406315Y-33820100D01*
X194213685Y-33820100D01*
X194024757Y-33857680D01*
X193846790Y-33931396D01*
X193686625Y-34038415D01*
X193550415Y-34174625D01*
X193443396Y-34334790D01*
X193369680Y-34512757D01*
X193332100Y-34701685D01*
X193332100Y-34894315D01*
X193369680Y-35083243D01*
X193443396Y-35261210D01*
X193550415Y-35421375D01*
X193686625Y-35557585D01*
X193846790Y-35664604D01*
X194024757Y-35738320D01*
X194209422Y-35775052D01*
X195522716Y-37088346D01*
X195546578Y-37117422D01*
X195620219Y-37177857D01*
X195662607Y-37212645D01*
X195716938Y-37241685D01*
X195794985Y-37283402D01*
X195938622Y-37326974D01*
X196050574Y-37338000D01*
X196050577Y-37338000D01*
X196088000Y-37341686D01*
X196125423Y-37338000D01*
X203596239Y-37338000D01*
X203752790Y-37442604D01*
X203930757Y-37516320D01*
X204119685Y-37553900D01*
X204312315Y-37553900D01*
X204501243Y-37516320D01*
X204679210Y-37442604D01*
X204839375Y-37335585D01*
X204873000Y-37301960D01*
X204873000Y-62361928D01*
X204706000Y-62361928D01*
X204581518Y-62374188D01*
X204461820Y-62410498D01*
X204351506Y-62469463D01*
X204254815Y-62548815D01*
X204175463Y-62645506D01*
X204116498Y-62755820D01*
X204080188Y-62875518D01*
X204067928Y-63000000D01*
X204067928Y-64086954D01*
X204016599Y-64182985D01*
X203973027Y-64326622D01*
X203958314Y-64476000D01*
X203962001Y-64513433D01*
X203962000Y-65420239D01*
X203857396Y-65576790D01*
X203783680Y-65754757D01*
X203746100Y-65943685D01*
X203746100Y-66136315D01*
X203783680Y-66325243D01*
X203857396Y-66503210D01*
X203964415Y-66663375D01*
X204100625Y-66799585D01*
X204260790Y-66906604D01*
X204430858Y-66977048D01*
X204351506Y-67019463D01*
X204254815Y-67098815D01*
X204175463Y-67195506D01*
X204116498Y-67305820D01*
X204080188Y-67425518D01*
X204067928Y-67550000D01*
X204071000Y-67989250D01*
X204229750Y-68148000D01*
X204873000Y-68148000D01*
X204873000Y-68402000D01*
X204229750Y-68402000D01*
X204071000Y-68560750D01*
X204067928Y-69000000D01*
X204080188Y-69124482D01*
X204116498Y-69244180D01*
X204175463Y-69354494D01*
X204254815Y-69451185D01*
X204351506Y-69530537D01*
X204461820Y-69589502D01*
X204581518Y-69625812D01*
X204706000Y-69638072D01*
X204873000Y-69635928D01*
X204873000Y-93947394D01*
X203947394Y-94873000D01*
X177094630Y-94873000D01*
X178948473Y-93019157D01*
X179128665Y-93055000D01*
X179411335Y-93055000D01*
X179688574Y-92999853D01*
X179949727Y-92891680D01*
X180184759Y-92734637D01*
X180384637Y-92534759D01*
X180540000Y-92302241D01*
X180695363Y-92534759D01*
X180895241Y-92734637D01*
X181130273Y-92891680D01*
X181391426Y-92999853D01*
X181668665Y-93055000D01*
X181951335Y-93055000D01*
X182131527Y-93019157D01*
X183330721Y-94218352D01*
X183354578Y-94247422D01*
X183470608Y-94342645D01*
X183602985Y-94413402D01*
X183746622Y-94456974D01*
X183858574Y-94468000D01*
X183858583Y-94468000D01*
X183895999Y-94471685D01*
X183933415Y-94468000D01*
X195308577Y-94468000D01*
X195346000Y-94471686D01*
X195383423Y-94468000D01*
X195383426Y-94468000D01*
X195495378Y-94456974D01*
X195639015Y-94413402D01*
X195771392Y-94342645D01*
X195887422Y-94247422D01*
X195911284Y-94218346D01*
X201014579Y-89115052D01*
X201199243Y-89078320D01*
X201377210Y-89004604D01*
X201537375Y-88897585D01*
X201673585Y-88761375D01*
X201780604Y-88601210D01*
X201854320Y-88423243D01*
X201891900Y-88234315D01*
X201891900Y-88041685D01*
X201854320Y-87852757D01*
X201780604Y-87674790D01*
X201673585Y-87514625D01*
X201537375Y-87378415D01*
X201503710Y-87355921D01*
X203318655Y-85540976D01*
X203347724Y-85517120D01*
X203391061Y-85464314D01*
X203442947Y-85401091D01*
X203494317Y-85304983D01*
X203513704Y-85268713D01*
X203557276Y-85125076D01*
X203568302Y-85013124D01*
X203568302Y-85013122D01*
X203571988Y-84975699D01*
X203568302Y-84938276D01*
X203568302Y-82288717D01*
X203571988Y-82251294D01*
X203566701Y-82197617D01*
X203557276Y-82101916D01*
X203513704Y-81958279D01*
X203456097Y-81850503D01*
X203442947Y-81825901D01*
X203408159Y-81783513D01*
X203347724Y-81709872D01*
X203318648Y-81686010D01*
X202184000Y-80551362D01*
X202184000Y-75288776D01*
X202513324Y-74959453D01*
X202513680Y-74961243D01*
X202587396Y-75139210D01*
X202694415Y-75299375D01*
X202830625Y-75435585D01*
X202990790Y-75542604D01*
X203168757Y-75616320D01*
X203357685Y-75653900D01*
X203550315Y-75653900D01*
X203739243Y-75616320D01*
X203917210Y-75542604D01*
X204077375Y-75435585D01*
X204213585Y-75299375D01*
X204320604Y-75139210D01*
X204394320Y-74961243D01*
X204431900Y-74772315D01*
X204431900Y-74579685D01*
X204394320Y-74390757D01*
X204320604Y-74212790D01*
X204213585Y-74052625D01*
X204077375Y-73916415D01*
X203917210Y-73809396D01*
X203739243Y-73735680D01*
X203554578Y-73698948D01*
X203447821Y-73592191D01*
X203447821Y-71753347D01*
X203451507Y-71715924D01*
X203447821Y-71678498D01*
X203436795Y-71566546D01*
X203393223Y-71422909D01*
X203357488Y-71356053D01*
X203322466Y-71290531D01*
X203268375Y-71224622D01*
X203227243Y-71174502D01*
X203198168Y-71150641D01*
X202447821Y-70400294D01*
X202447821Y-61599705D01*
X203198172Y-60849356D01*
X203227243Y-60825498D01*
X203322466Y-60709468D01*
X203393223Y-60577091D01*
X203436795Y-60433454D01*
X203447821Y-60321502D01*
X203447821Y-60321500D01*
X203451507Y-60284077D01*
X203447821Y-60246654D01*
X203447821Y-59503809D01*
X203554578Y-59397052D01*
X203739243Y-59360320D01*
X203917210Y-59286604D01*
X204077375Y-59179585D01*
X204213585Y-59043375D01*
X204320604Y-58883210D01*
X204394320Y-58705243D01*
X204431900Y-58516315D01*
X204431900Y-58323685D01*
X204394320Y-58134757D01*
X204320604Y-57956790D01*
X204213585Y-57796625D01*
X204077375Y-57660415D01*
X203917210Y-57553396D01*
X203739243Y-57479680D01*
X203550315Y-57442100D01*
X203357685Y-57442100D01*
X203168757Y-57479680D01*
X203041410Y-57532429D01*
X203041410Y-47921686D01*
X203045096Y-47884263D01*
X203035912Y-47791015D01*
X203030384Y-47734886D01*
X202986812Y-47591249D01*
X202916055Y-47458872D01*
X202820832Y-47342842D01*
X202791762Y-47318985D01*
X193822430Y-38349654D01*
X193798568Y-38320578D01*
X193682538Y-38225355D01*
X193550161Y-38154598D01*
X193406524Y-38111026D01*
X193294572Y-38100000D01*
X193294569Y-38100000D01*
X193257146Y-38096314D01*
X193219723Y-38100000D01*
X190865761Y-38100000D01*
X190709210Y-37995396D01*
X190531243Y-37921680D01*
X190342315Y-37884100D01*
X190149685Y-37884100D01*
X189960757Y-37921680D01*
X189782790Y-37995396D01*
X189622625Y-38102415D01*
X189486415Y-38238625D01*
X189379396Y-38398790D01*
X189305680Y-38576757D01*
X189268100Y-38765685D01*
X189268100Y-38958315D01*
X189305680Y-39147243D01*
X189379396Y-39325210D01*
X189486415Y-39485375D01*
X189622625Y-39621585D01*
X189782790Y-39728604D01*
X189960757Y-39802320D01*
X190149685Y-39839900D01*
X190342315Y-39839900D01*
X190531243Y-39802320D01*
X190709210Y-39728604D01*
X190865761Y-39624000D01*
X192941516Y-39624000D01*
X201190515Y-47873000D01*
X184305580Y-47873000D01*
X184349402Y-47791015D01*
X184392974Y-47647378D01*
X184407686Y-47498000D01*
X184404000Y-47460574D01*
X184404000Y-42963423D01*
X184407686Y-42926000D01*
X184401332Y-42861486D01*
X184392974Y-42776622D01*
X184349402Y-42632985D01*
X184295104Y-42531400D01*
X184278645Y-42500607D01*
X184207279Y-42413648D01*
X184183422Y-42384578D01*
X184154352Y-42360721D01*
X183119335Y-41325705D01*
X183145800Y-41192660D01*
X183145800Y-40900140D01*
X183088732Y-40613242D01*
X182976790Y-40342989D01*
X182814275Y-40099768D01*
X182607432Y-39892925D01*
X182364211Y-39730410D01*
X182093958Y-39618468D01*
X181807060Y-39561400D01*
X181514540Y-39561400D01*
X181227642Y-39618468D01*
X180957389Y-39730410D01*
X180714168Y-39892925D01*
X180507325Y-40099768D01*
X180390800Y-40274160D01*
X180274275Y-40099768D01*
X180067432Y-39892925D01*
X179824211Y-39730410D01*
X179553958Y-39618468D01*
X179267060Y-39561400D01*
X178974540Y-39561400D01*
X178687642Y-39618468D01*
X178417389Y-39730410D01*
X178174168Y-39892925D01*
X177967325Y-40099768D01*
X177850800Y-40274160D01*
X177734275Y-40099768D01*
X177527432Y-39892925D01*
X177284211Y-39730410D01*
X177013958Y-39618468D01*
X176727060Y-39561400D01*
X176458836Y-39561400D01*
X176505537Y-39504494D01*
X176564502Y-39394180D01*
X176600812Y-39274482D01*
X176613072Y-39150000D01*
X176610000Y-39035750D01*
X176451250Y-38877000D01*
X175627000Y-38877000D01*
X175627000Y-39626250D01*
X175785750Y-39785000D01*
X175795454Y-39785158D01*
X175634168Y-39892925D01*
X175427325Y-40099768D01*
X175310800Y-40274160D01*
X175194275Y-40099768D01*
X174987432Y-39892925D01*
X174744211Y-39730410D01*
X174473958Y-39618468D01*
X174187060Y-39561400D01*
X173894540Y-39561400D01*
X173607642Y-39618468D01*
X173337389Y-39730410D01*
X173094168Y-39892925D01*
X172887325Y-40099768D01*
X172770800Y-40274160D01*
X172654275Y-40099768D01*
X172447432Y-39892925D01*
X172204211Y-39730410D01*
X171933958Y-39618468D01*
X171647060Y-39561400D01*
X171354540Y-39561400D01*
X171067642Y-39618468D01*
X170797389Y-39730410D01*
X170554168Y-39892925D01*
X170347325Y-40099768D01*
X170225605Y-40281934D01*
X170155978Y-40165045D01*
X169961069Y-39948812D01*
X169727720Y-39774759D01*
X169464899Y-39649575D01*
X169317690Y-39604924D01*
X169087800Y-39726245D01*
X169087800Y-40919400D01*
X169107800Y-40919400D01*
X169107800Y-41173400D01*
X169087800Y-41173400D01*
X169087800Y-41193400D01*
X168833800Y-41193400D01*
X168833800Y-41173400D01*
X167639986Y-41173400D01*
X167519319Y-41403291D01*
X167616643Y-41677652D01*
X167765622Y-41927755D01*
X167942426Y-42123902D01*
X167866620Y-42146898D01*
X167756306Y-42205863D01*
X167659615Y-42285215D01*
X167580263Y-42381906D01*
X167521298Y-42492220D01*
X167484988Y-42611918D01*
X167472728Y-42736400D01*
X167472728Y-44436400D01*
X167484988Y-44560882D01*
X167521298Y-44680580D01*
X167580263Y-44790894D01*
X167659615Y-44887585D01*
X167756306Y-44966937D01*
X167866620Y-45025902D01*
X167986318Y-45062212D01*
X168110800Y-45074472D01*
X169810800Y-45074472D01*
X169935282Y-45062212D01*
X170054980Y-45025902D01*
X170165294Y-44966937D01*
X170261985Y-44887585D01*
X170341337Y-44790894D01*
X170400302Y-44680580D01*
X170422313Y-44608020D01*
X170554168Y-44739875D01*
X170797389Y-44902390D01*
X171067642Y-45014332D01*
X171354540Y-45071400D01*
X171647060Y-45071400D01*
X171933958Y-45014332D01*
X172204211Y-44902390D01*
X172447432Y-44739875D01*
X172654275Y-44533032D01*
X172770800Y-44358640D01*
X172887325Y-44533032D01*
X173094168Y-44739875D01*
X173337389Y-44902390D01*
X173607642Y-45014332D01*
X173894540Y-45071400D01*
X174187060Y-45071400D01*
X174473958Y-45014332D01*
X174744211Y-44902390D01*
X174987432Y-44739875D01*
X175194275Y-44533032D01*
X175310800Y-44358640D01*
X175427325Y-44533032D01*
X175634168Y-44739875D01*
X175877389Y-44902390D01*
X176147642Y-45014332D01*
X176434540Y-45071400D01*
X176727060Y-45071400D01*
X177013958Y-45014332D01*
X177284211Y-44902390D01*
X177527432Y-44739875D01*
X177734275Y-44533032D01*
X177850800Y-44358640D01*
X177967325Y-44533032D01*
X178174168Y-44739875D01*
X178417389Y-44902390D01*
X178687642Y-45014332D01*
X178974540Y-45071400D01*
X179267060Y-45071400D01*
X179553958Y-45014332D01*
X179824211Y-44902390D01*
X180067432Y-44739875D01*
X180274275Y-44533032D01*
X180390800Y-44358640D01*
X180507325Y-44533032D01*
X180714168Y-44739875D01*
X180957389Y-44902390D01*
X181227642Y-45014332D01*
X181514540Y-45071400D01*
X181807060Y-45071400D01*
X182093958Y-45014332D01*
X182364211Y-44902390D01*
X182607432Y-44739875D01*
X182814275Y-44533032D01*
X182880001Y-44434667D01*
X182880000Y-46736000D01*
X161474535Y-46736000D01*
X161468320Y-46704757D01*
X161394604Y-46526790D01*
X161287585Y-46366625D01*
X161151375Y-46230415D01*
X160991210Y-46123396D01*
X160813243Y-46049680D01*
X160624315Y-46012100D01*
X160431685Y-46012100D01*
X160242757Y-46049680D01*
X160064790Y-46123396D01*
X159904625Y-46230415D01*
X159768415Y-46366625D01*
X159661396Y-46526790D01*
X159587680Y-46704757D01*
X159550100Y-46893685D01*
X159550100Y-47086315D01*
X159587680Y-47275243D01*
X159661396Y-47453210D01*
X159768415Y-47613375D01*
X159904625Y-47749585D01*
X160064790Y-47856604D01*
X160104374Y-47873000D01*
X150000000Y-47873000D01*
X149975224Y-47875440D01*
X149951399Y-47882667D01*
X149929443Y-47894403D01*
X149910197Y-47910197D01*
X149894403Y-47929443D01*
X149882667Y-47951399D01*
X149875440Y-47975224D01*
X149873000Y-48000000D01*
X149873000Y-60000000D01*
X149875440Y-60024776D01*
X149882667Y-60048601D01*
X149894403Y-60070557D01*
X149910197Y-60089803D01*
X150873000Y-61052606D01*
X150873000Y-70947394D01*
X149910197Y-71910197D01*
X149894403Y-71929443D01*
X149882667Y-71951399D01*
X149875440Y-71975224D01*
X149873000Y-72000000D01*
X149873000Y-74000000D01*
X149875440Y-74024776D01*
X149882667Y-74048601D01*
X149894403Y-74070557D01*
X149910197Y-74089803D01*
X149929443Y-74105597D01*
X149951399Y-74117333D01*
X149975224Y-74124560D01*
X150000000Y-74127000D01*
X201190516Y-74127000D01*
X200909649Y-74407867D01*
X200880579Y-74431724D01*
X200856722Y-74460794D01*
X200856721Y-74460795D01*
X200785355Y-74547754D01*
X200714599Y-74680131D01*
X200671027Y-74823768D01*
X200656314Y-74973146D01*
X200660001Y-75010579D01*
X200660000Y-80829569D01*
X200656314Y-80866992D01*
X200660000Y-80904415D01*
X200660000Y-80904417D01*
X200671026Y-81016369D01*
X200714598Y-81160006D01*
X200722824Y-81175396D01*
X200785355Y-81292384D01*
X200822200Y-81337279D01*
X200880578Y-81408414D01*
X200909654Y-81432276D01*
X202044303Y-82566925D01*
X202044302Y-84184084D01*
X201961243Y-84149680D01*
X201776579Y-84112948D01*
X199561586Y-81897956D01*
X199537724Y-81868880D01*
X199421694Y-81773657D01*
X199289317Y-81702900D01*
X199145680Y-81659328D01*
X199033728Y-81648302D01*
X199033725Y-81648302D01*
X198996302Y-81644616D01*
X198958879Y-81648302D01*
X187145328Y-81648302D01*
X187402346Y-81391284D01*
X187431422Y-81367422D01*
X187503167Y-81280000D01*
X187526645Y-81251393D01*
X187567266Y-81175396D01*
X187597402Y-81119015D01*
X187640974Y-80975378D01*
X187652000Y-80863426D01*
X187652000Y-80863423D01*
X187655686Y-80826000D01*
X187652000Y-80788577D01*
X187652000Y-77596707D01*
X187804759Y-77494637D01*
X188004637Y-77294759D01*
X188160000Y-77062241D01*
X188315363Y-77294759D01*
X188515241Y-77494637D01*
X188750273Y-77651680D01*
X189011426Y-77759853D01*
X189288665Y-77815000D01*
X189571335Y-77815000D01*
X189848574Y-77759853D01*
X190109727Y-77651680D01*
X190344759Y-77494637D01*
X190544637Y-77294759D01*
X190700000Y-77062241D01*
X190855363Y-77294759D01*
X191055241Y-77494637D01*
X191290273Y-77651680D01*
X191551426Y-77759853D01*
X191828665Y-77815000D01*
X192111335Y-77815000D01*
X192388574Y-77759853D01*
X192649727Y-77651680D01*
X192884759Y-77494637D01*
X193083357Y-77296039D01*
X193084188Y-77304482D01*
X193120498Y-77424180D01*
X193179463Y-77534494D01*
X193258815Y-77631185D01*
X193355506Y-77710537D01*
X193465820Y-77769502D01*
X193585518Y-77805812D01*
X193710000Y-77818072D01*
X194224250Y-77815000D01*
X194383000Y-77656250D01*
X194383000Y-76507000D01*
X194637000Y-76507000D01*
X194637000Y-77656250D01*
X194795750Y-77815000D01*
X195310000Y-77818072D01*
X195434482Y-77805812D01*
X195554180Y-77769502D01*
X195664494Y-77710537D01*
X195761185Y-77631185D01*
X195840537Y-77534494D01*
X195899502Y-77424180D01*
X195935812Y-77304482D01*
X195948072Y-77180000D01*
X195945000Y-76665750D01*
X195786250Y-76507000D01*
X194637000Y-76507000D01*
X194383000Y-76507000D01*
X194363000Y-76507000D01*
X194363000Y-76253000D01*
X194383000Y-76253000D01*
X194383000Y-75103750D01*
X194637000Y-75103750D01*
X194637000Y-76253000D01*
X195786250Y-76253000D01*
X195945000Y-76094250D01*
X195948072Y-75580000D01*
X195935812Y-75455518D01*
X195899502Y-75335820D01*
X195840537Y-75225506D01*
X195761185Y-75128815D01*
X195664494Y-75049463D01*
X195554180Y-74990498D01*
X195434482Y-74954188D01*
X195310000Y-74941928D01*
X194795750Y-74945000D01*
X194637000Y-75103750D01*
X194383000Y-75103750D01*
X194224250Y-74945000D01*
X193710000Y-74941928D01*
X193585518Y-74954188D01*
X193465820Y-74990498D01*
X193355506Y-75049463D01*
X193258815Y-75128815D01*
X193179463Y-75225506D01*
X193120498Y-75335820D01*
X193084188Y-75455518D01*
X193083357Y-75463961D01*
X192884759Y-75265363D01*
X192649727Y-75108320D01*
X192388574Y-75000147D01*
X192111335Y-74945000D01*
X191828665Y-74945000D01*
X191551426Y-75000147D01*
X191290273Y-75108320D01*
X191055241Y-75265363D01*
X190855363Y-75465241D01*
X190700000Y-75697759D01*
X190544637Y-75465241D01*
X190344759Y-75265363D01*
X190109727Y-75108320D01*
X189848574Y-75000147D01*
X189571335Y-74945000D01*
X189288665Y-74945000D01*
X189011426Y-75000147D01*
X188750273Y-75108320D01*
X188515241Y-75265363D01*
X188315363Y-75465241D01*
X188160000Y-75697759D01*
X188004637Y-75465241D01*
X187804759Y-75265363D01*
X187569727Y-75108320D01*
X187308574Y-75000147D01*
X187031335Y-74945000D01*
X186748665Y-74945000D01*
X186471426Y-75000147D01*
X186210273Y-75108320D01*
X185975241Y-75265363D01*
X185775363Y-75465241D01*
X185620000Y-75697759D01*
X185464637Y-75465241D01*
X185264759Y-75265363D01*
X185029727Y-75108320D01*
X184768574Y-75000147D01*
X184491335Y-74945000D01*
X184208665Y-74945000D01*
X183931426Y-75000147D01*
X183670273Y-75108320D01*
X183435241Y-75265363D01*
X183235363Y-75465241D01*
X183080000Y-75697759D01*
X182924637Y-75465241D01*
X182724759Y-75265363D01*
X182489727Y-75108320D01*
X182228574Y-75000147D01*
X181951335Y-74945000D01*
X181668665Y-74945000D01*
X181391426Y-75000147D01*
X181130273Y-75108320D01*
X180895241Y-75265363D01*
X180695363Y-75465241D01*
X180540000Y-75697759D01*
X180384637Y-75465241D01*
X180184759Y-75265363D01*
X179949727Y-75108320D01*
X179688574Y-75000147D01*
X179411335Y-74945000D01*
X179128665Y-74945000D01*
X178851426Y-75000147D01*
X178590273Y-75108320D01*
X178355241Y-75265363D01*
X178155363Y-75465241D01*
X178000000Y-75697759D01*
X177844637Y-75465241D01*
X177644759Y-75265363D01*
X177409727Y-75108320D01*
X177148574Y-75000147D01*
X176871335Y-74945000D01*
X176588665Y-74945000D01*
X176311426Y-75000147D01*
X176050273Y-75108320D01*
X175815241Y-75265363D01*
X175615363Y-75465241D01*
X175460000Y-75697759D01*
X175304637Y-75465241D01*
X175104759Y-75265363D01*
X174869727Y-75108320D01*
X174608574Y-75000147D01*
X174331335Y-74945000D01*
X174048665Y-74945000D01*
X173771426Y-75000147D01*
X173510273Y-75108320D01*
X173275241Y-75265363D01*
X173075363Y-75465241D01*
X172920000Y-75697759D01*
X172764637Y-75465241D01*
X172564759Y-75265363D01*
X172329727Y-75108320D01*
X172068574Y-75000147D01*
X171791335Y-74945000D01*
X171508665Y-74945000D01*
X171231426Y-75000147D01*
X170970273Y-75108320D01*
X170735241Y-75265363D01*
X170535363Y-75465241D01*
X170380000Y-75697759D01*
X170224637Y-75465241D01*
X170024759Y-75265363D01*
X169789727Y-75108320D01*
X169528574Y-75000147D01*
X169251335Y-74945000D01*
X168968665Y-74945000D01*
X168691426Y-75000147D01*
X168430273Y-75108320D01*
X168195241Y-75265363D01*
X167995363Y-75465241D01*
X167840000Y-75697759D01*
X167684637Y-75465241D01*
X167484759Y-75265363D01*
X167249727Y-75108320D01*
X166988574Y-75000147D01*
X166711335Y-74945000D01*
X166428665Y-74945000D01*
X166151426Y-75000147D01*
X165890273Y-75108320D01*
X165655241Y-75265363D01*
X165455363Y-75465241D01*
X165300000Y-75697759D01*
X165144637Y-75465241D01*
X164944759Y-75265363D01*
X164709727Y-75108320D01*
X164448574Y-75000147D01*
X164171335Y-74945000D01*
X163888665Y-74945000D01*
X163611426Y-75000147D01*
X163350273Y-75108320D01*
X163115241Y-75265363D01*
X162915363Y-75465241D01*
X162760000Y-75697759D01*
X162604637Y-75465241D01*
X162404759Y-75265363D01*
X162169727Y-75108320D01*
X161908574Y-75000147D01*
X161631335Y-74945000D01*
X161348665Y-74945000D01*
X161071426Y-75000147D01*
X160810273Y-75108320D01*
X160575241Y-75265363D01*
X160375363Y-75465241D01*
X160218320Y-75700273D01*
X160110147Y-75961426D01*
X160055000Y-76238665D01*
X160055000Y-76521335D01*
X160110147Y-76798574D01*
X160218320Y-77059727D01*
X160375363Y-77294759D01*
X160575241Y-77494637D01*
X160807759Y-77650000D01*
X160575241Y-77805363D01*
X160375363Y-78005241D01*
X160218320Y-78240273D01*
X160110147Y-78501426D01*
X160055000Y-78778665D01*
X160055000Y-79061335D01*
X160110147Y-79338574D01*
X160218320Y-79599727D01*
X160375363Y-79834759D01*
X160438605Y-79898001D01*
X152364500Y-79898001D01*
X152327077Y-79894315D01*
X152289654Y-79898001D01*
X152289651Y-79898001D01*
X152177699Y-79909027D01*
X152034062Y-79952599D01*
X151972441Y-79985536D01*
X151901684Y-80023356D01*
X151859296Y-80058144D01*
X151785655Y-80118579D01*
X151761793Y-80147655D01*
X151048248Y-80861200D01*
X151019178Y-80885057D01*
X150995321Y-80914127D01*
X150995320Y-80914128D01*
X150923954Y-81001087D01*
X150853198Y-81133464D01*
X150837900Y-81183895D01*
X150837900Y-81183685D01*
X150800320Y-80994757D01*
X150726604Y-80816790D01*
X150619585Y-80656625D01*
X150483375Y-80520415D01*
X150323210Y-80413396D01*
X150145243Y-80339680D01*
X149956315Y-80302100D01*
X149763685Y-80302100D01*
X149574757Y-80339680D01*
X149396790Y-80413396D01*
X149236625Y-80520415D01*
X149100415Y-80656625D01*
X148993396Y-80816790D01*
X148919680Y-80994757D01*
X148882100Y-81183685D01*
X148882100Y-81376315D01*
X148919680Y-81565243D01*
X148976320Y-81701986D01*
X148954716Y-81719716D01*
X148847382Y-81850503D01*
X148767625Y-81999717D01*
X148718512Y-82161623D01*
X148701928Y-82330000D01*
X148701928Y-82780000D01*
X148718512Y-82948377D01*
X148767625Y-83110283D01*
X148845700Y-83256351D01*
X148809463Y-83300506D01*
X148750498Y-83410820D01*
X148714188Y-83530518D01*
X148701928Y-83655000D01*
X148705000Y-83819250D01*
X148863750Y-83978000D01*
X149688000Y-83978000D01*
X149688000Y-83958000D01*
X149942000Y-83958000D01*
X149942000Y-83978000D01*
X149962000Y-83978000D01*
X149962000Y-84232000D01*
X149942000Y-84232000D01*
X149942000Y-84789499D01*
X149935680Y-84804757D01*
X149898100Y-84993685D01*
X149898100Y-85186315D01*
X149935680Y-85375243D01*
X150009396Y-85553210D01*
X150116415Y-85713375D01*
X150252625Y-85849585D01*
X150412790Y-85956604D01*
X150590757Y-86030320D01*
X150779685Y-86067900D01*
X150972315Y-86067900D01*
X151160549Y-86030458D01*
X151143512Y-86086623D01*
X151126928Y-86255000D01*
X151126928Y-86755000D01*
X151143512Y-86923377D01*
X151192625Y-87085283D01*
X151272382Y-87234497D01*
X151379716Y-87365284D01*
X151510503Y-87472618D01*
X151659717Y-87552375D01*
X151821623Y-87601488D01*
X151990000Y-87618072D01*
X152440000Y-87618072D01*
X152608377Y-87601488D01*
X152770283Y-87552375D01*
X152916351Y-87474300D01*
X152960506Y-87510537D01*
X153070820Y-87569502D01*
X153190518Y-87605812D01*
X153315000Y-87618072D01*
X153479250Y-87615000D01*
X153638000Y-87456250D01*
X153638000Y-86632000D01*
X153618000Y-86632000D01*
X153618000Y-86378000D01*
X153638000Y-86378000D01*
X153638000Y-86358000D01*
X153766267Y-86358000D01*
X153786574Y-86360000D01*
X153786576Y-86360000D01*
X153823999Y-86363686D01*
X153861422Y-86360000D01*
X153892000Y-86360000D01*
X153892000Y-86378000D01*
X153912000Y-86378000D01*
X153912000Y-86632000D01*
X153892000Y-86632000D01*
X153892000Y-87456250D01*
X154050750Y-87615000D01*
X154215000Y-87618072D01*
X154339482Y-87605812D01*
X154459180Y-87569502D01*
X154569494Y-87510537D01*
X154666185Y-87431185D01*
X154745537Y-87334494D01*
X154804502Y-87224180D01*
X154840812Y-87104482D01*
X154853072Y-86980000D01*
X154850000Y-86790750D01*
X154691252Y-86632002D01*
X154850000Y-86632002D01*
X154850000Y-86575900D01*
X155036315Y-86575900D01*
X155225243Y-86538320D01*
X155403210Y-86464604D01*
X155563375Y-86357585D01*
X155699585Y-86221375D01*
X155806604Y-86061210D01*
X155880320Y-85883243D01*
X155917900Y-85694315D01*
X155917900Y-85501685D01*
X155880320Y-85312757D01*
X155829805Y-85190803D01*
X155879250Y-85190000D01*
X156038000Y-85031250D01*
X156038000Y-84426406D01*
X156103437Y-84268426D01*
X156110682Y-84232000D01*
X156292000Y-84232000D01*
X156292000Y-85031250D01*
X156450750Y-85190000D01*
X156640000Y-85193072D01*
X156764482Y-85180812D01*
X156884180Y-85144502D01*
X156994494Y-85085537D01*
X157091185Y-85006185D01*
X157170537Y-84909494D01*
X157229502Y-84799180D01*
X157265812Y-84679482D01*
X157278072Y-84555000D01*
X157275000Y-84390750D01*
X157116250Y-84232000D01*
X156292000Y-84232000D01*
X156110682Y-84232000D01*
X156141017Y-84079498D01*
X156141017Y-83958000D01*
X156292000Y-83958000D01*
X156292000Y-83978000D01*
X157116250Y-83978000D01*
X157275000Y-83819250D01*
X157278072Y-83655000D01*
X157265812Y-83530518D01*
X157229502Y-83410820D01*
X157170537Y-83300506D01*
X157134300Y-83256351D01*
X157212375Y-83110283D01*
X157261488Y-82948377D01*
X157278072Y-82780000D01*
X157278072Y-82330000D01*
X157261488Y-82161623D01*
X157212375Y-81999717D01*
X157132618Y-81850503D01*
X157025284Y-81719716D01*
X156894497Y-81612382D01*
X156745283Y-81532625D01*
X156583377Y-81483512D01*
X156415000Y-81466928D01*
X156157224Y-81466928D01*
X156146646Y-81441391D01*
X156133690Y-81422001D01*
X160055000Y-81422001D01*
X160055000Y-81601335D01*
X160110147Y-81878574D01*
X160218320Y-82139727D01*
X160375363Y-82374759D01*
X160575241Y-82574637D01*
X160807759Y-82730000D01*
X160575241Y-82885363D01*
X160375363Y-83085241D01*
X160218320Y-83320273D01*
X160110147Y-83581426D01*
X160055000Y-83858665D01*
X160055000Y-84141335D01*
X160110147Y-84418574D01*
X160218320Y-84679727D01*
X160375363Y-84914759D01*
X160575241Y-85114637D01*
X160807759Y-85270000D01*
X160575241Y-85425363D01*
X160375363Y-85625241D01*
X160218320Y-85860273D01*
X160110147Y-86121426D01*
X160055000Y-86398665D01*
X160055000Y-86681335D01*
X160110147Y-86958574D01*
X160218320Y-87219727D01*
X160375363Y-87454759D01*
X160575241Y-87654637D01*
X160807759Y-87810000D01*
X160575241Y-87965363D01*
X160375363Y-88165241D01*
X160218320Y-88400273D01*
X160110147Y-88661426D01*
X160055000Y-88938665D01*
X160055000Y-89221335D01*
X160110147Y-89498574D01*
X160218320Y-89759727D01*
X160375363Y-89994759D01*
X160575241Y-90194637D01*
X160807759Y-90350000D01*
X160575241Y-90505363D01*
X160375363Y-90705241D01*
X160218320Y-90940273D01*
X160110147Y-91201426D01*
X160055000Y-91478665D01*
X160055000Y-91761335D01*
X160110147Y-92038574D01*
X160218320Y-92299727D01*
X160375363Y-92534759D01*
X160575241Y-92734637D01*
X160810273Y-92891680D01*
X161071426Y-92999853D01*
X161348665Y-93055000D01*
X161631335Y-93055000D01*
X161908574Y-92999853D01*
X162169727Y-92891680D01*
X162404759Y-92734637D01*
X162604637Y-92534759D01*
X162760000Y-92302241D01*
X162915363Y-92534759D01*
X163115241Y-92734637D01*
X163350273Y-92891680D01*
X163611426Y-92999853D01*
X163888665Y-93055000D01*
X164171335Y-93055000D01*
X164448574Y-92999853D01*
X164709727Y-92891680D01*
X164944759Y-92734637D01*
X165144637Y-92534759D01*
X165300000Y-92302241D01*
X165455363Y-92534759D01*
X165655241Y-92734637D01*
X165890273Y-92891680D01*
X166151426Y-92999853D01*
X166428665Y-93055000D01*
X166711335Y-93055000D01*
X166988574Y-92999853D01*
X167249727Y-92891680D01*
X167484759Y-92734637D01*
X167684637Y-92534759D01*
X167840000Y-92302241D01*
X167995363Y-92534759D01*
X168195241Y-92734637D01*
X168430273Y-92891680D01*
X168691426Y-92999853D01*
X168968665Y-93055000D01*
X169251335Y-93055000D01*
X169528574Y-92999853D01*
X169789727Y-92891680D01*
X170024759Y-92734637D01*
X170224637Y-92534759D01*
X170380000Y-92302241D01*
X170535363Y-92534759D01*
X170735241Y-92734637D01*
X170970273Y-92891680D01*
X171231426Y-92999853D01*
X171508665Y-93055000D01*
X171791335Y-93055000D01*
X172068574Y-92999853D01*
X172329727Y-92891680D01*
X172564759Y-92734637D01*
X172764637Y-92534759D01*
X172920000Y-92302241D01*
X173075363Y-92534759D01*
X173275241Y-92734637D01*
X173510273Y-92891680D01*
X173771426Y-92999853D01*
X174048665Y-93055000D01*
X174331335Y-93055000D01*
X174608574Y-92999853D01*
X174869727Y-92891680D01*
X175104759Y-92734637D01*
X175304637Y-92534759D01*
X175460000Y-92302241D01*
X175615363Y-92534759D01*
X175815241Y-92734637D01*
X176050273Y-92891680D01*
X176311426Y-92999853D01*
X176588665Y-93055000D01*
X176757370Y-93055000D01*
X176086370Y-93726000D01*
X156525631Y-93726000D01*
X148336000Y-85536370D01*
X148336000Y-84555000D01*
X148701928Y-84555000D01*
X148714188Y-84679482D01*
X148750498Y-84799180D01*
X148809463Y-84909494D01*
X148888815Y-85006185D01*
X148985506Y-85085537D01*
X149095820Y-85144502D01*
X149215518Y-85180812D01*
X149340000Y-85193072D01*
X149529250Y-85190000D01*
X149688000Y-85031250D01*
X149688000Y-84232000D01*
X148863750Y-84232000D01*
X148705000Y-84390750D01*
X148701928Y-84555000D01*
X148336000Y-84555000D01*
X148336000Y-79463896D01*
X148432315Y-79463896D01*
X148621243Y-79426316D01*
X148711170Y-79389067D01*
X148739396Y-79457210D01*
X148846415Y-79617375D01*
X148982625Y-79753585D01*
X149142790Y-79860604D01*
X149320757Y-79934320D01*
X149509685Y-79971900D01*
X149702315Y-79971900D01*
X149891243Y-79934320D01*
X150069210Y-79860604D01*
X150229375Y-79753585D01*
X150365585Y-79617375D01*
X150472604Y-79457210D01*
X150546320Y-79279243D01*
X150583900Y-79090315D01*
X150583900Y-78897685D01*
X150546320Y-78708757D01*
X150472604Y-78530790D01*
X150365585Y-78370625D01*
X150229375Y-78234415D01*
X150069210Y-78127396D01*
X149891243Y-78053680D01*
X149873968Y-78050244D01*
X149873968Y-77581761D01*
X149978572Y-77425210D01*
X150052288Y-77247243D01*
X150089868Y-77058315D01*
X150089868Y-76865685D01*
X150052288Y-76676757D01*
X149978572Y-76498790D01*
X149871553Y-76338625D01*
X149735343Y-76202415D01*
X149575178Y-76095396D01*
X149397211Y-76021680D01*
X149208283Y-75984100D01*
X149098000Y-75984100D01*
X149098000Y-70289778D01*
X149162010Y-70135243D01*
X149199590Y-69946315D01*
X149199590Y-69753685D01*
X149162010Y-69564757D01*
X149088294Y-69386790D01*
X148981275Y-69226625D01*
X148845065Y-69090415D01*
X148684900Y-68983396D01*
X148506933Y-68909680D01*
X148318005Y-68872100D01*
X148125375Y-68872100D01*
X147976072Y-68901798D01*
X147976072Y-67742400D01*
X147963812Y-67617918D01*
X147927502Y-67498220D01*
X147868537Y-67387906D01*
X147789185Y-67291215D01*
X147692494Y-67211863D01*
X147582180Y-67152898D01*
X147462482Y-67116588D01*
X147338000Y-67104328D01*
X147127000Y-67104328D01*
X147127000Y-65277763D01*
X147338000Y-65280472D01*
X147462482Y-65268212D01*
X147582180Y-65231902D01*
X147692494Y-65172937D01*
X147789185Y-65093585D01*
X147868537Y-64996894D01*
X147927502Y-64886580D01*
X147963812Y-64766882D01*
X147976072Y-64642400D01*
X147973000Y-64203150D01*
X147814250Y-64044400D01*
X147127000Y-64044400D01*
X147127000Y-63790400D01*
X147814250Y-63790400D01*
X147973000Y-63631650D01*
X147976072Y-63192400D01*
X147963812Y-63067918D01*
X147927502Y-62948220D01*
X147868537Y-62837906D01*
X147789185Y-62741215D01*
X147692494Y-62661863D01*
X147582180Y-62602898D01*
X147462482Y-62566588D01*
X147338000Y-62554328D01*
X147127000Y-62557037D01*
X147127000Y-40689509D01*
X167519319Y-40689509D01*
X167639986Y-40919400D01*
X168833800Y-40919400D01*
X168833800Y-39726245D01*
X168603910Y-39604924D01*
X168456701Y-39649575D01*
X168193880Y-39774759D01*
X167960531Y-39948812D01*
X167765622Y-40165045D01*
X167616643Y-40415148D01*
X167519319Y-40689509D01*
X147127000Y-40689509D01*
X147127000Y-39150000D01*
X174386928Y-39150000D01*
X174399188Y-39274482D01*
X174435498Y-39394180D01*
X174494463Y-39504494D01*
X174573815Y-39601185D01*
X174670506Y-39680537D01*
X174780820Y-39739502D01*
X174900518Y-39775812D01*
X175025000Y-39788072D01*
X175214250Y-39785000D01*
X175373000Y-39626250D01*
X175373000Y-38877000D01*
X174548750Y-38877000D01*
X174390000Y-39035750D01*
X174386928Y-39150000D01*
X147127000Y-39150000D01*
X147127000Y-35100000D01*
X149161928Y-35100000D01*
X149174188Y-35224482D01*
X149210498Y-35344180D01*
X149269463Y-35454494D01*
X149348815Y-35551185D01*
X149445506Y-35630537D01*
X149555820Y-35689502D01*
X149675518Y-35725812D01*
X149800000Y-35738072D01*
X150614250Y-35735000D01*
X150773000Y-35576250D01*
X150773000Y-33827000D01*
X151027000Y-33827000D01*
X151027000Y-35576250D01*
X151185750Y-35735000D01*
X152000000Y-35738072D01*
X152124482Y-35725812D01*
X152244180Y-35689502D01*
X152354494Y-35630537D01*
X152451185Y-35551185D01*
X152530537Y-35454494D01*
X152589502Y-35344180D01*
X152625812Y-35224482D01*
X152638072Y-35100000D01*
X152635000Y-33985750D01*
X152476250Y-33827000D01*
X151027000Y-33827000D01*
X150773000Y-33827000D01*
X149323750Y-33827000D01*
X149165000Y-33985750D01*
X149161928Y-35100000D01*
X147127000Y-35100000D01*
X147127000Y-32300000D01*
X149161928Y-32300000D01*
X149165000Y-33414250D01*
X149323750Y-33573000D01*
X150773000Y-33573000D01*
X150773000Y-31823750D01*
X151027000Y-31823750D01*
X151027000Y-33573000D01*
X152476250Y-33573000D01*
X152635000Y-33414250D01*
X152638072Y-32300000D01*
X158261928Y-32300000D01*
X158261928Y-35100000D01*
X158274188Y-35224482D01*
X158310498Y-35344180D01*
X158369463Y-35454494D01*
X158448815Y-35551185D01*
X158545506Y-35630537D01*
X158655820Y-35689502D01*
X158775518Y-35725812D01*
X158900000Y-35738072D01*
X161700000Y-35738072D01*
X161824482Y-35725812D01*
X161944180Y-35689502D01*
X162054494Y-35630537D01*
X162151185Y-35551185D01*
X162230537Y-35454494D01*
X162289502Y-35344180D01*
X162325812Y-35224482D01*
X162338072Y-35100000D01*
X162338072Y-32300000D01*
X162325812Y-32175518D01*
X162289502Y-32055820D01*
X162230537Y-31945506D01*
X162151185Y-31848815D01*
X162054494Y-31769463D01*
X161944180Y-31710498D01*
X161824482Y-31674188D01*
X161700000Y-31661928D01*
X158900000Y-31661928D01*
X158775518Y-31674188D01*
X158655820Y-31710498D01*
X158545506Y-31769463D01*
X158448815Y-31848815D01*
X158369463Y-31945506D01*
X158310498Y-32055820D01*
X158274188Y-32175518D01*
X158261928Y-32300000D01*
X152638072Y-32300000D01*
X152625812Y-32175518D01*
X152589502Y-32055820D01*
X152530537Y-31945506D01*
X152451185Y-31848815D01*
X152354494Y-31769463D01*
X152244180Y-31710498D01*
X152124482Y-31674188D01*
X152000000Y-31661928D01*
X151185750Y-31665000D01*
X151027000Y-31823750D01*
X150773000Y-31823750D01*
X150614250Y-31665000D01*
X149800000Y-31661928D01*
X149675518Y-31674188D01*
X149555820Y-31710498D01*
X149445506Y-31769463D01*
X149348815Y-31848815D01*
X149269463Y-31945506D01*
X149210498Y-32055820D01*
X149174188Y-32175518D01*
X149161928Y-32300000D01*
X147127000Y-32300000D01*
X147127000Y-29853740D01*
X150515000Y-29853740D01*
X150515000Y-30146260D01*
X150572068Y-30433158D01*
X150684010Y-30703411D01*
X150846525Y-30946632D01*
X151053368Y-31153475D01*
X151296589Y-31315990D01*
X151566842Y-31427932D01*
X151853740Y-31485000D01*
X152146260Y-31485000D01*
X152433158Y-31427932D01*
X152703411Y-31315990D01*
X152946632Y-31153475D01*
X153153475Y-30946632D01*
X153315990Y-30703411D01*
X153427932Y-30433158D01*
X153485000Y-30146260D01*
X153485000Y-29853740D01*
X157515000Y-29853740D01*
X157515000Y-30146260D01*
X157572068Y-30433158D01*
X157684010Y-30703411D01*
X157846525Y-30946632D01*
X158053368Y-31153475D01*
X158296589Y-31315990D01*
X158566842Y-31427932D01*
X158853740Y-31485000D01*
X159146260Y-31485000D01*
X159433158Y-31427932D01*
X159703411Y-31315990D01*
X159946632Y-31153475D01*
X160153475Y-30946632D01*
X160315990Y-30703411D01*
X160427932Y-30433158D01*
X160485000Y-30146260D01*
X160485000Y-29853740D01*
X160427932Y-29566842D01*
X160315990Y-29296589D01*
X160153475Y-29053368D01*
X159946632Y-28846525D01*
X159703411Y-28684010D01*
X159433158Y-28572068D01*
X159146260Y-28515000D01*
X158853740Y-28515000D01*
X158566842Y-28572068D01*
X158296589Y-28684010D01*
X158053368Y-28846525D01*
X157846525Y-29053368D01*
X157684010Y-29296589D01*
X157572068Y-29566842D01*
X157515000Y-29853740D01*
X153485000Y-29853740D01*
X153427932Y-29566842D01*
X153315990Y-29296589D01*
X153153475Y-29053368D01*
X152946632Y-28846525D01*
X152703411Y-28684010D01*
X152433158Y-28572068D01*
X152146260Y-28515000D01*
X151853740Y-28515000D01*
X151566842Y-28572068D01*
X151296589Y-28684010D01*
X151053368Y-28846525D01*
X150846525Y-29053368D01*
X150684010Y-29296589D01*
X150572068Y-29566842D01*
X150515000Y-29853740D01*
X147127000Y-29853740D01*
X147127000Y-26052606D01*
X148052606Y-25127000D01*
X151161928Y-25127000D01*
X151161928Y-27700000D01*
%TA.AperFunction,Conductor*%
D23*
G36*
X151161928Y-27700000D02*
G01*
X151174188Y-27824482D01*
X151210498Y-27944180D01*
X151269463Y-28054494D01*
X151348815Y-28151185D01*
X151445506Y-28230537D01*
X151555820Y-28289502D01*
X151675518Y-28325812D01*
X151800000Y-28338072D01*
X154000000Y-28338072D01*
X154124482Y-28325812D01*
X154244180Y-28289502D01*
X154354494Y-28230537D01*
X154451185Y-28151185D01*
X154530537Y-28054494D01*
X154589502Y-27944180D01*
X154625812Y-27824482D01*
X154638072Y-27700000D01*
X154638072Y-25127000D01*
X163947394Y-25127000D01*
X164873000Y-26052606D01*
X164873000Y-27211928D01*
X163000000Y-27211928D01*
X162875518Y-27224188D01*
X162755820Y-27260498D01*
X162645506Y-27319463D01*
X162548815Y-27398815D01*
X162469463Y-27495506D01*
X162410498Y-27605820D01*
X162374188Y-27725518D01*
X162361928Y-27850000D01*
X162361928Y-30650000D01*
X162374188Y-30774482D01*
X162410498Y-30894180D01*
X162469463Y-31004494D01*
X162548815Y-31101185D01*
X162645506Y-31180537D01*
X162755820Y-31239502D01*
X162875518Y-31275812D01*
X163000000Y-31288072D01*
X164873000Y-31288072D01*
X164873000Y-32260420D01*
X164834142Y-32239650D01*
X164673408Y-32190892D01*
X164506250Y-32174428D01*
X163993750Y-32174428D01*
X163826592Y-32190892D01*
X163665858Y-32239650D01*
X163517725Y-32318829D01*
X163387885Y-32425385D01*
X163281329Y-32555225D01*
X163202150Y-32703358D01*
X163153392Y-32864092D01*
X163136928Y-33031250D01*
X163136928Y-33468750D01*
X163153392Y-33635908D01*
X163202150Y-33796642D01*
X163281329Y-33944775D01*
X163357426Y-34037500D01*
X163281329Y-34130225D01*
X163202150Y-34278358D01*
X163153392Y-34439092D01*
X163136928Y-34606250D01*
X163136928Y-34921442D01*
X161697422Y-36360948D01*
X161512757Y-36397680D01*
X161334790Y-36471396D01*
X161174625Y-36578415D01*
X161038415Y-36714625D01*
X160931396Y-36874790D01*
X160857680Y-37052757D01*
X160820100Y-37241685D01*
X160820100Y-37434315D01*
X160857680Y-37623243D01*
X160931396Y-37801210D01*
X161038415Y-37961375D01*
X161174625Y-38097585D01*
X161334790Y-38204604D01*
X161512757Y-38278320D01*
X161701685Y-38315900D01*
X161894315Y-38315900D01*
X162083243Y-38278320D01*
X162261210Y-38204604D01*
X162421375Y-38097585D01*
X162557585Y-37961375D01*
X162664604Y-37801210D01*
X162738320Y-37623243D01*
X162775052Y-37438578D01*
X164313058Y-35900572D01*
X164488001Y-35900572D01*
X164488001Y-35948567D01*
X164484314Y-35986000D01*
X164499027Y-36135378D01*
X164542599Y-36279015D01*
X164613355Y-36411392D01*
X164676068Y-36487807D01*
X164708579Y-36527422D01*
X164737649Y-36551279D01*
X165798721Y-37612352D01*
X165822578Y-37641422D01*
X165851648Y-37665279D01*
X165938607Y-37736645D01*
X165988648Y-37763392D01*
X166070985Y-37807402D01*
X166214622Y-37850974D01*
X166326574Y-37862000D01*
X166326577Y-37862000D01*
X166364000Y-37865686D01*
X166401423Y-37862000D01*
X174607276Y-37862000D01*
X174611863Y-37867590D01*
X174573815Y-37898815D01*
X174494463Y-37995506D01*
X174435498Y-38105820D01*
X174399188Y-38225518D01*
X174386928Y-38350000D01*
X174390000Y-38464250D01*
X174548750Y-38623000D01*
X175373000Y-38623000D01*
X175373000Y-38603000D01*
X175627000Y-38603000D01*
X175627000Y-38623000D01*
X176451250Y-38623000D01*
X176610000Y-38464250D01*
X176613072Y-38350000D01*
X176600812Y-38225518D01*
X176564502Y-38105820D01*
X176505537Y-37995506D01*
X176426185Y-37898815D01*
X176388137Y-37867590D01*
X176392724Y-37862000D01*
X185620577Y-37862000D01*
X185658000Y-37865686D01*
X185695423Y-37862000D01*
X185695426Y-37862000D01*
X185807378Y-37850974D01*
X185951015Y-37807402D01*
X186083392Y-37736645D01*
X186199422Y-37641422D01*
X186223284Y-37612346D01*
X187262352Y-36573279D01*
X187291422Y-36549422D01*
X187386645Y-36433392D01*
X187457402Y-36301015D01*
X187500974Y-36157378D01*
X187512000Y-36045426D01*
X187512000Y-36045424D01*
X187515686Y-36008001D01*
X187512000Y-35970578D01*
X187512000Y-35900572D01*
X188006250Y-35900572D01*
X188173408Y-35884108D01*
X188334142Y-35835350D01*
X188482275Y-35756171D01*
X188612115Y-35649615D01*
X188658949Y-35592547D01*
X188766790Y-35664604D01*
X188944757Y-35738320D01*
X189133685Y-35775900D01*
X189326315Y-35775900D01*
X189515243Y-35738320D01*
X189693210Y-35664604D01*
X189853375Y-35557585D01*
X189989585Y-35421375D01*
X189992001Y-35417759D01*
X189992001Y-36210238D01*
X189887396Y-36366790D01*
X189813680Y-36544757D01*
X189776100Y-36733685D01*
X189776100Y-36926315D01*
X189813680Y-37115243D01*
X189887396Y-37293210D01*
X189994415Y-37453375D01*
X190130625Y-37589585D01*
X190290790Y-37696604D01*
X190468757Y-37770320D01*
X190657685Y-37807900D01*
X190850315Y-37807900D01*
X191039243Y-37770320D01*
X191217210Y-37696604D01*
X191377375Y-37589585D01*
X191513585Y-37453375D01*
X191620604Y-37293210D01*
X191694320Y-37115243D01*
X191731900Y-36926315D01*
X191731900Y-36733685D01*
X191694320Y-36544757D01*
X191620604Y-36366790D01*
X191516000Y-36210239D01*
X191516000Y-32300000D01*
X197361928Y-32300000D01*
X197361928Y-35100000D01*
X197374188Y-35224482D01*
X197410498Y-35344180D01*
X197469463Y-35454494D01*
X197548815Y-35551185D01*
X197645506Y-35630537D01*
X197755820Y-35689502D01*
X197875518Y-35725812D01*
X198000000Y-35738072D01*
X200200000Y-35738072D01*
X200324482Y-35725812D01*
X200444180Y-35689502D01*
X200554494Y-35630537D01*
X200651185Y-35551185D01*
X200730537Y-35454494D01*
X200789502Y-35344180D01*
X200825812Y-35224482D01*
X200838072Y-35100000D01*
X200838072Y-34567943D01*
X200958790Y-34648604D01*
X201136757Y-34722320D01*
X201325685Y-34759900D01*
X201518315Y-34759900D01*
X201707243Y-34722320D01*
X201885210Y-34648604D01*
X202045375Y-34541585D01*
X202181585Y-34405375D01*
X202288604Y-34245210D01*
X202362320Y-34067243D01*
X202399900Y-33878315D01*
X202399900Y-33685685D01*
X202362320Y-33496757D01*
X202288604Y-33318790D01*
X202181585Y-33158625D01*
X202045375Y-33022415D01*
X201885210Y-32915396D01*
X201707243Y-32841680D01*
X201518315Y-32804100D01*
X201325685Y-32804100D01*
X201136757Y-32841680D01*
X200958790Y-32915396D01*
X200838072Y-32996057D01*
X200838072Y-32300000D01*
X200825812Y-32175518D01*
X200789502Y-32055820D01*
X200730537Y-31945506D01*
X200651185Y-31848815D01*
X200554494Y-31769463D01*
X200444180Y-31710498D01*
X200324482Y-31674188D01*
X200200000Y-31661928D01*
X198000000Y-31661928D01*
X197875518Y-31674188D01*
X197755820Y-31710498D01*
X197645506Y-31769463D01*
X197548815Y-31848815D01*
X197469463Y-31945506D01*
X197410498Y-32055820D01*
X197374188Y-32175518D01*
X197361928Y-32300000D01*
X191516000Y-32300000D01*
X191516000Y-30151287D01*
X191572068Y-30433158D01*
X191684010Y-30703411D01*
X191846525Y-30946632D01*
X192053368Y-31153475D01*
X192296589Y-31315990D01*
X192566842Y-31427932D01*
X192853740Y-31485000D01*
X193146260Y-31485000D01*
X193433158Y-31427932D01*
X193703411Y-31315990D01*
X193946632Y-31153475D01*
X194153475Y-30946632D01*
X194315990Y-30703411D01*
X194427932Y-30433158D01*
X194485000Y-30146260D01*
X194485000Y-29853740D01*
X198515000Y-29853740D01*
X198515000Y-30146260D01*
X198572068Y-30433158D01*
X198684010Y-30703411D01*
X198846525Y-30946632D01*
X199053368Y-31153475D01*
X199296589Y-31315990D01*
X199566842Y-31427932D01*
X199853740Y-31485000D01*
X200146260Y-31485000D01*
X200433158Y-31427932D01*
X200703411Y-31315990D01*
X200946632Y-31153475D01*
X201153475Y-30946632D01*
X201315990Y-30703411D01*
X201427932Y-30433158D01*
X201485000Y-30146260D01*
X201485000Y-29853740D01*
X201427932Y-29566842D01*
X201315990Y-29296589D01*
X201153475Y-29053368D01*
X200946632Y-28846525D01*
X200703411Y-28684010D01*
X200433158Y-28572068D01*
X200146260Y-28515000D01*
X199853740Y-28515000D01*
X199566842Y-28572068D01*
X199296589Y-28684010D01*
X199053368Y-28846525D01*
X198846525Y-29053368D01*
X198684010Y-29296589D01*
X198572068Y-29566842D01*
X198515000Y-29853740D01*
X194485000Y-29853740D01*
X194427932Y-29566842D01*
X194315990Y-29296589D01*
X194153475Y-29053368D01*
X193946632Y-28846525D01*
X193703411Y-28684010D01*
X193433158Y-28572068D01*
X193146260Y-28515000D01*
X192853740Y-28515000D01*
X192566842Y-28572068D01*
X192296589Y-28684010D01*
X192053368Y-28846525D01*
X191846525Y-29053368D01*
X191684010Y-29296589D01*
X191572068Y-29566842D01*
X191516000Y-29848713D01*
X191516000Y-29017630D01*
X192195559Y-28338072D01*
X193100000Y-28338072D01*
X193224482Y-28325812D01*
X193344180Y-28289502D01*
X193454494Y-28230537D01*
X193551185Y-28151185D01*
X193630537Y-28054494D01*
X193689502Y-27944180D01*
X193725812Y-27824482D01*
X193738072Y-27700000D01*
X199361928Y-27700000D01*
X199374188Y-27824482D01*
X199410498Y-27944180D01*
X199469463Y-28054494D01*
X199548815Y-28151185D01*
X199645506Y-28230537D01*
X199755820Y-28289502D01*
X199875518Y-28325812D01*
X200000000Y-28338072D01*
X200814250Y-28335000D01*
X200973000Y-28176250D01*
X200973000Y-26427000D01*
X201227000Y-26427000D01*
X201227000Y-28176250D01*
X201385750Y-28335000D01*
X202200000Y-28338072D01*
X202324482Y-28325812D01*
X202444180Y-28289502D01*
X202554494Y-28230537D01*
X202651185Y-28151185D01*
X202730537Y-28054494D01*
X202789502Y-27944180D01*
X202825812Y-27824482D01*
X202838072Y-27700000D01*
X202835000Y-26585750D01*
X202676250Y-26427000D01*
X201227000Y-26427000D01*
X200973000Y-26427000D01*
X199523750Y-26427000D01*
X199365000Y-26585750D01*
X199361928Y-27700000D01*
X193738072Y-27700000D01*
X193738072Y-25127000D01*
X199362554Y-25127000D01*
X199365000Y-26014250D01*
X199523750Y-26173000D01*
X200973000Y-26173000D01*
X200973000Y-26153000D01*
X201227000Y-26153000D01*
X201227000Y-26173000D01*
X202676250Y-26173000D01*
X202835000Y-26014250D01*
X202837446Y-25127000D01*
X203947394Y-25127000D01*
X204873000Y-26052606D01*
X204873000Y-35850040D01*
X204839375Y-35816415D01*
X204679210Y-35709396D01*
X204501243Y-35635680D01*
X204312315Y-35598100D01*
X204119685Y-35598100D01*
X203930757Y-35635680D01*
X203752790Y-35709396D01*
X203596239Y-35814000D01*
X196403630Y-35814000D01*
X195287052Y-34697422D01*
X195250320Y-34512757D01*
X195176604Y-34334790D01*
X195069585Y-34174625D01*
X194933375Y-34038415D01*
X194773210Y-33931396D01*
X194595243Y-33857680D01*
X194406315Y-33820100D01*
X194213685Y-33820100D01*
X194024757Y-33857680D01*
X193846790Y-33931396D01*
X193686625Y-34038415D01*
X193550415Y-34174625D01*
X193443396Y-34334790D01*
X193369680Y-34512757D01*
X193332100Y-34701685D01*
X193332100Y-34894315D01*
X193369680Y-35083243D01*
X193443396Y-35261210D01*
X193550415Y-35421375D01*
X193686625Y-35557585D01*
X193846790Y-35664604D01*
X194024757Y-35738320D01*
X194209422Y-35775052D01*
X195522716Y-37088346D01*
X195546578Y-37117422D01*
X195620219Y-37177857D01*
X195662607Y-37212645D01*
X195716938Y-37241685D01*
X195794985Y-37283402D01*
X195938622Y-37326974D01*
X196050574Y-37338000D01*
X196050577Y-37338000D01*
X196088000Y-37341686D01*
X196125423Y-37338000D01*
X203596239Y-37338000D01*
X203752790Y-37442604D01*
X203930757Y-37516320D01*
X204119685Y-37553900D01*
X204312315Y-37553900D01*
X204501243Y-37516320D01*
X204679210Y-37442604D01*
X204839375Y-37335585D01*
X204873000Y-37301960D01*
X204873000Y-62361928D01*
X204706000Y-62361928D01*
X204581518Y-62374188D01*
X204461820Y-62410498D01*
X204351506Y-62469463D01*
X204254815Y-62548815D01*
X204175463Y-62645506D01*
X204116498Y-62755820D01*
X204080188Y-62875518D01*
X204067928Y-63000000D01*
X204067928Y-64086954D01*
X204016599Y-64182985D01*
X203973027Y-64326622D01*
X203958314Y-64476000D01*
X203962001Y-64513433D01*
X203962000Y-65420239D01*
X203857396Y-65576790D01*
X203783680Y-65754757D01*
X203746100Y-65943685D01*
X203746100Y-66136315D01*
X203783680Y-66325243D01*
X203857396Y-66503210D01*
X203964415Y-66663375D01*
X204100625Y-66799585D01*
X204260790Y-66906604D01*
X204430858Y-66977048D01*
X204351506Y-67019463D01*
X204254815Y-67098815D01*
X204175463Y-67195506D01*
X204116498Y-67305820D01*
X204080188Y-67425518D01*
X204067928Y-67550000D01*
X204071000Y-67989250D01*
X204229750Y-68148000D01*
X204873000Y-68148000D01*
X204873000Y-68402000D01*
X204229750Y-68402000D01*
X204071000Y-68560750D01*
X204067928Y-69000000D01*
X204080188Y-69124482D01*
X204116498Y-69244180D01*
X204175463Y-69354494D01*
X204254815Y-69451185D01*
X204351506Y-69530537D01*
X204461820Y-69589502D01*
X204581518Y-69625812D01*
X204706000Y-69638072D01*
X204873000Y-69635928D01*
X204873000Y-93947394D01*
X203947394Y-94873000D01*
X177094630Y-94873000D01*
X178948473Y-93019157D01*
X179128665Y-93055000D01*
X179411335Y-93055000D01*
X179688574Y-92999853D01*
X179949727Y-92891680D01*
X180184759Y-92734637D01*
X180384637Y-92534759D01*
X180540000Y-92302241D01*
X180695363Y-92534759D01*
X180895241Y-92734637D01*
X181130273Y-92891680D01*
X181391426Y-92999853D01*
X181668665Y-93055000D01*
X181951335Y-93055000D01*
X182131527Y-93019157D01*
X183330721Y-94218352D01*
X183354578Y-94247422D01*
X183470608Y-94342645D01*
X183602985Y-94413402D01*
X183746622Y-94456974D01*
X183858574Y-94468000D01*
X183858583Y-94468000D01*
X183895999Y-94471685D01*
X183933415Y-94468000D01*
X195308577Y-94468000D01*
X195346000Y-94471686D01*
X195383423Y-94468000D01*
X195383426Y-94468000D01*
X195495378Y-94456974D01*
X195639015Y-94413402D01*
X195771392Y-94342645D01*
X195887422Y-94247422D01*
X195911284Y-94218346D01*
X201014579Y-89115052D01*
X201199243Y-89078320D01*
X201377210Y-89004604D01*
X201537375Y-88897585D01*
X201673585Y-88761375D01*
X201780604Y-88601210D01*
X201854320Y-88423243D01*
X201891900Y-88234315D01*
X201891900Y-88041685D01*
X201854320Y-87852757D01*
X201780604Y-87674790D01*
X201673585Y-87514625D01*
X201537375Y-87378415D01*
X201503710Y-87355921D01*
X203318655Y-85540976D01*
X203347724Y-85517120D01*
X203391061Y-85464314D01*
X203442947Y-85401091D01*
X203494317Y-85304983D01*
X203513704Y-85268713D01*
X203557276Y-85125076D01*
X203568302Y-85013124D01*
X203568302Y-85013122D01*
X203571988Y-84975699D01*
X203568302Y-84938276D01*
X203568302Y-82288717D01*
X203571988Y-82251294D01*
X203566701Y-82197617D01*
X203557276Y-82101916D01*
X203513704Y-81958279D01*
X203456097Y-81850503D01*
X203442947Y-81825901D01*
X203408159Y-81783513D01*
X203347724Y-81709872D01*
X203318648Y-81686010D01*
X202184000Y-80551362D01*
X202184000Y-75288776D01*
X202513324Y-74959453D01*
X202513680Y-74961243D01*
X202587396Y-75139210D01*
X202694415Y-75299375D01*
X202830625Y-75435585D01*
X202990790Y-75542604D01*
X203168757Y-75616320D01*
X203357685Y-75653900D01*
X203550315Y-75653900D01*
X203739243Y-75616320D01*
X203917210Y-75542604D01*
X204077375Y-75435585D01*
X204213585Y-75299375D01*
X204320604Y-75139210D01*
X204394320Y-74961243D01*
X204431900Y-74772315D01*
X204431900Y-74579685D01*
X204394320Y-74390757D01*
X204320604Y-74212790D01*
X204213585Y-74052625D01*
X204077375Y-73916415D01*
X203917210Y-73809396D01*
X203739243Y-73735680D01*
X203554578Y-73698948D01*
X203447821Y-73592191D01*
X203447821Y-71753347D01*
X203451507Y-71715924D01*
X203447821Y-71678498D01*
X203436795Y-71566546D01*
X203393223Y-71422909D01*
X203357488Y-71356053D01*
X203322466Y-71290531D01*
X203268375Y-71224622D01*
X203227243Y-71174502D01*
X203198168Y-71150641D01*
X202447821Y-70400294D01*
X202447821Y-61599705D01*
X203198172Y-60849356D01*
X203227243Y-60825498D01*
X203322466Y-60709468D01*
X203393223Y-60577091D01*
X203436795Y-60433454D01*
X203447821Y-60321502D01*
X203447821Y-60321500D01*
X203451507Y-60284077D01*
X203447821Y-60246654D01*
X203447821Y-59503809D01*
X203554578Y-59397052D01*
X203739243Y-59360320D01*
X203917210Y-59286604D01*
X204077375Y-59179585D01*
X204213585Y-59043375D01*
X204320604Y-58883210D01*
X204394320Y-58705243D01*
X204431900Y-58516315D01*
X204431900Y-58323685D01*
X204394320Y-58134757D01*
X204320604Y-57956790D01*
X204213585Y-57796625D01*
X204077375Y-57660415D01*
X203917210Y-57553396D01*
X203739243Y-57479680D01*
X203550315Y-57442100D01*
X203357685Y-57442100D01*
X203168757Y-57479680D01*
X203041410Y-57532429D01*
X203041410Y-47921686D01*
X203045096Y-47884263D01*
X203035912Y-47791015D01*
X203030384Y-47734886D01*
X202986812Y-47591249D01*
X202916055Y-47458872D01*
X202820832Y-47342842D01*
X202791762Y-47318985D01*
X193822430Y-38349654D01*
X193798568Y-38320578D01*
X193682538Y-38225355D01*
X193550161Y-38154598D01*
X193406524Y-38111026D01*
X193294572Y-38100000D01*
X193294569Y-38100000D01*
X193257146Y-38096314D01*
X193219723Y-38100000D01*
X190865761Y-38100000D01*
X190709210Y-37995396D01*
X190531243Y-37921680D01*
X190342315Y-37884100D01*
X190149685Y-37884100D01*
X189960757Y-37921680D01*
X189782790Y-37995396D01*
X189622625Y-38102415D01*
X189486415Y-38238625D01*
X189379396Y-38398790D01*
X189305680Y-38576757D01*
X189268100Y-38765685D01*
X189268100Y-38958315D01*
X189305680Y-39147243D01*
X189379396Y-39325210D01*
X189486415Y-39485375D01*
X189622625Y-39621585D01*
X189782790Y-39728604D01*
X189960757Y-39802320D01*
X190149685Y-39839900D01*
X190342315Y-39839900D01*
X190531243Y-39802320D01*
X190709210Y-39728604D01*
X190865761Y-39624000D01*
X192941516Y-39624000D01*
X201190515Y-47873000D01*
X184305580Y-47873000D01*
X184349402Y-47791015D01*
X184392974Y-47647378D01*
X184407686Y-47498000D01*
X184404000Y-47460574D01*
X184404000Y-42963423D01*
X184407686Y-42926000D01*
X184401332Y-42861486D01*
X184392974Y-42776622D01*
X184349402Y-42632985D01*
X184295104Y-42531400D01*
X184278645Y-42500607D01*
X184207279Y-42413648D01*
X184183422Y-42384578D01*
X184154352Y-42360721D01*
X183119335Y-41325705D01*
X183145800Y-41192660D01*
X183145800Y-40900140D01*
X183088732Y-40613242D01*
X182976790Y-40342989D01*
X182814275Y-40099768D01*
X182607432Y-39892925D01*
X182364211Y-39730410D01*
X182093958Y-39618468D01*
X181807060Y-39561400D01*
X181514540Y-39561400D01*
X181227642Y-39618468D01*
X180957389Y-39730410D01*
X180714168Y-39892925D01*
X180507325Y-40099768D01*
X180390800Y-40274160D01*
X180274275Y-40099768D01*
X180067432Y-39892925D01*
X179824211Y-39730410D01*
X179553958Y-39618468D01*
X179267060Y-39561400D01*
X178974540Y-39561400D01*
X178687642Y-39618468D01*
X178417389Y-39730410D01*
X178174168Y-39892925D01*
X177967325Y-40099768D01*
X177850800Y-40274160D01*
X177734275Y-40099768D01*
X177527432Y-39892925D01*
X177284211Y-39730410D01*
X177013958Y-39618468D01*
X176727060Y-39561400D01*
X176458836Y-39561400D01*
X176505537Y-39504494D01*
X176564502Y-39394180D01*
X176600812Y-39274482D01*
X176613072Y-39150000D01*
X176610000Y-39035750D01*
X176451250Y-38877000D01*
X175627000Y-38877000D01*
X175627000Y-39626250D01*
X175785750Y-39785000D01*
X175795454Y-39785158D01*
X175634168Y-39892925D01*
X175427325Y-40099768D01*
X175310800Y-40274160D01*
X175194275Y-40099768D01*
X174987432Y-39892925D01*
X174744211Y-39730410D01*
X174473958Y-39618468D01*
X174187060Y-39561400D01*
X173894540Y-39561400D01*
X173607642Y-39618468D01*
X173337389Y-39730410D01*
X173094168Y-39892925D01*
X172887325Y-40099768D01*
X172770800Y-40274160D01*
X172654275Y-40099768D01*
X172447432Y-39892925D01*
X172204211Y-39730410D01*
X171933958Y-39618468D01*
X171647060Y-39561400D01*
X171354540Y-39561400D01*
X171067642Y-39618468D01*
X170797389Y-39730410D01*
X170554168Y-39892925D01*
X170347325Y-40099768D01*
X170225605Y-40281934D01*
X170155978Y-40165045D01*
X169961069Y-39948812D01*
X169727720Y-39774759D01*
X169464899Y-39649575D01*
X169317690Y-39604924D01*
X169087800Y-39726245D01*
X169087800Y-40919400D01*
X169107800Y-40919400D01*
X169107800Y-41173400D01*
X169087800Y-41173400D01*
X169087800Y-41193400D01*
X168833800Y-41193400D01*
X168833800Y-41173400D01*
X167639986Y-41173400D01*
X167519319Y-41403291D01*
X167616643Y-41677652D01*
X167765622Y-41927755D01*
X167942426Y-42123902D01*
X167866620Y-42146898D01*
X167756306Y-42205863D01*
X167659615Y-42285215D01*
X167580263Y-42381906D01*
X167521298Y-42492220D01*
X167484988Y-42611918D01*
X167472728Y-42736400D01*
X167472728Y-44436400D01*
X167484988Y-44560882D01*
X167521298Y-44680580D01*
X167580263Y-44790894D01*
X167659615Y-44887585D01*
X167756306Y-44966937D01*
X167866620Y-45025902D01*
X167986318Y-45062212D01*
X168110800Y-45074472D01*
X169810800Y-45074472D01*
X169935282Y-45062212D01*
X170054980Y-45025902D01*
X170165294Y-44966937D01*
X170261985Y-44887585D01*
X170341337Y-44790894D01*
X170400302Y-44680580D01*
X170422313Y-44608020D01*
X170554168Y-44739875D01*
X170797389Y-44902390D01*
X171067642Y-45014332D01*
X171354540Y-45071400D01*
X171647060Y-45071400D01*
X171933958Y-45014332D01*
X172204211Y-44902390D01*
X172447432Y-44739875D01*
X172654275Y-44533032D01*
X172770800Y-44358640D01*
X172887325Y-44533032D01*
X173094168Y-44739875D01*
X173337389Y-44902390D01*
X173607642Y-45014332D01*
X173894540Y-45071400D01*
X174187060Y-45071400D01*
X174473958Y-45014332D01*
X174744211Y-44902390D01*
X174987432Y-44739875D01*
X175194275Y-44533032D01*
X175310800Y-44358640D01*
X175427325Y-44533032D01*
X175634168Y-44739875D01*
X175877389Y-44902390D01*
X176147642Y-45014332D01*
X176434540Y-45071400D01*
X176727060Y-45071400D01*
X177013958Y-45014332D01*
X177284211Y-44902390D01*
X177527432Y-44739875D01*
X177734275Y-44533032D01*
X177850800Y-44358640D01*
X177967325Y-44533032D01*
X178174168Y-44739875D01*
X178417389Y-44902390D01*
X178687642Y-45014332D01*
X178974540Y-45071400D01*
X179267060Y-45071400D01*
X179553958Y-45014332D01*
X179824211Y-44902390D01*
X180067432Y-44739875D01*
X180274275Y-44533032D01*
X180390800Y-44358640D01*
X180507325Y-44533032D01*
X180714168Y-44739875D01*
X180957389Y-44902390D01*
X181227642Y-45014332D01*
X181514540Y-45071400D01*
X181807060Y-45071400D01*
X182093958Y-45014332D01*
X182364211Y-44902390D01*
X182607432Y-44739875D01*
X182814275Y-44533032D01*
X182880001Y-44434667D01*
X182880000Y-46736000D01*
X161474535Y-46736000D01*
X161468320Y-46704757D01*
X161394604Y-46526790D01*
X161287585Y-46366625D01*
X161151375Y-46230415D01*
X160991210Y-46123396D01*
X160813243Y-46049680D01*
X160624315Y-46012100D01*
X160431685Y-46012100D01*
X160242757Y-46049680D01*
X160064790Y-46123396D01*
X159904625Y-46230415D01*
X159768415Y-46366625D01*
X159661396Y-46526790D01*
X159587680Y-46704757D01*
X159550100Y-46893685D01*
X159550100Y-47086315D01*
X159587680Y-47275243D01*
X159661396Y-47453210D01*
X159768415Y-47613375D01*
X159904625Y-47749585D01*
X160064790Y-47856604D01*
X160104374Y-47873000D01*
X150000000Y-47873000D01*
X149975224Y-47875440D01*
X149951399Y-47882667D01*
X149929443Y-47894403D01*
X149910197Y-47910197D01*
X149894403Y-47929443D01*
X149882667Y-47951399D01*
X149875440Y-47975224D01*
X149873000Y-48000000D01*
X149873000Y-60000000D01*
X149875440Y-60024776D01*
X149882667Y-60048601D01*
X149894403Y-60070557D01*
X149910197Y-60089803D01*
X150873000Y-61052606D01*
X150873000Y-70947394D01*
X149910197Y-71910197D01*
X149894403Y-71929443D01*
X149882667Y-71951399D01*
X149875440Y-71975224D01*
X149873000Y-72000000D01*
X149873000Y-74000000D01*
X149875440Y-74024776D01*
X149882667Y-74048601D01*
X149894403Y-74070557D01*
X149910197Y-74089803D01*
X149929443Y-74105597D01*
X149951399Y-74117333D01*
X149975224Y-74124560D01*
X150000000Y-74127000D01*
X201190516Y-74127000D01*
X200909649Y-74407867D01*
X200880579Y-74431724D01*
X200856722Y-74460794D01*
X200856721Y-74460795D01*
X200785355Y-74547754D01*
X200714599Y-74680131D01*
X200671027Y-74823768D01*
X200656314Y-74973146D01*
X200660001Y-75010579D01*
X200660000Y-80829569D01*
X200656314Y-80866992D01*
X200660000Y-80904415D01*
X200660000Y-80904417D01*
X200671026Y-81016369D01*
X200714598Y-81160006D01*
X200722824Y-81175396D01*
X200785355Y-81292384D01*
X200822200Y-81337279D01*
X200880578Y-81408414D01*
X200909654Y-81432276D01*
X202044303Y-82566925D01*
X202044302Y-84184084D01*
X201961243Y-84149680D01*
X201776579Y-84112948D01*
X199561586Y-81897956D01*
X199537724Y-81868880D01*
X199421694Y-81773657D01*
X199289317Y-81702900D01*
X199145680Y-81659328D01*
X199033728Y-81648302D01*
X199033725Y-81648302D01*
X198996302Y-81644616D01*
X198958879Y-81648302D01*
X187145328Y-81648302D01*
X187402346Y-81391284D01*
X187431422Y-81367422D01*
X187503167Y-81280000D01*
X187526645Y-81251393D01*
X187567266Y-81175396D01*
X187597402Y-81119015D01*
X187640974Y-80975378D01*
X187652000Y-80863426D01*
X187652000Y-80863423D01*
X187655686Y-80826000D01*
X187652000Y-80788577D01*
X187652000Y-77596707D01*
X187804759Y-77494637D01*
X188004637Y-77294759D01*
X188160000Y-77062241D01*
X188315363Y-77294759D01*
X188515241Y-77494637D01*
X188750273Y-77651680D01*
X189011426Y-77759853D01*
X189288665Y-77815000D01*
X189571335Y-77815000D01*
X189848574Y-77759853D01*
X190109727Y-77651680D01*
X190344759Y-77494637D01*
X190544637Y-77294759D01*
X190700000Y-77062241D01*
X190855363Y-77294759D01*
X191055241Y-77494637D01*
X191290273Y-77651680D01*
X191551426Y-77759853D01*
X191828665Y-77815000D01*
X192111335Y-77815000D01*
X192388574Y-77759853D01*
X192649727Y-77651680D01*
X192884759Y-77494637D01*
X193083357Y-77296039D01*
X193084188Y-77304482D01*
X193120498Y-77424180D01*
X193179463Y-77534494D01*
X193258815Y-77631185D01*
X193355506Y-77710537D01*
X193465820Y-77769502D01*
X193585518Y-77805812D01*
X193710000Y-77818072D01*
X194224250Y-77815000D01*
X194383000Y-77656250D01*
X194383000Y-76507000D01*
X194637000Y-76507000D01*
X194637000Y-77656250D01*
X194795750Y-77815000D01*
X195310000Y-77818072D01*
X195434482Y-77805812D01*
X195554180Y-77769502D01*
X195664494Y-77710537D01*
X195761185Y-77631185D01*
X195840537Y-77534494D01*
X195899502Y-77424180D01*
X195935812Y-77304482D01*
X195948072Y-77180000D01*
X195945000Y-76665750D01*
X195786250Y-76507000D01*
X194637000Y-76507000D01*
X194383000Y-76507000D01*
X194363000Y-76507000D01*
X194363000Y-76253000D01*
X194383000Y-76253000D01*
X194383000Y-75103750D01*
X194637000Y-75103750D01*
X194637000Y-76253000D01*
X195786250Y-76253000D01*
X195945000Y-76094250D01*
X195948072Y-75580000D01*
X195935812Y-75455518D01*
X195899502Y-75335820D01*
X195840537Y-75225506D01*
X195761185Y-75128815D01*
X195664494Y-75049463D01*
X195554180Y-74990498D01*
X195434482Y-74954188D01*
X195310000Y-74941928D01*
X194795750Y-74945000D01*
X194637000Y-75103750D01*
X194383000Y-75103750D01*
X194224250Y-74945000D01*
X193710000Y-74941928D01*
X193585518Y-74954188D01*
X193465820Y-74990498D01*
X193355506Y-75049463D01*
X193258815Y-75128815D01*
X193179463Y-75225506D01*
X193120498Y-75335820D01*
X193084188Y-75455518D01*
X193083357Y-75463961D01*
X192884759Y-75265363D01*
X192649727Y-75108320D01*
X192388574Y-75000147D01*
X192111335Y-74945000D01*
X191828665Y-74945000D01*
X191551426Y-75000147D01*
X191290273Y-75108320D01*
X191055241Y-75265363D01*
X190855363Y-75465241D01*
X190700000Y-75697759D01*
X190544637Y-75465241D01*
X190344759Y-75265363D01*
X190109727Y-75108320D01*
X189848574Y-75000147D01*
X189571335Y-74945000D01*
X189288665Y-74945000D01*
X189011426Y-75000147D01*
X188750273Y-75108320D01*
X188515241Y-75265363D01*
X188315363Y-75465241D01*
X188160000Y-75697759D01*
X188004637Y-75465241D01*
X187804759Y-75265363D01*
X187569727Y-75108320D01*
X187308574Y-75000147D01*
X187031335Y-74945000D01*
X186748665Y-74945000D01*
X186471426Y-75000147D01*
X186210273Y-75108320D01*
X185975241Y-75265363D01*
X185775363Y-75465241D01*
X185620000Y-75697759D01*
X185464637Y-75465241D01*
X185264759Y-75265363D01*
X185029727Y-75108320D01*
X184768574Y-75000147D01*
X184491335Y-74945000D01*
X184208665Y-74945000D01*
X183931426Y-75000147D01*
X183670273Y-75108320D01*
X183435241Y-75265363D01*
X183235363Y-75465241D01*
X183080000Y-75697759D01*
X182924637Y-75465241D01*
X182724759Y-75265363D01*
X182489727Y-75108320D01*
X182228574Y-75000147D01*
X181951335Y-74945000D01*
X181668665Y-74945000D01*
X181391426Y-75000147D01*
X181130273Y-75108320D01*
X180895241Y-75265363D01*
X180695363Y-75465241D01*
X180540000Y-75697759D01*
X180384637Y-75465241D01*
X180184759Y-75265363D01*
X179949727Y-75108320D01*
X179688574Y-75000147D01*
X179411335Y-74945000D01*
X179128665Y-74945000D01*
X178851426Y-75000147D01*
X178590273Y-75108320D01*
X178355241Y-75265363D01*
X178155363Y-75465241D01*
X178000000Y-75697759D01*
X177844637Y-75465241D01*
X177644759Y-75265363D01*
X177409727Y-75108320D01*
X177148574Y-75000147D01*
X176871335Y-74945000D01*
X176588665Y-74945000D01*
X176311426Y-75000147D01*
X176050273Y-75108320D01*
X175815241Y-75265363D01*
X175615363Y-75465241D01*
X175460000Y-75697759D01*
X175304637Y-75465241D01*
X175104759Y-75265363D01*
X174869727Y-75108320D01*
X174608574Y-75000147D01*
X174331335Y-74945000D01*
X174048665Y-74945000D01*
X173771426Y-75000147D01*
X173510273Y-75108320D01*
X173275241Y-75265363D01*
X173075363Y-75465241D01*
X172920000Y-75697759D01*
X172764637Y-75465241D01*
X172564759Y-75265363D01*
X172329727Y-75108320D01*
X172068574Y-75000147D01*
X171791335Y-74945000D01*
X171508665Y-74945000D01*
X171231426Y-75000147D01*
X170970273Y-75108320D01*
X170735241Y-75265363D01*
X170535363Y-75465241D01*
X170380000Y-75697759D01*
X170224637Y-75465241D01*
X170024759Y-75265363D01*
X169789727Y-75108320D01*
X169528574Y-75000147D01*
X169251335Y-74945000D01*
X168968665Y-74945000D01*
X168691426Y-75000147D01*
X168430273Y-75108320D01*
X168195241Y-75265363D01*
X167995363Y-75465241D01*
X167840000Y-75697759D01*
X167684637Y-75465241D01*
X167484759Y-75265363D01*
X167249727Y-75108320D01*
X166988574Y-75000147D01*
X166711335Y-74945000D01*
X166428665Y-74945000D01*
X166151426Y-75000147D01*
X165890273Y-75108320D01*
X165655241Y-75265363D01*
X165455363Y-75465241D01*
X165300000Y-75697759D01*
X165144637Y-75465241D01*
X164944759Y-75265363D01*
X164709727Y-75108320D01*
X164448574Y-75000147D01*
X164171335Y-74945000D01*
X163888665Y-74945000D01*
X163611426Y-75000147D01*
X163350273Y-75108320D01*
X163115241Y-75265363D01*
X162915363Y-75465241D01*
X162760000Y-75697759D01*
X162604637Y-75465241D01*
X162404759Y-75265363D01*
X162169727Y-75108320D01*
X161908574Y-75000147D01*
X161631335Y-74945000D01*
X161348665Y-74945000D01*
X161071426Y-75000147D01*
X160810273Y-75108320D01*
X160575241Y-75265363D01*
X160375363Y-75465241D01*
X160218320Y-75700273D01*
X160110147Y-75961426D01*
X160055000Y-76238665D01*
X160055000Y-76521335D01*
X160110147Y-76798574D01*
X160218320Y-77059727D01*
X160375363Y-77294759D01*
X160575241Y-77494637D01*
X160807759Y-77650000D01*
X160575241Y-77805363D01*
X160375363Y-78005241D01*
X160218320Y-78240273D01*
X160110147Y-78501426D01*
X160055000Y-78778665D01*
X160055000Y-79061335D01*
X160110147Y-79338574D01*
X160218320Y-79599727D01*
X160375363Y-79834759D01*
X160438605Y-79898001D01*
X152364500Y-79898001D01*
X152327077Y-79894315D01*
X152289654Y-79898001D01*
X152289651Y-79898001D01*
X152177699Y-79909027D01*
X152034062Y-79952599D01*
X151972441Y-79985536D01*
X151901684Y-80023356D01*
X151859296Y-80058144D01*
X151785655Y-80118579D01*
X151761793Y-80147655D01*
X151048248Y-80861200D01*
X151019178Y-80885057D01*
X150995321Y-80914127D01*
X150995320Y-80914128D01*
X150923954Y-81001087D01*
X150853198Y-81133464D01*
X150837900Y-81183895D01*
X150837900Y-81183685D01*
X150800320Y-80994757D01*
X150726604Y-80816790D01*
X150619585Y-80656625D01*
X150483375Y-80520415D01*
X150323210Y-80413396D01*
X150145243Y-80339680D01*
X149956315Y-80302100D01*
X149763685Y-80302100D01*
X149574757Y-80339680D01*
X149396790Y-80413396D01*
X149236625Y-80520415D01*
X149100415Y-80656625D01*
X148993396Y-80816790D01*
X148919680Y-80994757D01*
X148882100Y-81183685D01*
X148882100Y-81376315D01*
X148919680Y-81565243D01*
X148976320Y-81701986D01*
X148954716Y-81719716D01*
X148847382Y-81850503D01*
X148767625Y-81999717D01*
X148718512Y-82161623D01*
X148701928Y-82330000D01*
X148701928Y-82780000D01*
X148718512Y-82948377D01*
X148767625Y-83110283D01*
X148845700Y-83256351D01*
X148809463Y-83300506D01*
X148750498Y-83410820D01*
X148714188Y-83530518D01*
X148701928Y-83655000D01*
X148705000Y-83819250D01*
X148863750Y-83978000D01*
X149688000Y-83978000D01*
X149688000Y-83958000D01*
X149942000Y-83958000D01*
X149942000Y-83978000D01*
X149962000Y-83978000D01*
X149962000Y-84232000D01*
X149942000Y-84232000D01*
X149942000Y-84789499D01*
X149935680Y-84804757D01*
X149898100Y-84993685D01*
X149898100Y-85186315D01*
X149935680Y-85375243D01*
X150009396Y-85553210D01*
X150116415Y-85713375D01*
X150252625Y-85849585D01*
X150412790Y-85956604D01*
X150590757Y-86030320D01*
X150779685Y-86067900D01*
X150972315Y-86067900D01*
X151160549Y-86030458D01*
X151143512Y-86086623D01*
X151126928Y-86255000D01*
X151126928Y-86755000D01*
X151143512Y-86923377D01*
X151192625Y-87085283D01*
X151272382Y-87234497D01*
X151379716Y-87365284D01*
X151510503Y-87472618D01*
X151659717Y-87552375D01*
X151821623Y-87601488D01*
X151990000Y-87618072D01*
X152440000Y-87618072D01*
X152608377Y-87601488D01*
X152770283Y-87552375D01*
X152916351Y-87474300D01*
X152960506Y-87510537D01*
X153070820Y-87569502D01*
X153190518Y-87605812D01*
X153315000Y-87618072D01*
X153479250Y-87615000D01*
X153638000Y-87456250D01*
X153638000Y-86632000D01*
X153618000Y-86632000D01*
X153618000Y-86378000D01*
X153638000Y-86378000D01*
X153638000Y-86358000D01*
X153766267Y-86358000D01*
X153786574Y-86360000D01*
X153786576Y-86360000D01*
X153823999Y-86363686D01*
X153861422Y-86360000D01*
X153892000Y-86360000D01*
X153892000Y-86378000D01*
X153912000Y-86378000D01*
X153912000Y-86632000D01*
X153892000Y-86632000D01*
X153892000Y-87456250D01*
X154050750Y-87615000D01*
X154215000Y-87618072D01*
X154339482Y-87605812D01*
X154459180Y-87569502D01*
X154569494Y-87510537D01*
X154666185Y-87431185D01*
X154745537Y-87334494D01*
X154804502Y-87224180D01*
X154840812Y-87104482D01*
X154853072Y-86980000D01*
X154850000Y-86790750D01*
X154691252Y-86632002D01*
X154850000Y-86632002D01*
X154850000Y-86575900D01*
X155036315Y-86575900D01*
X155225243Y-86538320D01*
X155403210Y-86464604D01*
X155563375Y-86357585D01*
X155699585Y-86221375D01*
X155806604Y-86061210D01*
X155880320Y-85883243D01*
X155917900Y-85694315D01*
X155917900Y-85501685D01*
X155880320Y-85312757D01*
X155829805Y-85190803D01*
X155879250Y-85190000D01*
X156038000Y-85031250D01*
X156038000Y-84426406D01*
X156103437Y-84268426D01*
X156110682Y-84232000D01*
X156292000Y-84232000D01*
X156292000Y-85031250D01*
X156450750Y-85190000D01*
X156640000Y-85193072D01*
X156764482Y-85180812D01*
X156884180Y-85144502D01*
X156994494Y-85085537D01*
X157091185Y-85006185D01*
X157170537Y-84909494D01*
X157229502Y-84799180D01*
X157265812Y-84679482D01*
X157278072Y-84555000D01*
X157275000Y-84390750D01*
X157116250Y-84232000D01*
X156292000Y-84232000D01*
X156110682Y-84232000D01*
X156141017Y-84079498D01*
X156141017Y-83958000D01*
X156292000Y-83958000D01*
X156292000Y-83978000D01*
X157116250Y-83978000D01*
X157275000Y-83819250D01*
X157278072Y-83655000D01*
X157265812Y-83530518D01*
X157229502Y-83410820D01*
X157170537Y-83300506D01*
X157134300Y-83256351D01*
X157212375Y-83110283D01*
X157261488Y-82948377D01*
X157278072Y-82780000D01*
X157278072Y-82330000D01*
X157261488Y-82161623D01*
X157212375Y-81999717D01*
X157132618Y-81850503D01*
X157025284Y-81719716D01*
X156894497Y-81612382D01*
X156745283Y-81532625D01*
X156583377Y-81483512D01*
X156415000Y-81466928D01*
X156157224Y-81466928D01*
X156146646Y-81441391D01*
X156133690Y-81422001D01*
X160055000Y-81422001D01*
X160055000Y-81601335D01*
X160110147Y-81878574D01*
X160218320Y-82139727D01*
X160375363Y-82374759D01*
X160575241Y-82574637D01*
X160807759Y-82730000D01*
X160575241Y-82885363D01*
X160375363Y-83085241D01*
X160218320Y-83320273D01*
X160110147Y-83581426D01*
X160055000Y-83858665D01*
X160055000Y-84141335D01*
X160110147Y-84418574D01*
X160218320Y-84679727D01*
X160375363Y-84914759D01*
X160575241Y-85114637D01*
X160807759Y-85270000D01*
X160575241Y-85425363D01*
X160375363Y-85625241D01*
X160218320Y-85860273D01*
X160110147Y-86121426D01*
X160055000Y-86398665D01*
X160055000Y-86681335D01*
X160110147Y-86958574D01*
X160218320Y-87219727D01*
X160375363Y-87454759D01*
X160575241Y-87654637D01*
X160807759Y-87810000D01*
X160575241Y-87965363D01*
X160375363Y-88165241D01*
X160218320Y-88400273D01*
X160110147Y-88661426D01*
X160055000Y-88938665D01*
X160055000Y-89221335D01*
X160110147Y-89498574D01*
X160218320Y-89759727D01*
X160375363Y-89994759D01*
X160575241Y-90194637D01*
X160807759Y-90350000D01*
X160575241Y-90505363D01*
X160375363Y-90705241D01*
X160218320Y-90940273D01*
X160110147Y-91201426D01*
X160055000Y-91478665D01*
X160055000Y-91761335D01*
X160110147Y-92038574D01*
X160218320Y-92299727D01*
X160375363Y-92534759D01*
X160575241Y-92734637D01*
X160810273Y-92891680D01*
X161071426Y-92999853D01*
X161348665Y-93055000D01*
X161631335Y-93055000D01*
X161908574Y-92999853D01*
X162169727Y-92891680D01*
X162404759Y-92734637D01*
X162604637Y-92534759D01*
X162760000Y-92302241D01*
X162915363Y-92534759D01*
X163115241Y-92734637D01*
X163350273Y-92891680D01*
X163611426Y-92999853D01*
X163888665Y-93055000D01*
X164171335Y-93055000D01*
X164448574Y-92999853D01*
X164709727Y-92891680D01*
X164944759Y-92734637D01*
X165144637Y-92534759D01*
X165300000Y-92302241D01*
X165455363Y-92534759D01*
X165655241Y-92734637D01*
X165890273Y-92891680D01*
X166151426Y-92999853D01*
X166428665Y-93055000D01*
X166711335Y-93055000D01*
X166988574Y-92999853D01*
X167249727Y-92891680D01*
X167484759Y-92734637D01*
X167684637Y-92534759D01*
X167840000Y-92302241D01*
X167995363Y-92534759D01*
X168195241Y-92734637D01*
X168430273Y-92891680D01*
X168691426Y-92999853D01*
X168968665Y-93055000D01*
X169251335Y-93055000D01*
X169528574Y-92999853D01*
X169789727Y-92891680D01*
X170024759Y-92734637D01*
X170224637Y-92534759D01*
X170380000Y-92302241D01*
X170535363Y-92534759D01*
X170735241Y-92734637D01*
X170970273Y-92891680D01*
X171231426Y-92999853D01*
X171508665Y-93055000D01*
X171791335Y-93055000D01*
X172068574Y-92999853D01*
X172329727Y-92891680D01*
X172564759Y-92734637D01*
X172764637Y-92534759D01*
X172920000Y-92302241D01*
X173075363Y-92534759D01*
X173275241Y-92734637D01*
X173510273Y-92891680D01*
X173771426Y-92999853D01*
X174048665Y-93055000D01*
X174331335Y-93055000D01*
X174608574Y-92999853D01*
X174869727Y-92891680D01*
X175104759Y-92734637D01*
X175304637Y-92534759D01*
X175460000Y-92302241D01*
X175615363Y-92534759D01*
X175815241Y-92734637D01*
X176050273Y-92891680D01*
X176311426Y-92999853D01*
X176588665Y-93055000D01*
X176757370Y-93055000D01*
X176086370Y-93726000D01*
X156525631Y-93726000D01*
X148336000Y-85536370D01*
X148336000Y-84555000D01*
X148701928Y-84555000D01*
X148714188Y-84679482D01*
X148750498Y-84799180D01*
X148809463Y-84909494D01*
X148888815Y-85006185D01*
X148985506Y-85085537D01*
X149095820Y-85144502D01*
X149215518Y-85180812D01*
X149340000Y-85193072D01*
X149529250Y-85190000D01*
X149688000Y-85031250D01*
X149688000Y-84232000D01*
X148863750Y-84232000D01*
X148705000Y-84390750D01*
X148701928Y-84555000D01*
X148336000Y-84555000D01*
X148336000Y-79463896D01*
X148432315Y-79463896D01*
X148621243Y-79426316D01*
X148711170Y-79389067D01*
X148739396Y-79457210D01*
X148846415Y-79617375D01*
X148982625Y-79753585D01*
X149142790Y-79860604D01*
X149320757Y-79934320D01*
X149509685Y-79971900D01*
X149702315Y-79971900D01*
X149891243Y-79934320D01*
X150069210Y-79860604D01*
X150229375Y-79753585D01*
X150365585Y-79617375D01*
X150472604Y-79457210D01*
X150546320Y-79279243D01*
X150583900Y-79090315D01*
X150583900Y-78897685D01*
X150546320Y-78708757D01*
X150472604Y-78530790D01*
X150365585Y-78370625D01*
X150229375Y-78234415D01*
X150069210Y-78127396D01*
X149891243Y-78053680D01*
X149873968Y-78050244D01*
X149873968Y-77581761D01*
X149978572Y-77425210D01*
X150052288Y-77247243D01*
X150089868Y-77058315D01*
X150089868Y-76865685D01*
X150052288Y-76676757D01*
X149978572Y-76498790D01*
X149871553Y-76338625D01*
X149735343Y-76202415D01*
X149575178Y-76095396D01*
X149397211Y-76021680D01*
X149208283Y-75984100D01*
X149098000Y-75984100D01*
X149098000Y-70289778D01*
X149162010Y-70135243D01*
X149199590Y-69946315D01*
X149199590Y-69753685D01*
X149162010Y-69564757D01*
X149088294Y-69386790D01*
X148981275Y-69226625D01*
X148845065Y-69090415D01*
X148684900Y-68983396D01*
X148506933Y-68909680D01*
X148318005Y-68872100D01*
X148125375Y-68872100D01*
X147976072Y-68901798D01*
X147976072Y-67742400D01*
X147963812Y-67617918D01*
X147927502Y-67498220D01*
X147868537Y-67387906D01*
X147789185Y-67291215D01*
X147692494Y-67211863D01*
X147582180Y-67152898D01*
X147462482Y-67116588D01*
X147338000Y-67104328D01*
X147127000Y-67104328D01*
X147127000Y-65277763D01*
X147338000Y-65280472D01*
X147462482Y-65268212D01*
X147582180Y-65231902D01*
X147692494Y-65172937D01*
X147789185Y-65093585D01*
X147868537Y-64996894D01*
X147927502Y-64886580D01*
X147963812Y-64766882D01*
X147976072Y-64642400D01*
X147973000Y-64203150D01*
X147814250Y-64044400D01*
X147127000Y-64044400D01*
X147127000Y-63790400D01*
X147814250Y-63790400D01*
X147973000Y-63631650D01*
X147976072Y-63192400D01*
X147963812Y-63067918D01*
X147927502Y-62948220D01*
X147868537Y-62837906D01*
X147789185Y-62741215D01*
X147692494Y-62661863D01*
X147582180Y-62602898D01*
X147462482Y-62566588D01*
X147338000Y-62554328D01*
X147127000Y-62557037D01*
X147127000Y-40689509D01*
X167519319Y-40689509D01*
X167639986Y-40919400D01*
X168833800Y-40919400D01*
X168833800Y-39726245D01*
X168603910Y-39604924D01*
X168456701Y-39649575D01*
X168193880Y-39774759D01*
X167960531Y-39948812D01*
X167765622Y-40165045D01*
X167616643Y-40415148D01*
X167519319Y-40689509D01*
X147127000Y-40689509D01*
X147127000Y-39150000D01*
X174386928Y-39150000D01*
X174399188Y-39274482D01*
X174435498Y-39394180D01*
X174494463Y-39504494D01*
X174573815Y-39601185D01*
X174670506Y-39680537D01*
X174780820Y-39739502D01*
X174900518Y-39775812D01*
X175025000Y-39788072D01*
X175214250Y-39785000D01*
X175373000Y-39626250D01*
X175373000Y-38877000D01*
X174548750Y-38877000D01*
X174390000Y-39035750D01*
X174386928Y-39150000D01*
X147127000Y-39150000D01*
X147127000Y-35100000D01*
X149161928Y-35100000D01*
X149174188Y-35224482D01*
X149210498Y-35344180D01*
X149269463Y-35454494D01*
X149348815Y-35551185D01*
X149445506Y-35630537D01*
X149555820Y-35689502D01*
X149675518Y-35725812D01*
X149800000Y-35738072D01*
X150614250Y-35735000D01*
X150773000Y-35576250D01*
X150773000Y-33827000D01*
X151027000Y-33827000D01*
X151027000Y-35576250D01*
X151185750Y-35735000D01*
X152000000Y-35738072D01*
X152124482Y-35725812D01*
X152244180Y-35689502D01*
X152354494Y-35630537D01*
X152451185Y-35551185D01*
X152530537Y-35454494D01*
X152589502Y-35344180D01*
X152625812Y-35224482D01*
X152638072Y-35100000D01*
X152635000Y-33985750D01*
X152476250Y-33827000D01*
X151027000Y-33827000D01*
X150773000Y-33827000D01*
X149323750Y-33827000D01*
X149165000Y-33985750D01*
X149161928Y-35100000D01*
X147127000Y-35100000D01*
X147127000Y-32300000D01*
X149161928Y-32300000D01*
X149165000Y-33414250D01*
X149323750Y-33573000D01*
X150773000Y-33573000D01*
X150773000Y-31823750D01*
X151027000Y-31823750D01*
X151027000Y-33573000D01*
X152476250Y-33573000D01*
X152635000Y-33414250D01*
X152638072Y-32300000D01*
X158261928Y-32300000D01*
X158261928Y-35100000D01*
X158274188Y-35224482D01*
X158310498Y-35344180D01*
X158369463Y-35454494D01*
X158448815Y-35551185D01*
X158545506Y-35630537D01*
X158655820Y-35689502D01*
X158775518Y-35725812D01*
X158900000Y-35738072D01*
X161700000Y-35738072D01*
X161824482Y-35725812D01*
X161944180Y-35689502D01*
X162054494Y-35630537D01*
X162151185Y-35551185D01*
X162230537Y-35454494D01*
X162289502Y-35344180D01*
X162325812Y-35224482D01*
X162338072Y-35100000D01*
X162338072Y-32300000D01*
X162325812Y-32175518D01*
X162289502Y-32055820D01*
X162230537Y-31945506D01*
X162151185Y-31848815D01*
X162054494Y-31769463D01*
X161944180Y-31710498D01*
X161824482Y-31674188D01*
X161700000Y-31661928D01*
X158900000Y-31661928D01*
X158775518Y-31674188D01*
X158655820Y-31710498D01*
X158545506Y-31769463D01*
X158448815Y-31848815D01*
X158369463Y-31945506D01*
X158310498Y-32055820D01*
X158274188Y-32175518D01*
X158261928Y-32300000D01*
X152638072Y-32300000D01*
X152625812Y-32175518D01*
X152589502Y-32055820D01*
X152530537Y-31945506D01*
X152451185Y-31848815D01*
X152354494Y-31769463D01*
X152244180Y-31710498D01*
X152124482Y-31674188D01*
X152000000Y-31661928D01*
X151185750Y-31665000D01*
X151027000Y-31823750D01*
X150773000Y-31823750D01*
X150614250Y-31665000D01*
X149800000Y-31661928D01*
X149675518Y-31674188D01*
X149555820Y-31710498D01*
X149445506Y-31769463D01*
X149348815Y-31848815D01*
X149269463Y-31945506D01*
X149210498Y-32055820D01*
X149174188Y-32175518D01*
X149161928Y-32300000D01*
X147127000Y-32300000D01*
X147127000Y-29853740D01*
X150515000Y-29853740D01*
X150515000Y-30146260D01*
X150572068Y-30433158D01*
X150684010Y-30703411D01*
X150846525Y-30946632D01*
X151053368Y-31153475D01*
X151296589Y-31315990D01*
X151566842Y-31427932D01*
X151853740Y-31485000D01*
X152146260Y-31485000D01*
X152433158Y-31427932D01*
X152703411Y-31315990D01*
X152946632Y-31153475D01*
X153153475Y-30946632D01*
X153315990Y-30703411D01*
X153427932Y-30433158D01*
X153485000Y-30146260D01*
X153485000Y-29853740D01*
X157515000Y-29853740D01*
X157515000Y-30146260D01*
X157572068Y-30433158D01*
X157684010Y-30703411D01*
X157846525Y-30946632D01*
X158053368Y-31153475D01*
X158296589Y-31315990D01*
X158566842Y-31427932D01*
X158853740Y-31485000D01*
X159146260Y-31485000D01*
X159433158Y-31427932D01*
X159703411Y-31315990D01*
X159946632Y-31153475D01*
X160153475Y-30946632D01*
X160315990Y-30703411D01*
X160427932Y-30433158D01*
X160485000Y-30146260D01*
X160485000Y-29853740D01*
X160427932Y-29566842D01*
X160315990Y-29296589D01*
X160153475Y-29053368D01*
X159946632Y-28846525D01*
X159703411Y-28684010D01*
X159433158Y-28572068D01*
X159146260Y-28515000D01*
X158853740Y-28515000D01*
X158566842Y-28572068D01*
X158296589Y-28684010D01*
X158053368Y-28846525D01*
X157846525Y-29053368D01*
X157684010Y-29296589D01*
X157572068Y-29566842D01*
X157515000Y-29853740D01*
X153485000Y-29853740D01*
X153427932Y-29566842D01*
X153315990Y-29296589D01*
X153153475Y-29053368D01*
X152946632Y-28846525D01*
X152703411Y-28684010D01*
X152433158Y-28572068D01*
X152146260Y-28515000D01*
X151853740Y-28515000D01*
X151566842Y-28572068D01*
X151296589Y-28684010D01*
X151053368Y-28846525D01*
X150846525Y-29053368D01*
X150684010Y-29296589D01*
X150572068Y-29566842D01*
X150515000Y-29853740D01*
X147127000Y-29853740D01*
X147127000Y-26052606D01*
X148052606Y-25127000D01*
X151161928Y-25127000D01*
X151161928Y-27700000D01*
G37*
%TD.AperFunction*%
%TD*%
M02*
