%TF.GenerationSoftware,KiCad,Pcbnew,(5.1.9-0-10_14)*%
%TF.CreationDate,2022-03-13T20:30:51-07:00*%
%TF.ProjectId,integrator,696e7465-6772-4617-946f-722e6b696361,rev?*%
%TF.SameCoordinates,Original*%
%TF.FileFunction,Legend,Bot*%
%TF.FilePolarity,Positive*%
%FSLAX46Y46*%
G04 Gerber Fmt 4.6, Leading zero omitted, Abs format (unit mm)*
G04 Created by KiCad (PCBNEW (5.1.9-0-10_14)) date 2022-03-13 20:30:51*
%MOMM*%
%LPD*%
G01*
G04 APERTURE LIST*
%ADD10C,0.127000*%
%ADD11C,0.500000*%
%ADD12C,0.375000*%
%ADD13C,0.120000*%
%ADD14C,0.200000*%
%ADD15C,0.250000*%
%ADD16C,0.150000*%
%ADD17C,0.080000*%
%ADD18C,0.125000*%
G04 APERTURE END LIST*
D10*
X128249116Y-44631906D02*
X127919116Y-44871906D01*
X127919116Y-44341906D02*
X128249116Y-44631906D01*
X127889116Y-44621906D02*
X127579116Y-44621906D01*
X127909116Y-44841906D02*
X127919116Y-44341906D01*
X179929116Y-44561906D02*
X180239116Y-44561906D01*
X179569116Y-44551906D02*
X179899116Y-44311906D01*
X179899116Y-44841906D02*
X179569116Y-44551906D01*
X179909116Y-44341906D02*
X179899116Y-44841906D01*
D11*
X161074354Y-109979048D02*
X161741020Y-109979048D01*
X161741020Y-111026667D02*
X161741020Y-109026667D01*
X160788639Y-109026667D01*
X160502925Y-111217144D02*
X158979116Y-111217144D01*
X158502925Y-109026667D02*
X158502925Y-110645715D01*
X158407687Y-110836191D01*
X158312449Y-110931429D01*
X158121973Y-111026667D01*
X157741020Y-111026667D01*
X157550544Y-110931429D01*
X157455306Y-110836191D01*
X157360068Y-110645715D01*
X157360068Y-109026667D01*
X156883877Y-111217144D02*
X155360068Y-111217144D01*
X153741020Y-110836191D02*
X153836258Y-110931429D01*
X154121973Y-111026667D01*
X154312449Y-111026667D01*
X154598163Y-110931429D01*
X154788639Y-110740953D01*
X154883877Y-110550477D01*
X154979116Y-110169525D01*
X154979116Y-109883810D01*
X154883877Y-109502858D01*
X154788639Y-109312382D01*
X154598163Y-109121906D01*
X154312449Y-109026667D01*
X154121973Y-109026667D01*
X153836258Y-109121906D01*
X153741020Y-109217144D01*
X152883877Y-111026667D02*
X152883877Y-109026667D01*
X151741020Y-111026667D01*
X151741020Y-109026667D01*
X151264830Y-111217144D02*
X149741020Y-111217144D01*
X148121973Y-111026667D02*
X148788639Y-110074286D01*
X149264830Y-111026667D02*
X149264830Y-109026667D01*
X148502925Y-109026667D01*
X148312449Y-109121906D01*
X148217211Y-109217144D01*
X148121973Y-109407620D01*
X148121973Y-109693334D01*
X148217211Y-109883810D01*
X148312449Y-109979048D01*
X148502925Y-110074286D01*
X149264830Y-110074286D01*
X147264830Y-111026667D02*
X147264830Y-109026667D01*
X146788639Y-109026667D01*
X146502925Y-109121906D01*
X146312449Y-109312382D01*
X146217211Y-109502858D01*
X146121973Y-109883810D01*
X146121973Y-110169525D01*
X146217211Y-110550477D01*
X146312449Y-110740953D01*
X146502925Y-110931429D01*
X146788639Y-111026667D01*
X147264830Y-111026667D01*
X161407687Y-112526667D02*
X161407687Y-114145715D01*
X161312449Y-114336191D01*
X161217211Y-114431429D01*
X161026735Y-114526667D01*
X160645782Y-114526667D01*
X160455306Y-114431429D01*
X160360068Y-114336191D01*
X160264830Y-114145715D01*
X160264830Y-112526667D01*
X158169592Y-114526667D02*
X158836258Y-113574286D01*
X159312449Y-114526667D02*
X159312449Y-112526667D01*
X158550544Y-112526667D01*
X158360068Y-112621906D01*
X158264830Y-112717144D01*
X158169592Y-112907620D01*
X158169592Y-113193334D01*
X158264830Y-113383810D01*
X158360068Y-113479048D01*
X158550544Y-113574286D01*
X159312449Y-113574286D01*
X157788639Y-114717144D02*
X156264830Y-114717144D01*
X155121973Y-113479048D02*
X154836258Y-113574286D01*
X154741020Y-113669525D01*
X154645782Y-113860001D01*
X154645782Y-114145715D01*
X154741020Y-114336191D01*
X154836258Y-114431429D01*
X155026735Y-114526667D01*
X155788639Y-114526667D01*
X155788639Y-112526667D01*
X155121973Y-112526667D01*
X154931496Y-112621906D01*
X154836258Y-112717144D01*
X154741020Y-112907620D01*
X154741020Y-113098096D01*
X154836258Y-113288572D01*
X154931496Y-113383810D01*
X155121973Y-113479048D01*
X155788639Y-113479048D01*
X153788639Y-114526667D02*
X153788639Y-112526667D01*
X152645782Y-114526667D02*
X153502925Y-113383810D01*
X152645782Y-112526667D02*
X153788639Y-113669525D01*
X151979116Y-112526667D02*
X151502925Y-114526667D01*
X151121973Y-113098096D01*
X150741020Y-114526667D01*
X150264830Y-112526667D01*
X149502925Y-114526667D02*
X149502925Y-112526667D01*
X149026735Y-112526667D01*
X148741020Y-112621906D01*
X148550544Y-112812382D01*
X148455306Y-113002858D01*
X148360068Y-113383810D01*
X148360068Y-113669525D01*
X148455306Y-114050477D01*
X148550544Y-114240953D01*
X148741020Y-114431429D01*
X149026735Y-114526667D01*
X149502925Y-114526667D01*
X147598163Y-114431429D02*
X147312449Y-114526667D01*
X146836258Y-114526667D01*
X146645782Y-114431429D01*
X146550544Y-114336191D01*
X146455306Y-114145715D01*
X146455306Y-113955239D01*
X146550544Y-113764763D01*
X146645782Y-113669525D01*
X146836258Y-113574286D01*
X147217211Y-113479048D01*
X147407687Y-113383810D01*
X147502925Y-113288572D01*
X147598163Y-113098096D01*
X147598163Y-112907620D01*
X147502925Y-112717144D01*
X147407687Y-112621906D01*
X147217211Y-112526667D01*
X146741020Y-112526667D01*
X146455306Y-112621906D01*
D10*
X139829116Y-142331906D02*
X139799116Y-142591906D01*
X139489116Y-142611906D02*
X140129116Y-142621906D01*
X139799116Y-143021906D02*
X139489116Y-142611906D01*
X140069116Y-142671906D02*
X139799116Y-143021906D01*
X140309116Y-143051906D02*
X139299116Y-143051906D01*
X140619116Y-144401906D02*
X138939116Y-144411906D01*
D12*
X161719116Y-55036667D02*
X161719116Y-53036667D01*
X160861973Y-55036667D01*
X160861973Y-53036667D01*
X159861973Y-53036667D02*
X159576258Y-53036667D01*
X159433401Y-53131906D01*
X159290544Y-53322382D01*
X159219116Y-53703334D01*
X159219116Y-54370001D01*
X159290544Y-54750953D01*
X159433401Y-54941429D01*
X159576258Y-55036667D01*
X159861973Y-55036667D01*
X160004830Y-54941429D01*
X160147687Y-54750953D01*
X160219116Y-54370001D01*
X160219116Y-53703334D01*
X160147687Y-53322382D01*
X160004830Y-53131906D01*
X159861973Y-53036667D01*
X158576258Y-55036667D02*
X158576258Y-53036667D01*
X157719116Y-55036667D01*
X157719116Y-53036667D01*
X150219116Y-54941429D02*
X150004830Y-55036667D01*
X149647687Y-55036667D01*
X149504830Y-54941429D01*
X149433401Y-54846191D01*
X149361973Y-54655715D01*
X149361973Y-54465239D01*
X149433401Y-54274763D01*
X149504830Y-54179525D01*
X149647687Y-54084286D01*
X149933401Y-53989048D01*
X150076258Y-53893810D01*
X150147687Y-53798572D01*
X150219116Y-53608096D01*
X150219116Y-53417620D01*
X150147687Y-53227144D01*
X150076258Y-53131906D01*
X149933401Y-53036667D01*
X149576258Y-53036667D01*
X149361973Y-53131906D01*
X148933401Y-53036667D02*
X148076258Y-53036667D01*
X148504830Y-55036667D02*
X148504830Y-53036667D01*
X147290544Y-53036667D02*
X147004830Y-53036667D01*
X146861973Y-53131906D01*
X146719116Y-53322382D01*
X146647687Y-53703334D01*
X146647687Y-54370001D01*
X146719116Y-54750953D01*
X146861973Y-54941429D01*
X147004830Y-55036667D01*
X147290544Y-55036667D01*
X147433401Y-54941429D01*
X147576258Y-54750953D01*
X147647687Y-54370001D01*
X147647687Y-53703334D01*
X147576258Y-53322382D01*
X147433401Y-53131906D01*
X147290544Y-53036667D01*
X146004830Y-55036667D02*
X146004830Y-53036667D01*
X145433401Y-53036667D01*
X145290544Y-53131906D01*
X145219116Y-53227144D01*
X145147687Y-53417620D01*
X145147687Y-53703334D01*
X145219116Y-53893810D01*
X145290544Y-53989048D01*
X145433401Y-54084286D01*
X146004830Y-54084286D01*
X161809116Y-47996667D02*
X161809116Y-45996667D01*
X160951973Y-47996667D01*
X160951973Y-45996667D01*
X159951973Y-45996667D02*
X159666258Y-45996667D01*
X159523401Y-46091906D01*
X159380544Y-46282382D01*
X159309116Y-46663334D01*
X159309116Y-47330001D01*
X159380544Y-47710953D01*
X159523401Y-47901429D01*
X159666258Y-47996667D01*
X159951973Y-47996667D01*
X160094830Y-47901429D01*
X160237687Y-47710953D01*
X160309116Y-47330001D01*
X160309116Y-46663334D01*
X160237687Y-46282382D01*
X160094830Y-46091906D01*
X159951973Y-45996667D01*
X158666258Y-47996667D02*
X158666258Y-45996667D01*
X157809116Y-47996667D01*
X157809116Y-45996667D01*
X150309116Y-47901429D02*
X150094830Y-47996667D01*
X149737687Y-47996667D01*
X149594830Y-47901429D01*
X149523401Y-47806191D01*
X149451973Y-47615715D01*
X149451973Y-47425239D01*
X149523401Y-47234763D01*
X149594830Y-47139525D01*
X149737687Y-47044286D01*
X150023401Y-46949048D01*
X150166258Y-46853810D01*
X150237687Y-46758572D01*
X150309116Y-46568096D01*
X150309116Y-46377620D01*
X150237687Y-46187144D01*
X150166258Y-46091906D01*
X150023401Y-45996667D01*
X149666258Y-45996667D01*
X149451973Y-46091906D01*
X149023401Y-45996667D02*
X148166258Y-45996667D01*
X148594830Y-47996667D02*
X148594830Y-45996667D01*
X147380544Y-45996667D02*
X147094830Y-45996667D01*
X146951973Y-46091906D01*
X146809116Y-46282382D01*
X146737687Y-46663334D01*
X146737687Y-47330001D01*
X146809116Y-47710953D01*
X146951973Y-47901429D01*
X147094830Y-47996667D01*
X147380544Y-47996667D01*
X147523401Y-47901429D01*
X147666258Y-47710953D01*
X147737687Y-47330001D01*
X147737687Y-46663334D01*
X147666258Y-46282382D01*
X147523401Y-46091906D01*
X147380544Y-45996667D01*
X146094830Y-47996667D02*
X146094830Y-45996667D01*
X145523401Y-45996667D01*
X145380544Y-46091906D01*
X145309116Y-46187144D01*
X145237687Y-46377620D01*
X145237687Y-46663334D01*
X145309116Y-46853810D01*
X145380544Y-46949048D01*
X145523401Y-47044286D01*
X146094830Y-47044286D01*
D10*
X157872830Y-59276620D02*
X157872830Y-58768620D01*
X157872830Y-58841191D02*
X157836544Y-58804906D01*
X157763973Y-58768620D01*
X157655116Y-58768620D01*
X157582544Y-58804906D01*
X157546258Y-58877477D01*
X157546258Y-59276620D01*
X157546258Y-58877477D02*
X157509973Y-58804906D01*
X157437401Y-58768620D01*
X157328544Y-58768620D01*
X157255973Y-58804906D01*
X157219687Y-58877477D01*
X157219687Y-59276620D01*
X156530258Y-59276620D02*
X156530258Y-58877477D01*
X156566544Y-58804906D01*
X156639116Y-58768620D01*
X156784258Y-58768620D01*
X156856830Y-58804906D01*
X156530258Y-59240334D02*
X156602830Y-59276620D01*
X156784258Y-59276620D01*
X156856830Y-59240334D01*
X156893116Y-59167763D01*
X156893116Y-59095191D01*
X156856830Y-59022620D01*
X156784258Y-58986334D01*
X156602830Y-58986334D01*
X156530258Y-58950048D01*
X155840830Y-58768620D02*
X155840830Y-59385477D01*
X155877116Y-59458048D01*
X155913401Y-59494334D01*
X155985973Y-59530620D01*
X156094830Y-59530620D01*
X156167401Y-59494334D01*
X155840830Y-59240334D02*
X155913401Y-59276620D01*
X156058544Y-59276620D01*
X156131116Y-59240334D01*
X156167401Y-59204048D01*
X156203687Y-59131477D01*
X156203687Y-58913763D01*
X156167401Y-58841191D01*
X156131116Y-58804906D01*
X156058544Y-58768620D01*
X155913401Y-58768620D01*
X155840830Y-58804906D01*
X155477973Y-59276620D02*
X155477973Y-58768620D01*
X155477973Y-58514620D02*
X155514258Y-58550906D01*
X155477973Y-58587191D01*
X155441687Y-58550906D01*
X155477973Y-58514620D01*
X155477973Y-58587191D01*
X154788544Y-59240334D02*
X154861116Y-59276620D01*
X155006258Y-59276620D01*
X155078830Y-59240334D01*
X155115116Y-59204048D01*
X155151401Y-59131477D01*
X155151401Y-58913763D01*
X155115116Y-58841191D01*
X155078830Y-58804906D01*
X155006258Y-58768620D01*
X154861116Y-58768620D01*
X154788544Y-58804906D01*
X153990258Y-58768620D02*
X153699973Y-58768620D01*
X153881401Y-59276620D02*
X153881401Y-58623477D01*
X153845116Y-58550906D01*
X153772544Y-58514620D01*
X153699973Y-58514620D01*
X153445973Y-59276620D02*
X153445973Y-58768620D01*
X153445973Y-58514620D02*
X153482258Y-58550906D01*
X153445973Y-58587191D01*
X153409687Y-58550906D01*
X153445973Y-58514620D01*
X153445973Y-58587191D01*
X153083116Y-58768620D02*
X153083116Y-59276620D01*
X153083116Y-58841191D02*
X153046830Y-58804906D01*
X152974258Y-58768620D01*
X152865401Y-58768620D01*
X152792830Y-58804906D01*
X152756544Y-58877477D01*
X152756544Y-59276620D01*
X152067116Y-58768620D02*
X152067116Y-59385477D01*
X152103401Y-59458048D01*
X152139687Y-59494334D01*
X152212258Y-59530620D01*
X152321116Y-59530620D01*
X152393687Y-59494334D01*
X152067116Y-59240334D02*
X152139687Y-59276620D01*
X152284830Y-59276620D01*
X152357401Y-59240334D01*
X152393687Y-59204048D01*
X152429973Y-59131477D01*
X152429973Y-58913763D01*
X152393687Y-58841191D01*
X152357401Y-58804906D01*
X152284830Y-58768620D01*
X152139687Y-58768620D01*
X152067116Y-58804906D01*
X151413973Y-59240334D02*
X151486544Y-59276620D01*
X151631687Y-59276620D01*
X151704258Y-59240334D01*
X151740544Y-59167763D01*
X151740544Y-58877477D01*
X151704258Y-58804906D01*
X151631687Y-58768620D01*
X151486544Y-58768620D01*
X151413973Y-58804906D01*
X151377687Y-58877477D01*
X151377687Y-58950048D01*
X151740544Y-59022620D01*
X151051116Y-59276620D02*
X151051116Y-58768620D01*
X151051116Y-58913763D02*
X151014830Y-58841191D01*
X150978544Y-58804906D01*
X150905973Y-58768620D01*
X150833401Y-58768620D01*
X150615687Y-59240334D02*
X150543116Y-59276620D01*
X150397973Y-59276620D01*
X150325401Y-59240334D01*
X150289116Y-59167763D01*
X150289116Y-59131477D01*
X150325401Y-59058906D01*
X150397973Y-59022620D01*
X150506830Y-59022620D01*
X150579401Y-58986334D01*
X150615687Y-58913763D01*
X150615687Y-58877477D01*
X150579401Y-58804906D01*
X150506830Y-58768620D01*
X150397973Y-58768620D01*
X150325401Y-58804906D01*
D13*
%TO.C,D1*%
X140629116Y-144231906D02*
X140629116Y-141681906D01*
X138929116Y-144231906D02*
X138929116Y-141681906D01*
X140629116Y-144231906D02*
X138929116Y-144231906D01*
%TO.C,R2*%
X164486180Y-46256906D02*
X164032052Y-46256906D01*
X164486180Y-47726906D02*
X164032052Y-47726906D01*
D10*
%TO.C,U2*%
X152504116Y-96391906D02*
X152504116Y-96541906D01*
X152504116Y-96541906D02*
X153154116Y-96541906D01*
X154854116Y-96541906D02*
X155504116Y-96541906D01*
X155504116Y-96541906D02*
X155504116Y-96391906D01*
X155504116Y-94191906D02*
X155504116Y-94041906D01*
X155504116Y-94041906D02*
X154854116Y-94041906D01*
X152504116Y-94191906D02*
X152504116Y-94041906D01*
X152504116Y-94041906D02*
X153154116Y-94041906D01*
D14*
X152104116Y-96091906D02*
G75*
G03*
X152104116Y-96091906I-100000J0D01*
G01*
D13*
%TO.C,C3*%
X158704116Y-95130654D02*
X158704116Y-95653158D01*
X160174116Y-95130654D02*
X160174116Y-95653158D01*
%TO.C,C2*%
X156384116Y-95150654D02*
X156384116Y-95673158D01*
X157854116Y-95150654D02*
X157854116Y-95673158D01*
%TO.C,C1*%
X151514116Y-95843158D02*
X151514116Y-95320654D01*
X150044116Y-95843158D02*
X150044116Y-95320654D01*
D15*
%TO.C,SW3*%
X158174116Y-48766906D02*
G75*
G03*
X158174116Y-48766906I-125000J0D01*
G01*
D16*
X152799116Y-48191906D02*
X155299116Y-48191906D01*
X152799116Y-53091906D02*
X155299116Y-53091906D01*
D13*
%TO.C,R1*%
X142224116Y-47354842D02*
X142224116Y-47808970D01*
X143694116Y-47354842D02*
X143694116Y-47808970D01*
%TO.C,LED2*%
X181727400Y-47517835D02*
X179828819Y-45619254D01*
X179828819Y-45619254D02*
X181186464Y-44261609D01*
X181186464Y-44261609D02*
X183085045Y-46160190D01*
%TO.C,LED1*%
X124913187Y-46260190D02*
X126811768Y-44361609D01*
X126811768Y-44361609D02*
X128169413Y-45719254D01*
X128169413Y-45719254D02*
X126270832Y-47617835D01*
D16*
%TO.C,SW2*%
X127029116Y-92341906D02*
X127029116Y-84721906D01*
X127029116Y-84721906D02*
X120749116Y-84721906D01*
X120749116Y-84721906D02*
X120749116Y-92341906D01*
X120749116Y-92341906D02*
X127029116Y-92341906D01*
X120749116Y-89801906D02*
X119479116Y-89801906D01*
X119479116Y-89801906D02*
X119479116Y-87261906D01*
X119479116Y-87261906D02*
X120749116Y-87261906D01*
X120749116Y-87261906D02*
X120749116Y-89801906D01*
%TO.C,SW1*%
X187349116Y-89801906D02*
X187349116Y-87261906D01*
X188619116Y-89801906D02*
X187349116Y-89801906D01*
X188619116Y-87261906D02*
X188619116Y-89801906D01*
X187349116Y-87261906D02*
X188619116Y-87261906D01*
X187349116Y-84721906D02*
X181069116Y-84721906D01*
X187349116Y-92341906D02*
X187349116Y-84721906D01*
X181069116Y-92341906D02*
X187349116Y-92341906D01*
X181069116Y-84721906D02*
X181069116Y-92341906D01*
D10*
%TO.C,J1*%
X127100000Y-47600000D02*
X127100000Y-48100000D01*
X127100000Y-48100000D02*
X127100000Y-53100000D01*
X127100000Y-53100000D02*
X127100000Y-53600000D01*
X127100000Y-53600000D02*
X130200000Y-53600000D01*
X132800000Y-53600000D02*
X141600000Y-53600000D01*
X141600000Y-53600000D02*
X141600000Y-47600000D01*
X127100000Y-47600000D02*
X128200000Y-47600000D01*
X130800000Y-47600000D02*
X137300000Y-47600000D01*
D14*
X126400000Y-47300000D02*
G75*
G03*
X126400000Y-47300000I-100000J0D01*
G01*
D10*
X140500000Y-47600000D02*
X141600000Y-47600000D01*
X127100000Y-53100000D02*
X124600000Y-53100000D01*
X124600000Y-53100000D02*
X124600000Y-48100000D01*
X124600000Y-48100000D02*
X127100000Y-48100000D01*
%TO.C,J2*%
X181000000Y-53600000D02*
X181000000Y-53100000D01*
X181000000Y-53100000D02*
X181000000Y-48100000D01*
X181000000Y-48100000D02*
X181000000Y-47600000D01*
X181000000Y-47600000D02*
X177900000Y-47600000D01*
X175300000Y-47600000D02*
X166500000Y-47600000D01*
X166500000Y-47600000D02*
X166500000Y-53600000D01*
X181000000Y-53600000D02*
X179900000Y-53600000D01*
X177300000Y-53600000D02*
X170800000Y-53600000D01*
D14*
X181900000Y-53900000D02*
G75*
G03*
X181900000Y-53900000I-100000J0D01*
G01*
D10*
X167600000Y-53600000D02*
X166500000Y-53600000D01*
X181000000Y-48100000D02*
X183500000Y-48100000D01*
X183500000Y-48100000D02*
X183500000Y-53100000D01*
X183500000Y-53100000D02*
X181000000Y-53100000D01*
D13*
%TO.C,C4*%
X127540000Y-158660000D02*
X127540000Y-156960000D01*
X127540000Y-153140000D02*
X127540000Y-154840000D01*
X131995563Y-153140000D02*
X127540000Y-153140000D01*
X131995563Y-158660000D02*
X127540000Y-158660000D01*
X133060000Y-157595563D02*
X133060000Y-156960000D01*
X133060000Y-154204437D02*
X133060000Y-154840000D01*
X133060000Y-154204437D02*
X131995563Y-153140000D01*
X133060000Y-157595563D02*
X131995563Y-158660000D01*
X133925000Y-154215000D02*
X133300000Y-154215000D01*
X133612500Y-153902500D02*
X133612500Y-154527500D01*
%TO.C,C6*%
X180560000Y-153140000D02*
X180560000Y-154840000D01*
X180560000Y-158660000D02*
X180560000Y-156960000D01*
X176104437Y-158660000D02*
X180560000Y-158660000D01*
X176104437Y-153140000D02*
X180560000Y-153140000D01*
X175040000Y-154204437D02*
X175040000Y-154840000D01*
X175040000Y-157595563D02*
X175040000Y-156960000D01*
X175040000Y-157595563D02*
X176104437Y-158660000D01*
X175040000Y-154204437D02*
X176104437Y-153140000D01*
X174175000Y-157585000D02*
X174800000Y-157585000D01*
X174487500Y-157897500D02*
X174487500Y-157272500D01*
%TO.C,R4*%
X135976180Y-53956906D02*
X135522052Y-53956906D01*
X135976180Y-55426906D02*
X135522052Y-55426906D01*
%TO.C,R5*%
X174466180Y-53906906D02*
X174012052Y-53906906D01*
X174466180Y-55376906D02*
X174012052Y-55376906D01*
%TO.C,R6*%
X146084116Y-62708970D02*
X146084116Y-62254842D01*
X144614116Y-62708970D02*
X144614116Y-62254842D01*
%TO.C,D1*%
D16*
X141881496Y-141993810D02*
X140881496Y-141993810D01*
X140881496Y-142231906D01*
X140929116Y-142374763D01*
X141024354Y-142470001D01*
X141119592Y-142517620D01*
X141310068Y-142565239D01*
X141452925Y-142565239D01*
X141643401Y-142517620D01*
X141738639Y-142470001D01*
X141833877Y-142374763D01*
X141881496Y-142231906D01*
X141881496Y-141993810D01*
X141881496Y-143517620D02*
X141881496Y-142946191D01*
X141881496Y-143231906D02*
X140881496Y-143231906D01*
X141024354Y-143136667D01*
X141119592Y-143041429D01*
X141167211Y-142946191D01*
%TO.C,R2*%
X167775782Y-48804286D02*
X168109116Y-48328096D01*
X168347211Y-48804286D02*
X168347211Y-47804286D01*
X167966258Y-47804286D01*
X167871020Y-47851906D01*
X167823401Y-47899525D01*
X167775782Y-47994763D01*
X167775782Y-48137620D01*
X167823401Y-48232858D01*
X167871020Y-48280477D01*
X167966258Y-48328096D01*
X168347211Y-48328096D01*
X167394830Y-47899525D02*
X167347211Y-47851906D01*
X167251973Y-47804286D01*
X167013877Y-47804286D01*
X166918639Y-47851906D01*
X166871020Y-47899525D01*
X166823401Y-47994763D01*
X166823401Y-48090001D01*
X166871020Y-48232858D01*
X167442449Y-48804286D01*
X166823401Y-48804286D01*
%TO.C,U2*%
D17*
X154472925Y-93406667D02*
X154472925Y-93665715D01*
X154457687Y-93696191D01*
X154442449Y-93711429D01*
X154411973Y-93726667D01*
X154351020Y-93726667D01*
X154320544Y-93711429D01*
X154305306Y-93696191D01*
X154290068Y-93665715D01*
X154290068Y-93406667D01*
X154152925Y-93437144D02*
X154137687Y-93421906D01*
X154107211Y-93406667D01*
X154031020Y-93406667D01*
X154000544Y-93421906D01*
X153985306Y-93437144D01*
X153970068Y-93467620D01*
X153970068Y-93498096D01*
X153985306Y-93543810D01*
X154168163Y-93726667D01*
X153970068Y-93726667D01*
%TO.C,C3*%
D16*
X159605782Y-98179048D02*
X159653401Y-98226667D01*
X159796258Y-98274286D01*
X159891496Y-98274286D01*
X160034354Y-98226667D01*
X160129592Y-98131429D01*
X160177211Y-98036191D01*
X160224830Y-97845715D01*
X160224830Y-97702858D01*
X160177211Y-97512382D01*
X160129592Y-97417144D01*
X160034354Y-97321906D01*
X159891496Y-97274286D01*
X159796258Y-97274286D01*
X159653401Y-97321906D01*
X159605782Y-97369525D01*
X159272449Y-97274286D02*
X158653401Y-97274286D01*
X158986735Y-97655239D01*
X158843877Y-97655239D01*
X158748639Y-97702858D01*
X158701020Y-97750477D01*
X158653401Y-97845715D01*
X158653401Y-98083810D01*
X158701020Y-98179048D01*
X158748639Y-98226667D01*
X158843877Y-98274286D01*
X159129592Y-98274286D01*
X159224830Y-98226667D01*
X159272449Y-98179048D01*
%TO.C,C2*%
X157325782Y-98289048D02*
X157373401Y-98336667D01*
X157516258Y-98384286D01*
X157611496Y-98384286D01*
X157754354Y-98336667D01*
X157849592Y-98241429D01*
X157897211Y-98146191D01*
X157944830Y-97955715D01*
X157944830Y-97812858D01*
X157897211Y-97622382D01*
X157849592Y-97527144D01*
X157754354Y-97431906D01*
X157611496Y-97384286D01*
X157516258Y-97384286D01*
X157373401Y-97431906D01*
X157325782Y-97479525D01*
X156944830Y-97479525D02*
X156897211Y-97431906D01*
X156801973Y-97384286D01*
X156563877Y-97384286D01*
X156468639Y-97431906D01*
X156421020Y-97479525D01*
X156373401Y-97574763D01*
X156373401Y-97670001D01*
X156421020Y-97812858D01*
X156992449Y-98384286D01*
X156373401Y-98384286D01*
%TO.C,C1*%
X150915782Y-98359048D02*
X150963401Y-98406667D01*
X151106258Y-98454286D01*
X151201496Y-98454286D01*
X151344354Y-98406667D01*
X151439592Y-98311429D01*
X151487211Y-98216191D01*
X151534830Y-98025715D01*
X151534830Y-97882858D01*
X151487211Y-97692382D01*
X151439592Y-97597144D01*
X151344354Y-97501906D01*
X151201496Y-97454286D01*
X151106258Y-97454286D01*
X150963401Y-97501906D01*
X150915782Y-97549525D01*
X149963401Y-98454286D02*
X150534830Y-98454286D01*
X150249116Y-98454286D02*
X150249116Y-97454286D01*
X150344354Y-97597144D01*
X150439592Y-97692382D01*
X150534830Y-97740001D01*
%TO.C,SW3*%
D12*
X162609651Y-51331429D02*
X162395366Y-51426667D01*
X162038223Y-51426667D01*
X161895366Y-51331429D01*
X161823937Y-51236191D01*
X161752508Y-51045715D01*
X161752508Y-50855239D01*
X161823937Y-50664763D01*
X161895366Y-50569525D01*
X162038223Y-50474286D01*
X162323937Y-50379048D01*
X162466794Y-50283810D01*
X162538223Y-50188572D01*
X162609651Y-49998096D01*
X162609651Y-49807620D01*
X162538223Y-49617144D01*
X162466794Y-49521906D01*
X162323937Y-49426667D01*
X161966794Y-49426667D01*
X161752508Y-49521906D01*
X161252508Y-49426667D02*
X160895366Y-51426667D01*
X160609651Y-49998096D01*
X160323937Y-51426667D01*
X159966794Y-49426667D01*
X159538223Y-49426667D02*
X158609651Y-49426667D01*
X159109651Y-50188572D01*
X158895366Y-50188572D01*
X158752508Y-50283810D01*
X158681080Y-50379048D01*
X158609651Y-50569525D01*
X158609651Y-51045715D01*
X158681080Y-51236191D01*
X158752508Y-51331429D01*
X158895366Y-51426667D01*
X159323937Y-51426667D01*
X159466794Y-51331429D01*
X159538223Y-51236191D01*
%TO.C,R1*%
D16*
X140705782Y-49614286D02*
X141039116Y-49138096D01*
X141277211Y-49614286D02*
X141277211Y-48614286D01*
X140896258Y-48614286D01*
X140801020Y-48661906D01*
X140753401Y-48709525D01*
X140705782Y-48804763D01*
X140705782Y-48947620D01*
X140753401Y-49042858D01*
X140801020Y-49090477D01*
X140896258Y-49138096D01*
X141277211Y-49138096D01*
X139753401Y-49614286D02*
X140324830Y-49614286D01*
X140039116Y-49614286D02*
X140039116Y-48614286D01*
X140134354Y-48757144D01*
X140229592Y-48852382D01*
X140324830Y-48900001D01*
%TO.C,LED2*%
X184430520Y-44763073D02*
X184767238Y-45099791D01*
X185474344Y-44392684D01*
X184565207Y-44156982D02*
X184329505Y-43921280D01*
X183858100Y-44190654D02*
X184194818Y-44527371D01*
X184901925Y-43820264D01*
X184565207Y-43483547D01*
X183555054Y-43887608D02*
X184262161Y-43180501D01*
X184093803Y-43012142D01*
X183959116Y-42944799D01*
X183824428Y-42944799D01*
X183723413Y-42978470D01*
X183555054Y-43079486D01*
X183454039Y-43180501D01*
X183353024Y-43348860D01*
X183319352Y-43449875D01*
X183319352Y-43584562D01*
X183386696Y-43719249D01*
X183555054Y-43887608D01*
X183521383Y-42574409D02*
X183521383Y-42507066D01*
X183487711Y-42406051D01*
X183319352Y-42237692D01*
X183218337Y-42204020D01*
X183150993Y-42204020D01*
X183049978Y-42237692D01*
X182982635Y-42305035D01*
X182915291Y-42439722D01*
X182915291Y-43247844D01*
X182477558Y-42810112D01*
%TO.C,LED1*%
X125290283Y-43430501D02*
X125627001Y-43093783D01*
X124919894Y-42386677D01*
X124684192Y-43295814D02*
X124448490Y-43531516D01*
X124717864Y-44002921D02*
X125054581Y-43666203D01*
X124347474Y-42959096D01*
X124010757Y-43295814D01*
X124414818Y-44305967D02*
X123707711Y-43598860D01*
X123539352Y-43767218D01*
X123472009Y-43901906D01*
X123472009Y-44036593D01*
X123505680Y-44137608D01*
X123606696Y-44305967D01*
X123707711Y-44406982D01*
X123876070Y-44507997D01*
X123977085Y-44541669D01*
X124111772Y-44541669D01*
X124246459Y-44474325D01*
X124414818Y-44305967D01*
X123337322Y-45383463D02*
X123741383Y-44979402D01*
X123539352Y-45181432D02*
X122832245Y-44474325D01*
X123000604Y-44507997D01*
X123135291Y-44507997D01*
X123236306Y-44474325D01*
%TO.C,SW2*%
X118064354Y-89835239D02*
X118016735Y-89692382D01*
X118016735Y-89454286D01*
X118064354Y-89359048D01*
X118111973Y-89311429D01*
X118207211Y-89263810D01*
X118302449Y-89263810D01*
X118397687Y-89311429D01*
X118445306Y-89359048D01*
X118492925Y-89454286D01*
X118540544Y-89644763D01*
X118588163Y-89740001D01*
X118635782Y-89787620D01*
X118731020Y-89835239D01*
X118826258Y-89835239D01*
X118921496Y-89787620D01*
X118969116Y-89740001D01*
X119016735Y-89644763D01*
X119016735Y-89406667D01*
X118969116Y-89263810D01*
X119016735Y-88930477D02*
X118016735Y-88692382D01*
X118731020Y-88501906D01*
X118016735Y-88311429D01*
X119016735Y-88073334D01*
X118921496Y-87740001D02*
X118969116Y-87692382D01*
X119016735Y-87597144D01*
X119016735Y-87359048D01*
X118969116Y-87263810D01*
X118921496Y-87216191D01*
X118826258Y-87168572D01*
X118731020Y-87168572D01*
X118588163Y-87216191D01*
X118016735Y-87787620D01*
X118016735Y-87168572D01*
D18*
X124059592Y-78886191D02*
X123988163Y-78910001D01*
X123964354Y-78933810D01*
X123940544Y-78981429D01*
X123940544Y-79052858D01*
X123964354Y-79100477D01*
X123988163Y-79124286D01*
X124035782Y-79148096D01*
X124226258Y-79148096D01*
X124226258Y-78648096D01*
X124059592Y-78648096D01*
X124011973Y-78671906D01*
X123988163Y-78695715D01*
X123964354Y-78743334D01*
X123964354Y-78790953D01*
X123988163Y-78838572D01*
X124011973Y-78862382D01*
X124059592Y-78886191D01*
X124226258Y-78886191D01*
X123488163Y-79148096D02*
X123726258Y-79148096D01*
X123726258Y-78648096D01*
X123226258Y-78648096D02*
X123131020Y-78648096D01*
X123083401Y-78671906D01*
X123035782Y-78719525D01*
X123011973Y-78814763D01*
X123011973Y-78981429D01*
X123035782Y-79076667D01*
X123083401Y-79124286D01*
X123131020Y-79148096D01*
X123226258Y-79148096D01*
X123273877Y-79124286D01*
X123321496Y-79076667D01*
X123345306Y-78981429D01*
X123345306Y-78814763D01*
X123321496Y-78719525D01*
X123273877Y-78671906D01*
X123226258Y-78648096D01*
X122702449Y-78648096D02*
X122607211Y-78648096D01*
X122559592Y-78671906D01*
X122511973Y-78719525D01*
X122488163Y-78814763D01*
X122488163Y-78981429D01*
X122511973Y-79076667D01*
X122559592Y-79124286D01*
X122607211Y-79148096D01*
X122702449Y-79148096D01*
X122750068Y-79124286D01*
X122797687Y-79076667D01*
X122821496Y-78981429D01*
X122821496Y-78814763D01*
X122797687Y-78719525D01*
X122750068Y-78671906D01*
X122702449Y-78648096D01*
X122273877Y-79148096D02*
X122273877Y-78648096D01*
X122083401Y-78648096D01*
X122035782Y-78671906D01*
X122011973Y-78695715D01*
X121988163Y-78743334D01*
X121988163Y-78814763D01*
X122011973Y-78862382D01*
X122035782Y-78886191D01*
X122083401Y-78910001D01*
X122273877Y-78910001D01*
X122992925Y-96131906D02*
X123492925Y-96131906D01*
X123492925Y-95941429D01*
X123469116Y-95893810D01*
X123445306Y-95870001D01*
X123397687Y-95846191D01*
X123326258Y-95846191D01*
X123278639Y-95870001D01*
X123254830Y-95893810D01*
X123231020Y-95941429D01*
X123231020Y-96131906D01*
X123492925Y-95536667D02*
X123492925Y-95441429D01*
X123469116Y-95393810D01*
X123421496Y-95346191D01*
X123326258Y-95322382D01*
X123159592Y-95322382D01*
X123064354Y-95346191D01*
X123016735Y-95393810D01*
X122992925Y-95441429D01*
X122992925Y-95536667D01*
X123016735Y-95584286D01*
X123064354Y-95631906D01*
X123159592Y-95655715D01*
X123326258Y-95655715D01*
X123421496Y-95631906D01*
X123469116Y-95584286D01*
X123492925Y-95536667D01*
X122992925Y-94870001D02*
X122992925Y-95108096D01*
X123492925Y-95108096D01*
X123254830Y-94703334D02*
X123254830Y-94536667D01*
X122992925Y-94465239D02*
X122992925Y-94703334D01*
X123492925Y-94703334D01*
X123492925Y-94465239D01*
X122992925Y-93608096D02*
X122992925Y-93893810D01*
X122992925Y-93750953D02*
X123492925Y-93750953D01*
X123421496Y-93798572D01*
X123373877Y-93846191D01*
X123350068Y-93893810D01*
%TO.C,SW1*%
D16*
X190203877Y-87348572D02*
X190251496Y-87491429D01*
X190251496Y-87729525D01*
X190203877Y-87824763D01*
X190156258Y-87872382D01*
X190061020Y-87920001D01*
X189965782Y-87920001D01*
X189870544Y-87872382D01*
X189822925Y-87824763D01*
X189775306Y-87729525D01*
X189727687Y-87539048D01*
X189680068Y-87443810D01*
X189632449Y-87396191D01*
X189537211Y-87348572D01*
X189441973Y-87348572D01*
X189346735Y-87396191D01*
X189299116Y-87443810D01*
X189251496Y-87539048D01*
X189251496Y-87777144D01*
X189299116Y-87920001D01*
X189251496Y-88253334D02*
X190251496Y-88491429D01*
X189537211Y-88681906D01*
X190251496Y-88872382D01*
X189251496Y-89110477D01*
X190251496Y-90015239D02*
X190251496Y-89443810D01*
X190251496Y-89729525D02*
X189251496Y-89729525D01*
X189394354Y-89634286D01*
X189489592Y-89539048D01*
X189537211Y-89443810D01*
D18*
X186148163Y-78996191D02*
X186076735Y-79020001D01*
X186052925Y-79043810D01*
X186029116Y-79091429D01*
X186029116Y-79162858D01*
X186052925Y-79210477D01*
X186076735Y-79234286D01*
X186124354Y-79258096D01*
X186314830Y-79258096D01*
X186314830Y-78758096D01*
X186148163Y-78758096D01*
X186100544Y-78781906D01*
X186076735Y-78805715D01*
X186052925Y-78853334D01*
X186052925Y-78900953D01*
X186076735Y-78948572D01*
X186100544Y-78972382D01*
X186148163Y-78996191D01*
X186314830Y-78996191D01*
X185576735Y-79258096D02*
X185814830Y-79258096D01*
X185814830Y-78758096D01*
X185410068Y-78996191D02*
X185243401Y-78996191D01*
X185171973Y-79258096D02*
X185410068Y-79258096D01*
X185410068Y-78758096D01*
X185171973Y-78758096D01*
X184957687Y-78996191D02*
X184791020Y-78996191D01*
X184719592Y-79258096D02*
X184957687Y-79258096D01*
X184957687Y-78758096D01*
X184719592Y-78758096D01*
X184505306Y-79258096D02*
X184505306Y-78758096D01*
X184314830Y-78758096D01*
X184267211Y-78781906D01*
X184243401Y-78805715D01*
X184219592Y-78853334D01*
X184219592Y-78924763D01*
X184243401Y-78972382D01*
X184267211Y-78996191D01*
X184314830Y-79020001D01*
X184505306Y-79020001D01*
X185105306Y-93631906D02*
X184605306Y-93631906D01*
X184605306Y-93822382D01*
X184629116Y-93870001D01*
X184652925Y-93893810D01*
X184700544Y-93917620D01*
X184771973Y-93917620D01*
X184819592Y-93893810D01*
X184843401Y-93870001D01*
X184867211Y-93822382D01*
X184867211Y-93631906D01*
X184605306Y-94227144D02*
X184605306Y-94322382D01*
X184629116Y-94370001D01*
X184676735Y-94417620D01*
X184771973Y-94441429D01*
X184938639Y-94441429D01*
X185033877Y-94417620D01*
X185081496Y-94370001D01*
X185105306Y-94322382D01*
X185105306Y-94227144D01*
X185081496Y-94179525D01*
X185033877Y-94131906D01*
X184938639Y-94108096D01*
X184771973Y-94108096D01*
X184676735Y-94131906D01*
X184629116Y-94179525D01*
X184605306Y-94227144D01*
X185105306Y-94893810D02*
X185105306Y-94655715D01*
X184605306Y-94655715D01*
X184843401Y-95060477D02*
X184843401Y-95227144D01*
X185105306Y-95298572D02*
X185105306Y-95060477D01*
X184605306Y-95060477D01*
X184605306Y-95298572D01*
X184652925Y-95870001D02*
X184629116Y-95893810D01*
X184605306Y-95941429D01*
X184605306Y-96060477D01*
X184629116Y-96108096D01*
X184652925Y-96131906D01*
X184700544Y-96155715D01*
X184748163Y-96155715D01*
X184819592Y-96131906D01*
X185105306Y-95846191D01*
X185105306Y-96155715D01*
%TO.C,C4*%
D16*
X130466666Y-152557142D02*
X130514285Y-152604761D01*
X130657142Y-152652380D01*
X130752380Y-152652380D01*
X130895238Y-152604761D01*
X130990476Y-152509523D01*
X131038095Y-152414285D01*
X131085714Y-152223809D01*
X131085714Y-152080952D01*
X131038095Y-151890476D01*
X130990476Y-151795238D01*
X130895238Y-151700000D01*
X130752380Y-151652380D01*
X130657142Y-151652380D01*
X130514285Y-151700000D01*
X130466666Y-151747619D01*
X129609523Y-151985714D02*
X129609523Y-152652380D01*
X129847619Y-151604761D02*
X130085714Y-152319047D01*
X129466666Y-152319047D01*
%TO.C,C6*%
X177965782Y-152489048D02*
X178013401Y-152536667D01*
X178156258Y-152584286D01*
X178251496Y-152584286D01*
X178394354Y-152536667D01*
X178489592Y-152441429D01*
X178537211Y-152346191D01*
X178584830Y-152155715D01*
X178584830Y-152012858D01*
X178537211Y-151822382D01*
X178489592Y-151727144D01*
X178394354Y-151631906D01*
X178251496Y-151584286D01*
X178156258Y-151584286D01*
X178013401Y-151631906D01*
X177965782Y-151679525D01*
X177108639Y-151584286D02*
X177299116Y-151584286D01*
X177394354Y-151631906D01*
X177441973Y-151679525D01*
X177537211Y-151822382D01*
X177584830Y-152012858D01*
X177584830Y-152393810D01*
X177537211Y-152489048D01*
X177489592Y-152536667D01*
X177394354Y-152584286D01*
X177203877Y-152584286D01*
X177108639Y-152536667D01*
X177061020Y-152489048D01*
X177013401Y-152393810D01*
X177013401Y-152155715D01*
X177061020Y-152060477D01*
X177108639Y-152012858D01*
X177203877Y-151965239D01*
X177394354Y-151965239D01*
X177489592Y-152012858D01*
X177537211Y-152060477D01*
X177584830Y-152155715D01*
%TO.C,R4*%
X135915782Y-53494286D02*
X136249116Y-53018096D01*
X136487211Y-53494286D02*
X136487211Y-52494286D01*
X136106258Y-52494286D01*
X136011020Y-52541906D01*
X135963401Y-52589525D01*
X135915782Y-52684763D01*
X135915782Y-52827620D01*
X135963401Y-52922858D01*
X136011020Y-52970477D01*
X136106258Y-53018096D01*
X136487211Y-53018096D01*
X135058639Y-52827620D02*
X135058639Y-53494286D01*
X135296735Y-52446667D02*
X135534830Y-53160953D01*
X134915782Y-53160953D01*
%TO.C,R5*%
X174375782Y-53424286D02*
X174709116Y-52948096D01*
X174947211Y-53424286D02*
X174947211Y-52424286D01*
X174566258Y-52424286D01*
X174471020Y-52471906D01*
X174423401Y-52519525D01*
X174375782Y-52614763D01*
X174375782Y-52757620D01*
X174423401Y-52852858D01*
X174471020Y-52900477D01*
X174566258Y-52948096D01*
X174947211Y-52948096D01*
X173471020Y-52424286D02*
X173947211Y-52424286D01*
X173994830Y-52900477D01*
X173947211Y-52852858D01*
X173851973Y-52805239D01*
X173613877Y-52805239D01*
X173518639Y-52852858D01*
X173471020Y-52900477D01*
X173423401Y-52995715D01*
X173423401Y-53233810D01*
X173471020Y-53329048D01*
X173518639Y-53376667D01*
X173613877Y-53424286D01*
X173851973Y-53424286D01*
X173947211Y-53376667D01*
X173994830Y-53329048D01*
%TO.C,R6*%
X145525782Y-65304286D02*
X145859116Y-64828096D01*
X146097211Y-65304286D02*
X146097211Y-64304286D01*
X145716258Y-64304286D01*
X145621020Y-64351906D01*
X145573401Y-64399525D01*
X145525782Y-64494763D01*
X145525782Y-64637620D01*
X145573401Y-64732858D01*
X145621020Y-64780477D01*
X145716258Y-64828096D01*
X146097211Y-64828096D01*
X144668639Y-64304286D02*
X144859116Y-64304286D01*
X144954354Y-64351906D01*
X145001973Y-64399525D01*
X145097211Y-64542382D01*
X145144830Y-64732858D01*
X145144830Y-65113810D01*
X145097211Y-65209048D01*
X145049592Y-65256667D01*
X144954354Y-65304286D01*
X144763877Y-65304286D01*
X144668639Y-65256667D01*
X144621020Y-65209048D01*
X144573401Y-65113810D01*
X144573401Y-64875715D01*
X144621020Y-64780477D01*
X144668639Y-64732858D01*
X144763877Y-64685239D01*
X144954354Y-64685239D01*
X145049592Y-64732858D01*
X145097211Y-64780477D01*
X145144830Y-64875715D01*
%TD*%
M02*
