M48
; DRILL file {KiCad (5.1.9-0-10_14)} date Sunday, March 13, 2022 at 08:31:00 PM
; FORMAT={-:-/ absolute / inch / decimal}
; #@! TF.CreationDate,2022-03-13T20:31:00-07:00
; #@! TF.GenerationSoftware,Kicad,Pcbnew,(5.1.9-0-10_14)
FMAT,2
INCH
T1C0.0130
T2C0.0354
T3C0.0394
T4C0.0433
T5C0.0472
T6C0.0669
%
G90
G05
T1
X4.9488Y-6.1351
X5.0937Y-3.8556
X5.1Y-1.9328
X5.1334Y-3.6753
X5.1346Y-3.7572
X5.1445Y-3.8241
X5.1889Y-3.7246
X5.1945Y-3.8339
X5.2333Y-3.7263
X5.235Y-3.8607
X5.2897Y-3.7481
X5.2956Y-3.8471
X5.3149Y-6.1351
X5.3325Y-3.7821
X5.337Y-3.8322
X5.4248Y-2.1497
X5.5031Y-5.4973
X5.5306Y-2.1971
X5.537Y-5.8595
X5.5685Y-3.8631
X5.5689Y-5.4284
X5.6834Y-1.9048
X5.7216Y-2.3424
X5.7681Y-4.7768
X5.8771Y-3.92
X5.8787Y-3.8005
X5.8795Y-3.7619
X5.8799Y-3.7245
X5.9141Y-2.578
X5.9267Y-2.0666
X6.0004Y-4.0174
X6.0015Y-3.8225
X6.0094Y-2.6072
X6.0398Y-3.8225
X6.0527Y-4.8603
X6.0594Y-4.0625
X6.0685Y-2.6083
X6.0763Y-3.8225
X6.0889Y-4.093
X6.1134Y-3.8213
X6.1137Y-4.0175
X6.1174Y-2.6081
X6.1248Y-4.8599
X6.1653Y-2.6076
X6.2153Y-2.3424
X6.3334Y-3.7863
X6.3342Y-3.719
X6.3668Y-2.4603
X6.3972Y-2.5784
X6.4477Y-4.7759
X6.561Y-1.8469
X6.6515Y-2.2907
X6.711Y-5.0209
X6.7118Y-4.7646
X6.7421Y-2.1414
X6.9212Y-3.8162
X6.9543Y-2.1387
X6.9779Y-3.8056
X7.0766Y-3.7498
X7.1022Y-3.6922
X7.1408Y-6.1391
X7.2795Y-3.4894
T2
X4.8511Y-3.3973
X4.8511Y-3.5737
X7.2787Y-3.3973
X7.2787Y-3.5737
T3
X5.2574Y-5.5682
X5.2574Y-5.6682
X5.3574Y-5.5682
X5.3574Y-5.6682
T4
X5.765Y-4.9878
X5.765Y-5.0878
X5.765Y-5.1878
X5.765Y-5.2878
X5.765Y-5.3878
X5.765Y-5.4878
X5.765Y-5.5878
X5.765Y-5.6878
X5.765Y-5.7878
X5.765Y-5.8878
X5.765Y-5.9878
X5.765Y-6.0878
X5.765Y-6.1878
X5.765Y-6.2878
X5.865Y-4.9878
X5.965Y-4.9878
X6.065Y-4.9878
X6.165Y-4.9878
X6.265Y-4.9878
X6.365Y-4.9878
X6.365Y-5.0878
X6.365Y-5.1878
X6.365Y-5.2878
X6.365Y-5.3878
X6.365Y-5.4878
X6.365Y-5.5878
X6.365Y-5.6878
X6.365Y-5.7878
X6.365Y-5.8878
X6.365Y-5.9878
X6.365Y-6.0878
X6.365Y-6.1878
X6.365Y-6.2878
T5
X4.9492Y-3.3473
X4.9492Y-3.6237
X7.1807Y-3.3473
X7.1807Y-3.6237
T6
X5.1417Y-1.9921
X5.4173Y-1.9921
X6.7126Y-1.9921
X6.9882Y-1.9921
T0
M30
