%TF.GenerationSoftware,KiCad,Pcbnew,(5.1.9-0-10_14)*%
%TF.CreationDate,2021-04-01T20:47:01-07:00*%
%TF.ProjectId,integrator,696e7465-6772-4617-946f-722e6b696361,rev?*%
%TF.SameCoordinates,Original*%
%TF.FileFunction,Copper,L1,Top*%
%TF.FilePolarity,Positive*%
%FSLAX46Y46*%
G04 Gerber Fmt 4.6, Leading zero omitted, Abs format (unit mm)*
G04 Created by KiCad (PCBNEW (5.1.9-0-10_14)) date 2021-04-01 20:47:01*
%MOMM*%
%LPD*%
G01*
G04 APERTURE LIST*
%TA.AperFunction,ComponentPad*%
%ADD10R,1.600000X1.600000*%
%TD*%
%TA.AperFunction,ComponentPad*%
%ADD11C,1.600000*%
%TD*%
%TA.AperFunction,ComponentPad*%
%ADD12O,1.700000X1.700000*%
%TD*%
%TA.AperFunction,ComponentPad*%
%ADD13R,1.700000X1.700000*%
%TD*%
%TA.AperFunction,ComponentPad*%
%ADD14C,2.000000*%
%TD*%
%TA.AperFunction,ComponentPad*%
%ADD15C,1.700000*%
%TD*%
%TA.AperFunction,ViaPad*%
%ADD16C,0.685800*%
%TD*%
%TA.AperFunction,Conductor*%
%ADD17C,0.254000*%
%TD*%
%TA.AperFunction,Conductor*%
%ADD18C,0.500000*%
%TD*%
%TA.AperFunction,Conductor*%
%ADD19C,0.100000*%
%TD*%
G04 APERTURE END LIST*
D10*
%TO.P,U1,1*%
%TO.N,Earth*%
X161670000Y-159710000D03*
D11*
%TO.P,U1,2*%
%TO.N,/l_button*%
X161670000Y-157170000D03*
%TO.P,U1,3*%
%TO.N,/amu_sync*%
X161670000Y-154630000D03*
%TO.P,U1,4*%
%TO.N,/amu_int2*%
X161670000Y-152090000D03*
%TO.P,U1,5*%
%TO.N,Net-(U1-Pad5)*%
X161670000Y-149550000D03*
%TO.P,U1,6*%
%TO.N,/swo*%
X161670000Y-147010000D03*
%TO.P,U1,7*%
%TO.N,/swdio*%
X161670000Y-144470000D03*
%TO.P,U1,8*%
%TO.N,/swclk*%
X161670000Y-141930000D03*
%TO.P,U1,9*%
%TO.N,/po_reset*%
X161670000Y-139390000D03*
%TO.P,U1,10*%
%TO.N,/r_sync_out*%
X161670000Y-136850000D03*
%TO.P,U1,11*%
%TO.N,/r_button*%
X161670000Y-134310000D03*
%TO.P,U1,12*%
%TO.N,Net-(U1-Pad12)*%
X161670000Y-131770000D03*
%TO.P,U1,13*%
%TO.N,/l_sync_out*%
X161670000Y-129230000D03*
%TO.P,U1,33*%
%TO.N,Net-(U1-Pad33)*%
X146430000Y-159710000D03*
%TO.P,U1,32*%
%TO.N,/a_gnd*%
X146430000Y-157170000D03*
%TO.P,U1,31*%
%TO.N,/+3.3v*%
X146430000Y-154630000D03*
%TO.P,U1,30*%
%TO.N,Net-(U1-Pad30)*%
X146430000Y-152090000D03*
%TO.P,U1,29*%
%TO.N,Net-(U1-Pad29)*%
X146430000Y-149550000D03*
%TO.P,U1,28*%
%TO.N,/led2*%
X146430000Y-147010000D03*
%TO.P,U1,27*%
%TO.N,/led1*%
X146430000Y-144470000D03*
%TO.P,U1,26*%
%TO.N,/i2c_clk*%
X146430000Y-141930000D03*
%TO.P,U1,25*%
%TO.N,/i2c_sda*%
X146430000Y-139390000D03*
%TO.P,U1,24*%
%TO.N,/po_wake*%
X146430000Y-136850000D03*
%TO.P,U1,23*%
%TO.N,/po_play*%
X146430000Y-134310000D03*
%TO.P,U1,22*%
%TO.N,Net-(U1-Pad22)*%
X146430000Y-131770000D03*
%TO.P,U1,21*%
%TO.N,Net-(U1-Pad21)*%
X146430000Y-129230000D03*
%TO.P,U1,14*%
%TO.N,Net-(U1-Pad14)*%
X161670000Y-126690000D03*
%TO.P,U1,15*%
%TO.N,Net-(U1-Pad15)*%
X159130000Y-126690000D03*
%TO.P,U1,16*%
%TO.N,Net-(U1-Pad16)*%
X156590000Y-126690000D03*
%TO.P,U1,20*%
%TO.N,Net-(U1-Pad20)*%
X146430000Y-126690000D03*
%TO.P,U1,19*%
%TO.N,/dac*%
X148970000Y-126690000D03*
%TO.P,U1,18*%
%TO.N,Net-(U1-Pad18)*%
X151510000Y-126690000D03*
%TO.P,U1,17*%
%TO.N,Net-(U1-Pad17)*%
X154050000Y-126690000D03*
%TD*%
D12*
%TO.P,REF\u002A\u002A,4*%
%TO.N,N/C*%
X134059116Y-135571906D03*
%TO.P,REF\u002A\u002A,3*%
%TO.N,/+3.3v*%
X136599116Y-135571906D03*
%TO.P,REF\u002A\u002A,2*%
%TO.N,/po_batt*%
X134059116Y-133031906D03*
D13*
%TO.P,REF\u002A\u002A,1*%
%TO.N,N/C*%
X136599116Y-133031906D03*
%TD*%
D14*
%TO.P,SW2,3*%
%TO.N,Earth*%
X125746000Y-77262000D03*
%TO.P,SW2,4*%
X125746000Y-70242000D03*
D15*
%TO.P,SW2,1*%
%TO.N,/r_button*%
X123256000Y-75992000D03*
%TO.P,SW2,2*%
%TO.N,Earth*%
X123256000Y-71512000D03*
%TD*%
D14*
%TO.P,SW1,3*%
%TO.N,Earth*%
X182390000Y-70390000D03*
%TO.P,SW1,4*%
X182390000Y-77410000D03*
D15*
%TO.P,SW1,1*%
X184880000Y-71660000D03*
%TO.P,SW1,2*%
%TO.N,/l_button*%
X184880000Y-76140000D03*
%TD*%
D16*
%TO.N,Earth*%
X156599116Y-66231906D03*
X133899116Y-50531906D03*
X155899116Y-45131906D03*
X153099116Y-45131906D03*
X152699116Y-47241906D03*
X125699116Y-155831906D03*
X160628387Y-49180536D03*
X156799116Y-51031906D03*
X147689116Y-59557216D03*
X148709116Y-59557206D03*
X146709116Y-59557206D03*
X185499116Y-74031906D03*
X181376906Y-155931906D03*
X144099116Y-56031906D03*
X149799116Y-56031906D03*
X151599116Y-56031906D03*
X172399116Y-56431906D03*
X157299116Y-56031908D03*
%TO.N,Net-(C5-Pad2)*%
X150099116Y-51631906D03*
%TO.N,/+3.3v*%
X143635116Y-135731906D03*
X156299116Y-47231906D03*
X151899116Y-50831906D03*
X158399116Y-51031906D03*
X134999116Y-155831906D03*
X172799116Y-155931906D03*
X143635116Y-145587395D03*
%TO.N,/po_batt*%
X145699116Y-59531906D03*
X140299116Y-131231906D03*
%TO.N,/po_play*%
X131276906Y-100431906D03*
X132049518Y-96427924D03*
%TO.N,/swo*%
X137360214Y-94743760D03*
X134395104Y-99550104D03*
%TO.N,/swdio*%
X133845918Y-94554116D03*
X133576676Y-98568650D03*
%TO.N,/swclk*%
X133132501Y-99833579D03*
X134683940Y-94566421D03*
%TO.N,/po_reset*%
X164139116Y-60261906D03*
X150199116Y-65209596D03*
X159199116Y-65231906D03*
X132671728Y-98998262D03*
X133041391Y-96105305D03*
%TO.N,/l_sync_out*%
X139717128Y-56809561D03*
%TO.N,/a_gnd*%
X175639116Y-54373906D03*
X132459116Y-46499906D03*
X177899116Y-124331906D03*
X181099116Y-124231906D03*
%TO.N,/r_sync_out*%
X172309116Y-54331906D03*
%TO.N,/led2*%
X130818249Y-137195672D03*
X130799116Y-142260427D03*
%TO.N,/i2c_clk*%
X151899116Y-49931906D03*
X129327637Y-137231906D03*
X129099116Y-140531906D03*
%TO.N,/i2c_sda*%
X151899116Y-49031906D03*
%TO.N,/dac*%
X132789116Y-61791906D03*
X175339156Y-62991866D03*
%TO.N,/r_button*%
X129303853Y-97236652D03*
X131427316Y-99212425D03*
%TO.N,/amu_sync*%
X137054703Y-98976317D03*
X138199116Y-96303385D03*
%TO.N,/amu_int2*%
X136326789Y-94786745D03*
X136201490Y-97690748D03*
%TD*%
D17*
%TO.N,/po_play*%
X131276906Y-100431906D02*
X132049518Y-99659294D01*
X132049518Y-99659294D02*
X132049518Y-96427924D01*
%TO.N,/swo*%
X135591101Y-98354107D02*
X134395104Y-99550104D01*
X137360214Y-98194352D02*
X137200459Y-98354107D01*
X137360214Y-94743760D02*
X137360214Y-98194352D01*
X137200459Y-98354107D02*
X135591101Y-98354107D01*
%TO.N,/swdio*%
X133845918Y-94554116D02*
X133845918Y-98299408D01*
X133845918Y-98299408D02*
X133576676Y-98568650D01*
%TO.N,/swclk*%
X133132501Y-99833579D02*
X133231690Y-99833579D01*
X134683940Y-98381329D02*
X134683940Y-94566421D01*
X133231690Y-99833579D02*
X134683940Y-98381329D01*
%TO.N,/po_reset*%
X132671728Y-98998262D02*
X132671728Y-96474968D01*
X132671728Y-96474968D02*
X133041391Y-96105305D01*
D18*
%TO.N,/l_sync_out*%
X140060027Y-57152460D02*
X139717128Y-56809561D01*
X154316324Y-58084317D02*
X154271223Y-58129418D01*
X179546703Y-66096365D02*
X171534655Y-58084317D01*
X179546703Y-125784319D02*
X179546703Y-66096365D01*
X179351527Y-125979495D02*
X179546703Y-125784319D01*
X154271223Y-58129418D02*
X141036985Y-58129418D01*
X169251527Y-125979495D02*
X179351527Y-125979495D01*
X141036985Y-58129418D02*
X140060027Y-57152460D01*
X166099116Y-129131906D02*
X169251527Y-125979495D01*
X161699116Y-129131906D02*
X166099116Y-129131906D01*
X171534655Y-58084317D02*
X154316324Y-58084317D01*
D17*
%TO.N,/a_gnd*%
X175639116Y-54373906D02*
X175651116Y-54373906D01*
D18*
X180851525Y-59586315D02*
X180851525Y-122679497D01*
X180851525Y-122679497D02*
X181099116Y-124231906D01*
X175639116Y-54373906D02*
X180851525Y-59586315D01*
X177414183Y-124331906D02*
X177899116Y-124331906D01*
X146430000Y-157170000D02*
X144380417Y-155120417D01*
X177214183Y-124531906D02*
X177414183Y-124331906D01*
X144380417Y-126750605D02*
X146599116Y-124531906D01*
X146599116Y-124531906D02*
X177214183Y-124531906D01*
X144380417Y-155120417D02*
X144380417Y-126750605D01*
X154296218Y-57231906D02*
X154496318Y-57432006D01*
X157602014Y-57231906D02*
X166299116Y-57231906D01*
X157401914Y-57432006D02*
X157602014Y-57231906D01*
X173397116Y-52131906D02*
X175639116Y-54373906D01*
X166299116Y-57231906D02*
X166999116Y-56531906D01*
X141899116Y-57231906D02*
X154296218Y-57231906D01*
X132459116Y-47791906D02*
X141899116Y-57231906D01*
X132459116Y-46499906D02*
X132459116Y-47791906D01*
X166999116Y-56531906D02*
X166999116Y-52131906D01*
X154496318Y-57432006D02*
X157401914Y-57432006D01*
X166999116Y-52131906D02*
X173397116Y-52131906D01*
%TO.N,/r_sync_out*%
X169521764Y-126631906D02*
X166399116Y-129754554D01*
X180199114Y-126331908D02*
X179899116Y-126631906D01*
X166399116Y-129754554D02*
X166399116Y-136831906D01*
X180199114Y-60531904D02*
X180199114Y-126331908D01*
X179899116Y-126631906D02*
X169521764Y-126631906D01*
X173999116Y-54331906D02*
X180199114Y-60531904D01*
X172309116Y-54331906D02*
X173999116Y-54331906D01*
X166299116Y-136931906D02*
X161599116Y-136931906D01*
X166399116Y-136831906D02*
X166299116Y-136931906D01*
%TO.N,/dac*%
X175339156Y-63476799D02*
X175339156Y-62991866D01*
X175744009Y-63476799D02*
X175339156Y-63476799D01*
X178894296Y-66627086D02*
X175744009Y-63476799D01*
X178894296Y-67927086D02*
X178894296Y-66627086D01*
X138229116Y-67231906D02*
X132789116Y-61791906D01*
X176499116Y-67231906D02*
X138229116Y-67231906D01*
X178894296Y-69627086D02*
X176499116Y-67231906D01*
X178894296Y-67927086D02*
X178894296Y-69627086D01*
X178799116Y-125231906D02*
X178894296Y-125136726D01*
X149254809Y-125231906D02*
X178799116Y-125231906D01*
X178894296Y-125136726D02*
X178894296Y-67927086D01*
X148899116Y-126731906D02*
X149254809Y-125231906D01*
D17*
%TO.N,/r_button*%
X131427316Y-99212425D02*
X129451543Y-97236652D01*
X129451543Y-97236652D02*
X129303853Y-97236652D01*
%TO.N,/amu_sync*%
X138199116Y-98316841D02*
X138199116Y-96303385D01*
X137539640Y-98976317D02*
X138199116Y-98316841D01*
X137054703Y-98976317D02*
X137539640Y-98976317D01*
%TO.N,/amu_int2*%
X136326789Y-97565449D02*
X136201490Y-97690748D01*
X136326789Y-94786745D02*
X136326789Y-97565449D01*
%TD*%
%TO.N,Earth*%
X182060818Y-44682760D02*
X182311708Y-44758508D01*
X182543101Y-44881542D01*
X182746190Y-45047177D01*
X182913244Y-45249111D01*
X183037889Y-45479637D01*
X183115386Y-45729990D01*
X183145950Y-46020781D01*
X183145951Y-55967866D01*
X183145950Y-55967876D01*
X183145951Y-67115027D01*
X183145674Y-67120092D01*
X183146131Y-67129213D01*
X183165652Y-67470892D01*
X183172749Y-67516367D01*
X183177355Y-67562190D01*
X183179213Y-67571132D01*
X183302342Y-68143535D01*
X183320416Y-68200032D01*
X183337677Y-68256703D01*
X183341236Y-68265113D01*
X183573200Y-68802700D01*
X183601911Y-68854626D01*
X183629843Y-68906850D01*
X183634963Y-68914401D01*
X183634967Y-68914409D01*
X183634972Y-68914415D01*
X183966932Y-69396702D01*
X184005170Y-69442047D01*
X184042726Y-69487867D01*
X184049221Y-69494287D01*
X184468542Y-69902916D01*
X184514903Y-69940005D01*
X184560599Y-69977621D01*
X184568216Y-69982656D01*
X184568218Y-69982658D01*
X184568221Y-69982659D01*
X184858909Y-70171869D01*
X184811469Y-70169389D01*
X184521981Y-70211401D01*
X184246253Y-70309081D01*
X184108843Y-70382528D01*
X184031209Y-70631601D01*
X184014433Y-70614825D01*
X184031718Y-70327405D01*
X183987961Y-70008325D01*
X183882795Y-69703912D01*
X183789814Y-69529956D01*
X183525413Y-69434192D01*
X182569605Y-70390000D01*
X182583748Y-70404143D01*
X182404143Y-70583748D01*
X182390000Y-70569605D01*
X182375858Y-70583748D01*
X182196253Y-70404143D01*
X182210395Y-70390000D01*
X182196253Y-70375858D01*
X182375858Y-70196253D01*
X182390000Y-70210395D01*
X183345808Y-69254587D01*
X183250044Y-68990186D01*
X182960429Y-68849296D01*
X182648892Y-68767616D01*
X182327405Y-68748282D01*
X182008325Y-68792039D01*
X181736525Y-68885938D01*
X181736525Y-59629784D01*
X181740806Y-59586315D01*
X181736525Y-59542846D01*
X181736525Y-59542838D01*
X181723720Y-59412825D01*
X181673315Y-59246663D01*
X181673114Y-59246001D01*
X181590936Y-59092256D01*
X181508057Y-58991268D01*
X181508055Y-58991266D01*
X181480342Y-58957498D01*
X181446576Y-58929787D01*
X176561041Y-54044253D01*
X176505720Y-53910696D01*
X176398701Y-53750531D01*
X176262491Y-53614321D01*
X176102326Y-53507302D01*
X175968771Y-53451982D01*
X174053650Y-51536862D01*
X174025933Y-51503089D01*
X173891175Y-51392495D01*
X173737429Y-51310317D01*
X173570606Y-51259711D01*
X173440593Y-51246906D01*
X173440585Y-51246906D01*
X173397116Y-51242625D01*
X173353647Y-51246906D01*
X171839395Y-51246906D01*
X171927932Y-51033158D01*
X171985000Y-50746260D01*
X171985000Y-50453740D01*
X176015000Y-50453740D01*
X176015000Y-50746260D01*
X176072068Y-51033158D01*
X176184010Y-51303411D01*
X176346525Y-51546632D01*
X176553368Y-51753475D01*
X176796589Y-51915990D01*
X177066842Y-52027932D01*
X177353740Y-52085000D01*
X177646260Y-52085000D01*
X177933158Y-52027932D01*
X178203411Y-51915990D01*
X178446632Y-51753475D01*
X178653475Y-51546632D01*
X178815990Y-51303411D01*
X178927932Y-51033158D01*
X178985000Y-50746260D01*
X178985000Y-50453740D01*
X178927932Y-50166842D01*
X178815990Y-49896589D01*
X178653475Y-49653368D01*
X178446632Y-49446525D01*
X178203411Y-49284010D01*
X177933158Y-49172068D01*
X177646260Y-49115000D01*
X177353740Y-49115000D01*
X177066842Y-49172068D01*
X176796589Y-49284010D01*
X176553368Y-49446525D01*
X176346525Y-49653368D01*
X176184010Y-49896589D01*
X176072068Y-50166842D01*
X176015000Y-50453740D01*
X171985000Y-50453740D01*
X171927932Y-50166842D01*
X171815990Y-49896589D01*
X171653475Y-49653368D01*
X171446632Y-49446525D01*
X171203411Y-49284010D01*
X170933158Y-49172068D01*
X170646260Y-49115000D01*
X170353740Y-49115000D01*
X170066842Y-49172068D01*
X169796589Y-49284010D01*
X169553368Y-49446525D01*
X169346525Y-49653368D01*
X169184010Y-49896589D01*
X169072068Y-50166842D01*
X169015000Y-50453740D01*
X169015000Y-50746260D01*
X169072068Y-51033158D01*
X169160605Y-51246906D01*
X167042593Y-51246906D01*
X166999116Y-51242624D01*
X166955640Y-51246906D01*
X166955639Y-51246906D01*
X166825626Y-51259711D01*
X166658803Y-51310317D01*
X166505057Y-51392495D01*
X166370299Y-51503089D01*
X166259705Y-51637847D01*
X166177527Y-51791593D01*
X166126921Y-51958416D01*
X166109834Y-52131906D01*
X166114117Y-52175393D01*
X166114116Y-56165327D01*
X165932538Y-56346906D01*
X163290066Y-56346906D01*
X163377504Y-56310688D01*
X163854114Y-55992227D01*
X164259437Y-55586904D01*
X164577898Y-55110294D01*
X164797257Y-54580713D01*
X164909086Y-54018513D01*
X164909086Y-53445299D01*
X164797257Y-52883099D01*
X164577898Y-52353518D01*
X164259437Y-51876908D01*
X163854114Y-51471585D01*
X163377504Y-51153124D01*
X162847923Y-50933765D01*
X162285723Y-50821936D01*
X161712509Y-50821936D01*
X161150309Y-50933765D01*
X160620728Y-51153124D01*
X160144118Y-51471585D01*
X159738795Y-51876908D01*
X159420334Y-52353518D01*
X159200975Y-52883099D01*
X159089146Y-53445299D01*
X159089146Y-54018513D01*
X159200975Y-54580713D01*
X159420334Y-55110294D01*
X159738795Y-55586904D01*
X160144118Y-55992227D01*
X160620728Y-56310688D01*
X160708166Y-56346906D01*
X157645479Y-56346906D01*
X157602013Y-56342625D01*
X157558547Y-56346906D01*
X157558537Y-56346906D01*
X157428524Y-56359711D01*
X157261701Y-56410317D01*
X157107955Y-56492495D01*
X157041534Y-56547006D01*
X154856698Y-56547006D01*
X154790277Y-56492495D01*
X154636531Y-56410317D01*
X154469708Y-56359711D01*
X154339695Y-56346906D01*
X154339687Y-56346906D01*
X154296218Y-56342625D01*
X154252749Y-56346906D01*
X148090066Y-56346906D01*
X148177504Y-56310688D01*
X148654114Y-55992227D01*
X149059437Y-55586904D01*
X149377898Y-55110294D01*
X149597257Y-54580713D01*
X149709086Y-54018513D01*
X149709086Y-53445299D01*
X149597257Y-52883099D01*
X149377898Y-52353518D01*
X149059437Y-51876908D01*
X148718120Y-51535591D01*
X149121216Y-51535591D01*
X149121216Y-51728221D01*
X149158796Y-51917149D01*
X149232512Y-52095116D01*
X149339531Y-52255281D01*
X149475741Y-52391491D01*
X149635906Y-52498510D01*
X149813873Y-52572226D01*
X150002801Y-52609806D01*
X150195431Y-52609806D01*
X150384359Y-52572226D01*
X150562326Y-52498510D01*
X150722491Y-52391491D01*
X150858701Y-52255281D01*
X150965720Y-52095116D01*
X151039436Y-51917149D01*
X151077016Y-51728221D01*
X151077016Y-51535591D01*
X151039436Y-51346663D01*
X150965720Y-51168696D01*
X150858701Y-51008531D01*
X150722491Y-50872321D01*
X150562326Y-50765302D01*
X150384359Y-50691586D01*
X150195431Y-50654006D01*
X150002801Y-50654006D01*
X149813873Y-50691586D01*
X149635906Y-50765302D01*
X149475741Y-50872321D01*
X149339531Y-51008531D01*
X149232512Y-51168696D01*
X149158796Y-51346663D01*
X149121216Y-51535591D01*
X148718120Y-51535591D01*
X148654114Y-51471585D01*
X148177504Y-51153124D01*
X147647923Y-50933765D01*
X147085723Y-50821936D01*
X146512509Y-50821936D01*
X145950309Y-50933765D01*
X145420728Y-51153124D01*
X144944118Y-51471585D01*
X144538795Y-51876908D01*
X144220334Y-52353518D01*
X144000975Y-52883099D01*
X143889146Y-53445299D01*
X143889146Y-54018513D01*
X144000975Y-54580713D01*
X144220334Y-55110294D01*
X144538795Y-55586904D01*
X144944118Y-55992227D01*
X145420728Y-56310688D01*
X145508166Y-56346906D01*
X142265695Y-56346906D01*
X137961062Y-52042273D01*
X138033158Y-52027932D01*
X138303411Y-51915990D01*
X138546632Y-51753475D01*
X138753475Y-51546632D01*
X138915990Y-51303411D01*
X139027932Y-51033158D01*
X139085000Y-50746260D01*
X139085000Y-50453740D01*
X139027932Y-50166842D01*
X138915990Y-49896589D01*
X138753475Y-49653368D01*
X138546632Y-49446525D01*
X138303411Y-49284010D01*
X138033158Y-49172068D01*
X137746260Y-49115000D01*
X137453740Y-49115000D01*
X137166842Y-49172068D01*
X136896589Y-49284010D01*
X136653368Y-49446525D01*
X136446525Y-49653368D01*
X136284010Y-49896589D01*
X136172068Y-50166842D01*
X136157727Y-50238939D01*
X134854379Y-48935591D01*
X150921216Y-48935591D01*
X150921216Y-49128221D01*
X150958796Y-49317149D01*
X151027040Y-49481906D01*
X150958796Y-49646663D01*
X150921216Y-49835591D01*
X150921216Y-50028221D01*
X150958796Y-50217149D01*
X151027040Y-50381906D01*
X150958796Y-50546663D01*
X150921216Y-50735591D01*
X150921216Y-50928221D01*
X150958796Y-51117149D01*
X151032512Y-51295116D01*
X151139531Y-51455281D01*
X151275741Y-51591491D01*
X151435906Y-51698510D01*
X151613873Y-51772226D01*
X151802801Y-51809806D01*
X151995431Y-51809806D01*
X152184359Y-51772226D01*
X152362326Y-51698510D01*
X152522491Y-51591491D01*
X152658701Y-51455281D01*
X152765720Y-51295116D01*
X152839436Y-51117149D01*
X152875550Y-50935591D01*
X157421216Y-50935591D01*
X157421216Y-51128221D01*
X157458796Y-51317149D01*
X157532512Y-51495116D01*
X157639531Y-51655281D01*
X157775741Y-51791491D01*
X157935906Y-51898510D01*
X158113873Y-51972226D01*
X158302801Y-52009806D01*
X158495431Y-52009806D01*
X158684359Y-51972226D01*
X158862326Y-51898510D01*
X159022491Y-51791491D01*
X159158701Y-51655281D01*
X159265720Y-51495116D01*
X159339436Y-51317149D01*
X159377016Y-51128221D01*
X159377016Y-50935591D01*
X159339436Y-50746663D01*
X159265720Y-50568696D01*
X159158701Y-50408531D01*
X159022491Y-50272321D01*
X158862326Y-50165302D01*
X158684359Y-50091586D01*
X158495431Y-50054006D01*
X158302801Y-50054006D01*
X158113873Y-50091586D01*
X157935906Y-50165302D01*
X157775741Y-50272321D01*
X157639531Y-50408531D01*
X157532512Y-50568696D01*
X157458796Y-50746663D01*
X157421216Y-50935591D01*
X152875550Y-50935591D01*
X152877016Y-50928221D01*
X152877016Y-50735591D01*
X152839436Y-50546663D01*
X152771192Y-50381906D01*
X152839436Y-50217149D01*
X152877016Y-50028221D01*
X152877016Y-49835591D01*
X152839436Y-49646663D01*
X152771192Y-49481906D01*
X152839436Y-49317149D01*
X152877016Y-49128221D01*
X152877016Y-48935591D01*
X152839436Y-48746663D01*
X152765720Y-48568696D01*
X152658701Y-48408531D01*
X152522491Y-48272321D01*
X152362326Y-48165302D01*
X152184359Y-48091586D01*
X151995431Y-48054006D01*
X151802801Y-48054006D01*
X151613873Y-48091586D01*
X151435906Y-48165302D01*
X151275741Y-48272321D01*
X151139531Y-48408531D01*
X151032512Y-48568696D01*
X150958796Y-48746663D01*
X150921216Y-48935591D01*
X134854379Y-48935591D01*
X133344116Y-47425328D01*
X133344116Y-47135591D01*
X155321216Y-47135591D01*
X155321216Y-47328221D01*
X155358796Y-47517149D01*
X155432512Y-47695116D01*
X155539531Y-47855281D01*
X155675741Y-47991491D01*
X155835906Y-48098510D01*
X156013873Y-48172226D01*
X156202801Y-48209806D01*
X156395431Y-48209806D01*
X156584359Y-48172226D01*
X156762326Y-48098510D01*
X156922491Y-47991491D01*
X157058701Y-47855281D01*
X157165720Y-47695116D01*
X157239436Y-47517149D01*
X157277016Y-47328221D01*
X157277016Y-47135591D01*
X157239436Y-46946663D01*
X157165720Y-46768696D01*
X157058701Y-46608531D01*
X156922491Y-46472321D01*
X156762326Y-46365302D01*
X156584359Y-46291586D01*
X156395431Y-46254006D01*
X156202801Y-46254006D01*
X156013873Y-46291586D01*
X155835906Y-46365302D01*
X155675741Y-46472321D01*
X155539531Y-46608531D01*
X155432512Y-46768696D01*
X155358796Y-46946663D01*
X155321216Y-47135591D01*
X133344116Y-47135591D01*
X133344116Y-46918704D01*
X133399436Y-46785149D01*
X133437016Y-46596221D01*
X133437016Y-46403591D01*
X133399436Y-46214663D01*
X133325720Y-46036696D01*
X133218701Y-45876531D01*
X133082491Y-45740321D01*
X132922326Y-45633302D01*
X132744359Y-45559586D01*
X132555431Y-45522006D01*
X132362801Y-45522006D01*
X132173873Y-45559586D01*
X131995906Y-45633302D01*
X131835741Y-45740321D01*
X131699531Y-45876531D01*
X131592512Y-46036696D01*
X131518796Y-46214663D01*
X131481216Y-46403591D01*
X131481216Y-46596221D01*
X131518796Y-46785149D01*
X131574116Y-46918705D01*
X131574117Y-47748428D01*
X131569835Y-47791906D01*
X131586921Y-47965396D01*
X131637528Y-48132219D01*
X131719706Y-48285965D01*
X131802584Y-48386952D01*
X131802587Y-48386955D01*
X131830300Y-48420723D01*
X131864068Y-48448436D01*
X139327931Y-55912300D01*
X139253918Y-55942957D01*
X139093753Y-56049976D01*
X138957543Y-56186186D01*
X138850524Y-56346351D01*
X138776808Y-56524318D01*
X138739228Y-56713246D01*
X138739228Y-56905876D01*
X138776808Y-57094804D01*
X138850524Y-57272771D01*
X138957543Y-57432936D01*
X139093753Y-57569146D01*
X139253918Y-57676165D01*
X139387475Y-57731486D01*
X139403495Y-57747506D01*
X140380455Y-58724467D01*
X140408168Y-58758235D01*
X140441936Y-58785948D01*
X140441938Y-58785950D01*
X140487971Y-58823728D01*
X140542926Y-58868829D01*
X140696672Y-58951007D01*
X140863495Y-59001613D01*
X140993508Y-59014418D01*
X140993518Y-59014418D01*
X141036984Y-59018699D01*
X141080450Y-59014418D01*
X144868779Y-59014418D01*
X144832512Y-59068696D01*
X144758796Y-59246663D01*
X144721216Y-59435591D01*
X144721216Y-59628221D01*
X144758796Y-59817149D01*
X144832512Y-59995116D01*
X144939531Y-60155281D01*
X145075741Y-60291491D01*
X145235906Y-60398510D01*
X145413873Y-60472226D01*
X145602801Y-60509806D01*
X145795431Y-60509806D01*
X145984359Y-60472226D01*
X146162326Y-60398510D01*
X146322491Y-60291491D01*
X146448391Y-60165591D01*
X163161216Y-60165591D01*
X163161216Y-60358221D01*
X163198796Y-60547149D01*
X163272512Y-60725116D01*
X163379531Y-60885281D01*
X163515741Y-61021491D01*
X163675906Y-61128510D01*
X163853873Y-61202226D01*
X164042801Y-61239806D01*
X164235431Y-61239806D01*
X164424359Y-61202226D01*
X164602326Y-61128510D01*
X164762491Y-61021491D01*
X164898701Y-60885281D01*
X165005720Y-60725116D01*
X165079436Y-60547149D01*
X165117016Y-60358221D01*
X165117016Y-60165591D01*
X165079436Y-59976663D01*
X165005720Y-59798696D01*
X164898701Y-59638531D01*
X164762491Y-59502321D01*
X164602326Y-59395302D01*
X164424359Y-59321586D01*
X164235431Y-59284006D01*
X164042801Y-59284006D01*
X163853873Y-59321586D01*
X163675906Y-59395302D01*
X163515741Y-59502321D01*
X163379531Y-59638531D01*
X163272512Y-59798696D01*
X163198796Y-59976663D01*
X163161216Y-60165591D01*
X146448391Y-60165591D01*
X146458701Y-60155281D01*
X146565720Y-59995116D01*
X146639436Y-59817149D01*
X146677016Y-59628221D01*
X146677016Y-59435591D01*
X146639436Y-59246663D01*
X146565720Y-59068696D01*
X146529453Y-59014418D01*
X154227754Y-59014418D01*
X154271223Y-59018699D01*
X154314692Y-59014418D01*
X154314700Y-59014418D01*
X154444713Y-59001613D01*
X154551177Y-58969317D01*
X171168077Y-58969317D01*
X174574636Y-62375877D01*
X174472552Y-62528656D01*
X174398836Y-62706623D01*
X174361256Y-62895551D01*
X174361256Y-63088181D01*
X174398836Y-63277109D01*
X174454156Y-63410664D01*
X174454156Y-63433322D01*
X174449874Y-63476799D01*
X174466961Y-63650289D01*
X174517567Y-63817112D01*
X174599745Y-63970858D01*
X174682624Y-64071845D01*
X174710339Y-64105616D01*
X174845097Y-64216210D01*
X174998843Y-64298388D01*
X175165666Y-64348994D01*
X175339156Y-64366081D01*
X175377897Y-64362265D01*
X178009297Y-66993666D01*
X178009296Y-67490508D01*
X177155650Y-66636862D01*
X177127933Y-66603089D01*
X176993175Y-66492495D01*
X176839429Y-66410317D01*
X176672606Y-66359711D01*
X176542593Y-66346906D01*
X176542585Y-66346906D01*
X176499116Y-66342625D01*
X176455647Y-66346906D01*
X138595695Y-66346906D01*
X137362070Y-65113281D01*
X149221216Y-65113281D01*
X149221216Y-65305911D01*
X149258796Y-65494839D01*
X149332512Y-65672806D01*
X149439531Y-65832971D01*
X149575741Y-65969181D01*
X149735906Y-66076200D01*
X149913873Y-66149916D01*
X150102801Y-66187496D01*
X150295431Y-66187496D01*
X150484359Y-66149916D01*
X150662326Y-66076200D01*
X150822491Y-65969181D01*
X150958701Y-65832971D01*
X151065720Y-65672806D01*
X151139436Y-65494839D01*
X151177016Y-65305911D01*
X151177016Y-65135591D01*
X158221216Y-65135591D01*
X158221216Y-65328221D01*
X158258796Y-65517149D01*
X158332512Y-65695116D01*
X158439531Y-65855281D01*
X158575741Y-65991491D01*
X158735906Y-66098510D01*
X158913873Y-66172226D01*
X159102801Y-66209806D01*
X159295431Y-66209806D01*
X159484359Y-66172226D01*
X159662326Y-66098510D01*
X159822491Y-65991491D01*
X159958701Y-65855281D01*
X160065720Y-65695116D01*
X160139436Y-65517149D01*
X160177016Y-65328221D01*
X160177016Y-65135591D01*
X160139436Y-64946663D01*
X160065720Y-64768696D01*
X159958701Y-64608531D01*
X159822491Y-64472321D01*
X159662326Y-64365302D01*
X159484359Y-64291586D01*
X159295431Y-64254006D01*
X159102801Y-64254006D01*
X158913873Y-64291586D01*
X158735906Y-64365302D01*
X158575741Y-64472321D01*
X158439531Y-64608531D01*
X158332512Y-64768696D01*
X158258796Y-64946663D01*
X158221216Y-65135591D01*
X151177016Y-65135591D01*
X151177016Y-65113281D01*
X151139436Y-64924353D01*
X151065720Y-64746386D01*
X150958701Y-64586221D01*
X150822491Y-64450011D01*
X150662326Y-64342992D01*
X150484359Y-64269276D01*
X150295431Y-64231696D01*
X150102801Y-64231696D01*
X149913873Y-64269276D01*
X149735906Y-64342992D01*
X149575741Y-64450011D01*
X149439531Y-64586221D01*
X149332512Y-64746386D01*
X149258796Y-64924353D01*
X149221216Y-65113281D01*
X137362070Y-65113281D01*
X133711041Y-61462253D01*
X133655720Y-61328696D01*
X133548701Y-61168531D01*
X133412491Y-61032321D01*
X133252326Y-60925302D01*
X133074359Y-60851586D01*
X132885431Y-60814006D01*
X132692801Y-60814006D01*
X132503873Y-60851586D01*
X132325906Y-60925302D01*
X132165741Y-61032321D01*
X132029531Y-61168531D01*
X131922512Y-61328696D01*
X131848796Y-61506663D01*
X131811216Y-61695591D01*
X131811216Y-61888221D01*
X131848796Y-62077149D01*
X131922512Y-62255116D01*
X132029531Y-62415281D01*
X132165741Y-62551491D01*
X132325906Y-62658510D01*
X132459463Y-62713831D01*
X137572586Y-67826955D01*
X137600299Y-67860723D01*
X137634067Y-67888436D01*
X137634069Y-67888438D01*
X137672738Y-67920173D01*
X137735057Y-67971317D01*
X137888803Y-68053495D01*
X138055626Y-68104101D01*
X138185639Y-68116906D01*
X138185647Y-68116906D01*
X138229116Y-68121187D01*
X138272585Y-68116906D01*
X176132538Y-68116906D01*
X176449245Y-68433613D01*
X176377510Y-68411955D01*
X176319343Y-68400437D01*
X176261376Y-68388116D01*
X176252303Y-68387163D01*
X176252293Y-68387161D01*
X176252284Y-68387161D01*
X175863825Y-68349072D01*
X175863824Y-68349072D01*
X175832125Y-68345950D01*
X132267875Y-68345950D01*
X132239165Y-68348778D01*
X132226758Y-68348691D01*
X132217669Y-68349582D01*
X131829477Y-68390383D01*
X131771380Y-68402309D01*
X131713179Y-68413411D01*
X131704436Y-68416050D01*
X131331561Y-68531474D01*
X131276892Y-68554455D01*
X131221951Y-68576652D01*
X131213892Y-68580938D01*
X131213887Y-68580940D01*
X131213883Y-68580943D01*
X130870532Y-68766591D01*
X130821355Y-68799761D01*
X130771783Y-68832200D01*
X130764715Y-68837964D01*
X130764707Y-68837970D01*
X130764700Y-68837977D01*
X130463951Y-69086778D01*
X130422157Y-69128865D01*
X130379828Y-69170317D01*
X130374007Y-69177353D01*
X130127306Y-69479838D01*
X130094483Y-69529240D01*
X130061010Y-69578126D01*
X130056666Y-69586159D01*
X129873417Y-69930800D01*
X129850806Y-69985657D01*
X129827474Y-70040095D01*
X129824775Y-70048811D01*
X129824773Y-70048817D01*
X129824773Y-70048819D01*
X129711955Y-70422490D01*
X129700437Y-70480657D01*
X129688116Y-70538624D01*
X129687163Y-70547697D01*
X129687161Y-70547707D01*
X129687161Y-70547716D01*
X129649072Y-70936175D01*
X129645950Y-70967876D01*
X129645951Y-91032125D01*
X129648778Y-91060825D01*
X129648691Y-91073242D01*
X129649582Y-91082330D01*
X129690383Y-91470523D01*
X129702309Y-91528620D01*
X129713411Y-91586821D01*
X129716050Y-91595564D01*
X129831474Y-91968438D01*
X129854475Y-92023155D01*
X129876653Y-92078049D01*
X129880935Y-92086104D01*
X129880939Y-92086113D01*
X129880944Y-92086120D01*
X130066591Y-92429468D01*
X130099761Y-92478645D01*
X130132200Y-92528217D01*
X130137971Y-92535294D01*
X130386778Y-92836049D01*
X130428882Y-92877859D01*
X130470317Y-92920172D01*
X130477353Y-92925993D01*
X130779838Y-93172694D01*
X130829237Y-93205515D01*
X130878125Y-93238990D01*
X130886150Y-93243329D01*
X130886158Y-93243334D01*
X130886166Y-93243337D01*
X131230800Y-93426583D01*
X131285643Y-93449188D01*
X131340094Y-93472526D01*
X131348810Y-93475225D01*
X131348816Y-93475227D01*
X131348822Y-93475228D01*
X131722490Y-93588045D01*
X131780657Y-93599563D01*
X131838624Y-93611884D01*
X131847697Y-93612837D01*
X131847707Y-93612839D01*
X131847716Y-93612839D01*
X132236176Y-93650928D01*
X132267875Y-93654050D01*
X133463493Y-93654050D01*
X133382708Y-93687512D01*
X133222543Y-93794531D01*
X133086333Y-93930741D01*
X132979314Y-94090906D01*
X132905598Y-94268873D01*
X132868018Y-94457801D01*
X132868018Y-94650431D01*
X132905598Y-94839359D01*
X132979314Y-95017326D01*
X133052867Y-95127405D01*
X132945076Y-95127405D01*
X132756148Y-95164985D01*
X132578181Y-95238701D01*
X132418016Y-95345720D01*
X132285859Y-95477877D01*
X132145833Y-95450024D01*
X131953203Y-95450024D01*
X131764275Y-95487604D01*
X131586308Y-95561320D01*
X131426143Y-95668339D01*
X131289933Y-95804549D01*
X131182914Y-95964714D01*
X131109198Y-96142681D01*
X131071618Y-96331609D01*
X131071618Y-96524239D01*
X131109198Y-96713167D01*
X131182914Y-96891134D01*
X131287519Y-97047686D01*
X131287519Y-97994997D01*
X130244233Y-96951712D01*
X130244173Y-96951409D01*
X130170457Y-96773442D01*
X130063438Y-96613277D01*
X129927228Y-96477067D01*
X129767063Y-96370048D01*
X129589096Y-96296332D01*
X129400168Y-96258752D01*
X129207538Y-96258752D01*
X129018610Y-96296332D01*
X128840643Y-96370048D01*
X128680478Y-96477067D01*
X128544268Y-96613277D01*
X128437249Y-96773442D01*
X128363533Y-96951409D01*
X128325953Y-97140337D01*
X128325953Y-97332967D01*
X128363533Y-97521895D01*
X128437249Y-97699862D01*
X128544268Y-97860027D01*
X128680478Y-97996237D01*
X128840643Y-98103256D01*
X129018610Y-98176972D01*
X129207538Y-98214552D01*
X129351813Y-98214552D01*
X130450264Y-99313004D01*
X130486996Y-99497668D01*
X130560712Y-99675635D01*
X130596563Y-99729289D01*
X130517321Y-99808531D01*
X130410302Y-99968696D01*
X130336586Y-100146663D01*
X130299006Y-100335591D01*
X130299006Y-100528221D01*
X130336586Y-100717149D01*
X130410302Y-100895116D01*
X130517321Y-101055281D01*
X130653531Y-101191491D01*
X130813696Y-101298510D01*
X130991663Y-101372226D01*
X131180591Y-101409806D01*
X131373221Y-101409806D01*
X131562149Y-101372226D01*
X131740116Y-101298510D01*
X131900281Y-101191491D01*
X132036491Y-101055281D01*
X132143510Y-100895116D01*
X132217226Y-100717149D01*
X132253958Y-100532485D01*
X132355521Y-100430921D01*
X132372916Y-100456954D01*
X132509126Y-100593164D01*
X132669291Y-100700183D01*
X132847258Y-100773899D01*
X133036186Y-100811479D01*
X133228816Y-100811479D01*
X133417744Y-100773899D01*
X133595711Y-100700183D01*
X133755876Y-100593164D01*
X133892086Y-100456954D01*
X133922964Y-100410741D01*
X133931894Y-100416708D01*
X134109861Y-100490424D01*
X134298789Y-100528004D01*
X134491419Y-100528004D01*
X134680347Y-100490424D01*
X134858314Y-100416708D01*
X135018479Y-100309689D01*
X135154689Y-100173479D01*
X135261708Y-100013314D01*
X135335424Y-99835347D01*
X135372156Y-99650682D01*
X135906732Y-99116107D01*
X136085451Y-99116107D01*
X136114383Y-99261560D01*
X136188099Y-99439527D01*
X136295118Y-99599692D01*
X136431328Y-99735902D01*
X136591493Y-99842921D01*
X136769460Y-99916637D01*
X136958388Y-99954217D01*
X137151018Y-99954217D01*
X137339946Y-99916637D01*
X137517913Y-99842921D01*
X137678078Y-99735902D01*
X137686435Y-99727545D01*
X137689018Y-99727291D01*
X137832655Y-99683719D01*
X137965032Y-99612962D01*
X138081062Y-99517739D01*
X138104923Y-99488664D01*
X138711468Y-98882119D01*
X138740538Y-98858263D01*
X138778704Y-98811758D01*
X138835761Y-98742234D01*
X138895180Y-98631068D01*
X138906518Y-98609856D01*
X138950090Y-98466219D01*
X138961116Y-98354267D01*
X138961116Y-98354264D01*
X138964802Y-98316841D01*
X138961116Y-98279418D01*
X138961116Y-96923146D01*
X139065720Y-96766595D01*
X139139436Y-96588628D01*
X139177016Y-96399700D01*
X139177016Y-96207070D01*
X139139436Y-96018142D01*
X139065720Y-95840175D01*
X138958701Y-95680010D01*
X138822491Y-95543800D01*
X138662326Y-95436781D01*
X138484359Y-95363065D01*
X138295431Y-95325485D01*
X138147629Y-95325485D01*
X138226818Y-95206970D01*
X138300534Y-95029003D01*
X138338114Y-94840075D01*
X138338114Y-94647445D01*
X138300534Y-94458517D01*
X138226818Y-94280550D01*
X138119799Y-94120385D01*
X137983589Y-93984175D01*
X137823424Y-93877156D01*
X137645457Y-93803440D01*
X137456529Y-93765860D01*
X137263899Y-93765860D01*
X137074971Y-93803440D01*
X136897004Y-93877156D01*
X136811336Y-93934398D01*
X136789999Y-93920141D01*
X136612032Y-93846425D01*
X136423104Y-93808845D01*
X136230474Y-93808845D01*
X136041546Y-93846425D01*
X135863579Y-93920141D01*
X135703414Y-94027160D01*
X135573044Y-94157530D01*
X135550544Y-94103211D01*
X135443525Y-93943046D01*
X135307315Y-93806836D01*
X135147150Y-93699817D01*
X135036658Y-93654050D01*
X175832125Y-93654050D01*
X175860835Y-93651222D01*
X175873242Y-93651309D01*
X175882330Y-93650418D01*
X176270523Y-93609617D01*
X176328620Y-93597691D01*
X176386821Y-93586589D01*
X176395564Y-93583950D01*
X176768438Y-93468526D01*
X176823155Y-93445525D01*
X176878049Y-93423347D01*
X176886104Y-93419065D01*
X176886113Y-93419061D01*
X176886120Y-93419056D01*
X177229468Y-93233409D01*
X177278645Y-93200239D01*
X177328217Y-93167800D01*
X177335294Y-93162029D01*
X177636049Y-92913222D01*
X177677859Y-92871118D01*
X177720172Y-92829683D01*
X177725993Y-92822647D01*
X177972694Y-92520162D01*
X178005515Y-92470763D01*
X178009297Y-92465240D01*
X178009296Y-123356764D01*
X177995431Y-123354006D01*
X177802801Y-123354006D01*
X177613873Y-123391586D01*
X177480318Y-123446906D01*
X177457652Y-123446906D01*
X177414183Y-123442625D01*
X177370714Y-123446906D01*
X177370706Y-123446906D01*
X177240693Y-123459711D01*
X177073870Y-123510317D01*
X176920124Y-123592495D01*
X176853825Y-123646906D01*
X146642581Y-123646906D01*
X146599115Y-123642625D01*
X146555649Y-123646906D01*
X146555639Y-123646906D01*
X146425626Y-123659711D01*
X146258803Y-123710317D01*
X146105057Y-123792495D01*
X146105055Y-123792496D01*
X146105056Y-123792496D01*
X146004069Y-123875374D01*
X146004067Y-123875376D01*
X145970299Y-123903089D01*
X145942586Y-123936857D01*
X143785368Y-126094076D01*
X143751601Y-126121788D01*
X143723888Y-126155556D01*
X143723885Y-126155559D01*
X143641007Y-126256546D01*
X143558829Y-126410292D01*
X143508222Y-126577115D01*
X143491136Y-126750605D01*
X143495418Y-126794084D01*
X143495418Y-134762635D01*
X143349873Y-134791586D01*
X143171906Y-134865302D01*
X143011741Y-134972321D01*
X142875531Y-135108531D01*
X142768512Y-135268696D01*
X142694796Y-135446663D01*
X142657216Y-135635591D01*
X142657216Y-135828221D01*
X142694796Y-136017149D01*
X142768512Y-136195116D01*
X142875531Y-136355281D01*
X143011741Y-136491491D01*
X143171906Y-136598510D01*
X143349873Y-136672226D01*
X143495418Y-136701177D01*
X143495417Y-144618125D01*
X143349873Y-144647075D01*
X143171906Y-144720791D01*
X143011741Y-144827810D01*
X142875531Y-144964020D01*
X142768512Y-145124185D01*
X142694796Y-145302152D01*
X142657216Y-145491080D01*
X142657216Y-145683710D01*
X142694796Y-145872638D01*
X142768512Y-146050605D01*
X142875531Y-146210770D01*
X143011741Y-146346980D01*
X143171906Y-146453999D01*
X143349873Y-146527715D01*
X143495417Y-146556665D01*
X143495417Y-155076948D01*
X143491136Y-155120417D01*
X143495417Y-155163886D01*
X143495417Y-155163893D01*
X143506629Y-155277731D01*
X143508222Y-155293907D01*
X143513021Y-155309727D01*
X143558828Y-155460729D01*
X143641006Y-155614475D01*
X143751600Y-155749234D01*
X143785373Y-155776951D01*
X145001983Y-156993561D01*
X144995000Y-157028665D01*
X144995000Y-157311335D01*
X145050147Y-157588574D01*
X145158320Y-157849727D01*
X145315363Y-158084759D01*
X145515241Y-158284637D01*
X145747759Y-158440000D01*
X145515241Y-158595363D01*
X145315363Y-158795241D01*
X145158320Y-159030273D01*
X145050147Y-159291426D01*
X144995000Y-159568665D01*
X144995000Y-159851335D01*
X145050147Y-160128574D01*
X145158320Y-160389727D01*
X145315363Y-160624759D01*
X145515241Y-160824637D01*
X145750273Y-160981680D01*
X145927554Y-161055112D01*
X138211977Y-165108273D01*
X138477898Y-164710294D01*
X138697257Y-164180713D01*
X138809086Y-163618513D01*
X138809086Y-163045299D01*
X138697257Y-162483099D01*
X138477898Y-161953518D01*
X138159437Y-161476908D01*
X137754114Y-161071585D01*
X137277504Y-160753124D01*
X136747923Y-160533765D01*
X136185723Y-160421936D01*
X135612509Y-160421936D01*
X135050309Y-160533765D01*
X134520728Y-160753124D01*
X134044118Y-161071585D01*
X133638795Y-161476908D01*
X133320334Y-161953518D01*
X133100975Y-162483099D01*
X132989146Y-163045299D01*
X132989146Y-163618513D01*
X133100975Y-164180713D01*
X133320334Y-164710294D01*
X133500694Y-164980221D01*
X125493682Y-160106389D01*
X125300115Y-159929205D01*
X125144854Y-159718075D01*
X125033559Y-159480811D01*
X124968481Y-159218435D01*
X124954050Y-159020258D01*
X124954050Y-155735591D01*
X134021216Y-155735591D01*
X134021216Y-155928221D01*
X134058796Y-156117149D01*
X134132512Y-156295116D01*
X134239531Y-156455281D01*
X134375741Y-156591491D01*
X134535906Y-156698510D01*
X134713873Y-156772226D01*
X134902801Y-156809806D01*
X135095431Y-156809806D01*
X135284359Y-156772226D01*
X135462326Y-156698510D01*
X135622491Y-156591491D01*
X135758701Y-156455281D01*
X135865720Y-156295116D01*
X135939436Y-156117149D01*
X135977016Y-155928221D01*
X135977016Y-155735591D01*
X135939436Y-155546663D01*
X135865720Y-155368696D01*
X135758701Y-155208531D01*
X135622491Y-155072321D01*
X135462326Y-154965302D01*
X135284359Y-154891586D01*
X135095431Y-154854006D01*
X134902801Y-154854006D01*
X134713873Y-154891586D01*
X134535906Y-154965302D01*
X134375741Y-155072321D01*
X134239531Y-155208531D01*
X134132512Y-155368696D01*
X134058796Y-155546663D01*
X134021216Y-155735591D01*
X124954050Y-155735591D01*
X124954050Y-142164112D01*
X129821216Y-142164112D01*
X129821216Y-142356742D01*
X129858796Y-142545670D01*
X129932512Y-142723637D01*
X130039531Y-142883802D01*
X130175741Y-143020012D01*
X130335906Y-143127031D01*
X130513873Y-143200747D01*
X130702801Y-143238327D01*
X130895431Y-143238327D01*
X131084359Y-143200747D01*
X131262326Y-143127031D01*
X131422491Y-143020012D01*
X131558701Y-142883802D01*
X131665720Y-142723637D01*
X131739436Y-142545670D01*
X131777016Y-142356742D01*
X131777016Y-142164112D01*
X131739436Y-141975184D01*
X131665720Y-141797217D01*
X131558701Y-141637052D01*
X131422491Y-141500842D01*
X131262326Y-141393823D01*
X131084359Y-141320107D01*
X130895431Y-141282527D01*
X130702801Y-141282527D01*
X130513873Y-141320107D01*
X130335906Y-141393823D01*
X130175741Y-141500842D01*
X130039531Y-141637052D01*
X129932512Y-141797217D01*
X129858796Y-141975184D01*
X129821216Y-142164112D01*
X124954050Y-142164112D01*
X124954050Y-140435591D01*
X128121216Y-140435591D01*
X128121216Y-140628221D01*
X128158796Y-140817149D01*
X128232512Y-140995116D01*
X128339531Y-141155281D01*
X128475741Y-141291491D01*
X128635906Y-141398510D01*
X128813873Y-141472226D01*
X129002801Y-141509806D01*
X129195431Y-141509806D01*
X129384359Y-141472226D01*
X129562326Y-141398510D01*
X129722491Y-141291491D01*
X129858701Y-141155281D01*
X129965720Y-140995116D01*
X130039436Y-140817149D01*
X130077016Y-140628221D01*
X130077016Y-140435591D01*
X130039436Y-140246663D01*
X129965720Y-140068696D01*
X129858701Y-139908531D01*
X129722491Y-139772321D01*
X129562326Y-139665302D01*
X129384359Y-139591586D01*
X129195431Y-139554006D01*
X129002801Y-139554006D01*
X128813873Y-139591586D01*
X128635906Y-139665302D01*
X128475741Y-139772321D01*
X128339531Y-139908531D01*
X128232512Y-140068696D01*
X128158796Y-140246663D01*
X128121216Y-140435591D01*
X124954050Y-140435591D01*
X124954050Y-137135591D01*
X128349737Y-137135591D01*
X128349737Y-137328221D01*
X128387317Y-137517149D01*
X128461033Y-137695116D01*
X128568052Y-137855281D01*
X128704262Y-137991491D01*
X128864427Y-138098510D01*
X129042394Y-138172226D01*
X129231322Y-138209806D01*
X129423952Y-138209806D01*
X129612880Y-138172226D01*
X129790847Y-138098510D01*
X129951012Y-137991491D01*
X130087222Y-137855281D01*
X130090297Y-137850680D01*
X130194874Y-137955257D01*
X130355039Y-138062276D01*
X130533006Y-138135992D01*
X130721934Y-138173572D01*
X130914564Y-138173572D01*
X131103492Y-138135992D01*
X131281459Y-138062276D01*
X131441624Y-137955257D01*
X131577834Y-137819047D01*
X131684853Y-137658882D01*
X131758569Y-137480915D01*
X131796149Y-137291987D01*
X131796149Y-137099357D01*
X131758569Y-136910429D01*
X131684853Y-136732462D01*
X131577834Y-136572297D01*
X131441624Y-136436087D01*
X131281459Y-136329068D01*
X131103492Y-136255352D01*
X130914564Y-136217772D01*
X130721934Y-136217772D01*
X130533006Y-136255352D01*
X130355039Y-136329068D01*
X130194874Y-136436087D01*
X130058664Y-136572297D01*
X130055589Y-136576898D01*
X129951012Y-136472321D01*
X129790847Y-136365302D01*
X129612880Y-136291586D01*
X129423952Y-136254006D01*
X129231322Y-136254006D01*
X129042394Y-136291586D01*
X128864427Y-136365302D01*
X128704262Y-136472321D01*
X128568052Y-136608531D01*
X128461033Y-136768696D01*
X128387317Y-136946663D01*
X128349737Y-137135591D01*
X124954050Y-137135591D01*
X124954050Y-132885646D01*
X132574116Y-132885646D01*
X132574116Y-133178166D01*
X132631184Y-133465064D01*
X132743126Y-133735317D01*
X132905641Y-133978538D01*
X133112484Y-134185381D01*
X133286876Y-134301906D01*
X133112484Y-134418431D01*
X132905641Y-134625274D01*
X132743126Y-134868495D01*
X132631184Y-135138748D01*
X132574116Y-135425646D01*
X132574116Y-135718166D01*
X132631184Y-136005064D01*
X132743126Y-136275317D01*
X132905641Y-136518538D01*
X133112484Y-136725381D01*
X133355705Y-136887896D01*
X133625958Y-136999838D01*
X133912856Y-137056906D01*
X134205376Y-137056906D01*
X134492274Y-136999838D01*
X134762527Y-136887896D01*
X135005748Y-136725381D01*
X135212591Y-136518538D01*
X135329116Y-136344146D01*
X135445641Y-136518538D01*
X135652484Y-136725381D01*
X135895705Y-136887896D01*
X136165958Y-136999838D01*
X136452856Y-137056906D01*
X136745376Y-137056906D01*
X137032274Y-136999838D01*
X137302527Y-136887896D01*
X137545748Y-136725381D01*
X137752591Y-136518538D01*
X137915106Y-136275317D01*
X138027048Y-136005064D01*
X138084116Y-135718166D01*
X138084116Y-135425646D01*
X138027048Y-135138748D01*
X137915106Y-134868495D01*
X137752591Y-134625274D01*
X137620736Y-134493419D01*
X137693296Y-134471408D01*
X137803610Y-134412443D01*
X137900301Y-134333091D01*
X137979653Y-134236400D01*
X138038618Y-134126086D01*
X138074928Y-134006388D01*
X138087188Y-133881906D01*
X138087188Y-132181906D01*
X138074928Y-132057424D01*
X138038618Y-131937726D01*
X137979653Y-131827412D01*
X137900301Y-131730721D01*
X137803610Y-131651369D01*
X137693296Y-131592404D01*
X137573598Y-131556094D01*
X137449116Y-131543834D01*
X135749116Y-131543834D01*
X135624634Y-131556094D01*
X135504936Y-131592404D01*
X135394622Y-131651369D01*
X135297931Y-131730721D01*
X135218579Y-131827412D01*
X135159614Y-131937726D01*
X135137603Y-132010286D01*
X135005748Y-131878431D01*
X134762527Y-131715916D01*
X134492274Y-131603974D01*
X134205376Y-131546906D01*
X133912856Y-131546906D01*
X133625958Y-131603974D01*
X133355705Y-131715916D01*
X133112484Y-131878431D01*
X132905641Y-132085274D01*
X132743126Y-132328495D01*
X132631184Y-132598748D01*
X132574116Y-132885646D01*
X124954050Y-132885646D01*
X124954050Y-131135591D01*
X139321216Y-131135591D01*
X139321216Y-131328221D01*
X139358796Y-131517149D01*
X139432512Y-131695116D01*
X139539531Y-131855281D01*
X139675741Y-131991491D01*
X139835906Y-132098510D01*
X140013873Y-132172226D01*
X140202801Y-132209806D01*
X140395431Y-132209806D01*
X140584359Y-132172226D01*
X140762326Y-132098510D01*
X140922491Y-131991491D01*
X141058701Y-131855281D01*
X141165720Y-131695116D01*
X141239436Y-131517149D01*
X141277016Y-131328221D01*
X141277016Y-131135591D01*
X141239436Y-130946663D01*
X141165720Y-130768696D01*
X141058701Y-130608531D01*
X140922491Y-130472321D01*
X140762326Y-130365302D01*
X140584359Y-130291586D01*
X140395431Y-130254006D01*
X140202801Y-130254006D01*
X140013873Y-130291586D01*
X139835906Y-130365302D01*
X139675741Y-130472321D01*
X139539531Y-130608531D01*
X139432512Y-130768696D01*
X139358796Y-130946663D01*
X139321216Y-131135591D01*
X124954050Y-131135591D01*
X124954050Y-80742089D01*
X124954227Y-80740176D01*
X124954050Y-80710127D01*
X124954050Y-80679781D01*
X124953860Y-80677851D01*
X124952965Y-80525928D01*
X124951225Y-80509270D01*
X124932580Y-80182919D01*
X124925480Y-80137423D01*
X124920876Y-80091621D01*
X124919019Y-80082680D01*
X124795890Y-79510276D01*
X124777816Y-79453779D01*
X124760555Y-79397108D01*
X124756996Y-79388698D01*
X124525032Y-78851112D01*
X124496321Y-78799186D01*
X124468389Y-78746962D01*
X124463269Y-78739411D01*
X124463265Y-78739403D01*
X124463260Y-78739397D01*
X124227872Y-78397413D01*
X124790192Y-78397413D01*
X124885956Y-78661814D01*
X125175571Y-78802704D01*
X125487108Y-78884384D01*
X125808595Y-78903718D01*
X126127675Y-78859961D01*
X126432088Y-78754795D01*
X126606044Y-78661814D01*
X126701808Y-78397413D01*
X125746000Y-77441605D01*
X124790192Y-78397413D01*
X124227872Y-78397413D01*
X124131300Y-78257110D01*
X124093062Y-78211765D01*
X124055506Y-78165945D01*
X124049017Y-78159532D01*
X124049012Y-78159526D01*
X124049006Y-78159522D01*
X123629690Y-77750896D01*
X123583365Y-77713835D01*
X123537634Y-77676191D01*
X123530024Y-77671162D01*
X123530014Y-77671154D01*
X123530004Y-77671149D01*
X123231729Y-77477000D01*
X123402260Y-77477000D01*
X123689158Y-77419932D01*
X123959411Y-77307990D01*
X124111388Y-77206443D01*
X124104282Y-77324595D01*
X124148039Y-77643675D01*
X124253205Y-77948088D01*
X124346186Y-78122044D01*
X124610587Y-78217808D01*
X125566395Y-77262000D01*
X125925605Y-77262000D01*
X126881413Y-78217808D01*
X127145814Y-78122044D01*
X127286704Y-77832429D01*
X127368384Y-77520892D01*
X127387718Y-77199405D01*
X127343961Y-76880325D01*
X127238795Y-76575912D01*
X127145814Y-76401956D01*
X126881413Y-76306192D01*
X125925605Y-77262000D01*
X125566395Y-77262000D01*
X125552253Y-77247858D01*
X125731858Y-77068253D01*
X125746000Y-77082395D01*
X126701808Y-76126587D01*
X126606044Y-75862186D01*
X126316429Y-75721296D01*
X126004892Y-75639616D01*
X125683405Y-75620282D01*
X125364325Y-75664039D01*
X125059912Y-75769205D01*
X124885956Y-75862186D01*
X124790193Y-76126585D01*
X124741000Y-76077392D01*
X124741000Y-75845740D01*
X124683932Y-75558842D01*
X124571990Y-75288589D01*
X124409475Y-75045368D01*
X124202632Y-74838525D01*
X123959411Y-74676010D01*
X123689158Y-74564068D01*
X123402260Y-74507000D01*
X123109740Y-74507000D01*
X122822842Y-74564068D01*
X122552589Y-74676010D01*
X122309368Y-74838525D01*
X122102525Y-75045368D01*
X121953166Y-75268900D01*
X121953166Y-72540397D01*
X122407208Y-72540397D01*
X122484843Y-72789472D01*
X122748883Y-72915371D01*
X123032411Y-72987339D01*
X123324531Y-73002611D01*
X123614019Y-72960599D01*
X123889747Y-72862919D01*
X124027157Y-72789472D01*
X124104792Y-72540397D01*
X123256000Y-71691605D01*
X122407208Y-72540397D01*
X121953166Y-72540397D01*
X121953166Y-72235708D01*
X121978528Y-72283157D01*
X122227603Y-72360792D01*
X123076395Y-71512000D01*
X123062253Y-71497858D01*
X123241858Y-71318253D01*
X123256000Y-71332395D01*
X123270143Y-71318253D01*
X123449748Y-71497858D01*
X123435605Y-71512000D01*
X124284397Y-72360792D01*
X124533472Y-72283157D01*
X124659371Y-72019117D01*
X124731339Y-71735589D01*
X124746611Y-71443469D01*
X124743763Y-71423845D01*
X124790193Y-71377415D01*
X124885956Y-71641814D01*
X125175571Y-71782704D01*
X125487108Y-71864384D01*
X125808595Y-71883718D01*
X126127675Y-71839961D01*
X126432088Y-71734795D01*
X126606044Y-71641814D01*
X126701808Y-71377413D01*
X125746000Y-70421605D01*
X125731858Y-70435748D01*
X125552253Y-70256143D01*
X125566395Y-70242000D01*
X125925605Y-70242000D01*
X126881413Y-71197808D01*
X127145814Y-71102044D01*
X127286704Y-70812429D01*
X127368384Y-70500892D01*
X127387718Y-70179405D01*
X127343961Y-69860325D01*
X127238795Y-69555912D01*
X127145814Y-69381956D01*
X126881413Y-69286192D01*
X125925605Y-70242000D01*
X125566395Y-70242000D01*
X124610587Y-69286192D01*
X124346186Y-69381956D01*
X124205296Y-69671571D01*
X124123616Y-69983108D01*
X124104282Y-70304595D01*
X124125931Y-70462461D01*
X124104791Y-70483601D01*
X124027157Y-70234528D01*
X123763117Y-70108629D01*
X123479589Y-70036661D01*
X123247691Y-70024537D01*
X123287039Y-70003262D01*
X123336209Y-69970097D01*
X123385788Y-69937653D01*
X123392865Y-69931882D01*
X123843801Y-69558835D01*
X123885593Y-69516750D01*
X123927925Y-69475296D01*
X123933747Y-69468260D01*
X124228719Y-69106587D01*
X124790192Y-69106587D01*
X125746000Y-70062395D01*
X126701808Y-69106587D01*
X126606044Y-68842186D01*
X126316429Y-68701296D01*
X126004892Y-68619616D01*
X125683405Y-68600282D01*
X125364325Y-68644039D01*
X125059912Y-68749205D01*
X124885956Y-68842186D01*
X124790192Y-69106587D01*
X124228719Y-69106587D01*
X124303635Y-69014731D01*
X124336448Y-68965344D01*
X124369932Y-68916442D01*
X124374274Y-68908411D01*
X124374275Y-68908410D01*
X124374277Y-68908406D01*
X124649028Y-68391672D01*
X124671626Y-68336847D01*
X124694970Y-68282381D01*
X124697671Y-68273657D01*
X124866825Y-67713395D01*
X124878348Y-67655199D01*
X124890664Y-67597259D01*
X124891619Y-67588177D01*
X124947841Y-67014771D01*
X124950718Y-66992006D01*
X124953167Y-66902998D01*
X124954050Y-66894031D01*
X124954050Y-66870899D01*
X124954686Y-66847782D01*
X124954050Y-66838797D01*
X124954050Y-50453740D01*
X129115000Y-50453740D01*
X129115000Y-50746260D01*
X129172068Y-51033158D01*
X129284010Y-51303411D01*
X129446525Y-51546632D01*
X129653368Y-51753475D01*
X129896589Y-51915990D01*
X130166842Y-52027932D01*
X130453740Y-52085000D01*
X130746260Y-52085000D01*
X131033158Y-52027932D01*
X131303411Y-51915990D01*
X131546632Y-51753475D01*
X131753475Y-51546632D01*
X131915990Y-51303411D01*
X132027932Y-51033158D01*
X132085000Y-50746260D01*
X132085000Y-50453740D01*
X132027932Y-50166842D01*
X131915990Y-49896589D01*
X131753475Y-49653368D01*
X131546632Y-49446525D01*
X131303411Y-49284010D01*
X131033158Y-49172068D01*
X130746260Y-49115000D01*
X130453740Y-49115000D01*
X130166842Y-49172068D01*
X129896589Y-49284010D01*
X129653368Y-49446525D01*
X129446525Y-49653368D01*
X129284010Y-49896589D01*
X129172068Y-50166842D01*
X129115000Y-50453740D01*
X124954050Y-50453740D01*
X124954050Y-46031985D01*
X124982760Y-45739182D01*
X125058508Y-45488292D01*
X125181542Y-45256899D01*
X125347177Y-45053810D01*
X125549111Y-44886756D01*
X125779637Y-44762111D01*
X126029990Y-44684614D01*
X126320780Y-44654050D01*
X181768015Y-44654050D01*
X182060818Y-44682760D01*
%TA.AperFunction,Conductor*%
D19*
G36*
X182060818Y-44682760D02*
G01*
X182311708Y-44758508D01*
X182543101Y-44881542D01*
X182746190Y-45047177D01*
X182913244Y-45249111D01*
X183037889Y-45479637D01*
X183115386Y-45729990D01*
X183145950Y-46020781D01*
X183145951Y-55967866D01*
X183145950Y-55967876D01*
X183145951Y-67115027D01*
X183145674Y-67120092D01*
X183146131Y-67129213D01*
X183165652Y-67470892D01*
X183172749Y-67516367D01*
X183177355Y-67562190D01*
X183179213Y-67571132D01*
X183302342Y-68143535D01*
X183320416Y-68200032D01*
X183337677Y-68256703D01*
X183341236Y-68265113D01*
X183573200Y-68802700D01*
X183601911Y-68854626D01*
X183629843Y-68906850D01*
X183634963Y-68914401D01*
X183634967Y-68914409D01*
X183634972Y-68914415D01*
X183966932Y-69396702D01*
X184005170Y-69442047D01*
X184042726Y-69487867D01*
X184049221Y-69494287D01*
X184468542Y-69902916D01*
X184514903Y-69940005D01*
X184560599Y-69977621D01*
X184568216Y-69982656D01*
X184568218Y-69982658D01*
X184568221Y-69982659D01*
X184858909Y-70171869D01*
X184811469Y-70169389D01*
X184521981Y-70211401D01*
X184246253Y-70309081D01*
X184108843Y-70382528D01*
X184031209Y-70631601D01*
X184014433Y-70614825D01*
X184031718Y-70327405D01*
X183987961Y-70008325D01*
X183882795Y-69703912D01*
X183789814Y-69529956D01*
X183525413Y-69434192D01*
X182569605Y-70390000D01*
X182583748Y-70404143D01*
X182404143Y-70583748D01*
X182390000Y-70569605D01*
X182375858Y-70583748D01*
X182196253Y-70404143D01*
X182210395Y-70390000D01*
X182196253Y-70375858D01*
X182375858Y-70196253D01*
X182390000Y-70210395D01*
X183345808Y-69254587D01*
X183250044Y-68990186D01*
X182960429Y-68849296D01*
X182648892Y-68767616D01*
X182327405Y-68748282D01*
X182008325Y-68792039D01*
X181736525Y-68885938D01*
X181736525Y-59629784D01*
X181740806Y-59586315D01*
X181736525Y-59542846D01*
X181736525Y-59542838D01*
X181723720Y-59412825D01*
X181673315Y-59246663D01*
X181673114Y-59246001D01*
X181590936Y-59092256D01*
X181508057Y-58991268D01*
X181508055Y-58991266D01*
X181480342Y-58957498D01*
X181446576Y-58929787D01*
X176561041Y-54044253D01*
X176505720Y-53910696D01*
X176398701Y-53750531D01*
X176262491Y-53614321D01*
X176102326Y-53507302D01*
X175968771Y-53451982D01*
X174053650Y-51536862D01*
X174025933Y-51503089D01*
X173891175Y-51392495D01*
X173737429Y-51310317D01*
X173570606Y-51259711D01*
X173440593Y-51246906D01*
X173440585Y-51246906D01*
X173397116Y-51242625D01*
X173353647Y-51246906D01*
X171839395Y-51246906D01*
X171927932Y-51033158D01*
X171985000Y-50746260D01*
X171985000Y-50453740D01*
X176015000Y-50453740D01*
X176015000Y-50746260D01*
X176072068Y-51033158D01*
X176184010Y-51303411D01*
X176346525Y-51546632D01*
X176553368Y-51753475D01*
X176796589Y-51915990D01*
X177066842Y-52027932D01*
X177353740Y-52085000D01*
X177646260Y-52085000D01*
X177933158Y-52027932D01*
X178203411Y-51915990D01*
X178446632Y-51753475D01*
X178653475Y-51546632D01*
X178815990Y-51303411D01*
X178927932Y-51033158D01*
X178985000Y-50746260D01*
X178985000Y-50453740D01*
X178927932Y-50166842D01*
X178815990Y-49896589D01*
X178653475Y-49653368D01*
X178446632Y-49446525D01*
X178203411Y-49284010D01*
X177933158Y-49172068D01*
X177646260Y-49115000D01*
X177353740Y-49115000D01*
X177066842Y-49172068D01*
X176796589Y-49284010D01*
X176553368Y-49446525D01*
X176346525Y-49653368D01*
X176184010Y-49896589D01*
X176072068Y-50166842D01*
X176015000Y-50453740D01*
X171985000Y-50453740D01*
X171927932Y-50166842D01*
X171815990Y-49896589D01*
X171653475Y-49653368D01*
X171446632Y-49446525D01*
X171203411Y-49284010D01*
X170933158Y-49172068D01*
X170646260Y-49115000D01*
X170353740Y-49115000D01*
X170066842Y-49172068D01*
X169796589Y-49284010D01*
X169553368Y-49446525D01*
X169346525Y-49653368D01*
X169184010Y-49896589D01*
X169072068Y-50166842D01*
X169015000Y-50453740D01*
X169015000Y-50746260D01*
X169072068Y-51033158D01*
X169160605Y-51246906D01*
X167042593Y-51246906D01*
X166999116Y-51242624D01*
X166955640Y-51246906D01*
X166955639Y-51246906D01*
X166825626Y-51259711D01*
X166658803Y-51310317D01*
X166505057Y-51392495D01*
X166370299Y-51503089D01*
X166259705Y-51637847D01*
X166177527Y-51791593D01*
X166126921Y-51958416D01*
X166109834Y-52131906D01*
X166114117Y-52175393D01*
X166114116Y-56165327D01*
X165932538Y-56346906D01*
X163290066Y-56346906D01*
X163377504Y-56310688D01*
X163854114Y-55992227D01*
X164259437Y-55586904D01*
X164577898Y-55110294D01*
X164797257Y-54580713D01*
X164909086Y-54018513D01*
X164909086Y-53445299D01*
X164797257Y-52883099D01*
X164577898Y-52353518D01*
X164259437Y-51876908D01*
X163854114Y-51471585D01*
X163377504Y-51153124D01*
X162847923Y-50933765D01*
X162285723Y-50821936D01*
X161712509Y-50821936D01*
X161150309Y-50933765D01*
X160620728Y-51153124D01*
X160144118Y-51471585D01*
X159738795Y-51876908D01*
X159420334Y-52353518D01*
X159200975Y-52883099D01*
X159089146Y-53445299D01*
X159089146Y-54018513D01*
X159200975Y-54580713D01*
X159420334Y-55110294D01*
X159738795Y-55586904D01*
X160144118Y-55992227D01*
X160620728Y-56310688D01*
X160708166Y-56346906D01*
X157645479Y-56346906D01*
X157602013Y-56342625D01*
X157558547Y-56346906D01*
X157558537Y-56346906D01*
X157428524Y-56359711D01*
X157261701Y-56410317D01*
X157107955Y-56492495D01*
X157041534Y-56547006D01*
X154856698Y-56547006D01*
X154790277Y-56492495D01*
X154636531Y-56410317D01*
X154469708Y-56359711D01*
X154339695Y-56346906D01*
X154339687Y-56346906D01*
X154296218Y-56342625D01*
X154252749Y-56346906D01*
X148090066Y-56346906D01*
X148177504Y-56310688D01*
X148654114Y-55992227D01*
X149059437Y-55586904D01*
X149377898Y-55110294D01*
X149597257Y-54580713D01*
X149709086Y-54018513D01*
X149709086Y-53445299D01*
X149597257Y-52883099D01*
X149377898Y-52353518D01*
X149059437Y-51876908D01*
X148718120Y-51535591D01*
X149121216Y-51535591D01*
X149121216Y-51728221D01*
X149158796Y-51917149D01*
X149232512Y-52095116D01*
X149339531Y-52255281D01*
X149475741Y-52391491D01*
X149635906Y-52498510D01*
X149813873Y-52572226D01*
X150002801Y-52609806D01*
X150195431Y-52609806D01*
X150384359Y-52572226D01*
X150562326Y-52498510D01*
X150722491Y-52391491D01*
X150858701Y-52255281D01*
X150965720Y-52095116D01*
X151039436Y-51917149D01*
X151077016Y-51728221D01*
X151077016Y-51535591D01*
X151039436Y-51346663D01*
X150965720Y-51168696D01*
X150858701Y-51008531D01*
X150722491Y-50872321D01*
X150562326Y-50765302D01*
X150384359Y-50691586D01*
X150195431Y-50654006D01*
X150002801Y-50654006D01*
X149813873Y-50691586D01*
X149635906Y-50765302D01*
X149475741Y-50872321D01*
X149339531Y-51008531D01*
X149232512Y-51168696D01*
X149158796Y-51346663D01*
X149121216Y-51535591D01*
X148718120Y-51535591D01*
X148654114Y-51471585D01*
X148177504Y-51153124D01*
X147647923Y-50933765D01*
X147085723Y-50821936D01*
X146512509Y-50821936D01*
X145950309Y-50933765D01*
X145420728Y-51153124D01*
X144944118Y-51471585D01*
X144538795Y-51876908D01*
X144220334Y-52353518D01*
X144000975Y-52883099D01*
X143889146Y-53445299D01*
X143889146Y-54018513D01*
X144000975Y-54580713D01*
X144220334Y-55110294D01*
X144538795Y-55586904D01*
X144944118Y-55992227D01*
X145420728Y-56310688D01*
X145508166Y-56346906D01*
X142265695Y-56346906D01*
X137961062Y-52042273D01*
X138033158Y-52027932D01*
X138303411Y-51915990D01*
X138546632Y-51753475D01*
X138753475Y-51546632D01*
X138915990Y-51303411D01*
X139027932Y-51033158D01*
X139085000Y-50746260D01*
X139085000Y-50453740D01*
X139027932Y-50166842D01*
X138915990Y-49896589D01*
X138753475Y-49653368D01*
X138546632Y-49446525D01*
X138303411Y-49284010D01*
X138033158Y-49172068D01*
X137746260Y-49115000D01*
X137453740Y-49115000D01*
X137166842Y-49172068D01*
X136896589Y-49284010D01*
X136653368Y-49446525D01*
X136446525Y-49653368D01*
X136284010Y-49896589D01*
X136172068Y-50166842D01*
X136157727Y-50238939D01*
X134854379Y-48935591D01*
X150921216Y-48935591D01*
X150921216Y-49128221D01*
X150958796Y-49317149D01*
X151027040Y-49481906D01*
X150958796Y-49646663D01*
X150921216Y-49835591D01*
X150921216Y-50028221D01*
X150958796Y-50217149D01*
X151027040Y-50381906D01*
X150958796Y-50546663D01*
X150921216Y-50735591D01*
X150921216Y-50928221D01*
X150958796Y-51117149D01*
X151032512Y-51295116D01*
X151139531Y-51455281D01*
X151275741Y-51591491D01*
X151435906Y-51698510D01*
X151613873Y-51772226D01*
X151802801Y-51809806D01*
X151995431Y-51809806D01*
X152184359Y-51772226D01*
X152362326Y-51698510D01*
X152522491Y-51591491D01*
X152658701Y-51455281D01*
X152765720Y-51295116D01*
X152839436Y-51117149D01*
X152875550Y-50935591D01*
X157421216Y-50935591D01*
X157421216Y-51128221D01*
X157458796Y-51317149D01*
X157532512Y-51495116D01*
X157639531Y-51655281D01*
X157775741Y-51791491D01*
X157935906Y-51898510D01*
X158113873Y-51972226D01*
X158302801Y-52009806D01*
X158495431Y-52009806D01*
X158684359Y-51972226D01*
X158862326Y-51898510D01*
X159022491Y-51791491D01*
X159158701Y-51655281D01*
X159265720Y-51495116D01*
X159339436Y-51317149D01*
X159377016Y-51128221D01*
X159377016Y-50935591D01*
X159339436Y-50746663D01*
X159265720Y-50568696D01*
X159158701Y-50408531D01*
X159022491Y-50272321D01*
X158862326Y-50165302D01*
X158684359Y-50091586D01*
X158495431Y-50054006D01*
X158302801Y-50054006D01*
X158113873Y-50091586D01*
X157935906Y-50165302D01*
X157775741Y-50272321D01*
X157639531Y-50408531D01*
X157532512Y-50568696D01*
X157458796Y-50746663D01*
X157421216Y-50935591D01*
X152875550Y-50935591D01*
X152877016Y-50928221D01*
X152877016Y-50735591D01*
X152839436Y-50546663D01*
X152771192Y-50381906D01*
X152839436Y-50217149D01*
X152877016Y-50028221D01*
X152877016Y-49835591D01*
X152839436Y-49646663D01*
X152771192Y-49481906D01*
X152839436Y-49317149D01*
X152877016Y-49128221D01*
X152877016Y-48935591D01*
X152839436Y-48746663D01*
X152765720Y-48568696D01*
X152658701Y-48408531D01*
X152522491Y-48272321D01*
X152362326Y-48165302D01*
X152184359Y-48091586D01*
X151995431Y-48054006D01*
X151802801Y-48054006D01*
X151613873Y-48091586D01*
X151435906Y-48165302D01*
X151275741Y-48272321D01*
X151139531Y-48408531D01*
X151032512Y-48568696D01*
X150958796Y-48746663D01*
X150921216Y-48935591D01*
X134854379Y-48935591D01*
X133344116Y-47425328D01*
X133344116Y-47135591D01*
X155321216Y-47135591D01*
X155321216Y-47328221D01*
X155358796Y-47517149D01*
X155432512Y-47695116D01*
X155539531Y-47855281D01*
X155675741Y-47991491D01*
X155835906Y-48098510D01*
X156013873Y-48172226D01*
X156202801Y-48209806D01*
X156395431Y-48209806D01*
X156584359Y-48172226D01*
X156762326Y-48098510D01*
X156922491Y-47991491D01*
X157058701Y-47855281D01*
X157165720Y-47695116D01*
X157239436Y-47517149D01*
X157277016Y-47328221D01*
X157277016Y-47135591D01*
X157239436Y-46946663D01*
X157165720Y-46768696D01*
X157058701Y-46608531D01*
X156922491Y-46472321D01*
X156762326Y-46365302D01*
X156584359Y-46291586D01*
X156395431Y-46254006D01*
X156202801Y-46254006D01*
X156013873Y-46291586D01*
X155835906Y-46365302D01*
X155675741Y-46472321D01*
X155539531Y-46608531D01*
X155432512Y-46768696D01*
X155358796Y-46946663D01*
X155321216Y-47135591D01*
X133344116Y-47135591D01*
X133344116Y-46918704D01*
X133399436Y-46785149D01*
X133437016Y-46596221D01*
X133437016Y-46403591D01*
X133399436Y-46214663D01*
X133325720Y-46036696D01*
X133218701Y-45876531D01*
X133082491Y-45740321D01*
X132922326Y-45633302D01*
X132744359Y-45559586D01*
X132555431Y-45522006D01*
X132362801Y-45522006D01*
X132173873Y-45559586D01*
X131995906Y-45633302D01*
X131835741Y-45740321D01*
X131699531Y-45876531D01*
X131592512Y-46036696D01*
X131518796Y-46214663D01*
X131481216Y-46403591D01*
X131481216Y-46596221D01*
X131518796Y-46785149D01*
X131574116Y-46918705D01*
X131574117Y-47748428D01*
X131569835Y-47791906D01*
X131586921Y-47965396D01*
X131637528Y-48132219D01*
X131719706Y-48285965D01*
X131802584Y-48386952D01*
X131802587Y-48386955D01*
X131830300Y-48420723D01*
X131864068Y-48448436D01*
X139327931Y-55912300D01*
X139253918Y-55942957D01*
X139093753Y-56049976D01*
X138957543Y-56186186D01*
X138850524Y-56346351D01*
X138776808Y-56524318D01*
X138739228Y-56713246D01*
X138739228Y-56905876D01*
X138776808Y-57094804D01*
X138850524Y-57272771D01*
X138957543Y-57432936D01*
X139093753Y-57569146D01*
X139253918Y-57676165D01*
X139387475Y-57731486D01*
X139403495Y-57747506D01*
X140380455Y-58724467D01*
X140408168Y-58758235D01*
X140441936Y-58785948D01*
X140441938Y-58785950D01*
X140487971Y-58823728D01*
X140542926Y-58868829D01*
X140696672Y-58951007D01*
X140863495Y-59001613D01*
X140993508Y-59014418D01*
X140993518Y-59014418D01*
X141036984Y-59018699D01*
X141080450Y-59014418D01*
X144868779Y-59014418D01*
X144832512Y-59068696D01*
X144758796Y-59246663D01*
X144721216Y-59435591D01*
X144721216Y-59628221D01*
X144758796Y-59817149D01*
X144832512Y-59995116D01*
X144939531Y-60155281D01*
X145075741Y-60291491D01*
X145235906Y-60398510D01*
X145413873Y-60472226D01*
X145602801Y-60509806D01*
X145795431Y-60509806D01*
X145984359Y-60472226D01*
X146162326Y-60398510D01*
X146322491Y-60291491D01*
X146448391Y-60165591D01*
X163161216Y-60165591D01*
X163161216Y-60358221D01*
X163198796Y-60547149D01*
X163272512Y-60725116D01*
X163379531Y-60885281D01*
X163515741Y-61021491D01*
X163675906Y-61128510D01*
X163853873Y-61202226D01*
X164042801Y-61239806D01*
X164235431Y-61239806D01*
X164424359Y-61202226D01*
X164602326Y-61128510D01*
X164762491Y-61021491D01*
X164898701Y-60885281D01*
X165005720Y-60725116D01*
X165079436Y-60547149D01*
X165117016Y-60358221D01*
X165117016Y-60165591D01*
X165079436Y-59976663D01*
X165005720Y-59798696D01*
X164898701Y-59638531D01*
X164762491Y-59502321D01*
X164602326Y-59395302D01*
X164424359Y-59321586D01*
X164235431Y-59284006D01*
X164042801Y-59284006D01*
X163853873Y-59321586D01*
X163675906Y-59395302D01*
X163515741Y-59502321D01*
X163379531Y-59638531D01*
X163272512Y-59798696D01*
X163198796Y-59976663D01*
X163161216Y-60165591D01*
X146448391Y-60165591D01*
X146458701Y-60155281D01*
X146565720Y-59995116D01*
X146639436Y-59817149D01*
X146677016Y-59628221D01*
X146677016Y-59435591D01*
X146639436Y-59246663D01*
X146565720Y-59068696D01*
X146529453Y-59014418D01*
X154227754Y-59014418D01*
X154271223Y-59018699D01*
X154314692Y-59014418D01*
X154314700Y-59014418D01*
X154444713Y-59001613D01*
X154551177Y-58969317D01*
X171168077Y-58969317D01*
X174574636Y-62375877D01*
X174472552Y-62528656D01*
X174398836Y-62706623D01*
X174361256Y-62895551D01*
X174361256Y-63088181D01*
X174398836Y-63277109D01*
X174454156Y-63410664D01*
X174454156Y-63433322D01*
X174449874Y-63476799D01*
X174466961Y-63650289D01*
X174517567Y-63817112D01*
X174599745Y-63970858D01*
X174682624Y-64071845D01*
X174710339Y-64105616D01*
X174845097Y-64216210D01*
X174998843Y-64298388D01*
X175165666Y-64348994D01*
X175339156Y-64366081D01*
X175377897Y-64362265D01*
X178009297Y-66993666D01*
X178009296Y-67490508D01*
X177155650Y-66636862D01*
X177127933Y-66603089D01*
X176993175Y-66492495D01*
X176839429Y-66410317D01*
X176672606Y-66359711D01*
X176542593Y-66346906D01*
X176542585Y-66346906D01*
X176499116Y-66342625D01*
X176455647Y-66346906D01*
X138595695Y-66346906D01*
X137362070Y-65113281D01*
X149221216Y-65113281D01*
X149221216Y-65305911D01*
X149258796Y-65494839D01*
X149332512Y-65672806D01*
X149439531Y-65832971D01*
X149575741Y-65969181D01*
X149735906Y-66076200D01*
X149913873Y-66149916D01*
X150102801Y-66187496D01*
X150295431Y-66187496D01*
X150484359Y-66149916D01*
X150662326Y-66076200D01*
X150822491Y-65969181D01*
X150958701Y-65832971D01*
X151065720Y-65672806D01*
X151139436Y-65494839D01*
X151177016Y-65305911D01*
X151177016Y-65135591D01*
X158221216Y-65135591D01*
X158221216Y-65328221D01*
X158258796Y-65517149D01*
X158332512Y-65695116D01*
X158439531Y-65855281D01*
X158575741Y-65991491D01*
X158735906Y-66098510D01*
X158913873Y-66172226D01*
X159102801Y-66209806D01*
X159295431Y-66209806D01*
X159484359Y-66172226D01*
X159662326Y-66098510D01*
X159822491Y-65991491D01*
X159958701Y-65855281D01*
X160065720Y-65695116D01*
X160139436Y-65517149D01*
X160177016Y-65328221D01*
X160177016Y-65135591D01*
X160139436Y-64946663D01*
X160065720Y-64768696D01*
X159958701Y-64608531D01*
X159822491Y-64472321D01*
X159662326Y-64365302D01*
X159484359Y-64291586D01*
X159295431Y-64254006D01*
X159102801Y-64254006D01*
X158913873Y-64291586D01*
X158735906Y-64365302D01*
X158575741Y-64472321D01*
X158439531Y-64608531D01*
X158332512Y-64768696D01*
X158258796Y-64946663D01*
X158221216Y-65135591D01*
X151177016Y-65135591D01*
X151177016Y-65113281D01*
X151139436Y-64924353D01*
X151065720Y-64746386D01*
X150958701Y-64586221D01*
X150822491Y-64450011D01*
X150662326Y-64342992D01*
X150484359Y-64269276D01*
X150295431Y-64231696D01*
X150102801Y-64231696D01*
X149913873Y-64269276D01*
X149735906Y-64342992D01*
X149575741Y-64450011D01*
X149439531Y-64586221D01*
X149332512Y-64746386D01*
X149258796Y-64924353D01*
X149221216Y-65113281D01*
X137362070Y-65113281D01*
X133711041Y-61462253D01*
X133655720Y-61328696D01*
X133548701Y-61168531D01*
X133412491Y-61032321D01*
X133252326Y-60925302D01*
X133074359Y-60851586D01*
X132885431Y-60814006D01*
X132692801Y-60814006D01*
X132503873Y-60851586D01*
X132325906Y-60925302D01*
X132165741Y-61032321D01*
X132029531Y-61168531D01*
X131922512Y-61328696D01*
X131848796Y-61506663D01*
X131811216Y-61695591D01*
X131811216Y-61888221D01*
X131848796Y-62077149D01*
X131922512Y-62255116D01*
X132029531Y-62415281D01*
X132165741Y-62551491D01*
X132325906Y-62658510D01*
X132459463Y-62713831D01*
X137572586Y-67826955D01*
X137600299Y-67860723D01*
X137634067Y-67888436D01*
X137634069Y-67888438D01*
X137672738Y-67920173D01*
X137735057Y-67971317D01*
X137888803Y-68053495D01*
X138055626Y-68104101D01*
X138185639Y-68116906D01*
X138185647Y-68116906D01*
X138229116Y-68121187D01*
X138272585Y-68116906D01*
X176132538Y-68116906D01*
X176449245Y-68433613D01*
X176377510Y-68411955D01*
X176319343Y-68400437D01*
X176261376Y-68388116D01*
X176252303Y-68387163D01*
X176252293Y-68387161D01*
X176252284Y-68387161D01*
X175863825Y-68349072D01*
X175863824Y-68349072D01*
X175832125Y-68345950D01*
X132267875Y-68345950D01*
X132239165Y-68348778D01*
X132226758Y-68348691D01*
X132217669Y-68349582D01*
X131829477Y-68390383D01*
X131771380Y-68402309D01*
X131713179Y-68413411D01*
X131704436Y-68416050D01*
X131331561Y-68531474D01*
X131276892Y-68554455D01*
X131221951Y-68576652D01*
X131213892Y-68580938D01*
X131213887Y-68580940D01*
X131213883Y-68580943D01*
X130870532Y-68766591D01*
X130821355Y-68799761D01*
X130771783Y-68832200D01*
X130764715Y-68837964D01*
X130764707Y-68837970D01*
X130764700Y-68837977D01*
X130463951Y-69086778D01*
X130422157Y-69128865D01*
X130379828Y-69170317D01*
X130374007Y-69177353D01*
X130127306Y-69479838D01*
X130094483Y-69529240D01*
X130061010Y-69578126D01*
X130056666Y-69586159D01*
X129873417Y-69930800D01*
X129850806Y-69985657D01*
X129827474Y-70040095D01*
X129824775Y-70048811D01*
X129824773Y-70048817D01*
X129824773Y-70048819D01*
X129711955Y-70422490D01*
X129700437Y-70480657D01*
X129688116Y-70538624D01*
X129687163Y-70547697D01*
X129687161Y-70547707D01*
X129687161Y-70547716D01*
X129649072Y-70936175D01*
X129645950Y-70967876D01*
X129645951Y-91032125D01*
X129648778Y-91060825D01*
X129648691Y-91073242D01*
X129649582Y-91082330D01*
X129690383Y-91470523D01*
X129702309Y-91528620D01*
X129713411Y-91586821D01*
X129716050Y-91595564D01*
X129831474Y-91968438D01*
X129854475Y-92023155D01*
X129876653Y-92078049D01*
X129880935Y-92086104D01*
X129880939Y-92086113D01*
X129880944Y-92086120D01*
X130066591Y-92429468D01*
X130099761Y-92478645D01*
X130132200Y-92528217D01*
X130137971Y-92535294D01*
X130386778Y-92836049D01*
X130428882Y-92877859D01*
X130470317Y-92920172D01*
X130477353Y-92925993D01*
X130779838Y-93172694D01*
X130829237Y-93205515D01*
X130878125Y-93238990D01*
X130886150Y-93243329D01*
X130886158Y-93243334D01*
X130886166Y-93243337D01*
X131230800Y-93426583D01*
X131285643Y-93449188D01*
X131340094Y-93472526D01*
X131348810Y-93475225D01*
X131348816Y-93475227D01*
X131348822Y-93475228D01*
X131722490Y-93588045D01*
X131780657Y-93599563D01*
X131838624Y-93611884D01*
X131847697Y-93612837D01*
X131847707Y-93612839D01*
X131847716Y-93612839D01*
X132236176Y-93650928D01*
X132267875Y-93654050D01*
X133463493Y-93654050D01*
X133382708Y-93687512D01*
X133222543Y-93794531D01*
X133086333Y-93930741D01*
X132979314Y-94090906D01*
X132905598Y-94268873D01*
X132868018Y-94457801D01*
X132868018Y-94650431D01*
X132905598Y-94839359D01*
X132979314Y-95017326D01*
X133052867Y-95127405D01*
X132945076Y-95127405D01*
X132756148Y-95164985D01*
X132578181Y-95238701D01*
X132418016Y-95345720D01*
X132285859Y-95477877D01*
X132145833Y-95450024D01*
X131953203Y-95450024D01*
X131764275Y-95487604D01*
X131586308Y-95561320D01*
X131426143Y-95668339D01*
X131289933Y-95804549D01*
X131182914Y-95964714D01*
X131109198Y-96142681D01*
X131071618Y-96331609D01*
X131071618Y-96524239D01*
X131109198Y-96713167D01*
X131182914Y-96891134D01*
X131287519Y-97047686D01*
X131287519Y-97994997D01*
X130244233Y-96951712D01*
X130244173Y-96951409D01*
X130170457Y-96773442D01*
X130063438Y-96613277D01*
X129927228Y-96477067D01*
X129767063Y-96370048D01*
X129589096Y-96296332D01*
X129400168Y-96258752D01*
X129207538Y-96258752D01*
X129018610Y-96296332D01*
X128840643Y-96370048D01*
X128680478Y-96477067D01*
X128544268Y-96613277D01*
X128437249Y-96773442D01*
X128363533Y-96951409D01*
X128325953Y-97140337D01*
X128325953Y-97332967D01*
X128363533Y-97521895D01*
X128437249Y-97699862D01*
X128544268Y-97860027D01*
X128680478Y-97996237D01*
X128840643Y-98103256D01*
X129018610Y-98176972D01*
X129207538Y-98214552D01*
X129351813Y-98214552D01*
X130450264Y-99313004D01*
X130486996Y-99497668D01*
X130560712Y-99675635D01*
X130596563Y-99729289D01*
X130517321Y-99808531D01*
X130410302Y-99968696D01*
X130336586Y-100146663D01*
X130299006Y-100335591D01*
X130299006Y-100528221D01*
X130336586Y-100717149D01*
X130410302Y-100895116D01*
X130517321Y-101055281D01*
X130653531Y-101191491D01*
X130813696Y-101298510D01*
X130991663Y-101372226D01*
X131180591Y-101409806D01*
X131373221Y-101409806D01*
X131562149Y-101372226D01*
X131740116Y-101298510D01*
X131900281Y-101191491D01*
X132036491Y-101055281D01*
X132143510Y-100895116D01*
X132217226Y-100717149D01*
X132253958Y-100532485D01*
X132355521Y-100430921D01*
X132372916Y-100456954D01*
X132509126Y-100593164D01*
X132669291Y-100700183D01*
X132847258Y-100773899D01*
X133036186Y-100811479D01*
X133228816Y-100811479D01*
X133417744Y-100773899D01*
X133595711Y-100700183D01*
X133755876Y-100593164D01*
X133892086Y-100456954D01*
X133922964Y-100410741D01*
X133931894Y-100416708D01*
X134109861Y-100490424D01*
X134298789Y-100528004D01*
X134491419Y-100528004D01*
X134680347Y-100490424D01*
X134858314Y-100416708D01*
X135018479Y-100309689D01*
X135154689Y-100173479D01*
X135261708Y-100013314D01*
X135335424Y-99835347D01*
X135372156Y-99650682D01*
X135906732Y-99116107D01*
X136085451Y-99116107D01*
X136114383Y-99261560D01*
X136188099Y-99439527D01*
X136295118Y-99599692D01*
X136431328Y-99735902D01*
X136591493Y-99842921D01*
X136769460Y-99916637D01*
X136958388Y-99954217D01*
X137151018Y-99954217D01*
X137339946Y-99916637D01*
X137517913Y-99842921D01*
X137678078Y-99735902D01*
X137686435Y-99727545D01*
X137689018Y-99727291D01*
X137832655Y-99683719D01*
X137965032Y-99612962D01*
X138081062Y-99517739D01*
X138104923Y-99488664D01*
X138711468Y-98882119D01*
X138740538Y-98858263D01*
X138778704Y-98811758D01*
X138835761Y-98742234D01*
X138895180Y-98631068D01*
X138906518Y-98609856D01*
X138950090Y-98466219D01*
X138961116Y-98354267D01*
X138961116Y-98354264D01*
X138964802Y-98316841D01*
X138961116Y-98279418D01*
X138961116Y-96923146D01*
X139065720Y-96766595D01*
X139139436Y-96588628D01*
X139177016Y-96399700D01*
X139177016Y-96207070D01*
X139139436Y-96018142D01*
X139065720Y-95840175D01*
X138958701Y-95680010D01*
X138822491Y-95543800D01*
X138662326Y-95436781D01*
X138484359Y-95363065D01*
X138295431Y-95325485D01*
X138147629Y-95325485D01*
X138226818Y-95206970D01*
X138300534Y-95029003D01*
X138338114Y-94840075D01*
X138338114Y-94647445D01*
X138300534Y-94458517D01*
X138226818Y-94280550D01*
X138119799Y-94120385D01*
X137983589Y-93984175D01*
X137823424Y-93877156D01*
X137645457Y-93803440D01*
X137456529Y-93765860D01*
X137263899Y-93765860D01*
X137074971Y-93803440D01*
X136897004Y-93877156D01*
X136811336Y-93934398D01*
X136789999Y-93920141D01*
X136612032Y-93846425D01*
X136423104Y-93808845D01*
X136230474Y-93808845D01*
X136041546Y-93846425D01*
X135863579Y-93920141D01*
X135703414Y-94027160D01*
X135573044Y-94157530D01*
X135550544Y-94103211D01*
X135443525Y-93943046D01*
X135307315Y-93806836D01*
X135147150Y-93699817D01*
X135036658Y-93654050D01*
X175832125Y-93654050D01*
X175860835Y-93651222D01*
X175873242Y-93651309D01*
X175882330Y-93650418D01*
X176270523Y-93609617D01*
X176328620Y-93597691D01*
X176386821Y-93586589D01*
X176395564Y-93583950D01*
X176768438Y-93468526D01*
X176823155Y-93445525D01*
X176878049Y-93423347D01*
X176886104Y-93419065D01*
X176886113Y-93419061D01*
X176886120Y-93419056D01*
X177229468Y-93233409D01*
X177278645Y-93200239D01*
X177328217Y-93167800D01*
X177335294Y-93162029D01*
X177636049Y-92913222D01*
X177677859Y-92871118D01*
X177720172Y-92829683D01*
X177725993Y-92822647D01*
X177972694Y-92520162D01*
X178005515Y-92470763D01*
X178009297Y-92465240D01*
X178009296Y-123356764D01*
X177995431Y-123354006D01*
X177802801Y-123354006D01*
X177613873Y-123391586D01*
X177480318Y-123446906D01*
X177457652Y-123446906D01*
X177414183Y-123442625D01*
X177370714Y-123446906D01*
X177370706Y-123446906D01*
X177240693Y-123459711D01*
X177073870Y-123510317D01*
X176920124Y-123592495D01*
X176853825Y-123646906D01*
X146642581Y-123646906D01*
X146599115Y-123642625D01*
X146555649Y-123646906D01*
X146555639Y-123646906D01*
X146425626Y-123659711D01*
X146258803Y-123710317D01*
X146105057Y-123792495D01*
X146105055Y-123792496D01*
X146105056Y-123792496D01*
X146004069Y-123875374D01*
X146004067Y-123875376D01*
X145970299Y-123903089D01*
X145942586Y-123936857D01*
X143785368Y-126094076D01*
X143751601Y-126121788D01*
X143723888Y-126155556D01*
X143723885Y-126155559D01*
X143641007Y-126256546D01*
X143558829Y-126410292D01*
X143508222Y-126577115D01*
X143491136Y-126750605D01*
X143495418Y-126794084D01*
X143495418Y-134762635D01*
X143349873Y-134791586D01*
X143171906Y-134865302D01*
X143011741Y-134972321D01*
X142875531Y-135108531D01*
X142768512Y-135268696D01*
X142694796Y-135446663D01*
X142657216Y-135635591D01*
X142657216Y-135828221D01*
X142694796Y-136017149D01*
X142768512Y-136195116D01*
X142875531Y-136355281D01*
X143011741Y-136491491D01*
X143171906Y-136598510D01*
X143349873Y-136672226D01*
X143495418Y-136701177D01*
X143495417Y-144618125D01*
X143349873Y-144647075D01*
X143171906Y-144720791D01*
X143011741Y-144827810D01*
X142875531Y-144964020D01*
X142768512Y-145124185D01*
X142694796Y-145302152D01*
X142657216Y-145491080D01*
X142657216Y-145683710D01*
X142694796Y-145872638D01*
X142768512Y-146050605D01*
X142875531Y-146210770D01*
X143011741Y-146346980D01*
X143171906Y-146453999D01*
X143349873Y-146527715D01*
X143495417Y-146556665D01*
X143495417Y-155076948D01*
X143491136Y-155120417D01*
X143495417Y-155163886D01*
X143495417Y-155163893D01*
X143506629Y-155277731D01*
X143508222Y-155293907D01*
X143513021Y-155309727D01*
X143558828Y-155460729D01*
X143641006Y-155614475D01*
X143751600Y-155749234D01*
X143785373Y-155776951D01*
X145001983Y-156993561D01*
X144995000Y-157028665D01*
X144995000Y-157311335D01*
X145050147Y-157588574D01*
X145158320Y-157849727D01*
X145315363Y-158084759D01*
X145515241Y-158284637D01*
X145747759Y-158440000D01*
X145515241Y-158595363D01*
X145315363Y-158795241D01*
X145158320Y-159030273D01*
X145050147Y-159291426D01*
X144995000Y-159568665D01*
X144995000Y-159851335D01*
X145050147Y-160128574D01*
X145158320Y-160389727D01*
X145315363Y-160624759D01*
X145515241Y-160824637D01*
X145750273Y-160981680D01*
X145927554Y-161055112D01*
X138211977Y-165108273D01*
X138477898Y-164710294D01*
X138697257Y-164180713D01*
X138809086Y-163618513D01*
X138809086Y-163045299D01*
X138697257Y-162483099D01*
X138477898Y-161953518D01*
X138159437Y-161476908D01*
X137754114Y-161071585D01*
X137277504Y-160753124D01*
X136747923Y-160533765D01*
X136185723Y-160421936D01*
X135612509Y-160421936D01*
X135050309Y-160533765D01*
X134520728Y-160753124D01*
X134044118Y-161071585D01*
X133638795Y-161476908D01*
X133320334Y-161953518D01*
X133100975Y-162483099D01*
X132989146Y-163045299D01*
X132989146Y-163618513D01*
X133100975Y-164180713D01*
X133320334Y-164710294D01*
X133500694Y-164980221D01*
X125493682Y-160106389D01*
X125300115Y-159929205D01*
X125144854Y-159718075D01*
X125033559Y-159480811D01*
X124968481Y-159218435D01*
X124954050Y-159020258D01*
X124954050Y-155735591D01*
X134021216Y-155735591D01*
X134021216Y-155928221D01*
X134058796Y-156117149D01*
X134132512Y-156295116D01*
X134239531Y-156455281D01*
X134375741Y-156591491D01*
X134535906Y-156698510D01*
X134713873Y-156772226D01*
X134902801Y-156809806D01*
X135095431Y-156809806D01*
X135284359Y-156772226D01*
X135462326Y-156698510D01*
X135622491Y-156591491D01*
X135758701Y-156455281D01*
X135865720Y-156295116D01*
X135939436Y-156117149D01*
X135977016Y-155928221D01*
X135977016Y-155735591D01*
X135939436Y-155546663D01*
X135865720Y-155368696D01*
X135758701Y-155208531D01*
X135622491Y-155072321D01*
X135462326Y-154965302D01*
X135284359Y-154891586D01*
X135095431Y-154854006D01*
X134902801Y-154854006D01*
X134713873Y-154891586D01*
X134535906Y-154965302D01*
X134375741Y-155072321D01*
X134239531Y-155208531D01*
X134132512Y-155368696D01*
X134058796Y-155546663D01*
X134021216Y-155735591D01*
X124954050Y-155735591D01*
X124954050Y-142164112D01*
X129821216Y-142164112D01*
X129821216Y-142356742D01*
X129858796Y-142545670D01*
X129932512Y-142723637D01*
X130039531Y-142883802D01*
X130175741Y-143020012D01*
X130335906Y-143127031D01*
X130513873Y-143200747D01*
X130702801Y-143238327D01*
X130895431Y-143238327D01*
X131084359Y-143200747D01*
X131262326Y-143127031D01*
X131422491Y-143020012D01*
X131558701Y-142883802D01*
X131665720Y-142723637D01*
X131739436Y-142545670D01*
X131777016Y-142356742D01*
X131777016Y-142164112D01*
X131739436Y-141975184D01*
X131665720Y-141797217D01*
X131558701Y-141637052D01*
X131422491Y-141500842D01*
X131262326Y-141393823D01*
X131084359Y-141320107D01*
X130895431Y-141282527D01*
X130702801Y-141282527D01*
X130513873Y-141320107D01*
X130335906Y-141393823D01*
X130175741Y-141500842D01*
X130039531Y-141637052D01*
X129932512Y-141797217D01*
X129858796Y-141975184D01*
X129821216Y-142164112D01*
X124954050Y-142164112D01*
X124954050Y-140435591D01*
X128121216Y-140435591D01*
X128121216Y-140628221D01*
X128158796Y-140817149D01*
X128232512Y-140995116D01*
X128339531Y-141155281D01*
X128475741Y-141291491D01*
X128635906Y-141398510D01*
X128813873Y-141472226D01*
X129002801Y-141509806D01*
X129195431Y-141509806D01*
X129384359Y-141472226D01*
X129562326Y-141398510D01*
X129722491Y-141291491D01*
X129858701Y-141155281D01*
X129965720Y-140995116D01*
X130039436Y-140817149D01*
X130077016Y-140628221D01*
X130077016Y-140435591D01*
X130039436Y-140246663D01*
X129965720Y-140068696D01*
X129858701Y-139908531D01*
X129722491Y-139772321D01*
X129562326Y-139665302D01*
X129384359Y-139591586D01*
X129195431Y-139554006D01*
X129002801Y-139554006D01*
X128813873Y-139591586D01*
X128635906Y-139665302D01*
X128475741Y-139772321D01*
X128339531Y-139908531D01*
X128232512Y-140068696D01*
X128158796Y-140246663D01*
X128121216Y-140435591D01*
X124954050Y-140435591D01*
X124954050Y-137135591D01*
X128349737Y-137135591D01*
X128349737Y-137328221D01*
X128387317Y-137517149D01*
X128461033Y-137695116D01*
X128568052Y-137855281D01*
X128704262Y-137991491D01*
X128864427Y-138098510D01*
X129042394Y-138172226D01*
X129231322Y-138209806D01*
X129423952Y-138209806D01*
X129612880Y-138172226D01*
X129790847Y-138098510D01*
X129951012Y-137991491D01*
X130087222Y-137855281D01*
X130090297Y-137850680D01*
X130194874Y-137955257D01*
X130355039Y-138062276D01*
X130533006Y-138135992D01*
X130721934Y-138173572D01*
X130914564Y-138173572D01*
X131103492Y-138135992D01*
X131281459Y-138062276D01*
X131441624Y-137955257D01*
X131577834Y-137819047D01*
X131684853Y-137658882D01*
X131758569Y-137480915D01*
X131796149Y-137291987D01*
X131796149Y-137099357D01*
X131758569Y-136910429D01*
X131684853Y-136732462D01*
X131577834Y-136572297D01*
X131441624Y-136436087D01*
X131281459Y-136329068D01*
X131103492Y-136255352D01*
X130914564Y-136217772D01*
X130721934Y-136217772D01*
X130533006Y-136255352D01*
X130355039Y-136329068D01*
X130194874Y-136436087D01*
X130058664Y-136572297D01*
X130055589Y-136576898D01*
X129951012Y-136472321D01*
X129790847Y-136365302D01*
X129612880Y-136291586D01*
X129423952Y-136254006D01*
X129231322Y-136254006D01*
X129042394Y-136291586D01*
X128864427Y-136365302D01*
X128704262Y-136472321D01*
X128568052Y-136608531D01*
X128461033Y-136768696D01*
X128387317Y-136946663D01*
X128349737Y-137135591D01*
X124954050Y-137135591D01*
X124954050Y-132885646D01*
X132574116Y-132885646D01*
X132574116Y-133178166D01*
X132631184Y-133465064D01*
X132743126Y-133735317D01*
X132905641Y-133978538D01*
X133112484Y-134185381D01*
X133286876Y-134301906D01*
X133112484Y-134418431D01*
X132905641Y-134625274D01*
X132743126Y-134868495D01*
X132631184Y-135138748D01*
X132574116Y-135425646D01*
X132574116Y-135718166D01*
X132631184Y-136005064D01*
X132743126Y-136275317D01*
X132905641Y-136518538D01*
X133112484Y-136725381D01*
X133355705Y-136887896D01*
X133625958Y-136999838D01*
X133912856Y-137056906D01*
X134205376Y-137056906D01*
X134492274Y-136999838D01*
X134762527Y-136887896D01*
X135005748Y-136725381D01*
X135212591Y-136518538D01*
X135329116Y-136344146D01*
X135445641Y-136518538D01*
X135652484Y-136725381D01*
X135895705Y-136887896D01*
X136165958Y-136999838D01*
X136452856Y-137056906D01*
X136745376Y-137056906D01*
X137032274Y-136999838D01*
X137302527Y-136887896D01*
X137545748Y-136725381D01*
X137752591Y-136518538D01*
X137915106Y-136275317D01*
X138027048Y-136005064D01*
X138084116Y-135718166D01*
X138084116Y-135425646D01*
X138027048Y-135138748D01*
X137915106Y-134868495D01*
X137752591Y-134625274D01*
X137620736Y-134493419D01*
X137693296Y-134471408D01*
X137803610Y-134412443D01*
X137900301Y-134333091D01*
X137979653Y-134236400D01*
X138038618Y-134126086D01*
X138074928Y-134006388D01*
X138087188Y-133881906D01*
X138087188Y-132181906D01*
X138074928Y-132057424D01*
X138038618Y-131937726D01*
X137979653Y-131827412D01*
X137900301Y-131730721D01*
X137803610Y-131651369D01*
X137693296Y-131592404D01*
X137573598Y-131556094D01*
X137449116Y-131543834D01*
X135749116Y-131543834D01*
X135624634Y-131556094D01*
X135504936Y-131592404D01*
X135394622Y-131651369D01*
X135297931Y-131730721D01*
X135218579Y-131827412D01*
X135159614Y-131937726D01*
X135137603Y-132010286D01*
X135005748Y-131878431D01*
X134762527Y-131715916D01*
X134492274Y-131603974D01*
X134205376Y-131546906D01*
X133912856Y-131546906D01*
X133625958Y-131603974D01*
X133355705Y-131715916D01*
X133112484Y-131878431D01*
X132905641Y-132085274D01*
X132743126Y-132328495D01*
X132631184Y-132598748D01*
X132574116Y-132885646D01*
X124954050Y-132885646D01*
X124954050Y-131135591D01*
X139321216Y-131135591D01*
X139321216Y-131328221D01*
X139358796Y-131517149D01*
X139432512Y-131695116D01*
X139539531Y-131855281D01*
X139675741Y-131991491D01*
X139835906Y-132098510D01*
X140013873Y-132172226D01*
X140202801Y-132209806D01*
X140395431Y-132209806D01*
X140584359Y-132172226D01*
X140762326Y-132098510D01*
X140922491Y-131991491D01*
X141058701Y-131855281D01*
X141165720Y-131695116D01*
X141239436Y-131517149D01*
X141277016Y-131328221D01*
X141277016Y-131135591D01*
X141239436Y-130946663D01*
X141165720Y-130768696D01*
X141058701Y-130608531D01*
X140922491Y-130472321D01*
X140762326Y-130365302D01*
X140584359Y-130291586D01*
X140395431Y-130254006D01*
X140202801Y-130254006D01*
X140013873Y-130291586D01*
X139835906Y-130365302D01*
X139675741Y-130472321D01*
X139539531Y-130608531D01*
X139432512Y-130768696D01*
X139358796Y-130946663D01*
X139321216Y-131135591D01*
X124954050Y-131135591D01*
X124954050Y-80742089D01*
X124954227Y-80740176D01*
X124954050Y-80710127D01*
X124954050Y-80679781D01*
X124953860Y-80677851D01*
X124952965Y-80525928D01*
X124951225Y-80509270D01*
X124932580Y-80182919D01*
X124925480Y-80137423D01*
X124920876Y-80091621D01*
X124919019Y-80082680D01*
X124795890Y-79510276D01*
X124777816Y-79453779D01*
X124760555Y-79397108D01*
X124756996Y-79388698D01*
X124525032Y-78851112D01*
X124496321Y-78799186D01*
X124468389Y-78746962D01*
X124463269Y-78739411D01*
X124463265Y-78739403D01*
X124463260Y-78739397D01*
X124227872Y-78397413D01*
X124790192Y-78397413D01*
X124885956Y-78661814D01*
X125175571Y-78802704D01*
X125487108Y-78884384D01*
X125808595Y-78903718D01*
X126127675Y-78859961D01*
X126432088Y-78754795D01*
X126606044Y-78661814D01*
X126701808Y-78397413D01*
X125746000Y-77441605D01*
X124790192Y-78397413D01*
X124227872Y-78397413D01*
X124131300Y-78257110D01*
X124093062Y-78211765D01*
X124055506Y-78165945D01*
X124049017Y-78159532D01*
X124049012Y-78159526D01*
X124049006Y-78159522D01*
X123629690Y-77750896D01*
X123583365Y-77713835D01*
X123537634Y-77676191D01*
X123530024Y-77671162D01*
X123530014Y-77671154D01*
X123530004Y-77671149D01*
X123231729Y-77477000D01*
X123402260Y-77477000D01*
X123689158Y-77419932D01*
X123959411Y-77307990D01*
X124111388Y-77206443D01*
X124104282Y-77324595D01*
X124148039Y-77643675D01*
X124253205Y-77948088D01*
X124346186Y-78122044D01*
X124610587Y-78217808D01*
X125566395Y-77262000D01*
X125925605Y-77262000D01*
X126881413Y-78217808D01*
X127145814Y-78122044D01*
X127286704Y-77832429D01*
X127368384Y-77520892D01*
X127387718Y-77199405D01*
X127343961Y-76880325D01*
X127238795Y-76575912D01*
X127145814Y-76401956D01*
X126881413Y-76306192D01*
X125925605Y-77262000D01*
X125566395Y-77262000D01*
X125552253Y-77247858D01*
X125731858Y-77068253D01*
X125746000Y-77082395D01*
X126701808Y-76126587D01*
X126606044Y-75862186D01*
X126316429Y-75721296D01*
X126004892Y-75639616D01*
X125683405Y-75620282D01*
X125364325Y-75664039D01*
X125059912Y-75769205D01*
X124885956Y-75862186D01*
X124790193Y-76126585D01*
X124741000Y-76077392D01*
X124741000Y-75845740D01*
X124683932Y-75558842D01*
X124571990Y-75288589D01*
X124409475Y-75045368D01*
X124202632Y-74838525D01*
X123959411Y-74676010D01*
X123689158Y-74564068D01*
X123402260Y-74507000D01*
X123109740Y-74507000D01*
X122822842Y-74564068D01*
X122552589Y-74676010D01*
X122309368Y-74838525D01*
X122102525Y-75045368D01*
X121953166Y-75268900D01*
X121953166Y-72540397D01*
X122407208Y-72540397D01*
X122484843Y-72789472D01*
X122748883Y-72915371D01*
X123032411Y-72987339D01*
X123324531Y-73002611D01*
X123614019Y-72960599D01*
X123889747Y-72862919D01*
X124027157Y-72789472D01*
X124104792Y-72540397D01*
X123256000Y-71691605D01*
X122407208Y-72540397D01*
X121953166Y-72540397D01*
X121953166Y-72235708D01*
X121978528Y-72283157D01*
X122227603Y-72360792D01*
X123076395Y-71512000D01*
X123062253Y-71497858D01*
X123241858Y-71318253D01*
X123256000Y-71332395D01*
X123270143Y-71318253D01*
X123449748Y-71497858D01*
X123435605Y-71512000D01*
X124284397Y-72360792D01*
X124533472Y-72283157D01*
X124659371Y-72019117D01*
X124731339Y-71735589D01*
X124746611Y-71443469D01*
X124743763Y-71423845D01*
X124790193Y-71377415D01*
X124885956Y-71641814D01*
X125175571Y-71782704D01*
X125487108Y-71864384D01*
X125808595Y-71883718D01*
X126127675Y-71839961D01*
X126432088Y-71734795D01*
X126606044Y-71641814D01*
X126701808Y-71377413D01*
X125746000Y-70421605D01*
X125731858Y-70435748D01*
X125552253Y-70256143D01*
X125566395Y-70242000D01*
X125925605Y-70242000D01*
X126881413Y-71197808D01*
X127145814Y-71102044D01*
X127286704Y-70812429D01*
X127368384Y-70500892D01*
X127387718Y-70179405D01*
X127343961Y-69860325D01*
X127238795Y-69555912D01*
X127145814Y-69381956D01*
X126881413Y-69286192D01*
X125925605Y-70242000D01*
X125566395Y-70242000D01*
X124610587Y-69286192D01*
X124346186Y-69381956D01*
X124205296Y-69671571D01*
X124123616Y-69983108D01*
X124104282Y-70304595D01*
X124125931Y-70462461D01*
X124104791Y-70483601D01*
X124027157Y-70234528D01*
X123763117Y-70108629D01*
X123479589Y-70036661D01*
X123247691Y-70024537D01*
X123287039Y-70003262D01*
X123336209Y-69970097D01*
X123385788Y-69937653D01*
X123392865Y-69931882D01*
X123843801Y-69558835D01*
X123885593Y-69516750D01*
X123927925Y-69475296D01*
X123933747Y-69468260D01*
X124228719Y-69106587D01*
X124790192Y-69106587D01*
X125746000Y-70062395D01*
X126701808Y-69106587D01*
X126606044Y-68842186D01*
X126316429Y-68701296D01*
X126004892Y-68619616D01*
X125683405Y-68600282D01*
X125364325Y-68644039D01*
X125059912Y-68749205D01*
X124885956Y-68842186D01*
X124790192Y-69106587D01*
X124228719Y-69106587D01*
X124303635Y-69014731D01*
X124336448Y-68965344D01*
X124369932Y-68916442D01*
X124374274Y-68908411D01*
X124374275Y-68908410D01*
X124374277Y-68908406D01*
X124649028Y-68391672D01*
X124671626Y-68336847D01*
X124694970Y-68282381D01*
X124697671Y-68273657D01*
X124866825Y-67713395D01*
X124878348Y-67655199D01*
X124890664Y-67597259D01*
X124891619Y-67588177D01*
X124947841Y-67014771D01*
X124950718Y-66992006D01*
X124953167Y-66902998D01*
X124954050Y-66894031D01*
X124954050Y-66870899D01*
X124954686Y-66847782D01*
X124954050Y-66838797D01*
X124954050Y-50453740D01*
X129115000Y-50453740D01*
X129115000Y-50746260D01*
X129172068Y-51033158D01*
X129284010Y-51303411D01*
X129446525Y-51546632D01*
X129653368Y-51753475D01*
X129896589Y-51915990D01*
X130166842Y-52027932D01*
X130453740Y-52085000D01*
X130746260Y-52085000D01*
X131033158Y-52027932D01*
X131303411Y-51915990D01*
X131546632Y-51753475D01*
X131753475Y-51546632D01*
X131915990Y-51303411D01*
X132027932Y-51033158D01*
X132085000Y-50746260D01*
X132085000Y-50453740D01*
X132027932Y-50166842D01*
X131915990Y-49896589D01*
X131753475Y-49653368D01*
X131546632Y-49446525D01*
X131303411Y-49284010D01*
X131033158Y-49172068D01*
X130746260Y-49115000D01*
X130453740Y-49115000D01*
X130166842Y-49172068D01*
X129896589Y-49284010D01*
X129653368Y-49446525D01*
X129446525Y-49653368D01*
X129284010Y-49896589D01*
X129172068Y-50166842D01*
X129115000Y-50453740D01*
X124954050Y-50453740D01*
X124954050Y-46031985D01*
X124982760Y-45739182D01*
X125058508Y-45488292D01*
X125181542Y-45256899D01*
X125347177Y-45053810D01*
X125549111Y-44886756D01*
X125779637Y-44762111D01*
X126029990Y-44684614D01*
X126320780Y-44654050D01*
X181768015Y-44654050D01*
X182060818Y-44682760D01*
G37*
%TD.AperFunction*%
D17*
X182583748Y-77395858D02*
X182569605Y-77410000D01*
X183525413Y-78365808D01*
X183789814Y-78270044D01*
X183930704Y-77980429D01*
X184012384Y-77668892D01*
X184031037Y-77358735D01*
X184176589Y-77455990D01*
X184446842Y-77567932D01*
X184733740Y-77625000D01*
X184858448Y-77625000D01*
X184811192Y-77650551D01*
X184762000Y-77683731D01*
X184712445Y-77716159D01*
X184705373Y-77721926D01*
X184705367Y-77721930D01*
X184705362Y-77721935D01*
X184254431Y-78094976D01*
X184212638Y-78137062D01*
X184170306Y-78178516D01*
X184164485Y-78185553D01*
X183794596Y-78639081D01*
X183761771Y-78688487D01*
X183728300Y-78737370D01*
X183723960Y-78745398D01*
X183723957Y-78745402D01*
X183723957Y-78745403D01*
X183449204Y-79262140D01*
X183426611Y-79316954D01*
X183403262Y-79371431D01*
X183400562Y-79380154D01*
X183231407Y-79940417D01*
X183219884Y-79998613D01*
X183207568Y-80056553D01*
X183206613Y-80065635D01*
X183156010Y-80581725D01*
X183155414Y-80583691D01*
X183145950Y-80679782D01*
X183145951Y-158990896D01*
X183116356Y-159292726D01*
X183040609Y-159543612D01*
X182917574Y-159775007D01*
X182746718Y-159984497D01*
X182611609Y-160102091D01*
X174597537Y-164980222D01*
X174777898Y-164710294D01*
X174997257Y-164180713D01*
X175109086Y-163618513D01*
X175109086Y-163045299D01*
X174997257Y-162483099D01*
X174777898Y-161953518D01*
X174459437Y-161476908D01*
X174054114Y-161071585D01*
X173577504Y-160753124D01*
X173047923Y-160533765D01*
X172485723Y-160421936D01*
X171912509Y-160421936D01*
X171350309Y-160533765D01*
X170820728Y-160753124D01*
X170344118Y-161071585D01*
X169938795Y-161476908D01*
X169620334Y-161953518D01*
X169400975Y-162483099D01*
X169289146Y-163045299D01*
X169289146Y-163618513D01*
X169400975Y-164180713D01*
X169620334Y-164710294D01*
X169886254Y-165108272D01*
X162346228Y-161147333D01*
X162470000Y-161148072D01*
X162594482Y-161135812D01*
X162714180Y-161099502D01*
X162824494Y-161040537D01*
X162921185Y-160961185D01*
X163000537Y-160864494D01*
X163059502Y-160754180D01*
X163095812Y-160634482D01*
X163108072Y-160510000D01*
X163105000Y-159995750D01*
X162946250Y-159837000D01*
X161797000Y-159837000D01*
X161797000Y-159857000D01*
X161543000Y-159857000D01*
X161543000Y-159837000D01*
X161523000Y-159837000D01*
X161523000Y-159583000D01*
X161543000Y-159583000D01*
X161543000Y-159563000D01*
X161797000Y-159563000D01*
X161797000Y-159583000D01*
X162946250Y-159583000D01*
X163105000Y-159424250D01*
X163108072Y-158910000D01*
X163095812Y-158785518D01*
X163059502Y-158665820D01*
X163000537Y-158555506D01*
X162921185Y-158458815D01*
X162824494Y-158379463D01*
X162714180Y-158320498D01*
X162594482Y-158284188D01*
X162586039Y-158283357D01*
X162784637Y-158084759D01*
X162941680Y-157849727D01*
X163049853Y-157588574D01*
X163105000Y-157311335D01*
X163105000Y-157028665D01*
X163049853Y-156751426D01*
X162941680Y-156490273D01*
X162784637Y-156255241D01*
X162584759Y-156055363D01*
X162352241Y-155900000D01*
X162448636Y-155835591D01*
X171821216Y-155835591D01*
X171821216Y-156028221D01*
X171858796Y-156217149D01*
X171932512Y-156395116D01*
X172039531Y-156555281D01*
X172175741Y-156691491D01*
X172335906Y-156798510D01*
X172513873Y-156872226D01*
X172702801Y-156909806D01*
X172895431Y-156909806D01*
X173084359Y-156872226D01*
X173262326Y-156798510D01*
X173422491Y-156691491D01*
X173558701Y-156555281D01*
X173665720Y-156395116D01*
X173739436Y-156217149D01*
X173777016Y-156028221D01*
X173777016Y-155835591D01*
X173739436Y-155646663D01*
X173665720Y-155468696D01*
X173558701Y-155308531D01*
X173422491Y-155172321D01*
X173262326Y-155065302D01*
X173084359Y-154991586D01*
X172895431Y-154954006D01*
X172702801Y-154954006D01*
X172513873Y-154991586D01*
X172335906Y-155065302D01*
X172175741Y-155172321D01*
X172039531Y-155308531D01*
X171932512Y-155468696D01*
X171858796Y-155646663D01*
X171821216Y-155835591D01*
X162448636Y-155835591D01*
X162584759Y-155744637D01*
X162784637Y-155544759D01*
X162941680Y-155309727D01*
X163049853Y-155048574D01*
X163105000Y-154771335D01*
X163105000Y-154488665D01*
X163049853Y-154211426D01*
X162941680Y-153950273D01*
X162784637Y-153715241D01*
X162584759Y-153515363D01*
X162352241Y-153360000D01*
X162584759Y-153204637D01*
X162784637Y-153004759D01*
X162941680Y-152769727D01*
X163049853Y-152508574D01*
X163105000Y-152231335D01*
X163105000Y-151948665D01*
X163049853Y-151671426D01*
X162941680Y-151410273D01*
X162784637Y-151175241D01*
X162584759Y-150975363D01*
X162352241Y-150820000D01*
X162584759Y-150664637D01*
X162784637Y-150464759D01*
X162941680Y-150229727D01*
X163049853Y-149968574D01*
X163105000Y-149691335D01*
X163105000Y-149408665D01*
X163049853Y-149131426D01*
X162941680Y-148870273D01*
X162784637Y-148635241D01*
X162584759Y-148435363D01*
X162352241Y-148280000D01*
X162584759Y-148124637D01*
X162784637Y-147924759D01*
X162941680Y-147689727D01*
X163049853Y-147428574D01*
X163105000Y-147151335D01*
X163105000Y-146868665D01*
X163049853Y-146591426D01*
X162941680Y-146330273D01*
X162784637Y-146095241D01*
X162584759Y-145895363D01*
X162352241Y-145740000D01*
X162584759Y-145584637D01*
X162784637Y-145384759D01*
X162941680Y-145149727D01*
X163049853Y-144888574D01*
X163105000Y-144611335D01*
X163105000Y-144328665D01*
X163049853Y-144051426D01*
X162941680Y-143790273D01*
X162784637Y-143555241D01*
X162584759Y-143355363D01*
X162352241Y-143200000D01*
X162584759Y-143044637D01*
X162784637Y-142844759D01*
X162941680Y-142609727D01*
X163049853Y-142348574D01*
X163105000Y-142071335D01*
X163105000Y-141788665D01*
X163049853Y-141511426D01*
X162941680Y-141250273D01*
X162784637Y-141015241D01*
X162584759Y-140815363D01*
X162352241Y-140660000D01*
X162584759Y-140504637D01*
X162784637Y-140304759D01*
X162941680Y-140069727D01*
X163049853Y-139808574D01*
X163105000Y-139531335D01*
X163105000Y-139248665D01*
X163049853Y-138971426D01*
X162941680Y-138710273D01*
X162784637Y-138475241D01*
X162584759Y-138275363D01*
X162352241Y-138120000D01*
X162584759Y-137964637D01*
X162732490Y-137816906D01*
X166255647Y-137816906D01*
X166299116Y-137821187D01*
X166342585Y-137816906D01*
X166342593Y-137816906D01*
X166472606Y-137804101D01*
X166639429Y-137753495D01*
X166793175Y-137671317D01*
X166927933Y-137560723D01*
X166955650Y-137526950D01*
X166994160Y-137488440D01*
X167027933Y-137460723D01*
X167138527Y-137325965D01*
X167220705Y-137172219D01*
X167271311Y-137005396D01*
X167284116Y-136875383D01*
X167284116Y-136875373D01*
X167288397Y-136831907D01*
X167284116Y-136788441D01*
X167284116Y-130121132D01*
X169888343Y-127516906D01*
X179855647Y-127516906D01*
X179899116Y-127521187D01*
X179942585Y-127516906D01*
X179942593Y-127516906D01*
X180072606Y-127504101D01*
X180239429Y-127453495D01*
X180393175Y-127371317D01*
X180527933Y-127260723D01*
X180555650Y-127226950D01*
X180794158Y-126988442D01*
X180827931Y-126960725D01*
X180938525Y-126825967D01*
X181020703Y-126672221D01*
X181071309Y-126505398D01*
X181084114Y-126375385D01*
X181084114Y-126375375D01*
X181088395Y-126331909D01*
X181084114Y-126288443D01*
X181084114Y-125209806D01*
X181195431Y-125209806D01*
X181384359Y-125172226D01*
X181562326Y-125098510D01*
X181722491Y-124991491D01*
X181858701Y-124855281D01*
X181965720Y-124695116D01*
X182039436Y-124517149D01*
X182077016Y-124328221D01*
X182077016Y-124135591D01*
X182039436Y-123946663D01*
X181965720Y-123768696D01*
X181907536Y-123681618D01*
X181736525Y-122609368D01*
X181736525Y-78910304D01*
X181819571Y-78950704D01*
X182131108Y-79032384D01*
X182452595Y-79051718D01*
X182771675Y-79007961D01*
X183076088Y-78902795D01*
X183250044Y-78809814D01*
X183345808Y-78545413D01*
X182390000Y-77589605D01*
X182375858Y-77603748D01*
X182196253Y-77424143D01*
X182210395Y-77410000D01*
X182196253Y-77395858D01*
X182375858Y-77216253D01*
X182390000Y-77230395D01*
X182404143Y-77216253D01*
X182583748Y-77395858D01*
%TA.AperFunction,Conductor*%
D19*
G36*
X182583748Y-77395858D02*
G01*
X182569605Y-77410000D01*
X183525413Y-78365808D01*
X183789814Y-78270044D01*
X183930704Y-77980429D01*
X184012384Y-77668892D01*
X184031037Y-77358735D01*
X184176589Y-77455990D01*
X184446842Y-77567932D01*
X184733740Y-77625000D01*
X184858448Y-77625000D01*
X184811192Y-77650551D01*
X184762000Y-77683731D01*
X184712445Y-77716159D01*
X184705373Y-77721926D01*
X184705367Y-77721930D01*
X184705362Y-77721935D01*
X184254431Y-78094976D01*
X184212638Y-78137062D01*
X184170306Y-78178516D01*
X184164485Y-78185553D01*
X183794596Y-78639081D01*
X183761771Y-78688487D01*
X183728300Y-78737370D01*
X183723960Y-78745398D01*
X183723957Y-78745402D01*
X183723957Y-78745403D01*
X183449204Y-79262140D01*
X183426611Y-79316954D01*
X183403262Y-79371431D01*
X183400562Y-79380154D01*
X183231407Y-79940417D01*
X183219884Y-79998613D01*
X183207568Y-80056553D01*
X183206613Y-80065635D01*
X183156010Y-80581725D01*
X183155414Y-80583691D01*
X183145950Y-80679782D01*
X183145951Y-158990896D01*
X183116356Y-159292726D01*
X183040609Y-159543612D01*
X182917574Y-159775007D01*
X182746718Y-159984497D01*
X182611609Y-160102091D01*
X174597537Y-164980222D01*
X174777898Y-164710294D01*
X174997257Y-164180713D01*
X175109086Y-163618513D01*
X175109086Y-163045299D01*
X174997257Y-162483099D01*
X174777898Y-161953518D01*
X174459437Y-161476908D01*
X174054114Y-161071585D01*
X173577504Y-160753124D01*
X173047923Y-160533765D01*
X172485723Y-160421936D01*
X171912509Y-160421936D01*
X171350309Y-160533765D01*
X170820728Y-160753124D01*
X170344118Y-161071585D01*
X169938795Y-161476908D01*
X169620334Y-161953518D01*
X169400975Y-162483099D01*
X169289146Y-163045299D01*
X169289146Y-163618513D01*
X169400975Y-164180713D01*
X169620334Y-164710294D01*
X169886254Y-165108272D01*
X162346228Y-161147333D01*
X162470000Y-161148072D01*
X162594482Y-161135812D01*
X162714180Y-161099502D01*
X162824494Y-161040537D01*
X162921185Y-160961185D01*
X163000537Y-160864494D01*
X163059502Y-160754180D01*
X163095812Y-160634482D01*
X163108072Y-160510000D01*
X163105000Y-159995750D01*
X162946250Y-159837000D01*
X161797000Y-159837000D01*
X161797000Y-159857000D01*
X161543000Y-159857000D01*
X161543000Y-159837000D01*
X161523000Y-159837000D01*
X161523000Y-159583000D01*
X161543000Y-159583000D01*
X161543000Y-159563000D01*
X161797000Y-159563000D01*
X161797000Y-159583000D01*
X162946250Y-159583000D01*
X163105000Y-159424250D01*
X163108072Y-158910000D01*
X163095812Y-158785518D01*
X163059502Y-158665820D01*
X163000537Y-158555506D01*
X162921185Y-158458815D01*
X162824494Y-158379463D01*
X162714180Y-158320498D01*
X162594482Y-158284188D01*
X162586039Y-158283357D01*
X162784637Y-158084759D01*
X162941680Y-157849727D01*
X163049853Y-157588574D01*
X163105000Y-157311335D01*
X163105000Y-157028665D01*
X163049853Y-156751426D01*
X162941680Y-156490273D01*
X162784637Y-156255241D01*
X162584759Y-156055363D01*
X162352241Y-155900000D01*
X162448636Y-155835591D01*
X171821216Y-155835591D01*
X171821216Y-156028221D01*
X171858796Y-156217149D01*
X171932512Y-156395116D01*
X172039531Y-156555281D01*
X172175741Y-156691491D01*
X172335906Y-156798510D01*
X172513873Y-156872226D01*
X172702801Y-156909806D01*
X172895431Y-156909806D01*
X173084359Y-156872226D01*
X173262326Y-156798510D01*
X173422491Y-156691491D01*
X173558701Y-156555281D01*
X173665720Y-156395116D01*
X173739436Y-156217149D01*
X173777016Y-156028221D01*
X173777016Y-155835591D01*
X173739436Y-155646663D01*
X173665720Y-155468696D01*
X173558701Y-155308531D01*
X173422491Y-155172321D01*
X173262326Y-155065302D01*
X173084359Y-154991586D01*
X172895431Y-154954006D01*
X172702801Y-154954006D01*
X172513873Y-154991586D01*
X172335906Y-155065302D01*
X172175741Y-155172321D01*
X172039531Y-155308531D01*
X171932512Y-155468696D01*
X171858796Y-155646663D01*
X171821216Y-155835591D01*
X162448636Y-155835591D01*
X162584759Y-155744637D01*
X162784637Y-155544759D01*
X162941680Y-155309727D01*
X163049853Y-155048574D01*
X163105000Y-154771335D01*
X163105000Y-154488665D01*
X163049853Y-154211426D01*
X162941680Y-153950273D01*
X162784637Y-153715241D01*
X162584759Y-153515363D01*
X162352241Y-153360000D01*
X162584759Y-153204637D01*
X162784637Y-153004759D01*
X162941680Y-152769727D01*
X163049853Y-152508574D01*
X163105000Y-152231335D01*
X163105000Y-151948665D01*
X163049853Y-151671426D01*
X162941680Y-151410273D01*
X162784637Y-151175241D01*
X162584759Y-150975363D01*
X162352241Y-150820000D01*
X162584759Y-150664637D01*
X162784637Y-150464759D01*
X162941680Y-150229727D01*
X163049853Y-149968574D01*
X163105000Y-149691335D01*
X163105000Y-149408665D01*
X163049853Y-149131426D01*
X162941680Y-148870273D01*
X162784637Y-148635241D01*
X162584759Y-148435363D01*
X162352241Y-148280000D01*
X162584759Y-148124637D01*
X162784637Y-147924759D01*
X162941680Y-147689727D01*
X163049853Y-147428574D01*
X163105000Y-147151335D01*
X163105000Y-146868665D01*
X163049853Y-146591426D01*
X162941680Y-146330273D01*
X162784637Y-146095241D01*
X162584759Y-145895363D01*
X162352241Y-145740000D01*
X162584759Y-145584637D01*
X162784637Y-145384759D01*
X162941680Y-145149727D01*
X163049853Y-144888574D01*
X163105000Y-144611335D01*
X163105000Y-144328665D01*
X163049853Y-144051426D01*
X162941680Y-143790273D01*
X162784637Y-143555241D01*
X162584759Y-143355363D01*
X162352241Y-143200000D01*
X162584759Y-143044637D01*
X162784637Y-142844759D01*
X162941680Y-142609727D01*
X163049853Y-142348574D01*
X163105000Y-142071335D01*
X163105000Y-141788665D01*
X163049853Y-141511426D01*
X162941680Y-141250273D01*
X162784637Y-141015241D01*
X162584759Y-140815363D01*
X162352241Y-140660000D01*
X162584759Y-140504637D01*
X162784637Y-140304759D01*
X162941680Y-140069727D01*
X163049853Y-139808574D01*
X163105000Y-139531335D01*
X163105000Y-139248665D01*
X163049853Y-138971426D01*
X162941680Y-138710273D01*
X162784637Y-138475241D01*
X162584759Y-138275363D01*
X162352241Y-138120000D01*
X162584759Y-137964637D01*
X162732490Y-137816906D01*
X166255647Y-137816906D01*
X166299116Y-137821187D01*
X166342585Y-137816906D01*
X166342593Y-137816906D01*
X166472606Y-137804101D01*
X166639429Y-137753495D01*
X166793175Y-137671317D01*
X166927933Y-137560723D01*
X166955650Y-137526950D01*
X166994160Y-137488440D01*
X167027933Y-137460723D01*
X167138527Y-137325965D01*
X167220705Y-137172219D01*
X167271311Y-137005396D01*
X167284116Y-136875383D01*
X167284116Y-136875373D01*
X167288397Y-136831907D01*
X167284116Y-136788441D01*
X167284116Y-130121132D01*
X169888343Y-127516906D01*
X179855647Y-127516906D01*
X179899116Y-127521187D01*
X179942585Y-127516906D01*
X179942593Y-127516906D01*
X180072606Y-127504101D01*
X180239429Y-127453495D01*
X180393175Y-127371317D01*
X180527933Y-127260723D01*
X180555650Y-127226950D01*
X180794158Y-126988442D01*
X180827931Y-126960725D01*
X180938525Y-126825967D01*
X181020703Y-126672221D01*
X181071309Y-126505398D01*
X181084114Y-126375385D01*
X181084114Y-126375375D01*
X181088395Y-126331909D01*
X181084114Y-126288443D01*
X181084114Y-125209806D01*
X181195431Y-125209806D01*
X181384359Y-125172226D01*
X181562326Y-125098510D01*
X181722491Y-124991491D01*
X181858701Y-124855281D01*
X181965720Y-124695116D01*
X182039436Y-124517149D01*
X182077016Y-124328221D01*
X182077016Y-124135591D01*
X182039436Y-123946663D01*
X181965720Y-123768696D01*
X181907536Y-123681618D01*
X181736525Y-122609368D01*
X181736525Y-78910304D01*
X181819571Y-78950704D01*
X182131108Y-79032384D01*
X182452595Y-79051718D01*
X182771675Y-79007961D01*
X183076088Y-78902795D01*
X183250044Y-78809814D01*
X183345808Y-78545413D01*
X182390000Y-77589605D01*
X182375858Y-77603748D01*
X182196253Y-77424143D01*
X182210395Y-77410000D01*
X182196253Y-77395858D01*
X182375858Y-77216253D01*
X182390000Y-77230395D01*
X182404143Y-77216253D01*
X182583748Y-77395858D01*
G37*
%TD.AperFunction*%
D17*
X185073748Y-71645858D02*
X185059605Y-71660000D01*
X185908397Y-72508792D01*
X186145066Y-72435024D01*
X186145067Y-75360377D01*
X186033475Y-75193368D01*
X185826632Y-74986525D01*
X185583411Y-74824010D01*
X185313158Y-74712068D01*
X185026260Y-74655000D01*
X184733740Y-74655000D01*
X184446842Y-74712068D01*
X184176589Y-74824010D01*
X183933368Y-74986525D01*
X183726525Y-75193368D01*
X183564010Y-75436589D01*
X183452068Y-75706842D01*
X183395000Y-75993740D01*
X183395000Y-76225392D01*
X183345807Y-76274585D01*
X183250044Y-76010186D01*
X182960429Y-75869296D01*
X182648892Y-75787616D01*
X182327405Y-75768282D01*
X182008325Y-75812039D01*
X181736525Y-75905938D01*
X181736525Y-72688397D01*
X184031208Y-72688397D01*
X184108843Y-72937472D01*
X184372883Y-73063371D01*
X184656411Y-73135339D01*
X184948531Y-73150611D01*
X185238019Y-73108599D01*
X185513747Y-73010919D01*
X185651157Y-72937472D01*
X185728792Y-72688397D01*
X184880000Y-71839605D01*
X184031208Y-72688397D01*
X181736525Y-72688397D01*
X181736525Y-71890304D01*
X181819571Y-71930704D01*
X182131108Y-72012384D01*
X182452595Y-72031718D01*
X182771675Y-71987961D01*
X183076088Y-71882795D01*
X183250044Y-71789814D01*
X183345807Y-71525415D01*
X183397315Y-71576923D01*
X183389389Y-71728531D01*
X183431401Y-72018019D01*
X183529081Y-72293747D01*
X183602528Y-72431157D01*
X183851603Y-72508792D01*
X184700395Y-71660000D01*
X184686253Y-71645858D01*
X184865858Y-71466253D01*
X184880000Y-71480395D01*
X184894143Y-71466253D01*
X185073748Y-71645858D01*
%TA.AperFunction,Conductor*%
D19*
G36*
X185073748Y-71645858D02*
G01*
X185059605Y-71660000D01*
X185908397Y-72508792D01*
X186145066Y-72435024D01*
X186145067Y-75360377D01*
X186033475Y-75193368D01*
X185826632Y-74986525D01*
X185583411Y-74824010D01*
X185313158Y-74712068D01*
X185026260Y-74655000D01*
X184733740Y-74655000D01*
X184446842Y-74712068D01*
X184176589Y-74824010D01*
X183933368Y-74986525D01*
X183726525Y-75193368D01*
X183564010Y-75436589D01*
X183452068Y-75706842D01*
X183395000Y-75993740D01*
X183395000Y-76225392D01*
X183345807Y-76274585D01*
X183250044Y-76010186D01*
X182960429Y-75869296D01*
X182648892Y-75787616D01*
X182327405Y-75768282D01*
X182008325Y-75812039D01*
X181736525Y-75905938D01*
X181736525Y-72688397D01*
X184031208Y-72688397D01*
X184108843Y-72937472D01*
X184372883Y-73063371D01*
X184656411Y-73135339D01*
X184948531Y-73150611D01*
X185238019Y-73108599D01*
X185513747Y-73010919D01*
X185651157Y-72937472D01*
X185728792Y-72688397D01*
X184880000Y-71839605D01*
X184031208Y-72688397D01*
X181736525Y-72688397D01*
X181736525Y-71890304D01*
X181819571Y-71930704D01*
X182131108Y-72012384D01*
X182452595Y-72031718D01*
X182771675Y-71987961D01*
X183076088Y-71882795D01*
X183250044Y-71789814D01*
X183345807Y-71525415D01*
X183397315Y-71576923D01*
X183389389Y-71728531D01*
X183431401Y-72018019D01*
X183529081Y-72293747D01*
X183602528Y-72431157D01*
X183851603Y-72508792D01*
X184700395Y-71660000D01*
X184686253Y-71645858D01*
X184865858Y-71466253D01*
X184880000Y-71480395D01*
X184894143Y-71466253D01*
X185073748Y-71645858D01*
G37*
%TD.AperFunction*%
D17*
X173460538Y-53446906D02*
X172727914Y-53446906D01*
X172594359Y-53391586D01*
X172405431Y-53354006D01*
X172212801Y-53354006D01*
X172023873Y-53391586D01*
X171845906Y-53465302D01*
X171685741Y-53572321D01*
X171549531Y-53708531D01*
X171442512Y-53868696D01*
X171368796Y-54046663D01*
X171331216Y-54235591D01*
X171331216Y-54428221D01*
X171368796Y-54617149D01*
X171442512Y-54795116D01*
X171549531Y-54955281D01*
X171685741Y-55091491D01*
X171845906Y-55198510D01*
X172023873Y-55272226D01*
X172212801Y-55309806D01*
X172405431Y-55309806D01*
X172594359Y-55272226D01*
X172727914Y-55216906D01*
X173632538Y-55216906D01*
X179314114Y-60898483D01*
X179314114Y-64612197D01*
X172191189Y-57489273D01*
X172163472Y-57455500D01*
X172028714Y-57344906D01*
X171874968Y-57262728D01*
X171708145Y-57212122D01*
X171578132Y-57199317D01*
X171578124Y-57199317D01*
X171534655Y-57195036D01*
X171491186Y-57199317D01*
X167583284Y-57199317D01*
X167594166Y-57188435D01*
X167627933Y-57160723D01*
X167738527Y-57025965D01*
X167820705Y-56872219D01*
X167871311Y-56705396D01*
X167884116Y-56575383D01*
X167884116Y-56575373D01*
X167888397Y-56531907D01*
X167884116Y-56488441D01*
X167884116Y-53016906D01*
X173030538Y-53016906D01*
X173460538Y-53446906D01*
%TA.AperFunction,Conductor*%
D19*
G36*
X173460538Y-53446906D02*
G01*
X172727914Y-53446906D01*
X172594359Y-53391586D01*
X172405431Y-53354006D01*
X172212801Y-53354006D01*
X172023873Y-53391586D01*
X171845906Y-53465302D01*
X171685741Y-53572321D01*
X171549531Y-53708531D01*
X171442512Y-53868696D01*
X171368796Y-54046663D01*
X171331216Y-54235591D01*
X171331216Y-54428221D01*
X171368796Y-54617149D01*
X171442512Y-54795116D01*
X171549531Y-54955281D01*
X171685741Y-55091491D01*
X171845906Y-55198510D01*
X172023873Y-55272226D01*
X172212801Y-55309806D01*
X172405431Y-55309806D01*
X172594359Y-55272226D01*
X172727914Y-55216906D01*
X173632538Y-55216906D01*
X179314114Y-60898483D01*
X179314114Y-64612197D01*
X172191189Y-57489273D01*
X172163472Y-57455500D01*
X172028714Y-57344906D01*
X171874968Y-57262728D01*
X171708145Y-57212122D01*
X171578132Y-57199317D01*
X171578124Y-57199317D01*
X171534655Y-57195036D01*
X171491186Y-57199317D01*
X167583284Y-57199317D01*
X167594166Y-57188435D01*
X167627933Y-57160723D01*
X167738527Y-57025965D01*
X167820705Y-56872219D01*
X167871311Y-56705396D01*
X167884116Y-56575383D01*
X167884116Y-56575373D01*
X167888397Y-56531907D01*
X167884116Y-56488441D01*
X167884116Y-53016906D01*
X173030538Y-53016906D01*
X173460538Y-53446906D01*
G37*
%TD.AperFunction*%
%TD*%
M02*
