%TF.GenerationSoftware,KiCad,Pcbnew,(5.1.9-0-10_14)*%
%TF.CreationDate,2021-02-02T08:17:03-08:00*%
%TF.ProjectId,integrator,696e7465-6772-4617-946f-722e6b696361,rev?*%
%TF.SameCoordinates,Original*%
%TF.FileFunction,Copper,L2,Bot*%
%TF.FilePolarity,Positive*%
%FSLAX46Y46*%
G04 Gerber Fmt 4.6, Leading zero omitted, Abs format (unit mm)*
G04 Created by KiCad (PCBNEW (5.1.9-0-10_14)) date 2021-02-02 08:17:03*
%MOMM*%
%LPD*%
G01*
G04 APERTURE LIST*
%TA.AperFunction,ComponentPad*%
%ADD10C,1.600000*%
%TD*%
%TA.AperFunction,ComponentPad*%
%ADD11R,1.600000X1.600000*%
%TD*%
%TA.AperFunction,ComponentPad*%
%ADD12C,1.900000*%
%TD*%
%TA.AperFunction,ComponentPad*%
%ADD13R,1.700000X1.700000*%
%TD*%
%TA.AperFunction,ComponentPad*%
%ADD14O,1.700000X1.700000*%
%TD*%
%TA.AperFunction,ViaPad*%
%ADD15C,0.685800*%
%TD*%
%TA.AperFunction,Conductor*%
%ADD16C,0.254000*%
%TD*%
G04 APERTURE END LIST*
D10*
%TO.P,U1,17*%
%TO.N,Net-(U1-Pad17)*%
X161490000Y-84000000D03*
%TO.P,U1,18*%
%TO.N,Net-(U1-Pad18)*%
X161490000Y-86540000D03*
%TO.P,U1,19*%
%TO.N,Net-(J2-Pad3)*%
X161490000Y-89080000D03*
%TO.P,U1,20*%
%TO.N,Net-(U1-Pad20)*%
X161490000Y-91620000D03*
%TO.P,U1,16*%
%TO.N,Net-(C1-Pad1)*%
X161490000Y-81460000D03*
%TO.P,U1,15*%
%TO.N,Net-(U1-Pad15)*%
X161490000Y-78920000D03*
%TO.P,U1,14*%
%TO.N,Net-(U1-Pad14)*%
X161490000Y-76380000D03*
%TO.P,U1,21*%
%TO.N,Net-(U1-Pad21)*%
X164030000Y-91620000D03*
%TO.P,U1,22*%
%TO.N,Net-(U1-Pad22)*%
X166570000Y-91620000D03*
%TO.P,U1,23*%
%TO.N,Net-(POGO1-Pad12)*%
X169110000Y-91620000D03*
%TO.P,U1,24*%
%TO.N,Net-(POGO1-Pad6)*%
X171650000Y-91620000D03*
%TO.P,U1,25*%
%TO.N,Net-(U1-Pad25)*%
X174190000Y-91620000D03*
%TO.P,U1,26*%
%TO.N,Net-(U1-Pad26)*%
X176730000Y-91620000D03*
%TO.P,U1,27*%
%TO.N,Net-(LED1-Pad2)*%
X179270000Y-91620000D03*
%TO.P,U1,28*%
%TO.N,Net-(LED2-Pad2)*%
X181810000Y-91620000D03*
%TO.P,U1,29*%
%TO.N,Net-(U1-Pad29)*%
X184350000Y-91620000D03*
%TO.P,U1,30*%
%TO.N,Net-(U1-Pad30)*%
X186890000Y-91620000D03*
%TO.P,U1,31*%
%TO.N,Net-(U1-Pad31)*%
X189430000Y-91620000D03*
%TO.P,U1,32*%
%TO.N,Net-(U1-Pad32)*%
X191970000Y-91620000D03*
%TO.P,U1,33*%
%TO.N,Net-(POGO1-Pad4)*%
X194510000Y-91620000D03*
%TO.P,U1,34*%
%TO.N,Net-(U1-Pad34)*%
X191970000Y-89080000D03*
%TO.P,U1,35*%
%TO.N,Net-(U1-Pad35)*%
X186890000Y-89080000D03*
%TO.P,U1,36*%
%TO.N,Net-(U1-Pad36)*%
X184350000Y-89080000D03*
%TO.P,U1,37*%
%TO.N,Net-(U1-Pad37)*%
X181810000Y-89080000D03*
%TO.P,U1,13*%
%TO.N,Net-(U1-Pad13)*%
X164030000Y-76380000D03*
%TO.P,U1,12*%
%TO.N,Net-(U1-Pad12)*%
X166570000Y-76380000D03*
%TO.P,U1,11*%
%TO.N,Net-(SW2-Pad2)*%
X169110000Y-76380000D03*
%TO.P,U1,10*%
%TO.N,Net-(J2-Pad2)*%
X171650000Y-76380000D03*
%TO.P,U1,9*%
%TO.N,Net-(POGO1-Pad3)*%
X174190000Y-76380000D03*
%TO.P,U1,8*%
%TO.N,Net-(POGO1-Pad5)*%
X176730000Y-76380000D03*
%TO.P,U1,7*%
%TO.N,Net-(POGO1-Pad7)*%
X179270000Y-76380000D03*
%TO.P,U1,6*%
%TO.N,Net-(POGO1-Pad9)*%
X181810000Y-76380000D03*
%TO.P,U1,5*%
%TO.N,Net-(SW1-Pad2)*%
X184350000Y-76380000D03*
%TO.P,U1,4*%
%TO.N,Net-(U1-Pad4)*%
X186890000Y-76380000D03*
%TO.P,U1,3*%
%TO.N,Net-(U1-Pad3)*%
X189430000Y-76380000D03*
%TO.P,U1,2*%
%TO.N,Net-(U1-Pad2)*%
X191970000Y-76380000D03*
D11*
%TO.P,U1,1*%
%TO.N,Earth*%
X194510000Y-76380000D03*
D12*
%TO.P,U1,52*%
%TO.N,N/C*%
X184350000Y-84000000D03*
X188160000Y-84000000D03*
%TD*%
D13*
%TO.P,POGO1,1*%
%TO.N,Net-(POGO1-Pad1)*%
X168960800Y-43586400D03*
D14*
%TO.P,POGO1,2*%
%TO.N,Earth*%
X168960800Y-41046400D03*
%TO.P,POGO1,3*%
%TO.N,Net-(POGO1-Pad3)*%
X171500800Y-43586400D03*
%TO.P,POGO1,4*%
%TO.N,Net-(POGO1-Pad4)*%
X171500800Y-41046400D03*
%TO.P,POGO1,5*%
%TO.N,Net-(POGO1-Pad5)*%
X174040800Y-43586400D03*
%TO.P,POGO1,6*%
%TO.N,Net-(POGO1-Pad6)*%
X174040800Y-41046400D03*
%TO.P,POGO1,7*%
%TO.N,Net-(POGO1-Pad7)*%
X176580800Y-43586400D03*
%TO.P,POGO1,8*%
%TO.N,Net-(POGO1-Pad8)*%
X176580800Y-41046400D03*
%TO.P,POGO1,9*%
%TO.N,Net-(POGO1-Pad9)*%
X179120800Y-43586400D03*
%TO.P,POGO1,10*%
%TO.N,Net-(POGO1-Pad10)*%
X179120800Y-41046400D03*
%TO.P,POGO1,11*%
%TO.N,Net-(POGO1-Pad11)*%
X181660800Y-43586400D03*
%TO.P,POGO1,12*%
%TO.N,Net-(POGO1-Pad12)*%
X181660800Y-41046400D03*
%TD*%
D15*
%TO.N,Net-(C1-Pad1)*%
X149860000Y-81280000D03*
X150876000Y-85090000D03*
%TO.N,Earth*%
X154686000Y-81282301D03*
X157734000Y-81282301D03*
X192278000Y-35814000D03*
X189230000Y-35814008D03*
X199644000Y-80264000D03*
X203200000Y-80264000D03*
%TO.N,Net-(J2-Pad3)*%
X203454000Y-74676000D03*
X201422000Y-33782000D03*
X203454000Y-58420000D03*
%TO.N,Net-(J2-Pad2)*%
X190754000Y-36830000D03*
X179323992Y-82042000D03*
%TO.N,Net-(LED1-Pad2)*%
X161798000Y-37338000D03*
X147574000Y-71374000D03*
%TO.N,Net-(LED2-Pad2)*%
X200914000Y-88138000D03*
X204216000Y-36576000D03*
X189230000Y-34798000D03*
X194310000Y-34798000D03*
%TO.N,Net-(SW1-Pad2)*%
X204724000Y-66040000D03*
X201676000Y-85090000D03*
%TO.N,Net-(SW2-Pad2)*%
X167830005Y-77659995D03*
X146812014Y-73152000D03*
%TO.N,Net-(U1-Pad25)*%
X164084000Y-87884000D03*
X154940000Y-85598000D03*
%TO.N,Net-(U1-Pad26)*%
X155163117Y-83983183D03*
X165608000Y-87884000D03*
%TO.N,Net-(U1-Pad4)*%
X155280042Y-81904601D03*
X185674000Y-82042000D03*
%TO.N,Net-(POGO1-Pad4)*%
X190246000Y-38862000D03*
%TO.N,Net-(POGO1-Pad5)*%
X180594000Y-82042000D03*
%TO.N,Net-(POGO1-Pad6)*%
X148336000Y-78485996D03*
X148221690Y-69850000D03*
X172817935Y-42320064D03*
%TO.N,Net-(POGO1-Pad7)*%
X181864000Y-82042000D03*
%TO.N,Net-(POGO1-Pad9)*%
X183469546Y-82042000D03*
%TO.N,Net-(POGO1-Pad12)*%
X160528000Y-46990000D03*
X149111968Y-76962000D03*
X149606000Y-78994000D03*
%TD*%
D16*
%TO.N,Net-(C1-Pad1)*%
X149860000Y-81280000D02*
X150876000Y-82296000D01*
X150876000Y-82296000D02*
X150876000Y-85090000D01*
%TO.N,Earth*%
X154686000Y-81282301D02*
X157734000Y-81282301D01*
X192278000Y-35814000D02*
X189230008Y-35814000D01*
X189230008Y-35814000D02*
X189230000Y-35814008D01*
X199644000Y-80264000D02*
X203200000Y-80264000D01*
%TO.N,Net-(J2-Pad3)*%
X203454000Y-58420000D02*
X203454000Y-47498000D01*
X203454000Y-38100000D02*
X203454000Y-35814000D01*
X203454000Y-47498000D02*
X203454000Y-38100000D01*
X203454000Y-35814000D02*
X201422000Y-33782000D01*
X162478411Y-90068411D02*
X178663589Y-90068411D01*
X203111101Y-75018899D02*
X203454000Y-74676000D01*
X161490000Y-89080000D02*
X162478411Y-90068411D01*
X180949589Y-87782411D02*
X190347589Y-87782411D01*
X190347589Y-87782411D02*
X203111101Y-75018899D01*
X178663589Y-90068411D02*
X180949589Y-87782411D01*
%TO.N,Net-(J2-Pad2)*%
X183712107Y-82892899D02*
X180174891Y-82892899D01*
X190754000Y-36830000D02*
X193040000Y-36830000D01*
X193040000Y-36830000D02*
X202184000Y-45974000D01*
X202184000Y-75184000D02*
X196646799Y-80721201D01*
X196646799Y-80721201D02*
X185883805Y-80721201D01*
X185883805Y-80721201D02*
X183712107Y-82892899D01*
X202184000Y-45974000D02*
X202184000Y-75184000D01*
X180174891Y-82892899D02*
X179323992Y-82042000D01*
%TO.N,Net-(LED1-Pad2)*%
X161798000Y-37338000D02*
X158556249Y-37338000D01*
X158556249Y-37338000D02*
X147574000Y-48320249D01*
X147574000Y-48320249D02*
X147574000Y-71374000D01*
%TO.N,Net-(LED2-Pad2)*%
X189230000Y-34798000D02*
X194310000Y-34798000D01*
X204216000Y-58674000D02*
X204216000Y-36576000D01*
X204470000Y-74422000D02*
X203454000Y-73406000D01*
X204470000Y-74516992D02*
X204470000Y-74422000D01*
X204076301Y-74974705D02*
X204076301Y-74910691D01*
X204076301Y-74910691D02*
X204470000Y-74516992D01*
X203454000Y-73406000D02*
X203454000Y-59436000D01*
X203752705Y-75298301D02*
X204076301Y-74974705D01*
X203454000Y-59436000D02*
X204216000Y-58674000D01*
X199021698Y-79965294D02*
X203688691Y-75298301D01*
X199021698Y-86245698D02*
X199021698Y-79965294D01*
X203688691Y-75298301D02*
X203752705Y-75298301D01*
X200914000Y-88138000D02*
X199021698Y-86245698D01*
%TO.N,Net-(SW1-Pad2)*%
X204724000Y-66040000D02*
X205066899Y-66382899D01*
X205066899Y-66382899D02*
X205066899Y-81699101D01*
X205066899Y-81699101D02*
X201676000Y-85090000D01*
%TO.N,Net-(SW2-Pad2)*%
X146812014Y-75946014D02*
X146812014Y-73152000D01*
X167830005Y-77659995D02*
X148525995Y-77659995D01*
X148525995Y-77659995D02*
X146812014Y-75946014D01*
%TO.N,Net-(U1-Pad25)*%
X164084000Y-87884000D02*
X157226000Y-87884000D01*
X157226000Y-87884000D02*
X154940000Y-85598000D01*
%TO.N,Net-(U1-Pad26)*%
X163017945Y-85293945D02*
X165608000Y-87884000D01*
X156473879Y-85293945D02*
X163017945Y-85293945D01*
X155163117Y-83983183D02*
X156473879Y-85293945D01*
%TO.N,Net-(U1-Pad4)*%
X155280042Y-81904601D02*
X156115601Y-82740160D01*
X156115601Y-82740160D02*
X161988160Y-82740160D01*
X185674000Y-85090000D02*
X185674000Y-82042000D01*
X166370000Y-87122000D02*
X183642000Y-87122000D01*
X183642000Y-87122000D02*
X185674000Y-85090000D01*
X161988160Y-82740160D02*
X166370000Y-87122000D01*
%TO.N,Net-(POGO1-Pad3)*%
X174190000Y-76380000D02*
X174190000Y-76908000D01*
X175419697Y-77609697D02*
X174190000Y-76380000D01*
X177844705Y-77609697D02*
X175419697Y-77609697D01*
X196342000Y-77978000D02*
X178213008Y-77978000D01*
X171500800Y-43586400D02*
X174904400Y-46990000D01*
X200152000Y-74168000D02*
X196342000Y-77978000D01*
X178213008Y-77978000D02*
X177844705Y-77609697D01*
X199136000Y-46990000D02*
X200152000Y-48006000D01*
X200152000Y-48006000D02*
X200152000Y-74168000D01*
X174904400Y-46990000D02*
X199136000Y-46990000D01*
%TO.N,Net-(POGO1-Pad4)*%
X174701200Y-37846000D02*
X171500800Y-41046400D01*
X189230000Y-37846000D02*
X174701200Y-37846000D01*
X190246000Y-38862000D02*
X189230000Y-37846000D01*
%TO.N,Net-(POGO1-Pad5)*%
X200660000Y-47752000D02*
X200660000Y-74422000D01*
X195936282Y-79145718D02*
X183490282Y-79145718D01*
X176936400Y-46482000D02*
X199390000Y-46482000D01*
X183490282Y-79145718D02*
X180594000Y-82042000D01*
X174040800Y-43586400D02*
X176936400Y-46482000D01*
X199390000Y-46482000D02*
X200660000Y-47752000D01*
X200660000Y-74422000D02*
X195936282Y-79145718D01*
%TO.N,Net-(POGO1-Pad6)*%
X148336000Y-69735690D02*
X148336000Y-48260000D01*
X148221690Y-69850000D02*
X148336000Y-69735690D01*
X154275936Y-42320064D02*
X172817935Y-42320064D01*
X148336000Y-48260000D02*
X154275936Y-42320064D01*
X147612102Y-80225898D02*
X148336000Y-79502000D01*
X147612102Y-85128102D02*
X147612102Y-80225898D01*
X156972000Y-94488000D02*
X147612102Y-85128102D01*
X148336000Y-79502000D02*
X148336000Y-78485996D01*
X168782000Y-94488000D02*
X156972000Y-94488000D01*
X171650000Y-91620000D02*
X168782000Y-94488000D01*
%TO.N,Net-(POGO1-Pad7)*%
X199644000Y-45974000D02*
X201168000Y-47498000D01*
X184238899Y-79667101D02*
X181864000Y-82042000D01*
X201168000Y-74676000D02*
X196176899Y-79667101D01*
X201168000Y-47498000D02*
X201168000Y-74676000D01*
X176580800Y-43586400D02*
X178968400Y-45974000D01*
X196176899Y-79667101D02*
X184238899Y-79667101D01*
X178968400Y-45974000D02*
X199644000Y-45974000D01*
%TO.N,Net-(POGO1-Pad9)*%
X200660000Y-45466000D02*
X201676000Y-46482000D01*
X201676000Y-46482000D02*
X201676000Y-74930000D01*
X196430899Y-80175101D02*
X185336445Y-80175101D01*
X179120800Y-43586400D02*
X181000400Y-45466000D01*
X201676000Y-74930000D02*
X196430899Y-80175101D01*
X185336445Y-80175101D02*
X183469546Y-82042000D01*
X181000400Y-45466000D02*
X200660000Y-45466000D01*
%TO.N,Net-(POGO1-Pad12)*%
X149111968Y-76477067D02*
X149111968Y-76962000D01*
X148844000Y-48514000D02*
X148844000Y-76209099D01*
X148844000Y-76209099D02*
X149111968Y-76477067D01*
X150368000Y-46990000D02*
X148844000Y-48514000D01*
X160528000Y-46990000D02*
X150368000Y-46990000D01*
X166750000Y-93980000D02*
X157038750Y-93980000D01*
X169110000Y-91620000D02*
X166750000Y-93980000D01*
X148082000Y-80518000D02*
X149606000Y-78994000D01*
X157038750Y-93980000D02*
X148082000Y-85023250D01*
X148082000Y-85023250D02*
X148082000Y-80518000D01*
%TD*%
M02*
