M48
; DRILL file {KiCad (5.1.9-0-10_14)} date Thursday, January 12, 2023 at 12:26:07 PM
; FORMAT={-:-/ absolute / inch / decimal}
; #@! TF.CreationDate,2023-01-12T12:26:07-08:00
; #@! TF.GenerationSoftware,Kicad,Pcbnew,(5.1.9-0-10_14)
FMAT,2
INCH
T1C0.0130
T2C0.0150
T3C0.0197
T4C0.0236
T5C0.0256
T6C0.0354
T7C0.0394
T8C0.0472
T9C0.0256
T10C0.0354
T11C0.0669
%
G90
G05
T1
X4.9212Y-3.1378
X4.9949Y-6.1718
X5.0Y-2.2717
X5.0285Y-4.8927
X5.0492Y-6.0413
X5.0561Y-5.1093
X5.0797Y-4.8435
X5.0984Y-1.9094
X5.1072Y-4.7037
X5.1112Y-5.1624
X5.1407Y-4.7037
X5.1624Y-5.1093
X5.1722Y-4.7037
X5.2539Y-2.1417
X5.2628Y-4.6683
X5.2628Y-4.7008
X5.2628Y-4.7333
X5.2628Y-4.7677
X5.2628Y-4.8829
X5.3729Y-5.7572
X5.3799Y-5.8248
X5.3799Y-5.8563
X5.4133Y-5.8248
X5.4133Y-5.8563
X5.4448Y-5.8248
X5.4464Y-5.4469
X5.4488Y-6.2594
X5.4626Y-5.9961
X5.4626Y-6.0276
X5.4626Y-6.185
X5.4763Y-5.8248
X5.4931Y-6.0266
X5.4941Y-5.9961
X5.4956Y-2.5484
X5.498Y-5.1339
X5.5059Y-6.0669
X5.5236Y-5.0965
X5.5315Y-5.252
X5.5315Y-5.2874
X5.5551Y-5.7579
X5.5708Y-5.1713
X5.5826Y-4.1526
X5.5885Y-5.8898
X5.5891Y-2.2474
X5.6305Y-4.0998
X5.6583Y-2.3791
X5.6633Y-5.3957
X5.6653Y-5.9193
X5.6653Y-5.9469
X5.6746Y-5.2376
X5.687Y-5.9016
X5.6978Y-6.0531
X5.7007Y-5.0965
X5.7007Y-5.1339
X5.7007Y-5.1713
X5.7041Y-5.5841
X5.7165Y-5.9016
X5.7185Y-6.2657
X5.7216Y-2.3787
X5.7283Y-6.0531
X5.7342Y-1.8346
X5.7539Y-6.2657
X5.7598Y-6.0531
X5.7628Y-4.0206
X5.7637Y-2.5535
X5.7637Y-3.9449
X5.7956Y-5.6354
X5.7956Y-5.6728
X5.7956Y-5.7122
X5.7956Y-5.7516
X5.8212Y-4.8173
X5.8366Y-5.2618
X5.8533Y-5.2258
X5.8602Y-2.5531
X5.8728Y-5.2633
X5.8783Y-5.3815
X5.8787Y-3.7976
X5.8799Y-3.7245
X5.8976Y-5.6811
X5.9141Y-2.578
X5.9271Y-5.8106
X5.9787Y-5.6803
X6.0094Y-2.5951
X6.0177Y-5.2177
X6.0177Y-5.3106
X6.0181Y-5.2618
X6.0374Y-3.8543
X6.059Y-5.6819
X6.0618Y-5.5031
X6.0645Y-5.2177
X6.0645Y-5.3106
X6.0649Y-5.2618
X6.0716Y-3.6559
X6.0925Y-4.9685
X6.1043Y-4.7323
X6.1082Y-3.8543
X6.1114Y-5.2173
X6.1114Y-5.3102
X6.1118Y-5.2614
X6.1174Y-2.6081
X6.1378Y-4.7323
X6.1543Y-1.9906
X6.1653Y-2.6076
X6.1732Y-4.7323
X6.1736Y-5.6051
X6.184Y-2.1909
X6.184Y-2.3583
X6.2011Y-5.8106
X6.2047Y-4.5276
X6.2153Y-2.1898
X6.2153Y-2.3583
X6.2311Y-5.1273
X6.2381Y-5.3366
X6.247Y-2.19
X6.247Y-2.3583
X6.25Y-3.7993
X6.25Y-3.7244
X6.2555Y-5.6075
X6.2665Y-5.1254
X6.2696Y-5.1634
X6.2696Y-5.1969
X6.2712Y-5.2382
X6.2716Y-5.3642
X6.2721Y-5.4448
X6.2775Y-2.4616
X6.2909Y-4.9433
X6.2909Y-5.0248
X6.2948Y-4.815
X6.2959Y-4.545
X6.3307Y-4.5354
X6.3326Y-4.1102
X6.3326Y-4.3307
X6.3484Y-2.6201
X6.3523Y-4.5984
X6.3523Y-4.685
X6.3523Y-4.7146
X6.3657Y-5.6681
X6.3668Y-2.4603
X6.37Y-4.5374
X6.374Y-4.7362
X6.3848Y-2.4911
X6.3878Y-1.8346
X6.3956Y-4.7579
X6.3986Y-2.4616
X6.4055Y-2.565
X6.4311Y-5.2244
X6.4389Y-5.3591
X6.4527Y-4.502
X6.4704Y-6.0965
X6.5236Y-5.0098
X6.5236Y-5.0394
X6.5236Y-5.0689
X6.5236Y-5.1004
X6.5236Y-5.3543
X6.5236Y-5.3819
X6.5236Y-5.4114
X6.5236Y-5.4429
X6.561Y-5.7874
X6.5626Y-5.6319
X6.6574Y-4.3287
X6.6574Y-4.502
X6.7165Y-3.8248
X6.7293Y-2.4636
X6.7421Y-4.5394
X6.7519Y-2.4882
X6.7519Y-3.8543
X6.7539Y-4.6004
X6.7637Y-2.1417
X6.7726Y-2.5108
X6.7775Y-4.1122
X6.7795Y-4.3287
X6.7795Y-4.5354
X6.7946Y-4.7333
X6.7962Y-2.373
X6.8137Y-4.5492
X6.846Y-3.848
X6.8523Y-4.5394
X6.856Y-5.1307
X6.8612Y-2.3337
X6.8838Y-2.3563
X6.9015Y-3.8484
X6.9046Y-5.1468
X6.9065Y-2.3799
X6.9173Y-4.3327
X6.9511Y-4.7701
X6.9543Y-2.1387
X7.0791Y-6.0362
X7.1209Y-4.5303
X7.187Y-4.5748
X7.2795Y-3.4894
T2
X5.4441Y-3.5287
X5.4444Y-3.6681
X5.4462Y-2.676
X5.4466Y-2.8201
X5.4691Y-3.5287
X5.4694Y-3.6681
X5.4712Y-2.676
X5.4716Y-2.8201
X5.4941Y-3.5287
X5.4944Y-3.6681
X5.4962Y-2.676
X5.4966Y-2.8201
X5.5191Y-3.5287
X5.5194Y-3.6681
X5.5212Y-2.676
X5.5216Y-2.8201
X5.5441Y-3.5287
X5.5444Y-3.6681
X5.5462Y-2.676
X5.5466Y-2.8201
X5.5691Y-3.5287
X5.5694Y-3.6681
X5.5712Y-2.676
X5.5716Y-2.8201
T5
X6.9665Y-4.8157
X6.9665Y-4.8657
X6.9665Y-4.9157
X6.9665Y-4.9657
X6.9665Y-5.0157
X7.0165Y-4.8157
X7.0165Y-4.8657
X7.0165Y-4.9157
X7.0165Y-4.9657
X7.0165Y-5.0157
T6
X4.8452Y-3.3961
X4.8452Y-3.5724
X5.9767Y-1.8016
X6.1531Y-1.8016
X7.2807Y-3.4007
X7.2807Y-3.5771
T7
X5.2618Y-4.8888
X5.2618Y-4.9888
X6.5137Y-6.2224
X6.6137Y-6.2224
T8
X4.9433Y-3.3461
X4.9433Y-3.6224
X5.9267Y-1.8996
X6.2031Y-1.8996
X7.1826Y-3.3507
X7.1826Y-3.6271
T9
X5.9507Y-6.0929
X6.1783Y-6.0929
T10
X5.4954Y-6.2185
X5.6628Y-6.2185
T11
X5.122Y-1.9724
X5.3976Y-1.9724
X6.7323Y-1.9823
X7.0079Y-1.9823
T3
G00X5.3787Y-2.9768
M15
G01X5.3787Y-2.9374
M16
G05
G00X5.3787Y-3.4098
M15
G01X5.3787Y-3.3705
M16
G05
G00X5.4771Y-2.9768
M15
G01X5.4771Y-2.9374
M16
G05
G00X5.4771Y-3.4098
M15
G01X5.4771Y-3.3705
M16
G05
G00X5.5756Y-2.9768
M15
G01X5.5756Y-2.9374
M16
G05
G00X5.5756Y-3.4098
M15
G01X5.5756Y-3.3705
M16
G05
T4
G00X5.8944Y-6.0949
M15
G01X5.8944Y-6.0516
M16
G05
G00X5.8944Y-6.2535
M15
G01X5.8944Y-6.222
M16
G05
G00X6.2346Y-6.0949
M15
G01X6.2346Y-6.0516
M16
G05
G00X6.2346Y-6.2535
M15
G01X6.2346Y-6.222
M16
G05
T0
M30
