%TF.GenerationSoftware,KiCad,Pcbnew,(5.1.9-0-10_14)*%
%TF.CreationDate,2023-02-22T11:37:42-08:00*%
%TF.ProjectId,integrator,696e7465-6772-4617-946f-722e6b696361,rev?*%
%TF.SameCoordinates,Original*%
%TF.FileFunction,Legend,Top*%
%TF.FilePolarity,Positive*%
%FSLAX46Y46*%
G04 Gerber Fmt 4.6, Leading zero omitted, Abs format (unit mm)*
G04 Created by KiCad (PCBNEW (5.1.9-0-10_14)) date 2023-02-22 11:37:42*
%MOMM*%
%LPD*%
G01*
G04 APERTURE LIST*
%ADD10C,0.250000*%
%ADD11C,0.200000*%
%ADD12C,0.125000*%
G04 APERTURE END LIST*
D10*
X161399000Y-56150000D02*
X159849000Y-59300000D01*
X162999000Y-56150000D02*
X161399000Y-56150000D01*
X164899000Y-56000000D02*
X162999000Y-56150000D01*
X165699000Y-55400000D02*
X164899000Y-56000000D01*
X165999000Y-54750000D02*
X165699000Y-55400000D01*
X165899000Y-53550000D02*
X165999000Y-54750000D01*
X165299000Y-53000000D02*
X165899000Y-53550000D01*
X163049000Y-52800000D02*
X165299000Y-53000000D01*
X155349000Y-52750000D02*
X163049000Y-52800000D01*
X147499000Y-52650000D02*
X155349000Y-52750000D01*
X143299000Y-52650000D02*
X147499000Y-52650000D01*
X142699000Y-52950000D02*
X143299000Y-52650000D01*
X142349000Y-53450000D02*
X142699000Y-52950000D01*
X142349000Y-54550000D02*
X142349000Y-53450000D01*
X142649000Y-55400000D02*
X142349000Y-54550000D01*
X145349000Y-55750000D02*
X142649000Y-55400000D01*
X149799000Y-56150000D02*
X145349000Y-55750000D01*
X157049000Y-56300000D02*
X149799000Y-56150000D01*
X160899000Y-56400000D02*
X157049000Y-56300000D01*
X159849000Y-59300000D02*
X160899000Y-56400000D01*
D11*
X143721619Y-54915476D02*
X143721619Y-53665476D01*
X143721619Y-54141666D02*
X143840666Y-54082142D01*
X144078761Y-54082142D01*
X144197809Y-54141666D01*
X144257333Y-54201190D01*
X144316857Y-54320238D01*
X144316857Y-54677380D01*
X144257333Y-54796428D01*
X144197809Y-54855952D01*
X144078761Y-54915476D01*
X143840666Y-54915476D01*
X143721619Y-54855952D01*
X144852571Y-54915476D02*
X144852571Y-54082142D01*
X144852571Y-53665476D02*
X144793047Y-53725000D01*
X144852571Y-53784523D01*
X144912095Y-53725000D01*
X144852571Y-53665476D01*
X144852571Y-53784523D01*
X145269238Y-54082142D02*
X145745428Y-54082142D01*
X145447809Y-53665476D02*
X145447809Y-54736904D01*
X145507333Y-54855952D01*
X145626380Y-54915476D01*
X145745428Y-54915476D01*
X146162095Y-54796428D02*
X146221619Y-54855952D01*
X146162095Y-54915476D01*
X146102571Y-54855952D01*
X146162095Y-54796428D01*
X146162095Y-54915476D01*
X146935904Y-54915476D02*
X146816857Y-54855952D01*
X146757333Y-54736904D01*
X146757333Y-53665476D01*
X147293047Y-54082142D02*
X147590666Y-54915476D01*
X147888285Y-54082142D02*
X147590666Y-54915476D01*
X147471619Y-55213095D01*
X147412095Y-55272619D01*
X147293047Y-55332142D01*
X149257333Y-53605952D02*
X148185904Y-55213095D01*
X149674000Y-54082142D02*
X149674000Y-55332142D01*
X149674000Y-54141666D02*
X149793047Y-54082142D01*
X150031142Y-54082142D01*
X150150190Y-54141666D01*
X150209714Y-54201190D01*
X150269238Y-54320238D01*
X150269238Y-54677380D01*
X150209714Y-54796428D01*
X150150190Y-54855952D01*
X150031142Y-54915476D01*
X149793047Y-54915476D01*
X149674000Y-54855952D01*
X150983523Y-54915476D02*
X150864476Y-54855952D01*
X150804952Y-54796428D01*
X150745428Y-54677380D01*
X150745428Y-54320238D01*
X150804952Y-54201190D01*
X150864476Y-54141666D01*
X150983523Y-54082142D01*
X151162095Y-54082142D01*
X151281142Y-54141666D01*
X151340666Y-54201190D01*
X151400190Y-54320238D01*
X151400190Y-54677380D01*
X151340666Y-54796428D01*
X151281142Y-54855952D01*
X151162095Y-54915476D01*
X150983523Y-54915476D01*
X152471619Y-54855952D02*
X152352571Y-54915476D01*
X152114476Y-54915476D01*
X151995428Y-54855952D01*
X151935904Y-54796428D01*
X151876380Y-54677380D01*
X151876380Y-54320238D01*
X151935904Y-54201190D01*
X151995428Y-54141666D01*
X152114476Y-54082142D01*
X152352571Y-54082142D01*
X152471619Y-54141666D01*
X153007333Y-54915476D02*
X153007333Y-53665476D01*
X153126380Y-54439285D02*
X153483523Y-54915476D01*
X153483523Y-54082142D02*
X153007333Y-54558333D01*
X154495428Y-54855952D02*
X154376380Y-54915476D01*
X154138285Y-54915476D01*
X154019238Y-54855952D01*
X153959714Y-54736904D01*
X153959714Y-54260714D01*
X154019238Y-54141666D01*
X154138285Y-54082142D01*
X154376380Y-54082142D01*
X154495428Y-54141666D01*
X154554952Y-54260714D01*
X154554952Y-54379761D01*
X153959714Y-54498809D01*
X154912095Y-54082142D02*
X155388285Y-54082142D01*
X155090666Y-53665476D02*
X155090666Y-54736904D01*
X155150190Y-54855952D01*
X155269238Y-54915476D01*
X155388285Y-54915476D01*
X155804952Y-54915476D02*
X155804952Y-54082142D01*
X155804952Y-53665476D02*
X155745428Y-53725000D01*
X155804952Y-53784523D01*
X155864476Y-53725000D01*
X155804952Y-53665476D01*
X155804952Y-53784523D01*
X156400190Y-54082142D02*
X156400190Y-54915476D01*
X156400190Y-54201190D02*
X156459714Y-54141666D01*
X156578761Y-54082142D01*
X156757333Y-54082142D01*
X156876380Y-54141666D01*
X156935904Y-54260714D01*
X156935904Y-54915476D01*
X157352571Y-54082142D02*
X157828761Y-54082142D01*
X157531142Y-53665476D02*
X157531142Y-54736904D01*
X157590666Y-54855952D01*
X157709714Y-54915476D01*
X157828761Y-54915476D01*
X158721619Y-54855952D02*
X158602571Y-54915476D01*
X158364476Y-54915476D01*
X158245428Y-54855952D01*
X158185904Y-54736904D01*
X158185904Y-54260714D01*
X158245428Y-54141666D01*
X158364476Y-54082142D01*
X158602571Y-54082142D01*
X158721619Y-54141666D01*
X158781142Y-54260714D01*
X158781142Y-54379761D01*
X158185904Y-54498809D01*
X159852571Y-54082142D02*
X159852571Y-55094047D01*
X159793047Y-55213095D01*
X159733523Y-55272619D01*
X159614476Y-55332142D01*
X159435904Y-55332142D01*
X159316857Y-55272619D01*
X159852571Y-54855952D02*
X159733523Y-54915476D01*
X159495428Y-54915476D01*
X159376380Y-54855952D01*
X159316857Y-54796428D01*
X159257333Y-54677380D01*
X159257333Y-54320238D01*
X159316857Y-54201190D01*
X159376380Y-54141666D01*
X159495428Y-54082142D01*
X159733523Y-54082142D01*
X159852571Y-54141666D01*
X160447809Y-54915476D02*
X160447809Y-54082142D01*
X160447809Y-54320238D02*
X160507333Y-54201190D01*
X160566857Y-54141666D01*
X160685904Y-54082142D01*
X160804952Y-54082142D01*
X161757333Y-54915476D02*
X161757333Y-54260714D01*
X161697809Y-54141666D01*
X161578761Y-54082142D01*
X161340666Y-54082142D01*
X161221619Y-54141666D01*
X161757333Y-54855952D02*
X161638285Y-54915476D01*
X161340666Y-54915476D01*
X161221619Y-54855952D01*
X161162095Y-54736904D01*
X161162095Y-54617857D01*
X161221619Y-54498809D01*
X161340666Y-54439285D01*
X161638285Y-54439285D01*
X161757333Y-54379761D01*
X162174000Y-54082142D02*
X162650190Y-54082142D01*
X162352571Y-53665476D02*
X162352571Y-54736904D01*
X162412095Y-54855952D01*
X162531142Y-54915476D01*
X162650190Y-54915476D01*
X163245428Y-54915476D02*
X163126380Y-54855952D01*
X163066857Y-54796428D01*
X163007333Y-54677380D01*
X163007333Y-54320238D01*
X163066857Y-54201190D01*
X163126380Y-54141666D01*
X163245428Y-54082142D01*
X163424000Y-54082142D01*
X163543047Y-54141666D01*
X163602571Y-54201190D01*
X163662095Y-54320238D01*
X163662095Y-54677380D01*
X163602571Y-54796428D01*
X163543047Y-54855952D01*
X163424000Y-54915476D01*
X163245428Y-54915476D01*
X164197809Y-54915476D02*
X164197809Y-54082142D01*
X164197809Y-54320238D02*
X164257333Y-54201190D01*
X164316857Y-54141666D01*
X164435904Y-54082142D01*
X164554952Y-54082142D01*
D10*
X156335000Y-149144000D02*
X152525000Y-149144000D01*
X156335000Y-149652000D02*
X156335000Y-149144000D01*
X151649000Y-156150000D02*
X151649000Y-149650000D01*
X149349000Y-156150000D02*
X151649000Y-156150000D01*
X153795000Y-161082000D02*
X149349000Y-156150000D01*
X156449000Y-156150000D02*
X156449000Y-152850000D01*
X158749000Y-156150000D02*
X156449000Y-156150000D01*
X154303000Y-161082000D02*
X158749000Y-156150000D01*
X145599000Y-133275000D02*
X144599000Y-120225000D01*
X143299000Y-130675000D02*
X143899000Y-120125000D01*
X174224000Y-129275000D02*
X171599000Y-136850000D01*
X168474000Y-127700000D02*
X174224000Y-129275000D01*
X168474000Y-127400000D02*
X168474000Y-127700000D01*
X175649000Y-128025000D02*
X168474000Y-127400000D01*
X176124000Y-120875000D02*
X175649000Y-128025000D01*
X176224000Y-119900000D02*
X176124000Y-120875000D01*
X175324000Y-119200000D02*
X176224000Y-119900000D01*
X175949000Y-117925000D02*
X175324000Y-119200000D01*
X177949000Y-118700000D02*
X175949000Y-117925000D01*
X179274000Y-121275000D02*
X177949000Y-118700000D01*
X179474000Y-125825000D02*
X179274000Y-121275000D01*
X182099000Y-125900000D02*
X179474000Y-125825000D01*
X182249000Y-125650000D02*
X182099000Y-125900000D01*
X182774000Y-125275000D02*
X182249000Y-125650000D01*
X182599000Y-126775000D02*
X182774000Y-125275000D01*
X182174000Y-126775000D02*
X182599000Y-126775000D01*
X182299000Y-126225000D02*
X182174000Y-126775000D01*
X179549000Y-126350000D02*
X182299000Y-126225000D01*
X179299000Y-127900000D02*
X179549000Y-126350000D01*
X181349000Y-129050000D02*
X179299000Y-127900000D01*
X181724000Y-129050000D02*
X181349000Y-129050000D01*
X181724000Y-129925000D02*
X181724000Y-129050000D01*
X180874000Y-130175000D02*
X181724000Y-129925000D01*
X180699000Y-129675000D02*
X180874000Y-130175000D01*
X181099000Y-129375000D02*
X180699000Y-129675000D01*
X179149000Y-128375000D02*
X181099000Y-129375000D01*
X178299000Y-129900000D02*
X179149000Y-128375000D01*
X176024000Y-129300000D02*
X178299000Y-129900000D01*
X172549000Y-137050000D02*
X176024000Y-129300000D01*
X158199000Y-66350000D02*
X158299000Y-66200000D01*
X157849000Y-66500000D02*
X158199000Y-66350000D01*
X156949000Y-66650000D02*
X157849000Y-66500000D01*
X155599000Y-66800000D02*
X156949000Y-66650000D01*
X153799000Y-66850000D02*
X155599000Y-66800000D01*
X152299000Y-66700000D02*
X153799000Y-66850000D01*
X151049000Y-66400000D02*
X152299000Y-66700000D01*
X150899000Y-66200000D02*
X151049000Y-66400000D01*
X151349000Y-65750000D02*
X150899000Y-66200000D01*
X152649000Y-65450000D02*
X151349000Y-65750000D01*
X153899000Y-65200000D02*
X152649000Y-65450000D01*
X154899000Y-65250000D02*
X153899000Y-65200000D01*
X156099000Y-65300000D02*
X154899000Y-65250000D01*
X157499000Y-65800000D02*
X156099000Y-65300000D01*
X158349000Y-66200000D02*
X157499000Y-65800000D01*
X158349000Y-68100000D02*
X158349000Y-66200000D01*
X157899000Y-68550000D02*
X158349000Y-68100000D01*
X157249000Y-68950000D02*
X157899000Y-68550000D01*
X155849000Y-69000000D02*
X157249000Y-68950000D01*
X154249000Y-69000000D02*
X155849000Y-69000000D01*
X152599000Y-68900000D02*
X154249000Y-69000000D01*
X150799000Y-68400000D02*
X152599000Y-68900000D01*
X150849000Y-66250000D02*
X150799000Y-68400000D01*
X144149000Y-59800000D02*
X144249000Y-60550000D01*
X147999000Y-64450000D02*
X150199000Y-62100000D01*
X144249000Y-60550000D02*
X147999000Y-64400000D01*
X146299000Y-59550000D02*
X144149000Y-59800000D01*
X146349000Y-60600000D02*
X146299000Y-59550000D01*
X145699000Y-61250000D02*
X146349000Y-60600000D01*
X148099000Y-63800000D02*
X145699000Y-61250000D01*
X150099000Y-61350000D02*
X148099000Y-63800000D01*
X162299000Y-61750000D02*
X159049000Y-62850000D01*
X162649000Y-64350000D02*
X162299000Y-61750000D01*
X161749000Y-64900000D02*
X162649000Y-64350000D01*
X162549000Y-66400000D02*
X161749000Y-64900000D01*
X164649000Y-65950000D02*
X162549000Y-66400000D01*
X164499000Y-64750000D02*
X164649000Y-65950000D01*
X164149000Y-64750000D02*
X164499000Y-64750000D01*
X163449000Y-64900000D02*
X164149000Y-64750000D01*
X162599000Y-60950000D02*
X163449000Y-64900000D01*
X159099000Y-61650000D02*
X162599000Y-60950000D01*
X155649000Y-63550000D02*
X157049000Y-62650000D01*
X153449000Y-63550000D02*
X155649000Y-63550000D01*
X152299000Y-62700000D02*
X153449000Y-63550000D01*
X155499000Y-63100000D02*
X155949000Y-63950000D01*
X153249000Y-63200000D02*
X155499000Y-63100000D01*
X152849000Y-63850000D02*
X153249000Y-63200000D01*
X157884327Y-61500000D02*
G75*
G03*
X157884327Y-61500000I-1185327J0D01*
G01*
X153779042Y-61500000D02*
G75*
G03*
X153779042Y-61500000I-1180042J0D01*
G01*
X157243975Y-61550000D02*
G75*
G03*
X157243975Y-61550000I-494975J0D01*
G01*
X153059977Y-61500000D02*
G75*
G03*
X153059977Y-61500000I-460977J0D01*
G01*
X150197816Y-63983365D02*
X150249000Y-58550000D01*
X159099000Y-64000000D02*
X150197816Y-63983365D01*
X159099000Y-58600000D02*
X159099000Y-64000000D01*
X150249000Y-58550000D02*
X159099000Y-58600000D01*
X177749000Y-139500000D02*
X178449000Y-138950000D01*
X178349000Y-140500000D02*
X177749000Y-139500000D01*
X178849000Y-139850000D02*
X178349000Y-140500000D01*
X160349000Y-140350000D02*
X159849000Y-140950000D01*
X159749000Y-139750000D02*
X160349000Y-140350000D01*
X159399000Y-140200000D02*
X159749000Y-139750000D01*
X178199000Y-142800000D02*
X178949000Y-142200000D01*
X177349000Y-143450000D02*
X178199000Y-142800000D01*
X177299000Y-142350000D02*
X177349000Y-143450000D01*
X178799000Y-141450000D02*
X177299000Y-142350000D01*
X135149000Y-126400000D02*
X135049000Y-128300000D01*
X136199000Y-126850000D02*
X135149000Y-126400000D01*
X137249000Y-126800000D02*
X136199000Y-126850000D01*
X135149000Y-124100000D02*
X137249000Y-126800000D01*
X129499000Y-122350000D02*
X129449000Y-121800000D01*
X131799000Y-136250000D02*
X130799000Y-132150000D01*
X134999000Y-141950000D02*
X131799000Y-136250000D01*
X135399000Y-141600000D02*
X134999000Y-141950000D01*
X137449000Y-143150000D02*
X135399000Y-141600000D01*
X137099000Y-145000000D02*
X137449000Y-143150000D01*
X134449000Y-145050000D02*
X137099000Y-145000000D01*
X133849000Y-143950000D02*
X134449000Y-145050000D01*
X134249000Y-143550000D02*
X133849000Y-143950000D01*
X133299000Y-142250000D02*
X134249000Y-143550000D01*
X126249000Y-131400000D02*
X133299000Y-142250000D01*
X129049000Y-129500000D02*
X126249000Y-131400000D01*
X130649000Y-129500000D02*
X129049000Y-129500000D01*
X128699000Y-125100000D02*
X130649000Y-129500000D01*
X129499000Y-122350000D02*
X128699000Y-125100000D01*
X127549000Y-141700000D02*
X129999000Y-137200000D01*
X129449000Y-144550000D02*
X127549000Y-141700000D01*
X140549000Y-147550000D02*
X129449000Y-144550000D01*
X136949000Y-147400000D02*
X140549000Y-147550000D01*
X132199000Y-151000000D02*
X136949000Y-147400000D01*
X130899000Y-150250000D02*
X132199000Y-151000000D01*
X129949000Y-153050000D02*
X130899000Y-150250000D01*
X130799000Y-153900000D02*
X129949000Y-153050000D01*
X130935000Y-159050000D02*
X130799000Y-153900000D01*
X133799000Y-160450000D02*
X130935000Y-159050000D01*
X133549000Y-159300000D02*
X133799000Y-160450000D01*
X135399000Y-159500000D02*
X133549000Y-159300000D01*
X134849000Y-158800000D02*
X135399000Y-159500000D01*
X136549000Y-158600000D02*
X134849000Y-158800000D01*
X133299000Y-157600000D02*
X136549000Y-158600000D01*
X131799000Y-152850000D02*
X133299000Y-157600000D01*
X142999000Y-147700000D02*
X131799000Y-152850000D01*
X138649000Y-144850000D02*
X142999000Y-147700000D01*
X144499000Y-135300000D02*
X138649000Y-144850000D01*
X145649000Y-139300000D02*
X144499000Y-135300000D01*
X148849000Y-143500000D02*
X145649000Y-139300000D01*
X149999000Y-143300000D02*
X148849000Y-143500000D01*
X154199000Y-135750000D02*
X149999000Y-143300000D01*
X152999000Y-136450000D02*
X154199000Y-135750000D01*
X153449000Y-135000000D02*
X152999000Y-136450000D01*
X151849000Y-136250000D02*
X153449000Y-135000000D01*
X151599000Y-134950000D02*
X151849000Y-136250000D01*
X150699000Y-135900000D02*
X151599000Y-134950000D01*
X149049000Y-141550000D02*
X150699000Y-135900000D01*
X144549000Y-133500000D02*
X149049000Y-141550000D01*
X136349000Y-140650000D02*
X144549000Y-133500000D01*
X135299000Y-137450000D02*
X136349000Y-140650000D01*
X137699000Y-134000000D02*
X135299000Y-137450000D01*
X135899000Y-130850000D02*
X137699000Y-134000000D01*
X136849000Y-130600000D02*
X135899000Y-130850000D01*
X145599000Y-133275000D02*
X136849000Y-130600000D01*
X146399000Y-115800000D02*
X144599000Y-120100000D01*
X146149000Y-114000000D02*
X146399000Y-115800000D01*
X145549000Y-114150000D02*
X146149000Y-114000000D01*
X145599000Y-115850000D02*
X145549000Y-114150000D01*
X143899000Y-118750000D02*
X145599000Y-115850000D01*
X145249000Y-113550000D02*
X143899000Y-118750000D01*
X142099000Y-113500000D02*
X145249000Y-113550000D01*
X141999000Y-114150000D02*
X142099000Y-113500000D01*
X143999000Y-114200000D02*
X141999000Y-114150000D01*
X143349000Y-118550000D02*
X143999000Y-114200000D01*
X142949000Y-114550000D02*
X143349000Y-118550000D01*
X140199000Y-114250000D02*
X142949000Y-114550000D01*
X139849000Y-114650000D02*
X140199000Y-114250000D01*
X142249000Y-114850000D02*
X139849000Y-114650000D01*
X142549000Y-118900000D02*
X142249000Y-114850000D01*
X140899000Y-116500000D02*
X142549000Y-118900000D01*
X142199000Y-120250000D02*
X140899000Y-116500000D01*
X143799000Y-120100000D02*
X142199000Y-120250000D01*
X136499000Y-129150000D02*
X143299000Y-130675000D01*
X134449000Y-129600000D02*
X136499000Y-129150000D01*
X135049000Y-128300000D02*
X134449000Y-129600000D01*
X135249000Y-122350000D02*
X135149000Y-124100000D01*
X139349000Y-120700000D02*
X135249000Y-122350000D01*
X135899000Y-121100000D02*
X139349000Y-120700000D01*
X138649000Y-119600000D02*
X135899000Y-121100000D01*
X136549000Y-119600000D02*
X138649000Y-119600000D01*
X138649000Y-118000000D02*
X136549000Y-119600000D01*
X136649000Y-118300000D02*
X138649000Y-118000000D01*
X138349000Y-116750000D02*
X136649000Y-118300000D01*
X135849000Y-117250000D02*
X138349000Y-116750000D01*
X137349000Y-114250000D02*
X135849000Y-117250000D01*
X134999000Y-115950000D02*
X137349000Y-114250000D01*
X134699000Y-113600000D02*
X134999000Y-115950000D01*
X132349000Y-115600000D02*
X134699000Y-113600000D01*
X132349000Y-111350000D02*
X132349000Y-115600000D01*
X131599000Y-115450000D02*
X132349000Y-111350000D01*
X130249000Y-113100000D02*
X131599000Y-115450000D01*
X129999000Y-117300000D02*
X130249000Y-113100000D01*
X127899000Y-115200000D02*
X129999000Y-117300000D01*
X128849000Y-118200000D02*
X127899000Y-115200000D01*
X127549000Y-117550000D02*
X128849000Y-118200000D01*
X128699000Y-118850000D02*
X127549000Y-117550000D01*
X126449000Y-118600000D02*
X128699000Y-118850000D01*
X128599000Y-119700000D02*
X126449000Y-118600000D01*
X127349000Y-120150000D02*
X128599000Y-119700000D01*
X129449000Y-121800000D02*
X127349000Y-120150000D01*
X171099000Y-138200000D02*
X171599000Y-136850000D01*
X170549000Y-138250000D02*
X171099000Y-138200000D01*
X170549000Y-138600000D02*
X170549000Y-138250000D01*
X170849000Y-138750000D02*
X170549000Y-138600000D01*
X170599000Y-139850000D02*
X170849000Y-138750000D01*
X167699000Y-138250000D02*
X170599000Y-139850000D01*
X163499000Y-143250000D02*
X167699000Y-138250000D01*
X158649000Y-138750000D02*
X163499000Y-143250000D01*
X158449000Y-135350000D02*
X158649000Y-138750000D01*
X157799000Y-135200000D02*
X158449000Y-135350000D01*
X158199000Y-137550000D02*
X157799000Y-135200000D01*
X155249000Y-137800000D02*
X158199000Y-137550000D01*
X157699000Y-138100000D02*
X155249000Y-137800000D01*
X154999000Y-139650000D02*
X157699000Y-138100000D01*
X157349000Y-138850000D02*
X154999000Y-139650000D01*
X155449000Y-141200000D02*
X157349000Y-138850000D01*
X158749000Y-139250000D02*
X155449000Y-141200000D01*
X163249000Y-146050000D02*
X158749000Y-139250000D01*
X168249000Y-139150000D02*
X163249000Y-146050000D01*
X166249000Y-147250000D02*
X168249000Y-139150000D01*
X159199000Y-150500000D02*
X166249000Y-147250000D01*
X158349000Y-147950000D02*
X159199000Y-150500000D01*
X154399000Y-151400000D02*
X158349000Y-147950000D01*
X151649000Y-147950000D02*
X154399000Y-151400000D01*
X151299000Y-148400000D02*
X151649000Y-147950000D01*
X152099000Y-151300000D02*
X151299000Y-148400000D01*
X152849000Y-151900000D02*
X152099000Y-151300000D01*
X152299000Y-152000000D02*
X152849000Y-151900000D01*
X153099000Y-154300000D02*
X152299000Y-152000000D01*
X175199000Y-144600000D02*
X153099000Y-154300000D01*
X175549000Y-145800000D02*
X175199000Y-144600000D01*
X173449000Y-146850000D02*
X175549000Y-145800000D01*
X175749000Y-150550000D02*
X173449000Y-146850000D01*
X175399000Y-151550000D02*
X175749000Y-150550000D01*
X177299000Y-151200000D02*
X175399000Y-151550000D01*
X177349000Y-150500000D02*
X177299000Y-151200000D01*
X179399000Y-150300000D02*
X177349000Y-150500000D01*
X181399000Y-150750000D02*
X179399000Y-150300000D01*
X182299000Y-150550000D02*
X181399000Y-150750000D01*
X181449000Y-149550000D02*
X182299000Y-150550000D01*
X180099000Y-149100000D02*
X181449000Y-149550000D01*
X177599000Y-148900000D02*
X180099000Y-149100000D01*
X175249000Y-143350000D02*
X177599000Y-148900000D01*
X168149000Y-145950000D02*
X175249000Y-143350000D01*
X171849000Y-141350000D02*
X168149000Y-145950000D01*
X176649000Y-137850000D02*
X171849000Y-141350000D01*
X178749000Y-141150000D02*
X176649000Y-137850000D01*
X178799000Y-141450000D02*
X178749000Y-141150000D01*
X179949000Y-144850000D02*
X178949000Y-142200000D01*
X179799000Y-142200000D02*
X179949000Y-144850000D01*
X180799000Y-143900000D02*
X179799000Y-142200000D01*
X180149000Y-141050000D02*
X180799000Y-143900000D01*
X182449000Y-143100000D02*
X180149000Y-141050000D01*
X180749000Y-140500000D02*
X182449000Y-143100000D01*
X179099000Y-140300000D02*
X180749000Y-140500000D01*
X177049000Y-135750000D02*
X179099000Y-140300000D01*
X171299000Y-140150000D02*
X177049000Y-135750000D01*
X172549000Y-137050000D02*
X171299000Y-140150000D01*
X128749000Y-47180000D02*
X141299000Y-47180000D01*
X128749000Y-55130000D02*
X125199000Y-50130000D01*
X128749000Y-45080000D02*
X128749000Y-47180000D01*
X125199000Y-50130000D02*
X128749000Y-45080000D01*
X141299000Y-53180000D02*
X128749000Y-53180000D01*
X128749000Y-53180000D02*
X128749000Y-55130000D01*
X141299000Y-47180000D02*
X141299000Y-53180000D01*
X128749000Y-58250000D02*
X141299000Y-58250000D01*
X128749000Y-66200000D02*
X125199000Y-61200000D01*
X128749000Y-56150000D02*
X128749000Y-58250000D01*
X125199000Y-61200000D02*
X128749000Y-56150000D01*
X141299000Y-64250000D02*
X128749000Y-64250000D01*
X128749000Y-64250000D02*
X128749000Y-66200000D01*
X141299000Y-58250000D02*
X141299000Y-64250000D01*
X170399000Y-58200000D02*
X182949000Y-58200000D01*
X170399000Y-66150000D02*
X166849000Y-61150000D01*
X170399000Y-56100000D02*
X170399000Y-58200000D01*
X166849000Y-61150000D02*
X170399000Y-56100000D01*
X182949000Y-64200000D02*
X170399000Y-64200000D01*
X170399000Y-64200000D02*
X170399000Y-66150000D01*
X182949000Y-58200000D02*
X182949000Y-64200000D01*
X179499000Y-53250000D02*
X166949000Y-53250000D01*
X179499000Y-45300000D02*
X183049000Y-50300000D01*
X179499000Y-55350000D02*
X179499000Y-53250000D01*
X183049000Y-50300000D02*
X179499000Y-55350000D01*
X166949000Y-47250000D02*
X179499000Y-47250000D01*
X179499000Y-47250000D02*
X179499000Y-45300000D01*
X166949000Y-53250000D02*
X166949000Y-47250000D01*
D12*
X140775190Y-99488690D02*
X140775190Y-99679166D01*
X140822809Y-99679166D02*
X140822809Y-99488690D01*
X140870428Y-99441071D02*
X140870428Y-99726785D01*
X140918047Y-99679166D02*
X140918047Y-99488690D01*
X140965666Y-99488690D02*
X140965666Y-99679166D01*
X140775190Y-99631547D02*
X140870428Y-99726785D01*
X140965666Y-99631547D01*
X140775190Y-99536309D02*
X140870428Y-99441071D01*
X140965666Y-99536309D01*
X140775190Y-99488690D02*
X140870428Y-99441071D01*
X140965666Y-99488690D01*
X141013285Y-99583928D01*
X140965666Y-99679166D01*
X140870428Y-99726785D01*
X140775190Y-99679166D01*
X140727571Y-99583928D01*
X140775190Y-99488690D01*
X142918047Y-99917261D02*
X142822809Y-99964880D01*
X142632333Y-99964880D01*
X142537095Y-99917261D01*
X142489476Y-99869642D01*
X142441857Y-99774404D01*
X142441857Y-99488690D01*
X142489476Y-99393452D01*
X142537095Y-99345833D01*
X142632333Y-99298214D01*
X142822809Y-99298214D01*
X142918047Y-99345833D01*
X143489476Y-99964880D02*
X143394238Y-99917261D01*
X143346619Y-99869642D01*
X143299000Y-99774404D01*
X143299000Y-99488690D01*
X143346619Y-99393452D01*
X143394238Y-99345833D01*
X143489476Y-99298214D01*
X143632333Y-99298214D01*
X143727571Y-99345833D01*
X143775190Y-99393452D01*
X143822809Y-99488690D01*
X143822809Y-99774404D01*
X143775190Y-99869642D01*
X143727571Y-99917261D01*
X143632333Y-99964880D01*
X143489476Y-99964880D01*
X144251380Y-99298214D02*
X144251380Y-99964880D01*
X144251380Y-99393452D02*
X144299000Y-99345833D01*
X144394238Y-99298214D01*
X144537095Y-99298214D01*
X144632333Y-99345833D01*
X144679952Y-99441071D01*
X144679952Y-99964880D01*
X145156142Y-99298214D02*
X145156142Y-99964880D01*
X145156142Y-99393452D02*
X145203761Y-99345833D01*
X145299000Y-99298214D01*
X145441857Y-99298214D01*
X145537095Y-99345833D01*
X145584714Y-99441071D01*
X145584714Y-99964880D01*
X146441857Y-99917261D02*
X146346619Y-99964880D01*
X146156142Y-99964880D01*
X146060904Y-99917261D01*
X146013285Y-99822023D01*
X146013285Y-99441071D01*
X146060904Y-99345833D01*
X146156142Y-99298214D01*
X146346619Y-99298214D01*
X146441857Y-99345833D01*
X146489476Y-99441071D01*
X146489476Y-99536309D01*
X146013285Y-99631547D01*
X147346619Y-99917261D02*
X147251380Y-99964880D01*
X147060904Y-99964880D01*
X146965666Y-99917261D01*
X146918047Y-99869642D01*
X146870428Y-99774404D01*
X146870428Y-99488690D01*
X146918047Y-99393452D01*
X146965666Y-99345833D01*
X147060904Y-99298214D01*
X147251380Y-99298214D01*
X147346619Y-99345833D01*
X147632333Y-99298214D02*
X148013285Y-99298214D01*
X147775190Y-98964880D02*
X147775190Y-99822023D01*
X147822809Y-99917261D01*
X147918047Y-99964880D01*
X148013285Y-99964880D01*
X159632333Y-99298214D02*
X160013285Y-99298214D01*
X159775190Y-98964880D02*
X159775190Y-99822023D01*
X159822809Y-99917261D01*
X159918047Y-99964880D01*
X160013285Y-99964880D01*
X160489476Y-99964880D02*
X160394238Y-99917261D01*
X160346619Y-99869642D01*
X160299000Y-99774404D01*
X160299000Y-99488690D01*
X160346619Y-99393452D01*
X160394238Y-99345833D01*
X160489476Y-99298214D01*
X160632333Y-99298214D01*
X160727571Y-99345833D01*
X160775190Y-99393452D01*
X160822809Y-99488690D01*
X160822809Y-99774404D01*
X160775190Y-99869642D01*
X160727571Y-99917261D01*
X160632333Y-99964880D01*
X160489476Y-99964880D01*
X135703761Y-101113690D02*
X135703761Y-101304166D01*
X135751380Y-101304166D02*
X135751380Y-101113690D01*
X135799000Y-101066071D02*
X135799000Y-101351785D01*
X135846619Y-101304166D02*
X135846619Y-101113690D01*
X135894238Y-101113690D02*
X135894238Y-101304166D01*
X135703761Y-101256547D02*
X135799000Y-101351785D01*
X135894238Y-101256547D01*
X135703761Y-101161309D02*
X135799000Y-101066071D01*
X135894238Y-101161309D01*
X135703761Y-101113690D02*
X135799000Y-101066071D01*
X135894238Y-101113690D01*
X135941857Y-101208928D01*
X135894238Y-101304166D01*
X135799000Y-101351785D01*
X135703761Y-101304166D01*
X135656142Y-101208928D01*
X135703761Y-101113690D01*
X137418047Y-101589880D02*
X137418047Y-100589880D01*
X137846619Y-101589880D02*
X137846619Y-101066071D01*
X137799000Y-100970833D01*
X137703761Y-100923214D01*
X137560904Y-100923214D01*
X137465666Y-100970833D01*
X137418047Y-101018452D01*
X138465666Y-101589880D02*
X138370428Y-101542261D01*
X138322809Y-101494642D01*
X138275190Y-101399404D01*
X138275190Y-101113690D01*
X138322809Y-101018452D01*
X138370428Y-100970833D01*
X138465666Y-100923214D01*
X138608523Y-100923214D01*
X138703761Y-100970833D01*
X138751380Y-101018452D01*
X138799000Y-101113690D01*
X138799000Y-101399404D01*
X138751380Y-101494642D01*
X138703761Y-101542261D01*
X138608523Y-101589880D01*
X138465666Y-101589880D01*
X139370428Y-101589880D02*
X139275190Y-101542261D01*
X139227571Y-101447023D01*
X139227571Y-100589880D01*
X140179952Y-101589880D02*
X140179952Y-100589880D01*
X140179952Y-101542261D02*
X140084714Y-101589880D01*
X139894238Y-101589880D01*
X139799000Y-101542261D01*
X139751380Y-101494642D01*
X139703761Y-101399404D01*
X139703761Y-101113690D01*
X139751380Y-101018452D01*
X139799000Y-100970833D01*
X139894238Y-100923214D01*
X140084714Y-100923214D01*
X140179952Y-100970833D01*
X146703761Y-100542261D02*
X145846619Y-101827976D01*
X153941857Y-101589880D02*
X153894238Y-101589880D01*
X153799000Y-101542261D01*
X153656142Y-101399404D01*
X153418047Y-101113690D01*
X153322809Y-100970833D01*
X153275190Y-100827976D01*
X153275190Y-100732738D01*
X153322809Y-100637500D01*
X153418047Y-100589880D01*
X153465666Y-100589880D01*
X153560904Y-100637500D01*
X153608523Y-100732738D01*
X153608523Y-100780357D01*
X153560904Y-100875595D01*
X153513285Y-100923214D01*
X153227571Y-101113690D01*
X153179952Y-101161309D01*
X153132333Y-101256547D01*
X153132333Y-101399404D01*
X153179952Y-101494642D01*
X153227571Y-101542261D01*
X153322809Y-101589880D01*
X153465666Y-101589880D01*
X153560904Y-101542261D01*
X153608523Y-101494642D01*
X153751380Y-101304166D01*
X153799000Y-101161309D01*
X153799000Y-101066071D01*
X155132333Y-100923214D02*
X155132333Y-101923214D01*
X155132333Y-100970833D02*
X155227571Y-100923214D01*
X155418047Y-100923214D01*
X155513285Y-100970833D01*
X155560904Y-101018452D01*
X155608523Y-101113690D01*
X155608523Y-101399404D01*
X155560904Y-101494642D01*
X155513285Y-101542261D01*
X155418047Y-101589880D01*
X155227571Y-101589880D01*
X155132333Y-101542261D01*
X156037095Y-101589880D02*
X156037095Y-100923214D01*
X156037095Y-101113690D02*
X156084714Y-101018452D01*
X156132333Y-100970833D01*
X156227571Y-100923214D01*
X156322809Y-100923214D01*
X157037095Y-101542261D02*
X156941857Y-101589880D01*
X156751380Y-101589880D01*
X156656142Y-101542261D01*
X156608523Y-101447023D01*
X156608523Y-101066071D01*
X156656142Y-100970833D01*
X156751380Y-100923214D01*
X156941857Y-100923214D01*
X157037095Y-100970833D01*
X157084714Y-101066071D01*
X157084714Y-101161309D01*
X156608523Y-101256547D01*
X157465666Y-101542261D02*
X157560904Y-101589880D01*
X157751380Y-101589880D01*
X157846619Y-101542261D01*
X157894238Y-101447023D01*
X157894238Y-101399404D01*
X157846619Y-101304166D01*
X157751380Y-101256547D01*
X157608523Y-101256547D01*
X157513285Y-101208928D01*
X157465666Y-101113690D01*
X157465666Y-101066071D01*
X157513285Y-100970833D01*
X157608523Y-100923214D01*
X157751380Y-100923214D01*
X157846619Y-100970833D01*
X158275190Y-101542261D02*
X158370428Y-101589880D01*
X158560904Y-101589880D01*
X158656142Y-101542261D01*
X158703761Y-101447023D01*
X158703761Y-101399404D01*
X158656142Y-101304166D01*
X158560904Y-101256547D01*
X158418047Y-101256547D01*
X158322809Y-101208928D01*
X158275190Y-101113690D01*
X158275190Y-101066071D01*
X158322809Y-100970833D01*
X158418047Y-100923214D01*
X158560904Y-100923214D01*
X158656142Y-100970833D01*
X163560904Y-100923214D02*
X163941857Y-100923214D01*
X163703761Y-100589880D02*
X163703761Y-101447023D01*
X163751380Y-101542261D01*
X163846619Y-101589880D01*
X163941857Y-101589880D01*
X164418047Y-101589880D02*
X164322809Y-101542261D01*
X164275190Y-101494642D01*
X164227571Y-101399404D01*
X164227571Y-101113690D01*
X164275190Y-101018452D01*
X164322809Y-100970833D01*
X164418047Y-100923214D01*
X164560904Y-100923214D01*
X164656142Y-100970833D01*
X164703761Y-101018452D01*
X164751380Y-101113690D01*
X164751380Y-101399404D01*
X164703761Y-101494642D01*
X164656142Y-101542261D01*
X164560904Y-101589880D01*
X164418047Y-101589880D01*
X165894238Y-101542261D02*
X165989476Y-101589880D01*
X166179952Y-101589880D01*
X166275190Y-101542261D01*
X166322809Y-101447023D01*
X166322809Y-101399404D01*
X166275190Y-101304166D01*
X166179952Y-101256547D01*
X166037095Y-101256547D01*
X165941857Y-101208928D01*
X165894238Y-101113690D01*
X165894238Y-101066071D01*
X165941857Y-100970833D01*
X166037095Y-100923214D01*
X166179952Y-100923214D01*
X166275190Y-100970833D01*
X167132333Y-101542261D02*
X167037095Y-101589880D01*
X166846619Y-101589880D01*
X166751380Y-101542261D01*
X166703761Y-101447023D01*
X166703761Y-101066071D01*
X166751380Y-100970833D01*
X166846619Y-100923214D01*
X167037095Y-100923214D01*
X167132333Y-100970833D01*
X167179952Y-101066071D01*
X167179952Y-101161309D01*
X166703761Y-101256547D01*
X167751380Y-101589880D02*
X167656142Y-101542261D01*
X167608523Y-101447023D01*
X167608523Y-100589880D01*
X168513285Y-101542261D02*
X168418047Y-101589880D01*
X168227571Y-101589880D01*
X168132333Y-101542261D01*
X168084714Y-101447023D01*
X168084714Y-101066071D01*
X168132333Y-100970833D01*
X168227571Y-100923214D01*
X168418047Y-100923214D01*
X168513285Y-100970833D01*
X168560904Y-101066071D01*
X168560904Y-101161309D01*
X168084714Y-101256547D01*
X169418047Y-101542261D02*
X169322809Y-101589880D01*
X169132333Y-101589880D01*
X169037095Y-101542261D01*
X168989476Y-101494642D01*
X168941857Y-101399404D01*
X168941857Y-101113690D01*
X168989476Y-101018452D01*
X169037095Y-100970833D01*
X169132333Y-100923214D01*
X169322809Y-100923214D01*
X169418047Y-100970833D01*
X169703761Y-100923214D02*
X170084714Y-100923214D01*
X169846619Y-100589880D02*
X169846619Y-101447023D01*
X169894238Y-101542261D01*
X169989476Y-101589880D01*
X170084714Y-101589880D01*
X171894238Y-101542261D02*
X172037095Y-101589880D01*
X172275190Y-101589880D01*
X172370428Y-101542261D01*
X172418047Y-101494642D01*
X172465666Y-101399404D01*
X172465666Y-101304166D01*
X172418047Y-101208928D01*
X172370428Y-101161309D01*
X172275190Y-101113690D01*
X172084714Y-101066071D01*
X171989476Y-101018452D01*
X171941857Y-100970833D01*
X171894238Y-100875595D01*
X171894238Y-100780357D01*
X171941857Y-100685119D01*
X171989476Y-100637500D01*
X172084714Y-100589880D01*
X172322809Y-100589880D01*
X172465666Y-100637500D01*
X173084714Y-101113690D02*
X173084714Y-101589880D01*
X172751380Y-100589880D02*
X173084714Y-101113690D01*
X173418047Y-100589880D01*
X174179952Y-100923214D02*
X174179952Y-101589880D01*
X173941857Y-100542261D02*
X173703761Y-101256547D01*
X174322809Y-101256547D01*
X148918047Y-102738690D02*
X148918047Y-102929166D01*
X148965666Y-102929166D02*
X148965666Y-102738690D01*
X149013285Y-102691071D02*
X149013285Y-102976785D01*
X149060904Y-102929166D02*
X149060904Y-102738690D01*
X149108523Y-102738690D02*
X149108523Y-102929166D01*
X148918047Y-102881547D02*
X149013285Y-102976785D01*
X149108523Y-102881547D01*
X148918047Y-102786309D02*
X149013285Y-102691071D01*
X149108523Y-102786309D01*
X148918047Y-102738690D02*
X149013285Y-102691071D01*
X149108523Y-102738690D01*
X149156142Y-102833928D01*
X149108523Y-102929166D01*
X149013285Y-102976785D01*
X148918047Y-102929166D01*
X148870428Y-102833928D01*
X148918047Y-102738690D01*
X150632333Y-102548214D02*
X150632333Y-103548214D01*
X150632333Y-102595833D02*
X150727571Y-102548214D01*
X150918047Y-102548214D01*
X151013285Y-102595833D01*
X151060904Y-102643452D01*
X151108523Y-102738690D01*
X151108523Y-103024404D01*
X151060904Y-103119642D01*
X151013285Y-103167261D01*
X150918047Y-103214880D01*
X150727571Y-103214880D01*
X150632333Y-103167261D01*
X151537095Y-103214880D02*
X151537095Y-102548214D01*
X151537095Y-102738690D02*
X151584714Y-102643452D01*
X151632333Y-102595833D01*
X151727571Y-102548214D01*
X151822809Y-102548214D01*
X152537095Y-103167261D02*
X152441857Y-103214880D01*
X152251380Y-103214880D01*
X152156142Y-103167261D01*
X152108523Y-103072023D01*
X152108523Y-102691071D01*
X152156142Y-102595833D01*
X152251380Y-102548214D01*
X152441857Y-102548214D01*
X152537095Y-102595833D01*
X152584714Y-102691071D01*
X152584714Y-102786309D01*
X152108523Y-102881547D01*
X152965666Y-103167261D02*
X153060904Y-103214880D01*
X153251380Y-103214880D01*
X153346619Y-103167261D01*
X153394238Y-103072023D01*
X153394238Y-103024404D01*
X153346619Y-102929166D01*
X153251380Y-102881547D01*
X153108523Y-102881547D01*
X153013285Y-102833928D01*
X152965666Y-102738690D01*
X152965666Y-102691071D01*
X153013285Y-102595833D01*
X153108523Y-102548214D01*
X153251380Y-102548214D01*
X153346619Y-102595833D01*
X153775190Y-103167261D02*
X153870428Y-103214880D01*
X154060904Y-103214880D01*
X154156142Y-103167261D01*
X154203761Y-103072023D01*
X154203761Y-103024404D01*
X154156142Y-102929166D01*
X154060904Y-102881547D01*
X153918047Y-102881547D01*
X153822809Y-102833928D01*
X153775190Y-102738690D01*
X153775190Y-102691071D01*
X153822809Y-102595833D01*
X153918047Y-102548214D01*
X154060904Y-102548214D01*
X154156142Y-102595833D01*
X133370428Y-104363690D02*
X133370428Y-104554166D01*
X133418047Y-104554166D02*
X133418047Y-104363690D01*
X133465666Y-104316071D02*
X133465666Y-104601785D01*
X133513285Y-104554166D02*
X133513285Y-104363690D01*
X133560904Y-104363690D02*
X133560904Y-104554166D01*
X133370428Y-104506547D02*
X133465666Y-104601785D01*
X133560904Y-104506547D01*
X133370428Y-104411309D02*
X133465666Y-104316071D01*
X133560904Y-104411309D01*
X133370428Y-104363690D02*
X133465666Y-104316071D01*
X133560904Y-104363690D01*
X133608523Y-104458928D01*
X133560904Y-104554166D01*
X133465666Y-104601785D01*
X133370428Y-104554166D01*
X133322809Y-104458928D01*
X133370428Y-104363690D01*
X135084714Y-104839880D02*
X135084714Y-103839880D01*
X135513285Y-104839880D02*
X135513285Y-104316071D01*
X135465666Y-104220833D01*
X135370428Y-104173214D01*
X135227571Y-104173214D01*
X135132333Y-104220833D01*
X135084714Y-104268452D01*
X136132333Y-104839880D02*
X136037095Y-104792261D01*
X135989476Y-104744642D01*
X135941857Y-104649404D01*
X135941857Y-104363690D01*
X135989476Y-104268452D01*
X136037095Y-104220833D01*
X136132333Y-104173214D01*
X136275190Y-104173214D01*
X136370428Y-104220833D01*
X136418047Y-104268452D01*
X136465666Y-104363690D01*
X136465666Y-104649404D01*
X136418047Y-104744642D01*
X136370428Y-104792261D01*
X136275190Y-104839880D01*
X136132333Y-104839880D01*
X137037095Y-104839880D02*
X136941857Y-104792261D01*
X136894238Y-104697023D01*
X136894238Y-103839880D01*
X137846619Y-104839880D02*
X137846619Y-103839880D01*
X137846619Y-104792261D02*
X137751380Y-104839880D01*
X137560904Y-104839880D01*
X137465666Y-104792261D01*
X137418047Y-104744642D01*
X137370428Y-104649404D01*
X137370428Y-104363690D01*
X137418047Y-104268452D01*
X137465666Y-104220833D01*
X137560904Y-104173214D01*
X137751380Y-104173214D01*
X137846619Y-104220833D01*
X139465666Y-104792261D02*
X139370428Y-104839880D01*
X139179952Y-104839880D01*
X139084714Y-104792261D01*
X139037095Y-104697023D01*
X139037095Y-104316071D01*
X139084714Y-104220833D01*
X139179952Y-104173214D01*
X139370428Y-104173214D01*
X139465666Y-104220833D01*
X139513285Y-104316071D01*
X139513285Y-104411309D01*
X139037095Y-104506547D01*
X139941857Y-104839880D02*
X139941857Y-104173214D01*
X139941857Y-103839880D02*
X139894238Y-103887500D01*
X139941857Y-103935119D01*
X139989476Y-103887500D01*
X139941857Y-103839880D01*
X139941857Y-103935119D01*
X140275190Y-104173214D02*
X140656142Y-104173214D01*
X140418047Y-103839880D02*
X140418047Y-104697023D01*
X140465666Y-104792261D01*
X140560904Y-104839880D01*
X140656142Y-104839880D01*
X140989476Y-104839880D02*
X140989476Y-103839880D01*
X141418047Y-104839880D02*
X141418047Y-104316071D01*
X141370428Y-104220833D01*
X141275190Y-104173214D01*
X141132333Y-104173214D01*
X141037095Y-104220833D01*
X140989476Y-104268452D01*
X142275190Y-104792261D02*
X142179952Y-104839880D01*
X141989476Y-104839880D01*
X141894238Y-104792261D01*
X141846619Y-104697023D01*
X141846619Y-104316071D01*
X141894238Y-104220833D01*
X141989476Y-104173214D01*
X142179952Y-104173214D01*
X142275190Y-104220833D01*
X142322809Y-104316071D01*
X142322809Y-104411309D01*
X141846619Y-104506547D01*
X142751380Y-104839880D02*
X142751380Y-104173214D01*
X142751380Y-104363690D02*
X142799000Y-104268452D01*
X142846619Y-104220833D01*
X142941857Y-104173214D01*
X143037095Y-104173214D01*
X144084714Y-104792261D02*
X144179952Y-104839880D01*
X144370428Y-104839880D01*
X144465666Y-104792261D01*
X144513285Y-104697023D01*
X144513285Y-104649404D01*
X144465666Y-104554166D01*
X144370428Y-104506547D01*
X144227571Y-104506547D01*
X144132333Y-104458928D01*
X144084714Y-104363690D01*
X144084714Y-104316071D01*
X144132333Y-104220833D01*
X144227571Y-104173214D01*
X144370428Y-104173214D01*
X144465666Y-104220833D01*
X144941857Y-104839880D02*
X144941857Y-104173214D01*
X144941857Y-103839880D02*
X144894238Y-103887500D01*
X144941857Y-103935119D01*
X144989476Y-103887500D01*
X144941857Y-103839880D01*
X144941857Y-103935119D01*
X145846619Y-104839880D02*
X145846619Y-103839880D01*
X145846619Y-104792261D02*
X145751380Y-104839880D01*
X145560904Y-104839880D01*
X145465666Y-104792261D01*
X145418047Y-104744642D01*
X145370428Y-104649404D01*
X145370428Y-104363690D01*
X145418047Y-104268452D01*
X145465666Y-104220833D01*
X145560904Y-104173214D01*
X145751380Y-104173214D01*
X145846619Y-104220833D01*
X146703761Y-104792261D02*
X146608523Y-104839880D01*
X146418047Y-104839880D01*
X146322809Y-104792261D01*
X146275190Y-104697023D01*
X146275190Y-104316071D01*
X146322809Y-104220833D01*
X146418047Y-104173214D01*
X146608523Y-104173214D01*
X146703761Y-104220833D01*
X146751380Y-104316071D01*
X146751380Y-104411309D01*
X146275190Y-104506547D01*
X147941857Y-104839880D02*
X147941857Y-103839880D01*
X147941857Y-104220833D02*
X148037095Y-104173214D01*
X148227571Y-104173214D01*
X148322809Y-104220833D01*
X148370428Y-104268452D01*
X148418047Y-104363690D01*
X148418047Y-104649404D01*
X148370428Y-104744642D01*
X148322809Y-104792261D01*
X148227571Y-104839880D01*
X148037095Y-104839880D01*
X147941857Y-104792261D01*
X149275190Y-104173214D02*
X149275190Y-104839880D01*
X148846619Y-104173214D02*
X148846619Y-104697023D01*
X148894238Y-104792261D01*
X148989476Y-104839880D01*
X149132333Y-104839880D01*
X149227571Y-104792261D01*
X149275190Y-104744642D01*
X149608523Y-104173214D02*
X149989476Y-104173214D01*
X149751380Y-103839880D02*
X149751380Y-104697023D01*
X149799000Y-104792261D01*
X149894238Y-104839880D01*
X149989476Y-104839880D01*
X150179952Y-104173214D02*
X150560904Y-104173214D01*
X150322809Y-103839880D02*
X150322809Y-104697023D01*
X150370428Y-104792261D01*
X150465666Y-104839880D01*
X150560904Y-104839880D01*
X151037095Y-104839880D02*
X150941857Y-104792261D01*
X150894238Y-104744642D01*
X150846619Y-104649404D01*
X150846619Y-104363690D01*
X150894238Y-104268452D01*
X150941857Y-104220833D01*
X151037095Y-104173214D01*
X151179952Y-104173214D01*
X151275190Y-104220833D01*
X151322809Y-104268452D01*
X151370428Y-104363690D01*
X151370428Y-104649404D01*
X151322809Y-104744642D01*
X151275190Y-104792261D01*
X151179952Y-104839880D01*
X151037095Y-104839880D01*
X151799000Y-104173214D02*
X151799000Y-104839880D01*
X151799000Y-104268452D02*
X151846619Y-104220833D01*
X151941857Y-104173214D01*
X152084714Y-104173214D01*
X152179952Y-104220833D01*
X152227571Y-104316071D01*
X152227571Y-104839880D01*
X153894238Y-104839880D02*
X153894238Y-104316071D01*
X153846619Y-104220833D01*
X153751380Y-104173214D01*
X153560904Y-104173214D01*
X153465666Y-104220833D01*
X153894238Y-104792261D02*
X153799000Y-104839880D01*
X153560904Y-104839880D01*
X153465666Y-104792261D01*
X153418047Y-104697023D01*
X153418047Y-104601785D01*
X153465666Y-104506547D01*
X153560904Y-104458928D01*
X153799000Y-104458928D01*
X153894238Y-104411309D01*
X154370428Y-104173214D02*
X154370428Y-104839880D01*
X154370428Y-104268452D02*
X154418047Y-104220833D01*
X154513285Y-104173214D01*
X154656142Y-104173214D01*
X154751380Y-104220833D01*
X154799000Y-104316071D01*
X154799000Y-104839880D01*
X155703761Y-104839880D02*
X155703761Y-103839880D01*
X155703761Y-104792261D02*
X155608523Y-104839880D01*
X155418047Y-104839880D01*
X155322809Y-104792261D01*
X155275190Y-104744642D01*
X155227571Y-104649404D01*
X155227571Y-104363690D01*
X155275190Y-104268452D01*
X155322809Y-104220833D01*
X155418047Y-104173214D01*
X155608523Y-104173214D01*
X155703761Y-104220833D01*
X156799000Y-104173214D02*
X157179952Y-104173214D01*
X156941857Y-103839880D02*
X156941857Y-104697023D01*
X156989476Y-104792261D01*
X157084714Y-104839880D01*
X157179952Y-104839880D01*
X157941857Y-104839880D02*
X157941857Y-104316071D01*
X157894238Y-104220833D01*
X157798999Y-104173214D01*
X157608523Y-104173214D01*
X157513285Y-104220833D01*
X157941857Y-104792261D02*
X157846619Y-104839880D01*
X157608523Y-104839880D01*
X157513285Y-104792261D01*
X157465666Y-104697023D01*
X157465666Y-104601785D01*
X157513285Y-104506547D01*
X157608523Y-104458928D01*
X157846619Y-104458928D01*
X157941857Y-104411309D01*
X158418047Y-104173214D02*
X158418047Y-105173214D01*
X158418047Y-104220833D02*
X158513285Y-104173214D01*
X158703761Y-104173214D01*
X158798999Y-104220833D01*
X158846619Y-104268452D01*
X158894238Y-104363690D01*
X158894238Y-104649404D01*
X158846619Y-104744642D01*
X158798999Y-104792261D01*
X158703761Y-104839880D01*
X158513285Y-104839880D01*
X158418047Y-104792261D01*
X159941857Y-104173214D02*
X160322809Y-104173214D01*
X160084714Y-103839880D02*
X160084714Y-104697023D01*
X160132333Y-104792261D01*
X160227571Y-104839880D01*
X160322809Y-104839880D01*
X160798999Y-104839880D02*
X160703761Y-104792261D01*
X160656142Y-104744642D01*
X160608523Y-104649404D01*
X160608523Y-104363690D01*
X160656142Y-104268452D01*
X160703761Y-104220833D01*
X160798999Y-104173214D01*
X160941857Y-104173214D01*
X161037095Y-104220833D01*
X161084714Y-104268452D01*
X161132333Y-104363690D01*
X161132333Y-104649404D01*
X161084714Y-104744642D01*
X161037095Y-104792261D01*
X160941857Y-104839880D01*
X160798999Y-104839880D01*
X162751380Y-104839880D02*
X162751380Y-104316071D01*
X162703761Y-104220833D01*
X162608523Y-104173214D01*
X162418047Y-104173214D01*
X162322809Y-104220833D01*
X162751380Y-104792261D02*
X162656142Y-104839880D01*
X162418047Y-104839880D01*
X162322809Y-104792261D01*
X162275190Y-104697023D01*
X162275190Y-104601785D01*
X162322809Y-104506547D01*
X162418047Y-104458928D01*
X162656142Y-104458928D01*
X162751380Y-104411309D01*
X163656142Y-104839880D02*
X163656142Y-103839880D01*
X163656142Y-104792261D02*
X163560904Y-104839880D01*
X163370428Y-104839880D01*
X163275190Y-104792261D01*
X163227571Y-104744642D01*
X163179952Y-104649404D01*
X163179952Y-104363690D01*
X163227571Y-104268452D01*
X163275190Y-104220833D01*
X163370428Y-104173214D01*
X163560904Y-104173214D01*
X163656142Y-104220833D01*
X164132333Y-104173214D02*
X164132333Y-105030357D01*
X164084714Y-105125595D01*
X163989476Y-105173214D01*
X163941857Y-105173214D01*
X164132333Y-103839880D02*
X164084714Y-103887500D01*
X164132333Y-103935119D01*
X164179952Y-103887500D01*
X164132333Y-103839880D01*
X164132333Y-103935119D01*
X165037095Y-104173214D02*
X165037095Y-104839880D01*
X164608523Y-104173214D02*
X164608523Y-104697023D01*
X164656142Y-104792261D01*
X164751380Y-104839880D01*
X164894238Y-104839880D01*
X164989476Y-104792261D01*
X165037095Y-104744642D01*
X165465666Y-104792261D02*
X165560904Y-104839880D01*
X165751380Y-104839880D01*
X165846619Y-104792261D01*
X165894238Y-104697023D01*
X165894238Y-104649404D01*
X165846619Y-104554166D01*
X165751380Y-104506547D01*
X165608523Y-104506547D01*
X165513285Y-104458928D01*
X165465666Y-104363690D01*
X165465666Y-104316071D01*
X165513285Y-104220833D01*
X165608523Y-104173214D01*
X165751380Y-104173214D01*
X165846619Y-104220833D01*
X166179952Y-104173214D02*
X166560904Y-104173214D01*
X166322809Y-103839880D02*
X166322809Y-104697023D01*
X166370428Y-104792261D01*
X166465666Y-104839880D01*
X166560904Y-104839880D01*
X167513285Y-104173214D02*
X167894238Y-104173214D01*
X167656142Y-103839880D02*
X167656142Y-104697023D01*
X167703761Y-104792261D01*
X167798999Y-104839880D01*
X167894238Y-104839880D01*
X168227571Y-104839880D02*
X168227571Y-103839880D01*
X168656142Y-104839880D02*
X168656142Y-104316071D01*
X168608523Y-104220833D01*
X168513285Y-104173214D01*
X168370428Y-104173214D01*
X168275190Y-104220833D01*
X168227571Y-104268452D01*
X169513285Y-104792261D02*
X169418047Y-104839880D01*
X169227571Y-104839880D01*
X169132333Y-104792261D01*
X169084714Y-104697023D01*
X169084714Y-104316071D01*
X169132333Y-104220833D01*
X169227571Y-104173214D01*
X169418047Y-104173214D01*
X169513285Y-104220833D01*
X169560904Y-104316071D01*
X169560904Y-104411309D01*
X169084714Y-104506547D01*
X170751380Y-104839880D02*
X170751380Y-103839880D01*
X170751380Y-104220833D02*
X170846619Y-104173214D01*
X171037095Y-104173214D01*
X171132333Y-104220833D01*
X171179952Y-104268452D01*
X171227571Y-104363690D01*
X171227571Y-104649404D01*
X171179952Y-104744642D01*
X171132333Y-104792261D01*
X171037095Y-104839880D01*
X170846619Y-104839880D01*
X170751380Y-104792261D01*
X172037095Y-104792261D02*
X171941857Y-104839880D01*
X171751380Y-104839880D01*
X171656142Y-104792261D01*
X171608523Y-104697023D01*
X171608523Y-104316071D01*
X171656142Y-104220833D01*
X171751380Y-104173214D01*
X171941857Y-104173214D01*
X172037095Y-104220833D01*
X172084714Y-104316071D01*
X172084714Y-104411309D01*
X171608523Y-104506547D01*
X172941857Y-104839880D02*
X172941857Y-104316071D01*
X172894238Y-104220833D01*
X172798999Y-104173214D01*
X172608523Y-104173214D01*
X172513285Y-104220833D01*
X172941857Y-104792261D02*
X172846619Y-104839880D01*
X172608523Y-104839880D01*
X172513285Y-104792261D01*
X172465666Y-104697023D01*
X172465666Y-104601785D01*
X172513285Y-104506547D01*
X172608523Y-104458928D01*
X172846619Y-104458928D01*
X172941857Y-104411309D01*
X173275190Y-104173214D02*
X173656142Y-104173214D01*
X173418047Y-103839880D02*
X173418047Y-104697023D01*
X173465666Y-104792261D01*
X173560904Y-104839880D01*
X173656142Y-104839880D01*
X137822809Y-105988690D02*
X137822809Y-106179166D01*
X137870428Y-106179166D02*
X137870428Y-105988690D01*
X137918047Y-105941071D02*
X137918047Y-106226785D01*
X137965666Y-106179166D02*
X137965666Y-105988690D01*
X138013285Y-105988690D02*
X138013285Y-106179166D01*
X137822809Y-106131547D02*
X137918047Y-106226785D01*
X138013285Y-106131547D01*
X137822809Y-106036309D02*
X137918047Y-105941071D01*
X138013285Y-106036309D01*
X137822809Y-105988690D02*
X137918047Y-105941071D01*
X138013285Y-105988690D01*
X138060904Y-106083928D01*
X138013285Y-106179166D01*
X137918047Y-106226785D01*
X137822809Y-106179166D01*
X137775190Y-106083928D01*
X137822809Y-105988690D01*
X139537095Y-106464880D02*
X139537095Y-105464880D01*
X139965666Y-106464880D02*
X139965666Y-105941071D01*
X139918047Y-105845833D01*
X139822809Y-105798214D01*
X139679952Y-105798214D01*
X139584714Y-105845833D01*
X139537095Y-105893452D01*
X140584714Y-106464880D02*
X140489476Y-106417261D01*
X140441857Y-106369642D01*
X140394238Y-106274404D01*
X140394238Y-105988690D01*
X140441857Y-105893452D01*
X140489476Y-105845833D01*
X140584714Y-105798214D01*
X140727571Y-105798214D01*
X140822809Y-105845833D01*
X140870428Y-105893452D01*
X140918047Y-105988690D01*
X140918047Y-106274404D01*
X140870428Y-106369642D01*
X140822809Y-106417261D01*
X140727571Y-106464880D01*
X140584714Y-106464880D01*
X141489476Y-106464880D02*
X141394238Y-106417261D01*
X141346619Y-106322023D01*
X141346619Y-105464880D01*
X142299000Y-106464880D02*
X142299000Y-105464880D01*
X142299000Y-106417261D02*
X142203761Y-106464880D01*
X142013285Y-106464880D01*
X141918047Y-106417261D01*
X141870428Y-106369642D01*
X141822809Y-106274404D01*
X141822809Y-105988690D01*
X141870428Y-105893452D01*
X141918047Y-105845833D01*
X142013285Y-105798214D01*
X142203761Y-105798214D01*
X142299000Y-105845833D01*
X143537095Y-106464880D02*
X143537095Y-105464880D01*
X143537095Y-105845833D02*
X143632333Y-105798214D01*
X143822809Y-105798214D01*
X143918047Y-105845833D01*
X143965666Y-105893452D01*
X144013285Y-105988690D01*
X144013285Y-106274404D01*
X143965666Y-106369642D01*
X143918047Y-106417261D01*
X143822809Y-106464880D01*
X143632333Y-106464880D01*
X143537095Y-106417261D01*
X144584714Y-106464880D02*
X144489476Y-106417261D01*
X144441857Y-106369642D01*
X144394238Y-106274404D01*
X144394238Y-105988690D01*
X144441857Y-105893452D01*
X144489476Y-105845833D01*
X144584714Y-105798214D01*
X144727571Y-105798214D01*
X144822809Y-105845833D01*
X144870428Y-105893452D01*
X144918047Y-105988690D01*
X144918047Y-106274404D01*
X144870428Y-106369642D01*
X144822809Y-106417261D01*
X144727571Y-106464880D01*
X144584714Y-106464880D01*
X145203761Y-105798214D02*
X145584714Y-105798214D01*
X145346619Y-105464880D02*
X145346619Y-106322023D01*
X145394238Y-106417261D01*
X145489476Y-106464880D01*
X145584714Y-106464880D01*
X145918047Y-106464880D02*
X145918047Y-105464880D01*
X146346619Y-106464880D02*
X146346619Y-105941071D01*
X146299000Y-105845833D01*
X146203761Y-105798214D01*
X146060904Y-105798214D01*
X145965666Y-105845833D01*
X145918047Y-105893452D01*
X147537095Y-106417261D02*
X147632333Y-106464880D01*
X147822809Y-106464880D01*
X147918047Y-106417261D01*
X147965666Y-106322023D01*
X147965666Y-106274404D01*
X147918047Y-106179166D01*
X147822809Y-106131547D01*
X147679952Y-106131547D01*
X147584714Y-106083928D01*
X147537095Y-105988690D01*
X147537095Y-105941071D01*
X147584714Y-105845833D01*
X147679952Y-105798214D01*
X147822809Y-105798214D01*
X147918047Y-105845833D01*
X148394238Y-106464880D02*
X148394238Y-105798214D01*
X148394238Y-105464880D02*
X148346619Y-105512500D01*
X148394238Y-105560119D01*
X148441857Y-105512500D01*
X148394238Y-105464880D01*
X148394238Y-105560119D01*
X149299000Y-106464880D02*
X149299000Y-105464880D01*
X149299000Y-106417261D02*
X149203761Y-106464880D01*
X149013285Y-106464880D01*
X148918047Y-106417261D01*
X148870428Y-106369642D01*
X148822809Y-106274404D01*
X148822809Y-105988690D01*
X148870428Y-105893452D01*
X148918047Y-105845833D01*
X149013285Y-105798214D01*
X149203761Y-105798214D01*
X149299000Y-105845833D01*
X150156142Y-106417261D02*
X150060904Y-106464880D01*
X149870428Y-106464880D01*
X149775190Y-106417261D01*
X149727571Y-106322023D01*
X149727571Y-105941071D01*
X149775190Y-105845833D01*
X149870428Y-105798214D01*
X150060904Y-105798214D01*
X150156142Y-105845833D01*
X150203761Y-105941071D01*
X150203761Y-106036309D01*
X149727571Y-106131547D01*
X151394238Y-106464880D02*
X151394238Y-105464880D01*
X151394238Y-105845833D02*
X151489476Y-105798214D01*
X151679952Y-105798214D01*
X151775190Y-105845833D01*
X151822809Y-105893452D01*
X151870428Y-105988690D01*
X151870428Y-106274404D01*
X151822809Y-106369642D01*
X151775190Y-106417261D01*
X151679952Y-106464880D01*
X151489476Y-106464880D01*
X151394238Y-106417261D01*
X152727571Y-105798214D02*
X152727571Y-106464880D01*
X152299000Y-105798214D02*
X152299000Y-106322023D01*
X152346619Y-106417261D01*
X152441857Y-106464880D01*
X152584714Y-106464880D01*
X152679952Y-106417261D01*
X152727571Y-106369642D01*
X153060904Y-105798214D02*
X153441857Y-105798214D01*
X153203761Y-105464880D02*
X153203761Y-106322023D01*
X153251380Y-106417261D01*
X153346619Y-106464880D01*
X153441857Y-106464880D01*
X153632333Y-105798214D02*
X154013285Y-105798214D01*
X153775190Y-105464880D02*
X153775190Y-106322023D01*
X153822809Y-106417261D01*
X153918047Y-106464880D01*
X154013285Y-106464880D01*
X154489476Y-106464880D02*
X154394238Y-106417261D01*
X154346619Y-106369642D01*
X154299000Y-106274404D01*
X154299000Y-105988690D01*
X154346619Y-105893452D01*
X154394238Y-105845833D01*
X154489476Y-105798214D01*
X154632333Y-105798214D01*
X154727571Y-105845833D01*
X154775190Y-105893452D01*
X154822809Y-105988690D01*
X154822809Y-106274404D01*
X154775190Y-106369642D01*
X154727571Y-106417261D01*
X154632333Y-106464880D01*
X154489476Y-106464880D01*
X155251380Y-105798214D02*
X155251380Y-106464880D01*
X155251380Y-105893452D02*
X155299000Y-105845833D01*
X155394238Y-105798214D01*
X155537095Y-105798214D01*
X155632333Y-105845833D01*
X155679952Y-105941071D01*
X155679952Y-106464880D01*
X156108523Y-106417261D02*
X156203761Y-106464880D01*
X156394238Y-106464880D01*
X156489476Y-106417261D01*
X156537095Y-106322023D01*
X156537095Y-106274404D01*
X156489476Y-106179166D01*
X156394238Y-106131547D01*
X156251380Y-106131547D01*
X156156142Y-106083928D01*
X156108523Y-105988690D01*
X156108523Y-105941071D01*
X156156142Y-105845833D01*
X156251380Y-105798214D01*
X156394238Y-105798214D01*
X156489476Y-105845833D01*
X157584714Y-105798214D02*
X157965666Y-105798214D01*
X157727571Y-105464880D02*
X157727571Y-106322023D01*
X157775190Y-106417261D01*
X157870428Y-106464880D01*
X157965666Y-106464880D01*
X158441857Y-106464880D02*
X158346619Y-106417261D01*
X158299000Y-106369642D01*
X158251380Y-106274404D01*
X158251380Y-105988690D01*
X158299000Y-105893452D01*
X158346619Y-105845833D01*
X158441857Y-105798214D01*
X158584714Y-105798214D01*
X158679952Y-105845833D01*
X158727571Y-105893452D01*
X158775190Y-105988690D01*
X158775190Y-106274404D01*
X158727571Y-106369642D01*
X158679952Y-106417261D01*
X158584714Y-106464880D01*
X158441857Y-106464880D01*
X159822809Y-105798214D02*
X160203761Y-105798214D01*
X159965666Y-105464880D02*
X159965666Y-106322023D01*
X160013285Y-106417261D01*
X160108523Y-106464880D01*
X160203761Y-106464880D01*
X160965666Y-106464880D02*
X160965666Y-105941071D01*
X160918047Y-105845833D01*
X160822809Y-105798214D01*
X160632333Y-105798214D01*
X160537095Y-105845833D01*
X160965666Y-106417261D02*
X160870428Y-106464880D01*
X160632333Y-106464880D01*
X160537095Y-106417261D01*
X160489476Y-106322023D01*
X160489476Y-106226785D01*
X160537095Y-106131547D01*
X160632333Y-106083928D01*
X160870428Y-106083928D01*
X160965666Y-106036309D01*
X161441857Y-105798214D02*
X161441857Y-106798214D01*
X161441857Y-105845833D02*
X161537095Y-105798214D01*
X161727571Y-105798214D01*
X161822809Y-105845833D01*
X161870428Y-105893452D01*
X161918047Y-105988690D01*
X161918047Y-106274404D01*
X161870428Y-106369642D01*
X161822809Y-106417261D01*
X161727571Y-106464880D01*
X161537095Y-106464880D01*
X161441857Y-106417261D01*
X163251380Y-106464880D02*
X163156142Y-106417261D01*
X163108523Y-106369642D01*
X163060904Y-106274404D01*
X163060904Y-105988690D01*
X163108523Y-105893452D01*
X163156142Y-105845833D01*
X163251380Y-105798214D01*
X163394238Y-105798214D01*
X163489476Y-105845833D01*
X163537095Y-105893452D01*
X163584714Y-105988690D01*
X163584714Y-106274404D01*
X163537095Y-106369642D01*
X163489476Y-106417261D01*
X163394238Y-106464880D01*
X163251380Y-106464880D01*
X164441857Y-105798214D02*
X164441857Y-106464880D01*
X164013285Y-105798214D02*
X164013285Y-106322023D01*
X164060904Y-106417261D01*
X164156142Y-106464880D01*
X164298999Y-106464880D01*
X164394238Y-106417261D01*
X164441857Y-106369642D01*
X164775190Y-105798214D02*
X165156142Y-105798214D01*
X164918047Y-105464880D02*
X164918047Y-106322023D01*
X164965666Y-106417261D01*
X165060904Y-106464880D01*
X165156142Y-106464880D01*
X166632333Y-106417261D02*
X166537095Y-106464880D01*
X166346619Y-106464880D01*
X166251380Y-106417261D01*
X166203761Y-106322023D01*
X166203761Y-105941071D01*
X166251380Y-105845833D01*
X166346619Y-105798214D01*
X166537095Y-105798214D01*
X166632333Y-105845833D01*
X166679952Y-105941071D01*
X166679952Y-106036309D01*
X166203761Y-106131547D01*
X167013285Y-105798214D02*
X167251380Y-106464880D01*
X167489476Y-105798214D01*
X168251380Y-106417261D02*
X168156142Y-106464880D01*
X167965666Y-106464880D01*
X167870428Y-106417261D01*
X167822809Y-106322023D01*
X167822809Y-105941071D01*
X167870428Y-105845833D01*
X167965666Y-105798214D01*
X168156142Y-105798214D01*
X168251380Y-105845833D01*
X168298999Y-105941071D01*
X168298999Y-106036309D01*
X167822809Y-106131547D01*
X168727571Y-106464880D02*
X168727571Y-105798214D01*
X168727571Y-105988690D02*
X168775190Y-105893452D01*
X168822809Y-105845833D01*
X168918047Y-105798214D01*
X169013285Y-105798214D01*
X169251380Y-105798214D02*
X169489476Y-106464880D01*
X169727571Y-105798214D02*
X169489476Y-106464880D01*
X169394238Y-106702976D01*
X169346619Y-106750595D01*
X169251380Y-106798214D01*
X170870428Y-106464880D02*
X170870428Y-105464880D01*
X170870428Y-105845833D02*
X170965666Y-105798214D01*
X171156142Y-105798214D01*
X171251380Y-105845833D01*
X171298999Y-105893452D01*
X171346619Y-105988690D01*
X171346619Y-106274404D01*
X171298999Y-106369642D01*
X171251380Y-106417261D01*
X171156142Y-106464880D01*
X170965666Y-106464880D01*
X170870428Y-106417261D01*
X172156142Y-106417261D02*
X172060904Y-106464880D01*
X171870428Y-106464880D01*
X171775190Y-106417261D01*
X171727571Y-106322023D01*
X171727571Y-105941071D01*
X171775190Y-105845833D01*
X171870428Y-105798214D01*
X172060904Y-105798214D01*
X172156142Y-105845833D01*
X172203761Y-105941071D01*
X172203761Y-106036309D01*
X171727571Y-106131547D01*
X173060904Y-106464880D02*
X173060904Y-105941071D01*
X173013285Y-105845833D01*
X172918047Y-105798214D01*
X172727571Y-105798214D01*
X172632333Y-105845833D01*
X173060904Y-106417261D02*
X172965666Y-106464880D01*
X172727571Y-106464880D01*
X172632333Y-106417261D01*
X172584714Y-106322023D01*
X172584714Y-106226785D01*
X172632333Y-106131547D01*
X172727571Y-106083928D01*
X172965666Y-106083928D01*
X173060904Y-106036309D01*
X173394238Y-105798214D02*
X173775190Y-105798214D01*
X173537095Y-105464880D02*
X173537095Y-106322023D01*
X173584714Y-106417261D01*
X173679952Y-106464880D01*
X173775190Y-106464880D01*
X143370428Y-107613690D02*
X143370428Y-107804166D01*
X143418047Y-107804166D02*
X143418047Y-107613690D01*
X143465666Y-107566071D02*
X143465666Y-107851785D01*
X143513285Y-107804166D02*
X143513285Y-107613690D01*
X143560904Y-107613690D02*
X143560904Y-107804166D01*
X143370428Y-107756547D02*
X143465666Y-107851785D01*
X143560904Y-107756547D01*
X143370428Y-107661309D02*
X143465666Y-107566071D01*
X143560904Y-107661309D01*
X143370428Y-107613690D02*
X143465666Y-107566071D01*
X143560904Y-107613690D01*
X143608523Y-107708928D01*
X143560904Y-107804166D01*
X143465666Y-107851785D01*
X143370428Y-107804166D01*
X143322809Y-107708928D01*
X143370428Y-107613690D01*
X145513285Y-108089880D02*
X145513285Y-107089880D01*
X145513285Y-108042261D02*
X145418047Y-108089880D01*
X145227571Y-108089880D01*
X145132333Y-108042261D01*
X145084714Y-107994642D01*
X145037095Y-107899404D01*
X145037095Y-107613690D01*
X145084714Y-107518452D01*
X145132333Y-107470833D01*
X145227571Y-107423214D01*
X145418047Y-107423214D01*
X145513285Y-107470833D01*
X146418047Y-108089880D02*
X146418047Y-107566071D01*
X146370428Y-107470833D01*
X146275190Y-107423214D01*
X146084714Y-107423214D01*
X145989476Y-107470833D01*
X146418047Y-108042261D02*
X146322809Y-108089880D01*
X146084714Y-108089880D01*
X145989476Y-108042261D01*
X145941857Y-107947023D01*
X145941857Y-107851785D01*
X145989476Y-107756547D01*
X146084714Y-107708928D01*
X146322809Y-107708928D01*
X146418047Y-107661309D01*
X146894238Y-107423214D02*
X146894238Y-108089880D01*
X146894238Y-107518452D02*
X146941857Y-107470833D01*
X147037095Y-107423214D01*
X147179952Y-107423214D01*
X147275190Y-107470833D01*
X147322809Y-107566071D01*
X147322809Y-108089880D01*
X148227571Y-108042261D02*
X148132333Y-108089880D01*
X147941857Y-108089880D01*
X147846619Y-108042261D01*
X147799000Y-107994642D01*
X147751380Y-107899404D01*
X147751380Y-107613690D01*
X147799000Y-107518452D01*
X147846619Y-107470833D01*
X147941857Y-107423214D01*
X148132333Y-107423214D01*
X148227571Y-107470833D01*
X149037095Y-108042261D02*
X148941857Y-108089880D01*
X148751380Y-108089880D01*
X148656142Y-108042261D01*
X148608523Y-107947023D01*
X148608523Y-107566071D01*
X148656142Y-107470833D01*
X148751380Y-107423214D01*
X148941857Y-107423214D01*
X149037095Y-107470833D01*
X149084714Y-107566071D01*
X149084714Y-107661309D01*
X148608523Y-107756547D01*
X150703761Y-108089880D02*
X150703761Y-107566071D01*
X150656142Y-107470833D01*
X150560904Y-107423214D01*
X150370428Y-107423214D01*
X150275190Y-107470833D01*
X150703761Y-108042261D02*
X150608523Y-108089880D01*
X150370428Y-108089880D01*
X150275190Y-108042261D01*
X150227571Y-107947023D01*
X150227571Y-107851785D01*
X150275190Y-107756547D01*
X150370428Y-107708928D01*
X150608523Y-107708928D01*
X150703761Y-107661309D01*
X151179952Y-108089880D02*
X151179952Y-107423214D01*
X151179952Y-107613690D02*
X151227571Y-107518452D01*
X151275190Y-107470833D01*
X151370428Y-107423214D01*
X151465666Y-107423214D01*
X151941857Y-108089880D02*
X151846619Y-108042261D01*
X151799000Y-107994642D01*
X151751380Y-107899404D01*
X151751380Y-107613690D01*
X151799000Y-107518452D01*
X151846619Y-107470833D01*
X151941857Y-107423214D01*
X152084714Y-107423214D01*
X152179952Y-107470833D01*
X152227571Y-107518452D01*
X152275190Y-107613690D01*
X152275190Y-107899404D01*
X152227571Y-107994642D01*
X152179952Y-108042261D01*
X152084714Y-108089880D01*
X151941857Y-108089880D01*
X153132333Y-107423214D02*
X153132333Y-108089880D01*
X152703761Y-107423214D02*
X152703761Y-107947023D01*
X152751380Y-108042261D01*
X152846619Y-108089880D01*
X152989476Y-108089880D01*
X153084714Y-108042261D01*
X153132333Y-107994642D01*
X153608523Y-107423214D02*
X153608523Y-108089880D01*
X153608523Y-107518452D02*
X153656142Y-107470833D01*
X153751380Y-107423214D01*
X153894238Y-107423214D01*
X153989476Y-107470833D01*
X154037095Y-107566071D01*
X154037095Y-108089880D01*
X154941857Y-108089880D02*
X154941857Y-107089880D01*
X154941857Y-108042261D02*
X154846619Y-108089880D01*
X154656142Y-108089880D01*
X154560904Y-108042261D01*
X154513285Y-107994642D01*
X154465666Y-107899404D01*
X154465666Y-107613690D01*
X154513285Y-107518452D01*
X154560904Y-107470833D01*
X154656142Y-107423214D01*
X154846619Y-107423214D01*
X154941857Y-107470833D01*
X156608523Y-107423214D02*
X156608523Y-108232738D01*
X156560904Y-108327976D01*
X156513285Y-108375595D01*
X156418047Y-108423214D01*
X156275190Y-108423214D01*
X156179952Y-108375595D01*
X156608523Y-108042261D02*
X156513285Y-108089880D01*
X156322809Y-108089880D01*
X156227571Y-108042261D01*
X156179952Y-107994642D01*
X156132333Y-107899404D01*
X156132333Y-107613690D01*
X156179952Y-107518452D01*
X156227571Y-107470833D01*
X156322809Y-107423214D01*
X156513285Y-107423214D01*
X156608523Y-107470833D01*
X157465666Y-108042261D02*
X157370428Y-108089880D01*
X157179952Y-108089880D01*
X157084714Y-108042261D01*
X157037095Y-107947023D01*
X157037095Y-107566071D01*
X157084714Y-107470833D01*
X157179952Y-107423214D01*
X157370428Y-107423214D01*
X157465666Y-107470833D01*
X157513285Y-107566071D01*
X157513285Y-107661309D01*
X157037095Y-107756547D01*
X157799000Y-107423214D02*
X158179952Y-107423214D01*
X157941857Y-107089880D02*
X157941857Y-107947023D01*
X157989476Y-108042261D01*
X158084714Y-108089880D01*
X158179952Y-108089880D01*
X159703761Y-108042261D02*
X159608523Y-108089880D01*
X159418047Y-108089880D01*
X159322809Y-108042261D01*
X159275190Y-107994642D01*
X159227571Y-107899404D01*
X159227571Y-107613690D01*
X159275190Y-107518452D01*
X159322809Y-107470833D01*
X159418047Y-107423214D01*
X159608523Y-107423214D01*
X159703761Y-107470833D01*
X160132333Y-108089880D02*
X160132333Y-107423214D01*
X160132333Y-107613690D02*
X160179952Y-107518452D01*
X160227571Y-107470833D01*
X160322809Y-107423214D01*
X160418047Y-107423214D01*
X161179952Y-108089880D02*
X161179952Y-107566071D01*
X161132333Y-107470833D01*
X161037095Y-107423214D01*
X160846619Y-107423214D01*
X160751380Y-107470833D01*
X161179952Y-108042261D02*
X161084714Y-108089880D01*
X160846619Y-108089880D01*
X160751380Y-108042261D01*
X160703761Y-107947023D01*
X160703761Y-107851785D01*
X160751380Y-107756547D01*
X160846619Y-107708928D01*
X161084714Y-107708928D01*
X161179952Y-107661309D01*
X161560904Y-107423214D02*
X162084714Y-107423214D01*
X161560904Y-108089880D01*
X162084714Y-108089880D01*
X162370428Y-107423214D02*
X162608523Y-108089880D01*
X162846619Y-107423214D02*
X162608523Y-108089880D01*
X162513285Y-108327976D01*
X162465666Y-108375595D01*
X162370428Y-108423214D01*
X143584714Y-109238690D02*
X143584714Y-109429166D01*
X143632333Y-109429166D02*
X143632333Y-109238690D01*
X143679952Y-109191071D02*
X143679952Y-109476785D01*
X143727571Y-109429166D02*
X143727571Y-109238690D01*
X143775190Y-109238690D02*
X143775190Y-109429166D01*
X143584714Y-109381547D02*
X143679952Y-109476785D01*
X143775190Y-109381547D01*
X143584714Y-109286309D02*
X143679952Y-109191071D01*
X143775190Y-109286309D01*
X143584714Y-109238690D02*
X143679952Y-109191071D01*
X143775190Y-109238690D01*
X143822809Y-109333928D01*
X143775190Y-109429166D01*
X143679952Y-109476785D01*
X143584714Y-109429166D01*
X143537095Y-109333928D01*
X143584714Y-109238690D01*
X145679952Y-109667261D02*
X145584714Y-109714880D01*
X145394238Y-109714880D01*
X145298999Y-109667261D01*
X145251380Y-109572023D01*
X145251380Y-109191071D01*
X145298999Y-109095833D01*
X145394238Y-109048214D01*
X145584714Y-109048214D01*
X145679952Y-109095833D01*
X145727571Y-109191071D01*
X145727571Y-109286309D01*
X145251380Y-109381547D01*
X146584714Y-109714880D02*
X146584714Y-109191071D01*
X146537095Y-109095833D01*
X146441857Y-109048214D01*
X146251380Y-109048214D01*
X146156142Y-109095833D01*
X146584714Y-109667261D02*
X146489476Y-109714880D01*
X146251380Y-109714880D01*
X146156142Y-109667261D01*
X146108523Y-109572023D01*
X146108523Y-109476785D01*
X146156142Y-109381547D01*
X146251380Y-109333928D01*
X146489476Y-109333928D01*
X146584714Y-109286309D01*
X146918047Y-109048214D02*
X147298999Y-109048214D01*
X147060904Y-108714880D02*
X147060904Y-109572023D01*
X147108523Y-109667261D01*
X147203761Y-109714880D01*
X147298999Y-109714880D01*
X148822809Y-109714880D02*
X148822809Y-109191071D01*
X148775190Y-109095833D01*
X148679952Y-109048214D01*
X148489476Y-109048214D01*
X148394238Y-109095833D01*
X148822809Y-109667261D02*
X148727571Y-109714880D01*
X148489476Y-109714880D01*
X148394238Y-109667261D01*
X148346619Y-109572023D01*
X148346619Y-109476785D01*
X148394238Y-109381547D01*
X148489476Y-109333928D01*
X148727571Y-109333928D01*
X148822809Y-109286309D01*
X149441857Y-109714880D02*
X149346619Y-109667261D01*
X149299000Y-109572023D01*
X149299000Y-108714880D01*
X149965666Y-109714880D02*
X149870428Y-109667261D01*
X149822809Y-109572023D01*
X149822809Y-108714880D01*
X151013285Y-109048214D02*
X151251380Y-109714880D01*
X151489476Y-109048214D02*
X151251380Y-109714880D01*
X151156142Y-109952976D01*
X151108523Y-110000595D01*
X151013285Y-110048214D01*
X152013285Y-109714880D02*
X151918047Y-109667261D01*
X151870428Y-109619642D01*
X151822809Y-109524404D01*
X151822809Y-109238690D01*
X151870428Y-109143452D01*
X151918047Y-109095833D01*
X152013285Y-109048214D01*
X152156142Y-109048214D01*
X152251380Y-109095833D01*
X152298999Y-109143452D01*
X152346619Y-109238690D01*
X152346619Y-109524404D01*
X152298999Y-109619642D01*
X152251380Y-109667261D01*
X152156142Y-109714880D01*
X152013285Y-109714880D01*
X153203761Y-109048214D02*
X153203761Y-109714880D01*
X152775190Y-109048214D02*
X152775190Y-109572023D01*
X152822809Y-109667261D01*
X152918047Y-109714880D01*
X153060904Y-109714880D01*
X153156142Y-109667261D01*
X153203761Y-109619642D01*
X153679952Y-109714880D02*
X153679952Y-109048214D01*
X153679952Y-109238690D02*
X153727571Y-109143452D01*
X153775190Y-109095833D01*
X153870428Y-109048214D01*
X153965666Y-109048214D01*
X154965666Y-109048214D02*
X155203761Y-109714880D01*
X155441857Y-109048214D01*
X156203761Y-109667261D02*
X156108523Y-109714880D01*
X155918047Y-109714880D01*
X155822809Y-109667261D01*
X155775190Y-109572023D01*
X155775190Y-109191071D01*
X155822809Y-109095833D01*
X155918047Y-109048214D01*
X156108523Y-109048214D01*
X156203761Y-109095833D01*
X156251380Y-109191071D01*
X156251380Y-109286309D01*
X155775190Y-109381547D01*
X157108523Y-109048214D02*
X157108523Y-109857738D01*
X157060904Y-109952976D01*
X157013285Y-110000595D01*
X156918047Y-110048214D01*
X156775190Y-110048214D01*
X156679952Y-110000595D01*
X157108523Y-109667261D02*
X157013285Y-109714880D01*
X156822809Y-109714880D01*
X156727571Y-109667261D01*
X156679952Y-109619642D01*
X156632333Y-109524404D01*
X156632333Y-109238690D01*
X156679952Y-109143452D01*
X156727571Y-109095833D01*
X156822809Y-109048214D01*
X157013285Y-109048214D01*
X157108523Y-109095833D01*
X157965666Y-109667261D02*
X157870428Y-109714880D01*
X157679952Y-109714880D01*
X157584714Y-109667261D01*
X157537095Y-109572023D01*
X157537095Y-109191071D01*
X157584714Y-109095833D01*
X157679952Y-109048214D01*
X157870428Y-109048214D01*
X157965666Y-109095833D01*
X158013285Y-109191071D01*
X158013285Y-109286309D01*
X157537095Y-109381547D01*
X158298999Y-109048214D02*
X158679952Y-109048214D01*
X158441857Y-108714880D02*
X158441857Y-109572023D01*
X158489476Y-109667261D01*
X158584714Y-109714880D01*
X158679952Y-109714880D01*
X159441857Y-109714880D02*
X159441857Y-109191071D01*
X159394238Y-109095833D01*
X159298999Y-109048214D01*
X159108523Y-109048214D01*
X159013285Y-109095833D01*
X159441857Y-109667261D02*
X159346619Y-109714880D01*
X159108523Y-109714880D01*
X159013285Y-109667261D01*
X158965666Y-109572023D01*
X158965666Y-109476785D01*
X159013285Y-109381547D01*
X159108523Y-109333928D01*
X159346619Y-109333928D01*
X159441857Y-109286309D01*
X159918047Y-109714880D02*
X159918047Y-108714880D01*
X159918047Y-109095833D02*
X160013285Y-109048214D01*
X160203761Y-109048214D01*
X160298999Y-109095833D01*
X160346619Y-109143452D01*
X160394238Y-109238690D01*
X160394238Y-109524404D01*
X160346619Y-109619642D01*
X160298999Y-109667261D01*
X160203761Y-109714880D01*
X160013285Y-109714880D01*
X159918047Y-109667261D01*
X160965666Y-109714880D02*
X160870428Y-109667261D01*
X160822809Y-109572023D01*
X160822809Y-108714880D01*
X161727571Y-109667261D02*
X161632333Y-109714880D01*
X161441857Y-109714880D01*
X161346619Y-109667261D01*
X161298999Y-109572023D01*
X161298999Y-109191071D01*
X161346619Y-109095833D01*
X161441857Y-109048214D01*
X161632333Y-109048214D01*
X161727571Y-109095833D01*
X161775190Y-109191071D01*
X161775190Y-109286309D01*
X161298999Y-109381547D01*
X162156142Y-109667261D02*
X162251380Y-109714880D01*
X162441857Y-109714880D01*
X162537095Y-109667261D01*
X162584714Y-109572023D01*
X162584714Y-109524404D01*
X162537095Y-109429166D01*
X162441857Y-109381547D01*
X162298999Y-109381547D01*
X162203761Y-109333928D01*
X162156142Y-109238690D01*
X162156142Y-109191071D01*
X162203761Y-109095833D01*
X162298999Y-109048214D01*
X162441857Y-109048214D01*
X162537095Y-109095833D01*
X137322809Y-110863690D02*
X137322809Y-111054166D01*
X137370428Y-111054166D02*
X137370428Y-110863690D01*
X137418047Y-110816071D02*
X137418047Y-111101785D01*
X137465666Y-111054166D02*
X137465666Y-110863690D01*
X137513285Y-110863690D02*
X137513285Y-111054166D01*
X137322809Y-111006547D02*
X137418047Y-111101785D01*
X137513285Y-111006547D01*
X137322809Y-110911309D02*
X137418047Y-110816071D01*
X137513285Y-110911309D01*
X137322809Y-110863690D02*
X137418047Y-110816071D01*
X137513285Y-110863690D01*
X137560904Y-110958928D01*
X137513285Y-111054166D01*
X137418047Y-111101785D01*
X137322809Y-111054166D01*
X137275190Y-110958928D01*
X137322809Y-110863690D01*
X139037095Y-111339880D02*
X139037095Y-110339880D01*
X139037095Y-110720833D02*
X139132333Y-110673214D01*
X139322809Y-110673214D01*
X139418047Y-110720833D01*
X139465666Y-110768452D01*
X139513285Y-110863690D01*
X139513285Y-111149404D01*
X139465666Y-111244642D01*
X139418047Y-111292261D01*
X139322809Y-111339880D01*
X139132333Y-111339880D01*
X139037095Y-111292261D01*
X140322809Y-111292261D02*
X140227571Y-111339880D01*
X140037095Y-111339880D01*
X139941857Y-111292261D01*
X139894238Y-111197023D01*
X139894238Y-110816071D01*
X139941857Y-110720833D01*
X140037095Y-110673214D01*
X140227571Y-110673214D01*
X140322809Y-110720833D01*
X140370428Y-110816071D01*
X140370428Y-110911309D01*
X139894238Y-111006547D01*
X141941857Y-111292261D02*
X141846619Y-111339880D01*
X141656142Y-111339880D01*
X141560904Y-111292261D01*
X141513285Y-111197023D01*
X141513285Y-110816071D01*
X141560904Y-110720833D01*
X141656142Y-110673214D01*
X141846619Y-110673214D01*
X141941857Y-110720833D01*
X141989476Y-110816071D01*
X141989476Y-110911309D01*
X141513285Y-111006547D01*
X142322809Y-111339880D02*
X142846619Y-110673214D01*
X142322809Y-110673214D02*
X142846619Y-111339880D01*
X143656142Y-111292261D02*
X143560904Y-111339880D01*
X143370428Y-111339880D01*
X143275190Y-111292261D01*
X143227571Y-111244642D01*
X143179952Y-111149404D01*
X143179952Y-110863690D01*
X143227571Y-110768452D01*
X143275190Y-110720833D01*
X143370428Y-110673214D01*
X143560904Y-110673214D01*
X143656142Y-110720833D01*
X144465666Y-111292261D02*
X144370428Y-111339880D01*
X144179952Y-111339880D01*
X144084714Y-111292261D01*
X144037095Y-111197023D01*
X144037095Y-110816071D01*
X144084714Y-110720833D01*
X144179952Y-110673214D01*
X144370428Y-110673214D01*
X144465666Y-110720833D01*
X144513285Y-110816071D01*
X144513285Y-110911309D01*
X144037095Y-111006547D01*
X145084714Y-111339880D02*
X144989476Y-111292261D01*
X144941857Y-111197023D01*
X144941857Y-110339880D01*
X145608523Y-111339880D02*
X145513285Y-111292261D01*
X145465666Y-111197023D01*
X145465666Y-110339880D01*
X146370428Y-111292261D02*
X146275190Y-111339880D01*
X146084714Y-111339880D01*
X145989476Y-111292261D01*
X145941857Y-111197023D01*
X145941857Y-110816071D01*
X145989476Y-110720833D01*
X146084714Y-110673214D01*
X146275190Y-110673214D01*
X146370428Y-110720833D01*
X146418047Y-110816071D01*
X146418047Y-110911309D01*
X145941857Y-111006547D01*
X146846619Y-110673214D02*
X146846619Y-111339880D01*
X146846619Y-110768452D02*
X146894238Y-110720833D01*
X146989476Y-110673214D01*
X147132333Y-110673214D01*
X147227571Y-110720833D01*
X147275190Y-110816071D01*
X147275190Y-111339880D01*
X147608523Y-110673214D02*
X147989476Y-110673214D01*
X147751380Y-110339880D02*
X147751380Y-111197023D01*
X147799000Y-111292261D01*
X147894238Y-111339880D01*
X147989476Y-111339880D01*
X148941857Y-110673214D02*
X149322809Y-110673214D01*
X149084714Y-110339880D02*
X149084714Y-111197023D01*
X149132333Y-111292261D01*
X149227571Y-111339880D01*
X149322809Y-111339880D01*
X149799000Y-111339880D02*
X149703761Y-111292261D01*
X149656142Y-111244642D01*
X149608523Y-111149404D01*
X149608523Y-110863690D01*
X149656142Y-110768452D01*
X149703761Y-110720833D01*
X149799000Y-110673214D01*
X149941857Y-110673214D01*
X150037095Y-110720833D01*
X150084714Y-110768452D01*
X150132333Y-110863690D01*
X150132333Y-111149404D01*
X150084714Y-111244642D01*
X150037095Y-111292261D01*
X149941857Y-111339880D01*
X149799000Y-111339880D01*
X151703761Y-111292261D02*
X151608523Y-111339880D01*
X151418047Y-111339880D01*
X151322809Y-111292261D01*
X151275190Y-111197023D01*
X151275190Y-110816071D01*
X151322809Y-110720833D01*
X151418047Y-110673214D01*
X151608523Y-110673214D01*
X151703761Y-110720833D01*
X151751380Y-110816071D01*
X151751380Y-110911309D01*
X151275190Y-111006547D01*
X152608523Y-111339880D02*
X152608523Y-110816071D01*
X152560904Y-110720833D01*
X152465666Y-110673214D01*
X152275190Y-110673214D01*
X152179952Y-110720833D01*
X152608523Y-111292261D02*
X152513285Y-111339880D01*
X152275190Y-111339880D01*
X152179952Y-111292261D01*
X152132333Y-111197023D01*
X152132333Y-111101785D01*
X152179952Y-111006547D01*
X152275190Y-110958928D01*
X152513285Y-110958928D01*
X152608523Y-110911309D01*
X153513285Y-111292261D02*
X153418047Y-111339880D01*
X153227571Y-111339880D01*
X153132333Y-111292261D01*
X153084714Y-111244642D01*
X153037095Y-111149404D01*
X153037095Y-110863690D01*
X153084714Y-110768452D01*
X153132333Y-110720833D01*
X153227571Y-110673214D01*
X153418047Y-110673214D01*
X153513285Y-110720833D01*
X153941857Y-111339880D02*
X153941857Y-110339880D01*
X154370428Y-111339880D02*
X154370428Y-110816071D01*
X154322809Y-110720833D01*
X154227571Y-110673214D01*
X154084714Y-110673214D01*
X153989476Y-110720833D01*
X153941857Y-110768452D01*
X155751380Y-111339880D02*
X155656142Y-111292261D01*
X155608523Y-111244642D01*
X155560904Y-111149404D01*
X155560904Y-110863690D01*
X155608523Y-110768452D01*
X155656142Y-110720833D01*
X155751380Y-110673214D01*
X155894238Y-110673214D01*
X155989476Y-110720833D01*
X156037095Y-110768452D01*
X156084714Y-110863690D01*
X156084714Y-111149404D01*
X156037095Y-111244642D01*
X155989476Y-111292261D01*
X155894238Y-111339880D01*
X155751380Y-111339880D01*
X156370428Y-110673214D02*
X156751380Y-110673214D01*
X156513285Y-110339880D02*
X156513285Y-111197023D01*
X156560904Y-111292261D01*
X156656142Y-111339880D01*
X156751380Y-111339880D01*
X157084714Y-111339880D02*
X157084714Y-110339880D01*
X157513285Y-111339880D02*
X157513285Y-110816071D01*
X157465666Y-110720833D01*
X157370428Y-110673214D01*
X157227571Y-110673214D01*
X157132333Y-110720833D01*
X157084714Y-110768452D01*
X158370428Y-111292261D02*
X158275190Y-111339880D01*
X158084714Y-111339880D01*
X157989476Y-111292261D01*
X157941857Y-111197023D01*
X157941857Y-110816071D01*
X157989476Y-110720833D01*
X158084714Y-110673214D01*
X158275190Y-110673214D01*
X158370428Y-110720833D01*
X158418047Y-110816071D01*
X158418047Y-110911309D01*
X157941857Y-111006547D01*
X158846619Y-111339880D02*
X158846619Y-110673214D01*
X158846619Y-110863690D02*
X158894238Y-110768452D01*
X158941857Y-110720833D01*
X159037095Y-110673214D01*
X159132333Y-110673214D01*
X160656142Y-111339880D02*
X160656142Y-110816071D01*
X160608523Y-110720833D01*
X160513285Y-110673214D01*
X160322809Y-110673214D01*
X160227571Y-110720833D01*
X160656142Y-111292261D02*
X160560904Y-111339880D01*
X160322809Y-111339880D01*
X160227571Y-111292261D01*
X160179952Y-111197023D01*
X160179952Y-111101785D01*
X160227571Y-111006547D01*
X160322809Y-110958928D01*
X160560904Y-110958928D01*
X160656142Y-110911309D01*
X161132333Y-110673214D02*
X161132333Y-111339880D01*
X161132333Y-110768452D02*
X161179952Y-110720833D01*
X161275190Y-110673214D01*
X161418047Y-110673214D01*
X161513285Y-110720833D01*
X161560904Y-110816071D01*
X161560904Y-111339880D01*
X162465666Y-111339880D02*
X162465666Y-110339880D01*
X162465666Y-111292261D02*
X162370428Y-111339880D01*
X162179952Y-111339880D01*
X162084714Y-111292261D01*
X162037095Y-111244642D01*
X161989476Y-111149404D01*
X161989476Y-110863690D01*
X162037095Y-110768452D01*
X162084714Y-110720833D01*
X162179952Y-110673214D01*
X162370428Y-110673214D01*
X162465666Y-110720833D01*
X163703761Y-110673214D02*
X163703761Y-111673214D01*
X163703761Y-110720833D02*
X163799000Y-110673214D01*
X163989476Y-110673214D01*
X164084714Y-110720833D01*
X164132333Y-110768452D01*
X164179952Y-110863690D01*
X164179952Y-111149404D01*
X164132333Y-111244642D01*
X164084714Y-111292261D01*
X163989476Y-111339880D01*
X163799000Y-111339880D01*
X163703761Y-111292261D01*
X165037095Y-111339880D02*
X165037095Y-110816071D01*
X164989476Y-110720833D01*
X164894238Y-110673214D01*
X164703761Y-110673214D01*
X164608523Y-110720833D01*
X165037095Y-111292261D02*
X164941857Y-111339880D01*
X164703761Y-111339880D01*
X164608523Y-111292261D01*
X164560904Y-111197023D01*
X164560904Y-111101785D01*
X164608523Y-111006547D01*
X164703761Y-110958928D01*
X164941857Y-110958928D01*
X165037095Y-110911309D01*
X165513285Y-111339880D02*
X165513285Y-110673214D01*
X165513285Y-110863690D02*
X165560904Y-110768452D01*
X165608523Y-110720833D01*
X165703761Y-110673214D01*
X165798999Y-110673214D01*
X165989476Y-110673214D02*
X166370428Y-110673214D01*
X166132333Y-110339880D02*
X166132333Y-111197023D01*
X166179952Y-111292261D01*
X166275190Y-111339880D01*
X166370428Y-111339880D01*
X166608523Y-110673214D02*
X166846619Y-111339880D01*
X167084714Y-110673214D02*
X166846619Y-111339880D01*
X166751380Y-111577976D01*
X166703761Y-111625595D01*
X166608523Y-111673214D01*
X168370428Y-111339880D02*
X168275190Y-111292261D01*
X168227571Y-111244642D01*
X168179952Y-111149404D01*
X168179952Y-110863690D01*
X168227571Y-110768452D01*
X168275190Y-110720833D01*
X168370428Y-110673214D01*
X168513285Y-110673214D01*
X168608523Y-110720833D01*
X168656142Y-110768452D01*
X168703761Y-110863690D01*
X168703761Y-111149404D01*
X168656142Y-111244642D01*
X168608523Y-111292261D01*
X168513285Y-111339880D01*
X168370428Y-111339880D01*
X169132333Y-110673214D02*
X169132333Y-111339880D01*
X169132333Y-110768452D02*
X169179952Y-110720833D01*
X169275190Y-110673214D01*
X169418047Y-110673214D01*
X169513285Y-110720833D01*
X169560904Y-110816071D01*
X169560904Y-111339880D01*
M02*
