%TF.GenerationSoftware,KiCad,Pcbnew,(5.1.9-0-10_14)*%
%TF.CreationDate,2023-07-07T14:45:14-07:00*%
%TF.ProjectId,integrator,696e7465-6772-4617-946f-722e6b696361,rev?*%
%TF.SameCoordinates,Original*%
%TF.FileFunction,Legend,Top*%
%TF.FilePolarity,Positive*%
%FSLAX46Y46*%
G04 Gerber Fmt 4.6, Leading zero omitted, Abs format (unit mm)*
G04 Created by KiCad (PCBNEW (5.1.9-0-10_14)) date 2023-07-07 14:45:14*
%MOMM*%
%LPD*%
G01*
G04 APERTURE LIST*
%ADD10C,0.127000*%
%ADD11C,0.250000*%
%ADD12C,0.125000*%
%ADD13C,0.010000*%
G04 APERTURE END LIST*
D10*
X153037428Y-154582714D02*
X153037428Y-155199571D01*
X153073714Y-155272142D01*
X153110000Y-155308428D01*
X153182571Y-155344714D01*
X153327714Y-155344714D01*
X153400285Y-155308428D01*
X153436571Y-155272142D01*
X153472857Y-155199571D01*
X153472857Y-154582714D01*
X153799428Y-155308428D02*
X153908285Y-155344714D01*
X154089714Y-155344714D01*
X154162285Y-155308428D01*
X154198571Y-155272142D01*
X154234857Y-155199571D01*
X154234857Y-155127000D01*
X154198571Y-155054428D01*
X154162285Y-155018142D01*
X154089714Y-154981857D01*
X153944571Y-154945571D01*
X153872000Y-154909285D01*
X153835714Y-154873000D01*
X153799428Y-154800428D01*
X153799428Y-154727857D01*
X153835714Y-154655285D01*
X153872000Y-154619000D01*
X153944571Y-154582714D01*
X154126000Y-154582714D01*
X154234857Y-154619000D01*
X154815428Y-154945571D02*
X154924285Y-154981857D01*
X154960571Y-155018142D01*
X154996857Y-155090714D01*
X154996857Y-155199571D01*
X154960571Y-155272142D01*
X154924285Y-155308428D01*
X154851714Y-155344714D01*
X154561428Y-155344714D01*
X154561428Y-154582714D01*
X154815428Y-154582714D01*
X154888000Y-154619000D01*
X154924285Y-154655285D01*
X154960571Y-154727857D01*
X154960571Y-154800428D01*
X154924285Y-154873000D01*
X154888000Y-154909285D01*
X154815428Y-154945571D01*
X154561428Y-154945571D01*
X127550285Y-154582714D02*
X127550285Y-155199571D01*
X127586571Y-155272142D01*
X127622857Y-155308428D01*
X127695428Y-155344714D01*
X127840571Y-155344714D01*
X127913142Y-155308428D01*
X127949428Y-155272142D01*
X127985714Y-155199571D01*
X127985714Y-154582714D01*
X128348571Y-155344714D02*
X128348571Y-154582714D01*
X128784000Y-155344714D02*
X128457428Y-154909285D01*
X128784000Y-154582714D02*
X128348571Y-155018142D01*
X140390142Y-155272142D02*
X140353857Y-155308428D01*
X140245000Y-155344714D01*
X140172428Y-155344714D01*
X140063571Y-155308428D01*
X139991000Y-155235857D01*
X139954714Y-155163285D01*
X139918428Y-155018142D01*
X139918428Y-154909285D01*
X139954714Y-154764142D01*
X139991000Y-154691571D01*
X140063571Y-154619000D01*
X140172428Y-154582714D01*
X140245000Y-154582714D01*
X140353857Y-154619000D01*
X140390142Y-154655285D01*
X140716714Y-154945571D02*
X140970714Y-154945571D01*
X141079571Y-155344714D02*
X140716714Y-155344714D01*
X140716714Y-154582714D01*
X141079571Y-154582714D01*
X167645857Y-154945571D02*
X167391857Y-154945571D01*
X167391857Y-155344714D02*
X167391857Y-154582714D01*
X167754714Y-154582714D01*
X168480428Y-155272142D02*
X168444142Y-155308428D01*
X168335285Y-155344714D01*
X168262714Y-155344714D01*
X168153857Y-155308428D01*
X168081285Y-155235857D01*
X168045000Y-155163285D01*
X168008714Y-155018142D01*
X168008714Y-154909285D01*
X168045000Y-154764142D01*
X168081285Y-154691571D01*
X168153857Y-154619000D01*
X168262714Y-154582714D01*
X168335285Y-154582714D01*
X168444142Y-154619000D01*
X168480428Y-154655285D01*
X169242428Y-155272142D02*
X169206142Y-155308428D01*
X169097285Y-155344714D01*
X169024714Y-155344714D01*
X168915857Y-155308428D01*
X168843285Y-155235857D01*
X168807000Y-155163285D01*
X168770714Y-155018142D01*
X168770714Y-154909285D01*
X168807000Y-154764142D01*
X168843285Y-154691571D01*
X168915857Y-154619000D01*
X169024714Y-154582714D01*
X169097285Y-154582714D01*
X169206142Y-154619000D01*
X169242428Y-154655285D01*
X180072000Y-154569000D02*
X179999428Y-154532714D01*
X179890571Y-154532714D01*
X179781714Y-154569000D01*
X179709142Y-154641571D01*
X179672857Y-154714142D01*
X179636571Y-154859285D01*
X179636571Y-154968142D01*
X179672857Y-155113285D01*
X179709142Y-155185857D01*
X179781714Y-155258428D01*
X179890571Y-155294714D01*
X179963142Y-155294714D01*
X180072000Y-155258428D01*
X180108285Y-155222142D01*
X180108285Y-154968142D01*
X179963142Y-154968142D01*
X180688857Y-154895571D02*
X180434857Y-154895571D01*
X180434857Y-155294714D02*
X180434857Y-154532714D01*
X180797714Y-154532714D01*
D11*
X165249000Y-120750000D02*
X175199000Y-126200000D01*
X164049000Y-115850000D02*
X165249000Y-120750000D01*
X157349000Y-115250000D02*
X164049000Y-115850000D01*
X165499000Y-123150000D02*
X175199000Y-126200000D01*
X165399000Y-127900000D02*
X165499000Y-123150000D01*
X159049000Y-129550000D02*
X165399000Y-127900000D01*
X152449000Y-129350000D02*
X159049000Y-129550000D01*
X150549000Y-126500000D02*
X152449000Y-129350000D01*
X149799000Y-121850000D02*
X150549000Y-126500000D01*
X151149000Y-116900000D02*
X149799000Y-121850000D01*
X157349000Y-115250000D02*
X151149000Y-116900000D01*
D10*
X172540571Y-154945571D02*
X172649428Y-154981857D01*
X172685714Y-155018142D01*
X172722000Y-155090714D01*
X172722000Y-155199571D01*
X172685714Y-155272142D01*
X172649428Y-155308428D01*
X172576857Y-155344714D01*
X172286571Y-155344714D01*
X172286571Y-154582714D01*
X172540571Y-154582714D01*
X172613142Y-154619000D01*
X172649428Y-154655285D01*
X172685714Y-154727857D01*
X172685714Y-154800428D01*
X172649428Y-154873000D01*
X172613142Y-154909285D01*
X172540571Y-154945571D01*
X172286571Y-154945571D01*
X173012285Y-155308428D02*
X173121142Y-155344714D01*
X173302571Y-155344714D01*
X173375142Y-155308428D01*
X173411428Y-155272142D01*
X173447714Y-155199571D01*
X173447714Y-155127000D01*
X173411428Y-155054428D01*
X173375142Y-155018142D01*
X173302571Y-154981857D01*
X173157428Y-154945571D01*
X173084857Y-154909285D01*
X173048571Y-154873000D01*
X173012285Y-154800428D01*
X173012285Y-154727857D01*
X173048571Y-154655285D01*
X173084857Y-154619000D01*
X173157428Y-154582714D01*
X173338857Y-154582714D01*
X173447714Y-154619000D01*
X162800285Y-155344714D02*
X162800285Y-154582714D01*
X162800285Y-154945571D02*
X163235714Y-154945571D01*
X163235714Y-155344714D02*
X163235714Y-154582714D01*
X164034000Y-155344714D02*
X163780000Y-154981857D01*
X163598571Y-155344714D02*
X163598571Y-154582714D01*
X163888857Y-154582714D01*
X163961428Y-154619000D01*
X163997714Y-154655285D01*
X164034000Y-154727857D01*
X164034000Y-154836714D01*
X163997714Y-154909285D01*
X163961428Y-154945571D01*
X163888857Y-154981857D01*
X163598571Y-154981857D01*
D11*
X156335000Y-149144000D02*
X152525000Y-149144000D01*
X156335000Y-149652000D02*
X156335000Y-149144000D01*
X151649000Y-156150000D02*
X151649000Y-149650000D01*
X149349000Y-156150000D02*
X151649000Y-156150000D01*
X153795000Y-161082000D02*
X149349000Y-156150000D01*
X156449000Y-156150000D02*
X156449000Y-152850000D01*
X158749000Y-156150000D02*
X156449000Y-156150000D01*
X154303000Y-161082000D02*
X158749000Y-156150000D01*
X145599000Y-133275000D02*
X144599000Y-120225000D01*
X143299000Y-130675000D02*
X143899000Y-120125000D01*
X174224000Y-129275000D02*
X171599000Y-136850000D01*
X168474000Y-127700000D02*
X174224000Y-129275000D01*
X168474000Y-127400000D02*
X168474000Y-127700000D01*
X175649000Y-128025000D02*
X168474000Y-127400000D01*
X176124000Y-120875000D02*
X175649000Y-128025000D01*
X176224000Y-119900000D02*
X176124000Y-120875000D01*
X175324000Y-119200000D02*
X176224000Y-119900000D01*
X175949000Y-117925000D02*
X175324000Y-119200000D01*
X177949000Y-118700000D02*
X175949000Y-117925000D01*
X179274000Y-121275000D02*
X177949000Y-118700000D01*
X179474000Y-125825000D02*
X179274000Y-121275000D01*
X182099000Y-125900000D02*
X179474000Y-125825000D01*
X182249000Y-125650000D02*
X182099000Y-125900000D01*
X182774000Y-125275000D02*
X182249000Y-125650000D01*
X182599000Y-126775000D02*
X182774000Y-125275000D01*
X182174000Y-126775000D02*
X182599000Y-126775000D01*
X182299000Y-126225000D02*
X182174000Y-126775000D01*
X179549000Y-126350000D02*
X182299000Y-126225000D01*
X179299000Y-127900000D02*
X179549000Y-126350000D01*
X181349000Y-129050000D02*
X179299000Y-127900000D01*
X181724000Y-129050000D02*
X181349000Y-129050000D01*
X181724000Y-129925000D02*
X181724000Y-129050000D01*
X180874000Y-130175000D02*
X181724000Y-129925000D01*
X180699000Y-129675000D02*
X180874000Y-130175000D01*
X181099000Y-129375000D02*
X180699000Y-129675000D01*
X179149000Y-128375000D02*
X181099000Y-129375000D01*
X178299000Y-129900000D02*
X179149000Y-128375000D01*
X176024000Y-129300000D02*
X178299000Y-129900000D01*
X172549000Y-137050000D02*
X176024000Y-129300000D01*
X158199000Y-66350000D02*
X158299000Y-66200000D01*
X157849000Y-66500000D02*
X158199000Y-66350000D01*
X156949000Y-66650000D02*
X157849000Y-66500000D01*
X155599000Y-66800000D02*
X156949000Y-66650000D01*
X153799000Y-66850000D02*
X155599000Y-66800000D01*
X152299000Y-66700000D02*
X153799000Y-66850000D01*
X151049000Y-66400000D02*
X152299000Y-66700000D01*
X150899000Y-66200000D02*
X151049000Y-66400000D01*
X151349000Y-65750000D02*
X150899000Y-66200000D01*
X152649000Y-65450000D02*
X151349000Y-65750000D01*
X153899000Y-65200000D02*
X152649000Y-65450000D01*
X154899000Y-65250000D02*
X153899000Y-65200000D01*
X156099000Y-65300000D02*
X154899000Y-65250000D01*
X157499000Y-65800000D02*
X156099000Y-65300000D01*
X158349000Y-66200000D02*
X157499000Y-65800000D01*
X158349000Y-68100000D02*
X158349000Y-66200000D01*
X157899000Y-68550000D02*
X158349000Y-68100000D01*
X157249000Y-68950000D02*
X157899000Y-68550000D01*
X155849000Y-69000000D02*
X157249000Y-68950000D01*
X154249000Y-69000000D02*
X155849000Y-69000000D01*
X152599000Y-68900000D02*
X154249000Y-69000000D01*
X150799000Y-68400000D02*
X152599000Y-68900000D01*
X150849000Y-66250000D02*
X150799000Y-68400000D01*
X144149000Y-59800000D02*
X144249000Y-60550000D01*
X147999000Y-64450000D02*
X150199000Y-62100000D01*
X144249000Y-60550000D02*
X147999000Y-64400000D01*
X146299000Y-59550000D02*
X144149000Y-59800000D01*
X146349000Y-60600000D02*
X146299000Y-59550000D01*
X145699000Y-61250000D02*
X146349000Y-60600000D01*
X148099000Y-63800000D02*
X145699000Y-61250000D01*
X150099000Y-61350000D02*
X148099000Y-63800000D01*
X162299000Y-61750000D02*
X159049000Y-62850000D01*
X162649000Y-64350000D02*
X162299000Y-61750000D01*
X161749000Y-64900000D02*
X162649000Y-64350000D01*
X162549000Y-66400000D02*
X161749000Y-64900000D01*
X164649000Y-65950000D02*
X162549000Y-66400000D01*
X164499000Y-64750000D02*
X164649000Y-65950000D01*
X164149000Y-64750000D02*
X164499000Y-64750000D01*
X163449000Y-64900000D02*
X164149000Y-64750000D01*
X162599000Y-60950000D02*
X163449000Y-64900000D01*
X159099000Y-61650000D02*
X162599000Y-60950000D01*
X155649000Y-63550000D02*
X157049000Y-62650000D01*
X153449000Y-63550000D02*
X155649000Y-63550000D01*
X152299000Y-62700000D02*
X153449000Y-63550000D01*
X155499000Y-63100000D02*
X155949000Y-63950000D01*
X153249000Y-63200000D02*
X155499000Y-63100000D01*
X152849000Y-63850000D02*
X153249000Y-63200000D01*
X157884327Y-61500000D02*
G75*
G03*
X157884327Y-61500000I-1185327J0D01*
G01*
X153779042Y-61500000D02*
G75*
G03*
X153779042Y-61500000I-1180042J0D01*
G01*
X157243975Y-61550000D02*
G75*
G03*
X157243975Y-61550000I-494975J0D01*
G01*
X153059977Y-61500000D02*
G75*
G03*
X153059977Y-61500000I-460977J0D01*
G01*
X150197816Y-63983365D02*
X150249000Y-58550000D01*
X159099000Y-64000000D02*
X150197816Y-63983365D01*
X159099000Y-58600000D02*
X159099000Y-64000000D01*
X150249000Y-58550000D02*
X159099000Y-58600000D01*
X177749000Y-139500000D02*
X178449000Y-138950000D01*
X178349000Y-140500000D02*
X177749000Y-139500000D01*
X178849000Y-139850000D02*
X178349000Y-140500000D01*
X160349000Y-140350000D02*
X159849000Y-140950000D01*
X159749000Y-139750000D02*
X160349000Y-140350000D01*
X159399000Y-140200000D02*
X159749000Y-139750000D01*
X178199000Y-142800000D02*
X178949000Y-142200000D01*
X177349000Y-143450000D02*
X178199000Y-142800000D01*
X177299000Y-142350000D02*
X177349000Y-143450000D01*
X178799000Y-141450000D02*
X177299000Y-142350000D01*
X135149000Y-126400000D02*
X135049000Y-128300000D01*
X136199000Y-126850000D02*
X135149000Y-126400000D01*
X137249000Y-126800000D02*
X136199000Y-126850000D01*
X135149000Y-124100000D02*
X137249000Y-126800000D01*
X129499000Y-122350000D02*
X129449000Y-121800000D01*
X131799000Y-136250000D02*
X130799000Y-132150000D01*
X134999000Y-141950000D02*
X131799000Y-136250000D01*
X135399000Y-141600000D02*
X134999000Y-141950000D01*
X137449000Y-143150000D02*
X135399000Y-141600000D01*
X137099000Y-145000000D02*
X137449000Y-143150000D01*
X134449000Y-145050000D02*
X137099000Y-145000000D01*
X133849000Y-143950000D02*
X134449000Y-145050000D01*
X134249000Y-143550000D02*
X133849000Y-143950000D01*
X133299000Y-142250000D02*
X134249000Y-143550000D01*
X126249000Y-131400000D02*
X133299000Y-142250000D01*
X129049000Y-129500000D02*
X126249000Y-131400000D01*
X130649000Y-129500000D02*
X129049000Y-129500000D01*
X128699000Y-125100000D02*
X130649000Y-129500000D01*
X129499000Y-122350000D02*
X128699000Y-125100000D01*
X127549000Y-141700000D02*
X129999000Y-137200000D01*
X129449000Y-144550000D02*
X127549000Y-141700000D01*
X140549000Y-147550000D02*
X129449000Y-144550000D01*
X136949000Y-147400000D02*
X140549000Y-147550000D01*
X132199000Y-151000000D02*
X136949000Y-147400000D01*
X130899000Y-150250000D02*
X132199000Y-151000000D01*
X129949000Y-153050000D02*
X130899000Y-150250000D01*
X130799000Y-153900000D02*
X129949000Y-153050000D01*
X130935000Y-159050000D02*
X130799000Y-153900000D01*
X133799000Y-160450000D02*
X130935000Y-159050000D01*
X133549000Y-159300000D02*
X133799000Y-160450000D01*
X135399000Y-159500000D02*
X133549000Y-159300000D01*
X134849000Y-158800000D02*
X135399000Y-159500000D01*
X136549000Y-158600000D02*
X134849000Y-158800000D01*
X133299000Y-157600000D02*
X136549000Y-158600000D01*
X131799000Y-152850000D02*
X133299000Y-157600000D01*
X142999000Y-147700000D02*
X131799000Y-152850000D01*
X138649000Y-144850000D02*
X142999000Y-147700000D01*
X144499000Y-135300000D02*
X138649000Y-144850000D01*
X145649000Y-139300000D02*
X144499000Y-135300000D01*
X148849000Y-143500000D02*
X145649000Y-139300000D01*
X149999000Y-143300000D02*
X148849000Y-143500000D01*
X154199000Y-135750000D02*
X149999000Y-143300000D01*
X152999000Y-136450000D02*
X154199000Y-135750000D01*
X153449000Y-135000000D02*
X152999000Y-136450000D01*
X151849000Y-136250000D02*
X153449000Y-135000000D01*
X151599000Y-134950000D02*
X151849000Y-136250000D01*
X150699000Y-135900000D02*
X151599000Y-134950000D01*
X149049000Y-141550000D02*
X150699000Y-135900000D01*
X144549000Y-133500000D02*
X149049000Y-141550000D01*
X136349000Y-140650000D02*
X144549000Y-133500000D01*
X135299000Y-137450000D02*
X136349000Y-140650000D01*
X137699000Y-134000000D02*
X135299000Y-137450000D01*
X135899000Y-130850000D02*
X137699000Y-134000000D01*
X136849000Y-130600000D02*
X135899000Y-130850000D01*
X145599000Y-133275000D02*
X136849000Y-130600000D01*
X146399000Y-115800000D02*
X144599000Y-120100000D01*
X146149000Y-114000000D02*
X146399000Y-115800000D01*
X145549000Y-114150000D02*
X146149000Y-114000000D01*
X145599000Y-115850000D02*
X145549000Y-114150000D01*
X143899000Y-118750000D02*
X145599000Y-115850000D01*
X145249000Y-113550000D02*
X143899000Y-118750000D01*
X142099000Y-113500000D02*
X145249000Y-113550000D01*
X141999000Y-114150000D02*
X142099000Y-113500000D01*
X143999000Y-114200000D02*
X141999000Y-114150000D01*
X143349000Y-118550000D02*
X143999000Y-114200000D01*
X142949000Y-114550000D02*
X143349000Y-118550000D01*
X140199000Y-114250000D02*
X142949000Y-114550000D01*
X139849000Y-114650000D02*
X140199000Y-114250000D01*
X142249000Y-114850000D02*
X139849000Y-114650000D01*
X142549000Y-118900000D02*
X142249000Y-114850000D01*
X140899000Y-116500000D02*
X142549000Y-118900000D01*
X142199000Y-120250000D02*
X140899000Y-116500000D01*
X143799000Y-120100000D02*
X142199000Y-120250000D01*
X136499000Y-129150000D02*
X143299000Y-130675000D01*
X134449000Y-129600000D02*
X136499000Y-129150000D01*
X135049000Y-128300000D02*
X134449000Y-129600000D01*
X135249000Y-122350000D02*
X135149000Y-124100000D01*
X139349000Y-120700000D02*
X135249000Y-122350000D01*
X135899000Y-121100000D02*
X139349000Y-120700000D01*
X138649000Y-119600000D02*
X135899000Y-121100000D01*
X136549000Y-119600000D02*
X138649000Y-119600000D01*
X138649000Y-118000000D02*
X136549000Y-119600000D01*
X136649000Y-118300000D02*
X138649000Y-118000000D01*
X138349000Y-116750000D02*
X136649000Y-118300000D01*
X135849000Y-117250000D02*
X138349000Y-116750000D01*
X137349000Y-114250000D02*
X135849000Y-117250000D01*
X134999000Y-115950000D02*
X137349000Y-114250000D01*
X134699000Y-113600000D02*
X134999000Y-115950000D01*
X132349000Y-115600000D02*
X134699000Y-113600000D01*
X132349000Y-111350000D02*
X132349000Y-115600000D01*
X131599000Y-115450000D02*
X132349000Y-111350000D01*
X130249000Y-113100000D02*
X131599000Y-115450000D01*
X129999000Y-117300000D02*
X130249000Y-113100000D01*
X127899000Y-115200000D02*
X129999000Y-117300000D01*
X128849000Y-118200000D02*
X127899000Y-115200000D01*
X127549000Y-117550000D02*
X128849000Y-118200000D01*
X128699000Y-118850000D02*
X127549000Y-117550000D01*
X126449000Y-118600000D02*
X128699000Y-118850000D01*
X128599000Y-119700000D02*
X126449000Y-118600000D01*
X127349000Y-120150000D02*
X128599000Y-119700000D01*
X129449000Y-121800000D02*
X127349000Y-120150000D01*
X171099000Y-138200000D02*
X171599000Y-136850000D01*
X170549000Y-138250000D02*
X171099000Y-138200000D01*
X170549000Y-138600000D02*
X170549000Y-138250000D01*
X170849000Y-138750000D02*
X170549000Y-138600000D01*
X170599000Y-139850000D02*
X170849000Y-138750000D01*
X167699000Y-138250000D02*
X170599000Y-139850000D01*
X163499000Y-143250000D02*
X167699000Y-138250000D01*
X158649000Y-138750000D02*
X163499000Y-143250000D01*
X158449000Y-135350000D02*
X158649000Y-138750000D01*
X157799000Y-135200000D02*
X158449000Y-135350000D01*
X158199000Y-137550000D02*
X157799000Y-135200000D01*
X155249000Y-137800000D02*
X158199000Y-137550000D01*
X157699000Y-138100000D02*
X155249000Y-137800000D01*
X154999000Y-139650000D02*
X157699000Y-138100000D01*
X157349000Y-138850000D02*
X154999000Y-139650000D01*
X155449000Y-141200000D02*
X157349000Y-138850000D01*
X158749000Y-139250000D02*
X155449000Y-141200000D01*
X163249000Y-146050000D02*
X158749000Y-139250000D01*
X168249000Y-139150000D02*
X163249000Y-146050000D01*
X166249000Y-147250000D02*
X168249000Y-139150000D01*
X159199000Y-150500000D02*
X166249000Y-147250000D01*
X158349000Y-147950000D02*
X159199000Y-150500000D01*
X154399000Y-151400000D02*
X158349000Y-147950000D01*
X151649000Y-147950000D02*
X154399000Y-151400000D01*
X151299000Y-148400000D02*
X151649000Y-147950000D01*
X152099000Y-151300000D02*
X151299000Y-148400000D01*
X152849000Y-151900000D02*
X152099000Y-151300000D01*
X152299000Y-152000000D02*
X152849000Y-151900000D01*
X153099000Y-154300000D02*
X152299000Y-152000000D01*
X175199000Y-144600000D02*
X153099000Y-154300000D01*
X175549000Y-145800000D02*
X175199000Y-144600000D01*
X173449000Y-146850000D02*
X175549000Y-145800000D01*
X175749000Y-150550000D02*
X173449000Y-146850000D01*
X175399000Y-151550000D02*
X175749000Y-150550000D01*
X177299000Y-151200000D02*
X175399000Y-151550000D01*
X177349000Y-150500000D02*
X177299000Y-151200000D01*
X179399000Y-150300000D02*
X177349000Y-150500000D01*
X181399000Y-150750000D02*
X179399000Y-150300000D01*
X182299000Y-150550000D02*
X181399000Y-150750000D01*
X181449000Y-149550000D02*
X182299000Y-150550000D01*
X180099000Y-149100000D02*
X181449000Y-149550000D01*
X177599000Y-148900000D02*
X180099000Y-149100000D01*
X175249000Y-143350000D02*
X177599000Y-148900000D01*
X168149000Y-145950000D02*
X175249000Y-143350000D01*
X171849000Y-141350000D02*
X168149000Y-145950000D01*
X176649000Y-137850000D02*
X171849000Y-141350000D01*
X178749000Y-141150000D02*
X176649000Y-137850000D01*
X178799000Y-141450000D02*
X178749000Y-141150000D01*
X179949000Y-144850000D02*
X178949000Y-142200000D01*
X179799000Y-142200000D02*
X179949000Y-144850000D01*
X180799000Y-143900000D02*
X179799000Y-142200000D01*
X180149000Y-141050000D02*
X180799000Y-143900000D01*
X182449000Y-143100000D02*
X180149000Y-141050000D01*
X180749000Y-140500000D02*
X182449000Y-143100000D01*
X179099000Y-140300000D02*
X180749000Y-140500000D01*
X177049000Y-135750000D02*
X179099000Y-140300000D01*
X171299000Y-140150000D02*
X177049000Y-135750000D01*
X172549000Y-137050000D02*
X171299000Y-140150000D01*
X128749000Y-47180000D02*
X141299000Y-47180000D01*
X128749000Y-55130000D02*
X125199000Y-50130000D01*
X128749000Y-45080000D02*
X128749000Y-47180000D01*
X125199000Y-50130000D02*
X128749000Y-45080000D01*
X141299000Y-53180000D02*
X128749000Y-53180000D01*
X128749000Y-53180000D02*
X128749000Y-55130000D01*
X141299000Y-47180000D02*
X141299000Y-53180000D01*
X128749000Y-58250000D02*
X141299000Y-58250000D01*
X128749000Y-66200000D02*
X125199000Y-61200000D01*
X128749000Y-56150000D02*
X128749000Y-58250000D01*
X125199000Y-61200000D02*
X128749000Y-56150000D01*
X141299000Y-64250000D02*
X128749000Y-64250000D01*
X128749000Y-64250000D02*
X128749000Y-66200000D01*
X141299000Y-58250000D02*
X141299000Y-64250000D01*
X170399000Y-58200000D02*
X182949000Y-58200000D01*
X170399000Y-66150000D02*
X166849000Y-61150000D01*
X170399000Y-56100000D02*
X170399000Y-58200000D01*
X166849000Y-61150000D02*
X170399000Y-56100000D01*
X182949000Y-64200000D02*
X170399000Y-64200000D01*
X170399000Y-64200000D02*
X170399000Y-66150000D01*
X182949000Y-58200000D02*
X182949000Y-64200000D01*
X179499000Y-53250000D02*
X166949000Y-53250000D01*
X179499000Y-45300000D02*
X183049000Y-50300000D01*
X179499000Y-55350000D02*
X179499000Y-53250000D01*
X183049000Y-50300000D02*
X179499000Y-55350000D01*
X166949000Y-47250000D02*
X179499000Y-47250000D01*
X179499000Y-47250000D02*
X179499000Y-45300000D01*
X166949000Y-53250000D02*
X166949000Y-47250000D01*
D12*
X138220428Y-97933928D02*
X138220428Y-98162500D01*
X138277571Y-98162500D02*
X138277571Y-97933928D01*
X138334714Y-97876785D02*
X138334714Y-98219642D01*
X138391857Y-98162500D02*
X138391857Y-97933928D01*
X138449000Y-97933928D02*
X138449000Y-98162500D01*
X138220428Y-98105357D02*
X138334714Y-98219642D01*
X138449000Y-98105357D01*
X138220428Y-97991071D02*
X138334714Y-97876785D01*
X138449000Y-97991071D01*
X138220428Y-97933928D02*
X138334714Y-97876785D01*
X138449000Y-97933928D01*
X138506142Y-98048214D01*
X138449000Y-98162500D01*
X138334714Y-98219642D01*
X138220428Y-98162500D01*
X138163285Y-98048214D01*
X138220428Y-97933928D01*
X140791857Y-98448214D02*
X140677571Y-98505357D01*
X140449000Y-98505357D01*
X140334714Y-98448214D01*
X140277571Y-98391071D01*
X140220428Y-98276785D01*
X140220428Y-97933928D01*
X140277571Y-97819642D01*
X140334714Y-97762500D01*
X140449000Y-97705357D01*
X140677571Y-97705357D01*
X140791857Y-97762500D01*
X141477571Y-98505357D02*
X141363285Y-98448214D01*
X141306142Y-98391071D01*
X141249000Y-98276785D01*
X141249000Y-97933928D01*
X141306142Y-97819642D01*
X141363285Y-97762500D01*
X141477571Y-97705357D01*
X141649000Y-97705357D01*
X141763285Y-97762500D01*
X141820428Y-97819642D01*
X141877571Y-97933928D01*
X141877571Y-98276785D01*
X141820428Y-98391071D01*
X141763285Y-98448214D01*
X141649000Y-98505357D01*
X141477571Y-98505357D01*
X142391857Y-97705357D02*
X142391857Y-98505357D01*
X142391857Y-97819642D02*
X142449000Y-97762500D01*
X142563285Y-97705357D01*
X142734714Y-97705357D01*
X142849000Y-97762500D01*
X142906142Y-97876785D01*
X142906142Y-98505357D01*
X143477571Y-97705357D02*
X143477571Y-98505357D01*
X143477571Y-97819642D02*
X143534714Y-97762500D01*
X143649000Y-97705357D01*
X143820428Y-97705357D01*
X143934714Y-97762500D01*
X143991857Y-97876785D01*
X143991857Y-98505357D01*
X145020428Y-98448214D02*
X144906142Y-98505357D01*
X144677571Y-98505357D01*
X144563285Y-98448214D01*
X144506142Y-98333928D01*
X144506142Y-97876785D01*
X144563285Y-97762500D01*
X144677571Y-97705357D01*
X144906142Y-97705357D01*
X145020428Y-97762500D01*
X145077571Y-97876785D01*
X145077571Y-97991071D01*
X144506142Y-98105357D01*
X146106142Y-98448214D02*
X145991857Y-98505357D01*
X145763285Y-98505357D01*
X145649000Y-98448214D01*
X145591857Y-98391071D01*
X145534714Y-98276785D01*
X145534714Y-97933928D01*
X145591857Y-97819642D01*
X145649000Y-97762500D01*
X145763285Y-97705357D01*
X145991857Y-97705357D01*
X146106142Y-97762500D01*
X146449000Y-97705357D02*
X146906142Y-97705357D01*
X146620428Y-97305357D02*
X146620428Y-98333928D01*
X146677571Y-98448214D01*
X146791857Y-98505357D01*
X146906142Y-98505357D01*
X160848999Y-97705357D02*
X161306142Y-97705357D01*
X161020428Y-97305357D02*
X161020428Y-98333928D01*
X161077571Y-98448214D01*
X161191857Y-98505357D01*
X161306142Y-98505357D01*
X161877571Y-98505357D02*
X161763285Y-98448214D01*
X161706142Y-98391071D01*
X161649000Y-98276785D01*
X161649000Y-97933928D01*
X161706142Y-97819642D01*
X161763285Y-97762500D01*
X161877571Y-97705357D01*
X162049000Y-97705357D01*
X162163285Y-97762500D01*
X162220428Y-97819642D01*
X162277571Y-97933928D01*
X162277571Y-98276785D01*
X162220428Y-98391071D01*
X162163285Y-98448214D01*
X162049000Y-98505357D01*
X161877571Y-98505357D01*
X133963285Y-99858928D02*
X133963285Y-100087500D01*
X134020428Y-100087500D02*
X134020428Y-99858928D01*
X134077571Y-99801785D02*
X134077571Y-100144642D01*
X134134714Y-100087500D02*
X134134714Y-99858928D01*
X134191857Y-99858928D02*
X134191857Y-100087500D01*
X133963285Y-100030357D02*
X134077571Y-100144642D01*
X134191857Y-100030357D01*
X133963285Y-99916071D02*
X134077571Y-99801785D01*
X134191857Y-99916071D01*
X133963285Y-99858928D02*
X134077571Y-99801785D01*
X134191857Y-99858928D01*
X134249000Y-99973214D01*
X134191857Y-100087500D01*
X134077571Y-100144642D01*
X133963285Y-100087500D01*
X133906142Y-99973214D01*
X133963285Y-99858928D01*
X136020428Y-100430357D02*
X136020428Y-99230357D01*
X136534714Y-100430357D02*
X136534714Y-99801785D01*
X136477571Y-99687500D01*
X136363285Y-99630357D01*
X136191857Y-99630357D01*
X136077571Y-99687500D01*
X136020428Y-99744642D01*
X137277571Y-100430357D02*
X137163285Y-100373214D01*
X137106142Y-100316071D01*
X137049000Y-100201785D01*
X137049000Y-99858928D01*
X137106142Y-99744642D01*
X137163285Y-99687500D01*
X137277571Y-99630357D01*
X137449000Y-99630357D01*
X137563285Y-99687500D01*
X137620428Y-99744642D01*
X137677571Y-99858928D01*
X137677571Y-100201785D01*
X137620428Y-100316071D01*
X137563285Y-100373214D01*
X137449000Y-100430357D01*
X137277571Y-100430357D01*
X138363285Y-100430357D02*
X138249000Y-100373214D01*
X138191857Y-100258928D01*
X138191857Y-99230357D01*
X139334714Y-100430357D02*
X139334714Y-99230357D01*
X139334714Y-100373214D02*
X139220428Y-100430357D01*
X138991857Y-100430357D01*
X138877571Y-100373214D01*
X138820428Y-100316071D01*
X138763285Y-100201785D01*
X138763285Y-99858928D01*
X138820428Y-99744642D01*
X138877571Y-99687500D01*
X138991857Y-99630357D01*
X139220428Y-99630357D01*
X139334714Y-99687500D01*
X146249000Y-99173214D02*
X145220428Y-100716071D01*
X154934714Y-100430357D02*
X154877571Y-100430357D01*
X154763285Y-100373214D01*
X154591857Y-100201785D01*
X154306142Y-99858928D01*
X154191857Y-99687500D01*
X154134714Y-99516071D01*
X154134714Y-99401785D01*
X154191857Y-99287500D01*
X154306142Y-99230357D01*
X154363285Y-99230357D01*
X154477571Y-99287500D01*
X154534714Y-99401785D01*
X154534714Y-99458928D01*
X154477571Y-99573214D01*
X154420428Y-99630357D01*
X154077571Y-99858928D01*
X154020428Y-99916071D01*
X153963285Y-100030357D01*
X153963285Y-100201785D01*
X154020428Y-100316071D01*
X154077571Y-100373214D01*
X154191857Y-100430357D01*
X154363285Y-100430357D01*
X154477571Y-100373214D01*
X154534714Y-100316071D01*
X154706142Y-100087500D01*
X154763285Y-99916071D01*
X154763285Y-99801785D01*
X156363285Y-99630357D02*
X156363285Y-100830357D01*
X156363285Y-99687500D02*
X156477571Y-99630357D01*
X156706142Y-99630357D01*
X156820428Y-99687500D01*
X156877571Y-99744642D01*
X156934714Y-99858928D01*
X156934714Y-100201785D01*
X156877571Y-100316071D01*
X156820428Y-100373214D01*
X156706142Y-100430357D01*
X156477571Y-100430357D01*
X156363285Y-100373214D01*
X157449000Y-100430357D02*
X157449000Y-99630357D01*
X157449000Y-99858928D02*
X157506142Y-99744642D01*
X157563285Y-99687500D01*
X157677571Y-99630357D01*
X157791857Y-99630357D01*
X158649000Y-100373214D02*
X158534714Y-100430357D01*
X158306142Y-100430357D01*
X158191857Y-100373214D01*
X158134714Y-100258928D01*
X158134714Y-99801785D01*
X158191857Y-99687500D01*
X158306142Y-99630357D01*
X158534714Y-99630357D01*
X158649000Y-99687500D01*
X158706142Y-99801785D01*
X158706142Y-99916071D01*
X158134714Y-100030357D01*
X159163285Y-100373214D02*
X159277571Y-100430357D01*
X159506142Y-100430357D01*
X159620428Y-100373214D01*
X159677571Y-100258928D01*
X159677571Y-100201785D01*
X159620428Y-100087500D01*
X159506142Y-100030357D01*
X159334714Y-100030357D01*
X159220428Y-99973214D01*
X159163285Y-99858928D01*
X159163285Y-99801785D01*
X159220428Y-99687500D01*
X159334714Y-99630357D01*
X159506142Y-99630357D01*
X159620428Y-99687500D01*
X160134714Y-100373214D02*
X160249000Y-100430357D01*
X160477571Y-100430357D01*
X160591857Y-100373214D01*
X160649000Y-100258928D01*
X160649000Y-100201785D01*
X160591857Y-100087500D01*
X160477571Y-100030357D01*
X160306142Y-100030357D01*
X160191857Y-99973214D01*
X160134714Y-99858928D01*
X160134714Y-99801785D01*
X160191857Y-99687500D01*
X160306142Y-99630357D01*
X160477571Y-99630357D01*
X160591857Y-99687500D01*
X166477571Y-99630357D02*
X166934714Y-99630357D01*
X166649000Y-99230357D02*
X166649000Y-100258928D01*
X166706142Y-100373214D01*
X166820428Y-100430357D01*
X166934714Y-100430357D01*
X167506142Y-100430357D02*
X167391857Y-100373214D01*
X167334714Y-100316071D01*
X167277571Y-100201785D01*
X167277571Y-99858928D01*
X167334714Y-99744642D01*
X167391857Y-99687500D01*
X167506142Y-99630357D01*
X167677571Y-99630357D01*
X167791857Y-99687500D01*
X167849000Y-99744642D01*
X167906142Y-99858928D01*
X167906142Y-100201785D01*
X167849000Y-100316071D01*
X167791857Y-100373214D01*
X167677571Y-100430357D01*
X167506142Y-100430357D01*
X169277571Y-100373214D02*
X169391857Y-100430357D01*
X169620428Y-100430357D01*
X169734714Y-100373214D01*
X169791857Y-100258928D01*
X169791857Y-100201785D01*
X169734714Y-100087500D01*
X169620428Y-100030357D01*
X169449000Y-100030357D01*
X169334714Y-99973214D01*
X169277571Y-99858928D01*
X169277571Y-99801785D01*
X169334714Y-99687500D01*
X169449000Y-99630357D01*
X169620428Y-99630357D01*
X169734714Y-99687500D01*
X170763285Y-100373214D02*
X170649000Y-100430357D01*
X170420428Y-100430357D01*
X170306142Y-100373214D01*
X170249000Y-100258928D01*
X170249000Y-99801785D01*
X170306142Y-99687500D01*
X170420428Y-99630357D01*
X170649000Y-99630357D01*
X170763285Y-99687500D01*
X170820428Y-99801785D01*
X170820428Y-99916071D01*
X170249000Y-100030357D01*
X171506142Y-100430357D02*
X171391857Y-100373214D01*
X171334714Y-100258928D01*
X171334714Y-99230357D01*
X172420428Y-100373214D02*
X172306142Y-100430357D01*
X172077571Y-100430357D01*
X171963285Y-100373214D01*
X171906142Y-100258928D01*
X171906142Y-99801785D01*
X171963285Y-99687500D01*
X172077571Y-99630357D01*
X172306142Y-99630357D01*
X172420428Y-99687500D01*
X172477571Y-99801785D01*
X172477571Y-99916071D01*
X171906142Y-100030357D01*
X173506142Y-100373214D02*
X173391857Y-100430357D01*
X173163285Y-100430357D01*
X173049000Y-100373214D01*
X172991857Y-100316071D01*
X172934714Y-100201785D01*
X172934714Y-99858928D01*
X172991857Y-99744642D01*
X173049000Y-99687500D01*
X173163285Y-99630357D01*
X173391857Y-99630357D01*
X173506142Y-99687500D01*
X173849000Y-99630357D02*
X174306142Y-99630357D01*
X174020428Y-99230357D02*
X174020428Y-100258928D01*
X174077571Y-100373214D01*
X174191857Y-100430357D01*
X174306142Y-100430357D01*
X175563285Y-100373214D02*
X175734714Y-100430357D01*
X176020428Y-100430357D01*
X176134714Y-100373214D01*
X176191857Y-100316071D01*
X176249000Y-100201785D01*
X176249000Y-100087500D01*
X176191857Y-99973214D01*
X176134714Y-99916071D01*
X176020428Y-99858928D01*
X175791857Y-99801785D01*
X175677571Y-99744642D01*
X175620428Y-99687500D01*
X175563285Y-99573214D01*
X175563285Y-99458928D01*
X175620428Y-99344642D01*
X175677571Y-99287500D01*
X175791857Y-99230357D01*
X176077571Y-99230357D01*
X176249000Y-99287500D01*
X176991857Y-99858928D02*
X176991857Y-100430357D01*
X176591857Y-99230357D02*
X176991857Y-99858928D01*
X177391857Y-99230357D01*
X178306142Y-99630357D02*
X178306142Y-100430357D01*
X178020428Y-99173214D02*
X177734714Y-100030357D01*
X178477571Y-100030357D01*
X147991857Y-101783928D02*
X147991857Y-102012500D01*
X148049000Y-102012500D02*
X148049000Y-101783928D01*
X148106142Y-101726785D02*
X148106142Y-102069642D01*
X148163285Y-102012500D02*
X148163285Y-101783928D01*
X148220428Y-101783928D02*
X148220428Y-102012500D01*
X147991857Y-101955357D02*
X148106142Y-102069642D01*
X148220428Y-101955357D01*
X147991857Y-101841071D02*
X148106142Y-101726785D01*
X148220428Y-101841071D01*
X147991857Y-101783928D02*
X148106142Y-101726785D01*
X148220428Y-101783928D01*
X148277571Y-101898214D01*
X148220428Y-102012500D01*
X148106142Y-102069642D01*
X147991857Y-102012500D01*
X147934714Y-101898214D01*
X147991857Y-101783928D01*
X150049000Y-101555357D02*
X150049000Y-102755357D01*
X150049000Y-101612500D02*
X150163285Y-101555357D01*
X150391857Y-101555357D01*
X150506142Y-101612500D01*
X150563285Y-101669642D01*
X150620428Y-101783928D01*
X150620428Y-102126785D01*
X150563285Y-102241071D01*
X150506142Y-102298214D01*
X150391857Y-102355357D01*
X150163285Y-102355357D01*
X150049000Y-102298214D01*
X151134714Y-102355357D02*
X151134714Y-101555357D01*
X151134714Y-101783928D02*
X151191857Y-101669642D01*
X151249000Y-101612500D01*
X151363285Y-101555357D01*
X151477571Y-101555357D01*
X152334714Y-102298214D02*
X152220428Y-102355357D01*
X151991857Y-102355357D01*
X151877571Y-102298214D01*
X151820428Y-102183928D01*
X151820428Y-101726785D01*
X151877571Y-101612500D01*
X151991857Y-101555357D01*
X152220428Y-101555357D01*
X152334714Y-101612500D01*
X152391857Y-101726785D01*
X152391857Y-101841071D01*
X151820428Y-101955357D01*
X152849000Y-102298214D02*
X152963285Y-102355357D01*
X153191857Y-102355357D01*
X153306142Y-102298214D01*
X153363285Y-102183928D01*
X153363285Y-102126785D01*
X153306142Y-102012500D01*
X153191857Y-101955357D01*
X153020428Y-101955357D01*
X152906142Y-101898214D01*
X152849000Y-101783928D01*
X152849000Y-101726785D01*
X152906142Y-101612500D01*
X153020428Y-101555357D01*
X153191857Y-101555357D01*
X153306142Y-101612500D01*
X153820428Y-102298214D02*
X153934714Y-102355357D01*
X154163285Y-102355357D01*
X154277571Y-102298214D01*
X154334714Y-102183928D01*
X154334714Y-102126785D01*
X154277571Y-102012500D01*
X154163285Y-101955357D01*
X153991857Y-101955357D01*
X153877571Y-101898214D01*
X153820428Y-101783928D01*
X153820428Y-101726785D01*
X153877571Y-101612500D01*
X153991857Y-101555357D01*
X154163285Y-101555357D01*
X154277571Y-101612500D01*
X129334714Y-103708928D02*
X129334714Y-103937500D01*
X129391857Y-103937500D02*
X129391857Y-103708928D01*
X129449000Y-103651785D02*
X129449000Y-103994642D01*
X129506142Y-103937500D02*
X129506142Y-103708928D01*
X129563285Y-103708928D02*
X129563285Y-103937500D01*
X129334714Y-103880357D02*
X129449000Y-103994642D01*
X129563285Y-103880357D01*
X129334714Y-103766071D02*
X129449000Y-103651785D01*
X129563285Y-103766071D01*
X129334714Y-103708928D02*
X129449000Y-103651785D01*
X129563285Y-103708928D01*
X129620428Y-103823214D01*
X129563285Y-103937500D01*
X129449000Y-103994642D01*
X129334714Y-103937500D01*
X129277571Y-103823214D01*
X129334714Y-103708928D01*
X131391857Y-104280357D02*
X131391857Y-103080357D01*
X131906142Y-104280357D02*
X131906142Y-103651785D01*
X131849000Y-103537500D01*
X131734714Y-103480357D01*
X131563285Y-103480357D01*
X131449000Y-103537500D01*
X131391857Y-103594642D01*
X132649000Y-104280357D02*
X132534714Y-104223214D01*
X132477571Y-104166071D01*
X132420428Y-104051785D01*
X132420428Y-103708928D01*
X132477571Y-103594642D01*
X132534714Y-103537500D01*
X132649000Y-103480357D01*
X132820428Y-103480357D01*
X132934714Y-103537500D01*
X132991857Y-103594642D01*
X133049000Y-103708928D01*
X133049000Y-104051785D01*
X132991857Y-104166071D01*
X132934714Y-104223214D01*
X132820428Y-104280357D01*
X132649000Y-104280357D01*
X133734714Y-104280357D02*
X133620428Y-104223214D01*
X133563285Y-104108928D01*
X133563285Y-103080357D01*
X134706142Y-104280357D02*
X134706142Y-103080357D01*
X134706142Y-104223214D02*
X134591857Y-104280357D01*
X134363285Y-104280357D01*
X134249000Y-104223214D01*
X134191857Y-104166071D01*
X134134714Y-104051785D01*
X134134714Y-103708928D01*
X134191857Y-103594642D01*
X134249000Y-103537500D01*
X134363285Y-103480357D01*
X134591857Y-103480357D01*
X134706142Y-103537500D01*
X136649000Y-104223214D02*
X136534714Y-104280357D01*
X136306142Y-104280357D01*
X136191857Y-104223214D01*
X136134714Y-104108928D01*
X136134714Y-103651785D01*
X136191857Y-103537500D01*
X136306142Y-103480357D01*
X136534714Y-103480357D01*
X136649000Y-103537500D01*
X136706142Y-103651785D01*
X136706142Y-103766071D01*
X136134714Y-103880357D01*
X137220428Y-104280357D02*
X137220428Y-103480357D01*
X137220428Y-103080357D02*
X137163285Y-103137500D01*
X137220428Y-103194642D01*
X137277571Y-103137500D01*
X137220428Y-103080357D01*
X137220428Y-103194642D01*
X137620428Y-103480357D02*
X138077571Y-103480357D01*
X137791857Y-103080357D02*
X137791857Y-104108928D01*
X137849000Y-104223214D01*
X137963285Y-104280357D01*
X138077571Y-104280357D01*
X138477571Y-104280357D02*
X138477571Y-103080357D01*
X138991857Y-104280357D02*
X138991857Y-103651785D01*
X138934714Y-103537500D01*
X138820428Y-103480357D01*
X138649000Y-103480357D01*
X138534714Y-103537500D01*
X138477571Y-103594642D01*
X140020428Y-104223214D02*
X139906142Y-104280357D01*
X139677571Y-104280357D01*
X139563285Y-104223214D01*
X139506142Y-104108928D01*
X139506142Y-103651785D01*
X139563285Y-103537500D01*
X139677571Y-103480357D01*
X139906142Y-103480357D01*
X140020428Y-103537500D01*
X140077571Y-103651785D01*
X140077571Y-103766071D01*
X139506142Y-103880357D01*
X140591857Y-104280357D02*
X140591857Y-103480357D01*
X140591857Y-103708928D02*
X140649000Y-103594642D01*
X140706142Y-103537500D01*
X140820428Y-103480357D01*
X140934714Y-103480357D01*
X142191857Y-104223214D02*
X142306142Y-104280357D01*
X142534714Y-104280357D01*
X142649000Y-104223214D01*
X142706142Y-104108928D01*
X142706142Y-104051785D01*
X142649000Y-103937500D01*
X142534714Y-103880357D01*
X142363285Y-103880357D01*
X142249000Y-103823214D01*
X142191857Y-103708928D01*
X142191857Y-103651785D01*
X142249000Y-103537500D01*
X142363285Y-103480357D01*
X142534714Y-103480357D01*
X142649000Y-103537500D01*
X143220428Y-104280357D02*
X143220428Y-103480357D01*
X143220428Y-103080357D02*
X143163285Y-103137500D01*
X143220428Y-103194642D01*
X143277571Y-103137500D01*
X143220428Y-103080357D01*
X143220428Y-103194642D01*
X144306142Y-104280357D02*
X144306142Y-103080357D01*
X144306142Y-104223214D02*
X144191857Y-104280357D01*
X143963285Y-104280357D01*
X143849000Y-104223214D01*
X143791857Y-104166071D01*
X143734714Y-104051785D01*
X143734714Y-103708928D01*
X143791857Y-103594642D01*
X143849000Y-103537500D01*
X143963285Y-103480357D01*
X144191857Y-103480357D01*
X144306142Y-103537500D01*
X145334714Y-104223214D02*
X145220428Y-104280357D01*
X144991857Y-104280357D01*
X144877571Y-104223214D01*
X144820428Y-104108928D01*
X144820428Y-103651785D01*
X144877571Y-103537500D01*
X144991857Y-103480357D01*
X145220428Y-103480357D01*
X145334714Y-103537500D01*
X145391857Y-103651785D01*
X145391857Y-103766071D01*
X144820428Y-103880357D01*
X146820428Y-104280357D02*
X146820428Y-103080357D01*
X146820428Y-103537500D02*
X146934714Y-103480357D01*
X147163285Y-103480357D01*
X147277571Y-103537500D01*
X147334714Y-103594642D01*
X147391857Y-103708928D01*
X147391857Y-104051785D01*
X147334714Y-104166071D01*
X147277571Y-104223214D01*
X147163285Y-104280357D01*
X146934714Y-104280357D01*
X146820428Y-104223214D01*
X148420428Y-103480357D02*
X148420428Y-104280357D01*
X147906142Y-103480357D02*
X147906142Y-104108928D01*
X147963285Y-104223214D01*
X148077571Y-104280357D01*
X148249000Y-104280357D01*
X148363285Y-104223214D01*
X148420428Y-104166071D01*
X148820428Y-103480357D02*
X149277571Y-103480357D01*
X148991857Y-103080357D02*
X148991857Y-104108928D01*
X149049000Y-104223214D01*
X149163285Y-104280357D01*
X149277571Y-104280357D01*
X149506142Y-103480357D02*
X149963285Y-103480357D01*
X149677571Y-103080357D02*
X149677571Y-104108928D01*
X149734714Y-104223214D01*
X149849000Y-104280357D01*
X149963285Y-104280357D01*
X150534714Y-104280357D02*
X150420428Y-104223214D01*
X150363285Y-104166071D01*
X150306142Y-104051785D01*
X150306142Y-103708928D01*
X150363285Y-103594642D01*
X150420428Y-103537500D01*
X150534714Y-103480357D01*
X150706142Y-103480357D01*
X150820428Y-103537500D01*
X150877571Y-103594642D01*
X150934714Y-103708928D01*
X150934714Y-104051785D01*
X150877571Y-104166071D01*
X150820428Y-104223214D01*
X150706142Y-104280357D01*
X150534714Y-104280357D01*
X151449000Y-103480357D02*
X151449000Y-104280357D01*
X151449000Y-103594642D02*
X151506142Y-103537500D01*
X151620428Y-103480357D01*
X151791857Y-103480357D01*
X151906142Y-103537500D01*
X151963285Y-103651785D01*
X151963285Y-104280357D01*
X153963285Y-104280357D02*
X153963285Y-103651785D01*
X153906142Y-103537500D01*
X153791857Y-103480357D01*
X153563285Y-103480357D01*
X153449000Y-103537500D01*
X153963285Y-104223214D02*
X153849000Y-104280357D01*
X153563285Y-104280357D01*
X153449000Y-104223214D01*
X153391857Y-104108928D01*
X153391857Y-103994642D01*
X153449000Y-103880357D01*
X153563285Y-103823214D01*
X153849000Y-103823214D01*
X153963285Y-103766071D01*
X154534714Y-103480357D02*
X154534714Y-104280357D01*
X154534714Y-103594642D02*
X154591857Y-103537500D01*
X154706142Y-103480357D01*
X154877571Y-103480357D01*
X154991857Y-103537500D01*
X155049000Y-103651785D01*
X155049000Y-104280357D01*
X156134714Y-104280357D02*
X156134714Y-103080357D01*
X156134714Y-104223214D02*
X156020428Y-104280357D01*
X155791857Y-104280357D01*
X155677571Y-104223214D01*
X155620428Y-104166071D01*
X155563285Y-104051785D01*
X155563285Y-103708928D01*
X155620428Y-103594642D01*
X155677571Y-103537500D01*
X155791857Y-103480357D01*
X156020428Y-103480357D01*
X156134714Y-103537500D01*
X157449000Y-103480357D02*
X157906142Y-103480357D01*
X157620428Y-103080357D02*
X157620428Y-104108928D01*
X157677571Y-104223214D01*
X157791857Y-104280357D01*
X157906142Y-104280357D01*
X158820428Y-104280357D02*
X158820428Y-103651785D01*
X158763285Y-103537500D01*
X158649000Y-103480357D01*
X158420428Y-103480357D01*
X158306142Y-103537500D01*
X158820428Y-104223214D02*
X158706142Y-104280357D01*
X158420428Y-104280357D01*
X158306142Y-104223214D01*
X158249000Y-104108928D01*
X158249000Y-103994642D01*
X158306142Y-103880357D01*
X158420428Y-103823214D01*
X158706142Y-103823214D01*
X158820428Y-103766071D01*
X159391857Y-103480357D02*
X159391857Y-104680357D01*
X159391857Y-103537500D02*
X159506142Y-103480357D01*
X159734714Y-103480357D01*
X159849000Y-103537500D01*
X159906142Y-103594642D01*
X159963285Y-103708928D01*
X159963285Y-104051785D01*
X159906142Y-104166071D01*
X159849000Y-104223214D01*
X159734714Y-104280357D01*
X159506142Y-104280357D01*
X159391857Y-104223214D01*
X161220428Y-103480357D02*
X161677571Y-103480357D01*
X161391857Y-103080357D02*
X161391857Y-104108928D01*
X161449000Y-104223214D01*
X161563285Y-104280357D01*
X161677571Y-104280357D01*
X162249000Y-104280357D02*
X162134714Y-104223214D01*
X162077571Y-104166071D01*
X162020428Y-104051785D01*
X162020428Y-103708928D01*
X162077571Y-103594642D01*
X162134714Y-103537500D01*
X162249000Y-103480357D01*
X162420428Y-103480357D01*
X162534714Y-103537500D01*
X162591857Y-103594642D01*
X162649000Y-103708928D01*
X162649000Y-104051785D01*
X162591857Y-104166071D01*
X162534714Y-104223214D01*
X162420428Y-104280357D01*
X162249000Y-104280357D01*
X164591857Y-104280357D02*
X164591857Y-103651785D01*
X164534714Y-103537500D01*
X164420428Y-103480357D01*
X164191857Y-103480357D01*
X164077571Y-103537500D01*
X164591857Y-104223214D02*
X164477571Y-104280357D01*
X164191857Y-104280357D01*
X164077571Y-104223214D01*
X164020428Y-104108928D01*
X164020428Y-103994642D01*
X164077571Y-103880357D01*
X164191857Y-103823214D01*
X164477571Y-103823214D01*
X164591857Y-103766071D01*
X165677571Y-104280357D02*
X165677571Y-103080357D01*
X165677571Y-104223214D02*
X165563285Y-104280357D01*
X165334714Y-104280357D01*
X165220428Y-104223214D01*
X165163285Y-104166071D01*
X165106142Y-104051785D01*
X165106142Y-103708928D01*
X165163285Y-103594642D01*
X165220428Y-103537500D01*
X165334714Y-103480357D01*
X165563285Y-103480357D01*
X165677571Y-103537500D01*
X166249000Y-103480357D02*
X166249000Y-104508928D01*
X166191857Y-104623214D01*
X166077571Y-104680357D01*
X166020428Y-104680357D01*
X166249000Y-103080357D02*
X166191857Y-103137500D01*
X166249000Y-103194642D01*
X166306142Y-103137500D01*
X166249000Y-103080357D01*
X166249000Y-103194642D01*
X167334714Y-103480357D02*
X167334714Y-104280357D01*
X166820428Y-103480357D02*
X166820428Y-104108928D01*
X166877571Y-104223214D01*
X166991857Y-104280357D01*
X167163285Y-104280357D01*
X167277571Y-104223214D01*
X167334714Y-104166071D01*
X167849000Y-104223214D02*
X167963285Y-104280357D01*
X168191857Y-104280357D01*
X168306142Y-104223214D01*
X168363285Y-104108928D01*
X168363285Y-104051785D01*
X168306142Y-103937500D01*
X168191857Y-103880357D01*
X168020428Y-103880357D01*
X167906142Y-103823214D01*
X167849000Y-103708928D01*
X167849000Y-103651785D01*
X167906142Y-103537500D01*
X168020428Y-103480357D01*
X168191857Y-103480357D01*
X168306142Y-103537500D01*
X168706142Y-103480357D02*
X169163285Y-103480357D01*
X168877571Y-103080357D02*
X168877571Y-104108928D01*
X168934714Y-104223214D01*
X169049000Y-104280357D01*
X169163285Y-104280357D01*
X170306142Y-103480357D02*
X170763285Y-103480357D01*
X170477571Y-103080357D02*
X170477571Y-104108928D01*
X170534714Y-104223214D01*
X170649000Y-104280357D01*
X170763285Y-104280357D01*
X171163285Y-104280357D02*
X171163285Y-103080357D01*
X171677571Y-104280357D02*
X171677571Y-103651785D01*
X171620428Y-103537500D01*
X171506142Y-103480357D01*
X171334714Y-103480357D01*
X171220428Y-103537500D01*
X171163285Y-103594642D01*
X172706142Y-104223214D02*
X172591857Y-104280357D01*
X172363285Y-104280357D01*
X172249000Y-104223214D01*
X172191857Y-104108928D01*
X172191857Y-103651785D01*
X172249000Y-103537500D01*
X172363285Y-103480357D01*
X172591857Y-103480357D01*
X172706142Y-103537500D01*
X172763285Y-103651785D01*
X172763285Y-103766071D01*
X172191857Y-103880357D01*
X174191857Y-104280357D02*
X174191857Y-103080357D01*
X174191857Y-103537500D02*
X174306142Y-103480357D01*
X174534714Y-103480357D01*
X174649000Y-103537500D01*
X174706142Y-103594642D01*
X174763285Y-103708928D01*
X174763285Y-104051785D01*
X174706142Y-104166071D01*
X174649000Y-104223214D01*
X174534714Y-104280357D01*
X174306142Y-104280357D01*
X174191857Y-104223214D01*
X175734714Y-104223214D02*
X175620428Y-104280357D01*
X175391857Y-104280357D01*
X175277571Y-104223214D01*
X175220428Y-104108928D01*
X175220428Y-103651785D01*
X175277571Y-103537500D01*
X175391857Y-103480357D01*
X175620428Y-103480357D01*
X175734714Y-103537500D01*
X175791857Y-103651785D01*
X175791857Y-103766071D01*
X175220428Y-103880357D01*
X176820428Y-104280357D02*
X176820428Y-103651785D01*
X176763285Y-103537500D01*
X176649000Y-103480357D01*
X176420428Y-103480357D01*
X176306142Y-103537500D01*
X176820428Y-104223214D02*
X176706142Y-104280357D01*
X176420428Y-104280357D01*
X176306142Y-104223214D01*
X176249000Y-104108928D01*
X176249000Y-103994642D01*
X176306142Y-103880357D01*
X176420428Y-103823214D01*
X176706142Y-103823214D01*
X176820428Y-103766071D01*
X177220428Y-103480357D02*
X177677571Y-103480357D01*
X177391857Y-103080357D02*
X177391857Y-104108928D01*
X177449000Y-104223214D01*
X177563285Y-104280357D01*
X177677571Y-104280357D01*
X134677571Y-105633928D02*
X134677571Y-105862500D01*
X134734714Y-105862500D02*
X134734714Y-105633928D01*
X134791857Y-105576785D02*
X134791857Y-105919642D01*
X134849000Y-105862500D02*
X134849000Y-105633928D01*
X134906142Y-105633928D02*
X134906142Y-105862500D01*
X134677571Y-105805357D02*
X134791857Y-105919642D01*
X134906142Y-105805357D01*
X134677571Y-105691071D02*
X134791857Y-105576785D01*
X134906142Y-105691071D01*
X134677571Y-105633928D02*
X134791857Y-105576785D01*
X134906142Y-105633928D01*
X134963285Y-105748214D01*
X134906142Y-105862500D01*
X134791857Y-105919642D01*
X134677571Y-105862500D01*
X134620428Y-105748214D01*
X134677571Y-105633928D01*
X136734714Y-106205357D02*
X136734714Y-105005357D01*
X137249000Y-106205357D02*
X137249000Y-105576785D01*
X137191857Y-105462500D01*
X137077571Y-105405357D01*
X136906142Y-105405357D01*
X136791857Y-105462500D01*
X136734714Y-105519642D01*
X137991857Y-106205357D02*
X137877571Y-106148214D01*
X137820428Y-106091071D01*
X137763285Y-105976785D01*
X137763285Y-105633928D01*
X137820428Y-105519642D01*
X137877571Y-105462500D01*
X137991857Y-105405357D01*
X138163285Y-105405357D01*
X138277571Y-105462500D01*
X138334714Y-105519642D01*
X138391857Y-105633928D01*
X138391857Y-105976785D01*
X138334714Y-106091071D01*
X138277571Y-106148214D01*
X138163285Y-106205357D01*
X137991857Y-106205357D01*
X139077571Y-106205357D02*
X138963285Y-106148214D01*
X138906142Y-106033928D01*
X138906142Y-105005357D01*
X140049000Y-106205357D02*
X140049000Y-105005357D01*
X140049000Y-106148214D02*
X139934714Y-106205357D01*
X139706142Y-106205357D01*
X139591857Y-106148214D01*
X139534714Y-106091071D01*
X139477571Y-105976785D01*
X139477571Y-105633928D01*
X139534714Y-105519642D01*
X139591857Y-105462500D01*
X139706142Y-105405357D01*
X139934714Y-105405357D01*
X140049000Y-105462500D01*
X141534714Y-106205357D02*
X141534714Y-105005357D01*
X141534714Y-105462500D02*
X141649000Y-105405357D01*
X141877571Y-105405357D01*
X141991857Y-105462500D01*
X142049000Y-105519642D01*
X142106142Y-105633928D01*
X142106142Y-105976785D01*
X142049000Y-106091071D01*
X141991857Y-106148214D01*
X141877571Y-106205357D01*
X141649000Y-106205357D01*
X141534714Y-106148214D01*
X142791857Y-106205357D02*
X142677571Y-106148214D01*
X142620428Y-106091071D01*
X142563285Y-105976785D01*
X142563285Y-105633928D01*
X142620428Y-105519642D01*
X142677571Y-105462500D01*
X142791857Y-105405357D01*
X142963285Y-105405357D01*
X143077571Y-105462500D01*
X143134714Y-105519642D01*
X143191857Y-105633928D01*
X143191857Y-105976785D01*
X143134714Y-106091071D01*
X143077571Y-106148214D01*
X142963285Y-106205357D01*
X142791857Y-106205357D01*
X143534714Y-105405357D02*
X143991857Y-105405357D01*
X143706142Y-105005357D02*
X143706142Y-106033928D01*
X143763285Y-106148214D01*
X143877571Y-106205357D01*
X143991857Y-106205357D01*
X144391857Y-106205357D02*
X144391857Y-105005357D01*
X144906142Y-106205357D02*
X144906142Y-105576785D01*
X144849000Y-105462500D01*
X144734714Y-105405357D01*
X144563285Y-105405357D01*
X144449000Y-105462500D01*
X144391857Y-105519642D01*
X146334714Y-106148214D02*
X146449000Y-106205357D01*
X146677571Y-106205357D01*
X146791857Y-106148214D01*
X146849000Y-106033928D01*
X146849000Y-105976785D01*
X146791857Y-105862500D01*
X146677571Y-105805357D01*
X146506142Y-105805357D01*
X146391857Y-105748214D01*
X146334714Y-105633928D01*
X146334714Y-105576785D01*
X146391857Y-105462500D01*
X146506142Y-105405357D01*
X146677571Y-105405357D01*
X146791857Y-105462500D01*
X147363285Y-106205357D02*
X147363285Y-105405357D01*
X147363285Y-105005357D02*
X147306142Y-105062500D01*
X147363285Y-105119642D01*
X147420428Y-105062500D01*
X147363285Y-105005357D01*
X147363285Y-105119642D01*
X148449000Y-106205357D02*
X148449000Y-105005357D01*
X148449000Y-106148214D02*
X148334714Y-106205357D01*
X148106142Y-106205357D01*
X147991857Y-106148214D01*
X147934714Y-106091071D01*
X147877571Y-105976785D01*
X147877571Y-105633928D01*
X147934714Y-105519642D01*
X147991857Y-105462500D01*
X148106142Y-105405357D01*
X148334714Y-105405357D01*
X148449000Y-105462500D01*
X149477571Y-106148214D02*
X149363285Y-106205357D01*
X149134714Y-106205357D01*
X149020428Y-106148214D01*
X148963285Y-106033928D01*
X148963285Y-105576785D01*
X149020428Y-105462500D01*
X149134714Y-105405357D01*
X149363285Y-105405357D01*
X149477571Y-105462500D01*
X149534714Y-105576785D01*
X149534714Y-105691071D01*
X148963285Y-105805357D01*
X150963285Y-106205357D02*
X150963285Y-105005357D01*
X150963285Y-105462500D02*
X151077571Y-105405357D01*
X151306142Y-105405357D01*
X151420428Y-105462500D01*
X151477571Y-105519642D01*
X151534714Y-105633928D01*
X151534714Y-105976785D01*
X151477571Y-106091071D01*
X151420428Y-106148214D01*
X151306142Y-106205357D01*
X151077571Y-106205357D01*
X150963285Y-106148214D01*
X152563285Y-105405357D02*
X152563285Y-106205357D01*
X152049000Y-105405357D02*
X152049000Y-106033928D01*
X152106142Y-106148214D01*
X152220428Y-106205357D01*
X152391857Y-106205357D01*
X152506142Y-106148214D01*
X152563285Y-106091071D01*
X152963285Y-105405357D02*
X153420428Y-105405357D01*
X153134714Y-105005357D02*
X153134714Y-106033928D01*
X153191857Y-106148214D01*
X153306142Y-106205357D01*
X153420428Y-106205357D01*
X153649000Y-105405357D02*
X154106142Y-105405357D01*
X153820428Y-105005357D02*
X153820428Y-106033928D01*
X153877571Y-106148214D01*
X153991857Y-106205357D01*
X154106142Y-106205357D01*
X154677571Y-106205357D02*
X154563285Y-106148214D01*
X154506142Y-106091071D01*
X154449000Y-105976785D01*
X154449000Y-105633928D01*
X154506142Y-105519642D01*
X154563285Y-105462500D01*
X154677571Y-105405357D01*
X154849000Y-105405357D01*
X154963285Y-105462500D01*
X155020428Y-105519642D01*
X155077571Y-105633928D01*
X155077571Y-105976785D01*
X155020428Y-106091071D01*
X154963285Y-106148214D01*
X154849000Y-106205357D01*
X154677571Y-106205357D01*
X155591857Y-105405357D02*
X155591857Y-106205357D01*
X155591857Y-105519642D02*
X155649000Y-105462500D01*
X155763285Y-105405357D01*
X155934714Y-105405357D01*
X156049000Y-105462500D01*
X156106142Y-105576785D01*
X156106142Y-106205357D01*
X156620428Y-106148214D02*
X156734714Y-106205357D01*
X156963285Y-106205357D01*
X157077571Y-106148214D01*
X157134714Y-106033928D01*
X157134714Y-105976785D01*
X157077571Y-105862500D01*
X156963285Y-105805357D01*
X156791857Y-105805357D01*
X156677571Y-105748214D01*
X156620428Y-105633928D01*
X156620428Y-105576785D01*
X156677571Y-105462500D01*
X156791857Y-105405357D01*
X156963285Y-105405357D01*
X157077571Y-105462500D01*
X158391857Y-105405357D02*
X158849000Y-105405357D01*
X158563285Y-105005357D02*
X158563285Y-106033928D01*
X158620428Y-106148214D01*
X158734714Y-106205357D01*
X158849000Y-106205357D01*
X159420428Y-106205357D02*
X159306142Y-106148214D01*
X159249000Y-106091071D01*
X159191857Y-105976785D01*
X159191857Y-105633928D01*
X159249000Y-105519642D01*
X159306142Y-105462500D01*
X159420428Y-105405357D01*
X159591857Y-105405357D01*
X159706142Y-105462500D01*
X159763285Y-105519642D01*
X159820428Y-105633928D01*
X159820428Y-105976785D01*
X159763285Y-106091071D01*
X159706142Y-106148214D01*
X159591857Y-106205357D01*
X159420428Y-106205357D01*
X161077571Y-105405357D02*
X161534714Y-105405357D01*
X161249000Y-105005357D02*
X161249000Y-106033928D01*
X161306142Y-106148214D01*
X161420428Y-106205357D01*
X161534714Y-106205357D01*
X162449000Y-106205357D02*
X162449000Y-105576785D01*
X162391857Y-105462500D01*
X162277571Y-105405357D01*
X162049000Y-105405357D01*
X161934714Y-105462500D01*
X162449000Y-106148214D02*
X162334714Y-106205357D01*
X162049000Y-106205357D01*
X161934714Y-106148214D01*
X161877571Y-106033928D01*
X161877571Y-105919642D01*
X161934714Y-105805357D01*
X162049000Y-105748214D01*
X162334714Y-105748214D01*
X162449000Y-105691071D01*
X163020428Y-105405357D02*
X163020428Y-106605357D01*
X163020428Y-105462500D02*
X163134714Y-105405357D01*
X163363285Y-105405357D01*
X163477571Y-105462500D01*
X163534714Y-105519642D01*
X163591857Y-105633928D01*
X163591857Y-105976785D01*
X163534714Y-106091071D01*
X163477571Y-106148214D01*
X163363285Y-106205357D01*
X163134714Y-106205357D01*
X163020428Y-106148214D01*
X165191857Y-106205357D02*
X165077571Y-106148214D01*
X165020428Y-106091071D01*
X164963285Y-105976785D01*
X164963285Y-105633928D01*
X165020428Y-105519642D01*
X165077571Y-105462500D01*
X165191857Y-105405357D01*
X165363285Y-105405357D01*
X165477571Y-105462500D01*
X165534714Y-105519642D01*
X165591857Y-105633928D01*
X165591857Y-105976785D01*
X165534714Y-106091071D01*
X165477571Y-106148214D01*
X165363285Y-106205357D01*
X165191857Y-106205357D01*
X166620428Y-105405357D02*
X166620428Y-106205357D01*
X166106142Y-105405357D02*
X166106142Y-106033928D01*
X166163285Y-106148214D01*
X166277571Y-106205357D01*
X166449000Y-106205357D01*
X166563285Y-106148214D01*
X166620428Y-106091071D01*
X167020428Y-105405357D02*
X167477571Y-105405357D01*
X167191857Y-105005357D02*
X167191857Y-106033928D01*
X167249000Y-106148214D01*
X167363285Y-106205357D01*
X167477571Y-106205357D01*
X169249000Y-106148214D02*
X169134714Y-106205357D01*
X168906142Y-106205357D01*
X168791857Y-106148214D01*
X168734714Y-106033928D01*
X168734714Y-105576785D01*
X168791857Y-105462500D01*
X168906142Y-105405357D01*
X169134714Y-105405357D01*
X169249000Y-105462500D01*
X169306142Y-105576785D01*
X169306142Y-105691071D01*
X168734714Y-105805357D01*
X169706142Y-105405357D02*
X169991857Y-106205357D01*
X170277571Y-105405357D01*
X171191857Y-106148214D02*
X171077571Y-106205357D01*
X170849000Y-106205357D01*
X170734714Y-106148214D01*
X170677571Y-106033928D01*
X170677571Y-105576785D01*
X170734714Y-105462500D01*
X170849000Y-105405357D01*
X171077571Y-105405357D01*
X171191857Y-105462500D01*
X171249000Y-105576785D01*
X171249000Y-105691071D01*
X170677571Y-105805357D01*
X171763285Y-106205357D02*
X171763285Y-105405357D01*
X171763285Y-105633928D02*
X171820428Y-105519642D01*
X171877571Y-105462500D01*
X171991857Y-105405357D01*
X172106142Y-105405357D01*
X172391857Y-105405357D02*
X172677571Y-106205357D01*
X172963285Y-105405357D02*
X172677571Y-106205357D01*
X172563285Y-106491071D01*
X172506142Y-106548214D01*
X172391857Y-106605357D01*
X174334714Y-106205357D02*
X174334714Y-105005357D01*
X174334714Y-105462500D02*
X174449000Y-105405357D01*
X174677571Y-105405357D01*
X174791857Y-105462500D01*
X174849000Y-105519642D01*
X174906142Y-105633928D01*
X174906142Y-105976785D01*
X174849000Y-106091071D01*
X174791857Y-106148214D01*
X174677571Y-106205357D01*
X174449000Y-106205357D01*
X174334714Y-106148214D01*
X175877571Y-106148214D02*
X175763285Y-106205357D01*
X175534714Y-106205357D01*
X175420428Y-106148214D01*
X175363285Y-106033928D01*
X175363285Y-105576785D01*
X175420428Y-105462500D01*
X175534714Y-105405357D01*
X175763285Y-105405357D01*
X175877571Y-105462500D01*
X175934714Y-105576785D01*
X175934714Y-105691071D01*
X175363285Y-105805357D01*
X176963285Y-106205357D02*
X176963285Y-105576785D01*
X176906142Y-105462500D01*
X176791857Y-105405357D01*
X176563285Y-105405357D01*
X176449000Y-105462500D01*
X176963285Y-106148214D02*
X176849000Y-106205357D01*
X176563285Y-106205357D01*
X176449000Y-106148214D01*
X176391857Y-106033928D01*
X176391857Y-105919642D01*
X176449000Y-105805357D01*
X176563285Y-105748214D01*
X176849000Y-105748214D01*
X176963285Y-105691071D01*
X177363285Y-105405357D02*
X177820428Y-105405357D01*
X177534714Y-105005357D02*
X177534714Y-106033928D01*
X177591857Y-106148214D01*
X177706142Y-106205357D01*
X177820428Y-106205357D01*
X141334714Y-107558928D02*
X141334714Y-107787500D01*
X141391857Y-107787500D02*
X141391857Y-107558928D01*
X141449000Y-107501785D02*
X141449000Y-107844642D01*
X141506142Y-107787500D02*
X141506142Y-107558928D01*
X141563285Y-107558928D02*
X141563285Y-107787500D01*
X141334714Y-107730357D02*
X141449000Y-107844642D01*
X141563285Y-107730357D01*
X141334714Y-107616071D02*
X141449000Y-107501785D01*
X141563285Y-107616071D01*
X141334714Y-107558928D02*
X141449000Y-107501785D01*
X141563285Y-107558928D01*
X141620428Y-107673214D01*
X141563285Y-107787500D01*
X141449000Y-107844642D01*
X141334714Y-107787500D01*
X141277571Y-107673214D01*
X141334714Y-107558928D01*
X143906142Y-108130357D02*
X143906142Y-106930357D01*
X143906142Y-108073214D02*
X143791857Y-108130357D01*
X143563285Y-108130357D01*
X143449000Y-108073214D01*
X143391857Y-108016071D01*
X143334714Y-107901785D01*
X143334714Y-107558928D01*
X143391857Y-107444642D01*
X143449000Y-107387500D01*
X143563285Y-107330357D01*
X143791857Y-107330357D01*
X143906142Y-107387500D01*
X144991857Y-108130357D02*
X144991857Y-107501785D01*
X144934714Y-107387500D01*
X144820428Y-107330357D01*
X144591857Y-107330357D01*
X144477571Y-107387500D01*
X144991857Y-108073214D02*
X144877571Y-108130357D01*
X144591857Y-108130357D01*
X144477571Y-108073214D01*
X144420428Y-107958928D01*
X144420428Y-107844642D01*
X144477571Y-107730357D01*
X144591857Y-107673214D01*
X144877571Y-107673214D01*
X144991857Y-107616071D01*
X145563285Y-107330357D02*
X145563285Y-108130357D01*
X145563285Y-107444642D02*
X145620428Y-107387500D01*
X145734714Y-107330357D01*
X145906142Y-107330357D01*
X146020428Y-107387500D01*
X146077571Y-107501785D01*
X146077571Y-108130357D01*
X147163285Y-108073214D02*
X147049000Y-108130357D01*
X146820428Y-108130357D01*
X146706142Y-108073214D01*
X146649000Y-108016071D01*
X146591857Y-107901785D01*
X146591857Y-107558928D01*
X146649000Y-107444642D01*
X146706142Y-107387500D01*
X146820428Y-107330357D01*
X147049000Y-107330357D01*
X147163285Y-107387500D01*
X148134714Y-108073214D02*
X148020428Y-108130357D01*
X147791857Y-108130357D01*
X147677571Y-108073214D01*
X147620428Y-107958928D01*
X147620428Y-107501785D01*
X147677571Y-107387500D01*
X147791857Y-107330357D01*
X148020428Y-107330357D01*
X148134714Y-107387500D01*
X148191857Y-107501785D01*
X148191857Y-107616071D01*
X147620428Y-107730357D01*
X150134714Y-108130357D02*
X150134714Y-107501785D01*
X150077571Y-107387500D01*
X149963285Y-107330357D01*
X149734714Y-107330357D01*
X149620428Y-107387500D01*
X150134714Y-108073214D02*
X150020428Y-108130357D01*
X149734714Y-108130357D01*
X149620428Y-108073214D01*
X149563285Y-107958928D01*
X149563285Y-107844642D01*
X149620428Y-107730357D01*
X149734714Y-107673214D01*
X150020428Y-107673214D01*
X150134714Y-107616071D01*
X150706142Y-108130357D02*
X150706142Y-107330357D01*
X150706142Y-107558928D02*
X150763285Y-107444642D01*
X150820428Y-107387500D01*
X150934714Y-107330357D01*
X151049000Y-107330357D01*
X151620428Y-108130357D02*
X151506142Y-108073214D01*
X151449000Y-108016071D01*
X151391857Y-107901785D01*
X151391857Y-107558928D01*
X151449000Y-107444642D01*
X151506142Y-107387500D01*
X151620428Y-107330357D01*
X151791857Y-107330357D01*
X151906142Y-107387500D01*
X151963285Y-107444642D01*
X152020428Y-107558928D01*
X152020428Y-107901785D01*
X151963285Y-108016071D01*
X151906142Y-108073214D01*
X151791857Y-108130357D01*
X151620428Y-108130357D01*
X153049000Y-107330357D02*
X153049000Y-108130357D01*
X152534714Y-107330357D02*
X152534714Y-107958928D01*
X152591857Y-108073214D01*
X152706142Y-108130357D01*
X152877571Y-108130357D01*
X152991857Y-108073214D01*
X153049000Y-108016071D01*
X153620428Y-107330357D02*
X153620428Y-108130357D01*
X153620428Y-107444642D02*
X153677571Y-107387500D01*
X153791857Y-107330357D01*
X153963285Y-107330357D01*
X154077571Y-107387500D01*
X154134714Y-107501785D01*
X154134714Y-108130357D01*
X155220428Y-108130357D02*
X155220428Y-106930357D01*
X155220428Y-108073214D02*
X155106142Y-108130357D01*
X154877571Y-108130357D01*
X154763285Y-108073214D01*
X154706142Y-108016071D01*
X154649000Y-107901785D01*
X154649000Y-107558928D01*
X154706142Y-107444642D01*
X154763285Y-107387500D01*
X154877571Y-107330357D01*
X155106142Y-107330357D01*
X155220428Y-107387500D01*
X157220428Y-107330357D02*
X157220428Y-108301785D01*
X157163285Y-108416071D01*
X157106142Y-108473214D01*
X156991857Y-108530357D01*
X156820428Y-108530357D01*
X156706142Y-108473214D01*
X157220428Y-108073214D02*
X157106142Y-108130357D01*
X156877571Y-108130357D01*
X156763285Y-108073214D01*
X156706142Y-108016071D01*
X156649000Y-107901785D01*
X156649000Y-107558928D01*
X156706142Y-107444642D01*
X156763285Y-107387500D01*
X156877571Y-107330357D01*
X157106142Y-107330357D01*
X157220428Y-107387500D01*
X158249000Y-108073214D02*
X158134714Y-108130357D01*
X157906142Y-108130357D01*
X157791857Y-108073214D01*
X157734714Y-107958928D01*
X157734714Y-107501785D01*
X157791857Y-107387500D01*
X157906142Y-107330357D01*
X158134714Y-107330357D01*
X158249000Y-107387500D01*
X158306142Y-107501785D01*
X158306142Y-107616071D01*
X157734714Y-107730357D01*
X158649000Y-107330357D02*
X159106142Y-107330357D01*
X158820428Y-106930357D02*
X158820428Y-107958928D01*
X158877571Y-108073214D01*
X158991857Y-108130357D01*
X159106142Y-108130357D01*
X160934714Y-108073214D02*
X160820428Y-108130357D01*
X160591857Y-108130357D01*
X160477571Y-108073214D01*
X160420428Y-108016071D01*
X160363285Y-107901785D01*
X160363285Y-107558928D01*
X160420428Y-107444642D01*
X160477571Y-107387500D01*
X160591857Y-107330357D01*
X160820428Y-107330357D01*
X160934714Y-107387500D01*
X161449000Y-108130357D02*
X161449000Y-107330357D01*
X161449000Y-107558928D02*
X161506142Y-107444642D01*
X161563285Y-107387500D01*
X161677571Y-107330357D01*
X161791857Y-107330357D01*
X162706142Y-108130357D02*
X162706142Y-107501785D01*
X162649000Y-107387500D01*
X162534714Y-107330357D01*
X162306142Y-107330357D01*
X162191857Y-107387500D01*
X162706142Y-108073214D02*
X162591857Y-108130357D01*
X162306142Y-108130357D01*
X162191857Y-108073214D01*
X162134714Y-107958928D01*
X162134714Y-107844642D01*
X162191857Y-107730357D01*
X162306142Y-107673214D01*
X162591857Y-107673214D01*
X162706142Y-107616071D01*
X163163285Y-107330357D02*
X163791857Y-107330357D01*
X163163285Y-108130357D01*
X163791857Y-108130357D01*
X164134714Y-107330357D02*
X164420428Y-108130357D01*
X164706142Y-107330357D02*
X164420428Y-108130357D01*
X164306142Y-108416071D01*
X164249000Y-108473214D01*
X164134714Y-108530357D01*
X141591857Y-109483928D02*
X141591857Y-109712500D01*
X141649000Y-109712500D02*
X141649000Y-109483928D01*
X141706142Y-109426785D02*
X141706142Y-109769642D01*
X141763285Y-109712500D02*
X141763285Y-109483928D01*
X141820428Y-109483928D02*
X141820428Y-109712500D01*
X141591857Y-109655357D02*
X141706142Y-109769642D01*
X141820428Y-109655357D01*
X141591857Y-109541071D02*
X141706142Y-109426785D01*
X141820428Y-109541071D01*
X141591857Y-109483928D02*
X141706142Y-109426785D01*
X141820428Y-109483928D01*
X141877571Y-109598214D01*
X141820428Y-109712500D01*
X141706142Y-109769642D01*
X141591857Y-109712500D01*
X141534714Y-109598214D01*
X141591857Y-109483928D01*
X144106142Y-109998214D02*
X143991857Y-110055357D01*
X143763285Y-110055357D01*
X143649000Y-109998214D01*
X143591857Y-109883928D01*
X143591857Y-109426785D01*
X143649000Y-109312500D01*
X143763285Y-109255357D01*
X143991857Y-109255357D01*
X144106142Y-109312500D01*
X144163285Y-109426785D01*
X144163285Y-109541071D01*
X143591857Y-109655357D01*
X145191857Y-110055357D02*
X145191857Y-109426785D01*
X145134714Y-109312500D01*
X145020428Y-109255357D01*
X144791857Y-109255357D01*
X144677571Y-109312500D01*
X145191857Y-109998214D02*
X145077571Y-110055357D01*
X144791857Y-110055357D01*
X144677571Y-109998214D01*
X144620428Y-109883928D01*
X144620428Y-109769642D01*
X144677571Y-109655357D01*
X144791857Y-109598214D01*
X145077571Y-109598214D01*
X145191857Y-109541071D01*
X145591857Y-109255357D02*
X146049000Y-109255357D01*
X145763285Y-108855357D02*
X145763285Y-109883928D01*
X145820428Y-109998214D01*
X145934714Y-110055357D01*
X146049000Y-110055357D01*
X147877571Y-110055357D02*
X147877571Y-109426785D01*
X147820428Y-109312500D01*
X147706142Y-109255357D01*
X147477571Y-109255357D01*
X147363285Y-109312500D01*
X147877571Y-109998214D02*
X147763285Y-110055357D01*
X147477571Y-110055357D01*
X147363285Y-109998214D01*
X147306142Y-109883928D01*
X147306142Y-109769642D01*
X147363285Y-109655357D01*
X147477571Y-109598214D01*
X147763285Y-109598214D01*
X147877571Y-109541071D01*
X148620428Y-110055357D02*
X148506142Y-109998214D01*
X148449000Y-109883928D01*
X148449000Y-108855357D01*
X149249000Y-110055357D02*
X149134714Y-109998214D01*
X149077571Y-109883928D01*
X149077571Y-108855357D01*
X150506142Y-109255357D02*
X150791857Y-110055357D01*
X151077571Y-109255357D02*
X150791857Y-110055357D01*
X150677571Y-110341071D01*
X150620428Y-110398214D01*
X150506142Y-110455357D01*
X151706142Y-110055357D02*
X151591857Y-109998214D01*
X151534714Y-109941071D01*
X151477571Y-109826785D01*
X151477571Y-109483928D01*
X151534714Y-109369642D01*
X151591857Y-109312500D01*
X151706142Y-109255357D01*
X151877571Y-109255357D01*
X151991857Y-109312500D01*
X152049000Y-109369642D01*
X152106142Y-109483928D01*
X152106142Y-109826785D01*
X152049000Y-109941071D01*
X151991857Y-109998214D01*
X151877571Y-110055357D01*
X151706142Y-110055357D01*
X153134714Y-109255357D02*
X153134714Y-110055357D01*
X152620428Y-109255357D02*
X152620428Y-109883928D01*
X152677571Y-109998214D01*
X152791857Y-110055357D01*
X152963285Y-110055357D01*
X153077571Y-109998214D01*
X153134714Y-109941071D01*
X153706142Y-110055357D02*
X153706142Y-109255357D01*
X153706142Y-109483928D02*
X153763285Y-109369642D01*
X153820428Y-109312500D01*
X153934714Y-109255357D01*
X154049000Y-109255357D01*
X155249000Y-109255357D02*
X155534714Y-110055357D01*
X155820428Y-109255357D01*
X156734714Y-109998214D02*
X156620428Y-110055357D01*
X156391857Y-110055357D01*
X156277571Y-109998214D01*
X156220428Y-109883928D01*
X156220428Y-109426785D01*
X156277571Y-109312500D01*
X156391857Y-109255357D01*
X156620428Y-109255357D01*
X156734714Y-109312500D01*
X156791857Y-109426785D01*
X156791857Y-109541071D01*
X156220428Y-109655357D01*
X157820428Y-109255357D02*
X157820428Y-110226785D01*
X157763285Y-110341071D01*
X157706142Y-110398214D01*
X157591857Y-110455357D01*
X157420428Y-110455357D01*
X157306142Y-110398214D01*
X157820428Y-109998214D02*
X157706142Y-110055357D01*
X157477571Y-110055357D01*
X157363285Y-109998214D01*
X157306142Y-109941071D01*
X157249000Y-109826785D01*
X157249000Y-109483928D01*
X157306142Y-109369642D01*
X157363285Y-109312500D01*
X157477571Y-109255357D01*
X157706142Y-109255357D01*
X157820428Y-109312500D01*
X158849000Y-109998214D02*
X158734714Y-110055357D01*
X158506142Y-110055357D01*
X158391857Y-109998214D01*
X158334714Y-109883928D01*
X158334714Y-109426785D01*
X158391857Y-109312500D01*
X158506142Y-109255357D01*
X158734714Y-109255357D01*
X158849000Y-109312500D01*
X158906142Y-109426785D01*
X158906142Y-109541071D01*
X158334714Y-109655357D01*
X159249000Y-109255357D02*
X159706142Y-109255357D01*
X159420428Y-108855357D02*
X159420428Y-109883928D01*
X159477571Y-109998214D01*
X159591857Y-110055357D01*
X159706142Y-110055357D01*
X160620428Y-110055357D02*
X160620428Y-109426785D01*
X160563285Y-109312500D01*
X160449000Y-109255357D01*
X160220428Y-109255357D01*
X160106142Y-109312500D01*
X160620428Y-109998214D02*
X160506142Y-110055357D01*
X160220428Y-110055357D01*
X160106142Y-109998214D01*
X160049000Y-109883928D01*
X160049000Y-109769642D01*
X160106142Y-109655357D01*
X160220428Y-109598214D01*
X160506142Y-109598214D01*
X160620428Y-109541071D01*
X161191857Y-110055357D02*
X161191857Y-108855357D01*
X161191857Y-109312500D02*
X161306142Y-109255357D01*
X161534714Y-109255357D01*
X161649000Y-109312500D01*
X161706142Y-109369642D01*
X161763285Y-109483928D01*
X161763285Y-109826785D01*
X161706142Y-109941071D01*
X161649000Y-109998214D01*
X161534714Y-110055357D01*
X161306142Y-110055357D01*
X161191857Y-109998214D01*
X162449000Y-110055357D02*
X162334714Y-109998214D01*
X162277571Y-109883928D01*
X162277571Y-108855357D01*
X163363285Y-109998214D02*
X163249000Y-110055357D01*
X163020428Y-110055357D01*
X162906142Y-109998214D01*
X162849000Y-109883928D01*
X162849000Y-109426785D01*
X162906142Y-109312500D01*
X163020428Y-109255357D01*
X163249000Y-109255357D01*
X163363285Y-109312500D01*
X163420428Y-109426785D01*
X163420428Y-109541071D01*
X162849000Y-109655357D01*
X163877571Y-109998214D02*
X163991857Y-110055357D01*
X164220428Y-110055357D01*
X164334714Y-109998214D01*
X164391857Y-109883928D01*
X164391857Y-109826785D01*
X164334714Y-109712500D01*
X164220428Y-109655357D01*
X164049000Y-109655357D01*
X163934714Y-109598214D01*
X163877571Y-109483928D01*
X163877571Y-109426785D01*
X163934714Y-109312500D01*
X164049000Y-109255357D01*
X164220428Y-109255357D01*
X164334714Y-109312500D01*
X134077571Y-111408928D02*
X134077571Y-111637500D01*
X134134714Y-111637500D02*
X134134714Y-111408928D01*
X134191857Y-111351785D02*
X134191857Y-111694642D01*
X134249000Y-111637500D02*
X134249000Y-111408928D01*
X134306142Y-111408928D02*
X134306142Y-111637500D01*
X134077571Y-111580357D02*
X134191857Y-111694642D01*
X134306142Y-111580357D01*
X134077571Y-111466071D02*
X134191857Y-111351785D01*
X134306142Y-111466071D01*
X134077571Y-111408928D02*
X134191857Y-111351785D01*
X134306142Y-111408928D01*
X134363285Y-111523214D01*
X134306142Y-111637500D01*
X134191857Y-111694642D01*
X134077571Y-111637500D01*
X134020428Y-111523214D01*
X134077571Y-111408928D01*
X136134714Y-111980357D02*
X136134714Y-110780357D01*
X136134714Y-111237500D02*
X136249000Y-111180357D01*
X136477571Y-111180357D01*
X136591857Y-111237500D01*
X136649000Y-111294642D01*
X136706142Y-111408928D01*
X136706142Y-111751785D01*
X136649000Y-111866071D01*
X136591857Y-111923214D01*
X136477571Y-111980357D01*
X136249000Y-111980357D01*
X136134714Y-111923214D01*
X137677571Y-111923214D02*
X137563285Y-111980357D01*
X137334714Y-111980357D01*
X137220428Y-111923214D01*
X137163285Y-111808928D01*
X137163285Y-111351785D01*
X137220428Y-111237500D01*
X137334714Y-111180357D01*
X137563285Y-111180357D01*
X137677571Y-111237500D01*
X137734714Y-111351785D01*
X137734714Y-111466071D01*
X137163285Y-111580357D01*
X139620428Y-111923214D02*
X139506142Y-111980357D01*
X139277571Y-111980357D01*
X139163285Y-111923214D01*
X139106142Y-111808928D01*
X139106142Y-111351785D01*
X139163285Y-111237500D01*
X139277571Y-111180357D01*
X139506142Y-111180357D01*
X139620428Y-111237500D01*
X139677571Y-111351785D01*
X139677571Y-111466071D01*
X139106142Y-111580357D01*
X140077571Y-111980357D02*
X140706142Y-111180357D01*
X140077571Y-111180357D02*
X140706142Y-111980357D01*
X141677571Y-111923214D02*
X141563285Y-111980357D01*
X141334714Y-111980357D01*
X141220428Y-111923214D01*
X141163285Y-111866071D01*
X141106142Y-111751785D01*
X141106142Y-111408928D01*
X141163285Y-111294642D01*
X141220428Y-111237500D01*
X141334714Y-111180357D01*
X141563285Y-111180357D01*
X141677571Y-111237500D01*
X142649000Y-111923214D02*
X142534714Y-111980357D01*
X142306142Y-111980357D01*
X142191857Y-111923214D01*
X142134714Y-111808928D01*
X142134714Y-111351785D01*
X142191857Y-111237500D01*
X142306142Y-111180357D01*
X142534714Y-111180357D01*
X142649000Y-111237500D01*
X142706142Y-111351785D01*
X142706142Y-111466071D01*
X142134714Y-111580357D01*
X143391857Y-111980357D02*
X143277571Y-111923214D01*
X143220428Y-111808928D01*
X143220428Y-110780357D01*
X144020428Y-111980357D02*
X143906142Y-111923214D01*
X143849000Y-111808928D01*
X143849000Y-110780357D01*
X144934714Y-111923214D02*
X144820428Y-111980357D01*
X144591857Y-111980357D01*
X144477571Y-111923214D01*
X144420428Y-111808928D01*
X144420428Y-111351785D01*
X144477571Y-111237500D01*
X144591857Y-111180357D01*
X144820428Y-111180357D01*
X144934714Y-111237500D01*
X144991857Y-111351785D01*
X144991857Y-111466071D01*
X144420428Y-111580357D01*
X145506142Y-111180357D02*
X145506142Y-111980357D01*
X145506142Y-111294642D02*
X145563285Y-111237500D01*
X145677571Y-111180357D01*
X145849000Y-111180357D01*
X145963285Y-111237500D01*
X146020428Y-111351785D01*
X146020428Y-111980357D01*
X146420428Y-111180357D02*
X146877571Y-111180357D01*
X146591857Y-110780357D02*
X146591857Y-111808928D01*
X146649000Y-111923214D01*
X146763285Y-111980357D01*
X146877571Y-111980357D01*
X148020428Y-111180357D02*
X148477571Y-111180357D01*
X148191857Y-110780357D02*
X148191857Y-111808928D01*
X148249000Y-111923214D01*
X148363285Y-111980357D01*
X148477571Y-111980357D01*
X149049000Y-111980357D02*
X148934714Y-111923214D01*
X148877571Y-111866071D01*
X148820428Y-111751785D01*
X148820428Y-111408928D01*
X148877571Y-111294642D01*
X148934714Y-111237500D01*
X149049000Y-111180357D01*
X149220428Y-111180357D01*
X149334714Y-111237500D01*
X149391857Y-111294642D01*
X149449000Y-111408928D01*
X149449000Y-111751785D01*
X149391857Y-111866071D01*
X149334714Y-111923214D01*
X149220428Y-111980357D01*
X149049000Y-111980357D01*
X151334714Y-111923214D02*
X151220428Y-111980357D01*
X150991857Y-111980357D01*
X150877571Y-111923214D01*
X150820428Y-111808928D01*
X150820428Y-111351785D01*
X150877571Y-111237500D01*
X150991857Y-111180357D01*
X151220428Y-111180357D01*
X151334714Y-111237500D01*
X151391857Y-111351785D01*
X151391857Y-111466071D01*
X150820428Y-111580357D01*
X152420428Y-111980357D02*
X152420428Y-111351785D01*
X152363285Y-111237500D01*
X152249000Y-111180357D01*
X152020428Y-111180357D01*
X151906142Y-111237500D01*
X152420428Y-111923214D02*
X152306142Y-111980357D01*
X152020428Y-111980357D01*
X151906142Y-111923214D01*
X151849000Y-111808928D01*
X151849000Y-111694642D01*
X151906142Y-111580357D01*
X152020428Y-111523214D01*
X152306142Y-111523214D01*
X152420428Y-111466071D01*
X153506142Y-111923214D02*
X153391857Y-111980357D01*
X153163285Y-111980357D01*
X153049000Y-111923214D01*
X152991857Y-111866071D01*
X152934714Y-111751785D01*
X152934714Y-111408928D01*
X152991857Y-111294642D01*
X153049000Y-111237500D01*
X153163285Y-111180357D01*
X153391857Y-111180357D01*
X153506142Y-111237500D01*
X154020428Y-111980357D02*
X154020428Y-110780357D01*
X154534714Y-111980357D02*
X154534714Y-111351785D01*
X154477571Y-111237500D01*
X154363285Y-111180357D01*
X154191857Y-111180357D01*
X154077571Y-111237500D01*
X154020428Y-111294642D01*
X156191857Y-111980357D02*
X156077571Y-111923214D01*
X156020428Y-111866071D01*
X155963285Y-111751785D01*
X155963285Y-111408928D01*
X156020428Y-111294642D01*
X156077571Y-111237500D01*
X156191857Y-111180357D01*
X156363285Y-111180357D01*
X156477571Y-111237500D01*
X156534714Y-111294642D01*
X156591857Y-111408928D01*
X156591857Y-111751785D01*
X156534714Y-111866071D01*
X156477571Y-111923214D01*
X156363285Y-111980357D01*
X156191857Y-111980357D01*
X156934714Y-111180357D02*
X157391857Y-111180357D01*
X157106142Y-110780357D02*
X157106142Y-111808928D01*
X157163285Y-111923214D01*
X157277571Y-111980357D01*
X157391857Y-111980357D01*
X157791857Y-111980357D02*
X157791857Y-110780357D01*
X158306142Y-111980357D02*
X158306142Y-111351785D01*
X158249000Y-111237500D01*
X158134714Y-111180357D01*
X157963285Y-111180357D01*
X157849000Y-111237500D01*
X157791857Y-111294642D01*
X159334714Y-111923214D02*
X159220428Y-111980357D01*
X158991857Y-111980357D01*
X158877571Y-111923214D01*
X158820428Y-111808928D01*
X158820428Y-111351785D01*
X158877571Y-111237500D01*
X158991857Y-111180357D01*
X159220428Y-111180357D01*
X159334714Y-111237500D01*
X159391857Y-111351785D01*
X159391857Y-111466071D01*
X158820428Y-111580357D01*
X159906142Y-111980357D02*
X159906142Y-111180357D01*
X159906142Y-111408928D02*
X159963285Y-111294642D01*
X160020428Y-111237500D01*
X160134714Y-111180357D01*
X160249000Y-111180357D01*
X162077571Y-111980357D02*
X162077571Y-111351785D01*
X162020428Y-111237500D01*
X161906142Y-111180357D01*
X161677571Y-111180357D01*
X161563285Y-111237500D01*
X162077571Y-111923214D02*
X161963285Y-111980357D01*
X161677571Y-111980357D01*
X161563285Y-111923214D01*
X161506142Y-111808928D01*
X161506142Y-111694642D01*
X161563285Y-111580357D01*
X161677571Y-111523214D01*
X161963285Y-111523214D01*
X162077571Y-111466071D01*
X162649000Y-111180357D02*
X162649000Y-111980357D01*
X162649000Y-111294642D02*
X162706142Y-111237500D01*
X162820428Y-111180357D01*
X162991857Y-111180357D01*
X163106142Y-111237500D01*
X163163285Y-111351785D01*
X163163285Y-111980357D01*
X164249000Y-111980357D02*
X164249000Y-110780357D01*
X164249000Y-111923214D02*
X164134714Y-111980357D01*
X163906142Y-111980357D01*
X163791857Y-111923214D01*
X163734714Y-111866071D01*
X163677571Y-111751785D01*
X163677571Y-111408928D01*
X163734714Y-111294642D01*
X163791857Y-111237500D01*
X163906142Y-111180357D01*
X164134714Y-111180357D01*
X164249000Y-111237500D01*
X165734714Y-111180357D02*
X165734714Y-112380357D01*
X165734714Y-111237500D02*
X165849000Y-111180357D01*
X166077571Y-111180357D01*
X166191857Y-111237500D01*
X166249000Y-111294642D01*
X166306142Y-111408928D01*
X166306142Y-111751785D01*
X166249000Y-111866071D01*
X166191857Y-111923214D01*
X166077571Y-111980357D01*
X165849000Y-111980357D01*
X165734714Y-111923214D01*
X167334714Y-111980357D02*
X167334714Y-111351785D01*
X167277571Y-111237500D01*
X167163285Y-111180357D01*
X166934714Y-111180357D01*
X166820428Y-111237500D01*
X167334714Y-111923214D02*
X167220428Y-111980357D01*
X166934714Y-111980357D01*
X166820428Y-111923214D01*
X166763285Y-111808928D01*
X166763285Y-111694642D01*
X166820428Y-111580357D01*
X166934714Y-111523214D01*
X167220428Y-111523214D01*
X167334714Y-111466071D01*
X167906142Y-111980357D02*
X167906142Y-111180357D01*
X167906142Y-111408928D02*
X167963285Y-111294642D01*
X168020428Y-111237500D01*
X168134714Y-111180357D01*
X168249000Y-111180357D01*
X168477571Y-111180357D02*
X168934714Y-111180357D01*
X168649000Y-110780357D02*
X168649000Y-111808928D01*
X168706142Y-111923214D01*
X168820428Y-111980357D01*
X168934714Y-111980357D01*
X169220428Y-111180357D02*
X169506142Y-111980357D01*
X169791857Y-111180357D02*
X169506142Y-111980357D01*
X169391857Y-112266071D01*
X169334714Y-112323214D01*
X169220428Y-112380357D01*
X171334714Y-111980357D02*
X171220428Y-111923214D01*
X171163285Y-111866071D01*
X171106142Y-111751785D01*
X171106142Y-111408928D01*
X171163285Y-111294642D01*
X171220428Y-111237500D01*
X171334714Y-111180357D01*
X171506142Y-111180357D01*
X171620428Y-111237500D01*
X171677571Y-111294642D01*
X171734714Y-111408928D01*
X171734714Y-111751785D01*
X171677571Y-111866071D01*
X171620428Y-111923214D01*
X171506142Y-111980357D01*
X171334714Y-111980357D01*
X172249000Y-111180357D02*
X172249000Y-111980357D01*
X172249000Y-111294642D02*
X172306142Y-111237500D01*
X172420428Y-111180357D01*
X172591857Y-111180357D01*
X172706142Y-111237500D01*
X172763285Y-111351785D01*
X172763285Y-111980357D01*
D13*
%TO.C,G\u002A\u002A\u002A*%
G36*
X162454958Y-118742559D02*
G01*
X161088577Y-118862102D01*
X160969035Y-117495721D01*
X162335415Y-117376178D01*
X162454958Y-118742559D01*
G37*
X162454958Y-118742559D02*
X161088577Y-118862102D01*
X160969035Y-117495721D01*
X162335415Y-117376178D01*
X162454958Y-118742559D01*
G36*
X154256674Y-119459816D02*
G01*
X152890294Y-119579359D01*
X152770751Y-118212978D01*
X154137131Y-118093435D01*
X154256674Y-119459816D01*
G37*
X154256674Y-119459816D02*
X152890294Y-119579359D01*
X152770751Y-118212978D01*
X154137131Y-118093435D01*
X154256674Y-119459816D01*
G36*
X161190984Y-125278392D02*
G01*
X160735524Y-125318240D01*
X160695676Y-124862780D01*
X161151136Y-124822932D01*
X161190984Y-125278392D01*
G37*
X161190984Y-125278392D02*
X160735524Y-125318240D01*
X160695676Y-124862780D01*
X161151136Y-124822932D01*
X161190984Y-125278392D01*
G36*
X154973931Y-127658100D02*
G01*
X153607550Y-127777643D01*
X153488008Y-126411262D01*
X154854388Y-126291719D01*
X154973931Y-127658100D01*
G37*
X154973931Y-127658100D02*
X153607550Y-127777643D01*
X153488008Y-126411262D01*
X154854388Y-126291719D01*
X154973931Y-127658100D01*
G36*
X163445574Y-119573784D02*
G01*
X160257352Y-119852717D01*
X160018267Y-117119956D01*
X160473727Y-117080108D01*
X160672965Y-119357410D01*
X162950266Y-119158172D01*
X162751028Y-116880870D01*
X160473727Y-117080108D01*
X160018267Y-117119956D01*
X159978419Y-116664496D01*
X163166641Y-116385563D01*
X163445574Y-119573784D01*
G37*
X163445574Y-119573784D02*
X160257352Y-119852717D01*
X160018267Y-117119956D01*
X160473727Y-117080108D01*
X160672965Y-119357410D01*
X162950266Y-119158172D01*
X162751028Y-116880870D01*
X160473727Y-117080108D01*
X160018267Y-117119956D01*
X159978419Y-116664496D01*
X163166641Y-116385563D01*
X163445574Y-119573784D01*
G36*
X156158210Y-120211346D02*
G01*
X155702750Y-120251193D01*
X155623055Y-119340273D01*
X156078515Y-119300425D01*
X156158210Y-120211346D01*
G37*
X156158210Y-120211346D02*
X155702750Y-120251193D01*
X155623055Y-119340273D01*
X156078515Y-119300425D01*
X156158210Y-120211346D01*
G36*
X155247290Y-120291041D02*
G01*
X152059068Y-120569974D01*
X151819983Y-117837213D01*
X152275443Y-117797365D01*
X152474681Y-120074666D01*
X154751982Y-119875428D01*
X154552744Y-117598127D01*
X152275443Y-117797365D01*
X151819983Y-117837213D01*
X151780135Y-117381753D01*
X154968357Y-117102820D01*
X155247290Y-120291041D01*
G37*
X155247290Y-120291041D02*
X152059068Y-120569974D01*
X151819983Y-117837213D01*
X152275443Y-117797365D01*
X152474681Y-120074666D01*
X154751982Y-119875428D01*
X154552744Y-117598127D01*
X152275443Y-117797365D01*
X151819983Y-117837213D01*
X151780135Y-117381753D01*
X154968357Y-117102820D01*
X155247290Y-120291041D01*
G36*
X163069809Y-120524552D02*
G01*
X162614349Y-120564400D01*
X162574501Y-120108940D01*
X163029961Y-120069092D01*
X163069809Y-120524552D01*
G37*
X163069809Y-120524552D02*
X162614349Y-120564400D01*
X162574501Y-120108940D01*
X163029961Y-120069092D01*
X163069809Y-120524552D01*
G36*
X163565117Y-120940165D02*
G01*
X163109656Y-120980012D01*
X163069809Y-120524552D01*
X163525269Y-120484705D01*
X163565117Y-120940165D01*
G37*
X163565117Y-120940165D02*
X163109656Y-120980012D01*
X163069809Y-120524552D01*
X163525269Y-120484705D01*
X163565117Y-120940165D01*
G36*
X162694044Y-121475320D02*
G01*
X162238584Y-121515168D01*
X162198736Y-121059708D01*
X162654196Y-121019860D01*
X162694044Y-121475320D01*
G37*
X162694044Y-121475320D02*
X162238584Y-121515168D01*
X162198736Y-121059708D01*
X162654196Y-121019860D01*
X162694044Y-121475320D01*
G36*
X163724507Y-122762006D02*
G01*
X163269047Y-122801853D01*
X163229199Y-122346393D01*
X162773739Y-122386241D01*
X162733891Y-121930780D01*
X163644812Y-121851085D01*
X163724507Y-122762006D01*
G37*
X163724507Y-122762006D02*
X163269047Y-122801853D01*
X163229199Y-122346393D01*
X162773739Y-122386241D01*
X162733891Y-121930780D01*
X163644812Y-121851085D01*
X163724507Y-122762006D01*
G36*
X155526223Y-123479263D02*
G01*
X155566071Y-123934723D01*
X156021531Y-123894875D01*
X155941836Y-122983955D01*
X155030915Y-123063650D01*
X154991068Y-122608190D01*
X155446528Y-122568342D01*
X155406680Y-122112882D01*
X154951220Y-122152730D01*
X154911372Y-121697269D01*
X155366833Y-121657422D01*
X155406680Y-122112882D01*
X155862141Y-122073034D01*
X155941836Y-122983955D01*
X156397296Y-122944107D01*
X156357448Y-122488647D01*
X156812909Y-122448799D01*
X156852756Y-122904260D01*
X157308216Y-122864412D01*
X157507454Y-125141713D01*
X157962915Y-125101865D01*
X157923067Y-124646405D01*
X158378527Y-124606558D01*
X158418375Y-125062018D01*
X158873835Y-125022170D01*
X158833987Y-124566710D01*
X160200368Y-124447167D01*
X160319911Y-125813548D01*
X161686292Y-125694005D01*
X161566749Y-124327624D01*
X160200368Y-124447167D01*
X158833987Y-124566710D01*
X158378527Y-124606558D01*
X158338680Y-124151097D01*
X157883219Y-124190945D01*
X157843372Y-123735485D01*
X158754292Y-123655790D01*
X158794140Y-124111250D01*
X159705060Y-124031555D01*
X159665213Y-123576094D01*
X160120673Y-123536247D01*
X160080825Y-123080787D01*
X159169905Y-123160482D01*
X159209752Y-123615942D01*
X158754292Y-123655790D01*
X157843372Y-123735485D01*
X157763677Y-122824564D01*
X158219137Y-122784717D01*
X158258984Y-123240177D01*
X158714445Y-123200329D01*
X158674597Y-122744869D01*
X158219137Y-122784717D01*
X157763677Y-122824564D01*
X157308216Y-122864412D01*
X157268369Y-122408952D01*
X156812909Y-122448799D01*
X156357448Y-122488647D01*
X156317601Y-122033187D01*
X155862141Y-122073034D01*
X155822293Y-121617574D01*
X155366833Y-121657422D01*
X155326985Y-121201961D01*
X155782445Y-121162114D01*
X155822293Y-121617574D01*
X156277753Y-121577726D01*
X156237906Y-121122266D01*
X155782445Y-121162114D01*
X155326985Y-121201961D01*
X154871525Y-121241809D01*
X154831677Y-120786349D01*
X157108978Y-120587111D01*
X157148826Y-121042571D01*
X156693366Y-121082419D01*
X156773061Y-121993339D01*
X157228521Y-121953491D01*
X157683981Y-121913644D01*
X157723829Y-122369104D01*
X158634749Y-122289409D01*
X158674597Y-122744869D01*
X159130057Y-122705022D01*
X159090210Y-122249561D01*
X159545670Y-122209714D01*
X159465975Y-121298793D01*
X159010514Y-121338641D01*
X159050362Y-121794101D01*
X157683981Y-121913644D01*
X157228521Y-121953491D01*
X157188674Y-121498031D01*
X159010514Y-121338641D01*
X158970667Y-120883181D01*
X159426127Y-120843333D01*
X159465975Y-121298793D01*
X159921435Y-121258946D01*
X159881587Y-120803485D01*
X159426127Y-120843333D01*
X158970667Y-120883181D01*
X157604286Y-121002723D01*
X157484743Y-119636343D01*
X157940204Y-119596495D01*
X157980051Y-120051955D01*
X158435511Y-120012108D01*
X158395664Y-119556648D01*
X157940204Y-119596495D01*
X157900356Y-119141035D01*
X158355816Y-119101187D01*
X158395664Y-119556648D01*
X158851124Y-119516800D01*
X158890972Y-119972260D01*
X158435511Y-120012108D01*
X158475359Y-120467568D01*
X159386279Y-120387873D01*
X159306584Y-119476952D01*
X159762044Y-119437105D01*
X159841740Y-120348025D01*
X160297200Y-120308178D01*
X160376895Y-121219098D01*
X160832355Y-121179250D01*
X160872203Y-121634711D01*
X159961282Y-121714406D01*
X160001130Y-122169866D01*
X160456590Y-122130018D01*
X160496438Y-122585479D01*
X160951898Y-122545631D01*
X160912050Y-122090171D01*
X162278431Y-121970628D01*
X162318279Y-122426088D01*
X161862819Y-122465936D01*
X161942514Y-123376856D01*
X161487054Y-123416704D01*
X161447206Y-122961244D01*
X160991746Y-123001091D01*
X161031593Y-123456552D01*
X160576133Y-123496399D01*
X160615981Y-123951859D01*
X162437822Y-123792469D01*
X162477669Y-124247929D01*
X162022209Y-124287777D01*
X162101904Y-125198697D01*
X162557364Y-125158850D01*
X162637060Y-126069770D01*
X162181599Y-126109618D01*
X162261295Y-127020538D01*
X162716755Y-126980690D01*
X162756602Y-127436151D01*
X163212063Y-127396303D01*
X163172215Y-126940843D01*
X162716755Y-126980690D01*
X162676907Y-126525230D01*
X163132367Y-126485383D01*
X163172215Y-126940843D01*
X163627675Y-126900995D01*
X163587828Y-126445535D01*
X163132367Y-126485383D01*
X163092520Y-126029922D01*
X164003440Y-125950227D01*
X164083135Y-126861148D01*
X163627675Y-126900995D01*
X163667523Y-127356455D01*
X164122983Y-127316608D01*
X164162831Y-127772068D01*
X162796450Y-127891611D01*
X162756602Y-127436151D01*
X160479301Y-127635389D01*
X160519149Y-128090849D01*
X160063689Y-128130696D01*
X160023841Y-127675236D01*
X159568381Y-127715084D01*
X159608229Y-128170544D01*
X158697308Y-128250239D01*
X158577765Y-126883859D01*
X158122305Y-126923706D01*
X158042610Y-126012786D01*
X157587150Y-126052633D01*
X157547302Y-125597173D01*
X158002762Y-125557326D01*
X158042610Y-126012786D01*
X158498070Y-125972938D01*
X158577765Y-126883859D01*
X159033225Y-126844011D01*
X159112921Y-127754931D01*
X159568381Y-127715084D01*
X159488686Y-126804163D01*
X159944146Y-126764316D01*
X160023841Y-127675236D01*
X160479301Y-127635389D01*
X160399606Y-126724468D01*
X159944146Y-126764316D01*
X159488686Y-126804163D01*
X159033225Y-126844011D01*
X158953530Y-125933091D01*
X158498070Y-125972938D01*
X158458222Y-125517478D01*
X158913683Y-125477630D01*
X158953530Y-125933091D01*
X159408990Y-125893243D01*
X159448838Y-126348703D01*
X159904298Y-126308856D01*
X160359759Y-126269008D01*
X160399606Y-126724468D01*
X160855066Y-126684621D01*
X160894914Y-127140081D01*
X161805834Y-127060386D01*
X161726139Y-126149465D01*
X161270679Y-126189313D01*
X161310527Y-126644773D01*
X160855066Y-126684621D01*
X160815219Y-126229160D01*
X160359759Y-126269008D01*
X159904298Y-126308856D01*
X159784755Y-124942475D01*
X159329295Y-124982323D01*
X159369143Y-125437783D01*
X158913683Y-125477630D01*
X158458222Y-125517478D01*
X158002762Y-125557326D01*
X157547302Y-125597173D01*
X156180921Y-125716716D01*
X156101226Y-124805796D01*
X157012147Y-124726100D01*
X156852756Y-122904260D01*
X156397296Y-122944107D01*
X156516839Y-124310488D01*
X155605918Y-124390183D01*
X155645766Y-124845643D01*
X153368465Y-125044881D01*
X153248922Y-123678501D01*
X153704382Y-123638653D01*
X153784077Y-124549573D01*
X154239538Y-124509726D01*
X154199690Y-124054266D01*
X154655150Y-124014418D01*
X154694998Y-124469878D01*
X155605918Y-124390183D01*
X155566071Y-123934723D01*
X154655150Y-124014418D01*
X154615303Y-123558958D01*
X153704382Y-123638653D01*
X153664535Y-123183193D01*
X154575455Y-123103498D01*
X154615303Y-123558958D01*
X155526223Y-123479263D01*
G37*
X155526223Y-123479263D02*
X155566071Y-123934723D01*
X156021531Y-123894875D01*
X155941836Y-122983955D01*
X155030915Y-123063650D01*
X154991068Y-122608190D01*
X155446528Y-122568342D01*
X155406680Y-122112882D01*
X154951220Y-122152730D01*
X154911372Y-121697269D01*
X155366833Y-121657422D01*
X155406680Y-122112882D01*
X155862141Y-122073034D01*
X155941836Y-122983955D01*
X156397296Y-122944107D01*
X156357448Y-122488647D01*
X156812909Y-122448799D01*
X156852756Y-122904260D01*
X157308216Y-122864412D01*
X157507454Y-125141713D01*
X157962915Y-125101865D01*
X157923067Y-124646405D01*
X158378527Y-124606558D01*
X158418375Y-125062018D01*
X158873835Y-125022170D01*
X158833987Y-124566710D01*
X160200368Y-124447167D01*
X160319911Y-125813548D01*
X161686292Y-125694005D01*
X161566749Y-124327624D01*
X160200368Y-124447167D01*
X158833987Y-124566710D01*
X158378527Y-124606558D01*
X158338680Y-124151097D01*
X157883219Y-124190945D01*
X157843372Y-123735485D01*
X158754292Y-123655790D01*
X158794140Y-124111250D01*
X159705060Y-124031555D01*
X159665213Y-123576094D01*
X160120673Y-123536247D01*
X160080825Y-123080787D01*
X159169905Y-123160482D01*
X159209752Y-123615942D01*
X158754292Y-123655790D01*
X157843372Y-123735485D01*
X157763677Y-122824564D01*
X158219137Y-122784717D01*
X158258984Y-123240177D01*
X158714445Y-123200329D01*
X158674597Y-122744869D01*
X158219137Y-122784717D01*
X157763677Y-122824564D01*
X157308216Y-122864412D01*
X157268369Y-122408952D01*
X156812909Y-122448799D01*
X156357448Y-122488647D01*
X156317601Y-122033187D01*
X155862141Y-122073034D01*
X155822293Y-121617574D01*
X155366833Y-121657422D01*
X155326985Y-121201961D01*
X155782445Y-121162114D01*
X155822293Y-121617574D01*
X156277753Y-121577726D01*
X156237906Y-121122266D01*
X155782445Y-121162114D01*
X155326985Y-121201961D01*
X154871525Y-121241809D01*
X154831677Y-120786349D01*
X157108978Y-120587111D01*
X157148826Y-121042571D01*
X156693366Y-121082419D01*
X156773061Y-121993339D01*
X157228521Y-121953491D01*
X157683981Y-121913644D01*
X157723829Y-122369104D01*
X158634749Y-122289409D01*
X158674597Y-122744869D01*
X159130057Y-122705022D01*
X159090210Y-122249561D01*
X159545670Y-122209714D01*
X159465975Y-121298793D01*
X159010514Y-121338641D01*
X159050362Y-121794101D01*
X157683981Y-121913644D01*
X157228521Y-121953491D01*
X157188674Y-121498031D01*
X159010514Y-121338641D01*
X158970667Y-120883181D01*
X159426127Y-120843333D01*
X159465975Y-121298793D01*
X159921435Y-121258946D01*
X159881587Y-120803485D01*
X159426127Y-120843333D01*
X158970667Y-120883181D01*
X157604286Y-121002723D01*
X157484743Y-119636343D01*
X157940204Y-119596495D01*
X157980051Y-120051955D01*
X158435511Y-120012108D01*
X158395664Y-119556648D01*
X157940204Y-119596495D01*
X157900356Y-119141035D01*
X158355816Y-119101187D01*
X158395664Y-119556648D01*
X158851124Y-119516800D01*
X158890972Y-119972260D01*
X158435511Y-120012108D01*
X158475359Y-120467568D01*
X159386279Y-120387873D01*
X159306584Y-119476952D01*
X159762044Y-119437105D01*
X159841740Y-120348025D01*
X160297200Y-120308178D01*
X160376895Y-121219098D01*
X160832355Y-121179250D01*
X160872203Y-121634711D01*
X159961282Y-121714406D01*
X160001130Y-122169866D01*
X160456590Y-122130018D01*
X160496438Y-122585479D01*
X160951898Y-122545631D01*
X160912050Y-122090171D01*
X162278431Y-121970628D01*
X162318279Y-122426088D01*
X161862819Y-122465936D01*
X161942514Y-123376856D01*
X161487054Y-123416704D01*
X161447206Y-122961244D01*
X160991746Y-123001091D01*
X161031593Y-123456552D01*
X160576133Y-123496399D01*
X160615981Y-123951859D01*
X162437822Y-123792469D01*
X162477669Y-124247929D01*
X162022209Y-124287777D01*
X162101904Y-125198697D01*
X162557364Y-125158850D01*
X162637060Y-126069770D01*
X162181599Y-126109618D01*
X162261295Y-127020538D01*
X162716755Y-126980690D01*
X162756602Y-127436151D01*
X163212063Y-127396303D01*
X163172215Y-126940843D01*
X162716755Y-126980690D01*
X162676907Y-126525230D01*
X163132367Y-126485383D01*
X163172215Y-126940843D01*
X163627675Y-126900995D01*
X163587828Y-126445535D01*
X163132367Y-126485383D01*
X163092520Y-126029922D01*
X164003440Y-125950227D01*
X164083135Y-126861148D01*
X163627675Y-126900995D01*
X163667523Y-127356455D01*
X164122983Y-127316608D01*
X164162831Y-127772068D01*
X162796450Y-127891611D01*
X162756602Y-127436151D01*
X160479301Y-127635389D01*
X160519149Y-128090849D01*
X160063689Y-128130696D01*
X160023841Y-127675236D01*
X159568381Y-127715084D01*
X159608229Y-128170544D01*
X158697308Y-128250239D01*
X158577765Y-126883859D01*
X158122305Y-126923706D01*
X158042610Y-126012786D01*
X157587150Y-126052633D01*
X157547302Y-125597173D01*
X158002762Y-125557326D01*
X158042610Y-126012786D01*
X158498070Y-125972938D01*
X158577765Y-126883859D01*
X159033225Y-126844011D01*
X159112921Y-127754931D01*
X159568381Y-127715084D01*
X159488686Y-126804163D01*
X159944146Y-126764316D01*
X160023841Y-127675236D01*
X160479301Y-127635389D01*
X160399606Y-126724468D01*
X159944146Y-126764316D01*
X159488686Y-126804163D01*
X159033225Y-126844011D01*
X158953530Y-125933091D01*
X158498070Y-125972938D01*
X158458222Y-125517478D01*
X158913683Y-125477630D01*
X158953530Y-125933091D01*
X159408990Y-125893243D01*
X159448838Y-126348703D01*
X159904298Y-126308856D01*
X160359759Y-126269008D01*
X160399606Y-126724468D01*
X160855066Y-126684621D01*
X160894914Y-127140081D01*
X161805834Y-127060386D01*
X161726139Y-126149465D01*
X161270679Y-126189313D01*
X161310527Y-126644773D01*
X160855066Y-126684621D01*
X160815219Y-126229160D01*
X160359759Y-126269008D01*
X159904298Y-126308856D01*
X159784755Y-124942475D01*
X159329295Y-124982323D01*
X159369143Y-125437783D01*
X158913683Y-125477630D01*
X158458222Y-125517478D01*
X158002762Y-125557326D01*
X157547302Y-125597173D01*
X156180921Y-125716716D01*
X156101226Y-124805796D01*
X157012147Y-124726100D01*
X156852756Y-122904260D01*
X156397296Y-122944107D01*
X156516839Y-124310488D01*
X155605918Y-124390183D01*
X155645766Y-124845643D01*
X153368465Y-125044881D01*
X153248922Y-123678501D01*
X153704382Y-123638653D01*
X153784077Y-124549573D01*
X154239538Y-124509726D01*
X154199690Y-124054266D01*
X154655150Y-124014418D01*
X154694998Y-124469878D01*
X155605918Y-124390183D01*
X155566071Y-123934723D01*
X154655150Y-124014418D01*
X154615303Y-123558958D01*
X153704382Y-123638653D01*
X153664535Y-123183193D01*
X154575455Y-123103498D01*
X154615303Y-123558958D01*
X155526223Y-123479263D01*
G36*
X159562806Y-117159804D02*
G01*
X158651886Y-117239499D01*
X158612038Y-116784039D01*
X159522959Y-116704343D01*
X159562806Y-117159804D01*
G37*
X159562806Y-117159804D02*
X158651886Y-117239499D01*
X158612038Y-116784039D01*
X159522959Y-116704343D01*
X159562806Y-117159804D01*
G36*
X159682349Y-118526184D02*
G01*
X158771429Y-118605880D01*
X158811276Y-119061340D01*
X158355816Y-119101187D01*
X158276121Y-118190267D01*
X159187041Y-118110572D01*
X159147194Y-117655112D01*
X159602654Y-117615264D01*
X159682349Y-118526184D01*
G37*
X159682349Y-118526184D02*
X158771429Y-118605880D01*
X158811276Y-119061340D01*
X158355816Y-119101187D01*
X158276121Y-118190267D01*
X159187041Y-118110572D01*
X159147194Y-117655112D01*
X159602654Y-117615264D01*
X159682349Y-118526184D01*
G36*
X157900356Y-119141035D02*
G01*
X157444896Y-119180883D01*
X157405048Y-118725422D01*
X157860508Y-118685575D01*
X157900356Y-119141035D01*
G37*
X157900356Y-119141035D02*
X157444896Y-119180883D01*
X157405048Y-118725422D01*
X157860508Y-118685575D01*
X157900356Y-119141035D01*
G36*
X156414433Y-117894197D02*
G01*
X156869893Y-117854350D01*
X156830045Y-117398889D01*
X158651886Y-117239499D01*
X158691734Y-117694959D01*
X157325353Y-117814502D01*
X157405048Y-118725422D01*
X156949588Y-118765270D01*
X157069131Y-120131651D01*
X156613671Y-120171498D01*
X156494128Y-118805118D01*
X155583207Y-118884813D01*
X155543360Y-118429353D01*
X155998820Y-118389505D01*
X156454280Y-118349657D01*
X156494128Y-118805118D01*
X156949588Y-118765270D01*
X156909740Y-118309810D01*
X156454280Y-118349657D01*
X155998820Y-118389505D01*
X155958972Y-117934045D01*
X155503512Y-117973892D01*
X155463664Y-117518432D01*
X155919125Y-117478585D01*
X155879277Y-117023124D01*
X156334737Y-116983277D01*
X156414433Y-117894197D01*
G37*
X156414433Y-117894197D02*
X156869893Y-117854350D01*
X156830045Y-117398889D01*
X158651886Y-117239499D01*
X158691734Y-117694959D01*
X157325353Y-117814502D01*
X157405048Y-118725422D01*
X156949588Y-118765270D01*
X157069131Y-120131651D01*
X156613671Y-120171498D01*
X156494128Y-118805118D01*
X155583207Y-118884813D01*
X155543360Y-118429353D01*
X155998820Y-118389505D01*
X156454280Y-118349657D01*
X156494128Y-118805118D01*
X156949588Y-118765270D01*
X156909740Y-118309810D01*
X156454280Y-118349657D01*
X155998820Y-118389505D01*
X155958972Y-117934045D01*
X155503512Y-117973892D01*
X155463664Y-117518432D01*
X155919125Y-117478585D01*
X155879277Y-117023124D01*
X156334737Y-116983277D01*
X156414433Y-117894197D01*
G36*
X162158888Y-120604247D02*
G01*
X161703428Y-120644095D01*
X161663581Y-120188635D01*
X162119041Y-120148787D01*
X162158888Y-120604247D01*
G37*
X162158888Y-120604247D02*
X161703428Y-120644095D01*
X161663581Y-120188635D01*
X162119041Y-120148787D01*
X162158888Y-120604247D01*
G36*
X154416065Y-121281657D02*
G01*
X153049684Y-121401200D01*
X153089532Y-121856660D01*
X152634071Y-121896507D01*
X152594224Y-121441047D01*
X152138764Y-121480895D01*
X152098916Y-121025435D01*
X154376217Y-120826196D01*
X154416065Y-121281657D01*
G37*
X154416065Y-121281657D02*
X153049684Y-121401200D01*
X153089532Y-121856660D01*
X152634071Y-121896507D01*
X152594224Y-121441047D01*
X152138764Y-121480895D01*
X152098916Y-121025435D01*
X154376217Y-120826196D01*
X154416065Y-121281657D01*
G36*
X152673919Y-122351968D02*
G01*
X152218459Y-122391815D01*
X152178611Y-121936355D01*
X152634071Y-121896507D01*
X152673919Y-122351968D01*
G37*
X152673919Y-122351968D02*
X152218459Y-122391815D01*
X152178611Y-121936355D01*
X152634071Y-121896507D01*
X152673919Y-122351968D01*
G36*
X161247968Y-120683943D02*
G01*
X161703428Y-120644095D01*
X161783123Y-121555015D01*
X161327663Y-121594863D01*
X161287816Y-121139403D01*
X160832355Y-121179250D01*
X160752660Y-120268330D01*
X161208120Y-120228482D01*
X161247968Y-120683943D01*
G37*
X161247968Y-120683943D02*
X161703428Y-120644095D01*
X161783123Y-121555015D01*
X161327663Y-121594863D01*
X161287816Y-121139403D01*
X160832355Y-121179250D01*
X160752660Y-120268330D01*
X161208120Y-120228482D01*
X161247968Y-120683943D01*
G36*
X162853434Y-123297161D02*
G01*
X162397974Y-123337009D01*
X162358126Y-122881548D01*
X162813587Y-122841701D01*
X162853434Y-123297161D01*
G37*
X162853434Y-123297161D02*
X162397974Y-123337009D01*
X162358126Y-122881548D01*
X162813587Y-122841701D01*
X162853434Y-123297161D01*
G36*
X154040300Y-122232425D02*
G01*
X154495760Y-122192577D01*
X154535607Y-122648037D01*
X153169227Y-122767580D01*
X153248922Y-123678501D01*
X152793462Y-123718348D01*
X152913005Y-125084729D01*
X152457544Y-125124576D01*
X152298154Y-123302736D01*
X152753614Y-123262888D01*
X152673919Y-122351968D01*
X153584839Y-122272272D01*
X153544992Y-121816812D01*
X154000452Y-121776965D01*
X154040300Y-122232425D01*
G37*
X154040300Y-122232425D02*
X154495760Y-122192577D01*
X154535607Y-122648037D01*
X153169227Y-122767580D01*
X153248922Y-123678501D01*
X152793462Y-123718348D01*
X152913005Y-125084729D01*
X152457544Y-125124576D01*
X152298154Y-123302736D01*
X152753614Y-123262888D01*
X152673919Y-122351968D01*
X153584839Y-122272272D01*
X153544992Y-121816812D01*
X154000452Y-121776965D01*
X154040300Y-122232425D01*
G36*
X163923745Y-125039307D02*
G01*
X162557364Y-125158850D01*
X162517517Y-124703389D01*
X163428437Y-124623694D01*
X163348742Y-123712774D01*
X162893282Y-123752621D01*
X162853434Y-123297161D01*
X163764355Y-123217466D01*
X163923745Y-125039307D01*
G37*
X163923745Y-125039307D02*
X162557364Y-125158850D01*
X162517517Y-124703389D01*
X163428437Y-124623694D01*
X163348742Y-123712774D01*
X162893282Y-123752621D01*
X162853434Y-123297161D01*
X163764355Y-123217466D01*
X163923745Y-125039307D01*
G36*
X158162153Y-127379166D02*
G01*
X158202000Y-127834627D01*
X157746540Y-127874474D01*
X157786388Y-128329935D01*
X157330927Y-128369782D01*
X157291080Y-127914322D01*
X156835620Y-127954170D01*
X156875467Y-128409630D01*
X156420007Y-128449477D01*
X156340312Y-127538557D01*
X157251232Y-127458862D01*
X157291080Y-127914322D01*
X157746540Y-127874474D01*
X157706692Y-127419014D01*
X157251232Y-127458862D01*
X156340312Y-127538557D01*
X156220769Y-126172176D01*
X157131689Y-126092481D01*
X157171537Y-126547941D01*
X156716077Y-126587789D01*
X156755924Y-127043249D01*
X157666845Y-126963554D01*
X157706692Y-127419014D01*
X158162153Y-127379166D01*
G37*
X158162153Y-127379166D02*
X158202000Y-127834627D01*
X157746540Y-127874474D01*
X157786388Y-128329935D01*
X157330927Y-128369782D01*
X157291080Y-127914322D01*
X156835620Y-127954170D01*
X156875467Y-128409630D01*
X156420007Y-128449477D01*
X156340312Y-127538557D01*
X157251232Y-127458862D01*
X157291080Y-127914322D01*
X157746540Y-127874474D01*
X157706692Y-127419014D01*
X157251232Y-127458862D01*
X156340312Y-127538557D01*
X156220769Y-126172176D01*
X157131689Y-126092481D01*
X157171537Y-126547941D01*
X156716077Y-126587789D01*
X156755924Y-127043249D01*
X157666845Y-126963554D01*
X157706692Y-127419014D01*
X158162153Y-127379166D01*
G36*
X155964547Y-128489325D02*
G01*
X152776325Y-128768258D01*
X152537240Y-126035497D01*
X152992700Y-125995649D01*
X153191938Y-128272950D01*
X155469239Y-128073712D01*
X155270001Y-125796411D01*
X152992700Y-125995649D01*
X152537240Y-126035497D01*
X152497392Y-125580037D01*
X155685614Y-125301103D01*
X155964547Y-128489325D01*
G37*
X155964547Y-128489325D02*
X152776325Y-128768258D01*
X152537240Y-126035497D01*
X152992700Y-125995649D01*
X153191938Y-128272950D01*
X155469239Y-128073712D01*
X155270001Y-125796411D01*
X152992700Y-125995649D01*
X152537240Y-126035497D01*
X152497392Y-125580037D01*
X155685614Y-125301103D01*
X155964547Y-128489325D01*
%TD*%
M02*
