%TF.GenerationSoftware,KiCad,Pcbnew,(5.1.9-0-10_14)*%
%TF.CreationDate,2022-10-10T16:55:21-07:00*%
%TF.ProjectId,integrator,696e7465-6772-4617-946f-722e6b696361,rev?*%
%TF.SameCoordinates,Original*%
%TF.FileFunction,Paste,Bot*%
%TF.FilePolarity,Positive*%
%FSLAX46Y46*%
G04 Gerber Fmt 4.6, Leading zero omitted, Abs format (unit mm)*
G04 Created by KiCad (PCBNEW (5.1.9-0-10_14)) date 2022-10-10 16:55:21*
%MOMM*%
%LPD*%
G01*
G04 APERTURE LIST*
%ADD10C,0.152400*%
%ADD11C,2.000000*%
%ADD12R,3.200400X3.200400*%
%ADD13R,0.177800X0.812800*%
%ADD14R,0.812800X0.177800*%
%ADD15R,1.300000X0.900000*%
%ADD16R,0.750000X1.800000*%
%ADD17R,0.600000X1.800000*%
%ADD18R,5.600000X2.100000*%
%ADD19R,0.558800X1.003300*%
%ADD20R,2.600000X2.800000*%
%ADD21R,2.200000X2.800000*%
%ADD22R,2.800000X2.800000*%
%ADD23R,0.304800X0.533400*%
%ADD24R,0.533400X0.304800*%
%ADD25R,0.600000X1.150000*%
%ADD26R,0.300000X1.150000*%
G04 APERTURE END LIST*
D10*
%TO.C,U5*%
X155549200Y-133600000D02*
X154149000Y-133600000D01*
X155549200Y-132199800D02*
X155549200Y-133600000D01*
X154149000Y-132199800D02*
X155549200Y-132199800D01*
X154149000Y-133600000D02*
X154149000Y-132199800D01*
X155549200Y-135200200D02*
X154149000Y-135200200D01*
X155549200Y-133800000D02*
X155549200Y-135200200D01*
X154149000Y-133800000D02*
X155549200Y-133800000D01*
X154149000Y-135200200D02*
X154149000Y-133800000D01*
X153949000Y-133600000D02*
X152548800Y-133600000D01*
X153949000Y-132199800D02*
X153949000Y-133600000D01*
X152548800Y-132199800D02*
X153949000Y-132199800D01*
X152548800Y-133600000D02*
X152548800Y-132199800D01*
X153949000Y-135200200D02*
X152548800Y-135200200D01*
X153949000Y-133800000D02*
X153949000Y-135200200D01*
X152548800Y-133800000D02*
X153949000Y-133800000D01*
X152548800Y-135200200D02*
X152548800Y-133800000D01*
%TD*%
%TO.C,U1*%
G36*
G01*
X167284000Y-142930000D02*
X166514000Y-142930000D01*
G75*
G02*
X166274000Y-142690000I0J240000D01*
G01*
X166274000Y-142210000D01*
G75*
G02*
X166514000Y-141970000I240000J0D01*
G01*
X167284000Y-141970000D01*
G75*
G02*
X167524000Y-142210000I0J-240000D01*
G01*
X167524000Y-142690000D01*
G75*
G02*
X167284000Y-142930000I-240000J0D01*
G01*
G37*
G36*
G01*
X168784000Y-142930000D02*
X168014000Y-142930000D01*
G75*
G02*
X167774000Y-142690000I0J240000D01*
G01*
X167774000Y-142210000D01*
G75*
G02*
X168014000Y-141970000I240000J0D01*
G01*
X168784000Y-141970000D01*
G75*
G02*
X169024000Y-142210000I0J-240000D01*
G01*
X169024000Y-142690000D01*
G75*
G02*
X168784000Y-142930000I-240000J0D01*
G01*
G37*
G36*
G01*
X167284000Y-144070000D02*
X166514000Y-144070000D01*
G75*
G02*
X166274000Y-143830000I0J240000D01*
G01*
X166274000Y-143350000D01*
G75*
G02*
X166514000Y-143110000I240000J0D01*
G01*
X167284000Y-143110000D01*
G75*
G02*
X167524000Y-143350000I0J-240000D01*
G01*
X167524000Y-143830000D01*
G75*
G02*
X167284000Y-144070000I-240000J0D01*
G01*
G37*
G36*
G01*
X168784000Y-144070000D02*
X168014000Y-144070000D01*
G75*
G02*
X167774000Y-143830000I0J240000D01*
G01*
X167774000Y-143350000D01*
G75*
G02*
X168014000Y-143110000I240000J0D01*
G01*
X168784000Y-143110000D01*
G75*
G02*
X169024000Y-143350000I0J-240000D01*
G01*
X169024000Y-143830000D01*
G75*
G02*
X168784000Y-144070000I-240000J0D01*
G01*
G37*
G36*
G01*
X169704000Y-141520000D02*
X169404000Y-141520000D01*
G75*
G02*
X169254000Y-141370000I0J150000D01*
G01*
X169254000Y-139720000D01*
G75*
G02*
X169404000Y-139570000I150000J0D01*
G01*
X169704000Y-139570000D01*
G75*
G02*
X169854000Y-139720000I0J-150000D01*
G01*
X169854000Y-141370000D01*
G75*
G02*
X169704000Y-141520000I-150000J0D01*
G01*
G37*
G36*
G01*
X168434000Y-141520000D02*
X168134000Y-141520000D01*
G75*
G02*
X167984000Y-141370000I0J150000D01*
G01*
X167984000Y-139720000D01*
G75*
G02*
X168134000Y-139570000I150000J0D01*
G01*
X168434000Y-139570000D01*
G75*
G02*
X168584000Y-139720000I0J-150000D01*
G01*
X168584000Y-141370000D01*
G75*
G02*
X168434000Y-141520000I-150000J0D01*
G01*
G37*
G36*
G01*
X167164000Y-141520000D02*
X166864000Y-141520000D01*
G75*
G02*
X166714000Y-141370000I0J150000D01*
G01*
X166714000Y-139720000D01*
G75*
G02*
X166864000Y-139570000I150000J0D01*
G01*
X167164000Y-139570000D01*
G75*
G02*
X167314000Y-139720000I0J-150000D01*
G01*
X167314000Y-141370000D01*
G75*
G02*
X167164000Y-141520000I-150000J0D01*
G01*
G37*
G36*
G01*
X165894000Y-141520000D02*
X165594000Y-141520000D01*
G75*
G02*
X165444000Y-141370000I0J150000D01*
G01*
X165444000Y-139720000D01*
G75*
G02*
X165594000Y-139570000I150000J0D01*
G01*
X165894000Y-139570000D01*
G75*
G02*
X166044000Y-139720000I0J-150000D01*
G01*
X166044000Y-141370000D01*
G75*
G02*
X165894000Y-141520000I-150000J0D01*
G01*
G37*
G36*
G01*
X165894000Y-146470000D02*
X165594000Y-146470000D01*
G75*
G02*
X165444000Y-146320000I0J150000D01*
G01*
X165444000Y-144670000D01*
G75*
G02*
X165594000Y-144520000I150000J0D01*
G01*
X165894000Y-144520000D01*
G75*
G02*
X166044000Y-144670000I0J-150000D01*
G01*
X166044000Y-146320000D01*
G75*
G02*
X165894000Y-146470000I-150000J0D01*
G01*
G37*
G36*
G01*
X167164000Y-146470000D02*
X166864000Y-146470000D01*
G75*
G02*
X166714000Y-146320000I0J150000D01*
G01*
X166714000Y-144670000D01*
G75*
G02*
X166864000Y-144520000I150000J0D01*
G01*
X167164000Y-144520000D01*
G75*
G02*
X167314000Y-144670000I0J-150000D01*
G01*
X167314000Y-146320000D01*
G75*
G02*
X167164000Y-146470000I-150000J0D01*
G01*
G37*
G36*
G01*
X168434000Y-146470000D02*
X168134000Y-146470000D01*
G75*
G02*
X167984000Y-146320000I0J150000D01*
G01*
X167984000Y-144670000D01*
G75*
G02*
X168134000Y-144520000I150000J0D01*
G01*
X168434000Y-144520000D01*
G75*
G02*
X168584000Y-144670000I0J-150000D01*
G01*
X168584000Y-146320000D01*
G75*
G02*
X168434000Y-146470000I-150000J0D01*
G01*
G37*
G36*
G01*
X169704000Y-146470000D02*
X169404000Y-146470000D01*
G75*
G02*
X169254000Y-146320000I0J150000D01*
G01*
X169254000Y-144670000D01*
G75*
G02*
X169404000Y-144520000I150000J0D01*
G01*
X169704000Y-144520000D01*
G75*
G02*
X169854000Y-144670000I0J-150000D01*
G01*
X169854000Y-146320000D01*
G75*
G02*
X169704000Y-146470000I-150000J0D01*
G01*
G37*
%TD*%
%TO.C,C12*%
G36*
G01*
X151574000Y-117350000D02*
X151574000Y-117850000D01*
G75*
G02*
X151349000Y-118075000I-225000J0D01*
G01*
X150899000Y-118075000D01*
G75*
G02*
X150674000Y-117850000I0J225000D01*
G01*
X150674000Y-117350000D01*
G75*
G02*
X150899000Y-117125000I225000J0D01*
G01*
X151349000Y-117125000D01*
G75*
G02*
X151574000Y-117350000I0J-225000D01*
G01*
G37*
G36*
G01*
X153124000Y-117350000D02*
X153124000Y-117850000D01*
G75*
G02*
X152899000Y-118075000I-225000J0D01*
G01*
X152449000Y-118075000D01*
G75*
G02*
X152224000Y-117850000I0J225000D01*
G01*
X152224000Y-117350000D01*
G75*
G02*
X152449000Y-117125000I225000J0D01*
G01*
X152899000Y-117125000D01*
G75*
G02*
X153124000Y-117350000I0J-225000D01*
G01*
G37*
%TD*%
%TO.C,C11*%
G36*
G01*
X155874000Y-117400000D02*
X155874000Y-117900000D01*
G75*
G02*
X155649000Y-118125000I-225000J0D01*
G01*
X155199000Y-118125000D01*
G75*
G02*
X154974000Y-117900000I0J225000D01*
G01*
X154974000Y-117400000D01*
G75*
G02*
X155199000Y-117175000I225000J0D01*
G01*
X155649000Y-117175000D01*
G75*
G02*
X155874000Y-117400000I0J-225000D01*
G01*
G37*
G36*
G01*
X157424000Y-117400000D02*
X157424000Y-117900000D01*
G75*
G02*
X157199000Y-118125000I-225000J0D01*
G01*
X156749000Y-118125000D01*
G75*
G02*
X156524000Y-117900000I0J225000D01*
G01*
X156524000Y-117400000D01*
G75*
G02*
X156749000Y-117175000I225000J0D01*
G01*
X157199000Y-117175000D01*
G75*
G02*
X157424000Y-117400000I0J-225000D01*
G01*
G37*
%TD*%
%TO.C,C34*%
G36*
G01*
X142774000Y-62950000D02*
X143724000Y-62950000D01*
G75*
G02*
X143974000Y-63200000I0J-250000D01*
G01*
X143974000Y-63700000D01*
G75*
G02*
X143724000Y-63950000I-250000J0D01*
G01*
X142774000Y-63950000D01*
G75*
G02*
X142524000Y-63700000I0J250000D01*
G01*
X142524000Y-63200000D01*
G75*
G02*
X142774000Y-62950000I250000J0D01*
G01*
G37*
G36*
G01*
X142774000Y-61050000D02*
X143724000Y-61050000D01*
G75*
G02*
X143974000Y-61300000I0J-250000D01*
G01*
X143974000Y-61800000D01*
G75*
G02*
X143724000Y-62050000I-250000J0D01*
G01*
X142774000Y-62050000D01*
G75*
G02*
X142524000Y-61800000I0J250000D01*
G01*
X142524000Y-61300000D01*
G75*
G02*
X142774000Y-61050000I250000J0D01*
G01*
G37*
%TD*%
%TO.C,C16*%
G36*
G01*
X178199000Y-155500000D02*
X178199000Y-154400000D01*
G75*
G02*
X178449000Y-154150000I250000J0D01*
G01*
X181449000Y-154150000D01*
G75*
G02*
X181699000Y-154400000I0J-250000D01*
G01*
X181699000Y-155500000D01*
G75*
G02*
X181449000Y-155750000I-250000J0D01*
G01*
X178449000Y-155750000D01*
G75*
G02*
X178199000Y-155500000I0J250000D01*
G01*
G37*
G36*
G01*
X172599000Y-155500000D02*
X172599000Y-154400000D01*
G75*
G02*
X172849000Y-154150000I250000J0D01*
G01*
X175849000Y-154150000D01*
G75*
G02*
X176099000Y-154400000I0J-250000D01*
G01*
X176099000Y-155500000D01*
G75*
G02*
X175849000Y-155750000I-250000J0D01*
G01*
X172849000Y-155750000D01*
G75*
G02*
X172599000Y-155500000I0J250000D01*
G01*
G37*
%TD*%
D11*
%TO.C,POGO1*%
X160399000Y-61230000D03*
X160399000Y-63770000D03*
X157859000Y-61230000D03*
X157859000Y-63770000D03*
X155319000Y-61230000D03*
X155319000Y-63770000D03*
X152779000Y-61230000D03*
X152779000Y-63770000D03*
X150239000Y-61230000D03*
X150239000Y-63770000D03*
X147699000Y-61230000D03*
X147699000Y-63770000D03*
%TD*%
%TO.C,D1*%
G36*
G01*
X128725250Y-125410000D02*
X128212750Y-125410000D01*
G75*
G02*
X127994000Y-125191250I0J218750D01*
G01*
X127994000Y-124753750D01*
G75*
G02*
X128212750Y-124535000I218750J0D01*
G01*
X128725250Y-124535000D01*
G75*
G02*
X128944000Y-124753750I0J-218750D01*
G01*
X128944000Y-125191250D01*
G75*
G02*
X128725250Y-125410000I-218750J0D01*
G01*
G37*
G36*
G01*
X128725250Y-126985000D02*
X128212750Y-126985000D01*
G75*
G02*
X127994000Y-126766250I0J218750D01*
G01*
X127994000Y-126328750D01*
G75*
G02*
X128212750Y-126110000I218750J0D01*
G01*
X128725250Y-126110000D01*
G75*
G02*
X128944000Y-126328750I0J-218750D01*
G01*
X128944000Y-126766250D01*
G75*
G02*
X128725250Y-126985000I-218750J0D01*
G01*
G37*
%TD*%
%TO.C,LED4*%
G36*
G01*
X137205250Y-157550000D02*
X136692750Y-157550000D01*
G75*
G02*
X136474000Y-157331250I0J218750D01*
G01*
X136474000Y-156893750D01*
G75*
G02*
X136692750Y-156675000I218750J0D01*
G01*
X137205250Y-156675000D01*
G75*
G02*
X137424000Y-156893750I0J-218750D01*
G01*
X137424000Y-157331250D01*
G75*
G02*
X137205250Y-157550000I-218750J0D01*
G01*
G37*
G36*
G01*
X137205250Y-159125000D02*
X136692750Y-159125000D01*
G75*
G02*
X136474000Y-158906250I0J218750D01*
G01*
X136474000Y-158468750D01*
G75*
G02*
X136692750Y-158250000I218750J0D01*
G01*
X137205250Y-158250000D01*
G75*
G02*
X137424000Y-158468750I0J-218750D01*
G01*
X137424000Y-158906250D01*
G75*
G02*
X137205250Y-159125000I-218750J0D01*
G01*
G37*
%TD*%
%TO.C,LED3*%
G36*
G01*
X153699000Y-50243750D02*
X153699000Y-50756250D01*
G75*
G02*
X153480250Y-50975000I-218750J0D01*
G01*
X153042750Y-50975000D01*
G75*
G02*
X152824000Y-50756250I0J218750D01*
G01*
X152824000Y-50243750D01*
G75*
G02*
X153042750Y-50025000I218750J0D01*
G01*
X153480250Y-50025000D01*
G75*
G02*
X153699000Y-50243750I0J-218750D01*
G01*
G37*
G36*
G01*
X155274000Y-50243750D02*
X155274000Y-50756250D01*
G75*
G02*
X155055250Y-50975000I-218750J0D01*
G01*
X154617750Y-50975000D01*
G75*
G02*
X154399000Y-50756250I0J218750D01*
G01*
X154399000Y-50243750D01*
G75*
G02*
X154617750Y-50025000I218750J0D01*
G01*
X155055250Y-50025000D01*
G75*
G02*
X155274000Y-50243750I0J-218750D01*
G01*
G37*
%TD*%
%TO.C,LED2*%
G36*
G01*
X181882750Y-46400000D02*
X182395250Y-46400000D01*
G75*
G02*
X182614000Y-46618750I0J-218750D01*
G01*
X182614000Y-47056250D01*
G75*
G02*
X182395250Y-47275000I-218750J0D01*
G01*
X181882750Y-47275000D01*
G75*
G02*
X181664000Y-47056250I0J218750D01*
G01*
X181664000Y-46618750D01*
G75*
G02*
X181882750Y-46400000I218750J0D01*
G01*
G37*
G36*
G01*
X181882750Y-44825000D02*
X182395250Y-44825000D01*
G75*
G02*
X182614000Y-45043750I0J-218750D01*
G01*
X182614000Y-45481250D01*
G75*
G02*
X182395250Y-45700000I-218750J0D01*
G01*
X181882750Y-45700000D01*
G75*
G02*
X181664000Y-45481250I0J218750D01*
G01*
X181664000Y-45043750D01*
G75*
G02*
X181882750Y-44825000I218750J0D01*
G01*
G37*
%TD*%
%TO.C,LED1*%
G36*
G01*
X125732750Y-46380000D02*
X126245250Y-46380000D01*
G75*
G02*
X126464000Y-46598750I0J-218750D01*
G01*
X126464000Y-47036250D01*
G75*
G02*
X126245250Y-47255000I-218750J0D01*
G01*
X125732750Y-47255000D01*
G75*
G02*
X125514000Y-47036250I0J218750D01*
G01*
X125514000Y-46598750D01*
G75*
G02*
X125732750Y-46380000I218750J0D01*
G01*
G37*
G36*
G01*
X125732750Y-44805000D02*
X126245250Y-44805000D01*
G75*
G02*
X126464000Y-45023750I0J-218750D01*
G01*
X126464000Y-45461250D01*
G75*
G02*
X126245250Y-45680000I-218750J0D01*
G01*
X125732750Y-45680000D01*
G75*
G02*
X125514000Y-45461250I0J218750D01*
G01*
X125514000Y-45023750D01*
G75*
G02*
X125732750Y-44805000I218750J0D01*
G01*
G37*
%TD*%
D12*
%TO.C,U5*%
X154049000Y-133700000D03*
D13*
X151407400Y-137103600D03*
X151813800Y-137103600D03*
X152220200Y-137103600D03*
X152626600Y-137103600D03*
X153033000Y-137103600D03*
X153439400Y-137103600D03*
X153845800Y-137103600D03*
X154252200Y-137103600D03*
X154658600Y-137103600D03*
X155065000Y-137103600D03*
X155471400Y-137103600D03*
X155877800Y-137103600D03*
X156284200Y-137103600D03*
X156690600Y-137103600D03*
D14*
X157452600Y-136341600D03*
X157452600Y-135935200D03*
X157452600Y-135528800D03*
X157452600Y-135122400D03*
X157452600Y-134716000D03*
X157452600Y-134309600D03*
X157452600Y-133903200D03*
X157452600Y-133496800D03*
X157452600Y-133090400D03*
X157452600Y-132684000D03*
X157452600Y-132277600D03*
X157452600Y-131871200D03*
X157452600Y-131464800D03*
X157452600Y-131058400D03*
D13*
X156690600Y-130296400D03*
X156284200Y-130296400D03*
X155877800Y-130296400D03*
X155471400Y-130296400D03*
X155065000Y-130296400D03*
X154658600Y-130296400D03*
X154252200Y-130296400D03*
X153845800Y-130296400D03*
X153439400Y-130296400D03*
X153033000Y-130296400D03*
X152626600Y-130296400D03*
X152220200Y-130296400D03*
X151813800Y-130296400D03*
X151407400Y-130296400D03*
D14*
X150645400Y-131058400D03*
X150645400Y-131464800D03*
X150645400Y-131871200D03*
X150645400Y-132277600D03*
X150645400Y-132684000D03*
X150645400Y-133090400D03*
X150645400Y-133496800D03*
X150645400Y-133903200D03*
X150645400Y-134309600D03*
X150645400Y-134716000D03*
X150645400Y-135122400D03*
X150645400Y-135528800D03*
X150645400Y-135935200D03*
X150645400Y-136341600D03*
%TD*%
%TO.C,U2*%
G36*
G01*
X143479000Y-152237500D02*
X143479000Y-151602500D01*
G75*
G02*
X143671500Y-151410000I192500J0D01*
G01*
X144056500Y-151410000D01*
G75*
G02*
X144249000Y-151602500I0J-192500D01*
G01*
X144249000Y-152237500D01*
G75*
G02*
X144056500Y-152430000I-192500J0D01*
G01*
X143671500Y-152430000D01*
G75*
G02*
X143479000Y-152237500I0J192500D01*
G01*
G37*
G36*
G01*
X143479000Y-153417500D02*
X143479000Y-152782500D01*
G75*
G02*
X143671500Y-152590000I192500J0D01*
G01*
X144056500Y-152590000D01*
G75*
G02*
X144249000Y-152782500I0J-192500D01*
G01*
X144249000Y-153417500D01*
G75*
G02*
X144056500Y-153610000I-192500J0D01*
G01*
X143671500Y-153610000D01*
G75*
G02*
X143479000Y-153417500I0J192500D01*
G01*
G37*
G36*
G01*
X142589000Y-152237500D02*
X142589000Y-151602500D01*
G75*
G02*
X142781500Y-151410000I192500J0D01*
G01*
X143166500Y-151410000D01*
G75*
G02*
X143359000Y-151602500I0J-192500D01*
G01*
X143359000Y-152237500D01*
G75*
G02*
X143166500Y-152430000I-192500J0D01*
G01*
X142781500Y-152430000D01*
G75*
G02*
X142589000Y-152237500I0J192500D01*
G01*
G37*
G36*
G01*
X142589000Y-153417500D02*
X142589000Y-152782500D01*
G75*
G02*
X142781500Y-152590000I192500J0D01*
G01*
X143166500Y-152590000D01*
G75*
G02*
X143359000Y-152782500I0J-192500D01*
G01*
X143359000Y-153417500D01*
G75*
G02*
X143166500Y-153610000I-192500J0D01*
G01*
X142781500Y-153610000D01*
G75*
G02*
X142589000Y-153417500I0J192500D01*
G01*
G37*
G36*
G01*
X144519000Y-153560000D02*
X144519000Y-153460000D01*
G75*
G02*
X144569000Y-153410000I50000J0D01*
G01*
X145244000Y-153410000D01*
G75*
G02*
X145294000Y-153460000I0J-50000D01*
G01*
X145294000Y-153560000D01*
G75*
G02*
X145244000Y-153610000I-50000J0D01*
G01*
X144569000Y-153610000D01*
G75*
G02*
X144519000Y-153560000I0J50000D01*
G01*
G37*
G36*
G01*
X144519000Y-153160000D02*
X144519000Y-153060000D01*
G75*
G02*
X144569000Y-153010000I50000J0D01*
G01*
X145244000Y-153010000D01*
G75*
G02*
X145294000Y-153060000I0J-50000D01*
G01*
X145294000Y-153160000D01*
G75*
G02*
X145244000Y-153210000I-50000J0D01*
G01*
X144569000Y-153210000D01*
G75*
G02*
X144519000Y-153160000I0J50000D01*
G01*
G37*
G36*
G01*
X144519000Y-152760000D02*
X144519000Y-152660000D01*
G75*
G02*
X144569000Y-152610000I50000J0D01*
G01*
X145244000Y-152610000D01*
G75*
G02*
X145294000Y-152660000I0J-50000D01*
G01*
X145294000Y-152760000D01*
G75*
G02*
X145244000Y-152810000I-50000J0D01*
G01*
X144569000Y-152810000D01*
G75*
G02*
X144519000Y-152760000I0J50000D01*
G01*
G37*
G36*
G01*
X144519000Y-152360000D02*
X144519000Y-152260000D01*
G75*
G02*
X144569000Y-152210000I50000J0D01*
G01*
X145244000Y-152210000D01*
G75*
G02*
X145294000Y-152260000I0J-50000D01*
G01*
X145294000Y-152360000D01*
G75*
G02*
X145244000Y-152410000I-50000J0D01*
G01*
X144569000Y-152410000D01*
G75*
G02*
X144519000Y-152360000I0J50000D01*
G01*
G37*
G36*
G01*
X144519000Y-151960000D02*
X144519000Y-151860000D01*
G75*
G02*
X144569000Y-151810000I50000J0D01*
G01*
X145244000Y-151810000D01*
G75*
G02*
X145294000Y-151860000I0J-50000D01*
G01*
X145294000Y-151960000D01*
G75*
G02*
X145244000Y-152010000I-50000J0D01*
G01*
X144569000Y-152010000D01*
G75*
G02*
X144519000Y-151960000I0J50000D01*
G01*
G37*
G36*
G01*
X144519000Y-151560000D02*
X144519000Y-151460000D01*
G75*
G02*
X144569000Y-151410000I50000J0D01*
G01*
X145244000Y-151410000D01*
G75*
G02*
X145294000Y-151460000I0J-50000D01*
G01*
X145294000Y-151560000D01*
G75*
G02*
X145244000Y-151610000I-50000J0D01*
G01*
X144569000Y-151610000D01*
G75*
G02*
X144519000Y-151560000I0J50000D01*
G01*
G37*
G36*
G01*
X141544000Y-151560000D02*
X141544000Y-151460000D01*
G75*
G02*
X141594000Y-151410000I50000J0D01*
G01*
X142269000Y-151410000D01*
G75*
G02*
X142319000Y-151460000I0J-50000D01*
G01*
X142319000Y-151560000D01*
G75*
G02*
X142269000Y-151610000I-50000J0D01*
G01*
X141594000Y-151610000D01*
G75*
G02*
X141544000Y-151560000I0J50000D01*
G01*
G37*
G36*
G01*
X141544000Y-151960000D02*
X141544000Y-151860000D01*
G75*
G02*
X141594000Y-151810000I50000J0D01*
G01*
X142269000Y-151810000D01*
G75*
G02*
X142319000Y-151860000I0J-50000D01*
G01*
X142319000Y-151960000D01*
G75*
G02*
X142269000Y-152010000I-50000J0D01*
G01*
X141594000Y-152010000D01*
G75*
G02*
X141544000Y-151960000I0J50000D01*
G01*
G37*
G36*
G01*
X141544000Y-152360000D02*
X141544000Y-152260000D01*
G75*
G02*
X141594000Y-152210000I50000J0D01*
G01*
X142269000Y-152210000D01*
G75*
G02*
X142319000Y-152260000I0J-50000D01*
G01*
X142319000Y-152360000D01*
G75*
G02*
X142269000Y-152410000I-50000J0D01*
G01*
X141594000Y-152410000D01*
G75*
G02*
X141544000Y-152360000I0J50000D01*
G01*
G37*
G36*
G01*
X141544000Y-152760000D02*
X141544000Y-152660000D01*
G75*
G02*
X141594000Y-152610000I50000J0D01*
G01*
X142269000Y-152610000D01*
G75*
G02*
X142319000Y-152660000I0J-50000D01*
G01*
X142319000Y-152760000D01*
G75*
G02*
X142269000Y-152810000I-50000J0D01*
G01*
X141594000Y-152810000D01*
G75*
G02*
X141544000Y-152760000I0J50000D01*
G01*
G37*
G36*
G01*
X141544000Y-153160000D02*
X141544000Y-153060000D01*
G75*
G02*
X141594000Y-153010000I50000J0D01*
G01*
X142269000Y-153010000D01*
G75*
G02*
X142319000Y-153060000I0J-50000D01*
G01*
X142319000Y-153160000D01*
G75*
G02*
X142269000Y-153210000I-50000J0D01*
G01*
X141594000Y-153210000D01*
G75*
G02*
X141544000Y-153160000I0J50000D01*
G01*
G37*
G36*
G01*
X141544000Y-153560000D02*
X141544000Y-153460000D01*
G75*
G02*
X141594000Y-153410000I50000J0D01*
G01*
X142269000Y-153410000D01*
G75*
G02*
X142319000Y-153460000I0J-50000D01*
G01*
X142319000Y-153560000D01*
G75*
G02*
X142269000Y-153610000I-50000J0D01*
G01*
X141594000Y-153610000D01*
G75*
G02*
X141544000Y-153560000I0J50000D01*
G01*
G37*
%TD*%
%TO.C,U6*%
G36*
G01*
X140944000Y-146800000D02*
X141244000Y-146800000D01*
G75*
G02*
X141394000Y-146950000I0J-150000D01*
G01*
X141394000Y-148250000D01*
G75*
G02*
X141244000Y-148400000I-150000J0D01*
G01*
X140944000Y-148400000D01*
G75*
G02*
X140794000Y-148250000I0J150000D01*
G01*
X140794000Y-146950000D01*
G75*
G02*
X140944000Y-146800000I150000J0D01*
G01*
G37*
G36*
G01*
X142214000Y-146800000D02*
X142514000Y-146800000D01*
G75*
G02*
X142664000Y-146950000I0J-150000D01*
G01*
X142664000Y-148250000D01*
G75*
G02*
X142514000Y-148400000I-150000J0D01*
G01*
X142214000Y-148400000D01*
G75*
G02*
X142064000Y-148250000I0J150000D01*
G01*
X142064000Y-146950000D01*
G75*
G02*
X142214000Y-146800000I150000J0D01*
G01*
G37*
G36*
G01*
X143484000Y-146800000D02*
X143784000Y-146800000D01*
G75*
G02*
X143934000Y-146950000I0J-150000D01*
G01*
X143934000Y-148250000D01*
G75*
G02*
X143784000Y-148400000I-150000J0D01*
G01*
X143484000Y-148400000D01*
G75*
G02*
X143334000Y-148250000I0J150000D01*
G01*
X143334000Y-146950000D01*
G75*
G02*
X143484000Y-146800000I150000J0D01*
G01*
G37*
G36*
G01*
X144754000Y-146800000D02*
X145054000Y-146800000D01*
G75*
G02*
X145204000Y-146950000I0J-150000D01*
G01*
X145204000Y-148250000D01*
G75*
G02*
X145054000Y-148400000I-150000J0D01*
G01*
X144754000Y-148400000D01*
G75*
G02*
X144604000Y-148250000I0J150000D01*
G01*
X144604000Y-146950000D01*
G75*
G02*
X144754000Y-146800000I150000J0D01*
G01*
G37*
G36*
G01*
X144754000Y-139600000D02*
X145054000Y-139600000D01*
G75*
G02*
X145204000Y-139750000I0J-150000D01*
G01*
X145204000Y-141050000D01*
G75*
G02*
X145054000Y-141200000I-150000J0D01*
G01*
X144754000Y-141200000D01*
G75*
G02*
X144604000Y-141050000I0J150000D01*
G01*
X144604000Y-139750000D01*
G75*
G02*
X144754000Y-139600000I150000J0D01*
G01*
G37*
G36*
G01*
X143484000Y-139600000D02*
X143784000Y-139600000D01*
G75*
G02*
X143934000Y-139750000I0J-150000D01*
G01*
X143934000Y-141050000D01*
G75*
G02*
X143784000Y-141200000I-150000J0D01*
G01*
X143484000Y-141200000D01*
G75*
G02*
X143334000Y-141050000I0J150000D01*
G01*
X143334000Y-139750000D01*
G75*
G02*
X143484000Y-139600000I150000J0D01*
G01*
G37*
G36*
G01*
X142214000Y-139600000D02*
X142514000Y-139600000D01*
G75*
G02*
X142664000Y-139750000I0J-150000D01*
G01*
X142664000Y-141050000D01*
G75*
G02*
X142514000Y-141200000I-150000J0D01*
G01*
X142214000Y-141200000D01*
G75*
G02*
X142064000Y-141050000I0J150000D01*
G01*
X142064000Y-139750000D01*
G75*
G02*
X142214000Y-139600000I150000J0D01*
G01*
G37*
G36*
G01*
X140944000Y-139600000D02*
X141244000Y-139600000D01*
G75*
G02*
X141394000Y-139750000I0J-150000D01*
G01*
X141394000Y-141050000D01*
G75*
G02*
X141244000Y-141200000I-150000J0D01*
G01*
X140944000Y-141200000D01*
G75*
G02*
X140794000Y-141050000I0J150000D01*
G01*
X140794000Y-139750000D01*
G75*
G02*
X140944000Y-139600000I150000J0D01*
G01*
G37*
%TD*%
D15*
%TO.C,SW4*%
X140059000Y-159150000D03*
X143259000Y-159150000D03*
D16*
X140434000Y-157200000D03*
D17*
X141659000Y-157200000D03*
D16*
X142884000Y-157200000D03*
%TD*%
%TO.C,R13*%
G36*
G01*
X161899000Y-107150002D02*
X161899000Y-106249998D01*
G75*
G02*
X162148998Y-106000000I249998J0D01*
G01*
X162674002Y-106000000D01*
G75*
G02*
X162924000Y-106249998I0J-249998D01*
G01*
X162924000Y-107150002D01*
G75*
G02*
X162674002Y-107400000I-249998J0D01*
G01*
X162148998Y-107400000D01*
G75*
G02*
X161899000Y-107150002I0J249998D01*
G01*
G37*
G36*
G01*
X160074000Y-107150002D02*
X160074000Y-106249998D01*
G75*
G02*
X160323998Y-106000000I249998J0D01*
G01*
X160849002Y-106000000D01*
G75*
G02*
X161099000Y-106249998I0J-249998D01*
G01*
X161099000Y-107150002D01*
G75*
G02*
X160849002Y-107400000I-249998J0D01*
G01*
X160323998Y-107400000D01*
G75*
G02*
X160074000Y-107150002I0J249998D01*
G01*
G37*
%TD*%
%TO.C,R12*%
G36*
G01*
X165199000Y-106249998D02*
X165199000Y-107150002D01*
G75*
G02*
X164949002Y-107400000I-249998J0D01*
G01*
X164423998Y-107400000D01*
G75*
G02*
X164174000Y-107150002I0J249998D01*
G01*
X164174000Y-106249998D01*
G75*
G02*
X164423998Y-106000000I249998J0D01*
G01*
X164949002Y-106000000D01*
G75*
G02*
X165199000Y-106249998I0J-249998D01*
G01*
G37*
G36*
G01*
X167024000Y-106249998D02*
X167024000Y-107150002D01*
G75*
G02*
X166774002Y-107400000I-249998J0D01*
G01*
X166248998Y-107400000D01*
G75*
G02*
X165999000Y-107150002I0J249998D01*
G01*
X165999000Y-106249998D01*
G75*
G02*
X166248998Y-106000000I249998J0D01*
G01*
X166774002Y-106000000D01*
G75*
G02*
X167024000Y-106249998I0J-249998D01*
G01*
G37*
%TD*%
%TO.C,R20*%
G36*
G01*
X176449002Y-99200000D02*
X175548998Y-99200000D01*
G75*
G02*
X175299000Y-98950002I0J249998D01*
G01*
X175299000Y-98424998D01*
G75*
G02*
X175548998Y-98175000I249998J0D01*
G01*
X176449002Y-98175000D01*
G75*
G02*
X176699000Y-98424998I0J-249998D01*
G01*
X176699000Y-98950002D01*
G75*
G02*
X176449002Y-99200000I-249998J0D01*
G01*
G37*
G36*
G01*
X176449002Y-101025000D02*
X175548998Y-101025000D01*
G75*
G02*
X175299000Y-100775002I0J249998D01*
G01*
X175299000Y-100249998D01*
G75*
G02*
X175548998Y-100000000I249998J0D01*
G01*
X176449002Y-100000000D01*
G75*
G02*
X176699000Y-100249998I0J-249998D01*
G01*
X176699000Y-100775002D01*
G75*
G02*
X176449002Y-101025000I-249998J0D01*
G01*
G37*
%TD*%
%TO.C,R19*%
G36*
G01*
X173199000Y-107150002D02*
X173199000Y-106249998D01*
G75*
G02*
X173448998Y-106000000I249998J0D01*
G01*
X173974002Y-106000000D01*
G75*
G02*
X174224000Y-106249998I0J-249998D01*
G01*
X174224000Y-107150002D01*
G75*
G02*
X173974002Y-107400000I-249998J0D01*
G01*
X173448998Y-107400000D01*
G75*
G02*
X173199000Y-107150002I0J249998D01*
G01*
G37*
G36*
G01*
X171374000Y-107150002D02*
X171374000Y-106249998D01*
G75*
G02*
X171623998Y-106000000I249998J0D01*
G01*
X172149002Y-106000000D01*
G75*
G02*
X172399000Y-106249998I0J-249998D01*
G01*
X172399000Y-107150002D01*
G75*
G02*
X172149002Y-107400000I-249998J0D01*
G01*
X171623998Y-107400000D01*
G75*
G02*
X171374000Y-107150002I0J249998D01*
G01*
G37*
%TD*%
%TO.C,R18*%
G36*
G01*
X176599000Y-106299998D02*
X176599000Y-107200002D01*
G75*
G02*
X176349002Y-107450000I-249998J0D01*
G01*
X175823998Y-107450000D01*
G75*
G02*
X175574000Y-107200002I0J249998D01*
G01*
X175574000Y-106299998D01*
G75*
G02*
X175823998Y-106050000I249998J0D01*
G01*
X176349002Y-106050000D01*
G75*
G02*
X176599000Y-106299998I0J-249998D01*
G01*
G37*
G36*
G01*
X178424000Y-106299998D02*
X178424000Y-107200002D01*
G75*
G02*
X178174002Y-107450000I-249998J0D01*
G01*
X177648998Y-107450000D01*
G75*
G02*
X177399000Y-107200002I0J249998D01*
G01*
X177399000Y-106299998D01*
G75*
G02*
X177648998Y-106050000I249998J0D01*
G01*
X178174002Y-106050000D01*
G75*
G02*
X178424000Y-106299998I0J-249998D01*
G01*
G37*
%TD*%
%TO.C,R17*%
G36*
G01*
X172399000Y-102249998D02*
X172399000Y-103150002D01*
G75*
G02*
X172149002Y-103400000I-249998J0D01*
G01*
X171623998Y-103400000D01*
G75*
G02*
X171374000Y-103150002I0J249998D01*
G01*
X171374000Y-102249998D01*
G75*
G02*
X171623998Y-102000000I249998J0D01*
G01*
X172149002Y-102000000D01*
G75*
G02*
X172399000Y-102249998I0J-249998D01*
G01*
G37*
G36*
G01*
X174224000Y-102249998D02*
X174224000Y-103150002D01*
G75*
G02*
X173974002Y-103400000I-249998J0D01*
G01*
X173448998Y-103400000D01*
G75*
G02*
X173199000Y-103150002I0J249998D01*
G01*
X173199000Y-102249998D01*
G75*
G02*
X173448998Y-102000000I249998J0D01*
G01*
X173974002Y-102000000D01*
G75*
G02*
X174224000Y-102249998I0J-249998D01*
G01*
G37*
%TD*%
%TO.C,R11*%
G36*
G01*
X161099000Y-102249998D02*
X161099000Y-103150002D01*
G75*
G02*
X160849002Y-103400000I-249998J0D01*
G01*
X160323998Y-103400000D01*
G75*
G02*
X160074000Y-103150002I0J249998D01*
G01*
X160074000Y-102249998D01*
G75*
G02*
X160323998Y-102000000I249998J0D01*
G01*
X160849002Y-102000000D01*
G75*
G02*
X161099000Y-102249998I0J-249998D01*
G01*
G37*
G36*
G01*
X162924000Y-102249998D02*
X162924000Y-103150002D01*
G75*
G02*
X162674002Y-103400000I-249998J0D01*
G01*
X162148998Y-103400000D01*
G75*
G02*
X161899000Y-103150002I0J249998D01*
G01*
X161899000Y-102249998D01*
G75*
G02*
X162148998Y-102000000I249998J0D01*
G01*
X162674002Y-102000000D01*
G75*
G02*
X162924000Y-102249998I0J-249998D01*
G01*
G37*
%TD*%
%TO.C,R10*%
G36*
G01*
X165999000Y-103150002D02*
X165999000Y-102249998D01*
G75*
G02*
X166248998Y-102000000I249998J0D01*
G01*
X166774002Y-102000000D01*
G75*
G02*
X167024000Y-102249998I0J-249998D01*
G01*
X167024000Y-103150002D01*
G75*
G02*
X166774002Y-103400000I-249998J0D01*
G01*
X166248998Y-103400000D01*
G75*
G02*
X165999000Y-103150002I0J249998D01*
G01*
G37*
G36*
G01*
X164174000Y-103150002D02*
X164174000Y-102249998D01*
G75*
G02*
X164423998Y-102000000I249998J0D01*
G01*
X164949002Y-102000000D01*
G75*
G02*
X165199000Y-102249998I0J-249998D01*
G01*
X165199000Y-103150002D01*
G75*
G02*
X164949002Y-103400000I-249998J0D01*
G01*
X164423998Y-103400000D01*
G75*
G02*
X164174000Y-103150002I0J249998D01*
G01*
G37*
%TD*%
%TO.C,R9*%
G36*
G01*
X163049002Y-101025000D02*
X162148998Y-101025000D01*
G75*
G02*
X161899000Y-100775002I0J249998D01*
G01*
X161899000Y-100249998D01*
G75*
G02*
X162148998Y-100000000I249998J0D01*
G01*
X163049002Y-100000000D01*
G75*
G02*
X163299000Y-100249998I0J-249998D01*
G01*
X163299000Y-100775002D01*
G75*
G02*
X163049002Y-101025000I-249998J0D01*
G01*
G37*
G36*
G01*
X163049002Y-99200000D02*
X162148998Y-99200000D01*
G75*
G02*
X161899000Y-98950002I0J249998D01*
G01*
X161899000Y-98424998D01*
G75*
G02*
X162148998Y-98175000I249998J0D01*
G01*
X163049002Y-98175000D01*
G75*
G02*
X163299000Y-98424998I0J-249998D01*
G01*
X163299000Y-98950002D01*
G75*
G02*
X163049002Y-99200000I-249998J0D01*
G01*
G37*
%TD*%
%TO.C,R8*%
G36*
G01*
X174249002Y-99200000D02*
X173348998Y-99200000D01*
G75*
G02*
X173099000Y-98950002I0J249998D01*
G01*
X173099000Y-98424998D01*
G75*
G02*
X173348998Y-98175000I249998J0D01*
G01*
X174249002Y-98175000D01*
G75*
G02*
X174499000Y-98424998I0J-249998D01*
G01*
X174499000Y-98950002D01*
G75*
G02*
X174249002Y-99200000I-249998J0D01*
G01*
G37*
G36*
G01*
X174249002Y-101025000D02*
X173348998Y-101025000D01*
G75*
G02*
X173099000Y-100775002I0J249998D01*
G01*
X173099000Y-100249998D01*
G75*
G02*
X173348998Y-100000000I249998J0D01*
G01*
X174249002Y-100000000D01*
G75*
G02*
X174499000Y-100249998I0J-249998D01*
G01*
X174499000Y-100775002D01*
G75*
G02*
X174249002Y-101025000I-249998J0D01*
G01*
G37*
%TD*%
%TO.C,R5*%
G36*
G01*
X165049002Y-101045000D02*
X164148998Y-101045000D01*
G75*
G02*
X163899000Y-100795002I0J249998D01*
G01*
X163899000Y-100269998D01*
G75*
G02*
X164148998Y-100020000I249998J0D01*
G01*
X165049002Y-100020000D01*
G75*
G02*
X165299000Y-100269998I0J-249998D01*
G01*
X165299000Y-100795002D01*
G75*
G02*
X165049002Y-101045000I-249998J0D01*
G01*
G37*
G36*
G01*
X165049002Y-99220000D02*
X164148998Y-99220000D01*
G75*
G02*
X163899000Y-98970002I0J249998D01*
G01*
X163899000Y-98444998D01*
G75*
G02*
X164148998Y-98195000I249998J0D01*
G01*
X165049002Y-98195000D01*
G75*
G02*
X165299000Y-98444998I0J-249998D01*
G01*
X165299000Y-98970002D01*
G75*
G02*
X165049002Y-99220000I-249998J0D01*
G01*
G37*
%TD*%
%TO.C,R4*%
G36*
G01*
X177399000Y-103200002D02*
X177399000Y-102299998D01*
G75*
G02*
X177648998Y-102050000I249998J0D01*
G01*
X178174002Y-102050000D01*
G75*
G02*
X178424000Y-102299998I0J-249998D01*
G01*
X178424000Y-103200002D01*
G75*
G02*
X178174002Y-103450000I-249998J0D01*
G01*
X177648998Y-103450000D01*
G75*
G02*
X177399000Y-103200002I0J249998D01*
G01*
G37*
G36*
G01*
X175574000Y-103200002D02*
X175574000Y-102299998D01*
G75*
G02*
X175823998Y-102050000I249998J0D01*
G01*
X176349002Y-102050000D01*
G75*
G02*
X176599000Y-102299998I0J-249998D01*
G01*
X176599000Y-103200002D01*
G75*
G02*
X176349002Y-103450000I-249998J0D01*
G01*
X175823998Y-103450000D01*
G75*
G02*
X175574000Y-103200002I0J249998D01*
G01*
G37*
%TD*%
%TO.C,C32*%
G36*
G01*
X172274000Y-114200000D02*
X171324000Y-114200000D01*
G75*
G02*
X171074000Y-113950000I0J250000D01*
G01*
X171074000Y-113450000D01*
G75*
G02*
X171324000Y-113200000I250000J0D01*
G01*
X172274000Y-113200000D01*
G75*
G02*
X172524000Y-113450000I0J-250000D01*
G01*
X172524000Y-113950000D01*
G75*
G02*
X172274000Y-114200000I-250000J0D01*
G01*
G37*
G36*
G01*
X172274000Y-116100000D02*
X171324000Y-116100000D01*
G75*
G02*
X171074000Y-115850000I0J250000D01*
G01*
X171074000Y-115350000D01*
G75*
G02*
X171324000Y-115100000I250000J0D01*
G01*
X172274000Y-115100000D01*
G75*
G02*
X172524000Y-115350000I0J-250000D01*
G01*
X172524000Y-115850000D01*
G75*
G02*
X172274000Y-116100000I-250000J0D01*
G01*
G37*
%TD*%
%TO.C,C18*%
G36*
G01*
X167074000Y-114200000D02*
X166124000Y-114200000D01*
G75*
G02*
X165874000Y-113950000I0J250000D01*
G01*
X165874000Y-113450000D01*
G75*
G02*
X166124000Y-113200000I250000J0D01*
G01*
X167074000Y-113200000D01*
G75*
G02*
X167324000Y-113450000I0J-250000D01*
G01*
X167324000Y-113950000D01*
G75*
G02*
X167074000Y-114200000I-250000J0D01*
G01*
G37*
G36*
G01*
X167074000Y-116100000D02*
X166124000Y-116100000D01*
G75*
G02*
X165874000Y-115850000I0J250000D01*
G01*
X165874000Y-115350000D01*
G75*
G02*
X166124000Y-115100000I250000J0D01*
G01*
X167074000Y-115100000D01*
G75*
G02*
X167324000Y-115350000I0J-250000D01*
G01*
X167324000Y-115850000D01*
G75*
G02*
X167074000Y-116100000I-250000J0D01*
G01*
G37*
%TD*%
%TO.C,C17*%
G36*
G01*
X161949000Y-105175000D02*
X161949000Y-104225000D01*
G75*
G02*
X162199000Y-103975000I250000J0D01*
G01*
X162699000Y-103975000D01*
G75*
G02*
X162949000Y-104225000I0J-250000D01*
G01*
X162949000Y-105175000D01*
G75*
G02*
X162699000Y-105425000I-250000J0D01*
G01*
X162199000Y-105425000D01*
G75*
G02*
X161949000Y-105175000I0J250000D01*
G01*
G37*
G36*
G01*
X160049000Y-105175000D02*
X160049000Y-104225000D01*
G75*
G02*
X160299000Y-103975000I250000J0D01*
G01*
X160799000Y-103975000D01*
G75*
G02*
X161049000Y-104225000I0J-250000D01*
G01*
X161049000Y-105175000D01*
G75*
G02*
X160799000Y-105425000I-250000J0D01*
G01*
X160299000Y-105425000D01*
G75*
G02*
X160049000Y-105175000I0J250000D01*
G01*
G37*
%TD*%
%TO.C,C13*%
G36*
G01*
X165149000Y-104225000D02*
X165149000Y-105175000D01*
G75*
G02*
X164899000Y-105425000I-250000J0D01*
G01*
X164399000Y-105425000D01*
G75*
G02*
X164149000Y-105175000I0J250000D01*
G01*
X164149000Y-104225000D01*
G75*
G02*
X164399000Y-103975000I250000J0D01*
G01*
X164899000Y-103975000D01*
G75*
G02*
X165149000Y-104225000I0J-250000D01*
G01*
G37*
G36*
G01*
X167049000Y-104225000D02*
X167049000Y-105175000D01*
G75*
G02*
X166799000Y-105425000I-250000J0D01*
G01*
X166299000Y-105425000D01*
G75*
G02*
X166049000Y-105175000I0J250000D01*
G01*
X166049000Y-104225000D01*
G75*
G02*
X166299000Y-103975000I250000J0D01*
G01*
X166799000Y-103975000D01*
G75*
G02*
X167049000Y-104225000I0J-250000D01*
G01*
G37*
%TD*%
%TO.C,C8*%
G36*
G01*
X173249000Y-105175000D02*
X173249000Y-104225000D01*
G75*
G02*
X173499000Y-103975000I250000J0D01*
G01*
X173999000Y-103975000D01*
G75*
G02*
X174249000Y-104225000I0J-250000D01*
G01*
X174249000Y-105175000D01*
G75*
G02*
X173999000Y-105425000I-250000J0D01*
G01*
X173499000Y-105425000D01*
G75*
G02*
X173249000Y-105175000I0J250000D01*
G01*
G37*
G36*
G01*
X171349000Y-105175000D02*
X171349000Y-104225000D01*
G75*
G02*
X171599000Y-103975000I250000J0D01*
G01*
X172099000Y-103975000D01*
G75*
G02*
X172349000Y-104225000I0J-250000D01*
G01*
X172349000Y-105175000D01*
G75*
G02*
X172099000Y-105425000I-250000J0D01*
G01*
X171599000Y-105425000D01*
G75*
G02*
X171349000Y-105175000I0J250000D01*
G01*
G37*
%TD*%
%TO.C,C7*%
G36*
G01*
X176549000Y-104275000D02*
X176549000Y-105225000D01*
G75*
G02*
X176299000Y-105475000I-250000J0D01*
G01*
X175799000Y-105475000D01*
G75*
G02*
X175549000Y-105225000I0J250000D01*
G01*
X175549000Y-104275000D01*
G75*
G02*
X175799000Y-104025000I250000J0D01*
G01*
X176299000Y-104025000D01*
G75*
G02*
X176549000Y-104275000I0J-250000D01*
G01*
G37*
G36*
G01*
X178449000Y-104275000D02*
X178449000Y-105225000D01*
G75*
G02*
X178199000Y-105475000I-250000J0D01*
G01*
X177699000Y-105475000D01*
G75*
G02*
X177449000Y-105225000I0J250000D01*
G01*
X177449000Y-104275000D01*
G75*
G02*
X177699000Y-104025000I250000J0D01*
G01*
X178199000Y-104025000D01*
G75*
G02*
X178449000Y-104275000I0J-250000D01*
G01*
G37*
%TD*%
%TO.C,C3*%
G36*
G01*
X166524000Y-138200000D02*
X167474000Y-138200000D01*
G75*
G02*
X167724000Y-138450000I0J-250000D01*
G01*
X167724000Y-138950000D01*
G75*
G02*
X167474000Y-139200000I-250000J0D01*
G01*
X166524000Y-139200000D01*
G75*
G02*
X166274000Y-138950000I0J250000D01*
G01*
X166274000Y-138450000D01*
G75*
G02*
X166524000Y-138200000I250000J0D01*
G01*
G37*
G36*
G01*
X166524000Y-136300000D02*
X167474000Y-136300000D01*
G75*
G02*
X167724000Y-136550000I0J-250000D01*
G01*
X167724000Y-137050000D01*
G75*
G02*
X167474000Y-137300000I-250000J0D01*
G01*
X166524000Y-137300000D01*
G75*
G02*
X166274000Y-137050000I0J250000D01*
G01*
X166274000Y-136550000D01*
G75*
G02*
X166524000Y-136300000I250000J0D01*
G01*
G37*
%TD*%
%TO.C,C1*%
G36*
G01*
X166999000Y-149275000D02*
X166999000Y-148325000D01*
G75*
G02*
X167249000Y-148075000I250000J0D01*
G01*
X167749000Y-148075000D01*
G75*
G02*
X167999000Y-148325000I0J-250000D01*
G01*
X167999000Y-149275000D01*
G75*
G02*
X167749000Y-149525000I-250000J0D01*
G01*
X167249000Y-149525000D01*
G75*
G02*
X166999000Y-149275000I0J250000D01*
G01*
G37*
G36*
G01*
X165099000Y-149275000D02*
X165099000Y-148325000D01*
G75*
G02*
X165349000Y-148075000I250000J0D01*
G01*
X165849000Y-148075000D01*
G75*
G02*
X166099000Y-148325000I0J-250000D01*
G01*
X166099000Y-149275000D01*
G75*
G02*
X165849000Y-149525000I-250000J0D01*
G01*
X165349000Y-149525000D01*
G75*
G02*
X165099000Y-149275000I0J250000D01*
G01*
G37*
%TD*%
D18*
%TO.C,Y1*%
X158799000Y-121250000D03*
X149299000Y-121250000D03*
%TD*%
D19*
%TO.C,U7*%
X175849001Y-109447450D03*
X174899000Y-109447450D03*
X173948999Y-109447450D03*
X173948999Y-112152550D03*
X174899000Y-112152550D03*
X175849001Y-112152550D03*
%TD*%
%TO.C,U4*%
X164499001Y-109477450D03*
X163549000Y-109477450D03*
X162598999Y-109477450D03*
X162598999Y-112182550D03*
X163549000Y-112182550D03*
X164499001Y-112182550D03*
%TD*%
%TO.C,R16*%
G36*
G01*
X137949000Y-139899998D02*
X137949000Y-140800002D01*
G75*
G02*
X137699002Y-141050000I-249998J0D01*
G01*
X137173998Y-141050000D01*
G75*
G02*
X136924000Y-140800002I0J249998D01*
G01*
X136924000Y-139899998D01*
G75*
G02*
X137173998Y-139650000I249998J0D01*
G01*
X137699002Y-139650000D01*
G75*
G02*
X137949000Y-139899998I0J-249998D01*
G01*
G37*
G36*
G01*
X139774000Y-139899998D02*
X139774000Y-140800002D01*
G75*
G02*
X139524002Y-141050000I-249998J0D01*
G01*
X138998998Y-141050000D01*
G75*
G02*
X138749000Y-140800002I0J249998D01*
G01*
X138749000Y-139899998D01*
G75*
G02*
X138998998Y-139650000I249998J0D01*
G01*
X139524002Y-139650000D01*
G75*
G02*
X139774000Y-139899998I0J-249998D01*
G01*
G37*
%TD*%
%TO.C,R15*%
G36*
G01*
X166949000Y-155300002D02*
X166949000Y-154399998D01*
G75*
G02*
X167198998Y-154150000I249998J0D01*
G01*
X167724002Y-154150000D01*
G75*
G02*
X167974000Y-154399998I0J-249998D01*
G01*
X167974000Y-155300002D01*
G75*
G02*
X167724002Y-155550000I-249998J0D01*
G01*
X167198998Y-155550000D01*
G75*
G02*
X166949000Y-155300002I0J249998D01*
G01*
G37*
G36*
G01*
X165124000Y-155300002D02*
X165124000Y-154399998D01*
G75*
G02*
X165373998Y-154150000I249998J0D01*
G01*
X165899002Y-154150000D01*
G75*
G02*
X166149000Y-154399998I0J-249998D01*
G01*
X166149000Y-155300002D01*
G75*
G02*
X165899002Y-155550000I-249998J0D01*
G01*
X165373998Y-155550000D01*
G75*
G02*
X165124000Y-155300002I0J249998D01*
G01*
G37*
%TD*%
%TO.C,R14*%
G36*
G01*
X154449000Y-125300002D02*
X154449000Y-124399998D01*
G75*
G02*
X154698998Y-124150000I249998J0D01*
G01*
X155224002Y-124150000D01*
G75*
G02*
X155474000Y-124399998I0J-249998D01*
G01*
X155474000Y-125300002D01*
G75*
G02*
X155224002Y-125550000I-249998J0D01*
G01*
X154698998Y-125550000D01*
G75*
G02*
X154449000Y-125300002I0J249998D01*
G01*
G37*
G36*
G01*
X152624000Y-125300002D02*
X152624000Y-124399998D01*
G75*
G02*
X152873998Y-124150000I249998J0D01*
G01*
X153399002Y-124150000D01*
G75*
G02*
X153649000Y-124399998I0J-249998D01*
G01*
X153649000Y-125300002D01*
G75*
G02*
X153399002Y-125550000I-249998J0D01*
G01*
X152873998Y-125550000D01*
G75*
G02*
X152624000Y-125300002I0J249998D01*
G01*
G37*
%TD*%
%TO.C,L1*%
G36*
G01*
X139380250Y-151875000D02*
X138617750Y-151875000D01*
G75*
G02*
X138399000Y-151656250I0J218750D01*
G01*
X138399000Y-151218750D01*
G75*
G02*
X138617750Y-151000000I218750J0D01*
G01*
X139380250Y-151000000D01*
G75*
G02*
X139599000Y-151218750I0J-218750D01*
G01*
X139599000Y-151656250D01*
G75*
G02*
X139380250Y-151875000I-218750J0D01*
G01*
G37*
G36*
G01*
X139380250Y-154000000D02*
X138617750Y-154000000D01*
G75*
G02*
X138399000Y-153781250I0J218750D01*
G01*
X138399000Y-153343750D01*
G75*
G02*
X138617750Y-153125000I218750J0D01*
G01*
X139380250Y-153125000D01*
G75*
G02*
X139599000Y-153343750I0J-218750D01*
G01*
X139599000Y-153781250D01*
G75*
G02*
X139380250Y-154000000I-218750J0D01*
G01*
G37*
%TD*%
%TO.C,D3*%
G36*
G01*
X148192750Y-150150000D02*
X148705250Y-150150000D01*
G75*
G02*
X148924000Y-150368750I0J-218750D01*
G01*
X148924000Y-150806250D01*
G75*
G02*
X148705250Y-151025000I-218750J0D01*
G01*
X148192750Y-151025000D01*
G75*
G02*
X147974000Y-150806250I0J218750D01*
G01*
X147974000Y-150368750D01*
G75*
G02*
X148192750Y-150150000I218750J0D01*
G01*
G37*
G36*
G01*
X148192750Y-148575000D02*
X148705250Y-148575000D01*
G75*
G02*
X148924000Y-148793750I0J-218750D01*
G01*
X148924000Y-149231250D01*
G75*
G02*
X148705250Y-149450000I-218750J0D01*
G01*
X148192750Y-149450000D01*
G75*
G02*
X147974000Y-149231250I0J218750D01*
G01*
X147974000Y-148793750D01*
G75*
G02*
X148192750Y-148575000I218750J0D01*
G01*
G37*
%TD*%
%TO.C,C33*%
G36*
G01*
X171324000Y-100050000D02*
X172274000Y-100050000D01*
G75*
G02*
X172524000Y-100300000I0J-250000D01*
G01*
X172524000Y-100800000D01*
G75*
G02*
X172274000Y-101050000I-250000J0D01*
G01*
X171324000Y-101050000D01*
G75*
G02*
X171074000Y-100800000I0J250000D01*
G01*
X171074000Y-100300000D01*
G75*
G02*
X171324000Y-100050000I250000J0D01*
G01*
G37*
G36*
G01*
X171324000Y-98150000D02*
X172274000Y-98150000D01*
G75*
G02*
X172524000Y-98400000I0J-250000D01*
G01*
X172524000Y-98900000D01*
G75*
G02*
X172274000Y-99150000I-250000J0D01*
G01*
X171324000Y-99150000D01*
G75*
G02*
X171074000Y-98900000I0J250000D01*
G01*
X171074000Y-98400000D01*
G75*
G02*
X171324000Y-98150000I250000J0D01*
G01*
G37*
%TD*%
%TO.C,C31*%
G36*
G01*
X160514000Y-140740000D02*
X161464000Y-140740000D01*
G75*
G02*
X161714000Y-140990000I0J-250000D01*
G01*
X161714000Y-141490000D01*
G75*
G02*
X161464000Y-141740000I-250000J0D01*
G01*
X160514000Y-141740000D01*
G75*
G02*
X160264000Y-141490000I0J250000D01*
G01*
X160264000Y-140990000D01*
G75*
G02*
X160514000Y-140740000I250000J0D01*
G01*
G37*
G36*
G01*
X160514000Y-138840000D02*
X161464000Y-138840000D01*
G75*
G02*
X161714000Y-139090000I0J-250000D01*
G01*
X161714000Y-139590000D01*
G75*
G02*
X161464000Y-139840000I-250000J0D01*
G01*
X160514000Y-139840000D01*
G75*
G02*
X160264000Y-139590000I0J250000D01*
G01*
X160264000Y-139090000D01*
G75*
G02*
X160514000Y-138840000I250000J0D01*
G01*
G37*
%TD*%
%TO.C,C30*%
G36*
G01*
X157294000Y-139830000D02*
X156344000Y-139830000D01*
G75*
G02*
X156094000Y-139580000I0J250000D01*
G01*
X156094000Y-139080000D01*
G75*
G02*
X156344000Y-138830000I250000J0D01*
G01*
X157294000Y-138830000D01*
G75*
G02*
X157544000Y-139080000I0J-250000D01*
G01*
X157544000Y-139580000D01*
G75*
G02*
X157294000Y-139830000I-250000J0D01*
G01*
G37*
G36*
G01*
X157294000Y-141730000D02*
X156344000Y-141730000D01*
G75*
G02*
X156094000Y-141480000I0J250000D01*
G01*
X156094000Y-140980000D01*
G75*
G02*
X156344000Y-140730000I250000J0D01*
G01*
X157294000Y-140730000D01*
G75*
G02*
X157544000Y-140980000I0J-250000D01*
G01*
X157544000Y-141480000D01*
G75*
G02*
X157294000Y-141730000I-250000J0D01*
G01*
G37*
%TD*%
%TO.C,C29*%
G36*
G01*
X149324000Y-142650000D02*
X150274000Y-142650000D01*
G75*
G02*
X150524000Y-142900000I0J-250000D01*
G01*
X150524000Y-143400000D01*
G75*
G02*
X150274000Y-143650000I-250000J0D01*
G01*
X149324000Y-143650000D01*
G75*
G02*
X149074000Y-143400000I0J250000D01*
G01*
X149074000Y-142900000D01*
G75*
G02*
X149324000Y-142650000I250000J0D01*
G01*
G37*
G36*
G01*
X149324000Y-140750000D02*
X150274000Y-140750000D01*
G75*
G02*
X150524000Y-141000000I0J-250000D01*
G01*
X150524000Y-141500000D01*
G75*
G02*
X150274000Y-141750000I-250000J0D01*
G01*
X149324000Y-141750000D01*
G75*
G02*
X149074000Y-141500000I0J250000D01*
G01*
X149074000Y-141000000D01*
G75*
G02*
X149324000Y-140750000I250000J0D01*
G01*
G37*
%TD*%
%TO.C,C28*%
G36*
G01*
X159354000Y-139840000D02*
X158404000Y-139840000D01*
G75*
G02*
X158154000Y-139590000I0J250000D01*
G01*
X158154000Y-139090000D01*
G75*
G02*
X158404000Y-138840000I250000J0D01*
G01*
X159354000Y-138840000D01*
G75*
G02*
X159604000Y-139090000I0J-250000D01*
G01*
X159604000Y-139590000D01*
G75*
G02*
X159354000Y-139840000I-250000J0D01*
G01*
G37*
G36*
G01*
X159354000Y-141740000D02*
X158404000Y-141740000D01*
G75*
G02*
X158154000Y-141490000I0J250000D01*
G01*
X158154000Y-140990000D01*
G75*
G02*
X158404000Y-140740000I250000J0D01*
G01*
X159354000Y-140740000D01*
G75*
G02*
X159604000Y-140990000I0J-250000D01*
G01*
X159604000Y-141490000D01*
G75*
G02*
X159354000Y-141740000I-250000J0D01*
G01*
G37*
%TD*%
%TO.C,C27*%
G36*
G01*
X151374000Y-142650000D02*
X152324000Y-142650000D01*
G75*
G02*
X152574000Y-142900000I0J-250000D01*
G01*
X152574000Y-143400000D01*
G75*
G02*
X152324000Y-143650000I-250000J0D01*
G01*
X151374000Y-143650000D01*
G75*
G02*
X151124000Y-143400000I0J250000D01*
G01*
X151124000Y-142900000D01*
G75*
G02*
X151374000Y-142650000I250000J0D01*
G01*
G37*
G36*
G01*
X151374000Y-140750000D02*
X152324000Y-140750000D01*
G75*
G02*
X152574000Y-141000000I0J-250000D01*
G01*
X152574000Y-141500000D01*
G75*
G02*
X152324000Y-141750000I-250000J0D01*
G01*
X151374000Y-141750000D01*
G75*
G02*
X151124000Y-141500000I0J250000D01*
G01*
X151124000Y-141000000D01*
G75*
G02*
X151374000Y-140750000I250000J0D01*
G01*
G37*
%TD*%
%TO.C,C26*%
G36*
G01*
X153424000Y-142650000D02*
X154374000Y-142650000D01*
G75*
G02*
X154624000Y-142900000I0J-250000D01*
G01*
X154624000Y-143400000D01*
G75*
G02*
X154374000Y-143650000I-250000J0D01*
G01*
X153424000Y-143650000D01*
G75*
G02*
X153174000Y-143400000I0J250000D01*
G01*
X153174000Y-142900000D01*
G75*
G02*
X153424000Y-142650000I250000J0D01*
G01*
G37*
G36*
G01*
X153424000Y-140750000D02*
X154374000Y-140750000D01*
G75*
G02*
X154624000Y-141000000I0J-250000D01*
G01*
X154624000Y-141500000D01*
G75*
G02*
X154374000Y-141750000I-250000J0D01*
G01*
X153424000Y-141750000D01*
G75*
G02*
X153174000Y-141500000I0J250000D01*
G01*
X153174000Y-141000000D01*
G75*
G02*
X153424000Y-140750000I250000J0D01*
G01*
G37*
%TD*%
%TO.C,C25*%
G36*
G01*
X161849000Y-136575000D02*
X161849000Y-135625000D01*
G75*
G02*
X162099000Y-135375000I250000J0D01*
G01*
X162599000Y-135375000D01*
G75*
G02*
X162849000Y-135625000I0J-250000D01*
G01*
X162849000Y-136575000D01*
G75*
G02*
X162599000Y-136825000I-250000J0D01*
G01*
X162099000Y-136825000D01*
G75*
G02*
X161849000Y-136575000I0J250000D01*
G01*
G37*
G36*
G01*
X159949000Y-136575000D02*
X159949000Y-135625000D01*
G75*
G02*
X160199000Y-135375000I250000J0D01*
G01*
X160699000Y-135375000D01*
G75*
G02*
X160949000Y-135625000I0J-250000D01*
G01*
X160949000Y-136575000D01*
G75*
G02*
X160699000Y-136825000I-250000J0D01*
G01*
X160199000Y-136825000D01*
G75*
G02*
X159949000Y-136575000I0J250000D01*
G01*
G37*
%TD*%
%TO.C,C24*%
G36*
G01*
X161839000Y-133175000D02*
X161839000Y-132225000D01*
G75*
G02*
X162089000Y-131975000I250000J0D01*
G01*
X162589000Y-131975000D01*
G75*
G02*
X162839000Y-132225000I0J-250000D01*
G01*
X162839000Y-133175000D01*
G75*
G02*
X162589000Y-133425000I-250000J0D01*
G01*
X162089000Y-133425000D01*
G75*
G02*
X161839000Y-133175000I0J250000D01*
G01*
G37*
G36*
G01*
X159939000Y-133175000D02*
X159939000Y-132225000D01*
G75*
G02*
X160189000Y-131975000I250000J0D01*
G01*
X160689000Y-131975000D01*
G75*
G02*
X160939000Y-132225000I0J-250000D01*
G01*
X160939000Y-133175000D01*
G75*
G02*
X160689000Y-133425000I-250000J0D01*
G01*
X160189000Y-133425000D01*
G75*
G02*
X159939000Y-133175000I0J250000D01*
G01*
G37*
%TD*%
%TO.C,C23*%
G36*
G01*
X137949000Y-145775000D02*
X137949000Y-146725000D01*
G75*
G02*
X137699000Y-146975000I-250000J0D01*
G01*
X137199000Y-146975000D01*
G75*
G02*
X136949000Y-146725000I0J250000D01*
G01*
X136949000Y-145775000D01*
G75*
G02*
X137199000Y-145525000I250000J0D01*
G01*
X137699000Y-145525000D01*
G75*
G02*
X137949000Y-145775000I0J-250000D01*
G01*
G37*
G36*
G01*
X139849000Y-145775000D02*
X139849000Y-146725000D01*
G75*
G02*
X139599000Y-146975000I-250000J0D01*
G01*
X139099000Y-146975000D01*
G75*
G02*
X138849000Y-146725000I0J250000D01*
G01*
X138849000Y-145775000D01*
G75*
G02*
X139099000Y-145525000I250000J0D01*
G01*
X139599000Y-145525000D01*
G75*
G02*
X139849000Y-145775000I0J-250000D01*
G01*
G37*
%TD*%
%TO.C,C22*%
G36*
G01*
X158099000Y-128075000D02*
X158099000Y-127125000D01*
G75*
G02*
X158349000Y-126875000I250000J0D01*
G01*
X158849000Y-126875000D01*
G75*
G02*
X159099000Y-127125000I0J-250000D01*
G01*
X159099000Y-128075000D01*
G75*
G02*
X158849000Y-128325000I-250000J0D01*
G01*
X158349000Y-128325000D01*
G75*
G02*
X158099000Y-128075000I0J250000D01*
G01*
G37*
G36*
G01*
X156199000Y-128075000D02*
X156199000Y-127125000D01*
G75*
G02*
X156449000Y-126875000I250000J0D01*
G01*
X156949000Y-126875000D01*
G75*
G02*
X157199000Y-127125000I0J-250000D01*
G01*
X157199000Y-128075000D01*
G75*
G02*
X156949000Y-128325000I-250000J0D01*
G01*
X156449000Y-128325000D01*
G75*
G02*
X156199000Y-128075000I0J250000D01*
G01*
G37*
%TD*%
%TO.C,C21*%
G36*
G01*
X158099000Y-126025000D02*
X158099000Y-125075000D01*
G75*
G02*
X158349000Y-124825000I250000J0D01*
G01*
X158849000Y-124825000D01*
G75*
G02*
X159099000Y-125075000I0J-250000D01*
G01*
X159099000Y-126025000D01*
G75*
G02*
X158849000Y-126275000I-250000J0D01*
G01*
X158349000Y-126275000D01*
G75*
G02*
X158099000Y-126025000I0J250000D01*
G01*
G37*
G36*
G01*
X156199000Y-126025000D02*
X156199000Y-125075000D01*
G75*
G02*
X156449000Y-124825000I250000J0D01*
G01*
X156949000Y-124825000D01*
G75*
G02*
X157199000Y-125075000I0J-250000D01*
G01*
X157199000Y-126025000D01*
G75*
G02*
X156949000Y-126275000I-250000J0D01*
G01*
X156449000Y-126275000D01*
G75*
G02*
X156199000Y-126025000I0J250000D01*
G01*
G37*
%TD*%
%TO.C,C20*%
G36*
G01*
X145499000Y-132625000D02*
X145499000Y-133575000D01*
G75*
G02*
X145249000Y-133825000I-250000J0D01*
G01*
X144749000Y-133825000D01*
G75*
G02*
X144499000Y-133575000I0J250000D01*
G01*
X144499000Y-132625000D01*
G75*
G02*
X144749000Y-132375000I250000J0D01*
G01*
X145249000Y-132375000D01*
G75*
G02*
X145499000Y-132625000I0J-250000D01*
G01*
G37*
G36*
G01*
X147399000Y-132625000D02*
X147399000Y-133575000D01*
G75*
G02*
X147149000Y-133825000I-250000J0D01*
G01*
X146649000Y-133825000D01*
G75*
G02*
X146399000Y-133575000I0J250000D01*
G01*
X146399000Y-132625000D01*
G75*
G02*
X146649000Y-132375000I250000J0D01*
G01*
X147149000Y-132375000D01*
G75*
G02*
X147399000Y-132625000I0J-250000D01*
G01*
G37*
%TD*%
%TO.C,C19*%
G36*
G01*
X145549000Y-136625000D02*
X145549000Y-137575000D01*
G75*
G02*
X145299000Y-137825000I-250000J0D01*
G01*
X144799000Y-137825000D01*
G75*
G02*
X144549000Y-137575000I0J250000D01*
G01*
X144549000Y-136625000D01*
G75*
G02*
X144799000Y-136375000I250000J0D01*
G01*
X145299000Y-136375000D01*
G75*
G02*
X145549000Y-136625000I0J-250000D01*
G01*
G37*
G36*
G01*
X147449000Y-136625000D02*
X147449000Y-137575000D01*
G75*
G02*
X147199000Y-137825000I-250000J0D01*
G01*
X146699000Y-137825000D01*
G75*
G02*
X146449000Y-137575000I0J250000D01*
G01*
X146449000Y-136625000D01*
G75*
G02*
X146699000Y-136375000I250000J0D01*
G01*
X147199000Y-136375000D01*
G75*
G02*
X147449000Y-136625000I0J-250000D01*
G01*
G37*
%TD*%
%TO.C,C14*%
G36*
G01*
X177524000Y-100050000D02*
X178474000Y-100050000D01*
G75*
G02*
X178724000Y-100300000I0J-250000D01*
G01*
X178724000Y-100800000D01*
G75*
G02*
X178474000Y-101050000I-250000J0D01*
G01*
X177524000Y-101050000D01*
G75*
G02*
X177274000Y-100800000I0J250000D01*
G01*
X177274000Y-100300000D01*
G75*
G02*
X177524000Y-100050000I250000J0D01*
G01*
G37*
G36*
G01*
X177524000Y-98150000D02*
X178474000Y-98150000D01*
G75*
G02*
X178724000Y-98400000I0J-250000D01*
G01*
X178724000Y-98900000D01*
G75*
G02*
X178474000Y-99150000I-250000J0D01*
G01*
X177524000Y-99150000D01*
G75*
G02*
X177274000Y-98900000I0J250000D01*
G01*
X177274000Y-98400000D01*
G75*
G02*
X177524000Y-98150000I250000J0D01*
G01*
G37*
%TD*%
%TO.C,C10*%
G36*
G01*
X166124000Y-98150000D02*
X167074000Y-98150000D01*
G75*
G02*
X167324000Y-98400000I0J-250000D01*
G01*
X167324000Y-98900000D01*
G75*
G02*
X167074000Y-99150000I-250000J0D01*
G01*
X166124000Y-99150000D01*
G75*
G02*
X165874000Y-98900000I0J250000D01*
G01*
X165874000Y-98400000D01*
G75*
G02*
X166124000Y-98150000I250000J0D01*
G01*
G37*
G36*
G01*
X166124000Y-100050000D02*
X167074000Y-100050000D01*
G75*
G02*
X167324000Y-100300000I0J-250000D01*
G01*
X167324000Y-100800000D01*
G75*
G02*
X167074000Y-101050000I-250000J0D01*
G01*
X166124000Y-101050000D01*
G75*
G02*
X165874000Y-100800000I0J250000D01*
G01*
X165874000Y-100300000D01*
G75*
G02*
X166124000Y-100050000I250000J0D01*
G01*
G37*
%TD*%
%TO.C,C9*%
G36*
G01*
X145014000Y-156640000D02*
X145964000Y-156640000D01*
G75*
G02*
X146214000Y-156890000I0J-250000D01*
G01*
X146214000Y-157390000D01*
G75*
G02*
X145964000Y-157640000I-250000J0D01*
G01*
X145014000Y-157640000D01*
G75*
G02*
X144764000Y-157390000I0J250000D01*
G01*
X144764000Y-156890000D01*
G75*
G02*
X145014000Y-156640000I250000J0D01*
G01*
G37*
G36*
G01*
X145014000Y-154740000D02*
X145964000Y-154740000D01*
G75*
G02*
X146214000Y-154990000I0J-250000D01*
G01*
X146214000Y-155490000D01*
G75*
G02*
X145964000Y-155740000I-250000J0D01*
G01*
X145014000Y-155740000D01*
G75*
G02*
X144764000Y-155490000I0J250000D01*
G01*
X144764000Y-154990000D01*
G75*
G02*
X145014000Y-154740000I250000J0D01*
G01*
G37*
%TD*%
%TO.C,C6*%
G36*
G01*
X160124000Y-98150000D02*
X161074000Y-98150000D01*
G75*
G02*
X161324000Y-98400000I0J-250000D01*
G01*
X161324000Y-98900000D01*
G75*
G02*
X161074000Y-99150000I-250000J0D01*
G01*
X160124000Y-99150000D01*
G75*
G02*
X159874000Y-98900000I0J250000D01*
G01*
X159874000Y-98400000D01*
G75*
G02*
X160124000Y-98150000I250000J0D01*
G01*
G37*
G36*
G01*
X160124000Y-100050000D02*
X161074000Y-100050000D01*
G75*
G02*
X161324000Y-100300000I0J-250000D01*
G01*
X161324000Y-100800000D01*
G75*
G02*
X161074000Y-101050000I-250000J0D01*
G01*
X160124000Y-101050000D01*
G75*
G02*
X159874000Y-100800000I0J250000D01*
G01*
X159874000Y-100300000D01*
G75*
G02*
X160124000Y-100050000I250000J0D01*
G01*
G37*
%TD*%
%TO.C,C5*%
G36*
G01*
X139399000Y-149225000D02*
X139399000Y-150175000D01*
G75*
G02*
X139149000Y-150425000I-250000J0D01*
G01*
X138649000Y-150425000D01*
G75*
G02*
X138399000Y-150175000I0J250000D01*
G01*
X138399000Y-149225000D01*
G75*
G02*
X138649000Y-148975000I250000J0D01*
G01*
X139149000Y-148975000D01*
G75*
G02*
X139399000Y-149225000I0J-250000D01*
G01*
G37*
G36*
G01*
X141299000Y-149225000D02*
X141299000Y-150175000D01*
G75*
G02*
X141049000Y-150425000I-250000J0D01*
G01*
X140549000Y-150425000D01*
G75*
G02*
X140299000Y-150175000I0J250000D01*
G01*
X140299000Y-149225000D01*
G75*
G02*
X140549000Y-148975000I250000J0D01*
G01*
X141049000Y-148975000D01*
G75*
G02*
X141299000Y-149225000I0J-250000D01*
G01*
G37*
%TD*%
%TO.C,C15*%
G36*
G01*
X129979000Y-154450000D02*
X129979000Y-155550000D01*
G75*
G02*
X129729000Y-155800000I-250000J0D01*
G01*
X126729000Y-155800000D01*
G75*
G02*
X126479000Y-155550000I0J250000D01*
G01*
X126479000Y-154450000D01*
G75*
G02*
X126729000Y-154200000I250000J0D01*
G01*
X129729000Y-154200000D01*
G75*
G02*
X129979000Y-154450000I0J-250000D01*
G01*
G37*
G36*
G01*
X135579000Y-154450000D02*
X135579000Y-155550000D01*
G75*
G02*
X135329000Y-155800000I-250000J0D01*
G01*
X132329000Y-155800000D01*
G75*
G02*
X132079000Y-155550000I0J250000D01*
G01*
X132079000Y-154450000D01*
G75*
G02*
X132329000Y-154200000I250000J0D01*
G01*
X135329000Y-154200000D01*
G75*
G02*
X135579000Y-154450000I0J-250000D01*
G01*
G37*
%TD*%
D20*
%TO.C,J1*%
X142900000Y-51350000D03*
D21*
X131500000Y-54300000D03*
X129500000Y-46900000D03*
D22*
X138900000Y-46900000D03*
%TD*%
%TO.C,D2*%
G36*
G01*
X136162750Y-126030000D02*
X136675250Y-126030000D01*
G75*
G02*
X136894000Y-126248750I0J-218750D01*
G01*
X136894000Y-126686250D01*
G75*
G02*
X136675250Y-126905000I-218750J0D01*
G01*
X136162750Y-126905000D01*
G75*
G02*
X135944000Y-126686250I0J218750D01*
G01*
X135944000Y-126248750D01*
G75*
G02*
X136162750Y-126030000I218750J0D01*
G01*
G37*
G36*
G01*
X136162750Y-124455000D02*
X136675250Y-124455000D01*
G75*
G02*
X136894000Y-124673750I0J-218750D01*
G01*
X136894000Y-125111250D01*
G75*
G02*
X136675250Y-125330000I-218750J0D01*
G01*
X136162750Y-125330000D01*
G75*
G02*
X135944000Y-125111250I0J218750D01*
G01*
X135944000Y-124673750D01*
G75*
G02*
X136162750Y-124455000I218750J0D01*
G01*
G37*
%TD*%
D23*
%TO.C,U3*%
X153498874Y-96217100D03*
X153999000Y-96217100D03*
X154499126Y-96217100D03*
D24*
X155180100Y-96040189D03*
X155180100Y-95540063D03*
X155180100Y-95039937D03*
X155180100Y-94539811D03*
D23*
X154499126Y-94362900D03*
X153999000Y-94362900D03*
X153498874Y-94362900D03*
D24*
X152817900Y-94539811D03*
X152817900Y-95039937D03*
X152817900Y-95540063D03*
X152817900Y-96040189D03*
%TD*%
D25*
%TO.C,J5*%
X157239000Y-153685000D03*
X150839000Y-153685000D03*
X156439000Y-153685000D03*
X151639000Y-153685000D03*
D26*
X153789000Y-153685000D03*
X154289000Y-153685000D03*
X153289000Y-153685000D03*
X152789000Y-153685000D03*
X152289000Y-153685000D03*
X154789000Y-153685000D03*
X155289000Y-153685000D03*
X155789000Y-153685000D03*
%TD*%
%TO.C,R7*%
G36*
G01*
X153499002Y-149320000D02*
X152598998Y-149320000D01*
G75*
G02*
X152349000Y-149070002I0J249998D01*
G01*
X152349000Y-148544998D01*
G75*
G02*
X152598998Y-148295000I249998J0D01*
G01*
X153499002Y-148295000D01*
G75*
G02*
X153749000Y-148544998I0J-249998D01*
G01*
X153749000Y-149070002D01*
G75*
G02*
X153499002Y-149320000I-249998J0D01*
G01*
G37*
G36*
G01*
X153499002Y-151145000D02*
X152598998Y-151145000D01*
G75*
G02*
X152349000Y-150895002I0J249998D01*
G01*
X152349000Y-150369998D01*
G75*
G02*
X152598998Y-150120000I249998J0D01*
G01*
X153499002Y-150120000D01*
G75*
G02*
X153749000Y-150369998I0J-249998D01*
G01*
X153749000Y-150895002D01*
G75*
G02*
X153499002Y-151145000I-249998J0D01*
G01*
G37*
%TD*%
%TO.C,R3*%
G36*
G01*
X154598998Y-150120000D02*
X155499002Y-150120000D01*
G75*
G02*
X155749000Y-150369998I0J-249998D01*
G01*
X155749000Y-150895002D01*
G75*
G02*
X155499002Y-151145000I-249998J0D01*
G01*
X154598998Y-151145000D01*
G75*
G02*
X154349000Y-150895002I0J249998D01*
G01*
X154349000Y-150369998D01*
G75*
G02*
X154598998Y-150120000I249998J0D01*
G01*
G37*
G36*
G01*
X154598998Y-148295000D02*
X155499002Y-148295000D01*
G75*
G02*
X155749000Y-148544998I0J-249998D01*
G01*
X155749000Y-149070002D01*
G75*
G02*
X155499002Y-149320000I-249998J0D01*
G01*
X154598998Y-149320000D01*
G75*
G02*
X154349000Y-149070002I0J249998D01*
G01*
X154349000Y-148544998D01*
G75*
G02*
X154598998Y-148295000I249998J0D01*
G01*
G37*
%TD*%
%TO.C,R2*%
G36*
G01*
X150108998Y-150120000D02*
X151009002Y-150120000D01*
G75*
G02*
X151259000Y-150369998I0J-249998D01*
G01*
X151259000Y-150895002D01*
G75*
G02*
X151009002Y-151145000I-249998J0D01*
G01*
X150108998Y-151145000D01*
G75*
G02*
X149859000Y-150895002I0J249998D01*
G01*
X149859000Y-150369998D01*
G75*
G02*
X150108998Y-150120000I249998J0D01*
G01*
G37*
G36*
G01*
X150108998Y-148295000D02*
X151009002Y-148295000D01*
G75*
G02*
X151259000Y-148544998I0J-249998D01*
G01*
X151259000Y-149070002D01*
G75*
G02*
X151009002Y-149320000I-249998J0D01*
G01*
X150108998Y-149320000D01*
G75*
G02*
X149859000Y-149070002I0J249998D01*
G01*
X149859000Y-148544998D01*
G75*
G02*
X150108998Y-148295000I249998J0D01*
G01*
G37*
%TD*%
%TO.C,R1*%
G36*
G01*
X157969002Y-149320000D02*
X157068998Y-149320000D01*
G75*
G02*
X156819000Y-149070002I0J249998D01*
G01*
X156819000Y-148544998D01*
G75*
G02*
X157068998Y-148295000I249998J0D01*
G01*
X157969002Y-148295000D01*
G75*
G02*
X158219000Y-148544998I0J-249998D01*
G01*
X158219000Y-149070002D01*
G75*
G02*
X157969002Y-149320000I-249998J0D01*
G01*
G37*
G36*
G01*
X157969002Y-151145000D02*
X157068998Y-151145000D01*
G75*
G02*
X156819000Y-150895002I0J249998D01*
G01*
X156819000Y-150369998D01*
G75*
G02*
X157068998Y-150120000I249998J0D01*
G01*
X157969002Y-150120000D01*
G75*
G02*
X158219000Y-150369998I0J-249998D01*
G01*
X158219000Y-150895002D01*
G75*
G02*
X157969002Y-151145000I-249998J0D01*
G01*
G37*
%TD*%
%TO.C,C4*%
G36*
G01*
X156924000Y-96000000D02*
X157874000Y-96000000D01*
G75*
G02*
X158124000Y-96250000I0J-250000D01*
G01*
X158124000Y-96750000D01*
G75*
G02*
X157874000Y-97000000I-250000J0D01*
G01*
X156924000Y-97000000D01*
G75*
G02*
X156674000Y-96750000I0J250000D01*
G01*
X156674000Y-96250000D01*
G75*
G02*
X156924000Y-96000000I250000J0D01*
G01*
G37*
G36*
G01*
X156924000Y-94100000D02*
X157874000Y-94100000D01*
G75*
G02*
X158124000Y-94350000I0J-250000D01*
G01*
X158124000Y-94850000D01*
G75*
G02*
X157874000Y-95100000I-250000J0D01*
G01*
X156924000Y-95100000D01*
G75*
G02*
X156674000Y-94850000I0J250000D01*
G01*
X156674000Y-94350000D01*
G75*
G02*
X156924000Y-94100000I250000J0D01*
G01*
G37*
%TD*%
%TO.C,C2*%
G36*
G01*
X150174000Y-95950000D02*
X151124000Y-95950000D01*
G75*
G02*
X151374000Y-96200000I0J-250000D01*
G01*
X151374000Y-96700000D01*
G75*
G02*
X151124000Y-96950000I-250000J0D01*
G01*
X150174000Y-96950000D01*
G75*
G02*
X149924000Y-96700000I0J250000D01*
G01*
X149924000Y-96200000D01*
G75*
G02*
X150174000Y-95950000I250000J0D01*
G01*
G37*
G36*
G01*
X150174000Y-94050000D02*
X151124000Y-94050000D01*
G75*
G02*
X151374000Y-94300000I0J-250000D01*
G01*
X151374000Y-94800000D01*
G75*
G02*
X151124000Y-95050000I-250000J0D01*
G01*
X150174000Y-95050000D01*
G75*
G02*
X149924000Y-94800000I0J250000D01*
G01*
X149924000Y-94300000D01*
G75*
G02*
X150174000Y-94050000I250000J0D01*
G01*
G37*
%TD*%
D20*
%TO.C,J2*%
X165200000Y-49850000D03*
D21*
X176600000Y-46900000D03*
X178600000Y-54300000D03*
D22*
X169200000Y-54300000D03*
%TD*%
%TO.C,R6*%
G36*
G01*
X144899216Y-62881906D02*
X145799016Y-62881906D01*
G75*
G02*
X146049116Y-63132006I0J-250100D01*
G01*
X146049116Y-63656806D01*
G75*
G02*
X145799016Y-63906906I-250100J0D01*
G01*
X144899216Y-63906906D01*
G75*
G02*
X144649116Y-63656806I0J250100D01*
G01*
X144649116Y-63132006D01*
G75*
G02*
X144899216Y-62881906I250100J0D01*
G01*
G37*
G36*
G01*
X144899216Y-61056906D02*
X145799016Y-61056906D01*
G75*
G02*
X146049116Y-61307006I0J-250100D01*
G01*
X146049116Y-61831806D01*
G75*
G02*
X145799016Y-62081906I-250100J0D01*
G01*
X144899216Y-62081906D01*
G75*
G02*
X144649116Y-61831806I0J250100D01*
G01*
X144649116Y-61307006D01*
G75*
G02*
X144899216Y-61056906I250100J0D01*
G01*
G37*
%TD*%
M02*
