%TF.GenerationSoftware,KiCad,Pcbnew,(5.1.9-0-10_14)*%
%TF.CreationDate,2021-02-02T08:17:03-08:00*%
%TF.ProjectId,integrator,696e7465-6772-4617-946f-722e6b696361,rev?*%
%TF.SameCoordinates,Original*%
%TF.FileFunction,Soldermask,Bot*%
%TF.FilePolarity,Negative*%
%FSLAX46Y46*%
G04 Gerber Fmt 4.6, Leading zero omitted, Abs format (unit mm)*
G04 Created by KiCad (PCBNEW (5.1.9-0-10_14)) date 2021-02-02 08:17:03*
%MOMM*%
%LPD*%
G01*
G04 APERTURE LIST*
%ADD10C,1.700000*%
%ADD11C,1.600000*%
%ADD12R,1.600000X1.600000*%
%ADD13C,1.900000*%
%ADD14R,1.700000X1.700000*%
%ADD15O,1.700000X1.700000*%
G04 APERTURE END LIST*
D10*
%TO.C,J1*%
X159000000Y-30000000D03*
X152000000Y-30000000D03*
%TD*%
%TO.C,J2*%
X200000000Y-30000000D03*
X193000000Y-30000000D03*
%TD*%
D11*
%TO.C,U1*%
X161490000Y-84000000D03*
X161490000Y-86540000D03*
X161490000Y-89080000D03*
X161490000Y-91620000D03*
X161490000Y-81460000D03*
X161490000Y-78920000D03*
X161490000Y-76380000D03*
X164030000Y-91620000D03*
X166570000Y-91620000D03*
X169110000Y-91620000D03*
X171650000Y-91620000D03*
X174190000Y-91620000D03*
X176730000Y-91620000D03*
X179270000Y-91620000D03*
X181810000Y-91620000D03*
X184350000Y-91620000D03*
X186890000Y-91620000D03*
X189430000Y-91620000D03*
X191970000Y-91620000D03*
X194510000Y-91620000D03*
X191970000Y-89080000D03*
X186890000Y-89080000D03*
X184350000Y-89080000D03*
X181810000Y-89080000D03*
X164030000Y-76380000D03*
X166570000Y-76380000D03*
X169110000Y-76380000D03*
X171650000Y-76380000D03*
X174190000Y-76380000D03*
X176730000Y-76380000D03*
X179270000Y-76380000D03*
X181810000Y-76380000D03*
X184350000Y-76380000D03*
X186890000Y-76380000D03*
X189430000Y-76380000D03*
X191970000Y-76380000D03*
D12*
X194510000Y-76380000D03*
D13*
X184350000Y-84000000D03*
X188160000Y-84000000D03*
%TD*%
D14*
%TO.C,POGO1*%
X168960800Y-43586400D03*
D15*
X168960800Y-41046400D03*
X171500800Y-43586400D03*
X171500800Y-41046400D03*
X174040800Y-43586400D03*
X174040800Y-41046400D03*
X176580800Y-43586400D03*
X176580800Y-41046400D03*
X179120800Y-43586400D03*
X179120800Y-41046400D03*
X181660800Y-43586400D03*
X181660800Y-41046400D03*
%TD*%
M02*
