%TF.GenerationSoftware,KiCad,Pcbnew,(5.1.9-0-10_14)*%
%TF.CreationDate,2022-08-08T15:51:30-07:00*%
%TF.ProjectId,integrator,696e7465-6772-4617-946f-722e6b696361,rev?*%
%TF.SameCoordinates,Original*%
%TF.FileFunction,Soldermask,Bot*%
%TF.FilePolarity,Negative*%
%FSLAX46Y46*%
G04 Gerber Fmt 4.6, Leading zero omitted, Abs format (unit mm)*
G04 Created by KiCad (PCBNEW (5.1.9-0-10_14)) date 2022-08-08 15:51:30*
%MOMM*%
%LPD*%
G01*
G04 APERTURE LIST*
%ADD10C,0.152400*%
%ADD11C,0.100000*%
%ADD12R,0.750000X1.800000*%
%ADD13R,0.600000X1.800000*%
%ADD14R,1.300000X0.900000*%
%ADD15C,0.900000*%
%ADD16C,0.500000*%
%ADD17C,1.300000*%
%ADD18R,0.304800X0.533400*%
%ADD19R,0.533400X0.304800*%
%ADD20R,1.295400X0.889000*%
%ADD21R,0.254000X0.660400*%
%ADD22O,1.700000X1.700000*%
%ADD23R,1.700000X1.700000*%
%ADD24R,6.000000X6.000000*%
%ADD25O,1.000000X2.000000*%
%ADD26O,1.050000X2.100000*%
%ADD27C,0.650000*%
%ADD28R,0.600000X1.150000*%
%ADD29R,0.300000X1.150000*%
%ADD30C,2.000000*%
%ADD31C,1.700000*%
%ADD32R,1.400000X1.150000*%
%ADD33O,1.008000X2.016000*%
%ADD34R,1.100000X2.000000*%
%ADD35R,1.100000X0.800000*%
%ADD36R,2.600000X2.800000*%
%ADD37R,2.200000X2.800000*%
%ADD38R,2.800000X2.800000*%
G04 APERTURE END LIST*
D10*
X143393952Y-160659619D02*
X143393952Y-159982285D01*
X143393952Y-160175809D02*
X143345571Y-160079047D01*
X143297190Y-160030666D01*
X143200428Y-159982285D01*
X143103666Y-159982285D01*
X142377952Y-160611238D02*
X142474714Y-160659619D01*
X142668238Y-160659619D01*
X142765000Y-160611238D01*
X142813380Y-160514476D01*
X142813380Y-160127428D01*
X142765000Y-160030666D01*
X142668238Y-159982285D01*
X142474714Y-159982285D01*
X142377952Y-160030666D01*
X142329571Y-160127428D01*
X142329571Y-160224190D01*
X142813380Y-160320952D01*
X141942523Y-160611238D02*
X141845761Y-160659619D01*
X141652238Y-160659619D01*
X141555476Y-160611238D01*
X141507095Y-160514476D01*
X141507095Y-160466095D01*
X141555476Y-160369333D01*
X141652238Y-160320952D01*
X141797380Y-160320952D01*
X141894142Y-160272571D01*
X141942523Y-160175809D01*
X141942523Y-160127428D01*
X141894142Y-160030666D01*
X141797380Y-159982285D01*
X141652238Y-159982285D01*
X141555476Y-160030666D01*
X140684619Y-160611238D02*
X140781380Y-160659619D01*
X140974904Y-160659619D01*
X141071666Y-160611238D01*
X141120047Y-160514476D01*
X141120047Y-160127428D01*
X141071666Y-160030666D01*
X140974904Y-159982285D01*
X140781380Y-159982285D01*
X140684619Y-160030666D01*
X140636238Y-160127428D01*
X140636238Y-160224190D01*
X141120047Y-160320952D01*
X140345952Y-159982285D02*
X139958904Y-159982285D01*
X140200809Y-159643619D02*
X140200809Y-160514476D01*
X140152428Y-160611238D01*
X140055666Y-160659619D01*
X139958904Y-160659619D01*
D11*
G36*
X123299116Y-79831906D02*
G01*
X123899116Y-79431906D01*
X123599116Y-80131906D01*
X124299116Y-80031906D01*
X123899116Y-80631906D01*
X124499116Y-80731906D01*
X123999116Y-81331906D01*
X124599116Y-81431906D01*
X124199116Y-81831906D01*
X124599116Y-82131906D01*
X124099116Y-82431906D01*
X124399116Y-83031906D01*
X123799116Y-83031906D01*
X124099116Y-83631906D01*
X123499116Y-83331906D01*
X123599116Y-84131906D01*
X123099116Y-83531906D01*
X122799116Y-84131906D01*
X122799116Y-83331906D01*
X122099116Y-83831906D01*
X122499116Y-83131906D01*
X121799116Y-83231906D01*
X122299116Y-82731906D01*
X121699116Y-82531906D01*
X122099116Y-82331906D01*
X121599116Y-82031906D01*
X121999116Y-81631906D01*
X121599116Y-81231906D01*
X122199116Y-81131906D01*
X121699116Y-80531906D01*
X122299116Y-80631906D01*
X121899116Y-79831906D01*
X122499116Y-80531906D01*
X122399116Y-79531906D01*
X122799116Y-80131906D01*
X122999116Y-79331906D01*
X123299116Y-79831906D01*
G37*
X123299116Y-79831906D02*
X123899116Y-79431906D01*
X123599116Y-80131906D01*
X124299116Y-80031906D01*
X123899116Y-80631906D01*
X124499116Y-80731906D01*
X123999116Y-81331906D01*
X124599116Y-81431906D01*
X124199116Y-81831906D01*
X124599116Y-82131906D01*
X124099116Y-82431906D01*
X124399116Y-83031906D01*
X123799116Y-83031906D01*
X124099116Y-83631906D01*
X123499116Y-83331906D01*
X123599116Y-84131906D01*
X123099116Y-83531906D01*
X122799116Y-84131906D01*
X122799116Y-83331906D01*
X122099116Y-83831906D01*
X122499116Y-83131906D01*
X121799116Y-83231906D01*
X122299116Y-82731906D01*
X121699116Y-82531906D01*
X122099116Y-82331906D01*
X121599116Y-82031906D01*
X121999116Y-81631906D01*
X121599116Y-81231906D01*
X122199116Y-81131906D01*
X121699116Y-80531906D01*
X122299116Y-80631906D01*
X121899116Y-79831906D01*
X122499116Y-80531906D01*
X122399116Y-79531906D01*
X122799116Y-80131906D01*
X122999116Y-79331906D01*
X123299116Y-79831906D01*
G36*
X185299116Y-80431906D02*
G01*
X185699116Y-79831906D01*
X185599116Y-80831906D01*
X186199116Y-80131906D01*
X185799116Y-80931906D01*
X186399116Y-80831906D01*
X185899116Y-81431906D01*
X186499116Y-81531906D01*
X186099116Y-81931906D01*
X186499116Y-82331906D01*
X185999116Y-82631906D01*
X186399116Y-82831906D01*
X185799116Y-83031906D01*
X186299116Y-83531906D01*
X185599116Y-83431906D01*
X185999116Y-84131906D01*
X185299116Y-83631906D01*
X185299116Y-84431906D01*
X184999116Y-83831906D01*
X184499116Y-84431906D01*
X184599116Y-83631906D01*
X183999116Y-83931906D01*
X184299116Y-83331906D01*
X183699116Y-83331906D01*
X183999116Y-82731906D01*
X183499116Y-82431906D01*
X183899116Y-82131906D01*
X183499116Y-81731906D01*
X184099116Y-81631906D01*
X183599116Y-81031906D01*
X184199116Y-80931906D01*
X183799116Y-80331906D01*
X184499116Y-80431906D01*
X184199116Y-79731906D01*
X184799116Y-80131906D01*
X185099116Y-79631906D01*
X185299116Y-80431906D01*
G37*
X185299116Y-80431906D02*
X185699116Y-79831906D01*
X185599116Y-80831906D01*
X186199116Y-80131906D01*
X185799116Y-80931906D01*
X186399116Y-80831906D01*
X185899116Y-81431906D01*
X186499116Y-81531906D01*
X186099116Y-81931906D01*
X186499116Y-82331906D01*
X185999116Y-82631906D01*
X186399116Y-82831906D01*
X185799116Y-83031906D01*
X186299116Y-83531906D01*
X185599116Y-83431906D01*
X185999116Y-84131906D01*
X185299116Y-83631906D01*
X185299116Y-84431906D01*
X184999116Y-83831906D01*
X184499116Y-84431906D01*
X184599116Y-83631906D01*
X183999116Y-83931906D01*
X184299116Y-83331906D01*
X183699116Y-83331906D01*
X183999116Y-82731906D01*
X183499116Y-82431906D01*
X183899116Y-82131906D01*
X183499116Y-81731906D01*
X184099116Y-81631906D01*
X183599116Y-81031906D01*
X184199116Y-80931906D01*
X183799116Y-80331906D01*
X184499116Y-80431906D01*
X184199116Y-79731906D01*
X184799116Y-80131906D01*
X185099116Y-79631906D01*
X185299116Y-80431906D01*
D10*
X143393952Y-160659619D02*
X143393952Y-159982285D01*
X143393952Y-160175809D02*
X143345571Y-160079047D01*
X143297190Y-160030666D01*
X143200428Y-159982285D01*
X143103666Y-159982285D01*
X142377952Y-160611238D02*
X142474714Y-160659619D01*
X142668238Y-160659619D01*
X142765000Y-160611238D01*
X142813380Y-160514476D01*
X142813380Y-160127428D01*
X142765000Y-160030666D01*
X142668238Y-159982285D01*
X142474714Y-159982285D01*
X142377952Y-160030666D01*
X142329571Y-160127428D01*
X142329571Y-160224190D01*
X142813380Y-160320952D01*
X141942523Y-160611238D02*
X141845761Y-160659619D01*
X141652238Y-160659619D01*
X141555476Y-160611238D01*
X141507095Y-160514476D01*
X141507095Y-160466095D01*
X141555476Y-160369333D01*
X141652238Y-160320952D01*
X141797380Y-160320952D01*
X141894142Y-160272571D01*
X141942523Y-160175809D01*
X141942523Y-160127428D01*
X141894142Y-160030666D01*
X141797380Y-159982285D01*
X141652238Y-159982285D01*
X141555476Y-160030666D01*
X140684619Y-160611238D02*
X140781380Y-160659619D01*
X140974904Y-160659619D01*
X141071666Y-160611238D01*
X141120047Y-160514476D01*
X141120047Y-160127428D01*
X141071666Y-160030666D01*
X140974904Y-159982285D01*
X140781380Y-159982285D01*
X140684619Y-160030666D01*
X140636238Y-160127428D01*
X140636238Y-160224190D01*
X141120047Y-160320952D01*
X140345952Y-159982285D02*
X139958904Y-159982285D01*
X140200809Y-159643619D02*
X140200809Y-160514476D01*
X140152428Y-160611238D01*
X140055666Y-160659619D01*
X139958904Y-160659619D01*
D11*
G36*
X123299116Y-79831906D02*
G01*
X123899116Y-79431906D01*
X123599116Y-80131906D01*
X124299116Y-80031906D01*
X123899116Y-80631906D01*
X124499116Y-80731906D01*
X123999116Y-81331906D01*
X124599116Y-81431906D01*
X124199116Y-81831906D01*
X124599116Y-82131906D01*
X124099116Y-82431906D01*
X124399116Y-83031906D01*
X123799116Y-83031906D01*
X124099116Y-83631906D01*
X123499116Y-83331906D01*
X123599116Y-84131906D01*
X123099116Y-83531906D01*
X122799116Y-84131906D01*
X122799116Y-83331906D01*
X122099116Y-83831906D01*
X122499116Y-83131906D01*
X121799116Y-83231906D01*
X122299116Y-82731906D01*
X121699116Y-82531906D01*
X122099116Y-82331906D01*
X121599116Y-82031906D01*
X121999116Y-81631906D01*
X121599116Y-81231906D01*
X122199116Y-81131906D01*
X121699116Y-80531906D01*
X122299116Y-80631906D01*
X121899116Y-79831906D01*
X122499116Y-80531906D01*
X122399116Y-79531906D01*
X122799116Y-80131906D01*
X122999116Y-79331906D01*
X123299116Y-79831906D01*
G37*
X123299116Y-79831906D02*
X123899116Y-79431906D01*
X123599116Y-80131906D01*
X124299116Y-80031906D01*
X123899116Y-80631906D01*
X124499116Y-80731906D01*
X123999116Y-81331906D01*
X124599116Y-81431906D01*
X124199116Y-81831906D01*
X124599116Y-82131906D01*
X124099116Y-82431906D01*
X124399116Y-83031906D01*
X123799116Y-83031906D01*
X124099116Y-83631906D01*
X123499116Y-83331906D01*
X123599116Y-84131906D01*
X123099116Y-83531906D01*
X122799116Y-84131906D01*
X122799116Y-83331906D01*
X122099116Y-83831906D01*
X122499116Y-83131906D01*
X121799116Y-83231906D01*
X122299116Y-82731906D01*
X121699116Y-82531906D01*
X122099116Y-82331906D01*
X121599116Y-82031906D01*
X121999116Y-81631906D01*
X121599116Y-81231906D01*
X122199116Y-81131906D01*
X121699116Y-80531906D01*
X122299116Y-80631906D01*
X121899116Y-79831906D01*
X122499116Y-80531906D01*
X122399116Y-79531906D01*
X122799116Y-80131906D01*
X122999116Y-79331906D01*
X123299116Y-79831906D01*
G36*
X185299116Y-80431906D02*
G01*
X185699116Y-79831906D01*
X185599116Y-80831906D01*
X186199116Y-80131906D01*
X185799116Y-80931906D01*
X186399116Y-80831906D01*
X185899116Y-81431906D01*
X186499116Y-81531906D01*
X186099116Y-81931906D01*
X186499116Y-82331906D01*
X185999116Y-82631906D01*
X186399116Y-82831906D01*
X185799116Y-83031906D01*
X186299116Y-83531906D01*
X185599116Y-83431906D01*
X185999116Y-84131906D01*
X185299116Y-83631906D01*
X185299116Y-84431906D01*
X184999116Y-83831906D01*
X184499116Y-84431906D01*
X184599116Y-83631906D01*
X183999116Y-83931906D01*
X184299116Y-83331906D01*
X183699116Y-83331906D01*
X183999116Y-82731906D01*
X183499116Y-82431906D01*
X183899116Y-82131906D01*
X183499116Y-81731906D01*
X184099116Y-81631906D01*
X183599116Y-81031906D01*
X184199116Y-80931906D01*
X183799116Y-80331906D01*
X184499116Y-80431906D01*
X184199116Y-79731906D01*
X184799116Y-80131906D01*
X185099116Y-79631906D01*
X185299116Y-80431906D01*
G37*
X185299116Y-80431906D02*
X185699116Y-79831906D01*
X185599116Y-80831906D01*
X186199116Y-80131906D01*
X185799116Y-80931906D01*
X186399116Y-80831906D01*
X185899116Y-81431906D01*
X186499116Y-81531906D01*
X186099116Y-81931906D01*
X186499116Y-82331906D01*
X185999116Y-82631906D01*
X186399116Y-82831906D01*
X185799116Y-83031906D01*
X186299116Y-83531906D01*
X185599116Y-83431906D01*
X185999116Y-84131906D01*
X185299116Y-83631906D01*
X185299116Y-84431906D01*
X184999116Y-83831906D01*
X184499116Y-84431906D01*
X184599116Y-83631906D01*
X183999116Y-83931906D01*
X184299116Y-83331906D01*
X183699116Y-83331906D01*
X183999116Y-82731906D01*
X183499116Y-82431906D01*
X183899116Y-82131906D01*
X183499116Y-81731906D01*
X184099116Y-81631906D01*
X183599116Y-81031906D01*
X184199116Y-80931906D01*
X183799116Y-80331906D01*
X184499116Y-80431906D01*
X184199116Y-79731906D01*
X184799116Y-80131906D01*
X185099116Y-79631906D01*
X185299116Y-80431906D01*
%TO.C,D2*%
G36*
G01*
X140112750Y-118280000D02*
X140625250Y-118280000D01*
G75*
G02*
X140844000Y-118498750I0J-218750D01*
G01*
X140844000Y-118936250D01*
G75*
G02*
X140625250Y-119155000I-218750J0D01*
G01*
X140112750Y-119155000D01*
G75*
G02*
X139894000Y-118936250I0J218750D01*
G01*
X139894000Y-118498750D01*
G75*
G02*
X140112750Y-118280000I218750J0D01*
G01*
G37*
G36*
G01*
X140112750Y-116705000D02*
X140625250Y-116705000D01*
G75*
G02*
X140844000Y-116923750I0J-218750D01*
G01*
X140844000Y-117361250D01*
G75*
G02*
X140625250Y-117580000I-218750J0D01*
G01*
X140112750Y-117580000D01*
G75*
G02*
X139894000Y-117361250I0J218750D01*
G01*
X139894000Y-116923750D01*
G75*
G02*
X140112750Y-116705000I218750J0D01*
G01*
G37*
%TD*%
D12*
%TO.C,SW5*%
X167844000Y-156800000D03*
D13*
X166619000Y-156800000D03*
D12*
X165394000Y-156800000D03*
D14*
X168219000Y-158750000D03*
X165019000Y-158750000D03*
D15*
X168744000Y-157700000D03*
X164494000Y-157700000D03*
%TD*%
%TO.C,C17*%
G36*
G01*
X135924000Y-151320000D02*
X136874000Y-151320000D01*
G75*
G02*
X137124000Y-151570000I0J-250000D01*
G01*
X137124000Y-152070000D01*
G75*
G02*
X136874000Y-152320000I-250000J0D01*
G01*
X135924000Y-152320000D01*
G75*
G02*
X135674000Y-152070000I0J250000D01*
G01*
X135674000Y-151570000D01*
G75*
G02*
X135924000Y-151320000I250000J0D01*
G01*
G37*
G36*
G01*
X135924000Y-149420000D02*
X136874000Y-149420000D01*
G75*
G02*
X137124000Y-149670000I0J-250000D01*
G01*
X137124000Y-150170000D01*
G75*
G02*
X136874000Y-150420000I-250000J0D01*
G01*
X135924000Y-150420000D01*
G75*
G02*
X135674000Y-150170000I0J250000D01*
G01*
X135674000Y-149670000D01*
G75*
G02*
X135924000Y-149420000I250000J0D01*
G01*
G37*
%TD*%
D16*
%TO.C,REF\u002A\u002A*%
X168719000Y-68550000D03*
X173219000Y-68550000D03*
X169619000Y-68550000D03*
X170519000Y-68550000D03*
X171419000Y-68550000D03*
X172319000Y-68550000D03*
%TD*%
%TO.C,REF\u002A\u002A*%
X171079000Y-93480000D03*
X170179000Y-93480000D03*
X169279000Y-93480000D03*
X168379000Y-93480000D03*
X171979000Y-93480000D03*
X167479000Y-93480000D03*
%TD*%
D17*
%TO.C,REF\u002A\u002A*%
X129039000Y-148500000D03*
%TD*%
%TO.C,*%
X180049000Y-63500000D03*
%TD*%
%TO.C,REF\u002A\u002A*%
X129049000Y-63500000D03*
%TD*%
D12*
%TO.C,SW4*%
X142884000Y-156850000D03*
D13*
X141659000Y-156850000D03*
D12*
X140434000Y-156850000D03*
D14*
X143259000Y-158800000D03*
X140059000Y-158800000D03*
D15*
X143784000Y-157750000D03*
X139534000Y-157750000D03*
%TD*%
D18*
%TO.C,U3*%
X153498874Y-96217100D03*
X153999000Y-96217100D03*
X154499126Y-96217100D03*
D19*
X155180100Y-96040189D03*
X155180100Y-95540063D03*
X155180100Y-95039937D03*
X155180100Y-94539811D03*
D18*
X154499126Y-94362900D03*
X153999000Y-94362900D03*
X153498874Y-94362900D03*
D19*
X152817900Y-94539811D03*
X152817900Y-95039937D03*
X152817900Y-95540063D03*
X152817900Y-96040189D03*
%TD*%
D20*
%TO.C,U1*%
X142329000Y-130540000D03*
D21*
X143079001Y-129562100D03*
X142579000Y-129562100D03*
X142079000Y-129562100D03*
X141578999Y-129562100D03*
X141578999Y-131517900D03*
X142079000Y-131517900D03*
X142579000Y-131517900D03*
X143079001Y-131517900D03*
%TD*%
D22*
%TO.C,J7*%
X135209000Y-119340000D03*
X137749000Y-119340000D03*
X135209000Y-116800000D03*
D23*
X137749000Y-116800000D03*
%TD*%
%TO.C,R9*%
G36*
G01*
X144348998Y-132550000D02*
X145249002Y-132550000D01*
G75*
G02*
X145499000Y-132799998I0J-249998D01*
G01*
X145499000Y-133325002D01*
G75*
G02*
X145249002Y-133575000I-249998J0D01*
G01*
X144348998Y-133575000D01*
G75*
G02*
X144099000Y-133325002I0J249998D01*
G01*
X144099000Y-132799998D01*
G75*
G02*
X144348998Y-132550000I249998J0D01*
G01*
G37*
G36*
G01*
X144348998Y-130725000D02*
X145249002Y-130725000D01*
G75*
G02*
X145499000Y-130974998I0J-249998D01*
G01*
X145499000Y-131500002D01*
G75*
G02*
X145249002Y-131750000I-249998J0D01*
G01*
X144348998Y-131750000D01*
G75*
G02*
X144099000Y-131500002I0J249998D01*
G01*
X144099000Y-130974998D01*
G75*
G02*
X144348998Y-130725000I249998J0D01*
G01*
G37*
%TD*%
%TO.C,U4*%
G36*
G01*
X149861500Y-128085000D02*
X149861500Y-127960000D01*
G75*
G02*
X149924000Y-127897500I62500J0D01*
G01*
X150674000Y-127897500D01*
G75*
G02*
X150736500Y-127960000I0J-62500D01*
G01*
X150736500Y-128085000D01*
G75*
G02*
X150674000Y-128147500I-62500J0D01*
G01*
X149924000Y-128147500D01*
G75*
G02*
X149861500Y-128085000I0J62500D01*
G01*
G37*
G36*
G01*
X149861500Y-127585000D02*
X149861500Y-127460000D01*
G75*
G02*
X149924000Y-127397500I62500J0D01*
G01*
X150674000Y-127397500D01*
G75*
G02*
X150736500Y-127460000I0J-62500D01*
G01*
X150736500Y-127585000D01*
G75*
G02*
X150674000Y-127647500I-62500J0D01*
G01*
X149924000Y-127647500D01*
G75*
G02*
X149861500Y-127585000I0J62500D01*
G01*
G37*
G36*
G01*
X149861500Y-127085000D02*
X149861500Y-126960000D01*
G75*
G02*
X149924000Y-126897500I62500J0D01*
G01*
X150674000Y-126897500D01*
G75*
G02*
X150736500Y-126960000I0J-62500D01*
G01*
X150736500Y-127085000D01*
G75*
G02*
X150674000Y-127147500I-62500J0D01*
G01*
X149924000Y-127147500D01*
G75*
G02*
X149861500Y-127085000I0J62500D01*
G01*
G37*
G36*
G01*
X149861500Y-126585000D02*
X149861500Y-126460000D01*
G75*
G02*
X149924000Y-126397500I62500J0D01*
G01*
X150674000Y-126397500D01*
G75*
G02*
X150736500Y-126460000I0J-62500D01*
G01*
X150736500Y-126585000D01*
G75*
G02*
X150674000Y-126647500I-62500J0D01*
G01*
X149924000Y-126647500D01*
G75*
G02*
X149861500Y-126585000I0J62500D01*
G01*
G37*
G36*
G01*
X149861500Y-126085000D02*
X149861500Y-125960000D01*
G75*
G02*
X149924000Y-125897500I62500J0D01*
G01*
X150674000Y-125897500D01*
G75*
G02*
X150736500Y-125960000I0J-62500D01*
G01*
X150736500Y-126085000D01*
G75*
G02*
X150674000Y-126147500I-62500J0D01*
G01*
X149924000Y-126147500D01*
G75*
G02*
X149861500Y-126085000I0J62500D01*
G01*
G37*
G36*
G01*
X149861500Y-125585000D02*
X149861500Y-125460000D01*
G75*
G02*
X149924000Y-125397500I62500J0D01*
G01*
X150674000Y-125397500D01*
G75*
G02*
X150736500Y-125460000I0J-62500D01*
G01*
X150736500Y-125585000D01*
G75*
G02*
X150674000Y-125647500I-62500J0D01*
G01*
X149924000Y-125647500D01*
G75*
G02*
X149861500Y-125585000I0J62500D01*
G01*
G37*
G36*
G01*
X149861500Y-125085000D02*
X149861500Y-124960000D01*
G75*
G02*
X149924000Y-124897500I62500J0D01*
G01*
X150674000Y-124897500D01*
G75*
G02*
X150736500Y-124960000I0J-62500D01*
G01*
X150736500Y-125085000D01*
G75*
G02*
X150674000Y-125147500I-62500J0D01*
G01*
X149924000Y-125147500D01*
G75*
G02*
X149861500Y-125085000I0J62500D01*
G01*
G37*
G36*
G01*
X149861500Y-124585000D02*
X149861500Y-124460000D01*
G75*
G02*
X149924000Y-124397500I62500J0D01*
G01*
X150674000Y-124397500D01*
G75*
G02*
X150736500Y-124460000I0J-62500D01*
G01*
X150736500Y-124585000D01*
G75*
G02*
X150674000Y-124647500I-62500J0D01*
G01*
X149924000Y-124647500D01*
G75*
G02*
X149861500Y-124585000I0J62500D01*
G01*
G37*
G36*
G01*
X149861500Y-124085000D02*
X149861500Y-123960000D01*
G75*
G02*
X149924000Y-123897500I62500J0D01*
G01*
X150674000Y-123897500D01*
G75*
G02*
X150736500Y-123960000I0J-62500D01*
G01*
X150736500Y-124085000D01*
G75*
G02*
X150674000Y-124147500I-62500J0D01*
G01*
X149924000Y-124147500D01*
G75*
G02*
X149861500Y-124085000I0J62500D01*
G01*
G37*
G36*
G01*
X149861500Y-123585000D02*
X149861500Y-123460000D01*
G75*
G02*
X149924000Y-123397500I62500J0D01*
G01*
X150674000Y-123397500D01*
G75*
G02*
X150736500Y-123460000I0J-62500D01*
G01*
X150736500Y-123585000D01*
G75*
G02*
X150674000Y-123647500I-62500J0D01*
G01*
X149924000Y-123647500D01*
G75*
G02*
X149861500Y-123585000I0J62500D01*
G01*
G37*
G36*
G01*
X149861500Y-123085000D02*
X149861500Y-122960000D01*
G75*
G02*
X149924000Y-122897500I62500J0D01*
G01*
X150674000Y-122897500D01*
G75*
G02*
X150736500Y-122960000I0J-62500D01*
G01*
X150736500Y-123085000D01*
G75*
G02*
X150674000Y-123147500I-62500J0D01*
G01*
X149924000Y-123147500D01*
G75*
G02*
X149861500Y-123085000I0J62500D01*
G01*
G37*
G36*
G01*
X149861500Y-122585000D02*
X149861500Y-122460000D01*
G75*
G02*
X149924000Y-122397500I62500J0D01*
G01*
X150674000Y-122397500D01*
G75*
G02*
X150736500Y-122460000I0J-62500D01*
G01*
X150736500Y-122585000D01*
G75*
G02*
X150674000Y-122647500I-62500J0D01*
G01*
X149924000Y-122647500D01*
G75*
G02*
X149861500Y-122585000I0J62500D01*
G01*
G37*
G36*
G01*
X149861500Y-122085000D02*
X149861500Y-121960000D01*
G75*
G02*
X149924000Y-121897500I62500J0D01*
G01*
X150674000Y-121897500D01*
G75*
G02*
X150736500Y-121960000I0J-62500D01*
G01*
X150736500Y-122085000D01*
G75*
G02*
X150674000Y-122147500I-62500J0D01*
G01*
X149924000Y-122147500D01*
G75*
G02*
X149861500Y-122085000I0J62500D01*
G01*
G37*
G36*
G01*
X149861500Y-121585000D02*
X149861500Y-121460000D01*
G75*
G02*
X149924000Y-121397500I62500J0D01*
G01*
X150674000Y-121397500D01*
G75*
G02*
X150736500Y-121460000I0J-62500D01*
G01*
X150736500Y-121585000D01*
G75*
G02*
X150674000Y-121647500I-62500J0D01*
G01*
X149924000Y-121647500D01*
G75*
G02*
X149861500Y-121585000I0J62500D01*
G01*
G37*
G36*
G01*
X149861500Y-121085000D02*
X149861500Y-120960000D01*
G75*
G02*
X149924000Y-120897500I62500J0D01*
G01*
X150674000Y-120897500D01*
G75*
G02*
X150736500Y-120960000I0J-62500D01*
G01*
X150736500Y-121085000D01*
G75*
G02*
X150674000Y-121147500I-62500J0D01*
G01*
X149924000Y-121147500D01*
G75*
G02*
X149861500Y-121085000I0J62500D01*
G01*
G37*
G36*
G01*
X149861500Y-120585000D02*
X149861500Y-120460000D01*
G75*
G02*
X149924000Y-120397500I62500J0D01*
G01*
X150674000Y-120397500D01*
G75*
G02*
X150736500Y-120460000I0J-62500D01*
G01*
X150736500Y-120585000D01*
G75*
G02*
X150674000Y-120647500I-62500J0D01*
G01*
X149924000Y-120647500D01*
G75*
G02*
X149861500Y-120585000I0J62500D01*
G01*
G37*
G36*
G01*
X150861500Y-120210000D02*
X150861500Y-119460000D01*
G75*
G02*
X150924000Y-119397500I62500J0D01*
G01*
X151049000Y-119397500D01*
G75*
G02*
X151111500Y-119460000I0J-62500D01*
G01*
X151111500Y-120210000D01*
G75*
G02*
X151049000Y-120272500I-62500J0D01*
G01*
X150924000Y-120272500D01*
G75*
G02*
X150861500Y-120210000I0J62500D01*
G01*
G37*
G36*
G01*
X151361500Y-120210000D02*
X151361500Y-119460000D01*
G75*
G02*
X151424000Y-119397500I62500J0D01*
G01*
X151549000Y-119397500D01*
G75*
G02*
X151611500Y-119460000I0J-62500D01*
G01*
X151611500Y-120210000D01*
G75*
G02*
X151549000Y-120272500I-62500J0D01*
G01*
X151424000Y-120272500D01*
G75*
G02*
X151361500Y-120210000I0J62500D01*
G01*
G37*
G36*
G01*
X151861500Y-120210000D02*
X151861500Y-119460000D01*
G75*
G02*
X151924000Y-119397500I62500J0D01*
G01*
X152049000Y-119397500D01*
G75*
G02*
X152111500Y-119460000I0J-62500D01*
G01*
X152111500Y-120210000D01*
G75*
G02*
X152049000Y-120272500I-62500J0D01*
G01*
X151924000Y-120272500D01*
G75*
G02*
X151861500Y-120210000I0J62500D01*
G01*
G37*
G36*
G01*
X152361500Y-120210000D02*
X152361500Y-119460000D01*
G75*
G02*
X152424000Y-119397500I62500J0D01*
G01*
X152549000Y-119397500D01*
G75*
G02*
X152611500Y-119460000I0J-62500D01*
G01*
X152611500Y-120210000D01*
G75*
G02*
X152549000Y-120272500I-62500J0D01*
G01*
X152424000Y-120272500D01*
G75*
G02*
X152361500Y-120210000I0J62500D01*
G01*
G37*
G36*
G01*
X152861500Y-120210000D02*
X152861500Y-119460000D01*
G75*
G02*
X152924000Y-119397500I62500J0D01*
G01*
X153049000Y-119397500D01*
G75*
G02*
X153111500Y-119460000I0J-62500D01*
G01*
X153111500Y-120210000D01*
G75*
G02*
X153049000Y-120272500I-62500J0D01*
G01*
X152924000Y-120272500D01*
G75*
G02*
X152861500Y-120210000I0J62500D01*
G01*
G37*
G36*
G01*
X153361500Y-120210000D02*
X153361500Y-119460000D01*
G75*
G02*
X153424000Y-119397500I62500J0D01*
G01*
X153549000Y-119397500D01*
G75*
G02*
X153611500Y-119460000I0J-62500D01*
G01*
X153611500Y-120210000D01*
G75*
G02*
X153549000Y-120272500I-62500J0D01*
G01*
X153424000Y-120272500D01*
G75*
G02*
X153361500Y-120210000I0J62500D01*
G01*
G37*
G36*
G01*
X153861500Y-120210000D02*
X153861500Y-119460000D01*
G75*
G02*
X153924000Y-119397500I62500J0D01*
G01*
X154049000Y-119397500D01*
G75*
G02*
X154111500Y-119460000I0J-62500D01*
G01*
X154111500Y-120210000D01*
G75*
G02*
X154049000Y-120272500I-62500J0D01*
G01*
X153924000Y-120272500D01*
G75*
G02*
X153861500Y-120210000I0J62500D01*
G01*
G37*
G36*
G01*
X154361500Y-120210000D02*
X154361500Y-119460000D01*
G75*
G02*
X154424000Y-119397500I62500J0D01*
G01*
X154549000Y-119397500D01*
G75*
G02*
X154611500Y-119460000I0J-62500D01*
G01*
X154611500Y-120210000D01*
G75*
G02*
X154549000Y-120272500I-62500J0D01*
G01*
X154424000Y-120272500D01*
G75*
G02*
X154361500Y-120210000I0J62500D01*
G01*
G37*
G36*
G01*
X154861500Y-120210000D02*
X154861500Y-119460000D01*
G75*
G02*
X154924000Y-119397500I62500J0D01*
G01*
X155049000Y-119397500D01*
G75*
G02*
X155111500Y-119460000I0J-62500D01*
G01*
X155111500Y-120210000D01*
G75*
G02*
X155049000Y-120272500I-62500J0D01*
G01*
X154924000Y-120272500D01*
G75*
G02*
X154861500Y-120210000I0J62500D01*
G01*
G37*
G36*
G01*
X155361500Y-120210000D02*
X155361500Y-119460000D01*
G75*
G02*
X155424000Y-119397500I62500J0D01*
G01*
X155549000Y-119397500D01*
G75*
G02*
X155611500Y-119460000I0J-62500D01*
G01*
X155611500Y-120210000D01*
G75*
G02*
X155549000Y-120272500I-62500J0D01*
G01*
X155424000Y-120272500D01*
G75*
G02*
X155361500Y-120210000I0J62500D01*
G01*
G37*
G36*
G01*
X155861500Y-120210000D02*
X155861500Y-119460000D01*
G75*
G02*
X155924000Y-119397500I62500J0D01*
G01*
X156049000Y-119397500D01*
G75*
G02*
X156111500Y-119460000I0J-62500D01*
G01*
X156111500Y-120210000D01*
G75*
G02*
X156049000Y-120272500I-62500J0D01*
G01*
X155924000Y-120272500D01*
G75*
G02*
X155861500Y-120210000I0J62500D01*
G01*
G37*
G36*
G01*
X156361500Y-120210000D02*
X156361500Y-119460000D01*
G75*
G02*
X156424000Y-119397500I62500J0D01*
G01*
X156549000Y-119397500D01*
G75*
G02*
X156611500Y-119460000I0J-62500D01*
G01*
X156611500Y-120210000D01*
G75*
G02*
X156549000Y-120272500I-62500J0D01*
G01*
X156424000Y-120272500D01*
G75*
G02*
X156361500Y-120210000I0J62500D01*
G01*
G37*
G36*
G01*
X156861500Y-120210000D02*
X156861500Y-119460000D01*
G75*
G02*
X156924000Y-119397500I62500J0D01*
G01*
X157049000Y-119397500D01*
G75*
G02*
X157111500Y-119460000I0J-62500D01*
G01*
X157111500Y-120210000D01*
G75*
G02*
X157049000Y-120272500I-62500J0D01*
G01*
X156924000Y-120272500D01*
G75*
G02*
X156861500Y-120210000I0J62500D01*
G01*
G37*
G36*
G01*
X157361500Y-120210000D02*
X157361500Y-119460000D01*
G75*
G02*
X157424000Y-119397500I62500J0D01*
G01*
X157549000Y-119397500D01*
G75*
G02*
X157611500Y-119460000I0J-62500D01*
G01*
X157611500Y-120210000D01*
G75*
G02*
X157549000Y-120272500I-62500J0D01*
G01*
X157424000Y-120272500D01*
G75*
G02*
X157361500Y-120210000I0J62500D01*
G01*
G37*
G36*
G01*
X157861500Y-120210000D02*
X157861500Y-119460000D01*
G75*
G02*
X157924000Y-119397500I62500J0D01*
G01*
X158049000Y-119397500D01*
G75*
G02*
X158111500Y-119460000I0J-62500D01*
G01*
X158111500Y-120210000D01*
G75*
G02*
X158049000Y-120272500I-62500J0D01*
G01*
X157924000Y-120272500D01*
G75*
G02*
X157861500Y-120210000I0J62500D01*
G01*
G37*
G36*
G01*
X158361500Y-120210000D02*
X158361500Y-119460000D01*
G75*
G02*
X158424000Y-119397500I62500J0D01*
G01*
X158549000Y-119397500D01*
G75*
G02*
X158611500Y-119460000I0J-62500D01*
G01*
X158611500Y-120210000D01*
G75*
G02*
X158549000Y-120272500I-62500J0D01*
G01*
X158424000Y-120272500D01*
G75*
G02*
X158361500Y-120210000I0J62500D01*
G01*
G37*
G36*
G01*
X158736500Y-120585000D02*
X158736500Y-120460000D01*
G75*
G02*
X158799000Y-120397500I62500J0D01*
G01*
X159549000Y-120397500D01*
G75*
G02*
X159611500Y-120460000I0J-62500D01*
G01*
X159611500Y-120585000D01*
G75*
G02*
X159549000Y-120647500I-62500J0D01*
G01*
X158799000Y-120647500D01*
G75*
G02*
X158736500Y-120585000I0J62500D01*
G01*
G37*
G36*
G01*
X158736500Y-121085000D02*
X158736500Y-120960000D01*
G75*
G02*
X158799000Y-120897500I62500J0D01*
G01*
X159549000Y-120897500D01*
G75*
G02*
X159611500Y-120960000I0J-62500D01*
G01*
X159611500Y-121085000D01*
G75*
G02*
X159549000Y-121147500I-62500J0D01*
G01*
X158799000Y-121147500D01*
G75*
G02*
X158736500Y-121085000I0J62500D01*
G01*
G37*
G36*
G01*
X158736500Y-121585000D02*
X158736500Y-121460000D01*
G75*
G02*
X158799000Y-121397500I62500J0D01*
G01*
X159549000Y-121397500D01*
G75*
G02*
X159611500Y-121460000I0J-62500D01*
G01*
X159611500Y-121585000D01*
G75*
G02*
X159549000Y-121647500I-62500J0D01*
G01*
X158799000Y-121647500D01*
G75*
G02*
X158736500Y-121585000I0J62500D01*
G01*
G37*
G36*
G01*
X158736500Y-122085000D02*
X158736500Y-121960000D01*
G75*
G02*
X158799000Y-121897500I62500J0D01*
G01*
X159549000Y-121897500D01*
G75*
G02*
X159611500Y-121960000I0J-62500D01*
G01*
X159611500Y-122085000D01*
G75*
G02*
X159549000Y-122147500I-62500J0D01*
G01*
X158799000Y-122147500D01*
G75*
G02*
X158736500Y-122085000I0J62500D01*
G01*
G37*
G36*
G01*
X158736500Y-122585000D02*
X158736500Y-122460000D01*
G75*
G02*
X158799000Y-122397500I62500J0D01*
G01*
X159549000Y-122397500D01*
G75*
G02*
X159611500Y-122460000I0J-62500D01*
G01*
X159611500Y-122585000D01*
G75*
G02*
X159549000Y-122647500I-62500J0D01*
G01*
X158799000Y-122647500D01*
G75*
G02*
X158736500Y-122585000I0J62500D01*
G01*
G37*
G36*
G01*
X158736500Y-123085000D02*
X158736500Y-122960000D01*
G75*
G02*
X158799000Y-122897500I62500J0D01*
G01*
X159549000Y-122897500D01*
G75*
G02*
X159611500Y-122960000I0J-62500D01*
G01*
X159611500Y-123085000D01*
G75*
G02*
X159549000Y-123147500I-62500J0D01*
G01*
X158799000Y-123147500D01*
G75*
G02*
X158736500Y-123085000I0J62500D01*
G01*
G37*
G36*
G01*
X158736500Y-123585000D02*
X158736500Y-123460000D01*
G75*
G02*
X158799000Y-123397500I62500J0D01*
G01*
X159549000Y-123397500D01*
G75*
G02*
X159611500Y-123460000I0J-62500D01*
G01*
X159611500Y-123585000D01*
G75*
G02*
X159549000Y-123647500I-62500J0D01*
G01*
X158799000Y-123647500D01*
G75*
G02*
X158736500Y-123585000I0J62500D01*
G01*
G37*
G36*
G01*
X158736500Y-124085000D02*
X158736500Y-123960000D01*
G75*
G02*
X158799000Y-123897500I62500J0D01*
G01*
X159549000Y-123897500D01*
G75*
G02*
X159611500Y-123960000I0J-62500D01*
G01*
X159611500Y-124085000D01*
G75*
G02*
X159549000Y-124147500I-62500J0D01*
G01*
X158799000Y-124147500D01*
G75*
G02*
X158736500Y-124085000I0J62500D01*
G01*
G37*
G36*
G01*
X158736500Y-124585000D02*
X158736500Y-124460000D01*
G75*
G02*
X158799000Y-124397500I62500J0D01*
G01*
X159549000Y-124397500D01*
G75*
G02*
X159611500Y-124460000I0J-62500D01*
G01*
X159611500Y-124585000D01*
G75*
G02*
X159549000Y-124647500I-62500J0D01*
G01*
X158799000Y-124647500D01*
G75*
G02*
X158736500Y-124585000I0J62500D01*
G01*
G37*
G36*
G01*
X158736500Y-125085000D02*
X158736500Y-124960000D01*
G75*
G02*
X158799000Y-124897500I62500J0D01*
G01*
X159549000Y-124897500D01*
G75*
G02*
X159611500Y-124960000I0J-62500D01*
G01*
X159611500Y-125085000D01*
G75*
G02*
X159549000Y-125147500I-62500J0D01*
G01*
X158799000Y-125147500D01*
G75*
G02*
X158736500Y-125085000I0J62500D01*
G01*
G37*
G36*
G01*
X158736500Y-125585000D02*
X158736500Y-125460000D01*
G75*
G02*
X158799000Y-125397500I62500J0D01*
G01*
X159549000Y-125397500D01*
G75*
G02*
X159611500Y-125460000I0J-62500D01*
G01*
X159611500Y-125585000D01*
G75*
G02*
X159549000Y-125647500I-62500J0D01*
G01*
X158799000Y-125647500D01*
G75*
G02*
X158736500Y-125585000I0J62500D01*
G01*
G37*
G36*
G01*
X158736500Y-126085000D02*
X158736500Y-125960000D01*
G75*
G02*
X158799000Y-125897500I62500J0D01*
G01*
X159549000Y-125897500D01*
G75*
G02*
X159611500Y-125960000I0J-62500D01*
G01*
X159611500Y-126085000D01*
G75*
G02*
X159549000Y-126147500I-62500J0D01*
G01*
X158799000Y-126147500D01*
G75*
G02*
X158736500Y-126085000I0J62500D01*
G01*
G37*
G36*
G01*
X158736500Y-126585000D02*
X158736500Y-126460000D01*
G75*
G02*
X158799000Y-126397500I62500J0D01*
G01*
X159549000Y-126397500D01*
G75*
G02*
X159611500Y-126460000I0J-62500D01*
G01*
X159611500Y-126585000D01*
G75*
G02*
X159549000Y-126647500I-62500J0D01*
G01*
X158799000Y-126647500D01*
G75*
G02*
X158736500Y-126585000I0J62500D01*
G01*
G37*
G36*
G01*
X158736500Y-127085000D02*
X158736500Y-126960000D01*
G75*
G02*
X158799000Y-126897500I62500J0D01*
G01*
X159549000Y-126897500D01*
G75*
G02*
X159611500Y-126960000I0J-62500D01*
G01*
X159611500Y-127085000D01*
G75*
G02*
X159549000Y-127147500I-62500J0D01*
G01*
X158799000Y-127147500D01*
G75*
G02*
X158736500Y-127085000I0J62500D01*
G01*
G37*
G36*
G01*
X158736500Y-127585000D02*
X158736500Y-127460000D01*
G75*
G02*
X158799000Y-127397500I62500J0D01*
G01*
X159549000Y-127397500D01*
G75*
G02*
X159611500Y-127460000I0J-62500D01*
G01*
X159611500Y-127585000D01*
G75*
G02*
X159549000Y-127647500I-62500J0D01*
G01*
X158799000Y-127647500D01*
G75*
G02*
X158736500Y-127585000I0J62500D01*
G01*
G37*
G36*
G01*
X158736500Y-128085000D02*
X158736500Y-127960000D01*
G75*
G02*
X158799000Y-127897500I62500J0D01*
G01*
X159549000Y-127897500D01*
G75*
G02*
X159611500Y-127960000I0J-62500D01*
G01*
X159611500Y-128085000D01*
G75*
G02*
X159549000Y-128147500I-62500J0D01*
G01*
X158799000Y-128147500D01*
G75*
G02*
X158736500Y-128085000I0J62500D01*
G01*
G37*
G36*
G01*
X158361500Y-129085000D02*
X158361500Y-128335000D01*
G75*
G02*
X158424000Y-128272500I62500J0D01*
G01*
X158549000Y-128272500D01*
G75*
G02*
X158611500Y-128335000I0J-62500D01*
G01*
X158611500Y-129085000D01*
G75*
G02*
X158549000Y-129147500I-62500J0D01*
G01*
X158424000Y-129147500D01*
G75*
G02*
X158361500Y-129085000I0J62500D01*
G01*
G37*
G36*
G01*
X157861500Y-129085000D02*
X157861500Y-128335000D01*
G75*
G02*
X157924000Y-128272500I62500J0D01*
G01*
X158049000Y-128272500D01*
G75*
G02*
X158111500Y-128335000I0J-62500D01*
G01*
X158111500Y-129085000D01*
G75*
G02*
X158049000Y-129147500I-62500J0D01*
G01*
X157924000Y-129147500D01*
G75*
G02*
X157861500Y-129085000I0J62500D01*
G01*
G37*
G36*
G01*
X157361500Y-129085000D02*
X157361500Y-128335000D01*
G75*
G02*
X157424000Y-128272500I62500J0D01*
G01*
X157549000Y-128272500D01*
G75*
G02*
X157611500Y-128335000I0J-62500D01*
G01*
X157611500Y-129085000D01*
G75*
G02*
X157549000Y-129147500I-62500J0D01*
G01*
X157424000Y-129147500D01*
G75*
G02*
X157361500Y-129085000I0J62500D01*
G01*
G37*
G36*
G01*
X156861500Y-129085000D02*
X156861500Y-128335000D01*
G75*
G02*
X156924000Y-128272500I62500J0D01*
G01*
X157049000Y-128272500D01*
G75*
G02*
X157111500Y-128335000I0J-62500D01*
G01*
X157111500Y-129085000D01*
G75*
G02*
X157049000Y-129147500I-62500J0D01*
G01*
X156924000Y-129147500D01*
G75*
G02*
X156861500Y-129085000I0J62500D01*
G01*
G37*
G36*
G01*
X156361500Y-129085000D02*
X156361500Y-128335000D01*
G75*
G02*
X156424000Y-128272500I62500J0D01*
G01*
X156549000Y-128272500D01*
G75*
G02*
X156611500Y-128335000I0J-62500D01*
G01*
X156611500Y-129085000D01*
G75*
G02*
X156549000Y-129147500I-62500J0D01*
G01*
X156424000Y-129147500D01*
G75*
G02*
X156361500Y-129085000I0J62500D01*
G01*
G37*
G36*
G01*
X155861500Y-129085000D02*
X155861500Y-128335000D01*
G75*
G02*
X155924000Y-128272500I62500J0D01*
G01*
X156049000Y-128272500D01*
G75*
G02*
X156111500Y-128335000I0J-62500D01*
G01*
X156111500Y-129085000D01*
G75*
G02*
X156049000Y-129147500I-62500J0D01*
G01*
X155924000Y-129147500D01*
G75*
G02*
X155861500Y-129085000I0J62500D01*
G01*
G37*
G36*
G01*
X155361500Y-129085000D02*
X155361500Y-128335000D01*
G75*
G02*
X155424000Y-128272500I62500J0D01*
G01*
X155549000Y-128272500D01*
G75*
G02*
X155611500Y-128335000I0J-62500D01*
G01*
X155611500Y-129085000D01*
G75*
G02*
X155549000Y-129147500I-62500J0D01*
G01*
X155424000Y-129147500D01*
G75*
G02*
X155361500Y-129085000I0J62500D01*
G01*
G37*
G36*
G01*
X154861500Y-129085000D02*
X154861500Y-128335000D01*
G75*
G02*
X154924000Y-128272500I62500J0D01*
G01*
X155049000Y-128272500D01*
G75*
G02*
X155111500Y-128335000I0J-62500D01*
G01*
X155111500Y-129085000D01*
G75*
G02*
X155049000Y-129147500I-62500J0D01*
G01*
X154924000Y-129147500D01*
G75*
G02*
X154861500Y-129085000I0J62500D01*
G01*
G37*
G36*
G01*
X154361500Y-129085000D02*
X154361500Y-128335000D01*
G75*
G02*
X154424000Y-128272500I62500J0D01*
G01*
X154549000Y-128272500D01*
G75*
G02*
X154611500Y-128335000I0J-62500D01*
G01*
X154611500Y-129085000D01*
G75*
G02*
X154549000Y-129147500I-62500J0D01*
G01*
X154424000Y-129147500D01*
G75*
G02*
X154361500Y-129085000I0J62500D01*
G01*
G37*
G36*
G01*
X153861500Y-129085000D02*
X153861500Y-128335000D01*
G75*
G02*
X153924000Y-128272500I62500J0D01*
G01*
X154049000Y-128272500D01*
G75*
G02*
X154111500Y-128335000I0J-62500D01*
G01*
X154111500Y-129085000D01*
G75*
G02*
X154049000Y-129147500I-62500J0D01*
G01*
X153924000Y-129147500D01*
G75*
G02*
X153861500Y-129085000I0J62500D01*
G01*
G37*
G36*
G01*
X153361500Y-129085000D02*
X153361500Y-128335000D01*
G75*
G02*
X153424000Y-128272500I62500J0D01*
G01*
X153549000Y-128272500D01*
G75*
G02*
X153611500Y-128335000I0J-62500D01*
G01*
X153611500Y-129085000D01*
G75*
G02*
X153549000Y-129147500I-62500J0D01*
G01*
X153424000Y-129147500D01*
G75*
G02*
X153361500Y-129085000I0J62500D01*
G01*
G37*
G36*
G01*
X152861500Y-129085000D02*
X152861500Y-128335000D01*
G75*
G02*
X152924000Y-128272500I62500J0D01*
G01*
X153049000Y-128272500D01*
G75*
G02*
X153111500Y-128335000I0J-62500D01*
G01*
X153111500Y-129085000D01*
G75*
G02*
X153049000Y-129147500I-62500J0D01*
G01*
X152924000Y-129147500D01*
G75*
G02*
X152861500Y-129085000I0J62500D01*
G01*
G37*
G36*
G01*
X152361500Y-129085000D02*
X152361500Y-128335000D01*
G75*
G02*
X152424000Y-128272500I62500J0D01*
G01*
X152549000Y-128272500D01*
G75*
G02*
X152611500Y-128335000I0J-62500D01*
G01*
X152611500Y-129085000D01*
G75*
G02*
X152549000Y-129147500I-62500J0D01*
G01*
X152424000Y-129147500D01*
G75*
G02*
X152361500Y-129085000I0J62500D01*
G01*
G37*
G36*
G01*
X151861500Y-129085000D02*
X151861500Y-128335000D01*
G75*
G02*
X151924000Y-128272500I62500J0D01*
G01*
X152049000Y-128272500D01*
G75*
G02*
X152111500Y-128335000I0J-62500D01*
G01*
X152111500Y-129085000D01*
G75*
G02*
X152049000Y-129147500I-62500J0D01*
G01*
X151924000Y-129147500D01*
G75*
G02*
X151861500Y-129085000I0J62500D01*
G01*
G37*
G36*
G01*
X151361500Y-129085000D02*
X151361500Y-128335000D01*
G75*
G02*
X151424000Y-128272500I62500J0D01*
G01*
X151549000Y-128272500D01*
G75*
G02*
X151611500Y-128335000I0J-62500D01*
G01*
X151611500Y-129085000D01*
G75*
G02*
X151549000Y-129147500I-62500J0D01*
G01*
X151424000Y-129147500D01*
G75*
G02*
X151361500Y-129085000I0J62500D01*
G01*
G37*
G36*
G01*
X150861500Y-129085000D02*
X150861500Y-128335000D01*
G75*
G02*
X150924000Y-128272500I62500J0D01*
G01*
X151049000Y-128272500D01*
G75*
G02*
X151111500Y-128335000I0J-62500D01*
G01*
X151111500Y-129085000D01*
G75*
G02*
X151049000Y-129147500I-62500J0D01*
G01*
X150924000Y-129147500D01*
G75*
G02*
X150861500Y-129085000I0J62500D01*
G01*
G37*
D24*
X154736500Y-124272500D03*
%TD*%
D25*
%TO.C,J5*%
X159359000Y-158440000D03*
X150719000Y-158440000D03*
D26*
X159359000Y-154260000D03*
X150719000Y-154260000D03*
D27*
X152149000Y-154760000D03*
X157929000Y-154760000D03*
D28*
X158239000Y-153685000D03*
X151839000Y-153685000D03*
X157439000Y-153685000D03*
X152639000Y-153685000D03*
D29*
X154789000Y-153685000D03*
X155289000Y-153685000D03*
X154289000Y-153685000D03*
X153789000Y-153685000D03*
X153289000Y-153685000D03*
X155789000Y-153685000D03*
X156289000Y-153685000D03*
X156789000Y-153685000D03*
%TD*%
%TO.C,LED4*%
G36*
G01*
X146275250Y-157310000D02*
X145762750Y-157310000D01*
G75*
G02*
X145544000Y-157091250I0J218750D01*
G01*
X145544000Y-156653750D01*
G75*
G02*
X145762750Y-156435000I218750J0D01*
G01*
X146275250Y-156435000D01*
G75*
G02*
X146494000Y-156653750I0J-218750D01*
G01*
X146494000Y-157091250D01*
G75*
G02*
X146275250Y-157310000I-218750J0D01*
G01*
G37*
G36*
G01*
X146275250Y-158885000D02*
X145762750Y-158885000D01*
G75*
G02*
X145544000Y-158666250I0J218750D01*
G01*
X145544000Y-158228750D01*
G75*
G02*
X145762750Y-158010000I218750J0D01*
G01*
X146275250Y-158010000D01*
G75*
G02*
X146494000Y-158228750I0J-218750D01*
G01*
X146494000Y-158666250D01*
G75*
G02*
X146275250Y-158885000I-218750J0D01*
G01*
G37*
%TD*%
%TO.C,LED3*%
G36*
G01*
X153699000Y-50243750D02*
X153699000Y-50756250D01*
G75*
G02*
X153480250Y-50975000I-218750J0D01*
G01*
X153042750Y-50975000D01*
G75*
G02*
X152824000Y-50756250I0J218750D01*
G01*
X152824000Y-50243750D01*
G75*
G02*
X153042750Y-50025000I218750J0D01*
G01*
X153480250Y-50025000D01*
G75*
G02*
X153699000Y-50243750I0J-218750D01*
G01*
G37*
G36*
G01*
X155274000Y-50243750D02*
X155274000Y-50756250D01*
G75*
G02*
X155055250Y-50975000I-218750J0D01*
G01*
X154617750Y-50975000D01*
G75*
G02*
X154399000Y-50756250I0J218750D01*
G01*
X154399000Y-50243750D01*
G75*
G02*
X154617750Y-50025000I218750J0D01*
G01*
X155055250Y-50025000D01*
G75*
G02*
X155274000Y-50243750I0J-218750D01*
G01*
G37*
%TD*%
%TO.C,LED2*%
G36*
G01*
X181882750Y-46400000D02*
X182395250Y-46400000D01*
G75*
G02*
X182614000Y-46618750I0J-218750D01*
G01*
X182614000Y-47056250D01*
G75*
G02*
X182395250Y-47275000I-218750J0D01*
G01*
X181882750Y-47275000D01*
G75*
G02*
X181664000Y-47056250I0J218750D01*
G01*
X181664000Y-46618750D01*
G75*
G02*
X181882750Y-46400000I218750J0D01*
G01*
G37*
G36*
G01*
X181882750Y-44825000D02*
X182395250Y-44825000D01*
G75*
G02*
X182614000Y-45043750I0J-218750D01*
G01*
X182614000Y-45481250D01*
G75*
G02*
X182395250Y-45700000I-218750J0D01*
G01*
X181882750Y-45700000D01*
G75*
G02*
X181664000Y-45481250I0J218750D01*
G01*
X181664000Y-45043750D01*
G75*
G02*
X181882750Y-44825000I218750J0D01*
G01*
G37*
%TD*%
%TO.C,LED1*%
G36*
G01*
X125732750Y-46380000D02*
X126245250Y-46380000D01*
G75*
G02*
X126464000Y-46598750I0J-218750D01*
G01*
X126464000Y-47036250D01*
G75*
G02*
X126245250Y-47255000I-218750J0D01*
G01*
X125732750Y-47255000D01*
G75*
G02*
X125514000Y-47036250I0J218750D01*
G01*
X125514000Y-46598750D01*
G75*
G02*
X125732750Y-46380000I218750J0D01*
G01*
G37*
G36*
G01*
X125732750Y-44805000D02*
X126245250Y-44805000D01*
G75*
G02*
X126464000Y-45023750I0J-218750D01*
G01*
X126464000Y-45461250D01*
G75*
G02*
X126245250Y-45680000I-218750J0D01*
G01*
X125732750Y-45680000D01*
G75*
G02*
X125514000Y-45461250I0J218750D01*
G01*
X125514000Y-45023750D01*
G75*
G02*
X125732750Y-44805000I218750J0D01*
G01*
G37*
%TD*%
%TO.C,C16*%
G36*
G01*
X178109000Y-155580000D02*
X178109000Y-154480000D01*
G75*
G02*
X178359000Y-154230000I250000J0D01*
G01*
X181359000Y-154230000D01*
G75*
G02*
X181609000Y-154480000I0J-250000D01*
G01*
X181609000Y-155580000D01*
G75*
G02*
X181359000Y-155830000I-250000J0D01*
G01*
X178359000Y-155830000D01*
G75*
G02*
X178109000Y-155580000I0J250000D01*
G01*
G37*
G36*
G01*
X172509000Y-155580000D02*
X172509000Y-154480000D01*
G75*
G02*
X172759000Y-154230000I250000J0D01*
G01*
X175759000Y-154230000D01*
G75*
G02*
X176009000Y-154480000I0J-250000D01*
G01*
X176009000Y-155580000D01*
G75*
G02*
X175759000Y-155830000I-250000J0D01*
G01*
X172759000Y-155830000D01*
G75*
G02*
X172509000Y-155580000I0J250000D01*
G01*
G37*
%TD*%
%TO.C,C15*%
G36*
G01*
X129979000Y-154450000D02*
X129979000Y-155550000D01*
G75*
G02*
X129729000Y-155800000I-250000J0D01*
G01*
X126729000Y-155800000D01*
G75*
G02*
X126479000Y-155550000I0J250000D01*
G01*
X126479000Y-154450000D01*
G75*
G02*
X126729000Y-154200000I250000J0D01*
G01*
X129729000Y-154200000D01*
G75*
G02*
X129979000Y-154450000I0J-250000D01*
G01*
G37*
G36*
G01*
X135579000Y-154450000D02*
X135579000Y-155550000D01*
G75*
G02*
X135329000Y-155800000I-250000J0D01*
G01*
X132329000Y-155800000D01*
G75*
G02*
X132079000Y-155550000I0J250000D01*
G01*
X132079000Y-154450000D01*
G75*
G02*
X132329000Y-154200000I250000J0D01*
G01*
X135329000Y-154200000D01*
G75*
G02*
X135579000Y-154450000I0J-250000D01*
G01*
G37*
%TD*%
%TO.C,U2*%
G36*
G01*
X141519000Y-154315000D02*
X139719000Y-154315000D01*
G75*
G02*
X139369000Y-153965000I0J350000D01*
G01*
X139369000Y-153965000D01*
G75*
G02*
X139719000Y-153615000I350000J0D01*
G01*
X141519000Y-153615000D01*
G75*
G02*
X141869000Y-153965000I0J-350000D01*
G01*
X141869000Y-153965000D01*
G75*
G02*
X141519000Y-154315000I-350000J0D01*
G01*
G37*
G36*
G01*
X141519000Y-153045000D02*
X139719000Y-153045000D01*
G75*
G02*
X139369000Y-152695000I0J350000D01*
G01*
X139369000Y-152695000D01*
G75*
G02*
X139719000Y-152345000I350000J0D01*
G01*
X141519000Y-152345000D01*
G75*
G02*
X141869000Y-152695000I0J-350000D01*
G01*
X141869000Y-152695000D01*
G75*
G02*
X141519000Y-153045000I-350000J0D01*
G01*
G37*
G36*
G01*
X141519000Y-151775000D02*
X139719000Y-151775000D01*
G75*
G02*
X139369000Y-151425000I0J350000D01*
G01*
X139369000Y-151425000D01*
G75*
G02*
X139719000Y-151075000I350000J0D01*
G01*
X141519000Y-151075000D01*
G75*
G02*
X141869000Y-151425000I0J-350000D01*
G01*
X141869000Y-151425000D01*
G75*
G02*
X141519000Y-151775000I-350000J0D01*
G01*
G37*
G36*
G01*
X141519000Y-150505000D02*
X139719000Y-150505000D01*
G75*
G02*
X139369000Y-150155000I0J350000D01*
G01*
X139369000Y-150155000D01*
G75*
G02*
X139719000Y-149805000I350000J0D01*
G01*
X141519000Y-149805000D01*
G75*
G02*
X141869000Y-150155000I0J-350000D01*
G01*
X141869000Y-150155000D01*
G75*
G02*
X141519000Y-150505000I-350000J0D01*
G01*
G37*
G36*
G01*
X146419000Y-154315000D02*
X144619000Y-154315000D01*
G75*
G02*
X144269000Y-153965000I0J350000D01*
G01*
X144269000Y-153965000D01*
G75*
G02*
X144619000Y-153615000I350000J0D01*
G01*
X146419000Y-153615000D01*
G75*
G02*
X146769000Y-153965000I0J-350000D01*
G01*
X146769000Y-153965000D01*
G75*
G02*
X146419000Y-154315000I-350000J0D01*
G01*
G37*
G36*
G01*
X146419000Y-153045000D02*
X144619000Y-153045000D01*
G75*
G02*
X144269000Y-152695000I0J350000D01*
G01*
X144269000Y-152695000D01*
G75*
G02*
X144619000Y-152345000I350000J0D01*
G01*
X146419000Y-152345000D01*
G75*
G02*
X146769000Y-152695000I0J-350000D01*
G01*
X146769000Y-152695000D01*
G75*
G02*
X146419000Y-153045000I-350000J0D01*
G01*
G37*
G36*
G01*
X146419000Y-151775000D02*
X144619000Y-151775000D01*
G75*
G02*
X144269000Y-151425000I0J350000D01*
G01*
X144269000Y-151425000D01*
G75*
G02*
X144619000Y-151075000I350000J0D01*
G01*
X146419000Y-151075000D01*
G75*
G02*
X146769000Y-151425000I0J-350000D01*
G01*
X146769000Y-151425000D01*
G75*
G02*
X146419000Y-151775000I-350000J0D01*
G01*
G37*
G36*
G01*
X146419000Y-150505000D02*
X144619000Y-150505000D01*
G75*
G02*
X144269000Y-150155000I0J350000D01*
G01*
X144269000Y-150155000D01*
G75*
G02*
X144619000Y-149805000I350000J0D01*
G01*
X146419000Y-149805000D01*
G75*
G02*
X146769000Y-150155000I0J-350000D01*
G01*
X146769000Y-150155000D01*
G75*
G02*
X146419000Y-150505000I-350000J0D01*
G01*
G37*
%TD*%
D30*
%TO.C,SW3*%
X150539000Y-48250000D03*
X157559000Y-48250000D03*
D31*
X151809000Y-45760000D03*
X156289000Y-45760000D03*
%TD*%
D32*
%TO.C,Y1*%
X154649000Y-131850000D03*
X152449000Y-131850000D03*
X152449000Y-133450000D03*
X154649000Y-133450000D03*
%TD*%
%TO.C,R10*%
G36*
G01*
X171119000Y-57580002D02*
X171119000Y-56679998D01*
G75*
G02*
X171368998Y-56430000I249998J0D01*
G01*
X171894002Y-56430000D01*
G75*
G02*
X172144000Y-56679998I0J-249998D01*
G01*
X172144000Y-57580002D01*
G75*
G02*
X171894002Y-57830000I-249998J0D01*
G01*
X171368998Y-57830000D01*
G75*
G02*
X171119000Y-57580002I0J249998D01*
G01*
G37*
G36*
G01*
X169294000Y-57580002D02*
X169294000Y-56679998D01*
G75*
G02*
X169543998Y-56430000I249998J0D01*
G01*
X170069002Y-56430000D01*
G75*
G02*
X170319000Y-56679998I0J-249998D01*
G01*
X170319000Y-57580002D01*
G75*
G02*
X170069002Y-57830000I-249998J0D01*
G01*
X169543998Y-57830000D01*
G75*
G02*
X169294000Y-57580002I0J249998D01*
G01*
G37*
%TD*%
%TO.C,R8*%
G36*
G01*
X137389000Y-56649998D02*
X137389000Y-57550002D01*
G75*
G02*
X137139002Y-57800000I-249998J0D01*
G01*
X136613998Y-57800000D01*
G75*
G02*
X136364000Y-57550002I0J249998D01*
G01*
X136364000Y-56649998D01*
G75*
G02*
X136613998Y-56400000I249998J0D01*
G01*
X137139002Y-56400000D01*
G75*
G02*
X137389000Y-56649998I0J-249998D01*
G01*
G37*
G36*
G01*
X139214000Y-56649998D02*
X139214000Y-57550002D01*
G75*
G02*
X138964002Y-57800000I-249998J0D01*
G01*
X138438998Y-57800000D01*
G75*
G02*
X138189000Y-57550002I0J249998D01*
G01*
X138189000Y-56649998D01*
G75*
G02*
X138438998Y-56400000I249998J0D01*
G01*
X138964002Y-56400000D01*
G75*
G02*
X139214000Y-56649998I0J-249998D01*
G01*
G37*
%TD*%
%TO.C,R7*%
G36*
G01*
X153428998Y-150120000D02*
X154329002Y-150120000D01*
G75*
G02*
X154579000Y-150369998I0J-249998D01*
G01*
X154579000Y-150895002D01*
G75*
G02*
X154329002Y-151145000I-249998J0D01*
G01*
X153428998Y-151145000D01*
G75*
G02*
X153179000Y-150895002I0J249998D01*
G01*
X153179000Y-150369998D01*
G75*
G02*
X153428998Y-150120000I249998J0D01*
G01*
G37*
G36*
G01*
X153428998Y-148295000D02*
X154329002Y-148295000D01*
G75*
G02*
X154579000Y-148544998I0J-249998D01*
G01*
X154579000Y-149070002D01*
G75*
G02*
X154329002Y-149320000I-249998J0D01*
G01*
X153428998Y-149320000D01*
G75*
G02*
X153179000Y-149070002I0J249998D01*
G01*
X153179000Y-148544998D01*
G75*
G02*
X153428998Y-148295000I249998J0D01*
G01*
G37*
%TD*%
%TO.C,R3*%
G36*
G01*
X156649002Y-149320000D02*
X155748998Y-149320000D01*
G75*
G02*
X155499000Y-149070002I0J249998D01*
G01*
X155499000Y-148544998D01*
G75*
G02*
X155748998Y-148295000I249998J0D01*
G01*
X156649002Y-148295000D01*
G75*
G02*
X156899000Y-148544998I0J-249998D01*
G01*
X156899000Y-149070002D01*
G75*
G02*
X156649002Y-149320000I-249998J0D01*
G01*
G37*
G36*
G01*
X156649002Y-151145000D02*
X155748998Y-151145000D01*
G75*
G02*
X155499000Y-150895002I0J249998D01*
G01*
X155499000Y-150369998D01*
G75*
G02*
X155748998Y-150120000I249998J0D01*
G01*
X156649002Y-150120000D01*
G75*
G02*
X156899000Y-150369998I0J-249998D01*
G01*
X156899000Y-150895002D01*
G75*
G02*
X156649002Y-151145000I-249998J0D01*
G01*
G37*
%TD*%
%TO.C,R2*%
G36*
G01*
X151108998Y-150120000D02*
X152009002Y-150120000D01*
G75*
G02*
X152259000Y-150369998I0J-249998D01*
G01*
X152259000Y-150895002D01*
G75*
G02*
X152009002Y-151145000I-249998J0D01*
G01*
X151108998Y-151145000D01*
G75*
G02*
X150859000Y-150895002I0J249998D01*
G01*
X150859000Y-150369998D01*
G75*
G02*
X151108998Y-150120000I249998J0D01*
G01*
G37*
G36*
G01*
X151108998Y-148295000D02*
X152009002Y-148295000D01*
G75*
G02*
X152259000Y-148544998I0J-249998D01*
G01*
X152259000Y-149070002D01*
G75*
G02*
X152009002Y-149320000I-249998J0D01*
G01*
X151108998Y-149320000D01*
G75*
G02*
X150859000Y-149070002I0J249998D01*
G01*
X150859000Y-148544998D01*
G75*
G02*
X151108998Y-148295000I249998J0D01*
G01*
G37*
%TD*%
%TO.C,R1*%
G36*
G01*
X158969002Y-149320000D02*
X158068998Y-149320000D01*
G75*
G02*
X157819000Y-149070002I0J249998D01*
G01*
X157819000Y-148544998D01*
G75*
G02*
X158068998Y-148295000I249998J0D01*
G01*
X158969002Y-148295000D01*
G75*
G02*
X159219000Y-148544998I0J-249998D01*
G01*
X159219000Y-149070002D01*
G75*
G02*
X158969002Y-149320000I-249998J0D01*
G01*
G37*
G36*
G01*
X158969002Y-151145000D02*
X158068998Y-151145000D01*
G75*
G02*
X157819000Y-150895002I0J249998D01*
G01*
X157819000Y-150369998D01*
G75*
G02*
X158068998Y-150120000I249998J0D01*
G01*
X158969002Y-150120000D01*
G75*
G02*
X159219000Y-150369998I0J-249998D01*
G01*
X159219000Y-150895002D01*
G75*
G02*
X158969002Y-151145000I-249998J0D01*
G01*
G37*
%TD*%
%TO.C,L1*%
G36*
G01*
X146224000Y-128918750D02*
X146224000Y-129681250D01*
G75*
G02*
X146005250Y-129900000I-218750J0D01*
G01*
X145567750Y-129900000D01*
G75*
G02*
X145349000Y-129681250I0J218750D01*
G01*
X145349000Y-128918750D01*
G75*
G02*
X145567750Y-128700000I218750J0D01*
G01*
X146005250Y-128700000D01*
G75*
G02*
X146224000Y-128918750I0J-218750D01*
G01*
G37*
G36*
G01*
X148349000Y-128918750D02*
X148349000Y-129681250D01*
G75*
G02*
X148130250Y-129900000I-218750J0D01*
G01*
X147692750Y-129900000D01*
G75*
G02*
X147474000Y-129681250I0J218750D01*
G01*
X147474000Y-128918750D01*
G75*
G02*
X147692750Y-128700000I218750J0D01*
G01*
X148130250Y-128700000D01*
G75*
G02*
X148349000Y-128918750I0J-218750D01*
G01*
G37*
%TD*%
D22*
%TO.C,J6*%
X173579000Y-124370000D03*
X171039000Y-124370000D03*
X173579000Y-126910000D03*
X171039000Y-126910000D03*
X173579000Y-129450000D03*
X171039000Y-129450000D03*
X173579000Y-131990000D03*
X171039000Y-131990000D03*
X173579000Y-134530000D03*
D23*
X171039000Y-134530000D03*
%TD*%
D33*
%TO.C,J4*%
X171299000Y-75500000D03*
X168799000Y-75500000D03*
X166299000Y-75500000D03*
%TD*%
%TO.C,J3*%
X171299000Y-86500000D03*
X168799000Y-86500000D03*
X166299000Y-86500000D03*
%TD*%
D34*
%TO.C,D1*%
X132419000Y-117360000D03*
D35*
X132419000Y-119260000D03*
%TD*%
%TO.C,C14*%
G36*
G01*
X150224000Y-115800000D02*
X149274000Y-115800000D01*
G75*
G02*
X149024000Y-115550000I0J250000D01*
G01*
X149024000Y-115050000D01*
G75*
G02*
X149274000Y-114800000I250000J0D01*
G01*
X150224000Y-114800000D01*
G75*
G02*
X150474000Y-115050000I0J-250000D01*
G01*
X150474000Y-115550000D01*
G75*
G02*
X150224000Y-115800000I-250000J0D01*
G01*
G37*
G36*
G01*
X150224000Y-117700000D02*
X149274000Y-117700000D01*
G75*
G02*
X149024000Y-117450000I0J250000D01*
G01*
X149024000Y-116950000D01*
G75*
G02*
X149274000Y-116700000I250000J0D01*
G01*
X150224000Y-116700000D01*
G75*
G02*
X150474000Y-116950000I0J-250000D01*
G01*
X150474000Y-117450000D01*
G75*
G02*
X150224000Y-117700000I-250000J0D01*
G01*
G37*
%TD*%
%TO.C,C13*%
G36*
G01*
X152324000Y-115800000D02*
X151374000Y-115800000D01*
G75*
G02*
X151124000Y-115550000I0J250000D01*
G01*
X151124000Y-115050000D01*
G75*
G02*
X151374000Y-114800000I250000J0D01*
G01*
X152324000Y-114800000D01*
G75*
G02*
X152574000Y-115050000I0J-250000D01*
G01*
X152574000Y-115550000D01*
G75*
G02*
X152324000Y-115800000I-250000J0D01*
G01*
G37*
G36*
G01*
X152324000Y-117700000D02*
X151374000Y-117700000D01*
G75*
G02*
X151124000Y-117450000I0J250000D01*
G01*
X151124000Y-116950000D01*
G75*
G02*
X151374000Y-116700000I250000J0D01*
G01*
X152324000Y-116700000D01*
G75*
G02*
X152574000Y-116950000I0J-250000D01*
G01*
X152574000Y-117450000D01*
G75*
G02*
X152324000Y-117700000I-250000J0D01*
G01*
G37*
%TD*%
%TO.C,C12*%
G36*
G01*
X154449000Y-135975000D02*
X154449000Y-135025000D01*
G75*
G02*
X154699000Y-134775000I250000J0D01*
G01*
X155199000Y-134775000D01*
G75*
G02*
X155449000Y-135025000I0J-250000D01*
G01*
X155449000Y-135975000D01*
G75*
G02*
X155199000Y-136225000I-250000J0D01*
G01*
X154699000Y-136225000D01*
G75*
G02*
X154449000Y-135975000I0J250000D01*
G01*
G37*
G36*
G01*
X152549000Y-135975000D02*
X152549000Y-135025000D01*
G75*
G02*
X152799000Y-134775000I250000J0D01*
G01*
X153299000Y-134775000D01*
G75*
G02*
X153549000Y-135025000I0J-250000D01*
G01*
X153549000Y-135975000D01*
G75*
G02*
X153299000Y-136225000I-250000J0D01*
G01*
X152799000Y-136225000D01*
G75*
G02*
X152549000Y-135975000I0J250000D01*
G01*
G37*
%TD*%
%TO.C,C11*%
G36*
G01*
X149774000Y-135250000D02*
X150724000Y-135250000D01*
G75*
G02*
X150974000Y-135500000I0J-250000D01*
G01*
X150974000Y-136000000D01*
G75*
G02*
X150724000Y-136250000I-250000J0D01*
G01*
X149774000Y-136250000D01*
G75*
G02*
X149524000Y-136000000I0J250000D01*
G01*
X149524000Y-135500000D01*
G75*
G02*
X149774000Y-135250000I250000J0D01*
G01*
G37*
G36*
G01*
X149774000Y-133350000D02*
X150724000Y-133350000D01*
G75*
G02*
X150974000Y-133600000I0J-250000D01*
G01*
X150974000Y-134100000D01*
G75*
G02*
X150724000Y-134350000I-250000J0D01*
G01*
X149774000Y-134350000D01*
G75*
G02*
X149524000Y-134100000I0J250000D01*
G01*
X149524000Y-133600000D01*
G75*
G02*
X149774000Y-133350000I250000J0D01*
G01*
G37*
%TD*%
%TO.C,C10*%
G36*
G01*
X147549000Y-131125000D02*
X147549000Y-132075000D01*
G75*
G02*
X147299000Y-132325000I-250000J0D01*
G01*
X146799000Y-132325000D01*
G75*
G02*
X146549000Y-132075000I0J250000D01*
G01*
X146549000Y-131125000D01*
G75*
G02*
X146799000Y-130875000I250000J0D01*
G01*
X147299000Y-130875000D01*
G75*
G02*
X147549000Y-131125000I0J-250000D01*
G01*
G37*
G36*
G01*
X149449000Y-131125000D02*
X149449000Y-132075000D01*
G75*
G02*
X149199000Y-132325000I-250000J0D01*
G01*
X148699000Y-132325000D01*
G75*
G02*
X148449000Y-132075000I0J250000D01*
G01*
X148449000Y-131125000D01*
G75*
G02*
X148699000Y-130875000I250000J0D01*
G01*
X149199000Y-130875000D01*
G75*
G02*
X149449000Y-131125000I0J-250000D01*
G01*
G37*
%TD*%
%TO.C,C9*%
G36*
G01*
X147074000Y-135250000D02*
X148024000Y-135250000D01*
G75*
G02*
X148274000Y-135500000I0J-250000D01*
G01*
X148274000Y-136000000D01*
G75*
G02*
X148024000Y-136250000I-250000J0D01*
G01*
X147074000Y-136250000D01*
G75*
G02*
X146824000Y-136000000I0J250000D01*
G01*
X146824000Y-135500000D01*
G75*
G02*
X147074000Y-135250000I250000J0D01*
G01*
G37*
G36*
G01*
X147074000Y-133350000D02*
X148024000Y-133350000D01*
G75*
G02*
X148274000Y-133600000I0J-250000D01*
G01*
X148274000Y-134100000D01*
G75*
G02*
X148024000Y-134350000I-250000J0D01*
G01*
X147074000Y-134350000D01*
G75*
G02*
X146824000Y-134100000I0J250000D01*
G01*
X146824000Y-133600000D01*
G75*
G02*
X147074000Y-133350000I250000J0D01*
G01*
G37*
%TD*%
%TO.C,C8*%
G36*
G01*
X147249000Y-120025000D02*
X147249000Y-119075000D01*
G75*
G02*
X147499000Y-118825000I250000J0D01*
G01*
X147999000Y-118825000D01*
G75*
G02*
X148249000Y-119075000I0J-250000D01*
G01*
X148249000Y-120025000D01*
G75*
G02*
X147999000Y-120275000I-250000J0D01*
G01*
X147499000Y-120275000D01*
G75*
G02*
X147249000Y-120025000I0J250000D01*
G01*
G37*
G36*
G01*
X145349000Y-120025000D02*
X145349000Y-119075000D01*
G75*
G02*
X145599000Y-118825000I250000J0D01*
G01*
X146099000Y-118825000D01*
G75*
G02*
X146349000Y-119075000I0J-250000D01*
G01*
X146349000Y-120025000D01*
G75*
G02*
X146099000Y-120275000I-250000J0D01*
G01*
X145599000Y-120275000D01*
G75*
G02*
X145349000Y-120025000I0J250000D01*
G01*
G37*
%TD*%
%TO.C,C7*%
G36*
G01*
X146349000Y-125225000D02*
X146349000Y-126175000D01*
G75*
G02*
X146099000Y-126425000I-250000J0D01*
G01*
X145599000Y-126425000D01*
G75*
G02*
X145349000Y-126175000I0J250000D01*
G01*
X145349000Y-125225000D01*
G75*
G02*
X145599000Y-124975000I250000J0D01*
G01*
X146099000Y-124975000D01*
G75*
G02*
X146349000Y-125225000I0J-250000D01*
G01*
G37*
G36*
G01*
X148249000Y-125225000D02*
X148249000Y-126175000D01*
G75*
G02*
X147999000Y-126425000I-250000J0D01*
G01*
X147499000Y-126425000D01*
G75*
G02*
X147249000Y-126175000I0J250000D01*
G01*
X147249000Y-125225000D01*
G75*
G02*
X147499000Y-124975000I250000J0D01*
G01*
X147999000Y-124975000D01*
G75*
G02*
X148249000Y-125225000I0J-250000D01*
G01*
G37*
%TD*%
%TO.C,C6*%
G36*
G01*
X146349000Y-123175000D02*
X146349000Y-124125000D01*
G75*
G02*
X146099000Y-124375000I-250000J0D01*
G01*
X145599000Y-124375000D01*
G75*
G02*
X145349000Y-124125000I0J250000D01*
G01*
X145349000Y-123175000D01*
G75*
G02*
X145599000Y-122925000I250000J0D01*
G01*
X146099000Y-122925000D01*
G75*
G02*
X146349000Y-123175000I0J-250000D01*
G01*
G37*
G36*
G01*
X148249000Y-123175000D02*
X148249000Y-124125000D01*
G75*
G02*
X147999000Y-124375000I-250000J0D01*
G01*
X147499000Y-124375000D01*
G75*
G02*
X147249000Y-124125000I0J250000D01*
G01*
X147249000Y-123175000D01*
G75*
G02*
X147499000Y-122925000I250000J0D01*
G01*
X147999000Y-122925000D01*
G75*
G02*
X148249000Y-123175000I0J-250000D01*
G01*
G37*
%TD*%
%TO.C,C5*%
G36*
G01*
X146349000Y-121125000D02*
X146349000Y-122075000D01*
G75*
G02*
X146099000Y-122325000I-250000J0D01*
G01*
X145599000Y-122325000D01*
G75*
G02*
X145349000Y-122075000I0J250000D01*
G01*
X145349000Y-121125000D01*
G75*
G02*
X145599000Y-120875000I250000J0D01*
G01*
X146099000Y-120875000D01*
G75*
G02*
X146349000Y-121125000I0J-250000D01*
G01*
G37*
G36*
G01*
X148249000Y-121125000D02*
X148249000Y-122075000D01*
G75*
G02*
X147999000Y-122325000I-250000J0D01*
G01*
X147499000Y-122325000D01*
G75*
G02*
X147249000Y-122075000I0J250000D01*
G01*
X147249000Y-121125000D01*
G75*
G02*
X147499000Y-120875000I250000J0D01*
G01*
X147999000Y-120875000D01*
G75*
G02*
X148249000Y-121125000I0J-250000D01*
G01*
G37*
%TD*%
%TO.C,C4*%
G36*
G01*
X156924000Y-96000000D02*
X157874000Y-96000000D01*
G75*
G02*
X158124000Y-96250000I0J-250000D01*
G01*
X158124000Y-96750000D01*
G75*
G02*
X157874000Y-97000000I-250000J0D01*
G01*
X156924000Y-97000000D01*
G75*
G02*
X156674000Y-96750000I0J250000D01*
G01*
X156674000Y-96250000D01*
G75*
G02*
X156924000Y-96000000I250000J0D01*
G01*
G37*
G36*
G01*
X156924000Y-94100000D02*
X157874000Y-94100000D01*
G75*
G02*
X158124000Y-94350000I0J-250000D01*
G01*
X158124000Y-94850000D01*
G75*
G02*
X157874000Y-95100000I-250000J0D01*
G01*
X156924000Y-95100000D01*
G75*
G02*
X156674000Y-94850000I0J250000D01*
G01*
X156674000Y-94350000D01*
G75*
G02*
X156924000Y-94100000I250000J0D01*
G01*
G37*
%TD*%
%TO.C,C3*%
G36*
G01*
X141544000Y-125240000D02*
X140594000Y-125240000D01*
G75*
G02*
X140344000Y-124990000I0J250000D01*
G01*
X140344000Y-124490000D01*
G75*
G02*
X140594000Y-124240000I250000J0D01*
G01*
X141544000Y-124240000D01*
G75*
G02*
X141794000Y-124490000I0J-250000D01*
G01*
X141794000Y-124990000D01*
G75*
G02*
X141544000Y-125240000I-250000J0D01*
G01*
G37*
G36*
G01*
X141544000Y-127140000D02*
X140594000Y-127140000D01*
G75*
G02*
X140344000Y-126890000I0J250000D01*
G01*
X140344000Y-126390000D01*
G75*
G02*
X140594000Y-126140000I250000J0D01*
G01*
X141544000Y-126140000D01*
G75*
G02*
X141794000Y-126390000I0J-250000D01*
G01*
X141794000Y-126890000D01*
G75*
G02*
X141544000Y-127140000I-250000J0D01*
G01*
G37*
%TD*%
%TO.C,C2*%
G36*
G01*
X150174000Y-95950000D02*
X151124000Y-95950000D01*
G75*
G02*
X151374000Y-96200000I0J-250000D01*
G01*
X151374000Y-96700000D01*
G75*
G02*
X151124000Y-96950000I-250000J0D01*
G01*
X150174000Y-96950000D01*
G75*
G02*
X149924000Y-96700000I0J250000D01*
G01*
X149924000Y-96200000D01*
G75*
G02*
X150174000Y-95950000I250000J0D01*
G01*
G37*
G36*
G01*
X150174000Y-94050000D02*
X151124000Y-94050000D01*
G75*
G02*
X151374000Y-94300000I0J-250000D01*
G01*
X151374000Y-94800000D01*
G75*
G02*
X151124000Y-95050000I-250000J0D01*
G01*
X150174000Y-95050000D01*
G75*
G02*
X149924000Y-94800000I0J250000D01*
G01*
X149924000Y-94300000D01*
G75*
G02*
X150174000Y-94050000I250000J0D01*
G01*
G37*
%TD*%
%TO.C,C1*%
G36*
G01*
X142824000Y-134350000D02*
X141874000Y-134350000D01*
G75*
G02*
X141624000Y-134100000I0J250000D01*
G01*
X141624000Y-133600000D01*
G75*
G02*
X141874000Y-133350000I250000J0D01*
G01*
X142824000Y-133350000D01*
G75*
G02*
X143074000Y-133600000I0J-250000D01*
G01*
X143074000Y-134100000D01*
G75*
G02*
X142824000Y-134350000I-250000J0D01*
G01*
G37*
G36*
G01*
X142824000Y-136250000D02*
X141874000Y-136250000D01*
G75*
G02*
X141624000Y-136000000I0J250000D01*
G01*
X141624000Y-135500000D01*
G75*
G02*
X141874000Y-135250000I250000J0D01*
G01*
X142824000Y-135250000D01*
G75*
G02*
X143074000Y-135500000I0J-250000D01*
G01*
X143074000Y-136000000D01*
G75*
G02*
X142824000Y-136250000I-250000J0D01*
G01*
G37*
%TD*%
D30*
%TO.C,POGO1*%
X160399000Y-61230000D03*
X160399000Y-63770000D03*
X157859000Y-61230000D03*
X157859000Y-63770000D03*
X155319000Y-61230000D03*
X155319000Y-63770000D03*
X152779000Y-61230000D03*
X152779000Y-63770000D03*
X150239000Y-61230000D03*
X150239000Y-63770000D03*
X147699000Y-61230000D03*
X147699000Y-63770000D03*
%TD*%
D31*
%TO.C,SW2*%
X184929000Y-90858094D03*
X184929000Y-86378094D03*
D30*
X182439000Y-92128094D03*
X182439000Y-85108094D03*
%TD*%
%TO.C,SW1*%
X125559000Y-92010000D03*
X125559000Y-84990000D03*
D31*
X123069000Y-90740000D03*
X123069000Y-86260000D03*
%TD*%
D36*
%TO.C,J1*%
X142900000Y-51350000D03*
D31*
X130600000Y-50600000D03*
D37*
X131500000Y-54300000D03*
X129500000Y-46900000D03*
D38*
X138900000Y-46900000D03*
D31*
X137600000Y-50600000D03*
%TD*%
D36*
%TO.C,J2*%
X165200000Y-49850000D03*
D31*
X177500000Y-50600000D03*
D37*
X176600000Y-46900000D03*
X178600000Y-54300000D03*
D38*
X169200000Y-54300000D03*
D31*
X170500000Y-50600000D03*
%TD*%
%TO.C,R4*%
G36*
G01*
X131139000Y-56639998D02*
X131139000Y-57540002D01*
G75*
G02*
X130889002Y-57790000I-249998J0D01*
G01*
X130363998Y-57790000D01*
G75*
G02*
X130114000Y-57540002I0J249998D01*
G01*
X130114000Y-56639998D01*
G75*
G02*
X130363998Y-56390000I249998J0D01*
G01*
X130889002Y-56390000D01*
G75*
G02*
X131139000Y-56639998I0J-249998D01*
G01*
G37*
G36*
G01*
X132964000Y-56639998D02*
X132964000Y-57540002D01*
G75*
G02*
X132714002Y-57790000I-249998J0D01*
G01*
X132188998Y-57790000D01*
G75*
G02*
X131939000Y-57540002I0J249998D01*
G01*
X131939000Y-56639998D01*
G75*
G02*
X132188998Y-56390000I249998J0D01*
G01*
X132714002Y-56390000D01*
G75*
G02*
X132964000Y-56639998I0J-249998D01*
G01*
G37*
%TD*%
%TO.C,R5*%
G36*
G01*
X177739000Y-56689998D02*
X177739000Y-57590002D01*
G75*
G02*
X177489002Y-57840000I-249998J0D01*
G01*
X176963998Y-57840000D01*
G75*
G02*
X176714000Y-57590002I0J249998D01*
G01*
X176714000Y-56689998D01*
G75*
G02*
X176963998Y-56440000I249998J0D01*
G01*
X177489002Y-56440000D01*
G75*
G02*
X177739000Y-56689998I0J-249998D01*
G01*
G37*
G36*
G01*
X179564000Y-56689998D02*
X179564000Y-57590002D01*
G75*
G02*
X179314002Y-57840000I-249998J0D01*
G01*
X178788998Y-57840000D01*
G75*
G02*
X178539000Y-57590002I0J249998D01*
G01*
X178539000Y-56689998D01*
G75*
G02*
X178788998Y-56440000I249998J0D01*
G01*
X179314002Y-56440000D01*
G75*
G02*
X179564000Y-56689998I0J-249998D01*
G01*
G37*
%TD*%
%TO.C,R6*%
G36*
G01*
X144899216Y-62881906D02*
X145799016Y-62881906D01*
G75*
G02*
X146049116Y-63132006I0J-250100D01*
G01*
X146049116Y-63656806D01*
G75*
G02*
X145799016Y-63906906I-250100J0D01*
G01*
X144899216Y-63906906D01*
G75*
G02*
X144649116Y-63656806I0J250100D01*
G01*
X144649116Y-63132006D01*
G75*
G02*
X144899216Y-62881906I250100J0D01*
G01*
G37*
G36*
G01*
X144899216Y-61056906D02*
X145799016Y-61056906D01*
G75*
G02*
X146049116Y-61307006I0J-250100D01*
G01*
X146049116Y-61831806D01*
G75*
G02*
X145799016Y-62081906I-250100J0D01*
G01*
X144899216Y-62081906D01*
G75*
G02*
X144649116Y-61831806I0J250100D01*
G01*
X144649116Y-61307006D01*
G75*
G02*
X144899216Y-61056906I250100J0D01*
G01*
G37*
%TD*%
D11*
G36*
X140060165Y-157590847D02*
G01*
X140061000Y-157592473D01*
X140061000Y-157750000D01*
X140060000Y-157751732D01*
X140059000Y-157752000D01*
X140032141Y-157752000D01*
X140022532Y-157752946D01*
X140013376Y-157755724D01*
X140004941Y-157760232D01*
X139997548Y-157766300D01*
X139991480Y-157773693D01*
X139986972Y-157782128D01*
X139984167Y-157791374D01*
X139983795Y-157793245D01*
X139982476Y-157794749D01*
X139980514Y-157794359D01*
X139979833Y-157792855D01*
X139979833Y-157706091D01*
X139962699Y-157619954D01*
X139960596Y-157614877D01*
X139960857Y-157612895D01*
X139962705Y-157612129D01*
X139964208Y-157613169D01*
X139967634Y-157619580D01*
X139973702Y-157626972D01*
X139981095Y-157633040D01*
X139989530Y-157637548D01*
X139998686Y-157640326D01*
X140008201Y-157641263D01*
X140017717Y-157640326D01*
X140026872Y-157637548D01*
X140035308Y-157633040D01*
X140042700Y-157626972D01*
X140048768Y-157619579D01*
X140053276Y-157611144D01*
X140056054Y-157601988D01*
X140057010Y-157592277D01*
X140058175Y-157590651D01*
X140060165Y-157590847D01*
G37*
G36*
X143260990Y-157592277D02*
G01*
X143261946Y-157601988D01*
X143264724Y-157611144D01*
X143269232Y-157619579D01*
X143275300Y-157626972D01*
X143282693Y-157633040D01*
X143291128Y-157637548D01*
X143300284Y-157640326D01*
X143309799Y-157641263D01*
X143319314Y-157640326D01*
X143328470Y-157637548D01*
X143336905Y-157633040D01*
X143344298Y-157626972D01*
X143350366Y-157619579D01*
X143353792Y-157613168D01*
X143355491Y-157612112D01*
X143357254Y-157613055D01*
X143357404Y-157614876D01*
X143355301Y-157619954D01*
X143338167Y-157706091D01*
X143338167Y-157792855D01*
X143337167Y-157794587D01*
X143335167Y-157794587D01*
X143334205Y-157793245D01*
X143333833Y-157791374D01*
X143331028Y-157782128D01*
X143326520Y-157773693D01*
X143320452Y-157766300D01*
X143313059Y-157760232D01*
X143304624Y-157755724D01*
X143295468Y-157752946D01*
X143285859Y-157752000D01*
X143259000Y-157752000D01*
X143257268Y-157751000D01*
X143257000Y-157750000D01*
X143257000Y-157592473D01*
X143258000Y-157590741D01*
X143260000Y-157590741D01*
X143260990Y-157592277D01*
G37*
G36*
X165020165Y-157540847D02*
G01*
X165021000Y-157542473D01*
X165021000Y-157700000D01*
X165020000Y-157701732D01*
X165019000Y-157702000D01*
X164992141Y-157702000D01*
X164982532Y-157702946D01*
X164973376Y-157705724D01*
X164964941Y-157710232D01*
X164957548Y-157716300D01*
X164951480Y-157723693D01*
X164946972Y-157732128D01*
X164944167Y-157741374D01*
X164943795Y-157743245D01*
X164942476Y-157744749D01*
X164940514Y-157744359D01*
X164939833Y-157742855D01*
X164939833Y-157656091D01*
X164922699Y-157569954D01*
X164920596Y-157564877D01*
X164920857Y-157562895D01*
X164922705Y-157562129D01*
X164924208Y-157563169D01*
X164927634Y-157569580D01*
X164933702Y-157576972D01*
X164941095Y-157583040D01*
X164949530Y-157587548D01*
X164958686Y-157590326D01*
X164968201Y-157591263D01*
X164977717Y-157590326D01*
X164986872Y-157587548D01*
X164995308Y-157583040D01*
X165002700Y-157576972D01*
X165008768Y-157569579D01*
X165013276Y-157561144D01*
X165016054Y-157551988D01*
X165017010Y-157542277D01*
X165018175Y-157540651D01*
X165020165Y-157540847D01*
G37*
G36*
X168220990Y-157542277D02*
G01*
X168221946Y-157551988D01*
X168224724Y-157561144D01*
X168229232Y-157569579D01*
X168235300Y-157576972D01*
X168242693Y-157583040D01*
X168251128Y-157587548D01*
X168260284Y-157590326D01*
X168269799Y-157591263D01*
X168279314Y-157590326D01*
X168288470Y-157587548D01*
X168296905Y-157583040D01*
X168304298Y-157576972D01*
X168310366Y-157569579D01*
X168313792Y-157563168D01*
X168315491Y-157562112D01*
X168317254Y-157563055D01*
X168317404Y-157564876D01*
X168315301Y-157569954D01*
X168298167Y-157656091D01*
X168298167Y-157742855D01*
X168297167Y-157744587D01*
X168295167Y-157744587D01*
X168294205Y-157743245D01*
X168293833Y-157741374D01*
X168291028Y-157732128D01*
X168286520Y-157723693D01*
X168280452Y-157716300D01*
X168273059Y-157710232D01*
X168264624Y-157705724D01*
X168255468Y-157702946D01*
X168245859Y-157702000D01*
X168219000Y-157702000D01*
X168217268Y-157701000D01*
X168217000Y-157700000D01*
X168217000Y-157542473D01*
X168218000Y-157540741D01*
X168220000Y-157540741D01*
X168220990Y-157542277D01*
G37*
M02*
