%TF.GenerationSoftware,KiCad,Pcbnew,(5.1.9-0-10_14)*%
%TF.CreationDate,2022-04-09T17:42:46-07:00*%
%TF.ProjectId,integrator,696e7465-6772-4617-946f-722e6b696361,rev?*%
%TF.SameCoordinates,Original*%
%TF.FileFunction,Soldermask,Top*%
%TF.FilePolarity,Negative*%
%FSLAX46Y46*%
G04 Gerber Fmt 4.6, Leading zero omitted, Abs format (unit mm)*
G04 Created by KiCad (PCBNEW (5.1.9-0-10_14)) date 2022-04-09 17:42:46*
%MOMM*%
%LPD*%
G01*
G04 APERTURE LIST*
%ADD10C,0.100000*%
%ADD11C,0.152400*%
%ADD12C,0.500000*%
%ADD13C,0.375000*%
%ADD14C,0.250000*%
%ADD15C,0.500000*%
%ADD16O,1.008000X2.016000*%
%ADD17O,1.700000X1.700000*%
%ADD18R,1.700000X1.700000*%
%ADD19R,1.600000X1.600000*%
%ADD20C,1.600000*%
%ADD21C,1.700000*%
%ADD22C,2.000000*%
G04 APERTURE END LIST*
D10*
G36*
X161599116Y-119751906D02*
G01*
X161619116Y-120401906D01*
X161459116Y-120571906D01*
X161379116Y-119801906D01*
X161679116Y-118861906D01*
X161599116Y-119751906D01*
G37*
X161599116Y-119751906D02*
X161619116Y-120401906D01*
X161459116Y-120571906D01*
X161379116Y-119801906D01*
X161679116Y-118861906D01*
X161599116Y-119751906D01*
G36*
X162389116Y-119901906D02*
G01*
X162089116Y-120001906D01*
X162229116Y-118081906D01*
X162389116Y-119901906D01*
G37*
X162389116Y-119901906D02*
X162089116Y-120001906D01*
X162229116Y-118081906D01*
X162389116Y-119901906D01*
G36*
X162909116Y-119581906D02*
G01*
X162689116Y-119581906D01*
X162879116Y-118021906D01*
X162909116Y-119581906D01*
G37*
X162909116Y-119581906D02*
X162689116Y-119581906D01*
X162879116Y-118021906D01*
X162909116Y-119581906D01*
G36*
X163639116Y-119421906D02*
G01*
X163329116Y-119511906D01*
X163289116Y-119531906D01*
X163259116Y-118061906D01*
X163639116Y-119421906D01*
G37*
X163639116Y-119421906D02*
X163329116Y-119511906D01*
X163289116Y-119531906D01*
X163259116Y-118061906D01*
X163639116Y-119421906D01*
G36*
X176669116Y-130371906D02*
G01*
X171629116Y-129541906D01*
X171759116Y-128991906D01*
X176669116Y-130371906D01*
G37*
X176669116Y-130371906D02*
X171629116Y-129541906D01*
X171759116Y-128991906D01*
X176669116Y-130371906D01*
G36*
X172809116Y-120041906D02*
G01*
X172729116Y-119591906D01*
X172809116Y-119591906D01*
X176589116Y-119471906D01*
X172809116Y-120041906D01*
G37*
X172809116Y-120041906D02*
X172729116Y-119591906D01*
X172809116Y-119591906D01*
X176589116Y-119471906D01*
X172809116Y-120041906D01*
G36*
X169809116Y-129801906D02*
G01*
X165589116Y-132381906D01*
X169079116Y-129371906D01*
X169809116Y-129801906D01*
G37*
X169809116Y-129801906D02*
X165589116Y-132381906D01*
X169079116Y-129371906D01*
X169809116Y-129801906D01*
G36*
X171659116Y-131331906D02*
G01*
X166579116Y-133621906D01*
X170739116Y-130531906D01*
X171659116Y-131331906D01*
G37*
X171659116Y-131331906D02*
X166579116Y-133621906D01*
X170739116Y-130531906D01*
X171659116Y-131331906D01*
G36*
X183279116Y-137641906D02*
G01*
X183009116Y-137651906D01*
X183009116Y-137601906D01*
X183229116Y-134171906D01*
X183279116Y-137641906D01*
G37*
X183279116Y-137641906D02*
X183009116Y-137651906D01*
X183009116Y-137601906D01*
X183229116Y-134171906D01*
X183279116Y-137641906D01*
G36*
X183199116Y-139521906D02*
G01*
X182959116Y-139521906D01*
X182959116Y-138771906D01*
X183179116Y-138751906D01*
X183199116Y-139521906D01*
G37*
X183199116Y-139521906D02*
X182959116Y-139521906D01*
X182959116Y-138771906D01*
X183179116Y-138751906D01*
X183199116Y-139521906D01*
G36*
X183249116Y-141311906D02*
G01*
X183249116Y-141891906D01*
X182829116Y-141901906D01*
X182879116Y-141301906D01*
X183249116Y-141311906D01*
G37*
X183249116Y-141311906D02*
X183249116Y-141891906D01*
X182829116Y-141901906D01*
X182879116Y-141301906D01*
X183249116Y-141311906D01*
G36*
X183279116Y-143901906D02*
G01*
X182739116Y-143921906D01*
X182809116Y-143221906D01*
X183319116Y-143211906D01*
X183279116Y-143901906D01*
G37*
X183279116Y-143901906D02*
X182739116Y-143921906D01*
X182809116Y-143221906D01*
X183319116Y-143211906D01*
X183279116Y-143901906D01*
G36*
X183319116Y-146181906D02*
G01*
X182599116Y-146261906D01*
X182679116Y-145401906D01*
X183279116Y-145391906D01*
X183319116Y-146181906D01*
G37*
X183319116Y-146181906D02*
X182599116Y-146261906D01*
X182679116Y-145401906D01*
X183279116Y-145391906D01*
X183319116Y-146181906D01*
G36*
X183309116Y-147811906D02*
G01*
X183379116Y-148451906D01*
X182589116Y-148501906D01*
X182569116Y-147781906D01*
X183309116Y-147811906D01*
G37*
X183309116Y-147811906D02*
X183379116Y-148451906D01*
X182589116Y-148501906D01*
X182569116Y-147781906D01*
X183309116Y-147811906D01*
G36*
X183399116Y-150271906D02*
G01*
X182459116Y-150301906D01*
X182529116Y-149741906D01*
X183399116Y-149711906D01*
X183399116Y-150271906D01*
G37*
X183399116Y-150271906D02*
X182459116Y-150301906D01*
X182529116Y-149741906D01*
X183399116Y-149711906D01*
X183399116Y-150271906D01*
G36*
X183329116Y-152191906D02*
G01*
X182739116Y-152771906D01*
X181689116Y-151981906D01*
X182189116Y-151361906D01*
X183329116Y-152191906D01*
G37*
X183329116Y-152191906D02*
X182739116Y-152771906D01*
X181689116Y-151981906D01*
X182189116Y-151361906D01*
X183329116Y-152191906D01*
G36*
X180949116Y-153971906D02*
G01*
X180009116Y-154071906D01*
X179919116Y-153211906D01*
X180689116Y-152921906D01*
X180949116Y-153971906D01*
G37*
X180949116Y-153971906D02*
X180009116Y-154071906D01*
X179919116Y-153211906D01*
X180689116Y-152921906D01*
X180949116Y-153971906D01*
G36*
X178699116Y-154351906D02*
G01*
X178099116Y-154411906D01*
X178049116Y-153621906D01*
X178249116Y-153741906D01*
X178669116Y-153571906D01*
X178699116Y-154351906D01*
G37*
X178699116Y-154351906D02*
X178099116Y-154411906D01*
X178049116Y-153621906D01*
X178249116Y-153741906D01*
X178669116Y-153571906D01*
X178699116Y-154351906D01*
G36*
X177169116Y-153331906D02*
G01*
X176849116Y-154591906D01*
X176259116Y-154481906D01*
X176819116Y-153191906D01*
X177169116Y-153331906D01*
G37*
X177169116Y-153331906D02*
X176849116Y-154591906D01*
X176259116Y-154481906D01*
X176819116Y-153191906D01*
X177169116Y-153331906D01*
G36*
X176109116Y-152931906D02*
G01*
X175579116Y-154321906D01*
X175019116Y-154251906D01*
X175789116Y-152871906D01*
X176109116Y-152931906D01*
G37*
X176109116Y-152931906D02*
X175579116Y-154321906D01*
X175019116Y-154251906D01*
X175789116Y-152871906D01*
X176109116Y-152931906D01*
G36*
X175309116Y-152251906D02*
G01*
X173829116Y-153251906D01*
X173579116Y-152691906D01*
X175019116Y-151741906D01*
X175309116Y-152251906D01*
G37*
X175309116Y-152251906D02*
X173829116Y-153251906D01*
X173579116Y-152691906D01*
X175019116Y-151741906D01*
X175309116Y-152251906D01*
G36*
X174579116Y-150781906D02*
G01*
X173119116Y-151721906D01*
X172979116Y-151341906D01*
X174399116Y-150451906D01*
X174579116Y-150781906D01*
G37*
X174579116Y-150781906D02*
X173119116Y-151721906D01*
X172979116Y-151341906D01*
X174399116Y-150451906D01*
X174579116Y-150781906D01*
G36*
X174429116Y-149131906D02*
G01*
X174459116Y-149581906D01*
X170809116Y-149431906D01*
X174339116Y-149071906D01*
X174429116Y-149131906D01*
G37*
X174429116Y-149131906D02*
X174459116Y-149581906D01*
X170809116Y-149431906D01*
X174339116Y-149071906D01*
X174429116Y-149131906D01*
G36*
X174549116Y-147901906D02*
G01*
X174549116Y-148291906D01*
X170359116Y-147781906D01*
X174549116Y-147901906D01*
G37*
X174549116Y-147901906D02*
X174549116Y-148291906D01*
X170359116Y-147781906D01*
X174549116Y-147901906D01*
G36*
X174699116Y-146041906D02*
G01*
X174609116Y-147151906D01*
X168139116Y-145411906D01*
X174699116Y-146041906D01*
G37*
X174699116Y-146041906D02*
X174609116Y-147151906D01*
X168139116Y-145411906D01*
X174699116Y-146041906D01*
G36*
X174939116Y-144031906D02*
G01*
X174879116Y-145081906D01*
X167629116Y-143311906D01*
X174939116Y-144031906D01*
G37*
X174939116Y-144031906D02*
X174879116Y-145081906D01*
X167629116Y-143311906D01*
X174939116Y-144031906D01*
G36*
X174909116Y-142381906D02*
G01*
X174909116Y-143161906D01*
X166819116Y-141721906D01*
X174909116Y-142381906D01*
G37*
X174909116Y-142381906D02*
X174909116Y-143161906D01*
X166819116Y-141721906D01*
X174909116Y-142381906D01*
G36*
X175029116Y-140591906D02*
G01*
X174959116Y-141411906D01*
X166849116Y-140351906D01*
X175029116Y-140591906D01*
G37*
X175029116Y-140591906D02*
X174959116Y-141411906D01*
X166849116Y-140351906D01*
X175029116Y-140591906D01*
G36*
X175089116Y-139381906D02*
G01*
X166549116Y-139291906D01*
X175119116Y-138501906D01*
X175089116Y-139381906D01*
G37*
X175089116Y-139381906D02*
X166549116Y-139291906D01*
X175119116Y-138501906D01*
X175089116Y-139381906D01*
G36*
X175029116Y-137661906D02*
G01*
X166729116Y-137721906D01*
X174509116Y-136361906D01*
X175029116Y-137661906D01*
G37*
X175029116Y-137661906D02*
X166729116Y-137721906D01*
X174509116Y-136361906D01*
X175029116Y-137661906D01*
G36*
X174099116Y-135241906D02*
G01*
X166009116Y-136511906D01*
X173819116Y-134501906D01*
X174099116Y-135241906D01*
G37*
X174099116Y-135241906D02*
X166009116Y-136511906D01*
X173819116Y-134501906D01*
X174099116Y-135241906D01*
G36*
X173149116Y-132561906D02*
G01*
X173189116Y-132801906D01*
X165359116Y-135321906D01*
X172639116Y-132201906D01*
X173149116Y-132561906D01*
G37*
X173149116Y-132561906D02*
X173189116Y-132801906D01*
X165359116Y-135321906D01*
X172639116Y-132201906D01*
X173149116Y-132561906D01*
G36*
X144969116Y-57851906D02*
G01*
X144959116Y-57881906D01*
X145199116Y-57891906D01*
X145519116Y-58031906D01*
X145729116Y-58181906D01*
X145869116Y-58431906D01*
X145849116Y-58801906D01*
X144019116Y-58861906D01*
X141999116Y-58851906D01*
X142029116Y-58771906D01*
X143999116Y-58791906D01*
X143979116Y-58601906D01*
X144069116Y-58411906D01*
X144169116Y-58151906D01*
X144319116Y-57991906D01*
X144549116Y-57891906D01*
X144839116Y-57891906D01*
X144849116Y-57841906D01*
X144969116Y-57851906D01*
G37*
X144969116Y-57851906D02*
X144959116Y-57881906D01*
X145199116Y-57891906D01*
X145519116Y-58031906D01*
X145729116Y-58181906D01*
X145869116Y-58431906D01*
X145849116Y-58801906D01*
X144019116Y-58861906D01*
X141999116Y-58851906D01*
X142029116Y-58771906D01*
X143999116Y-58791906D01*
X143979116Y-58601906D01*
X144069116Y-58411906D01*
X144169116Y-58151906D01*
X144319116Y-57991906D01*
X144549116Y-57891906D01*
X144839116Y-57891906D01*
X144849116Y-57841906D01*
X144969116Y-57851906D01*
G36*
X143859116Y-63191906D02*
G01*
X143599116Y-63121906D01*
X145319116Y-60721906D01*
X145449116Y-60721906D01*
X143859116Y-63191906D01*
G37*
X143859116Y-63191906D02*
X143599116Y-63121906D01*
X145319116Y-60721906D01*
X145449116Y-60721906D01*
X143859116Y-63191906D01*
G36*
X143019116Y-62801906D02*
G01*
X142759116Y-62621906D01*
X144279116Y-60601906D01*
X144489116Y-60561906D01*
X143019116Y-62801906D01*
G37*
X143019116Y-62801906D02*
X142759116Y-62621906D01*
X144279116Y-60601906D01*
X144489116Y-60561906D01*
X143019116Y-62801906D01*
G36*
X144299116Y-63241906D02*
G01*
X142889116Y-63931906D01*
X135299116Y-66301906D01*
X133059116Y-65951906D01*
X142819116Y-62571906D01*
X144299116Y-63241906D01*
G37*
X144299116Y-63241906D02*
X142889116Y-63931906D01*
X135299116Y-66301906D01*
X133059116Y-65951906D01*
X142819116Y-62571906D01*
X144299116Y-63241906D01*
G36*
X146209116Y-60611906D02*
G01*
X145979116Y-60861906D01*
X143589116Y-60431906D01*
X143939116Y-60321906D01*
X146209116Y-60611906D01*
G37*
X146209116Y-60611906D02*
X145979116Y-60861906D01*
X143589116Y-60431906D01*
X143939116Y-60321906D01*
X146209116Y-60611906D01*
D11*
X182439116Y-51181906D02*
X182439116Y-49951906D01*
X181029116Y-50501906D02*
X182999116Y-50501906D01*
X182999116Y-50501906D02*
X182439116Y-51181906D01*
X182439116Y-49951906D02*
X183019116Y-50511906D01*
X127709116Y-50361906D02*
X125209116Y-50361906D01*
X125209116Y-50361906D02*
X125769116Y-49681906D01*
X125769116Y-50911906D02*
X125189116Y-50351906D01*
X125769116Y-49681906D02*
X125769116Y-50911906D01*
X127559116Y-61191906D02*
X125059116Y-61191906D01*
X125619116Y-61741906D02*
X125039116Y-61181906D01*
X125619116Y-60511906D02*
X125619116Y-61741906D01*
X125059116Y-61191906D02*
X125619116Y-60511906D01*
X181789116Y-61701906D02*
X181209116Y-61141906D01*
X181789116Y-60471906D02*
X181789116Y-61701906D01*
X181229116Y-61151906D02*
X181789116Y-60471906D01*
X183349116Y-61161906D02*
X181229116Y-61151906D01*
D12*
X156709116Y-66231906D02*
G75*
G03*
X156709116Y-66231906I-100000J0D01*
G01*
X155489116Y-66251906D02*
G75*
G03*
X155489116Y-66251906I-100000J0D01*
G01*
X154239116Y-66251906D02*
G75*
G03*
X154239116Y-66251906I-100000J0D01*
G01*
X152739116Y-66221906D02*
G75*
G03*
X152739116Y-66221906I-100000J0D01*
G01*
X170839116Y-127511906D02*
G75*
G03*
X170839116Y-127511906I-400000J0D01*
G01*
X170899116Y-121021906D02*
G75*
G03*
X170899116Y-121021906I-400000J0D01*
G01*
X145429116Y-59491906D02*
G75*
G03*
X145429116Y-59491906I-100000J0D01*
G01*
X153849116Y-123441906D02*
G75*
G03*
X153849116Y-123441906I-100000J0D01*
G01*
X155679116Y-123441906D02*
G75*
G03*
X155679116Y-123441906I-100000J0D01*
G01*
D13*
X127883401Y-60350477D02*
X128740544Y-60350477D01*
X128311973Y-61850477D02*
X128311973Y-60350477D01*
X129526258Y-60350477D02*
X129811973Y-60350477D01*
X129954830Y-60421906D01*
X130097687Y-60564763D01*
X130169116Y-60850477D01*
X130169116Y-61350477D01*
X130097687Y-61636191D01*
X129954830Y-61779048D01*
X129811973Y-61850477D01*
X129526258Y-61850477D01*
X129383401Y-61779048D01*
X129240544Y-61636191D01*
X129169116Y-61350477D01*
X129169116Y-60850477D01*
X129240544Y-60564763D01*
X129383401Y-60421906D01*
X129526258Y-60350477D01*
X131811973Y-60350477D02*
X132169116Y-61850477D01*
X132454830Y-60779048D01*
X132740544Y-61850477D01*
X133097687Y-60350477D01*
X133954830Y-60350477D02*
X134240544Y-60350477D01*
X134383401Y-60421906D01*
X134526258Y-60564763D01*
X134597687Y-60850477D01*
X134597687Y-61350477D01*
X134526258Y-61636191D01*
X134383401Y-61779048D01*
X134240544Y-61850477D01*
X133954830Y-61850477D01*
X133811973Y-61779048D01*
X133669116Y-61636191D01*
X133597687Y-61350477D01*
X133597687Y-60850477D01*
X133669116Y-60564763D01*
X133811973Y-60421906D01*
X133954830Y-60350477D01*
X136097687Y-61850477D02*
X135597687Y-61136191D01*
X135240544Y-61850477D02*
X135240544Y-60350477D01*
X135811973Y-60350477D01*
X135954830Y-60421906D01*
X136026258Y-60493334D01*
X136097687Y-60636191D01*
X136097687Y-60850477D01*
X136026258Y-60993334D01*
X135954830Y-61064763D01*
X135811973Y-61136191D01*
X135240544Y-61136191D01*
X137454830Y-61850477D02*
X136740544Y-61850477D01*
X136740544Y-60350477D01*
X137954830Y-61850477D02*
X137954830Y-60350477D01*
X138311973Y-60350477D01*
X138526258Y-60421906D01*
X138669116Y-60564763D01*
X138740544Y-60707620D01*
X138811973Y-60993334D01*
X138811973Y-61207620D01*
X138740544Y-61493334D01*
X138669116Y-61636191D01*
X138526258Y-61779048D01*
X138311973Y-61850477D01*
X137954830Y-61850477D01*
X167859116Y-61950477D02*
X167859116Y-60450477D01*
X168430544Y-60450477D01*
X168573401Y-60521906D01*
X168644830Y-60593334D01*
X168716258Y-60736191D01*
X168716258Y-60950477D01*
X168644830Y-61093334D01*
X168573401Y-61164763D01*
X168430544Y-61236191D01*
X167859116Y-61236191D01*
X169644830Y-60450477D02*
X169930544Y-60450477D01*
X170073401Y-60521906D01*
X170216258Y-60664763D01*
X170287687Y-60950477D01*
X170287687Y-61450477D01*
X170216258Y-61736191D01*
X170073401Y-61879048D01*
X169930544Y-61950477D01*
X169644830Y-61950477D01*
X169501973Y-61879048D01*
X169359116Y-61736191D01*
X169287687Y-61450477D01*
X169287687Y-60950477D01*
X169359116Y-60664763D01*
X169501973Y-60521906D01*
X169644830Y-60450477D01*
X172073401Y-61950477D02*
X172073401Y-60450477D01*
X172787687Y-61950477D02*
X172787687Y-60450477D01*
X173644830Y-61950477D01*
X173644830Y-60450477D01*
X174359116Y-61950477D02*
X174359116Y-60450477D01*
X174930544Y-60450477D01*
X175073401Y-60521906D01*
X175144830Y-60593334D01*
X175216258Y-60736191D01*
X175216258Y-60950477D01*
X175144830Y-61093334D01*
X175073401Y-61164763D01*
X174930544Y-61236191D01*
X174359116Y-61236191D01*
X175859116Y-60450477D02*
X175859116Y-61664763D01*
X175930544Y-61807620D01*
X176001973Y-61879048D01*
X176144830Y-61950477D01*
X176430544Y-61950477D01*
X176573401Y-61879048D01*
X176644830Y-61807620D01*
X176716258Y-61664763D01*
X176716258Y-60450477D01*
X177216258Y-60450477D02*
X178073401Y-60450477D01*
X177644830Y-61950477D02*
X177644830Y-60450477D01*
X132579116Y-49890477D02*
X132864830Y-49890477D01*
X133007687Y-49961906D01*
X133150544Y-50104763D01*
X133221973Y-50390477D01*
X133221973Y-50890477D01*
X133150544Y-51176191D01*
X133007687Y-51319048D01*
X132864830Y-51390477D01*
X132579116Y-51390477D01*
X132436258Y-51319048D01*
X132293401Y-51176191D01*
X132221973Y-50890477D01*
X132221973Y-50390477D01*
X132293401Y-50104763D01*
X132436258Y-49961906D01*
X132579116Y-49890477D01*
X133864830Y-49890477D02*
X133864830Y-51104763D01*
X133936258Y-51247620D01*
X134007687Y-51319048D01*
X134150544Y-51390477D01*
X134436258Y-51390477D01*
X134579116Y-51319048D01*
X134650544Y-51247620D01*
X134721973Y-51104763D01*
X134721973Y-49890477D01*
X135221973Y-49890477D02*
X136079116Y-49890477D01*
X135650544Y-51390477D02*
X135650544Y-49890477D01*
X172519116Y-49890477D02*
X172804830Y-49890477D01*
X172947687Y-49961906D01*
X173090544Y-50104763D01*
X173161973Y-50390477D01*
X173161973Y-50890477D01*
X173090544Y-51176191D01*
X172947687Y-51319048D01*
X172804830Y-51390477D01*
X172519116Y-51390477D01*
X172376258Y-51319048D01*
X172233401Y-51176191D01*
X172161973Y-50890477D01*
X172161973Y-50390477D01*
X172233401Y-50104763D01*
X172376258Y-49961906D01*
X172519116Y-49890477D01*
X173804830Y-49890477D02*
X173804830Y-51104763D01*
X173876258Y-51247620D01*
X173947687Y-51319048D01*
X174090544Y-51390477D01*
X174376258Y-51390477D01*
X174519116Y-51319048D01*
X174590544Y-51247620D01*
X174661973Y-51104763D01*
X174661973Y-49890477D01*
X175161973Y-49890477D02*
X176019116Y-49890477D01*
X175590544Y-51390477D02*
X175590544Y-49890477D01*
D12*
X155379116Y-97071906D02*
G75*
G03*
X155379116Y-97071906I-100000J0D01*
G01*
X154449116Y-97091906D02*
G75*
G03*
X154449116Y-97091906I-100000J0D01*
G01*
X153519116Y-97091906D02*
G75*
G03*
X153519116Y-97091906I-100000J0D01*
G01*
X152539116Y-97091906D02*
G75*
G03*
X152539116Y-97091906I-100000J0D01*
G01*
D14*
X153084830Y-47844286D02*
X153084830Y-46844286D01*
X153418163Y-47558572D01*
X153751496Y-46844286D01*
X153751496Y-47844286D01*
X154180068Y-47796667D02*
X154322925Y-47844286D01*
X154561020Y-47844286D01*
X154656258Y-47796667D01*
X154703877Y-47749048D01*
X154751496Y-47653810D01*
X154751496Y-47558572D01*
X154703877Y-47463334D01*
X154656258Y-47415715D01*
X154561020Y-47368096D01*
X154370544Y-47320477D01*
X154275306Y-47272858D01*
X154227687Y-47225239D01*
X154180068Y-47130001D01*
X154180068Y-47034763D01*
X154227687Y-46939525D01*
X154275306Y-46891906D01*
X154370544Y-46844286D01*
X154608639Y-46844286D01*
X154751496Y-46891906D01*
X155656258Y-47844286D02*
X155180068Y-47844286D01*
X155180068Y-46844286D01*
X146037211Y-49594286D02*
X146037211Y-48594286D01*
X146418163Y-48594286D01*
X146513401Y-48641906D01*
X146561020Y-48689525D01*
X146608639Y-48784763D01*
X146608639Y-48927620D01*
X146561020Y-49022858D01*
X146513401Y-49070477D01*
X146418163Y-49118096D01*
X146037211Y-49118096D01*
X147180068Y-49594286D02*
X147084830Y-49546667D01*
X147037211Y-49499048D01*
X146989592Y-49403810D01*
X146989592Y-49118096D01*
X147037211Y-49022858D01*
X147084830Y-48975239D01*
X147180068Y-48927620D01*
X147322925Y-48927620D01*
X147418163Y-48975239D01*
X147465782Y-49022858D01*
X147513401Y-49118096D01*
X147513401Y-49403810D01*
X147465782Y-49499048D01*
X147418163Y-49546667D01*
X147322925Y-49594286D01*
X147180068Y-49594286D01*
X148370544Y-49546667D02*
X148275306Y-49594286D01*
X148084830Y-49594286D01*
X147989592Y-49546667D01*
X147941973Y-49499048D01*
X147894354Y-49403810D01*
X147894354Y-49118096D01*
X147941973Y-49022858D01*
X147989592Y-48975239D01*
X148084830Y-48927620D01*
X148275306Y-48927620D01*
X148370544Y-48975239D01*
X148799116Y-49594286D02*
X148799116Y-48594286D01*
X148894354Y-49213334D02*
X149180068Y-49594286D01*
X149180068Y-48927620D02*
X148799116Y-49308572D01*
X149989592Y-49546667D02*
X149894354Y-49594286D01*
X149703877Y-49594286D01*
X149608639Y-49546667D01*
X149561020Y-49451429D01*
X149561020Y-49070477D01*
X149608639Y-48975239D01*
X149703877Y-48927620D01*
X149894354Y-48927620D01*
X149989592Y-48975239D01*
X150037211Y-49070477D01*
X150037211Y-49165715D01*
X149561020Y-49260953D01*
X150322925Y-48927620D02*
X150703877Y-48927620D01*
X150465782Y-48594286D02*
X150465782Y-49451429D01*
X150513401Y-49546667D01*
X150608639Y-49594286D01*
X150703877Y-49594286D01*
X151799116Y-49594286D02*
X151799116Y-48594286D01*
X152275306Y-48927620D02*
X152275306Y-49594286D01*
X152275306Y-49022858D02*
X152322925Y-48975239D01*
X152418163Y-48927620D01*
X152561020Y-48927620D01*
X152656258Y-48975239D01*
X152703877Y-49070477D01*
X152703877Y-49594286D01*
X153037211Y-48927620D02*
X153418163Y-48927620D01*
X153180068Y-48594286D02*
X153180068Y-49451429D01*
X153227687Y-49546667D01*
X153322925Y-49594286D01*
X153418163Y-49594286D01*
X154132449Y-49546667D02*
X154037211Y-49594286D01*
X153846735Y-49594286D01*
X153751496Y-49546667D01*
X153703877Y-49451429D01*
X153703877Y-49070477D01*
X153751496Y-48975239D01*
X153846735Y-48927620D01*
X154037211Y-48927620D01*
X154132449Y-48975239D01*
X154180068Y-49070477D01*
X154180068Y-49165715D01*
X153703877Y-49260953D01*
X155037211Y-48927620D02*
X155037211Y-49737144D01*
X154989592Y-49832382D01*
X154941973Y-49880001D01*
X154846735Y-49927620D01*
X154703877Y-49927620D01*
X154608639Y-49880001D01*
X155037211Y-49546667D02*
X154941973Y-49594286D01*
X154751496Y-49594286D01*
X154656258Y-49546667D01*
X154608639Y-49499048D01*
X154561020Y-49403810D01*
X154561020Y-49118096D01*
X154608639Y-49022858D01*
X154656258Y-48975239D01*
X154751496Y-48927620D01*
X154941973Y-48927620D01*
X155037211Y-48975239D01*
X155513401Y-49594286D02*
X155513401Y-48927620D01*
X155513401Y-49118096D02*
X155561020Y-49022858D01*
X155608639Y-48975239D01*
X155703877Y-48927620D01*
X155799116Y-48927620D01*
X156561020Y-49594286D02*
X156561020Y-49070477D01*
X156513401Y-48975239D01*
X156418163Y-48927620D01*
X156227687Y-48927620D01*
X156132449Y-48975239D01*
X156561020Y-49546667D02*
X156465782Y-49594286D01*
X156227687Y-49594286D01*
X156132449Y-49546667D01*
X156084830Y-49451429D01*
X156084830Y-49356191D01*
X156132449Y-49260953D01*
X156227687Y-49213334D01*
X156465782Y-49213334D01*
X156561020Y-49165715D01*
X156894354Y-48927620D02*
X157275306Y-48927620D01*
X157037211Y-48594286D02*
X157037211Y-49451429D01*
X157084830Y-49546667D01*
X157180068Y-49594286D01*
X157275306Y-49594286D01*
X157751496Y-49594286D02*
X157656258Y-49546667D01*
X157608639Y-49499048D01*
X157561020Y-49403810D01*
X157561020Y-49118096D01*
X157608639Y-49022858D01*
X157656258Y-48975239D01*
X157751496Y-48927620D01*
X157894354Y-48927620D01*
X157989592Y-48975239D01*
X158037211Y-49022858D01*
X158084830Y-49118096D01*
X158084830Y-49403810D01*
X158037211Y-49499048D01*
X157989592Y-49546667D01*
X157894354Y-49594286D01*
X157751496Y-49594286D01*
X158513401Y-49594286D02*
X158513401Y-48927620D01*
X158513401Y-49118096D02*
X158561020Y-49022858D01*
X158608639Y-48975239D01*
X158703877Y-48927620D01*
X158799116Y-48927620D01*
X160275306Y-49546667D02*
X160180068Y-49594286D01*
X159989592Y-49594286D01*
X159894354Y-49546667D01*
X159846735Y-49451429D01*
X159846735Y-49070477D01*
X159894354Y-48975239D01*
X159989592Y-48927620D01*
X160180068Y-48927620D01*
X160275306Y-48975239D01*
X160322925Y-49070477D01*
X160322925Y-49165715D01*
X159846735Y-49260953D01*
X160656258Y-48927620D02*
X160894354Y-49594286D01*
X161132449Y-48927620D01*
X161370544Y-48927620D02*
X161751496Y-48927620D01*
X161513401Y-48594286D02*
X161513401Y-49451429D01*
X161561020Y-49546667D01*
X161656258Y-49594286D01*
X161751496Y-49594286D01*
X162513401Y-48927620D02*
X162513401Y-49594286D01*
X162275306Y-48546667D02*
X162037211Y-49260953D01*
X162656258Y-49260953D01*
X149203877Y-51296667D02*
X149346735Y-51344286D01*
X149584830Y-51344286D01*
X149680068Y-51296667D01*
X149727687Y-51249048D01*
X149775306Y-51153810D01*
X149775306Y-51058572D01*
X149727687Y-50963334D01*
X149680068Y-50915715D01*
X149584830Y-50868096D01*
X149394354Y-50820477D01*
X149299116Y-50772858D01*
X149251496Y-50725239D01*
X149203877Y-50630001D01*
X149203877Y-50534763D01*
X149251496Y-50439525D01*
X149299116Y-50391906D01*
X149394354Y-50344286D01*
X149632449Y-50344286D01*
X149775306Y-50391906D01*
X150632449Y-50677620D02*
X150632449Y-51344286D01*
X150203877Y-50677620D02*
X150203877Y-51201429D01*
X150251496Y-51296667D01*
X150346735Y-51344286D01*
X150489592Y-51344286D01*
X150584830Y-51296667D01*
X150632449Y-51249048D01*
X151108639Y-51344286D02*
X151108639Y-50677620D01*
X151108639Y-50772858D02*
X151156258Y-50725239D01*
X151251496Y-50677620D01*
X151394354Y-50677620D01*
X151489592Y-50725239D01*
X151537211Y-50820477D01*
X151537211Y-51344286D01*
X151537211Y-50820477D02*
X151584830Y-50725239D01*
X151680068Y-50677620D01*
X151822925Y-50677620D01*
X151918163Y-50725239D01*
X151965782Y-50820477D01*
X151965782Y-51344286D01*
X152441973Y-51344286D02*
X152441973Y-50677620D01*
X152441973Y-50772858D02*
X152489592Y-50725239D01*
X152584830Y-50677620D01*
X152727687Y-50677620D01*
X152822925Y-50725239D01*
X152870544Y-50820477D01*
X152870544Y-51344286D01*
X152870544Y-50820477D02*
X152918163Y-50725239D01*
X153013401Y-50677620D01*
X153156258Y-50677620D01*
X153251496Y-50725239D01*
X153299116Y-50820477D01*
X153299116Y-51344286D01*
X154156258Y-51296667D02*
X154061020Y-51344286D01*
X153870544Y-51344286D01*
X153775306Y-51296667D01*
X153727687Y-51201429D01*
X153727687Y-50820477D01*
X153775306Y-50725239D01*
X153870544Y-50677620D01*
X154061020Y-50677620D01*
X154156258Y-50725239D01*
X154203877Y-50820477D01*
X154203877Y-50915715D01*
X153727687Y-51010953D01*
X154632449Y-51344286D02*
X154632449Y-50677620D01*
X154632449Y-50868096D02*
X154680068Y-50772858D01*
X154727687Y-50725239D01*
X154822925Y-50677620D01*
X154918163Y-50677620D01*
X155965782Y-50439525D02*
X156013401Y-50391906D01*
X156108639Y-50344286D01*
X156346735Y-50344286D01*
X156441973Y-50391906D01*
X156489592Y-50439525D01*
X156537211Y-50534763D01*
X156537211Y-50630001D01*
X156489592Y-50772858D01*
X155918163Y-51344286D01*
X156537211Y-51344286D01*
X157156258Y-50344286D02*
X157251496Y-50344286D01*
X157346735Y-50391906D01*
X157394354Y-50439525D01*
X157441973Y-50534763D01*
X157489592Y-50725239D01*
X157489592Y-50963334D01*
X157441973Y-51153810D01*
X157394354Y-51249048D01*
X157346735Y-51296667D01*
X157251496Y-51344286D01*
X157156258Y-51344286D01*
X157061020Y-51296667D01*
X157013401Y-51249048D01*
X156965782Y-51153810D01*
X156918163Y-50963334D01*
X156918163Y-50725239D01*
X156965782Y-50534763D01*
X157013401Y-50439525D01*
X157061020Y-50391906D01*
X157156258Y-50344286D01*
X157870544Y-50439525D02*
X157918163Y-50391906D01*
X158013401Y-50344286D01*
X158251496Y-50344286D01*
X158346735Y-50391906D01*
X158394354Y-50439525D01*
X158441973Y-50534763D01*
X158441973Y-50630001D01*
X158394354Y-50772858D01*
X157822925Y-51344286D01*
X158441973Y-51344286D01*
X159394354Y-51344286D02*
X158822925Y-51344286D01*
X159108639Y-51344286D02*
X159108639Y-50344286D01*
X159013401Y-50487144D01*
X158918163Y-50582382D01*
X158822925Y-50630001D01*
D11*
X137584449Y-107253115D02*
X137584449Y-107446639D01*
X137632830Y-107446639D02*
X137632830Y-107253115D01*
X137681211Y-107204734D02*
X137681211Y-107495020D01*
X137729592Y-107446639D02*
X137729592Y-107253115D01*
X137777973Y-107253115D02*
X137777973Y-107446639D01*
X137584449Y-107398258D02*
X137681211Y-107495020D01*
X137777973Y-107398258D01*
X137584449Y-107301496D02*
X137681211Y-107204734D01*
X137777973Y-107301496D01*
X137584449Y-107253115D02*
X137681211Y-107204734D01*
X137777973Y-107253115D01*
X137826354Y-107349877D01*
X137777973Y-107446639D01*
X137681211Y-107495020D01*
X137584449Y-107446639D01*
X137536068Y-107349877D01*
X137584449Y-107253115D01*
X139761592Y-107736925D02*
X139761592Y-107204734D01*
X139713211Y-107107972D01*
X139616449Y-107059591D01*
X139422925Y-107059591D01*
X139326163Y-107107972D01*
X139761592Y-107688544D02*
X139664830Y-107736925D01*
X139422925Y-107736925D01*
X139326163Y-107688544D01*
X139277782Y-107591782D01*
X139277782Y-107495020D01*
X139326163Y-107398258D01*
X139422925Y-107349877D01*
X139664830Y-107349877D01*
X139761592Y-107301496D01*
X140100258Y-107059591D02*
X140487306Y-107059591D01*
X140245401Y-106720925D02*
X140245401Y-107591782D01*
X140293782Y-107688544D01*
X140390544Y-107736925D01*
X140487306Y-107736925D01*
X140680830Y-107059591D02*
X141067877Y-107059591D01*
X140825973Y-106720925D02*
X140825973Y-107591782D01*
X140874354Y-107688544D01*
X140971116Y-107736925D01*
X141067877Y-107736925D01*
X141841973Y-107736925D02*
X141841973Y-107204734D01*
X141793592Y-107107972D01*
X141696830Y-107059591D01*
X141503306Y-107059591D01*
X141406544Y-107107972D01*
X141841973Y-107688544D02*
X141745211Y-107736925D01*
X141503306Y-107736925D01*
X141406544Y-107688544D01*
X141358163Y-107591782D01*
X141358163Y-107495020D01*
X141406544Y-107398258D01*
X141503306Y-107349877D01*
X141745211Y-107349877D01*
X141841973Y-107301496D01*
X142761211Y-107688544D02*
X142664449Y-107736925D01*
X142470925Y-107736925D01*
X142374163Y-107688544D01*
X142325782Y-107640163D01*
X142277401Y-107543401D01*
X142277401Y-107253115D01*
X142325782Y-107156353D01*
X142374163Y-107107972D01*
X142470925Y-107059591D01*
X142664449Y-107059591D01*
X142761211Y-107107972D01*
X143196639Y-107736925D02*
X143196639Y-106720925D01*
X143632068Y-107736925D02*
X143632068Y-107204734D01*
X143583687Y-107107972D01*
X143486925Y-107059591D01*
X143341782Y-107059591D01*
X143245020Y-107107972D01*
X143196639Y-107156353D01*
X144793211Y-107059591D02*
X144986735Y-107736925D01*
X145180258Y-107253115D01*
X145373782Y-107736925D01*
X145567306Y-107059591D01*
X145954354Y-107736925D02*
X145954354Y-107059591D01*
X145954354Y-106720925D02*
X145905973Y-106769306D01*
X145954354Y-106817686D01*
X146002735Y-106769306D01*
X145954354Y-106720925D01*
X145954354Y-106817686D01*
X146293020Y-107059591D02*
X146680068Y-107059591D01*
X146438163Y-106720925D02*
X146438163Y-107591782D01*
X146486544Y-107688544D01*
X146583306Y-107736925D01*
X146680068Y-107736925D01*
X147018735Y-107736925D02*
X147018735Y-106720925D01*
X147454163Y-107736925D02*
X147454163Y-107204734D01*
X147405782Y-107107972D01*
X147309020Y-107059591D01*
X147163877Y-107059591D01*
X147067116Y-107107972D01*
X147018735Y-107156353D01*
X148566925Y-107059591D02*
X148953973Y-107059591D01*
X148712068Y-106720925D02*
X148712068Y-107591782D01*
X148760449Y-107688544D01*
X148857211Y-107736925D01*
X148953973Y-107736925D01*
X149195877Y-107059591D02*
X149389401Y-107736925D01*
X149582925Y-107253115D01*
X149776449Y-107736925D01*
X149969973Y-107059591D01*
X150502163Y-107736925D02*
X150405401Y-107688544D01*
X150357020Y-107640163D01*
X150308639Y-107543401D01*
X150308639Y-107253115D01*
X150357020Y-107156353D01*
X150405401Y-107107972D01*
X150502163Y-107059591D01*
X150647306Y-107059591D01*
X150744068Y-107107972D01*
X150792449Y-107156353D01*
X150840830Y-107253115D01*
X150840830Y-107543401D01*
X150792449Y-107640163D01*
X150744068Y-107688544D01*
X150647306Y-107736925D01*
X150502163Y-107736925D01*
X152243877Y-106720925D02*
X152437401Y-106720925D01*
X152534163Y-106769306D01*
X152630925Y-106866067D01*
X152679306Y-107059591D01*
X152679306Y-107398258D01*
X152630925Y-107591782D01*
X152534163Y-107688544D01*
X152437401Y-107736925D01*
X152243877Y-107736925D01*
X152147116Y-107688544D01*
X152050354Y-107591782D01*
X152001973Y-107398258D01*
X152001973Y-107059591D01*
X152050354Y-106866067D01*
X152147116Y-106769306D01*
X152243877Y-106720925D01*
X153888830Y-107736925D02*
X153888830Y-107059591D01*
X153888830Y-107253115D02*
X153937211Y-107156353D01*
X153985592Y-107107972D01*
X154082354Y-107059591D01*
X154179116Y-107059591D01*
X154517782Y-107736925D02*
X154517782Y-107059591D01*
X154517782Y-106720925D02*
X154469401Y-106769306D01*
X154517782Y-106817686D01*
X154566163Y-106769306D01*
X154517782Y-106720925D01*
X154517782Y-106817686D01*
X155001592Y-107059591D02*
X155001592Y-107736925D01*
X155001592Y-107156353D02*
X155049973Y-107107972D01*
X155146735Y-107059591D01*
X155291877Y-107059591D01*
X155388639Y-107107972D01*
X155437020Y-107204734D01*
X155437020Y-107736925D01*
X156356258Y-107059591D02*
X156356258Y-107882067D01*
X156307877Y-107978829D01*
X156259496Y-108027210D01*
X156162735Y-108075591D01*
X156017592Y-108075591D01*
X155920830Y-108027210D01*
X156356258Y-107688544D02*
X156259496Y-107736925D01*
X156065973Y-107736925D01*
X155969211Y-107688544D01*
X155920830Y-107640163D01*
X155872449Y-107543401D01*
X155872449Y-107253115D01*
X155920830Y-107156353D01*
X155969211Y-107107972D01*
X156065973Y-107059591D01*
X156259496Y-107059591D01*
X156356258Y-107107972D01*
X156791687Y-107688544D02*
X156888449Y-107736925D01*
X157081973Y-107736925D01*
X157178735Y-107688544D01*
X157227116Y-107591782D01*
X157227116Y-107543401D01*
X157178735Y-107446639D01*
X157081973Y-107398258D01*
X156936830Y-107398258D01*
X156840068Y-107349877D01*
X156791687Y-107253115D01*
X156791687Y-107204734D01*
X156840068Y-107107972D01*
X156936830Y-107059591D01*
X157081973Y-107059591D01*
X157178735Y-107107972D01*
X158968830Y-107736925D02*
X158388258Y-107736925D01*
X158678544Y-107736925D02*
X158678544Y-106720925D01*
X158581782Y-106866067D01*
X158485020Y-106962829D01*
X158388258Y-107011210D01*
X159404258Y-107640163D02*
X159452639Y-107688544D01*
X159404258Y-107736925D01*
X159355877Y-107688544D01*
X159404258Y-107640163D01*
X159404258Y-107736925D01*
X159791306Y-106720925D02*
X160468639Y-106720925D01*
X160033211Y-107736925D01*
X161339496Y-106720925D02*
X160855687Y-106720925D01*
X160807306Y-107204734D01*
X160855687Y-107156353D01*
X160952449Y-107107972D01*
X161194354Y-107107972D01*
X161291116Y-107156353D01*
X161339496Y-107204734D01*
X161387877Y-107301496D01*
X161387877Y-107543401D01*
X161339496Y-107640163D01*
X161291116Y-107688544D01*
X161194354Y-107736925D01*
X160952449Y-107736925D01*
X160855687Y-107688544D01*
X160807306Y-107640163D01*
X161823306Y-106720925D02*
X161823306Y-106769306D01*
X161774925Y-106866067D01*
X161726544Y-106914448D01*
X162210354Y-106720925D02*
X162210354Y-106769306D01*
X162161973Y-106866067D01*
X162113592Y-106914448D01*
X163323116Y-106672544D02*
X162452258Y-107978829D01*
X164097211Y-107059591D02*
X164097211Y-107736925D01*
X163855306Y-106672544D02*
X163613401Y-107398258D01*
X164242354Y-107398258D01*
X165064830Y-107059591D02*
X165064830Y-107736925D01*
X164822925Y-106672544D02*
X164581020Y-107398258D01*
X165209973Y-107398258D01*
X165597020Y-107736925D02*
X165597020Y-107059591D01*
X165597020Y-107156353D02*
X165645401Y-107107972D01*
X165742163Y-107059591D01*
X165887306Y-107059591D01*
X165984068Y-107107972D01*
X166032449Y-107204734D01*
X166032449Y-107736925D01*
X166032449Y-107204734D02*
X166080830Y-107107972D01*
X166177592Y-107059591D01*
X166322735Y-107059591D01*
X166419496Y-107107972D01*
X166467877Y-107204734D01*
X166467877Y-107736925D01*
X166951687Y-107736925D02*
X166951687Y-107059591D01*
X166951687Y-107156353D02*
X167000068Y-107107972D01*
X167096830Y-107059591D01*
X167241973Y-107059591D01*
X167338735Y-107107972D01*
X167387116Y-107204734D01*
X167387116Y-107736925D01*
X167387116Y-107204734D02*
X167435496Y-107107972D01*
X167532258Y-107059591D01*
X167677401Y-107059591D01*
X167774163Y-107107972D01*
X167822544Y-107204734D01*
X167822544Y-107736925D01*
X169080449Y-107736925D02*
X169080449Y-106720925D01*
X169564258Y-107640163D02*
X169612639Y-107688544D01*
X169564258Y-107736925D01*
X169515877Y-107688544D01*
X169564258Y-107640163D01*
X169564258Y-107736925D01*
X170048068Y-107736925D02*
X170048068Y-106720925D01*
X170289973Y-106720925D01*
X170435116Y-106769306D01*
X170531877Y-106866067D01*
X170580258Y-106962829D01*
X170628639Y-107156353D01*
X170628639Y-107301496D01*
X170580258Y-107495020D01*
X170531877Y-107591782D01*
X170435116Y-107688544D01*
X170289973Y-107736925D01*
X170048068Y-107736925D01*
X171064068Y-107640163D02*
X171112449Y-107688544D01*
X171064068Y-107736925D01*
X171015687Y-107688544D01*
X171064068Y-107640163D01*
X171064068Y-107736925D01*
X141696830Y-108929515D02*
X141696830Y-109123039D01*
X141745211Y-109123039D02*
X141745211Y-108929515D01*
X141793592Y-108881134D02*
X141793592Y-109171420D01*
X141841973Y-109123039D02*
X141841973Y-108929515D01*
X141890354Y-108929515D02*
X141890354Y-109123039D01*
X141696830Y-109074658D02*
X141793592Y-109171420D01*
X141890354Y-109074658D01*
X141696830Y-108977896D02*
X141793592Y-108881134D01*
X141890354Y-108977896D01*
X141696830Y-108929515D02*
X141793592Y-108881134D01*
X141890354Y-108929515D01*
X141938735Y-109026277D01*
X141890354Y-109123039D01*
X141793592Y-109171420D01*
X141696830Y-109123039D01*
X141648449Y-109026277D01*
X141696830Y-108929515D01*
X143873973Y-109364944D02*
X143777211Y-109413325D01*
X143583687Y-109413325D01*
X143486925Y-109364944D01*
X143438544Y-109316563D01*
X143390163Y-109219801D01*
X143390163Y-108929515D01*
X143438544Y-108832753D01*
X143486925Y-108784372D01*
X143583687Y-108735991D01*
X143777211Y-108735991D01*
X143873973Y-108784372D01*
X144454544Y-109413325D02*
X144357782Y-109364944D01*
X144309401Y-109316563D01*
X144261020Y-109219801D01*
X144261020Y-108929515D01*
X144309401Y-108832753D01*
X144357782Y-108784372D01*
X144454544Y-108735991D01*
X144599687Y-108735991D01*
X144696449Y-108784372D01*
X144744830Y-108832753D01*
X144793211Y-108929515D01*
X144793211Y-109219801D01*
X144744830Y-109316563D01*
X144696449Y-109364944D01*
X144599687Y-109413325D01*
X144454544Y-109413325D01*
X145228639Y-108735991D02*
X145228639Y-109413325D01*
X145228639Y-108832753D02*
X145277020Y-108784372D01*
X145373782Y-108735991D01*
X145518925Y-108735991D01*
X145615687Y-108784372D01*
X145664068Y-108881134D01*
X145664068Y-109413325D01*
X146147877Y-108735991D02*
X146147877Y-109413325D01*
X146147877Y-108832753D02*
X146196258Y-108784372D01*
X146293020Y-108735991D01*
X146438163Y-108735991D01*
X146534925Y-108784372D01*
X146583306Y-108881134D01*
X146583306Y-109413325D01*
X147454163Y-109364944D02*
X147357401Y-109413325D01*
X147163877Y-109413325D01*
X147067116Y-109364944D01*
X147018735Y-109268182D01*
X147018735Y-108881134D01*
X147067116Y-108784372D01*
X147163877Y-108735991D01*
X147357401Y-108735991D01*
X147454163Y-108784372D01*
X147502544Y-108881134D01*
X147502544Y-108977896D01*
X147018735Y-109074658D01*
X148373401Y-109364944D02*
X148276639Y-109413325D01*
X148083116Y-109413325D01*
X147986354Y-109364944D01*
X147937973Y-109316563D01*
X147889592Y-109219801D01*
X147889592Y-108929515D01*
X147937973Y-108832753D01*
X147986354Y-108784372D01*
X148083116Y-108735991D01*
X148276639Y-108735991D01*
X148373401Y-108784372D01*
X148663687Y-108735991D02*
X149050735Y-108735991D01*
X148808830Y-108397325D02*
X148808830Y-109268182D01*
X148857211Y-109364944D01*
X148953973Y-109413325D01*
X149050735Y-109413325D01*
X150550544Y-109364944D02*
X150453782Y-109413325D01*
X150260258Y-109413325D01*
X150163496Y-109364944D01*
X150115116Y-109268182D01*
X150115116Y-108881134D01*
X150163496Y-108784372D01*
X150260258Y-108735991D01*
X150453782Y-108735991D01*
X150550544Y-108784372D01*
X150598925Y-108881134D01*
X150598925Y-108977896D01*
X150115116Y-109074658D01*
X151034354Y-109413325D02*
X151034354Y-108735991D01*
X151034354Y-108397325D02*
X150985973Y-108445706D01*
X151034354Y-108494086D01*
X151082735Y-108445706D01*
X151034354Y-108397325D01*
X151034354Y-108494086D01*
X151373020Y-108735991D02*
X151760068Y-108735991D01*
X151518163Y-108397325D02*
X151518163Y-109268182D01*
X151566544Y-109364944D01*
X151663306Y-109413325D01*
X151760068Y-109413325D01*
X152098735Y-109413325D02*
X152098735Y-108397325D01*
X152534163Y-109413325D02*
X152534163Y-108881134D01*
X152485782Y-108784372D01*
X152389020Y-108735991D01*
X152243877Y-108735991D01*
X152147116Y-108784372D01*
X152098735Y-108832753D01*
X153405020Y-109364944D02*
X153308258Y-109413325D01*
X153114735Y-109413325D01*
X153017973Y-109364944D01*
X152969592Y-109268182D01*
X152969592Y-108881134D01*
X153017973Y-108784372D01*
X153114735Y-108735991D01*
X153308258Y-108735991D01*
X153405020Y-108784372D01*
X153453401Y-108881134D01*
X153453401Y-108977896D01*
X152969592Y-109074658D01*
X153888830Y-109413325D02*
X153888830Y-108735991D01*
X153888830Y-108929515D02*
X153937211Y-108832753D01*
X153985592Y-108784372D01*
X154082354Y-108735991D01*
X154179116Y-108735991D01*
X155437020Y-109413325D02*
X155340258Y-109364944D01*
X155291877Y-109316563D01*
X155243496Y-109219801D01*
X155243496Y-108929515D01*
X155291877Y-108832753D01*
X155340258Y-108784372D01*
X155437020Y-108735991D01*
X155582163Y-108735991D01*
X155678925Y-108784372D01*
X155727306Y-108832753D01*
X155775687Y-108929515D01*
X155775687Y-109219801D01*
X155727306Y-109316563D01*
X155678925Y-109364944D01*
X155582163Y-109413325D01*
X155437020Y-109413325D01*
X156646544Y-108735991D02*
X156646544Y-109413325D01*
X156211116Y-108735991D02*
X156211116Y-109268182D01*
X156259496Y-109364944D01*
X156356258Y-109413325D01*
X156501401Y-109413325D01*
X156598163Y-109364944D01*
X156646544Y-109316563D01*
X156985211Y-108735991D02*
X157372258Y-108735991D01*
X157130354Y-108397325D02*
X157130354Y-109268182D01*
X157178735Y-109364944D01*
X157275496Y-109413325D01*
X157372258Y-109413325D01*
X158339877Y-108735991D02*
X158726925Y-108735991D01*
X158485020Y-108397325D02*
X158485020Y-109268182D01*
X158533401Y-109364944D01*
X158630163Y-109413325D01*
X158726925Y-109413325D01*
X159210735Y-109413325D02*
X159113973Y-109364944D01*
X159065592Y-109316563D01*
X159017211Y-109219801D01*
X159017211Y-108929515D01*
X159065592Y-108832753D01*
X159113973Y-108784372D01*
X159210735Y-108735991D01*
X159355877Y-108735991D01*
X159452639Y-108784372D01*
X159501020Y-108832753D01*
X159549401Y-108929515D01*
X159549401Y-109219801D01*
X159501020Y-109316563D01*
X159452639Y-109364944D01*
X159355877Y-109413325D01*
X159210735Y-109413325D01*
X160758925Y-109413325D02*
X160758925Y-108397325D01*
X161145973Y-108397325D01*
X161242735Y-108445706D01*
X161291116Y-108494086D01*
X161339496Y-108590848D01*
X161339496Y-108735991D01*
X161291116Y-108832753D01*
X161242735Y-108881134D01*
X161145973Y-108929515D01*
X160758925Y-108929515D01*
X161968449Y-108397325D02*
X162161973Y-108397325D01*
X162258735Y-108445706D01*
X162355496Y-108542467D01*
X162403877Y-108735991D01*
X162403877Y-109074658D01*
X162355496Y-109268182D01*
X162258735Y-109364944D01*
X162161973Y-109413325D01*
X161968449Y-109413325D01*
X161871687Y-109364944D01*
X161774925Y-109268182D01*
X161726544Y-109074658D01*
X161726544Y-108735991D01*
X161774925Y-108542467D01*
X161871687Y-108445706D01*
X161968449Y-108397325D01*
X163613401Y-109413325D02*
X163613401Y-108735991D01*
X163613401Y-108397325D02*
X163565020Y-108445706D01*
X163613401Y-108494086D01*
X163661782Y-108445706D01*
X163613401Y-108397325D01*
X163613401Y-108494086D01*
X164097211Y-108735991D02*
X164097211Y-109413325D01*
X164097211Y-108832753D02*
X164145592Y-108784372D01*
X164242354Y-108735991D01*
X164387496Y-108735991D01*
X164484258Y-108784372D01*
X164532639Y-108881134D01*
X164532639Y-109413325D01*
X165016449Y-108735991D02*
X165016449Y-109751991D01*
X165016449Y-108784372D02*
X165113211Y-108735991D01*
X165306735Y-108735991D01*
X165403496Y-108784372D01*
X165451877Y-108832753D01*
X165500258Y-108929515D01*
X165500258Y-109219801D01*
X165451877Y-109316563D01*
X165403496Y-109364944D01*
X165306735Y-109413325D01*
X165113211Y-109413325D01*
X165016449Y-109364944D01*
X166371116Y-108735991D02*
X166371116Y-109413325D01*
X165935687Y-108735991D02*
X165935687Y-109268182D01*
X165984068Y-109364944D01*
X166080830Y-109413325D01*
X166225973Y-109413325D01*
X166322735Y-109364944D01*
X166371116Y-109316563D01*
X166709782Y-108735991D02*
X167096830Y-108735991D01*
X166854925Y-108397325D02*
X166854925Y-109268182D01*
X166903306Y-109364944D01*
X167000068Y-109413325D01*
X167096830Y-109413325D01*
X143704639Y-110605915D02*
X143704639Y-110799439D01*
X143753020Y-110799439D02*
X143753020Y-110605915D01*
X143801401Y-110557534D02*
X143801401Y-110847820D01*
X143849782Y-110799439D02*
X143849782Y-110605915D01*
X143898163Y-110605915D02*
X143898163Y-110799439D01*
X143704639Y-110751058D02*
X143801401Y-110847820D01*
X143898163Y-110751058D01*
X143704639Y-110654296D02*
X143801401Y-110557534D01*
X143898163Y-110654296D01*
X143704639Y-110605915D02*
X143801401Y-110557534D01*
X143898163Y-110605915D01*
X143946544Y-110702677D01*
X143898163Y-110799439D01*
X143801401Y-110847820D01*
X143704639Y-110799439D01*
X143656258Y-110702677D01*
X143704639Y-110605915D01*
X145397973Y-111041344D02*
X145494735Y-111089725D01*
X145688258Y-111089725D01*
X145785020Y-111041344D01*
X145833401Y-110944582D01*
X145833401Y-110896201D01*
X145785020Y-110799439D01*
X145688258Y-110751058D01*
X145543116Y-110751058D01*
X145446354Y-110702677D01*
X145397973Y-110605915D01*
X145397973Y-110557534D01*
X145446354Y-110460772D01*
X145543116Y-110412391D01*
X145688258Y-110412391D01*
X145785020Y-110460772D01*
X146655877Y-111041344D02*
X146559116Y-111089725D01*
X146365592Y-111089725D01*
X146268830Y-111041344D01*
X146220449Y-110944582D01*
X146220449Y-110557534D01*
X146268830Y-110460772D01*
X146365592Y-110412391D01*
X146559116Y-110412391D01*
X146655877Y-110460772D01*
X146704258Y-110557534D01*
X146704258Y-110654296D01*
X146220449Y-110751058D01*
X146994544Y-110412391D02*
X147381592Y-110412391D01*
X147139687Y-110073725D02*
X147139687Y-110944582D01*
X147188068Y-111041344D01*
X147284830Y-111089725D01*
X147381592Y-111089725D01*
X148494354Y-111089725D02*
X148494354Y-110073725D01*
X148881401Y-110073725D01*
X148978163Y-110122106D01*
X149026544Y-110170486D01*
X149074925Y-110267248D01*
X149074925Y-110412391D01*
X149026544Y-110509153D01*
X148978163Y-110557534D01*
X148881401Y-110605915D01*
X148494354Y-110605915D01*
X149703877Y-110073725D02*
X149897401Y-110073725D01*
X149994163Y-110122106D01*
X150090925Y-110218867D01*
X150139306Y-110412391D01*
X150139306Y-110751058D01*
X150090925Y-110944582D01*
X149994163Y-111041344D01*
X149897401Y-111089725D01*
X149703877Y-111089725D01*
X149607116Y-111041344D01*
X149510354Y-110944582D01*
X149461973Y-110751058D01*
X149461973Y-110412391D01*
X149510354Y-110218867D01*
X149607116Y-110122106D01*
X149703877Y-110073725D01*
X151300449Y-111041344D02*
X151397211Y-111089725D01*
X151590735Y-111089725D01*
X151687496Y-111041344D01*
X151735877Y-110944582D01*
X151735877Y-110896201D01*
X151687496Y-110799439D01*
X151590735Y-110751058D01*
X151445592Y-110751058D01*
X151348830Y-110702677D01*
X151300449Y-110605915D01*
X151300449Y-110557534D01*
X151348830Y-110460772D01*
X151445592Y-110412391D01*
X151590735Y-110412391D01*
X151687496Y-110460772D01*
X152074544Y-110412391D02*
X152316449Y-111089725D01*
X152558354Y-110412391D02*
X152316449Y-111089725D01*
X152219687Y-111331629D01*
X152171306Y-111380010D01*
X152074544Y-111428391D01*
X152945401Y-110412391D02*
X152945401Y-111089725D01*
X152945401Y-110509153D02*
X152993782Y-110460772D01*
X153090544Y-110412391D01*
X153235687Y-110412391D01*
X153332449Y-110460772D01*
X153380830Y-110557534D01*
X153380830Y-111089725D01*
X154300068Y-111041344D02*
X154203306Y-111089725D01*
X154009782Y-111089725D01*
X153913020Y-111041344D01*
X153864639Y-110992963D01*
X153816258Y-110896201D01*
X153816258Y-110605915D01*
X153864639Y-110509153D01*
X153913020Y-110460772D01*
X154009782Y-110412391D01*
X154203306Y-110412391D01*
X154300068Y-110460772D01*
X155509592Y-111089725D02*
X155509592Y-110412391D01*
X155509592Y-110509153D02*
X155557973Y-110460772D01*
X155654735Y-110412391D01*
X155799877Y-110412391D01*
X155896639Y-110460772D01*
X155945020Y-110557534D01*
X155945020Y-111089725D01*
X155945020Y-110557534D02*
X155993401Y-110460772D01*
X156090163Y-110412391D01*
X156235306Y-110412391D01*
X156332068Y-110460772D01*
X156380449Y-110557534D01*
X156380449Y-111089725D01*
X157009401Y-111089725D02*
X156912639Y-111041344D01*
X156864258Y-110992963D01*
X156815877Y-110896201D01*
X156815877Y-110605915D01*
X156864258Y-110509153D01*
X156912639Y-110460772D01*
X157009401Y-110412391D01*
X157154544Y-110412391D01*
X157251306Y-110460772D01*
X157299687Y-110509153D01*
X157348068Y-110605915D01*
X157348068Y-110896201D01*
X157299687Y-110992963D01*
X157251306Y-111041344D01*
X157154544Y-111089725D01*
X157009401Y-111089725D01*
X158218925Y-111089725D02*
X158218925Y-110073725D01*
X158218925Y-111041344D02*
X158122163Y-111089725D01*
X157928639Y-111089725D01*
X157831877Y-111041344D01*
X157783496Y-110992963D01*
X157735116Y-110896201D01*
X157735116Y-110605915D01*
X157783496Y-110509153D01*
X157831877Y-110460772D01*
X157928639Y-110412391D01*
X158122163Y-110412391D01*
X158218925Y-110460772D01*
X159089782Y-111041344D02*
X158993020Y-111089725D01*
X158799496Y-111089725D01*
X158702735Y-111041344D01*
X158654354Y-110944582D01*
X158654354Y-110557534D01*
X158702735Y-110460772D01*
X158799496Y-110412391D01*
X158993020Y-110412391D01*
X159089782Y-110460772D01*
X159138163Y-110557534D01*
X159138163Y-110654296D01*
X158654354Y-110751058D01*
X160202544Y-110412391D02*
X160589592Y-110412391D01*
X160347687Y-110073725D02*
X160347687Y-110944582D01*
X160396068Y-111041344D01*
X160492830Y-111089725D01*
X160589592Y-111089725D01*
X161073401Y-111089725D02*
X160976639Y-111041344D01*
X160928258Y-110992963D01*
X160879877Y-110896201D01*
X160879877Y-110605915D01*
X160928258Y-110509153D01*
X160976639Y-110460772D01*
X161073401Y-110412391D01*
X161218544Y-110412391D01*
X161315306Y-110460772D01*
X161363687Y-110509153D01*
X161412068Y-110605915D01*
X161412068Y-110896201D01*
X161363687Y-110992963D01*
X161315306Y-111041344D01*
X161218544Y-111089725D01*
X161073401Y-111089725D01*
X162573211Y-111041344D02*
X162718354Y-111089725D01*
X162960258Y-111089725D01*
X163057020Y-111041344D01*
X163105401Y-110992963D01*
X163153782Y-110896201D01*
X163153782Y-110799439D01*
X163105401Y-110702677D01*
X163057020Y-110654296D01*
X162960258Y-110605915D01*
X162766735Y-110557534D01*
X162669973Y-110509153D01*
X162621592Y-110460772D01*
X162573211Y-110364010D01*
X162573211Y-110267248D01*
X162621592Y-110170486D01*
X162669973Y-110122106D01*
X162766735Y-110073725D01*
X163008639Y-110073725D01*
X163153782Y-110122106D01*
X163782735Y-110605915D02*
X163782735Y-111089725D01*
X163444068Y-110073725D02*
X163782735Y-110605915D01*
X164121401Y-110073725D01*
X164895496Y-110412391D02*
X164895496Y-111089725D01*
X164653592Y-110025344D02*
X164411687Y-110751058D01*
X165040639Y-110751058D01*
X141479116Y-112282315D02*
X141479116Y-112475839D01*
X141527496Y-112475839D02*
X141527496Y-112282315D01*
X141575877Y-112233934D02*
X141575877Y-112524220D01*
X141624258Y-112475839D02*
X141624258Y-112282315D01*
X141672639Y-112282315D02*
X141672639Y-112475839D01*
X141479116Y-112427458D02*
X141575877Y-112524220D01*
X141672639Y-112427458D01*
X141479116Y-112330696D02*
X141575877Y-112233934D01*
X141672639Y-112330696D01*
X141479116Y-112282315D02*
X141575877Y-112233934D01*
X141672639Y-112282315D01*
X141721020Y-112379077D01*
X141672639Y-112475839D01*
X141575877Y-112524220D01*
X141479116Y-112475839D01*
X141430735Y-112379077D01*
X141479116Y-112282315D01*
X143172449Y-112717744D02*
X143269211Y-112766125D01*
X143462735Y-112766125D01*
X143559496Y-112717744D01*
X143607877Y-112620982D01*
X143607877Y-112572601D01*
X143559496Y-112475839D01*
X143462735Y-112427458D01*
X143317592Y-112427458D01*
X143220830Y-112379077D01*
X143172449Y-112282315D01*
X143172449Y-112233934D01*
X143220830Y-112137172D01*
X143317592Y-112088791D01*
X143462735Y-112088791D01*
X143559496Y-112137172D01*
X144043306Y-112766125D02*
X144043306Y-111750125D01*
X144478735Y-112766125D02*
X144478735Y-112233934D01*
X144430354Y-112137172D01*
X144333592Y-112088791D01*
X144188449Y-112088791D01*
X144091687Y-112137172D01*
X144043306Y-112185553D01*
X145397973Y-112766125D02*
X145397973Y-112233934D01*
X145349592Y-112137172D01*
X145252830Y-112088791D01*
X145059306Y-112088791D01*
X144962544Y-112137172D01*
X145397973Y-112717744D02*
X145301211Y-112766125D01*
X145059306Y-112766125D01*
X144962544Y-112717744D01*
X144914163Y-112620982D01*
X144914163Y-112524220D01*
X144962544Y-112427458D01*
X145059306Y-112379077D01*
X145301211Y-112379077D01*
X145397973Y-112330696D01*
X145881782Y-112766125D02*
X145881782Y-111750125D01*
X145978544Y-112379077D02*
X146268830Y-112766125D01*
X146268830Y-112088791D02*
X145881782Y-112475839D01*
X147091306Y-112717744D02*
X146994544Y-112766125D01*
X146801020Y-112766125D01*
X146704258Y-112717744D01*
X146655877Y-112620982D01*
X146655877Y-112233934D01*
X146704258Y-112137172D01*
X146801020Y-112088791D01*
X146994544Y-112088791D01*
X147091306Y-112137172D01*
X147139687Y-112233934D01*
X147139687Y-112330696D01*
X146655877Y-112427458D01*
X148349211Y-112766125D02*
X148349211Y-112088791D01*
X148349211Y-111750125D02*
X148300830Y-111798506D01*
X148349211Y-111846886D01*
X148397592Y-111798506D01*
X148349211Y-111750125D01*
X148349211Y-111846886D01*
X148687877Y-112088791D02*
X149074925Y-112088791D01*
X148833020Y-111750125D02*
X148833020Y-112620982D01*
X148881401Y-112717744D01*
X148978163Y-112766125D01*
X149074925Y-112766125D01*
X150332830Y-112766125D02*
X150236068Y-112717744D01*
X150187687Y-112620982D01*
X150187687Y-111750125D01*
X150719877Y-112766125D02*
X150719877Y-112088791D01*
X150719877Y-111750125D02*
X150671496Y-111798506D01*
X150719877Y-111846886D01*
X150768258Y-111798506D01*
X150719877Y-111750125D01*
X150719877Y-111846886D01*
X151203687Y-112766125D02*
X151203687Y-111750125D01*
X151300449Y-112379077D02*
X151590735Y-112766125D01*
X151590735Y-112088791D02*
X151203687Y-112475839D01*
X152413211Y-112717744D02*
X152316449Y-112766125D01*
X152122925Y-112766125D01*
X152026163Y-112717744D01*
X151977782Y-112620982D01*
X151977782Y-112233934D01*
X152026163Y-112137172D01*
X152122925Y-112088791D01*
X152316449Y-112088791D01*
X152413211Y-112137172D01*
X152461592Y-112233934D01*
X152461592Y-112330696D01*
X151977782Y-112427458D01*
X154106544Y-112766125D02*
X154106544Y-112233934D01*
X154058163Y-112137172D01*
X153961401Y-112088791D01*
X153767877Y-112088791D01*
X153671116Y-112137172D01*
X154106544Y-112717744D02*
X154009782Y-112766125D01*
X153767877Y-112766125D01*
X153671116Y-112717744D01*
X153622735Y-112620982D01*
X153622735Y-112524220D01*
X153671116Y-112427458D01*
X153767877Y-112379077D01*
X154009782Y-112379077D01*
X154106544Y-112330696D01*
X155364449Y-112088791D02*
X155364449Y-113104791D01*
X155364449Y-112137172D02*
X155461211Y-112088791D01*
X155654735Y-112088791D01*
X155751496Y-112137172D01*
X155799877Y-112185553D01*
X155848258Y-112282315D01*
X155848258Y-112572601D01*
X155799877Y-112669363D01*
X155751496Y-112717744D01*
X155654735Y-112766125D01*
X155461211Y-112766125D01*
X155364449Y-112717744D01*
X156428830Y-112766125D02*
X156332068Y-112717744D01*
X156283687Y-112669363D01*
X156235306Y-112572601D01*
X156235306Y-112282315D01*
X156283687Y-112185553D01*
X156332068Y-112137172D01*
X156428830Y-112088791D01*
X156573973Y-112088791D01*
X156670735Y-112137172D01*
X156719116Y-112185553D01*
X156767496Y-112282315D01*
X156767496Y-112572601D01*
X156719116Y-112669363D01*
X156670735Y-112717744D01*
X156573973Y-112766125D01*
X156428830Y-112766125D01*
X157348068Y-112766125D02*
X157251306Y-112717744D01*
X157202925Y-112620982D01*
X157202925Y-111750125D01*
X158170544Y-112766125D02*
X158170544Y-112233934D01*
X158122163Y-112137172D01*
X158025401Y-112088791D01*
X157831877Y-112088791D01*
X157735116Y-112137172D01*
X158170544Y-112717744D02*
X158073782Y-112766125D01*
X157831877Y-112766125D01*
X157735116Y-112717744D01*
X157686735Y-112620982D01*
X157686735Y-112524220D01*
X157735116Y-112427458D01*
X157831877Y-112379077D01*
X158073782Y-112379077D01*
X158170544Y-112330696D01*
X158654354Y-112766125D02*
X158654354Y-112088791D01*
X158654354Y-112282315D02*
X158702735Y-112185553D01*
X158751116Y-112137172D01*
X158847877Y-112088791D01*
X158944639Y-112088791D01*
X159428449Y-112766125D02*
X159331687Y-112717744D01*
X159283306Y-112669363D01*
X159234925Y-112572601D01*
X159234925Y-112282315D01*
X159283306Y-112185553D01*
X159331687Y-112137172D01*
X159428449Y-112088791D01*
X159573592Y-112088791D01*
X159670354Y-112137172D01*
X159718735Y-112185553D01*
X159767116Y-112282315D01*
X159767116Y-112572601D01*
X159718735Y-112669363D01*
X159670354Y-112717744D01*
X159573592Y-112766125D01*
X159428449Y-112766125D01*
X160202544Y-112766125D02*
X160202544Y-112088791D01*
X160202544Y-111750125D02*
X160154163Y-111798506D01*
X160202544Y-111846886D01*
X160250925Y-111798506D01*
X160202544Y-111750125D01*
X160202544Y-111846886D01*
X161121782Y-112766125D02*
X161121782Y-111750125D01*
X161121782Y-112717744D02*
X161025020Y-112766125D01*
X160831496Y-112766125D01*
X160734735Y-112717744D01*
X160686354Y-112669363D01*
X160637973Y-112572601D01*
X160637973Y-112282315D01*
X160686354Y-112185553D01*
X160734735Y-112137172D01*
X160831496Y-112088791D01*
X161025020Y-112088791D01*
X161121782Y-112137172D01*
X162379687Y-112088791D02*
X162379687Y-113104791D01*
X162379687Y-112137172D02*
X162476449Y-112088791D01*
X162669973Y-112088791D01*
X162766735Y-112137172D01*
X162815116Y-112185553D01*
X162863496Y-112282315D01*
X162863496Y-112572601D01*
X162815116Y-112669363D01*
X162766735Y-112717744D01*
X162669973Y-112766125D01*
X162476449Y-112766125D01*
X162379687Y-112717744D01*
X163298925Y-112766125D02*
X163298925Y-112088791D01*
X163298925Y-111750125D02*
X163250544Y-111798506D01*
X163298925Y-111846886D01*
X163347306Y-111798506D01*
X163298925Y-111750125D01*
X163298925Y-111846886D01*
X164218163Y-112717744D02*
X164121401Y-112766125D01*
X163927877Y-112766125D01*
X163831116Y-112717744D01*
X163782735Y-112669363D01*
X163734354Y-112572601D01*
X163734354Y-112282315D01*
X163782735Y-112185553D01*
X163831116Y-112137172D01*
X163927877Y-112088791D01*
X164121401Y-112088791D01*
X164218163Y-112137172D01*
X164508449Y-112088791D02*
X164895496Y-112088791D01*
X164653592Y-111750125D02*
X164653592Y-112620982D01*
X164701973Y-112717744D01*
X164798735Y-112766125D01*
X164895496Y-112766125D01*
X165669592Y-112088791D02*
X165669592Y-112766125D01*
X165234163Y-112088791D02*
X165234163Y-112620982D01*
X165282544Y-112717744D01*
X165379306Y-112766125D01*
X165524449Y-112766125D01*
X165621211Y-112717744D01*
X165669592Y-112669363D01*
X166153401Y-112766125D02*
X166153401Y-112088791D01*
X166153401Y-112282315D02*
X166201782Y-112185553D01*
X166250163Y-112137172D01*
X166346925Y-112088791D01*
X166443687Y-112088791D01*
X167169401Y-112717744D02*
X167072639Y-112766125D01*
X166879116Y-112766125D01*
X166782354Y-112717744D01*
X166733973Y-112620982D01*
X166733973Y-112233934D01*
X166782354Y-112137172D01*
X166879116Y-112088791D01*
X167072639Y-112088791D01*
X167169401Y-112137172D01*
X167217782Y-112233934D01*
X167217782Y-112330696D01*
X166733973Y-112427458D01*
D10*
G36*
X161599116Y-119751906D02*
G01*
X161619116Y-120401906D01*
X161459116Y-120571906D01*
X161379116Y-119801906D01*
X161679116Y-118861906D01*
X161599116Y-119751906D01*
G37*
X161599116Y-119751906D02*
X161619116Y-120401906D01*
X161459116Y-120571906D01*
X161379116Y-119801906D01*
X161679116Y-118861906D01*
X161599116Y-119751906D01*
G36*
X162389116Y-119901906D02*
G01*
X162089116Y-120001906D01*
X162229116Y-118081906D01*
X162389116Y-119901906D01*
G37*
X162389116Y-119901906D02*
X162089116Y-120001906D01*
X162229116Y-118081906D01*
X162389116Y-119901906D01*
G36*
X162909116Y-119581906D02*
G01*
X162689116Y-119581906D01*
X162879116Y-118021906D01*
X162909116Y-119581906D01*
G37*
X162909116Y-119581906D02*
X162689116Y-119581906D01*
X162879116Y-118021906D01*
X162909116Y-119581906D01*
G36*
X163639116Y-119421906D02*
G01*
X163329116Y-119511906D01*
X163289116Y-119531906D01*
X163259116Y-118061906D01*
X163639116Y-119421906D01*
G37*
X163639116Y-119421906D02*
X163329116Y-119511906D01*
X163289116Y-119531906D01*
X163259116Y-118061906D01*
X163639116Y-119421906D01*
G36*
X176669116Y-130371906D02*
G01*
X171629116Y-129541906D01*
X171759116Y-128991906D01*
X176669116Y-130371906D01*
G37*
X176669116Y-130371906D02*
X171629116Y-129541906D01*
X171759116Y-128991906D01*
X176669116Y-130371906D01*
G36*
X172809116Y-120041906D02*
G01*
X172729116Y-119591906D01*
X172809116Y-119591906D01*
X176589116Y-119471906D01*
X172809116Y-120041906D01*
G37*
X172809116Y-120041906D02*
X172729116Y-119591906D01*
X172809116Y-119591906D01*
X176589116Y-119471906D01*
X172809116Y-120041906D01*
G36*
X169809116Y-129801906D02*
G01*
X165589116Y-132381906D01*
X169079116Y-129371906D01*
X169809116Y-129801906D01*
G37*
X169809116Y-129801906D02*
X165589116Y-132381906D01*
X169079116Y-129371906D01*
X169809116Y-129801906D01*
G36*
X171659116Y-131331906D02*
G01*
X166579116Y-133621906D01*
X170739116Y-130531906D01*
X171659116Y-131331906D01*
G37*
X171659116Y-131331906D02*
X166579116Y-133621906D01*
X170739116Y-130531906D01*
X171659116Y-131331906D01*
G36*
X183279116Y-137641906D02*
G01*
X183009116Y-137651906D01*
X183009116Y-137601906D01*
X183229116Y-134171906D01*
X183279116Y-137641906D01*
G37*
X183279116Y-137641906D02*
X183009116Y-137651906D01*
X183009116Y-137601906D01*
X183229116Y-134171906D01*
X183279116Y-137641906D01*
G36*
X183199116Y-139521906D02*
G01*
X182959116Y-139521906D01*
X182959116Y-138771906D01*
X183179116Y-138751906D01*
X183199116Y-139521906D01*
G37*
X183199116Y-139521906D02*
X182959116Y-139521906D01*
X182959116Y-138771906D01*
X183179116Y-138751906D01*
X183199116Y-139521906D01*
G36*
X183249116Y-141311906D02*
G01*
X183249116Y-141891906D01*
X182829116Y-141901906D01*
X182879116Y-141301906D01*
X183249116Y-141311906D01*
G37*
X183249116Y-141311906D02*
X183249116Y-141891906D01*
X182829116Y-141901906D01*
X182879116Y-141301906D01*
X183249116Y-141311906D01*
G36*
X183279116Y-143901906D02*
G01*
X182739116Y-143921906D01*
X182809116Y-143221906D01*
X183319116Y-143211906D01*
X183279116Y-143901906D01*
G37*
X183279116Y-143901906D02*
X182739116Y-143921906D01*
X182809116Y-143221906D01*
X183319116Y-143211906D01*
X183279116Y-143901906D01*
G36*
X183319116Y-146181906D02*
G01*
X182599116Y-146261906D01*
X182679116Y-145401906D01*
X183279116Y-145391906D01*
X183319116Y-146181906D01*
G37*
X183319116Y-146181906D02*
X182599116Y-146261906D01*
X182679116Y-145401906D01*
X183279116Y-145391906D01*
X183319116Y-146181906D01*
G36*
X183309116Y-147811906D02*
G01*
X183379116Y-148451906D01*
X182589116Y-148501906D01*
X182569116Y-147781906D01*
X183309116Y-147811906D01*
G37*
X183309116Y-147811906D02*
X183379116Y-148451906D01*
X182589116Y-148501906D01*
X182569116Y-147781906D01*
X183309116Y-147811906D01*
G36*
X183399116Y-150271906D02*
G01*
X182459116Y-150301906D01*
X182529116Y-149741906D01*
X183399116Y-149711906D01*
X183399116Y-150271906D01*
G37*
X183399116Y-150271906D02*
X182459116Y-150301906D01*
X182529116Y-149741906D01*
X183399116Y-149711906D01*
X183399116Y-150271906D01*
G36*
X183329116Y-152191906D02*
G01*
X182739116Y-152771906D01*
X181689116Y-151981906D01*
X182189116Y-151361906D01*
X183329116Y-152191906D01*
G37*
X183329116Y-152191906D02*
X182739116Y-152771906D01*
X181689116Y-151981906D01*
X182189116Y-151361906D01*
X183329116Y-152191906D01*
G36*
X180949116Y-153971906D02*
G01*
X180009116Y-154071906D01*
X179919116Y-153211906D01*
X180689116Y-152921906D01*
X180949116Y-153971906D01*
G37*
X180949116Y-153971906D02*
X180009116Y-154071906D01*
X179919116Y-153211906D01*
X180689116Y-152921906D01*
X180949116Y-153971906D01*
G36*
X178699116Y-154351906D02*
G01*
X178099116Y-154411906D01*
X178049116Y-153621906D01*
X178249116Y-153741906D01*
X178669116Y-153571906D01*
X178699116Y-154351906D01*
G37*
X178699116Y-154351906D02*
X178099116Y-154411906D01*
X178049116Y-153621906D01*
X178249116Y-153741906D01*
X178669116Y-153571906D01*
X178699116Y-154351906D01*
G36*
X177169116Y-153331906D02*
G01*
X176849116Y-154591906D01*
X176259116Y-154481906D01*
X176819116Y-153191906D01*
X177169116Y-153331906D01*
G37*
X177169116Y-153331906D02*
X176849116Y-154591906D01*
X176259116Y-154481906D01*
X176819116Y-153191906D01*
X177169116Y-153331906D01*
G36*
X176109116Y-152931906D02*
G01*
X175579116Y-154321906D01*
X175019116Y-154251906D01*
X175789116Y-152871906D01*
X176109116Y-152931906D01*
G37*
X176109116Y-152931906D02*
X175579116Y-154321906D01*
X175019116Y-154251906D01*
X175789116Y-152871906D01*
X176109116Y-152931906D01*
G36*
X175309116Y-152251906D02*
G01*
X173829116Y-153251906D01*
X173579116Y-152691906D01*
X175019116Y-151741906D01*
X175309116Y-152251906D01*
G37*
X175309116Y-152251906D02*
X173829116Y-153251906D01*
X173579116Y-152691906D01*
X175019116Y-151741906D01*
X175309116Y-152251906D01*
G36*
X174579116Y-150781906D02*
G01*
X173119116Y-151721906D01*
X172979116Y-151341906D01*
X174399116Y-150451906D01*
X174579116Y-150781906D01*
G37*
X174579116Y-150781906D02*
X173119116Y-151721906D01*
X172979116Y-151341906D01*
X174399116Y-150451906D01*
X174579116Y-150781906D01*
G36*
X174429116Y-149131906D02*
G01*
X174459116Y-149581906D01*
X170809116Y-149431906D01*
X174339116Y-149071906D01*
X174429116Y-149131906D01*
G37*
X174429116Y-149131906D02*
X174459116Y-149581906D01*
X170809116Y-149431906D01*
X174339116Y-149071906D01*
X174429116Y-149131906D01*
G36*
X174549116Y-147901906D02*
G01*
X174549116Y-148291906D01*
X170359116Y-147781906D01*
X174549116Y-147901906D01*
G37*
X174549116Y-147901906D02*
X174549116Y-148291906D01*
X170359116Y-147781906D01*
X174549116Y-147901906D01*
G36*
X174699116Y-146041906D02*
G01*
X174609116Y-147151906D01*
X168139116Y-145411906D01*
X174699116Y-146041906D01*
G37*
X174699116Y-146041906D02*
X174609116Y-147151906D01*
X168139116Y-145411906D01*
X174699116Y-146041906D01*
G36*
X174939116Y-144031906D02*
G01*
X174879116Y-145081906D01*
X167629116Y-143311906D01*
X174939116Y-144031906D01*
G37*
X174939116Y-144031906D02*
X174879116Y-145081906D01*
X167629116Y-143311906D01*
X174939116Y-144031906D01*
G36*
X174909116Y-142381906D02*
G01*
X174909116Y-143161906D01*
X166819116Y-141721906D01*
X174909116Y-142381906D01*
G37*
X174909116Y-142381906D02*
X174909116Y-143161906D01*
X166819116Y-141721906D01*
X174909116Y-142381906D01*
G36*
X175029116Y-140591906D02*
G01*
X174959116Y-141411906D01*
X166849116Y-140351906D01*
X175029116Y-140591906D01*
G37*
X175029116Y-140591906D02*
X174959116Y-141411906D01*
X166849116Y-140351906D01*
X175029116Y-140591906D01*
G36*
X175089116Y-139381906D02*
G01*
X166549116Y-139291906D01*
X175119116Y-138501906D01*
X175089116Y-139381906D01*
G37*
X175089116Y-139381906D02*
X166549116Y-139291906D01*
X175119116Y-138501906D01*
X175089116Y-139381906D01*
G36*
X175029116Y-137661906D02*
G01*
X166729116Y-137721906D01*
X174509116Y-136361906D01*
X175029116Y-137661906D01*
G37*
X175029116Y-137661906D02*
X166729116Y-137721906D01*
X174509116Y-136361906D01*
X175029116Y-137661906D01*
G36*
X174099116Y-135241906D02*
G01*
X166009116Y-136511906D01*
X173819116Y-134501906D01*
X174099116Y-135241906D01*
G37*
X174099116Y-135241906D02*
X166009116Y-136511906D01*
X173819116Y-134501906D01*
X174099116Y-135241906D01*
G36*
X173149116Y-132561906D02*
G01*
X173189116Y-132801906D01*
X165359116Y-135321906D01*
X172639116Y-132201906D01*
X173149116Y-132561906D01*
G37*
X173149116Y-132561906D02*
X173189116Y-132801906D01*
X165359116Y-135321906D01*
X172639116Y-132201906D01*
X173149116Y-132561906D01*
G36*
X144969116Y-57851906D02*
G01*
X144959116Y-57881906D01*
X145199116Y-57891906D01*
X145519116Y-58031906D01*
X145729116Y-58181906D01*
X145869116Y-58431906D01*
X145849116Y-58801906D01*
X144019116Y-58861906D01*
X141999116Y-58851906D01*
X142029116Y-58771906D01*
X143999116Y-58791906D01*
X143979116Y-58601906D01*
X144069116Y-58411906D01*
X144169116Y-58151906D01*
X144319116Y-57991906D01*
X144549116Y-57891906D01*
X144839116Y-57891906D01*
X144849116Y-57841906D01*
X144969116Y-57851906D01*
G37*
X144969116Y-57851906D02*
X144959116Y-57881906D01*
X145199116Y-57891906D01*
X145519116Y-58031906D01*
X145729116Y-58181906D01*
X145869116Y-58431906D01*
X145849116Y-58801906D01*
X144019116Y-58861906D01*
X141999116Y-58851906D01*
X142029116Y-58771906D01*
X143999116Y-58791906D01*
X143979116Y-58601906D01*
X144069116Y-58411906D01*
X144169116Y-58151906D01*
X144319116Y-57991906D01*
X144549116Y-57891906D01*
X144839116Y-57891906D01*
X144849116Y-57841906D01*
X144969116Y-57851906D01*
G36*
X143859116Y-63191906D02*
G01*
X143599116Y-63121906D01*
X145319116Y-60721906D01*
X145449116Y-60721906D01*
X143859116Y-63191906D01*
G37*
X143859116Y-63191906D02*
X143599116Y-63121906D01*
X145319116Y-60721906D01*
X145449116Y-60721906D01*
X143859116Y-63191906D01*
G36*
X143019116Y-62801906D02*
G01*
X142759116Y-62621906D01*
X144279116Y-60601906D01*
X144489116Y-60561906D01*
X143019116Y-62801906D01*
G37*
X143019116Y-62801906D02*
X142759116Y-62621906D01*
X144279116Y-60601906D01*
X144489116Y-60561906D01*
X143019116Y-62801906D01*
G36*
X144299116Y-63241906D02*
G01*
X142889116Y-63931906D01*
X135299116Y-66301906D01*
X133059116Y-65951906D01*
X142819116Y-62571906D01*
X144299116Y-63241906D01*
G37*
X144299116Y-63241906D02*
X142889116Y-63931906D01*
X135299116Y-66301906D01*
X133059116Y-65951906D01*
X142819116Y-62571906D01*
X144299116Y-63241906D01*
G36*
X146209116Y-60611906D02*
G01*
X145979116Y-60861906D01*
X143589116Y-60431906D01*
X143939116Y-60321906D01*
X146209116Y-60611906D01*
G37*
X146209116Y-60611906D02*
X145979116Y-60861906D01*
X143589116Y-60431906D01*
X143939116Y-60321906D01*
X146209116Y-60611906D01*
D11*
X182439116Y-51181906D02*
X182439116Y-49951906D01*
X181029116Y-50501906D02*
X182999116Y-50501906D01*
X182999116Y-50501906D02*
X182439116Y-51181906D01*
X182439116Y-49951906D02*
X183019116Y-50511906D01*
X127709116Y-50361906D02*
X125209116Y-50361906D01*
X125209116Y-50361906D02*
X125769116Y-49681906D01*
X125769116Y-50911906D02*
X125189116Y-50351906D01*
X125769116Y-49681906D02*
X125769116Y-50911906D01*
X127559116Y-61191906D02*
X125059116Y-61191906D01*
X125619116Y-61741906D02*
X125039116Y-61181906D01*
X125619116Y-60511906D02*
X125619116Y-61741906D01*
X125059116Y-61191906D02*
X125619116Y-60511906D01*
X181789116Y-61701906D02*
X181209116Y-61141906D01*
X181789116Y-60471906D02*
X181789116Y-61701906D01*
X181229116Y-61151906D02*
X181789116Y-60471906D01*
X183349116Y-61161906D02*
X181229116Y-61151906D01*
D12*
X156709116Y-66231906D02*
G75*
G03*
X156709116Y-66231906I-100000J0D01*
G01*
X155489116Y-66251906D02*
G75*
G03*
X155489116Y-66251906I-100000J0D01*
G01*
X154239116Y-66251906D02*
G75*
G03*
X154239116Y-66251906I-100000J0D01*
G01*
X152739116Y-66221906D02*
G75*
G03*
X152739116Y-66221906I-100000J0D01*
G01*
X170839116Y-127511906D02*
G75*
G03*
X170839116Y-127511906I-400000J0D01*
G01*
X170899116Y-121021906D02*
G75*
G03*
X170899116Y-121021906I-400000J0D01*
G01*
X145429116Y-59491906D02*
G75*
G03*
X145429116Y-59491906I-100000J0D01*
G01*
X153849116Y-123441906D02*
G75*
G03*
X153849116Y-123441906I-100000J0D01*
G01*
X155679116Y-123441906D02*
G75*
G03*
X155679116Y-123441906I-100000J0D01*
G01*
D13*
X127883401Y-60350477D02*
X128740544Y-60350477D01*
X128311973Y-61850477D02*
X128311973Y-60350477D01*
X129526258Y-60350477D02*
X129811973Y-60350477D01*
X129954830Y-60421906D01*
X130097687Y-60564763D01*
X130169116Y-60850477D01*
X130169116Y-61350477D01*
X130097687Y-61636191D01*
X129954830Y-61779048D01*
X129811973Y-61850477D01*
X129526258Y-61850477D01*
X129383401Y-61779048D01*
X129240544Y-61636191D01*
X129169116Y-61350477D01*
X129169116Y-60850477D01*
X129240544Y-60564763D01*
X129383401Y-60421906D01*
X129526258Y-60350477D01*
X131811973Y-60350477D02*
X132169116Y-61850477D01*
X132454830Y-60779048D01*
X132740544Y-61850477D01*
X133097687Y-60350477D01*
X133954830Y-60350477D02*
X134240544Y-60350477D01*
X134383401Y-60421906D01*
X134526258Y-60564763D01*
X134597687Y-60850477D01*
X134597687Y-61350477D01*
X134526258Y-61636191D01*
X134383401Y-61779048D01*
X134240544Y-61850477D01*
X133954830Y-61850477D01*
X133811973Y-61779048D01*
X133669116Y-61636191D01*
X133597687Y-61350477D01*
X133597687Y-60850477D01*
X133669116Y-60564763D01*
X133811973Y-60421906D01*
X133954830Y-60350477D01*
X136097687Y-61850477D02*
X135597687Y-61136191D01*
X135240544Y-61850477D02*
X135240544Y-60350477D01*
X135811973Y-60350477D01*
X135954830Y-60421906D01*
X136026258Y-60493334D01*
X136097687Y-60636191D01*
X136097687Y-60850477D01*
X136026258Y-60993334D01*
X135954830Y-61064763D01*
X135811973Y-61136191D01*
X135240544Y-61136191D01*
X137454830Y-61850477D02*
X136740544Y-61850477D01*
X136740544Y-60350477D01*
X137954830Y-61850477D02*
X137954830Y-60350477D01*
X138311973Y-60350477D01*
X138526258Y-60421906D01*
X138669116Y-60564763D01*
X138740544Y-60707620D01*
X138811973Y-60993334D01*
X138811973Y-61207620D01*
X138740544Y-61493334D01*
X138669116Y-61636191D01*
X138526258Y-61779048D01*
X138311973Y-61850477D01*
X137954830Y-61850477D01*
X167859116Y-61950477D02*
X167859116Y-60450477D01*
X168430544Y-60450477D01*
X168573401Y-60521906D01*
X168644830Y-60593334D01*
X168716258Y-60736191D01*
X168716258Y-60950477D01*
X168644830Y-61093334D01*
X168573401Y-61164763D01*
X168430544Y-61236191D01*
X167859116Y-61236191D01*
X169644830Y-60450477D02*
X169930544Y-60450477D01*
X170073401Y-60521906D01*
X170216258Y-60664763D01*
X170287687Y-60950477D01*
X170287687Y-61450477D01*
X170216258Y-61736191D01*
X170073401Y-61879048D01*
X169930544Y-61950477D01*
X169644830Y-61950477D01*
X169501973Y-61879048D01*
X169359116Y-61736191D01*
X169287687Y-61450477D01*
X169287687Y-60950477D01*
X169359116Y-60664763D01*
X169501973Y-60521906D01*
X169644830Y-60450477D01*
X172073401Y-61950477D02*
X172073401Y-60450477D01*
X172787687Y-61950477D02*
X172787687Y-60450477D01*
X173644830Y-61950477D01*
X173644830Y-60450477D01*
X174359116Y-61950477D02*
X174359116Y-60450477D01*
X174930544Y-60450477D01*
X175073401Y-60521906D01*
X175144830Y-60593334D01*
X175216258Y-60736191D01*
X175216258Y-60950477D01*
X175144830Y-61093334D01*
X175073401Y-61164763D01*
X174930544Y-61236191D01*
X174359116Y-61236191D01*
X175859116Y-60450477D02*
X175859116Y-61664763D01*
X175930544Y-61807620D01*
X176001973Y-61879048D01*
X176144830Y-61950477D01*
X176430544Y-61950477D01*
X176573401Y-61879048D01*
X176644830Y-61807620D01*
X176716258Y-61664763D01*
X176716258Y-60450477D01*
X177216258Y-60450477D02*
X178073401Y-60450477D01*
X177644830Y-61950477D02*
X177644830Y-60450477D01*
X132579116Y-49890477D02*
X132864830Y-49890477D01*
X133007687Y-49961906D01*
X133150544Y-50104763D01*
X133221973Y-50390477D01*
X133221973Y-50890477D01*
X133150544Y-51176191D01*
X133007687Y-51319048D01*
X132864830Y-51390477D01*
X132579116Y-51390477D01*
X132436258Y-51319048D01*
X132293401Y-51176191D01*
X132221973Y-50890477D01*
X132221973Y-50390477D01*
X132293401Y-50104763D01*
X132436258Y-49961906D01*
X132579116Y-49890477D01*
X133864830Y-49890477D02*
X133864830Y-51104763D01*
X133936258Y-51247620D01*
X134007687Y-51319048D01*
X134150544Y-51390477D01*
X134436258Y-51390477D01*
X134579116Y-51319048D01*
X134650544Y-51247620D01*
X134721973Y-51104763D01*
X134721973Y-49890477D01*
X135221973Y-49890477D02*
X136079116Y-49890477D01*
X135650544Y-51390477D02*
X135650544Y-49890477D01*
X172519116Y-49890477D02*
X172804830Y-49890477D01*
X172947687Y-49961906D01*
X173090544Y-50104763D01*
X173161973Y-50390477D01*
X173161973Y-50890477D01*
X173090544Y-51176191D01*
X172947687Y-51319048D01*
X172804830Y-51390477D01*
X172519116Y-51390477D01*
X172376258Y-51319048D01*
X172233401Y-51176191D01*
X172161973Y-50890477D01*
X172161973Y-50390477D01*
X172233401Y-50104763D01*
X172376258Y-49961906D01*
X172519116Y-49890477D01*
X173804830Y-49890477D02*
X173804830Y-51104763D01*
X173876258Y-51247620D01*
X173947687Y-51319048D01*
X174090544Y-51390477D01*
X174376258Y-51390477D01*
X174519116Y-51319048D01*
X174590544Y-51247620D01*
X174661973Y-51104763D01*
X174661973Y-49890477D01*
X175161973Y-49890477D02*
X176019116Y-49890477D01*
X175590544Y-51390477D02*
X175590544Y-49890477D01*
D12*
X155379116Y-97071906D02*
G75*
G03*
X155379116Y-97071906I-100000J0D01*
G01*
X154449116Y-97091906D02*
G75*
G03*
X154449116Y-97091906I-100000J0D01*
G01*
X153519116Y-97091906D02*
G75*
G03*
X153519116Y-97091906I-100000J0D01*
G01*
X152539116Y-97091906D02*
G75*
G03*
X152539116Y-97091906I-100000J0D01*
G01*
D14*
X153084830Y-47844286D02*
X153084830Y-46844286D01*
X153418163Y-47558572D01*
X153751496Y-46844286D01*
X153751496Y-47844286D01*
X154180068Y-47796667D02*
X154322925Y-47844286D01*
X154561020Y-47844286D01*
X154656258Y-47796667D01*
X154703877Y-47749048D01*
X154751496Y-47653810D01*
X154751496Y-47558572D01*
X154703877Y-47463334D01*
X154656258Y-47415715D01*
X154561020Y-47368096D01*
X154370544Y-47320477D01*
X154275306Y-47272858D01*
X154227687Y-47225239D01*
X154180068Y-47130001D01*
X154180068Y-47034763D01*
X154227687Y-46939525D01*
X154275306Y-46891906D01*
X154370544Y-46844286D01*
X154608639Y-46844286D01*
X154751496Y-46891906D01*
X155656258Y-47844286D02*
X155180068Y-47844286D01*
X155180068Y-46844286D01*
X146037211Y-49594286D02*
X146037211Y-48594286D01*
X146418163Y-48594286D01*
X146513401Y-48641906D01*
X146561020Y-48689525D01*
X146608639Y-48784763D01*
X146608639Y-48927620D01*
X146561020Y-49022858D01*
X146513401Y-49070477D01*
X146418163Y-49118096D01*
X146037211Y-49118096D01*
X147180068Y-49594286D02*
X147084830Y-49546667D01*
X147037211Y-49499048D01*
X146989592Y-49403810D01*
X146989592Y-49118096D01*
X147037211Y-49022858D01*
X147084830Y-48975239D01*
X147180068Y-48927620D01*
X147322925Y-48927620D01*
X147418163Y-48975239D01*
X147465782Y-49022858D01*
X147513401Y-49118096D01*
X147513401Y-49403810D01*
X147465782Y-49499048D01*
X147418163Y-49546667D01*
X147322925Y-49594286D01*
X147180068Y-49594286D01*
X148370544Y-49546667D02*
X148275306Y-49594286D01*
X148084830Y-49594286D01*
X147989592Y-49546667D01*
X147941973Y-49499048D01*
X147894354Y-49403810D01*
X147894354Y-49118096D01*
X147941973Y-49022858D01*
X147989592Y-48975239D01*
X148084830Y-48927620D01*
X148275306Y-48927620D01*
X148370544Y-48975239D01*
X148799116Y-49594286D02*
X148799116Y-48594286D01*
X148894354Y-49213334D02*
X149180068Y-49594286D01*
X149180068Y-48927620D02*
X148799116Y-49308572D01*
X149989592Y-49546667D02*
X149894354Y-49594286D01*
X149703877Y-49594286D01*
X149608639Y-49546667D01*
X149561020Y-49451429D01*
X149561020Y-49070477D01*
X149608639Y-48975239D01*
X149703877Y-48927620D01*
X149894354Y-48927620D01*
X149989592Y-48975239D01*
X150037211Y-49070477D01*
X150037211Y-49165715D01*
X149561020Y-49260953D01*
X150322925Y-48927620D02*
X150703877Y-48927620D01*
X150465782Y-48594286D02*
X150465782Y-49451429D01*
X150513401Y-49546667D01*
X150608639Y-49594286D01*
X150703877Y-49594286D01*
X151799116Y-49594286D02*
X151799116Y-48594286D01*
X152275306Y-48927620D02*
X152275306Y-49594286D01*
X152275306Y-49022858D02*
X152322925Y-48975239D01*
X152418163Y-48927620D01*
X152561020Y-48927620D01*
X152656258Y-48975239D01*
X152703877Y-49070477D01*
X152703877Y-49594286D01*
X153037211Y-48927620D02*
X153418163Y-48927620D01*
X153180068Y-48594286D02*
X153180068Y-49451429D01*
X153227687Y-49546667D01*
X153322925Y-49594286D01*
X153418163Y-49594286D01*
X154132449Y-49546667D02*
X154037211Y-49594286D01*
X153846735Y-49594286D01*
X153751496Y-49546667D01*
X153703877Y-49451429D01*
X153703877Y-49070477D01*
X153751496Y-48975239D01*
X153846735Y-48927620D01*
X154037211Y-48927620D01*
X154132449Y-48975239D01*
X154180068Y-49070477D01*
X154180068Y-49165715D01*
X153703877Y-49260953D01*
X155037211Y-48927620D02*
X155037211Y-49737144D01*
X154989592Y-49832382D01*
X154941973Y-49880001D01*
X154846735Y-49927620D01*
X154703877Y-49927620D01*
X154608639Y-49880001D01*
X155037211Y-49546667D02*
X154941973Y-49594286D01*
X154751496Y-49594286D01*
X154656258Y-49546667D01*
X154608639Y-49499048D01*
X154561020Y-49403810D01*
X154561020Y-49118096D01*
X154608639Y-49022858D01*
X154656258Y-48975239D01*
X154751496Y-48927620D01*
X154941973Y-48927620D01*
X155037211Y-48975239D01*
X155513401Y-49594286D02*
X155513401Y-48927620D01*
X155513401Y-49118096D02*
X155561020Y-49022858D01*
X155608639Y-48975239D01*
X155703877Y-48927620D01*
X155799116Y-48927620D01*
X156561020Y-49594286D02*
X156561020Y-49070477D01*
X156513401Y-48975239D01*
X156418163Y-48927620D01*
X156227687Y-48927620D01*
X156132449Y-48975239D01*
X156561020Y-49546667D02*
X156465782Y-49594286D01*
X156227687Y-49594286D01*
X156132449Y-49546667D01*
X156084830Y-49451429D01*
X156084830Y-49356191D01*
X156132449Y-49260953D01*
X156227687Y-49213334D01*
X156465782Y-49213334D01*
X156561020Y-49165715D01*
X156894354Y-48927620D02*
X157275306Y-48927620D01*
X157037211Y-48594286D02*
X157037211Y-49451429D01*
X157084830Y-49546667D01*
X157180068Y-49594286D01*
X157275306Y-49594286D01*
X157751496Y-49594286D02*
X157656258Y-49546667D01*
X157608639Y-49499048D01*
X157561020Y-49403810D01*
X157561020Y-49118096D01*
X157608639Y-49022858D01*
X157656258Y-48975239D01*
X157751496Y-48927620D01*
X157894354Y-48927620D01*
X157989592Y-48975239D01*
X158037211Y-49022858D01*
X158084830Y-49118096D01*
X158084830Y-49403810D01*
X158037211Y-49499048D01*
X157989592Y-49546667D01*
X157894354Y-49594286D01*
X157751496Y-49594286D01*
X158513401Y-49594286D02*
X158513401Y-48927620D01*
X158513401Y-49118096D02*
X158561020Y-49022858D01*
X158608639Y-48975239D01*
X158703877Y-48927620D01*
X158799116Y-48927620D01*
X160275306Y-49546667D02*
X160180068Y-49594286D01*
X159989592Y-49594286D01*
X159894354Y-49546667D01*
X159846735Y-49451429D01*
X159846735Y-49070477D01*
X159894354Y-48975239D01*
X159989592Y-48927620D01*
X160180068Y-48927620D01*
X160275306Y-48975239D01*
X160322925Y-49070477D01*
X160322925Y-49165715D01*
X159846735Y-49260953D01*
X160656258Y-48927620D02*
X160894354Y-49594286D01*
X161132449Y-48927620D01*
X161370544Y-48927620D02*
X161751496Y-48927620D01*
X161513401Y-48594286D02*
X161513401Y-49451429D01*
X161561020Y-49546667D01*
X161656258Y-49594286D01*
X161751496Y-49594286D01*
X162513401Y-48927620D02*
X162513401Y-49594286D01*
X162275306Y-48546667D02*
X162037211Y-49260953D01*
X162656258Y-49260953D01*
X149203877Y-51296667D02*
X149346735Y-51344286D01*
X149584830Y-51344286D01*
X149680068Y-51296667D01*
X149727687Y-51249048D01*
X149775306Y-51153810D01*
X149775306Y-51058572D01*
X149727687Y-50963334D01*
X149680068Y-50915715D01*
X149584830Y-50868096D01*
X149394354Y-50820477D01*
X149299116Y-50772858D01*
X149251496Y-50725239D01*
X149203877Y-50630001D01*
X149203877Y-50534763D01*
X149251496Y-50439525D01*
X149299116Y-50391906D01*
X149394354Y-50344286D01*
X149632449Y-50344286D01*
X149775306Y-50391906D01*
X150632449Y-50677620D02*
X150632449Y-51344286D01*
X150203877Y-50677620D02*
X150203877Y-51201429D01*
X150251496Y-51296667D01*
X150346735Y-51344286D01*
X150489592Y-51344286D01*
X150584830Y-51296667D01*
X150632449Y-51249048D01*
X151108639Y-51344286D02*
X151108639Y-50677620D01*
X151108639Y-50772858D02*
X151156258Y-50725239D01*
X151251496Y-50677620D01*
X151394354Y-50677620D01*
X151489592Y-50725239D01*
X151537211Y-50820477D01*
X151537211Y-51344286D01*
X151537211Y-50820477D02*
X151584830Y-50725239D01*
X151680068Y-50677620D01*
X151822925Y-50677620D01*
X151918163Y-50725239D01*
X151965782Y-50820477D01*
X151965782Y-51344286D01*
X152441973Y-51344286D02*
X152441973Y-50677620D01*
X152441973Y-50772858D02*
X152489592Y-50725239D01*
X152584830Y-50677620D01*
X152727687Y-50677620D01*
X152822925Y-50725239D01*
X152870544Y-50820477D01*
X152870544Y-51344286D01*
X152870544Y-50820477D02*
X152918163Y-50725239D01*
X153013401Y-50677620D01*
X153156258Y-50677620D01*
X153251496Y-50725239D01*
X153299116Y-50820477D01*
X153299116Y-51344286D01*
X154156258Y-51296667D02*
X154061020Y-51344286D01*
X153870544Y-51344286D01*
X153775306Y-51296667D01*
X153727687Y-51201429D01*
X153727687Y-50820477D01*
X153775306Y-50725239D01*
X153870544Y-50677620D01*
X154061020Y-50677620D01*
X154156258Y-50725239D01*
X154203877Y-50820477D01*
X154203877Y-50915715D01*
X153727687Y-51010953D01*
X154632449Y-51344286D02*
X154632449Y-50677620D01*
X154632449Y-50868096D02*
X154680068Y-50772858D01*
X154727687Y-50725239D01*
X154822925Y-50677620D01*
X154918163Y-50677620D01*
X155965782Y-50439525D02*
X156013401Y-50391906D01*
X156108639Y-50344286D01*
X156346735Y-50344286D01*
X156441973Y-50391906D01*
X156489592Y-50439525D01*
X156537211Y-50534763D01*
X156537211Y-50630001D01*
X156489592Y-50772858D01*
X155918163Y-51344286D01*
X156537211Y-51344286D01*
X157156258Y-50344286D02*
X157251496Y-50344286D01*
X157346735Y-50391906D01*
X157394354Y-50439525D01*
X157441973Y-50534763D01*
X157489592Y-50725239D01*
X157489592Y-50963334D01*
X157441973Y-51153810D01*
X157394354Y-51249048D01*
X157346735Y-51296667D01*
X157251496Y-51344286D01*
X157156258Y-51344286D01*
X157061020Y-51296667D01*
X157013401Y-51249048D01*
X156965782Y-51153810D01*
X156918163Y-50963334D01*
X156918163Y-50725239D01*
X156965782Y-50534763D01*
X157013401Y-50439525D01*
X157061020Y-50391906D01*
X157156258Y-50344286D01*
X157870544Y-50439525D02*
X157918163Y-50391906D01*
X158013401Y-50344286D01*
X158251496Y-50344286D01*
X158346735Y-50391906D01*
X158394354Y-50439525D01*
X158441973Y-50534763D01*
X158441973Y-50630001D01*
X158394354Y-50772858D01*
X157822925Y-51344286D01*
X158441973Y-51344286D01*
X159394354Y-51344286D02*
X158822925Y-51344286D01*
X159108639Y-51344286D02*
X159108639Y-50344286D01*
X159013401Y-50487144D01*
X158918163Y-50582382D01*
X158822925Y-50630001D01*
D11*
X137584449Y-107253115D02*
X137584449Y-107446639D01*
X137632830Y-107446639D02*
X137632830Y-107253115D01*
X137681211Y-107204734D02*
X137681211Y-107495020D01*
X137729592Y-107446639D02*
X137729592Y-107253115D01*
X137777973Y-107253115D02*
X137777973Y-107446639D01*
X137584449Y-107398258D02*
X137681211Y-107495020D01*
X137777973Y-107398258D01*
X137584449Y-107301496D02*
X137681211Y-107204734D01*
X137777973Y-107301496D01*
X137584449Y-107253115D02*
X137681211Y-107204734D01*
X137777973Y-107253115D01*
X137826354Y-107349877D01*
X137777973Y-107446639D01*
X137681211Y-107495020D01*
X137584449Y-107446639D01*
X137536068Y-107349877D01*
X137584449Y-107253115D01*
X139761592Y-107736925D02*
X139761592Y-107204734D01*
X139713211Y-107107972D01*
X139616449Y-107059591D01*
X139422925Y-107059591D01*
X139326163Y-107107972D01*
X139761592Y-107688544D02*
X139664830Y-107736925D01*
X139422925Y-107736925D01*
X139326163Y-107688544D01*
X139277782Y-107591782D01*
X139277782Y-107495020D01*
X139326163Y-107398258D01*
X139422925Y-107349877D01*
X139664830Y-107349877D01*
X139761592Y-107301496D01*
X140100258Y-107059591D02*
X140487306Y-107059591D01*
X140245401Y-106720925D02*
X140245401Y-107591782D01*
X140293782Y-107688544D01*
X140390544Y-107736925D01*
X140487306Y-107736925D01*
X140680830Y-107059591D02*
X141067877Y-107059591D01*
X140825973Y-106720925D02*
X140825973Y-107591782D01*
X140874354Y-107688544D01*
X140971116Y-107736925D01*
X141067877Y-107736925D01*
X141841973Y-107736925D02*
X141841973Y-107204734D01*
X141793592Y-107107972D01*
X141696830Y-107059591D01*
X141503306Y-107059591D01*
X141406544Y-107107972D01*
X141841973Y-107688544D02*
X141745211Y-107736925D01*
X141503306Y-107736925D01*
X141406544Y-107688544D01*
X141358163Y-107591782D01*
X141358163Y-107495020D01*
X141406544Y-107398258D01*
X141503306Y-107349877D01*
X141745211Y-107349877D01*
X141841973Y-107301496D01*
X142761211Y-107688544D02*
X142664449Y-107736925D01*
X142470925Y-107736925D01*
X142374163Y-107688544D01*
X142325782Y-107640163D01*
X142277401Y-107543401D01*
X142277401Y-107253115D01*
X142325782Y-107156353D01*
X142374163Y-107107972D01*
X142470925Y-107059591D01*
X142664449Y-107059591D01*
X142761211Y-107107972D01*
X143196639Y-107736925D02*
X143196639Y-106720925D01*
X143632068Y-107736925D02*
X143632068Y-107204734D01*
X143583687Y-107107972D01*
X143486925Y-107059591D01*
X143341782Y-107059591D01*
X143245020Y-107107972D01*
X143196639Y-107156353D01*
X144793211Y-107059591D02*
X144986735Y-107736925D01*
X145180258Y-107253115D01*
X145373782Y-107736925D01*
X145567306Y-107059591D01*
X145954354Y-107736925D02*
X145954354Y-107059591D01*
X145954354Y-106720925D02*
X145905973Y-106769306D01*
X145954354Y-106817686D01*
X146002735Y-106769306D01*
X145954354Y-106720925D01*
X145954354Y-106817686D01*
X146293020Y-107059591D02*
X146680068Y-107059591D01*
X146438163Y-106720925D02*
X146438163Y-107591782D01*
X146486544Y-107688544D01*
X146583306Y-107736925D01*
X146680068Y-107736925D01*
X147018735Y-107736925D02*
X147018735Y-106720925D01*
X147454163Y-107736925D02*
X147454163Y-107204734D01*
X147405782Y-107107972D01*
X147309020Y-107059591D01*
X147163877Y-107059591D01*
X147067116Y-107107972D01*
X147018735Y-107156353D01*
X148566925Y-107059591D02*
X148953973Y-107059591D01*
X148712068Y-106720925D02*
X148712068Y-107591782D01*
X148760449Y-107688544D01*
X148857211Y-107736925D01*
X148953973Y-107736925D01*
X149195877Y-107059591D02*
X149389401Y-107736925D01*
X149582925Y-107253115D01*
X149776449Y-107736925D01*
X149969973Y-107059591D01*
X150502163Y-107736925D02*
X150405401Y-107688544D01*
X150357020Y-107640163D01*
X150308639Y-107543401D01*
X150308639Y-107253115D01*
X150357020Y-107156353D01*
X150405401Y-107107972D01*
X150502163Y-107059591D01*
X150647306Y-107059591D01*
X150744068Y-107107972D01*
X150792449Y-107156353D01*
X150840830Y-107253115D01*
X150840830Y-107543401D01*
X150792449Y-107640163D01*
X150744068Y-107688544D01*
X150647306Y-107736925D01*
X150502163Y-107736925D01*
X152243877Y-106720925D02*
X152437401Y-106720925D01*
X152534163Y-106769306D01*
X152630925Y-106866067D01*
X152679306Y-107059591D01*
X152679306Y-107398258D01*
X152630925Y-107591782D01*
X152534163Y-107688544D01*
X152437401Y-107736925D01*
X152243877Y-107736925D01*
X152147116Y-107688544D01*
X152050354Y-107591782D01*
X152001973Y-107398258D01*
X152001973Y-107059591D01*
X152050354Y-106866067D01*
X152147116Y-106769306D01*
X152243877Y-106720925D01*
X153888830Y-107736925D02*
X153888830Y-107059591D01*
X153888830Y-107253115D02*
X153937211Y-107156353D01*
X153985592Y-107107972D01*
X154082354Y-107059591D01*
X154179116Y-107059591D01*
X154517782Y-107736925D02*
X154517782Y-107059591D01*
X154517782Y-106720925D02*
X154469401Y-106769306D01*
X154517782Y-106817686D01*
X154566163Y-106769306D01*
X154517782Y-106720925D01*
X154517782Y-106817686D01*
X155001592Y-107059591D02*
X155001592Y-107736925D01*
X155001592Y-107156353D02*
X155049973Y-107107972D01*
X155146735Y-107059591D01*
X155291877Y-107059591D01*
X155388639Y-107107972D01*
X155437020Y-107204734D01*
X155437020Y-107736925D01*
X156356258Y-107059591D02*
X156356258Y-107882067D01*
X156307877Y-107978829D01*
X156259496Y-108027210D01*
X156162735Y-108075591D01*
X156017592Y-108075591D01*
X155920830Y-108027210D01*
X156356258Y-107688544D02*
X156259496Y-107736925D01*
X156065973Y-107736925D01*
X155969211Y-107688544D01*
X155920830Y-107640163D01*
X155872449Y-107543401D01*
X155872449Y-107253115D01*
X155920830Y-107156353D01*
X155969211Y-107107972D01*
X156065973Y-107059591D01*
X156259496Y-107059591D01*
X156356258Y-107107972D01*
X156791687Y-107688544D02*
X156888449Y-107736925D01*
X157081973Y-107736925D01*
X157178735Y-107688544D01*
X157227116Y-107591782D01*
X157227116Y-107543401D01*
X157178735Y-107446639D01*
X157081973Y-107398258D01*
X156936830Y-107398258D01*
X156840068Y-107349877D01*
X156791687Y-107253115D01*
X156791687Y-107204734D01*
X156840068Y-107107972D01*
X156936830Y-107059591D01*
X157081973Y-107059591D01*
X157178735Y-107107972D01*
X158968830Y-107736925D02*
X158388258Y-107736925D01*
X158678544Y-107736925D02*
X158678544Y-106720925D01*
X158581782Y-106866067D01*
X158485020Y-106962829D01*
X158388258Y-107011210D01*
X159404258Y-107640163D02*
X159452639Y-107688544D01*
X159404258Y-107736925D01*
X159355877Y-107688544D01*
X159404258Y-107640163D01*
X159404258Y-107736925D01*
X159791306Y-106720925D02*
X160468639Y-106720925D01*
X160033211Y-107736925D01*
X161339496Y-106720925D02*
X160855687Y-106720925D01*
X160807306Y-107204734D01*
X160855687Y-107156353D01*
X160952449Y-107107972D01*
X161194354Y-107107972D01*
X161291116Y-107156353D01*
X161339496Y-107204734D01*
X161387877Y-107301496D01*
X161387877Y-107543401D01*
X161339496Y-107640163D01*
X161291116Y-107688544D01*
X161194354Y-107736925D01*
X160952449Y-107736925D01*
X160855687Y-107688544D01*
X160807306Y-107640163D01*
X161823306Y-106720925D02*
X161823306Y-106769306D01*
X161774925Y-106866067D01*
X161726544Y-106914448D01*
X162210354Y-106720925D02*
X162210354Y-106769306D01*
X162161973Y-106866067D01*
X162113592Y-106914448D01*
X163323116Y-106672544D02*
X162452258Y-107978829D01*
X164097211Y-107059591D02*
X164097211Y-107736925D01*
X163855306Y-106672544D02*
X163613401Y-107398258D01*
X164242354Y-107398258D01*
X165064830Y-107059591D02*
X165064830Y-107736925D01*
X164822925Y-106672544D02*
X164581020Y-107398258D01*
X165209973Y-107398258D01*
X165597020Y-107736925D02*
X165597020Y-107059591D01*
X165597020Y-107156353D02*
X165645401Y-107107972D01*
X165742163Y-107059591D01*
X165887306Y-107059591D01*
X165984068Y-107107972D01*
X166032449Y-107204734D01*
X166032449Y-107736925D01*
X166032449Y-107204734D02*
X166080830Y-107107972D01*
X166177592Y-107059591D01*
X166322735Y-107059591D01*
X166419496Y-107107972D01*
X166467877Y-107204734D01*
X166467877Y-107736925D01*
X166951687Y-107736925D02*
X166951687Y-107059591D01*
X166951687Y-107156353D02*
X167000068Y-107107972D01*
X167096830Y-107059591D01*
X167241973Y-107059591D01*
X167338735Y-107107972D01*
X167387116Y-107204734D01*
X167387116Y-107736925D01*
X167387116Y-107204734D02*
X167435496Y-107107972D01*
X167532258Y-107059591D01*
X167677401Y-107059591D01*
X167774163Y-107107972D01*
X167822544Y-107204734D01*
X167822544Y-107736925D01*
X169080449Y-107736925D02*
X169080449Y-106720925D01*
X169564258Y-107640163D02*
X169612639Y-107688544D01*
X169564258Y-107736925D01*
X169515877Y-107688544D01*
X169564258Y-107640163D01*
X169564258Y-107736925D01*
X170048068Y-107736925D02*
X170048068Y-106720925D01*
X170289973Y-106720925D01*
X170435116Y-106769306D01*
X170531877Y-106866067D01*
X170580258Y-106962829D01*
X170628639Y-107156353D01*
X170628639Y-107301496D01*
X170580258Y-107495020D01*
X170531877Y-107591782D01*
X170435116Y-107688544D01*
X170289973Y-107736925D01*
X170048068Y-107736925D01*
X171064068Y-107640163D02*
X171112449Y-107688544D01*
X171064068Y-107736925D01*
X171015687Y-107688544D01*
X171064068Y-107640163D01*
X171064068Y-107736925D01*
X141696830Y-108929515D02*
X141696830Y-109123039D01*
X141745211Y-109123039D02*
X141745211Y-108929515D01*
X141793592Y-108881134D02*
X141793592Y-109171420D01*
X141841973Y-109123039D02*
X141841973Y-108929515D01*
X141890354Y-108929515D02*
X141890354Y-109123039D01*
X141696830Y-109074658D02*
X141793592Y-109171420D01*
X141890354Y-109074658D01*
X141696830Y-108977896D02*
X141793592Y-108881134D01*
X141890354Y-108977896D01*
X141696830Y-108929515D02*
X141793592Y-108881134D01*
X141890354Y-108929515D01*
X141938735Y-109026277D01*
X141890354Y-109123039D01*
X141793592Y-109171420D01*
X141696830Y-109123039D01*
X141648449Y-109026277D01*
X141696830Y-108929515D01*
X143873973Y-109364944D02*
X143777211Y-109413325D01*
X143583687Y-109413325D01*
X143486925Y-109364944D01*
X143438544Y-109316563D01*
X143390163Y-109219801D01*
X143390163Y-108929515D01*
X143438544Y-108832753D01*
X143486925Y-108784372D01*
X143583687Y-108735991D01*
X143777211Y-108735991D01*
X143873973Y-108784372D01*
X144454544Y-109413325D02*
X144357782Y-109364944D01*
X144309401Y-109316563D01*
X144261020Y-109219801D01*
X144261020Y-108929515D01*
X144309401Y-108832753D01*
X144357782Y-108784372D01*
X144454544Y-108735991D01*
X144599687Y-108735991D01*
X144696449Y-108784372D01*
X144744830Y-108832753D01*
X144793211Y-108929515D01*
X144793211Y-109219801D01*
X144744830Y-109316563D01*
X144696449Y-109364944D01*
X144599687Y-109413325D01*
X144454544Y-109413325D01*
X145228639Y-108735991D02*
X145228639Y-109413325D01*
X145228639Y-108832753D02*
X145277020Y-108784372D01*
X145373782Y-108735991D01*
X145518925Y-108735991D01*
X145615687Y-108784372D01*
X145664068Y-108881134D01*
X145664068Y-109413325D01*
X146147877Y-108735991D02*
X146147877Y-109413325D01*
X146147877Y-108832753D02*
X146196258Y-108784372D01*
X146293020Y-108735991D01*
X146438163Y-108735991D01*
X146534925Y-108784372D01*
X146583306Y-108881134D01*
X146583306Y-109413325D01*
X147454163Y-109364944D02*
X147357401Y-109413325D01*
X147163877Y-109413325D01*
X147067116Y-109364944D01*
X147018735Y-109268182D01*
X147018735Y-108881134D01*
X147067116Y-108784372D01*
X147163877Y-108735991D01*
X147357401Y-108735991D01*
X147454163Y-108784372D01*
X147502544Y-108881134D01*
X147502544Y-108977896D01*
X147018735Y-109074658D01*
X148373401Y-109364944D02*
X148276639Y-109413325D01*
X148083116Y-109413325D01*
X147986354Y-109364944D01*
X147937973Y-109316563D01*
X147889592Y-109219801D01*
X147889592Y-108929515D01*
X147937973Y-108832753D01*
X147986354Y-108784372D01*
X148083116Y-108735991D01*
X148276639Y-108735991D01*
X148373401Y-108784372D01*
X148663687Y-108735991D02*
X149050735Y-108735991D01*
X148808830Y-108397325D02*
X148808830Y-109268182D01*
X148857211Y-109364944D01*
X148953973Y-109413325D01*
X149050735Y-109413325D01*
X150550544Y-109364944D02*
X150453782Y-109413325D01*
X150260258Y-109413325D01*
X150163496Y-109364944D01*
X150115116Y-109268182D01*
X150115116Y-108881134D01*
X150163496Y-108784372D01*
X150260258Y-108735991D01*
X150453782Y-108735991D01*
X150550544Y-108784372D01*
X150598925Y-108881134D01*
X150598925Y-108977896D01*
X150115116Y-109074658D01*
X151034354Y-109413325D02*
X151034354Y-108735991D01*
X151034354Y-108397325D02*
X150985973Y-108445706D01*
X151034354Y-108494086D01*
X151082735Y-108445706D01*
X151034354Y-108397325D01*
X151034354Y-108494086D01*
X151373020Y-108735991D02*
X151760068Y-108735991D01*
X151518163Y-108397325D02*
X151518163Y-109268182D01*
X151566544Y-109364944D01*
X151663306Y-109413325D01*
X151760068Y-109413325D01*
X152098735Y-109413325D02*
X152098735Y-108397325D01*
X152534163Y-109413325D02*
X152534163Y-108881134D01*
X152485782Y-108784372D01*
X152389020Y-108735991D01*
X152243877Y-108735991D01*
X152147116Y-108784372D01*
X152098735Y-108832753D01*
X153405020Y-109364944D02*
X153308258Y-109413325D01*
X153114735Y-109413325D01*
X153017973Y-109364944D01*
X152969592Y-109268182D01*
X152969592Y-108881134D01*
X153017973Y-108784372D01*
X153114735Y-108735991D01*
X153308258Y-108735991D01*
X153405020Y-108784372D01*
X153453401Y-108881134D01*
X153453401Y-108977896D01*
X152969592Y-109074658D01*
X153888830Y-109413325D02*
X153888830Y-108735991D01*
X153888830Y-108929515D02*
X153937211Y-108832753D01*
X153985592Y-108784372D01*
X154082354Y-108735991D01*
X154179116Y-108735991D01*
X155437020Y-109413325D02*
X155340258Y-109364944D01*
X155291877Y-109316563D01*
X155243496Y-109219801D01*
X155243496Y-108929515D01*
X155291877Y-108832753D01*
X155340258Y-108784372D01*
X155437020Y-108735991D01*
X155582163Y-108735991D01*
X155678925Y-108784372D01*
X155727306Y-108832753D01*
X155775687Y-108929515D01*
X155775687Y-109219801D01*
X155727306Y-109316563D01*
X155678925Y-109364944D01*
X155582163Y-109413325D01*
X155437020Y-109413325D01*
X156646544Y-108735991D02*
X156646544Y-109413325D01*
X156211116Y-108735991D02*
X156211116Y-109268182D01*
X156259496Y-109364944D01*
X156356258Y-109413325D01*
X156501401Y-109413325D01*
X156598163Y-109364944D01*
X156646544Y-109316563D01*
X156985211Y-108735991D02*
X157372258Y-108735991D01*
X157130354Y-108397325D02*
X157130354Y-109268182D01*
X157178735Y-109364944D01*
X157275496Y-109413325D01*
X157372258Y-109413325D01*
X158339877Y-108735991D02*
X158726925Y-108735991D01*
X158485020Y-108397325D02*
X158485020Y-109268182D01*
X158533401Y-109364944D01*
X158630163Y-109413325D01*
X158726925Y-109413325D01*
X159210735Y-109413325D02*
X159113973Y-109364944D01*
X159065592Y-109316563D01*
X159017211Y-109219801D01*
X159017211Y-108929515D01*
X159065592Y-108832753D01*
X159113973Y-108784372D01*
X159210735Y-108735991D01*
X159355877Y-108735991D01*
X159452639Y-108784372D01*
X159501020Y-108832753D01*
X159549401Y-108929515D01*
X159549401Y-109219801D01*
X159501020Y-109316563D01*
X159452639Y-109364944D01*
X159355877Y-109413325D01*
X159210735Y-109413325D01*
X160758925Y-109413325D02*
X160758925Y-108397325D01*
X161145973Y-108397325D01*
X161242735Y-108445706D01*
X161291116Y-108494086D01*
X161339496Y-108590848D01*
X161339496Y-108735991D01*
X161291116Y-108832753D01*
X161242735Y-108881134D01*
X161145973Y-108929515D01*
X160758925Y-108929515D01*
X161968449Y-108397325D02*
X162161973Y-108397325D01*
X162258735Y-108445706D01*
X162355496Y-108542467D01*
X162403877Y-108735991D01*
X162403877Y-109074658D01*
X162355496Y-109268182D01*
X162258735Y-109364944D01*
X162161973Y-109413325D01*
X161968449Y-109413325D01*
X161871687Y-109364944D01*
X161774925Y-109268182D01*
X161726544Y-109074658D01*
X161726544Y-108735991D01*
X161774925Y-108542467D01*
X161871687Y-108445706D01*
X161968449Y-108397325D01*
X163613401Y-109413325D02*
X163613401Y-108735991D01*
X163613401Y-108397325D02*
X163565020Y-108445706D01*
X163613401Y-108494086D01*
X163661782Y-108445706D01*
X163613401Y-108397325D01*
X163613401Y-108494086D01*
X164097211Y-108735991D02*
X164097211Y-109413325D01*
X164097211Y-108832753D02*
X164145592Y-108784372D01*
X164242354Y-108735991D01*
X164387496Y-108735991D01*
X164484258Y-108784372D01*
X164532639Y-108881134D01*
X164532639Y-109413325D01*
X165016449Y-108735991D02*
X165016449Y-109751991D01*
X165016449Y-108784372D02*
X165113211Y-108735991D01*
X165306735Y-108735991D01*
X165403496Y-108784372D01*
X165451877Y-108832753D01*
X165500258Y-108929515D01*
X165500258Y-109219801D01*
X165451877Y-109316563D01*
X165403496Y-109364944D01*
X165306735Y-109413325D01*
X165113211Y-109413325D01*
X165016449Y-109364944D01*
X166371116Y-108735991D02*
X166371116Y-109413325D01*
X165935687Y-108735991D02*
X165935687Y-109268182D01*
X165984068Y-109364944D01*
X166080830Y-109413325D01*
X166225973Y-109413325D01*
X166322735Y-109364944D01*
X166371116Y-109316563D01*
X166709782Y-108735991D02*
X167096830Y-108735991D01*
X166854925Y-108397325D02*
X166854925Y-109268182D01*
X166903306Y-109364944D01*
X167000068Y-109413325D01*
X167096830Y-109413325D01*
X143704639Y-110605915D02*
X143704639Y-110799439D01*
X143753020Y-110799439D02*
X143753020Y-110605915D01*
X143801401Y-110557534D02*
X143801401Y-110847820D01*
X143849782Y-110799439D02*
X143849782Y-110605915D01*
X143898163Y-110605915D02*
X143898163Y-110799439D01*
X143704639Y-110751058D02*
X143801401Y-110847820D01*
X143898163Y-110751058D01*
X143704639Y-110654296D02*
X143801401Y-110557534D01*
X143898163Y-110654296D01*
X143704639Y-110605915D02*
X143801401Y-110557534D01*
X143898163Y-110605915D01*
X143946544Y-110702677D01*
X143898163Y-110799439D01*
X143801401Y-110847820D01*
X143704639Y-110799439D01*
X143656258Y-110702677D01*
X143704639Y-110605915D01*
X145397973Y-111041344D02*
X145494735Y-111089725D01*
X145688258Y-111089725D01*
X145785020Y-111041344D01*
X145833401Y-110944582D01*
X145833401Y-110896201D01*
X145785020Y-110799439D01*
X145688258Y-110751058D01*
X145543116Y-110751058D01*
X145446354Y-110702677D01*
X145397973Y-110605915D01*
X145397973Y-110557534D01*
X145446354Y-110460772D01*
X145543116Y-110412391D01*
X145688258Y-110412391D01*
X145785020Y-110460772D01*
X146655877Y-111041344D02*
X146559116Y-111089725D01*
X146365592Y-111089725D01*
X146268830Y-111041344D01*
X146220449Y-110944582D01*
X146220449Y-110557534D01*
X146268830Y-110460772D01*
X146365592Y-110412391D01*
X146559116Y-110412391D01*
X146655877Y-110460772D01*
X146704258Y-110557534D01*
X146704258Y-110654296D01*
X146220449Y-110751058D01*
X146994544Y-110412391D02*
X147381592Y-110412391D01*
X147139687Y-110073725D02*
X147139687Y-110944582D01*
X147188068Y-111041344D01*
X147284830Y-111089725D01*
X147381592Y-111089725D01*
X148494354Y-111089725D02*
X148494354Y-110073725D01*
X148881401Y-110073725D01*
X148978163Y-110122106D01*
X149026544Y-110170486D01*
X149074925Y-110267248D01*
X149074925Y-110412391D01*
X149026544Y-110509153D01*
X148978163Y-110557534D01*
X148881401Y-110605915D01*
X148494354Y-110605915D01*
X149703877Y-110073725D02*
X149897401Y-110073725D01*
X149994163Y-110122106D01*
X150090925Y-110218867D01*
X150139306Y-110412391D01*
X150139306Y-110751058D01*
X150090925Y-110944582D01*
X149994163Y-111041344D01*
X149897401Y-111089725D01*
X149703877Y-111089725D01*
X149607116Y-111041344D01*
X149510354Y-110944582D01*
X149461973Y-110751058D01*
X149461973Y-110412391D01*
X149510354Y-110218867D01*
X149607116Y-110122106D01*
X149703877Y-110073725D01*
X151300449Y-111041344D02*
X151397211Y-111089725D01*
X151590735Y-111089725D01*
X151687496Y-111041344D01*
X151735877Y-110944582D01*
X151735877Y-110896201D01*
X151687496Y-110799439D01*
X151590735Y-110751058D01*
X151445592Y-110751058D01*
X151348830Y-110702677D01*
X151300449Y-110605915D01*
X151300449Y-110557534D01*
X151348830Y-110460772D01*
X151445592Y-110412391D01*
X151590735Y-110412391D01*
X151687496Y-110460772D01*
X152074544Y-110412391D02*
X152316449Y-111089725D01*
X152558354Y-110412391D02*
X152316449Y-111089725D01*
X152219687Y-111331629D01*
X152171306Y-111380010D01*
X152074544Y-111428391D01*
X152945401Y-110412391D02*
X152945401Y-111089725D01*
X152945401Y-110509153D02*
X152993782Y-110460772D01*
X153090544Y-110412391D01*
X153235687Y-110412391D01*
X153332449Y-110460772D01*
X153380830Y-110557534D01*
X153380830Y-111089725D01*
X154300068Y-111041344D02*
X154203306Y-111089725D01*
X154009782Y-111089725D01*
X153913020Y-111041344D01*
X153864639Y-110992963D01*
X153816258Y-110896201D01*
X153816258Y-110605915D01*
X153864639Y-110509153D01*
X153913020Y-110460772D01*
X154009782Y-110412391D01*
X154203306Y-110412391D01*
X154300068Y-110460772D01*
X155509592Y-111089725D02*
X155509592Y-110412391D01*
X155509592Y-110509153D02*
X155557973Y-110460772D01*
X155654735Y-110412391D01*
X155799877Y-110412391D01*
X155896639Y-110460772D01*
X155945020Y-110557534D01*
X155945020Y-111089725D01*
X155945020Y-110557534D02*
X155993401Y-110460772D01*
X156090163Y-110412391D01*
X156235306Y-110412391D01*
X156332068Y-110460772D01*
X156380449Y-110557534D01*
X156380449Y-111089725D01*
X157009401Y-111089725D02*
X156912639Y-111041344D01*
X156864258Y-110992963D01*
X156815877Y-110896201D01*
X156815877Y-110605915D01*
X156864258Y-110509153D01*
X156912639Y-110460772D01*
X157009401Y-110412391D01*
X157154544Y-110412391D01*
X157251306Y-110460772D01*
X157299687Y-110509153D01*
X157348068Y-110605915D01*
X157348068Y-110896201D01*
X157299687Y-110992963D01*
X157251306Y-111041344D01*
X157154544Y-111089725D01*
X157009401Y-111089725D01*
X158218925Y-111089725D02*
X158218925Y-110073725D01*
X158218925Y-111041344D02*
X158122163Y-111089725D01*
X157928639Y-111089725D01*
X157831877Y-111041344D01*
X157783496Y-110992963D01*
X157735116Y-110896201D01*
X157735116Y-110605915D01*
X157783496Y-110509153D01*
X157831877Y-110460772D01*
X157928639Y-110412391D01*
X158122163Y-110412391D01*
X158218925Y-110460772D01*
X159089782Y-111041344D02*
X158993020Y-111089725D01*
X158799496Y-111089725D01*
X158702735Y-111041344D01*
X158654354Y-110944582D01*
X158654354Y-110557534D01*
X158702735Y-110460772D01*
X158799496Y-110412391D01*
X158993020Y-110412391D01*
X159089782Y-110460772D01*
X159138163Y-110557534D01*
X159138163Y-110654296D01*
X158654354Y-110751058D01*
X160202544Y-110412391D02*
X160589592Y-110412391D01*
X160347687Y-110073725D02*
X160347687Y-110944582D01*
X160396068Y-111041344D01*
X160492830Y-111089725D01*
X160589592Y-111089725D01*
X161073401Y-111089725D02*
X160976639Y-111041344D01*
X160928258Y-110992963D01*
X160879877Y-110896201D01*
X160879877Y-110605915D01*
X160928258Y-110509153D01*
X160976639Y-110460772D01*
X161073401Y-110412391D01*
X161218544Y-110412391D01*
X161315306Y-110460772D01*
X161363687Y-110509153D01*
X161412068Y-110605915D01*
X161412068Y-110896201D01*
X161363687Y-110992963D01*
X161315306Y-111041344D01*
X161218544Y-111089725D01*
X161073401Y-111089725D01*
X162573211Y-111041344D02*
X162718354Y-111089725D01*
X162960258Y-111089725D01*
X163057020Y-111041344D01*
X163105401Y-110992963D01*
X163153782Y-110896201D01*
X163153782Y-110799439D01*
X163105401Y-110702677D01*
X163057020Y-110654296D01*
X162960258Y-110605915D01*
X162766735Y-110557534D01*
X162669973Y-110509153D01*
X162621592Y-110460772D01*
X162573211Y-110364010D01*
X162573211Y-110267248D01*
X162621592Y-110170486D01*
X162669973Y-110122106D01*
X162766735Y-110073725D01*
X163008639Y-110073725D01*
X163153782Y-110122106D01*
X163782735Y-110605915D02*
X163782735Y-111089725D01*
X163444068Y-110073725D02*
X163782735Y-110605915D01*
X164121401Y-110073725D01*
X164895496Y-110412391D02*
X164895496Y-111089725D01*
X164653592Y-110025344D02*
X164411687Y-110751058D01*
X165040639Y-110751058D01*
X141479116Y-112282315D02*
X141479116Y-112475839D01*
X141527496Y-112475839D02*
X141527496Y-112282315D01*
X141575877Y-112233934D02*
X141575877Y-112524220D01*
X141624258Y-112475839D02*
X141624258Y-112282315D01*
X141672639Y-112282315D02*
X141672639Y-112475839D01*
X141479116Y-112427458D02*
X141575877Y-112524220D01*
X141672639Y-112427458D01*
X141479116Y-112330696D02*
X141575877Y-112233934D01*
X141672639Y-112330696D01*
X141479116Y-112282315D02*
X141575877Y-112233934D01*
X141672639Y-112282315D01*
X141721020Y-112379077D01*
X141672639Y-112475839D01*
X141575877Y-112524220D01*
X141479116Y-112475839D01*
X141430735Y-112379077D01*
X141479116Y-112282315D01*
X143172449Y-112717744D02*
X143269211Y-112766125D01*
X143462735Y-112766125D01*
X143559496Y-112717744D01*
X143607877Y-112620982D01*
X143607877Y-112572601D01*
X143559496Y-112475839D01*
X143462735Y-112427458D01*
X143317592Y-112427458D01*
X143220830Y-112379077D01*
X143172449Y-112282315D01*
X143172449Y-112233934D01*
X143220830Y-112137172D01*
X143317592Y-112088791D01*
X143462735Y-112088791D01*
X143559496Y-112137172D01*
X144043306Y-112766125D02*
X144043306Y-111750125D01*
X144478735Y-112766125D02*
X144478735Y-112233934D01*
X144430354Y-112137172D01*
X144333592Y-112088791D01*
X144188449Y-112088791D01*
X144091687Y-112137172D01*
X144043306Y-112185553D01*
X145397973Y-112766125D02*
X145397973Y-112233934D01*
X145349592Y-112137172D01*
X145252830Y-112088791D01*
X145059306Y-112088791D01*
X144962544Y-112137172D01*
X145397973Y-112717744D02*
X145301211Y-112766125D01*
X145059306Y-112766125D01*
X144962544Y-112717744D01*
X144914163Y-112620982D01*
X144914163Y-112524220D01*
X144962544Y-112427458D01*
X145059306Y-112379077D01*
X145301211Y-112379077D01*
X145397973Y-112330696D01*
X145881782Y-112766125D02*
X145881782Y-111750125D01*
X145978544Y-112379077D02*
X146268830Y-112766125D01*
X146268830Y-112088791D02*
X145881782Y-112475839D01*
X147091306Y-112717744D02*
X146994544Y-112766125D01*
X146801020Y-112766125D01*
X146704258Y-112717744D01*
X146655877Y-112620982D01*
X146655877Y-112233934D01*
X146704258Y-112137172D01*
X146801020Y-112088791D01*
X146994544Y-112088791D01*
X147091306Y-112137172D01*
X147139687Y-112233934D01*
X147139687Y-112330696D01*
X146655877Y-112427458D01*
X148349211Y-112766125D02*
X148349211Y-112088791D01*
X148349211Y-111750125D02*
X148300830Y-111798506D01*
X148349211Y-111846886D01*
X148397592Y-111798506D01*
X148349211Y-111750125D01*
X148349211Y-111846886D01*
X148687877Y-112088791D02*
X149074925Y-112088791D01*
X148833020Y-111750125D02*
X148833020Y-112620982D01*
X148881401Y-112717744D01*
X148978163Y-112766125D01*
X149074925Y-112766125D01*
X150332830Y-112766125D02*
X150236068Y-112717744D01*
X150187687Y-112620982D01*
X150187687Y-111750125D01*
X150719877Y-112766125D02*
X150719877Y-112088791D01*
X150719877Y-111750125D02*
X150671496Y-111798506D01*
X150719877Y-111846886D01*
X150768258Y-111798506D01*
X150719877Y-111750125D01*
X150719877Y-111846886D01*
X151203687Y-112766125D02*
X151203687Y-111750125D01*
X151300449Y-112379077D02*
X151590735Y-112766125D01*
X151590735Y-112088791D02*
X151203687Y-112475839D01*
X152413211Y-112717744D02*
X152316449Y-112766125D01*
X152122925Y-112766125D01*
X152026163Y-112717744D01*
X151977782Y-112620982D01*
X151977782Y-112233934D01*
X152026163Y-112137172D01*
X152122925Y-112088791D01*
X152316449Y-112088791D01*
X152413211Y-112137172D01*
X152461592Y-112233934D01*
X152461592Y-112330696D01*
X151977782Y-112427458D01*
X154106544Y-112766125D02*
X154106544Y-112233934D01*
X154058163Y-112137172D01*
X153961401Y-112088791D01*
X153767877Y-112088791D01*
X153671116Y-112137172D01*
X154106544Y-112717744D02*
X154009782Y-112766125D01*
X153767877Y-112766125D01*
X153671116Y-112717744D01*
X153622735Y-112620982D01*
X153622735Y-112524220D01*
X153671116Y-112427458D01*
X153767877Y-112379077D01*
X154009782Y-112379077D01*
X154106544Y-112330696D01*
X155364449Y-112088791D02*
X155364449Y-113104791D01*
X155364449Y-112137172D02*
X155461211Y-112088791D01*
X155654735Y-112088791D01*
X155751496Y-112137172D01*
X155799877Y-112185553D01*
X155848258Y-112282315D01*
X155848258Y-112572601D01*
X155799877Y-112669363D01*
X155751496Y-112717744D01*
X155654735Y-112766125D01*
X155461211Y-112766125D01*
X155364449Y-112717744D01*
X156428830Y-112766125D02*
X156332068Y-112717744D01*
X156283687Y-112669363D01*
X156235306Y-112572601D01*
X156235306Y-112282315D01*
X156283687Y-112185553D01*
X156332068Y-112137172D01*
X156428830Y-112088791D01*
X156573973Y-112088791D01*
X156670735Y-112137172D01*
X156719116Y-112185553D01*
X156767496Y-112282315D01*
X156767496Y-112572601D01*
X156719116Y-112669363D01*
X156670735Y-112717744D01*
X156573973Y-112766125D01*
X156428830Y-112766125D01*
X157348068Y-112766125D02*
X157251306Y-112717744D01*
X157202925Y-112620982D01*
X157202925Y-111750125D01*
X158170544Y-112766125D02*
X158170544Y-112233934D01*
X158122163Y-112137172D01*
X158025401Y-112088791D01*
X157831877Y-112088791D01*
X157735116Y-112137172D01*
X158170544Y-112717744D02*
X158073782Y-112766125D01*
X157831877Y-112766125D01*
X157735116Y-112717744D01*
X157686735Y-112620982D01*
X157686735Y-112524220D01*
X157735116Y-112427458D01*
X157831877Y-112379077D01*
X158073782Y-112379077D01*
X158170544Y-112330696D01*
X158654354Y-112766125D02*
X158654354Y-112088791D01*
X158654354Y-112282315D02*
X158702735Y-112185553D01*
X158751116Y-112137172D01*
X158847877Y-112088791D01*
X158944639Y-112088791D01*
X159428449Y-112766125D02*
X159331687Y-112717744D01*
X159283306Y-112669363D01*
X159234925Y-112572601D01*
X159234925Y-112282315D01*
X159283306Y-112185553D01*
X159331687Y-112137172D01*
X159428449Y-112088791D01*
X159573592Y-112088791D01*
X159670354Y-112137172D01*
X159718735Y-112185553D01*
X159767116Y-112282315D01*
X159767116Y-112572601D01*
X159718735Y-112669363D01*
X159670354Y-112717744D01*
X159573592Y-112766125D01*
X159428449Y-112766125D01*
X160202544Y-112766125D02*
X160202544Y-112088791D01*
X160202544Y-111750125D02*
X160154163Y-111798506D01*
X160202544Y-111846886D01*
X160250925Y-111798506D01*
X160202544Y-111750125D01*
X160202544Y-111846886D01*
X161121782Y-112766125D02*
X161121782Y-111750125D01*
X161121782Y-112717744D02*
X161025020Y-112766125D01*
X160831496Y-112766125D01*
X160734735Y-112717744D01*
X160686354Y-112669363D01*
X160637973Y-112572601D01*
X160637973Y-112282315D01*
X160686354Y-112185553D01*
X160734735Y-112137172D01*
X160831496Y-112088791D01*
X161025020Y-112088791D01*
X161121782Y-112137172D01*
X162379687Y-112088791D02*
X162379687Y-113104791D01*
X162379687Y-112137172D02*
X162476449Y-112088791D01*
X162669973Y-112088791D01*
X162766735Y-112137172D01*
X162815116Y-112185553D01*
X162863496Y-112282315D01*
X162863496Y-112572601D01*
X162815116Y-112669363D01*
X162766735Y-112717744D01*
X162669973Y-112766125D01*
X162476449Y-112766125D01*
X162379687Y-112717744D01*
X163298925Y-112766125D02*
X163298925Y-112088791D01*
X163298925Y-111750125D02*
X163250544Y-111798506D01*
X163298925Y-111846886D01*
X163347306Y-111798506D01*
X163298925Y-111750125D01*
X163298925Y-111846886D01*
X164218163Y-112717744D02*
X164121401Y-112766125D01*
X163927877Y-112766125D01*
X163831116Y-112717744D01*
X163782735Y-112669363D01*
X163734354Y-112572601D01*
X163734354Y-112282315D01*
X163782735Y-112185553D01*
X163831116Y-112137172D01*
X163927877Y-112088791D01*
X164121401Y-112088791D01*
X164218163Y-112137172D01*
X164508449Y-112088791D02*
X164895496Y-112088791D01*
X164653592Y-111750125D02*
X164653592Y-112620982D01*
X164701973Y-112717744D01*
X164798735Y-112766125D01*
X164895496Y-112766125D01*
X165669592Y-112088791D02*
X165669592Y-112766125D01*
X165234163Y-112088791D02*
X165234163Y-112620982D01*
X165282544Y-112717744D01*
X165379306Y-112766125D01*
X165524449Y-112766125D01*
X165621211Y-112717744D01*
X165669592Y-112669363D01*
X166153401Y-112766125D02*
X166153401Y-112088791D01*
X166153401Y-112282315D02*
X166201782Y-112185553D01*
X166250163Y-112137172D01*
X166346925Y-112088791D01*
X166443687Y-112088791D01*
X167169401Y-112717744D02*
X167072639Y-112766125D01*
X166879116Y-112766125D01*
X166782354Y-112717744D01*
X166733973Y-112620982D01*
X166733973Y-112233934D01*
X166782354Y-112137172D01*
X166879116Y-112088791D01*
X167072639Y-112088791D01*
X167169401Y-112137172D01*
X167217782Y-112233934D01*
X167217782Y-112330696D01*
X166733973Y-112427458D01*
D15*
%TO.C,REF\u002A\u002A*%
X167949000Y-90220000D03*
X172449000Y-90220000D03*
X168849000Y-90220000D03*
X169749000Y-90220000D03*
X170649000Y-90220000D03*
X171549000Y-90220000D03*
%TD*%
%TO.C,REF\u002A\u002A*%
X171549000Y-93220000D03*
X170649000Y-93220000D03*
X169749000Y-93220000D03*
X168849000Y-93220000D03*
X172449000Y-93220000D03*
X167949000Y-93220000D03*
%TD*%
%TO.C,REF\u002A\u002A*%
X168049000Y-71720000D03*
X172549000Y-71720000D03*
X168949000Y-71720000D03*
X169849000Y-71720000D03*
X170749000Y-71720000D03*
X171649000Y-71720000D03*
%TD*%
%TO.C,REF\u002A\u002A*%
X171649000Y-68720000D03*
X170749000Y-68720000D03*
X169849000Y-68720000D03*
X168949000Y-68720000D03*
X172549000Y-68720000D03*
X168049000Y-68720000D03*
%TD*%
D16*
%TO.C,REF\u002A\u002A*%
X172049000Y-86620000D03*
X169549000Y-86620000D03*
X167049000Y-86620000D03*
%TD*%
%TO.C,REF\u002A\u002A*%
X167049000Y-75420000D03*
X169549000Y-75420000D03*
X172049000Y-75420000D03*
%TD*%
D17*
%TO.C,REF\u002A\u002A*%
X133539116Y-143971906D03*
X136079116Y-143971906D03*
X133539116Y-141431906D03*
D18*
X136079116Y-141431906D03*
%TD*%
D19*
%TO.C,U1*%
X161670000Y-159710000D03*
D20*
X161670000Y-157170000D03*
X161670000Y-154630000D03*
X161670000Y-152090000D03*
X161670000Y-149550000D03*
X161670000Y-147010000D03*
X161670000Y-144470000D03*
X161670000Y-141930000D03*
X161670000Y-139390000D03*
X161670000Y-136850000D03*
X161670000Y-134310000D03*
X161670000Y-131770000D03*
X161670000Y-129230000D03*
X146430000Y-159710000D03*
X146430000Y-157170000D03*
X146430000Y-154630000D03*
X146430000Y-152090000D03*
X146430000Y-149550000D03*
X146430000Y-147010000D03*
X146430000Y-144470000D03*
X146430000Y-141930000D03*
X146430000Y-139390000D03*
X146430000Y-136850000D03*
X146430000Y-134310000D03*
X146430000Y-131770000D03*
X146430000Y-129230000D03*
X161670000Y-126690000D03*
X159130000Y-126690000D03*
X156590000Y-126690000D03*
X146430000Y-126690000D03*
X148970000Y-126690000D03*
X151510000Y-126690000D03*
X154050000Y-126690000D03*
%TD*%
D21*
%TO.C,SW2*%
X123069000Y-86291906D03*
X123069000Y-90771906D03*
D22*
X125559000Y-85021906D03*
X125559000Y-92041906D03*
%TD*%
%TO.C,SW1*%
X182439000Y-85010000D03*
X182439000Y-92030000D03*
D21*
X184929000Y-86280000D03*
X184929000Y-90760000D03*
%TD*%
%TO.C,J1*%
X137600000Y-50600000D03*
X130600000Y-50600000D03*
%TD*%
%TO.C,J2*%
X170500000Y-50600000D03*
X177500000Y-50600000D03*
%TD*%
M02*
