%TF.GenerationSoftware,KiCad,Pcbnew,(5.1.9-0-10_14)*%
%TF.CreationDate,2023-01-12T12:26:04-08:00*%
%TF.ProjectId,integrator,696e7465-6772-4617-946f-722e6b696361,rev?*%
%TF.SameCoordinates,Original*%
%TF.FileFunction,Legend,Bot*%
%TF.FilePolarity,Positive*%
%FSLAX46Y46*%
G04 Gerber Fmt 4.6, Leading zero omitted, Abs format (unit mm)*
G04 Created by KiCad (PCBNEW (5.1.9-0-10_14)) date 2023-01-12 12:26:04*
%MOMM*%
%LPD*%
G01*
G04 APERTURE LIST*
%ADD10C,0.150000*%
%ADD11C,0.127000*%
%ADD12C,0.250000*%
%ADD13C,0.131000*%
%ADD14C,0.181000*%
%ADD15C,0.204800*%
%ADD16C,0.304800*%
%ADD17C,0.152400*%
%ADD18C,0.375000*%
%ADD19C,0.120000*%
%ADD20C,0.200000*%
%ADD21C,0.100000*%
G04 APERTURE END LIST*
D10*
X150667476Y-51235380D02*
X150667476Y-50235380D01*
X150096047Y-51235380D01*
X150096047Y-50235380D01*
X149429380Y-50235380D02*
X149238904Y-50235380D01*
X149143666Y-50283000D01*
X149048428Y-50378238D01*
X149000809Y-50568714D01*
X149000809Y-50902047D01*
X149048428Y-51092523D01*
X149143666Y-51187761D01*
X149238904Y-51235380D01*
X149429380Y-51235380D01*
X149524619Y-51187761D01*
X149619857Y-51092523D01*
X149667476Y-50902047D01*
X149667476Y-50568714D01*
X149619857Y-50378238D01*
X149524619Y-50283000D01*
X149429380Y-50235380D01*
X148715095Y-50235380D02*
X148143666Y-50235380D01*
X148429380Y-51235380D02*
X148429380Y-50235380D01*
X152929380Y-52837761D02*
X152786523Y-52885380D01*
X152548428Y-52885380D01*
X152453190Y-52837761D01*
X152405571Y-52790142D01*
X152357952Y-52694904D01*
X152357952Y-52599666D01*
X152405571Y-52504428D01*
X152453190Y-52456809D01*
X152548428Y-52409190D01*
X152738904Y-52361571D01*
X152834142Y-52313952D01*
X152881761Y-52266333D01*
X152929380Y-52171095D01*
X152929380Y-52075857D01*
X152881761Y-51980619D01*
X152834142Y-51933000D01*
X152738904Y-51885380D01*
X152500809Y-51885380D01*
X152357952Y-51933000D01*
X152072238Y-51885380D02*
X151500809Y-51885380D01*
X151786523Y-52885380D02*
X151786523Y-51885380D01*
X150977000Y-51885380D02*
X150786523Y-51885380D01*
X150691285Y-51933000D01*
X150596047Y-52028238D01*
X150548428Y-52218714D01*
X150548428Y-52552047D01*
X150596047Y-52742523D01*
X150691285Y-52837761D01*
X150786523Y-52885380D01*
X150977000Y-52885380D01*
X151072238Y-52837761D01*
X151167476Y-52742523D01*
X151215095Y-52552047D01*
X151215095Y-52218714D01*
X151167476Y-52028238D01*
X151072238Y-51933000D01*
X150977000Y-51885380D01*
X150119857Y-52885380D02*
X150119857Y-51885380D01*
X149738904Y-51885380D01*
X149643666Y-51933000D01*
X149596047Y-51980619D01*
X149548428Y-52075857D01*
X149548428Y-52218714D01*
X149596047Y-52313952D01*
X149643666Y-52361571D01*
X149738904Y-52409190D01*
X150119857Y-52409190D01*
X149119857Y-52885380D02*
X149119857Y-51885380D01*
X148738904Y-51885380D01*
X148643666Y-51933000D01*
X148596047Y-51980619D01*
X148548428Y-52075857D01*
X148548428Y-52218714D01*
X148596047Y-52313952D01*
X148643666Y-52361571D01*
X148738904Y-52409190D01*
X149119857Y-52409190D01*
X148119857Y-52885380D02*
X148119857Y-51885380D01*
X147643666Y-52885380D02*
X147643666Y-51885380D01*
X147072238Y-52885380D01*
X147072238Y-51885380D01*
X146072238Y-51933000D02*
X146167476Y-51885380D01*
X146310333Y-51885380D01*
X146453190Y-51933000D01*
X146548428Y-52028238D01*
X146596047Y-52123476D01*
X146643666Y-52313952D01*
X146643666Y-52456809D01*
X146596047Y-52647285D01*
X146548428Y-52742523D01*
X146453190Y-52837761D01*
X146310333Y-52885380D01*
X146215095Y-52885380D01*
X146072238Y-52837761D01*
X146024619Y-52790142D01*
X146024619Y-52456809D01*
X146215095Y-52456809D01*
X161565571Y-51235380D02*
X161565571Y-50235380D01*
X161327476Y-50235380D01*
X161184619Y-50283000D01*
X161089380Y-50378238D01*
X161041761Y-50473476D01*
X160994142Y-50663952D01*
X160994142Y-50806809D01*
X161041761Y-50997285D01*
X161089380Y-51092523D01*
X161184619Y-51187761D01*
X161327476Y-51235380D01*
X161565571Y-51235380D01*
X160375095Y-50235380D02*
X160184619Y-50235380D01*
X160089380Y-50283000D01*
X159994142Y-50378238D01*
X159946523Y-50568714D01*
X159946523Y-50902047D01*
X159994142Y-51092523D01*
X160089380Y-51187761D01*
X160184619Y-51235380D01*
X160375095Y-51235380D01*
X160470333Y-51187761D01*
X160565571Y-51092523D01*
X160613190Y-50902047D01*
X160613190Y-50568714D01*
X160565571Y-50378238D01*
X160470333Y-50283000D01*
X160375095Y-50235380D01*
X159517952Y-51235380D02*
X159517952Y-50235380D01*
X158946523Y-51235380D01*
X158946523Y-50235380D01*
X158422714Y-50235380D02*
X158422714Y-50283000D01*
X158470333Y-50378238D01*
X158517952Y-50425857D01*
X158137000Y-50235380D02*
X157565571Y-50235380D01*
X157851285Y-51235380D02*
X157851285Y-50235380D01*
X161327476Y-52837761D02*
X161184619Y-52885380D01*
X160946523Y-52885380D01*
X160851285Y-52837761D01*
X160803666Y-52790142D01*
X160756047Y-52694904D01*
X160756047Y-52599666D01*
X160803666Y-52504428D01*
X160851285Y-52456809D01*
X160946523Y-52409190D01*
X161137000Y-52361571D01*
X161232238Y-52313952D01*
X161279857Y-52266333D01*
X161327476Y-52171095D01*
X161327476Y-52075857D01*
X161279857Y-51980619D01*
X161232238Y-51933000D01*
X161137000Y-51885380D01*
X160898904Y-51885380D01*
X160756047Y-51933000D01*
X160470333Y-51885380D02*
X159898904Y-51885380D01*
X160184619Y-52885380D02*
X160184619Y-51885380D01*
X159375095Y-51885380D02*
X159184619Y-51885380D01*
X159089380Y-51933000D01*
X158994142Y-52028238D01*
X158946523Y-52218714D01*
X158946523Y-52552047D01*
X158994142Y-52742523D01*
X159089380Y-52837761D01*
X159184619Y-52885380D01*
X159375095Y-52885380D01*
X159470333Y-52837761D01*
X159565571Y-52742523D01*
X159613190Y-52552047D01*
X159613190Y-52218714D01*
X159565571Y-52028238D01*
X159470333Y-51933000D01*
X159375095Y-51885380D01*
X158517952Y-52885380D02*
X158517952Y-51885380D01*
X158137000Y-51885380D01*
X158041761Y-51933000D01*
X157994142Y-51980619D01*
X157946523Y-52075857D01*
X157946523Y-52218714D01*
X157994142Y-52313952D01*
X158041761Y-52361571D01*
X158137000Y-52409190D01*
X158517952Y-52409190D01*
D11*
X134674327Y-122319406D02*
X134135512Y-122858222D01*
X134648669Y-122345064D02*
X134623012Y-122268091D01*
X134520380Y-122165459D01*
X134443406Y-122139801D01*
X134392091Y-122139801D01*
X134315117Y-122165459D01*
X134161170Y-122319406D01*
X134135512Y-122396380D01*
X134135512Y-122447696D01*
X134161170Y-122524669D01*
X134263801Y-122627301D01*
X134340775Y-122652959D01*
X133750644Y-122114143D02*
X133827617Y-122139801D01*
X133878933Y-122139801D01*
X133955907Y-122114143D01*
X134109854Y-121960196D01*
X134135512Y-121883223D01*
X134135512Y-121831907D01*
X134109854Y-121754933D01*
X134032880Y-121677960D01*
X133955907Y-121652302D01*
X133904591Y-121652302D01*
X133827617Y-121677960D01*
X133673670Y-121831907D01*
X133648012Y-121908880D01*
X133648012Y-121960196D01*
X133673670Y-122037170D01*
X133750644Y-122114143D01*
X133417091Y-121883223D02*
X133006565Y-121472697D01*
X132929592Y-121293091D02*
X133468407Y-120754276D01*
X133263144Y-120959539D02*
X133237486Y-120882565D01*
X133134855Y-120779934D01*
X133057881Y-120754276D01*
X133006565Y-120754276D01*
X132929592Y-120779934D01*
X132775645Y-120933881D01*
X132749987Y-121010855D01*
X132749987Y-121062171D01*
X132775645Y-121139144D01*
X132878276Y-121241776D01*
X132955250Y-121267434D01*
X132211171Y-120574671D02*
X132493408Y-120292434D01*
X132570382Y-120266776D01*
X132647355Y-120292434D01*
X132749987Y-120395066D01*
X132775645Y-120472039D01*
X132236829Y-120549013D02*
X132262487Y-120625987D01*
X132390776Y-120754276D01*
X132467750Y-120779934D01*
X132544724Y-120754276D01*
X132596039Y-120702960D01*
X132621697Y-120625987D01*
X132596039Y-120549013D01*
X132467750Y-120420724D01*
X132442092Y-120343750D01*
X132390776Y-120035856D02*
X132185513Y-119830593D01*
X132493408Y-119779277D02*
X132031566Y-120241119D01*
X131954593Y-120266776D01*
X131877619Y-120241119D01*
X131826303Y-120189803D01*
X132082882Y-119727961D02*
X131877619Y-119522698D01*
X132185513Y-119471382D02*
X131723672Y-119933224D01*
X131646698Y-119958882D01*
X131569724Y-119933224D01*
X131518409Y-119881908D01*
X134276302Y-128057566D02*
X134635512Y-128775987D01*
X133917091Y-128416776D01*
X134276302Y-129135197D02*
X133917091Y-128775987D01*
X134019723Y-128878618D02*
X133942749Y-128852960D01*
X133891434Y-128852960D01*
X133814460Y-128878618D01*
X133763144Y-128929934D01*
X133711828Y-129699670D02*
X133429592Y-129417434D01*
X133403934Y-129340460D01*
X133429592Y-129263486D01*
X133532223Y-129160855D01*
X133609197Y-129135197D01*
X133686171Y-129674012D02*
X133763144Y-129648354D01*
X133891434Y-129520065D01*
X133917091Y-129443091D01*
X133891434Y-129366118D01*
X133840118Y-129314802D01*
X133763144Y-129289144D01*
X133686171Y-129314802D01*
X133557881Y-129443091D01*
X133480908Y-129468749D01*
X133147355Y-129545723D02*
X133403934Y-130007565D01*
X133044724Y-129853617D01*
X133198671Y-130212828D01*
X132736829Y-129956249D01*
X138003933Y-152979935D02*
X138363143Y-153698355D01*
X137644723Y-153339145D01*
X137773012Y-154288486D02*
X137490776Y-154006250D01*
X137465118Y-153929276D01*
X137490776Y-153852302D01*
X137593407Y-153749671D01*
X137670381Y-153724013D01*
X137747354Y-154262828D02*
X137824328Y-154237171D01*
X137952617Y-154108881D01*
X137978275Y-154031908D01*
X137952617Y-153954934D01*
X137901302Y-153903618D01*
X137824328Y-153877960D01*
X137747354Y-153903618D01*
X137619065Y-154031908D01*
X137542091Y-154057565D01*
X137516434Y-154545065D02*
X137157223Y-154185855D01*
X137259855Y-154288486D02*
X137182881Y-154262828D01*
X137131565Y-154262828D01*
X137054592Y-154288486D01*
X137003276Y-154339802D01*
X136951960Y-155058223D02*
X137028934Y-155032565D01*
X137131565Y-154929933D01*
X137157223Y-154852960D01*
X137131565Y-154775986D01*
X136926302Y-154570723D01*
X136849329Y-154545065D01*
X136772355Y-154570723D01*
X136669724Y-154673354D01*
X136644066Y-154750328D01*
X136669724Y-154827302D01*
X136721039Y-154878617D01*
X137028934Y-154673354D01*
X136438803Y-154904275D02*
X136233540Y-155109538D01*
X136721039Y-155340459D02*
X136259198Y-154878617D01*
X136182224Y-154852960D01*
X136105250Y-154878617D01*
X136053935Y-154929933D01*
X144470936Y-148508048D02*
X144631965Y-149294959D01*
X144030995Y-148762048D01*
X144192024Y-149548959D02*
X143938024Y-149109018D01*
X144010596Y-149234716D02*
X143942886Y-149190010D01*
X143893319Y-149176729D01*
X143812327Y-149181590D01*
X143749478Y-149217876D01*
X143513970Y-149898535D02*
X143594962Y-149893674D01*
X143720659Y-149821102D01*
X143765365Y-149753392D01*
X143760504Y-149672401D01*
X143615361Y-149421006D01*
X143547651Y-149376300D01*
X143466659Y-149381161D01*
X143340962Y-149453733D01*
X143296256Y-149521443D01*
X143301117Y-149602434D01*
X143337403Y-149665283D01*
X143687932Y-149546703D01*
X142681050Y-149834733D02*
X142989479Y-150368947D01*
X143057189Y-150413653D01*
X143106756Y-150426934D01*
X143187748Y-150422073D01*
X143282021Y-150367644D01*
X143326727Y-150299934D01*
X142916908Y-150243249D02*
X142997899Y-150238388D01*
X143123597Y-150165817D01*
X143168302Y-150098106D01*
X143181584Y-150048539D01*
X143176723Y-149967548D01*
X143067865Y-149779002D01*
X143000155Y-149734296D01*
X142950588Y-149721014D01*
X142869597Y-149725876D01*
X142743899Y-149798447D01*
X142699193Y-149866157D01*
X147449000Y-149800000D02*
X146649000Y-148450000D01*
X146649000Y-148450000D02*
X145849000Y-149650000D01*
X145849000Y-149650000D02*
X147399000Y-149750000D01*
X147399000Y-148400000D02*
X145899000Y-148450000D01*
X146649000Y-149750000D02*
X146599000Y-151050000D01*
X147399000Y-148400000D02*
X147399000Y-148750000D01*
X147399000Y-148750000D02*
X147149000Y-148750000D01*
X145899000Y-148450000D02*
X145849000Y-148050000D01*
X145849000Y-148050000D02*
X146149000Y-148100000D01*
D10*
X128024000Y-123177380D02*
X128024000Y-123415476D01*
X128262095Y-123320238D02*
X128024000Y-123415476D01*
X127785904Y-123320238D01*
X128166857Y-123605952D02*
X128024000Y-123415476D01*
X127881142Y-123605952D01*
X143949000Y-154202380D02*
X143949000Y-154440476D01*
X144187095Y-154345238D02*
X143949000Y-154440476D01*
X143710904Y-154345238D01*
X144091857Y-154630952D02*
X143949000Y-154440476D01*
X143806142Y-154630952D01*
D12*
X153129952Y-58671428D02*
X152368047Y-58671428D01*
X152749000Y-59052380D02*
X152749000Y-58290476D01*
D13*
X154936142Y-66462285D02*
X155299000Y-66112952D01*
X155661857Y-66462285D01*
D14*
X157522428Y-66324190D02*
X157957857Y-66875809D01*
X158393285Y-66324190D01*
D13*
X155661857Y-66887714D02*
X155299000Y-67237047D01*
X154936142Y-66887714D01*
X152799000Y-67461714D02*
X152799000Y-66713142D01*
D15*
X153094142Y-66392857D02*
X152876428Y-66610571D01*
D16*
X152989476Y-65965428D02*
X152608523Y-65965428D01*
X152418047Y-66038000D01*
X152227571Y-66183142D01*
X152132333Y-66473428D01*
X152132333Y-66981428D01*
X152227571Y-67271714D01*
X152418047Y-67416857D01*
X152608523Y-67489428D01*
X152989476Y-67489428D01*
X153179952Y-67416857D01*
X153370428Y-67271714D01*
X153465666Y-66981428D01*
X153465666Y-66473428D01*
X153370428Y-66183142D01*
X153179952Y-66038000D01*
X152989476Y-65965428D01*
X150611857Y-67294285D02*
X150539285Y-67366857D01*
X150611857Y-67439428D01*
X150684428Y-67366857D01*
X150611857Y-67294285D01*
X150611857Y-67439428D01*
X150611857Y-66858857D02*
X150684428Y-65988000D01*
X150611857Y-65915428D01*
X150539285Y-65988000D01*
X150611857Y-66858857D01*
X150611857Y-65915428D01*
X149886142Y-67294285D02*
X149813571Y-67366857D01*
X149886142Y-67439428D01*
X149958714Y-67366857D01*
X149886142Y-67294285D01*
X149886142Y-67439428D01*
X149886142Y-66858857D02*
X149958714Y-65988000D01*
X149886142Y-65915428D01*
X149813571Y-65988000D01*
X149886142Y-66858857D01*
X149886142Y-65915428D01*
X160399000Y-58273428D02*
X159963571Y-58708857D01*
X160399000Y-59144285D01*
X160834428Y-58999142D02*
X160544142Y-58708857D01*
X160834428Y-58418571D01*
D10*
X138894238Y-111011904D02*
X138894238Y-111583333D01*
X138932333Y-111697619D01*
X139008523Y-111773809D01*
X139122809Y-111811904D01*
X139199000Y-111811904D01*
X138132333Y-111811904D02*
X138513285Y-111811904D01*
X138513285Y-111011904D01*
X137408523Y-111735714D02*
X137446619Y-111773809D01*
X137560904Y-111811904D01*
X137637095Y-111811904D01*
X137751380Y-111773809D01*
X137827571Y-111697619D01*
X137865666Y-111621428D01*
X137903761Y-111469047D01*
X137903761Y-111354761D01*
X137865666Y-111202380D01*
X137827571Y-111126190D01*
X137751380Y-111050000D01*
X137637095Y-111011904D01*
X137560904Y-111011904D01*
X137446619Y-111050000D01*
X137408523Y-111088095D01*
X136837095Y-111011904D02*
X136837095Y-111583333D01*
X136875190Y-111697619D01*
X136951380Y-111773809D01*
X137065666Y-111811904D01*
X137141857Y-111811904D01*
X136075190Y-111811904D02*
X136456142Y-111811904D01*
X136456142Y-111011904D01*
X135351380Y-111735714D02*
X135389476Y-111773809D01*
X135503761Y-111811904D01*
X135579952Y-111811904D01*
X135694238Y-111773809D01*
X135770428Y-111697619D01*
X135808523Y-111621428D01*
X135846619Y-111469047D01*
X135846619Y-111354761D01*
X135808523Y-111202380D01*
X135770428Y-111126190D01*
X135694238Y-111050000D01*
X135579952Y-111011904D01*
X135503761Y-111011904D01*
X135389476Y-111050000D01*
X135351380Y-111088095D01*
X134779952Y-111011904D02*
X134779952Y-111583333D01*
X134818047Y-111697619D01*
X134894238Y-111773809D01*
X135008523Y-111811904D01*
X135084714Y-111811904D01*
X134018047Y-111811904D02*
X134399000Y-111811904D01*
X134399000Y-111011904D01*
X133294238Y-111735714D02*
X133332333Y-111773809D01*
X133446619Y-111811904D01*
X133522809Y-111811904D01*
X133637095Y-111773809D01*
X133713285Y-111697619D01*
X133751380Y-111621428D01*
X133789476Y-111469047D01*
X133789476Y-111354761D01*
X133751380Y-111202380D01*
X133713285Y-111126190D01*
X133637095Y-111050000D01*
X133522809Y-111011904D01*
X133446619Y-111011904D01*
X133332333Y-111050000D01*
X133294238Y-111088095D01*
X132722809Y-111011904D02*
X132722809Y-111583333D01*
X132760904Y-111697619D01*
X132837095Y-111773809D01*
X132951380Y-111811904D01*
X133027571Y-111811904D01*
X131960904Y-111811904D02*
X132341857Y-111811904D01*
X132341857Y-111011904D01*
X131237095Y-111735714D02*
X131275190Y-111773809D01*
X131389476Y-111811904D01*
X131465666Y-111811904D01*
X131579952Y-111773809D01*
X131656142Y-111697619D01*
X131694238Y-111621428D01*
X131732333Y-111469047D01*
X131732333Y-111354761D01*
X131694238Y-111202380D01*
X131656142Y-111126190D01*
X131579952Y-111050000D01*
X131465666Y-111011904D01*
X131389476Y-111011904D01*
X131275190Y-111050000D01*
X131237095Y-111088095D01*
D16*
X148279571Y-66558857D02*
X147118428Y-66558857D01*
X148279571Y-58708857D02*
X147118428Y-58708857D01*
X158429571Y-58758857D02*
X157268428Y-58758857D01*
X150829571Y-58558857D02*
X149668428Y-58558857D01*
X150249000Y-59139428D02*
X150249000Y-57978285D01*
X160979571Y-66558857D02*
X159818428Y-66558857D01*
X160399000Y-67139428D02*
X160399000Y-65978285D01*
D11*
X127441000Y-45300000D02*
X126591000Y-44800000D01*
X126591000Y-45800000D02*
X127391000Y-45300000D01*
X126591000Y-44800000D02*
X126591000Y-45800000D01*
X127441000Y-44800000D02*
X127441000Y-45850000D01*
X180657000Y-45300000D02*
X181507000Y-45800000D01*
X181507000Y-44800000D02*
X180707000Y-45300000D01*
X181507000Y-45800000D02*
X181507000Y-44800000D01*
X180657000Y-45800000D02*
X180657000Y-44750000D01*
X142199000Y-127300000D02*
X141899000Y-127250000D01*
X142149000Y-126900000D02*
X142199000Y-127300000D01*
X140649000Y-126600000D02*
X140899000Y-126600000D01*
X140649000Y-126950000D02*
X140649000Y-126600000D01*
X141399000Y-125600000D02*
X141449000Y-124300000D01*
X140649000Y-126950000D02*
X142149000Y-126900000D01*
X142199000Y-125700000D02*
X140649000Y-125600000D01*
X141399000Y-126900000D02*
X142199000Y-125700000D01*
X140599000Y-125550000D02*
X141399000Y-126900000D01*
D17*
X143443952Y-160319142D02*
X143443952Y-159775142D01*
X143443952Y-159930571D02*
X143395571Y-159852857D01*
X143347190Y-159814000D01*
X143250428Y-159775142D01*
X143153666Y-159775142D01*
X142427952Y-160280285D02*
X142524714Y-160319142D01*
X142718238Y-160319142D01*
X142815000Y-160280285D01*
X142863380Y-160202571D01*
X142863380Y-159891714D01*
X142815000Y-159814000D01*
X142718238Y-159775142D01*
X142524714Y-159775142D01*
X142427952Y-159814000D01*
X142379571Y-159891714D01*
X142379571Y-159969428D01*
X142863380Y-160047142D01*
X141992523Y-160280285D02*
X141895761Y-160319142D01*
X141702238Y-160319142D01*
X141605476Y-160280285D01*
X141557095Y-160202571D01*
X141557095Y-160163714D01*
X141605476Y-160086000D01*
X141702238Y-160047142D01*
X141847380Y-160047142D01*
X141944142Y-160008285D01*
X141992523Y-159930571D01*
X141992523Y-159891714D01*
X141944142Y-159814000D01*
X141847380Y-159775142D01*
X141702238Y-159775142D01*
X141605476Y-159814000D01*
X140734619Y-160280285D02*
X140831380Y-160319142D01*
X141024904Y-160319142D01*
X141121666Y-160280285D01*
X141170047Y-160202571D01*
X141170047Y-159891714D01*
X141121666Y-159814000D01*
X141024904Y-159775142D01*
X140831380Y-159775142D01*
X140734619Y-159814000D01*
X140686238Y-159891714D01*
X140686238Y-159969428D01*
X141170047Y-160047142D01*
X140395952Y-159775142D02*
X140008904Y-159775142D01*
X140250809Y-159503142D02*
X140250809Y-160202571D01*
X140202428Y-160280285D01*
X140105666Y-160319142D01*
X140008904Y-160319142D01*
D18*
X164340068Y-48157142D02*
X164340068Y-45157142D01*
X163425782Y-48157142D01*
X163425782Y-45157142D01*
X162359116Y-45157142D02*
X162054354Y-45157142D01*
X161901973Y-45300000D01*
X161749592Y-45585714D01*
X161673401Y-46157142D01*
X161673401Y-47157142D01*
X161749592Y-47728571D01*
X161901973Y-48014285D01*
X162054354Y-48157142D01*
X162359116Y-48157142D01*
X162511496Y-48014285D01*
X162663877Y-47728571D01*
X162740068Y-47157142D01*
X162740068Y-46157142D01*
X162663877Y-45585714D01*
X162511496Y-45300000D01*
X162359116Y-45157142D01*
X160987687Y-48157142D02*
X160987687Y-45157142D01*
X160073401Y-48157142D01*
X160073401Y-45157142D01*
X159311496Y-47014285D02*
X158092449Y-47014285D01*
X148873401Y-48014285D02*
X148644830Y-48157142D01*
X148263877Y-48157142D01*
X148111496Y-48014285D01*
X148035306Y-47871428D01*
X147959115Y-47585714D01*
X147959115Y-47300000D01*
X148035306Y-47014285D01*
X148111496Y-46871428D01*
X148263877Y-46728571D01*
X148568639Y-46585714D01*
X148721020Y-46442857D01*
X148797211Y-46300000D01*
X148873401Y-46014285D01*
X148873401Y-45728571D01*
X148797211Y-45442857D01*
X148721020Y-45300000D01*
X148568639Y-45157142D01*
X148187687Y-45157142D01*
X147959115Y-45300000D01*
X147501973Y-45157142D02*
X146587687Y-45157142D01*
X147044830Y-48157142D02*
X147044830Y-45157142D01*
X145749592Y-45157142D02*
X145444830Y-45157142D01*
X145292449Y-45300000D01*
X145140068Y-45585714D01*
X145063877Y-46157142D01*
X145063877Y-47157142D01*
X145140068Y-47728571D01*
X145292449Y-48014285D01*
X145444830Y-48157142D01*
X145749592Y-48157142D01*
X145901973Y-48014285D01*
X146054354Y-47728571D01*
X146130544Y-47157142D01*
X146130544Y-46157142D01*
X146054354Y-45585714D01*
X145901973Y-45300000D01*
X145749592Y-45157142D01*
X144378163Y-48157142D02*
X144378163Y-45157142D01*
X143768639Y-45157142D01*
X143616258Y-45300000D01*
X143540068Y-45442857D01*
X143463877Y-45728571D01*
X143463877Y-46157142D01*
X143540068Y-46442857D01*
X143616258Y-46585714D01*
X143768639Y-46728571D01*
X144378163Y-46728571D01*
X142778163Y-47871428D02*
X142701973Y-48014285D01*
X142778163Y-48157142D01*
X142854354Y-48014285D01*
X142778163Y-47871428D01*
X142778163Y-48157142D01*
X142778163Y-47014285D02*
X142854354Y-45300000D01*
X142778163Y-45157142D01*
X142701973Y-45300000D01*
X142778163Y-47014285D01*
X142778163Y-45157142D01*
D11*
X157722714Y-68744714D02*
X157722714Y-68236714D01*
X157722714Y-68309285D02*
X157686428Y-68273000D01*
X157613857Y-68236714D01*
X157505000Y-68236714D01*
X157432428Y-68273000D01*
X157396142Y-68345571D01*
X157396142Y-68744714D01*
X157396142Y-68345571D02*
X157359857Y-68273000D01*
X157287285Y-68236714D01*
X157178428Y-68236714D01*
X157105857Y-68273000D01*
X157069571Y-68345571D01*
X157069571Y-68744714D01*
X156380142Y-68744714D02*
X156380142Y-68345571D01*
X156416428Y-68273000D01*
X156489000Y-68236714D01*
X156634142Y-68236714D01*
X156706714Y-68273000D01*
X156380142Y-68708428D02*
X156452714Y-68744714D01*
X156634142Y-68744714D01*
X156706714Y-68708428D01*
X156743000Y-68635857D01*
X156743000Y-68563285D01*
X156706714Y-68490714D01*
X156634142Y-68454428D01*
X156452714Y-68454428D01*
X156380142Y-68418142D01*
X155690714Y-68236714D02*
X155690714Y-68853571D01*
X155727000Y-68926142D01*
X155763285Y-68962428D01*
X155835857Y-68998714D01*
X155944714Y-68998714D01*
X156017285Y-68962428D01*
X155690714Y-68708428D02*
X155763285Y-68744714D01*
X155908428Y-68744714D01*
X155981000Y-68708428D01*
X156017285Y-68672142D01*
X156053571Y-68599571D01*
X156053571Y-68381857D01*
X156017285Y-68309285D01*
X155981000Y-68273000D01*
X155908428Y-68236714D01*
X155763285Y-68236714D01*
X155690714Y-68273000D01*
X155327857Y-68744714D02*
X155327857Y-68236714D01*
X155327857Y-67982714D02*
X155364142Y-68019000D01*
X155327857Y-68055285D01*
X155291571Y-68019000D01*
X155327857Y-67982714D01*
X155327857Y-68055285D01*
X154638428Y-68708428D02*
X154711000Y-68744714D01*
X154856142Y-68744714D01*
X154928714Y-68708428D01*
X154965000Y-68672142D01*
X155001285Y-68599571D01*
X155001285Y-68381857D01*
X154965000Y-68309285D01*
X154928714Y-68273000D01*
X154856142Y-68236714D01*
X154711000Y-68236714D01*
X154638428Y-68273000D01*
X153840142Y-68236714D02*
X153549857Y-68236714D01*
X153731285Y-68744714D02*
X153731285Y-68091571D01*
X153695000Y-68019000D01*
X153622428Y-67982714D01*
X153549857Y-67982714D01*
X153295857Y-68744714D02*
X153295857Y-68236714D01*
X153295857Y-67982714D02*
X153332142Y-68019000D01*
X153295857Y-68055285D01*
X153259571Y-68019000D01*
X153295857Y-67982714D01*
X153295857Y-68055285D01*
X152933000Y-68236714D02*
X152933000Y-68744714D01*
X152933000Y-68309285D02*
X152896714Y-68273000D01*
X152824142Y-68236714D01*
X152715285Y-68236714D01*
X152642714Y-68273000D01*
X152606428Y-68345571D01*
X152606428Y-68744714D01*
X151917000Y-68236714D02*
X151917000Y-68853571D01*
X151953285Y-68926142D01*
X151989571Y-68962428D01*
X152062142Y-68998714D01*
X152171000Y-68998714D01*
X152243571Y-68962428D01*
X151917000Y-68708428D02*
X151989571Y-68744714D01*
X152134714Y-68744714D01*
X152207285Y-68708428D01*
X152243571Y-68672142D01*
X152279857Y-68599571D01*
X152279857Y-68381857D01*
X152243571Y-68309285D01*
X152207285Y-68273000D01*
X152134714Y-68236714D01*
X151989571Y-68236714D01*
X151917000Y-68273000D01*
X151263857Y-68708428D02*
X151336428Y-68744714D01*
X151481571Y-68744714D01*
X151554142Y-68708428D01*
X151590428Y-68635857D01*
X151590428Y-68345571D01*
X151554142Y-68273000D01*
X151481571Y-68236714D01*
X151336428Y-68236714D01*
X151263857Y-68273000D01*
X151227571Y-68345571D01*
X151227571Y-68418142D01*
X151590428Y-68490714D01*
X150901000Y-68744714D02*
X150901000Y-68236714D01*
X150901000Y-68381857D02*
X150864714Y-68309285D01*
X150828428Y-68273000D01*
X150755857Y-68236714D01*
X150683285Y-68236714D01*
X150465571Y-68708428D02*
X150393000Y-68744714D01*
X150247857Y-68744714D01*
X150175285Y-68708428D01*
X150139000Y-68635857D01*
X150139000Y-68599571D01*
X150175285Y-68527000D01*
X150247857Y-68490714D01*
X150356714Y-68490714D01*
X150429285Y-68454428D01*
X150465571Y-68381857D01*
X150465571Y-68345571D01*
X150429285Y-68273000D01*
X150356714Y-68236714D01*
X150247857Y-68236714D01*
X150175285Y-68273000D01*
D19*
%TO.C,J7*%
X134979000Y-128045000D02*
X132319000Y-128045000D01*
X134979000Y-125445000D02*
X134979000Y-128045000D01*
X132319000Y-125445000D02*
X132319000Y-128045000D01*
X134979000Y-125445000D02*
X132319000Y-125445000D01*
X134979000Y-124175000D02*
X134979000Y-122845000D01*
X134979000Y-122845000D02*
X133649000Y-122845000D01*
%TO.C,J6*%
X178659000Y-128019677D02*
X178659000Y-128095000D01*
X178659000Y-128095000D02*
X179779000Y-128095000D01*
X179779000Y-128095000D02*
X179779000Y-121625000D01*
X179779000Y-121625000D02*
X178659000Y-121625000D01*
X178659000Y-121625000D02*
X178659000Y-121700323D01*
X179779000Y-127660000D02*
X183779000Y-127660000D01*
X183779000Y-127660000D02*
X183779000Y-127140000D01*
X183779000Y-127140000D02*
X179779000Y-127140000D01*
X179779000Y-127600000D02*
X183779000Y-127600000D01*
X179779000Y-127480000D02*
X183779000Y-127480000D01*
X179779000Y-127360000D02*
X183779000Y-127360000D01*
X179779000Y-127240000D02*
X183779000Y-127240000D01*
X178659000Y-126765000D02*
X179779000Y-126765000D01*
X178659000Y-126780323D02*
X178659000Y-126749677D01*
X179779000Y-126390000D02*
X183779000Y-126390000D01*
X183779000Y-126390000D02*
X183779000Y-125870000D01*
X183779000Y-125870000D02*
X179779000Y-125870000D01*
X178659000Y-125495000D02*
X179779000Y-125495000D01*
X178659000Y-125510323D02*
X178659000Y-125479677D01*
X179779000Y-125120000D02*
X183779000Y-125120000D01*
X183779000Y-125120000D02*
X183779000Y-124600000D01*
X183779000Y-124600000D02*
X179779000Y-124600000D01*
X178659000Y-124225000D02*
X179779000Y-124225000D01*
X178659000Y-124240323D02*
X178659000Y-124209677D01*
X179779000Y-123850000D02*
X183779000Y-123850000D01*
X183779000Y-123850000D02*
X183779000Y-123330000D01*
X183779000Y-123330000D02*
X179779000Y-123330000D01*
X178659000Y-122955000D02*
X179779000Y-122955000D01*
X178659000Y-122970323D02*
X178659000Y-122939677D01*
X179779000Y-122580000D02*
X183779000Y-122580000D01*
X183779000Y-122580000D02*
X183779000Y-122060000D01*
X183779000Y-122060000D02*
X179779000Y-122060000D01*
X176189000Y-127400000D02*
X176189000Y-128160000D01*
X176189000Y-128160000D02*
X176949000Y-128160000D01*
%TO.C,U7*%
X170522600Y-113477900D02*
X170522600Y-111522100D01*
X173875400Y-111522100D02*
X173875400Y-113477900D01*
%TO.C,U4*%
X159172600Y-113507900D02*
X159172600Y-111552100D01*
X162525400Y-111552100D02*
X162525400Y-113507900D01*
%TO.C,U1*%
X143559000Y-151500000D02*
X143559000Y-154450000D01*
X140339000Y-153300000D02*
X140339000Y-151500000D01*
%TO.C,D1*%
X140049000Y-129000000D02*
X140049000Y-123300000D01*
X135749000Y-129000000D02*
X135749000Y-123300000D01*
X140049000Y-129000000D02*
X135749000Y-129000000D01*
%TO.C,U2*%
X131404000Y-126035000D02*
X131404000Y-124575000D01*
X128244000Y-126035000D02*
X128244000Y-123875000D01*
X128244000Y-126035000D02*
X129174000Y-126035000D01*
X131404000Y-126035000D02*
X130474000Y-126035000D01*
%TO.C,C37*%
X157758420Y-121090000D02*
X158039580Y-121090000D01*
X157758420Y-122110000D02*
X158039580Y-122110000D01*
%TO.C,C36*%
X149808420Y-122590000D02*
X150089580Y-122590000D01*
X149808420Y-123610000D02*
X150089580Y-123610000D01*
%TO.C,C35*%
X130559000Y-128563748D02*
X130559000Y-129086252D01*
X129089000Y-128563748D02*
X129089000Y-129086252D01*
%TO.C,C9*%
X131309000Y-121363748D02*
X131309000Y-121886252D01*
X129839000Y-121363748D02*
X129839000Y-121886252D01*
%TO.C,C1*%
X144764000Y-152061252D02*
X144764000Y-151538748D01*
X146234000Y-152061252D02*
X146234000Y-151538748D01*
D11*
%TO.C,J1*%
X124100000Y-47600000D02*
X126600000Y-47600000D01*
X124100000Y-52600000D02*
X124100000Y-47600000D01*
X126600000Y-52600000D02*
X124100000Y-52600000D01*
X140000000Y-47100000D02*
X141100000Y-47100000D01*
D20*
X125900000Y-46800000D02*
G75*
G03*
X125900000Y-46800000I-100000J0D01*
G01*
D11*
X130300000Y-47100000D02*
X136800000Y-47100000D01*
X126600000Y-47100000D02*
X127700000Y-47100000D01*
X141100000Y-53100000D02*
X141100000Y-47100000D01*
X132300000Y-53100000D02*
X141100000Y-53100000D01*
X126600000Y-53100000D02*
X129700000Y-53100000D01*
X126600000Y-52600000D02*
X126600000Y-53100000D01*
X126600000Y-47600000D02*
X126600000Y-52600000D01*
X126600000Y-47100000D02*
X126600000Y-47600000D01*
D19*
%TO.C,LED1*%
X124864000Y-46700000D02*
X124864000Y-44415000D01*
X124864000Y-44415000D02*
X126334000Y-44415000D01*
X126334000Y-44415000D02*
X126334000Y-46700000D01*
D11*
%TO.C,J3*%
X142319000Y-83610000D02*
X138319000Y-83610000D01*
X138319000Y-83610000D02*
X138319000Y-84110000D01*
X138319000Y-84110000D02*
X134319000Y-84110000D01*
X134319000Y-84110000D02*
X134319000Y-88110000D01*
X134319000Y-88110000D02*
X138319000Y-88110000D01*
X138319000Y-88110000D02*
X138319000Y-88610000D01*
X138319000Y-88610000D02*
X142319000Y-88610000D01*
D20*
X136419000Y-83010000D02*
G75*
G03*
X136419000Y-83010000I-100000J0D01*
G01*
D11*
X142319000Y-84760000D02*
X142319000Y-83610000D01*
X142319000Y-88610000D02*
X142319000Y-87460000D01*
%TO.C,J4*%
X142319000Y-72610000D02*
X138319000Y-72610000D01*
X138319000Y-72610000D02*
X138319000Y-73110000D01*
X138319000Y-73110000D02*
X134319000Y-73110000D01*
X134319000Y-73110000D02*
X134319000Y-77110000D01*
X134319000Y-77110000D02*
X138319000Y-77110000D01*
X138319000Y-77110000D02*
X138319000Y-77610000D01*
X138319000Y-77610000D02*
X142319000Y-77610000D01*
D20*
X136419000Y-72010000D02*
G75*
G03*
X136419000Y-72010000I-100000J0D01*
G01*
D11*
X142319000Y-73760000D02*
X142319000Y-72610000D01*
X142319000Y-77610000D02*
X142319000Y-76460000D01*
D19*
%TO.C,C11*%
X157758420Y-123610000D02*
X158039580Y-123610000D01*
X157758420Y-122590000D02*
X158039580Y-122590000D01*
%TO.C,Y1*%
X152379000Y-123740000D02*
X152379000Y-120940000D01*
X152379000Y-120940000D02*
X155679000Y-120940000D01*
%TO.C,C12*%
X149808420Y-122110000D02*
X150089580Y-122110000D01*
X149808420Y-121090000D02*
X150089580Y-121090000D01*
%TO.C,C34*%
X142514000Y-62238748D02*
X142514000Y-62761252D01*
X143984000Y-62238748D02*
X143984000Y-62761252D01*
%TO.C,C16*%
X180559000Y-151540000D02*
X180559000Y-153890000D01*
X180559000Y-158360000D02*
X180559000Y-156010000D01*
X174803437Y-158360000D02*
X180559000Y-158360000D01*
X174803437Y-151540000D02*
X180559000Y-151540000D01*
X173739000Y-152604437D02*
X173739000Y-153890000D01*
X173739000Y-157295563D02*
X173739000Y-156010000D01*
X173739000Y-157295563D02*
X174803437Y-158360000D01*
X173739000Y-152604437D02*
X174803437Y-151540000D01*
X172711500Y-156797500D02*
X173499000Y-156797500D01*
X173105250Y-157191250D02*
X173105250Y-156403750D01*
%TO.C,JP11*%
X134299000Y-150900000D02*
X134299000Y-148900000D01*
X131499000Y-150900000D02*
X134299000Y-150900000D01*
X131499000Y-148900000D02*
X131499000Y-150900000D01*
X134299000Y-148900000D02*
X131499000Y-148900000D01*
D10*
%TO.C,POGO1*%
X161669000Y-59960000D02*
X146429000Y-59960000D01*
X146429000Y-59960000D02*
X146429000Y-65040000D01*
X146429000Y-65040000D02*
X161669000Y-65040000D01*
X161669000Y-65040000D02*
X161669000Y-59960000D01*
X161669000Y-61230000D02*
X162685000Y-61230000D01*
X161669000Y-63770000D02*
X162685000Y-63770000D01*
X146429000Y-61230000D02*
X145413000Y-61230000D01*
X146429000Y-63770000D02*
X145413000Y-63770000D01*
X154049000Y-59198000D02*
X154049000Y-65802000D01*
X162177000Y-59452000D02*
X145921000Y-59452000D01*
X145921000Y-59452000D02*
X145921000Y-65548000D01*
X145921000Y-65548000D02*
X162177000Y-65548000D01*
X162177000Y-65548000D02*
X162177000Y-59452000D01*
D19*
%TO.C,JP10*%
X178949000Y-120450000D02*
X178949000Y-118450000D01*
X176149000Y-120450000D02*
X178949000Y-120450000D01*
X176149000Y-118450000D02*
X176149000Y-120450000D01*
X178949000Y-118450000D02*
X176149000Y-118450000D01*
%TO.C,JP9*%
X137799000Y-150500000D02*
X135799000Y-150500000D01*
X137799000Y-153300000D02*
X137799000Y-150500000D01*
X135799000Y-153300000D02*
X137799000Y-153300000D01*
X135799000Y-150500000D02*
X135799000Y-153300000D01*
D10*
%TO.C,SW3*%
X155319000Y-43290000D02*
X152779000Y-43290000D01*
X155319000Y-42020000D02*
X155319000Y-43290000D01*
X152779000Y-42020000D02*
X155319000Y-42020000D01*
X152779000Y-43290000D02*
X152779000Y-42020000D01*
X150239000Y-43290000D02*
X150239000Y-49570000D01*
X157859000Y-43290000D02*
X150239000Y-43290000D01*
X157859000Y-49570000D02*
X157859000Y-43290000D01*
X150239000Y-49570000D02*
X157859000Y-49570000D01*
D19*
%TO.C,LED4*%
X137734000Y-156950000D02*
X137734000Y-159235000D01*
X137734000Y-159235000D02*
X136264000Y-159235000D01*
X136264000Y-159235000D02*
X136264000Y-156950000D01*
%TO.C,LED3*%
X153249000Y-49765000D02*
X155534000Y-49765000D01*
X155534000Y-49765000D02*
X155534000Y-51235000D01*
X155534000Y-51235000D02*
X153249000Y-51235000D01*
%TO.C,LED2*%
X181904000Y-46850000D02*
X181904000Y-44565000D01*
X181904000Y-44565000D02*
X183374000Y-44565000D01*
X183374000Y-44565000D02*
X183374000Y-46850000D01*
D17*
%TO.C,U5*%
X150416800Y-130067800D02*
X150985760Y-130067800D01*
X157681200Y-130067800D02*
X157681200Y-130636760D01*
X157681200Y-137332200D02*
X157112240Y-137332200D01*
X150416800Y-137332200D02*
X150416800Y-136763240D01*
X150416800Y-130636760D02*
X150416800Y-130067800D01*
X157112240Y-130067800D02*
X157681200Y-130067800D01*
X157681200Y-136763240D02*
X157681200Y-137332200D01*
X150985760Y-137332200D02*
X150416800Y-137332200D01*
X149731000Y-132874500D02*
X149731000Y-132493500D01*
X149731000Y-132493500D02*
X149985000Y-132493500D01*
X149985000Y-132493500D02*
X149985000Y-132874500D01*
X149985000Y-132874500D02*
X149731000Y-132874500D01*
X153248900Y-129636000D02*
X153248900Y-129382000D01*
X153248900Y-129382000D02*
X153629900Y-129382000D01*
X153629900Y-129382000D02*
X153629900Y-129636000D01*
X153629900Y-129636000D02*
X153248900Y-129636000D01*
X158367000Y-131655300D02*
X158367000Y-131274300D01*
X158367000Y-131274300D02*
X158113000Y-131274300D01*
X158113000Y-131274300D02*
X158113000Y-131655300D01*
X158113000Y-131655300D02*
X158367000Y-131655300D01*
X158367000Y-135719300D02*
X158367000Y-135338300D01*
X158367000Y-135338300D02*
X158113000Y-135338300D01*
X158113000Y-135338300D02*
X158113000Y-135719300D01*
X158113000Y-135719300D02*
X158367000Y-135719300D01*
X153655300Y-137764000D02*
X153655300Y-138018000D01*
X153655300Y-138018000D02*
X154036300Y-138018000D01*
X154036300Y-138018000D02*
X154036300Y-137764000D01*
X154036300Y-137764000D02*
X153655300Y-137764000D01*
D19*
%TO.C,U6*%
X145724000Y-144000000D02*
X145724000Y-146725000D01*
X145724000Y-146725000D02*
X145464000Y-146725000D01*
X145724000Y-144000000D02*
X145724000Y-141275000D01*
X145724000Y-141275000D02*
X145464000Y-141275000D01*
X140274000Y-144000000D02*
X140274000Y-146725000D01*
X140274000Y-146725000D02*
X140534000Y-146725000D01*
X140274000Y-144000000D02*
X140274000Y-141275000D01*
X140274000Y-141275000D02*
X140534000Y-141275000D01*
X140534000Y-141275000D02*
X140534000Y-139600000D01*
%TO.C,JP8*%
X171499000Y-117800000D02*
X172899000Y-117800000D01*
X173599000Y-117100000D02*
X173599000Y-116500000D01*
X172899000Y-115800000D02*
X171499000Y-115800000D01*
X170799000Y-116500000D02*
X170799000Y-117100000D01*
X170799000Y-117100000D02*
G75*
G03*
X171499000Y-117800000I700000J0D01*
G01*
X171499000Y-115800000D02*
G75*
G03*
X170799000Y-116500000I0J-700000D01*
G01*
X173599000Y-116500000D02*
G75*
G03*
X172899000Y-115800000I-700000J0D01*
G01*
X172899000Y-117800000D02*
G75*
G03*
X173599000Y-117100000I0J700000D01*
G01*
%TO.C,JP7*%
X159999000Y-117800000D02*
X161399000Y-117800000D01*
X162099000Y-117100000D02*
X162099000Y-116500000D01*
X161399000Y-115800000D02*
X159999000Y-115800000D01*
X159299000Y-116500000D02*
X159299000Y-117100000D01*
X159299000Y-117100000D02*
G75*
G03*
X159999000Y-117800000I700000J0D01*
G01*
X159999000Y-115800000D02*
G75*
G03*
X159299000Y-116500000I0J-700000D01*
G01*
X162099000Y-116500000D02*
G75*
G03*
X161399000Y-115800000I-700000J0D01*
G01*
X161399000Y-117800000D02*
G75*
G03*
X162099000Y-117100000I0J700000D01*
G01*
%TO.C,JP6*%
X167639000Y-143600000D02*
X165639000Y-143600000D01*
X167639000Y-146400000D02*
X167639000Y-143600000D01*
X165639000Y-146400000D02*
X167639000Y-146400000D01*
X165639000Y-143600000D02*
X165639000Y-146400000D01*
%TO.C,R13*%
X158571936Y-109135000D02*
X159026064Y-109135000D01*
X158571936Y-107665000D02*
X159026064Y-107665000D01*
%TO.C,R12*%
X163126064Y-107665000D02*
X162671936Y-107665000D01*
X163126064Y-109135000D02*
X162671936Y-109135000D01*
%TO.C,R20*%
X173994000Y-101527064D02*
X173994000Y-101072936D01*
X172524000Y-101527064D02*
X172524000Y-101072936D01*
%TO.C,R19*%
X169871936Y-109135000D02*
X170326064Y-109135000D01*
X169871936Y-107665000D02*
X170326064Y-107665000D01*
%TO.C,R18*%
X174526064Y-107715000D02*
X174071936Y-107715000D01*
X174526064Y-109185000D02*
X174071936Y-109185000D01*
%TO.C,R17*%
X170326064Y-103665000D02*
X169871936Y-103665000D01*
X170326064Y-105135000D02*
X169871936Y-105135000D01*
%TO.C,R11*%
X159026064Y-103665000D02*
X158571936Y-103665000D01*
X159026064Y-105135000D02*
X158571936Y-105135000D01*
%TO.C,R10*%
X162671936Y-105135000D02*
X163126064Y-105135000D01*
X162671936Y-103665000D02*
X163126064Y-103665000D01*
%TO.C,R9*%
X159164000Y-101527064D02*
X159164000Y-101072936D01*
X160634000Y-101527064D02*
X160634000Y-101072936D01*
%TO.C,R8*%
X171874000Y-101527064D02*
X171874000Y-101072936D01*
X170404000Y-101527064D02*
X170404000Y-101072936D01*
%TO.C,R5*%
X161164000Y-101547064D02*
X161164000Y-101092936D01*
X162634000Y-101547064D02*
X162634000Y-101092936D01*
%TO.C,R4*%
X174071936Y-105185000D02*
X174526064Y-105185000D01*
X174071936Y-103715000D02*
X174526064Y-103715000D01*
%TO.C,C32*%
X169834000Y-116611252D02*
X169834000Y-116088748D01*
X168364000Y-116611252D02*
X168364000Y-116088748D01*
%TO.C,C18*%
X164634000Y-116611252D02*
X164634000Y-116088748D01*
X163164000Y-116611252D02*
X163164000Y-116088748D01*
%TO.C,C17*%
X158537748Y-107135000D02*
X159060252Y-107135000D01*
X158537748Y-105665000D02*
X159060252Y-105665000D01*
%TO.C,C13*%
X163160252Y-105665000D02*
X162637748Y-105665000D01*
X163160252Y-107135000D02*
X162637748Y-107135000D01*
%TO.C,C8*%
X169837748Y-107135000D02*
X170360252Y-107135000D01*
X169837748Y-105665000D02*
X170360252Y-105665000D01*
%TO.C,C7*%
X174560252Y-105715000D02*
X174037748Y-105715000D01*
X174560252Y-107185000D02*
X174037748Y-107185000D01*
%TO.C,C3*%
X139834000Y-150361252D02*
X139834000Y-149838748D01*
X138364000Y-150361252D02*
X138364000Y-149838748D01*
D10*
%TO.C,SW2*%
X181119000Y-84808094D02*
X181119000Y-92428094D01*
X181119000Y-92428094D02*
X187399000Y-92428094D01*
X187399000Y-92428094D02*
X187399000Y-84808094D01*
X187399000Y-84808094D02*
X181119000Y-84808094D01*
X187399000Y-87348094D02*
X188669000Y-87348094D01*
X188669000Y-87348094D02*
X188669000Y-89888094D01*
X188669000Y-89888094D02*
X187399000Y-89888094D01*
X187399000Y-89888094D02*
X187399000Y-87348094D01*
%TO.C,SW1*%
X126879000Y-92310000D02*
X126879000Y-84690000D01*
X126879000Y-84690000D02*
X120599000Y-84690000D01*
X120599000Y-84690000D02*
X120599000Y-92310000D01*
X120599000Y-92310000D02*
X126879000Y-92310000D01*
X120599000Y-89770000D02*
X119329000Y-89770000D01*
X119329000Y-89770000D02*
X119329000Y-87230000D01*
X119329000Y-87230000D02*
X120599000Y-87230000D01*
X120599000Y-87230000D02*
X120599000Y-89770000D01*
D19*
%TO.C,R16*%
X138576064Y-139615000D02*
X138121936Y-139615000D01*
X138576064Y-141085000D02*
X138121936Y-141085000D01*
%TO.C,R15*%
X166321936Y-155585000D02*
X166776064Y-155585000D01*
X166321936Y-154115000D02*
X166776064Y-154115000D01*
%TO.C,R14*%
X153821936Y-125585000D02*
X154276064Y-125585000D01*
X153821936Y-124115000D02*
X154276064Y-124115000D01*
%TO.C,JP5*%
X168799000Y-113700000D02*
X169399000Y-113700000D01*
X168099000Y-111600000D02*
X168099000Y-113000000D01*
X169399000Y-110900000D02*
X168799000Y-110900000D01*
X170099000Y-113000000D02*
X170099000Y-111600000D01*
X169399000Y-113700000D02*
G75*
G03*
X170099000Y-113000000I0J700000D01*
G01*
X168099000Y-113000000D02*
G75*
G03*
X168799000Y-113700000I700000J0D01*
G01*
X168799000Y-110900000D02*
G75*
G03*
X168099000Y-111600000I0J-700000D01*
G01*
X170099000Y-111600000D02*
G75*
G03*
X169399000Y-110900000I-700000J0D01*
G01*
%TO.C,JP4*%
X175399000Y-113600000D02*
X175999000Y-113600000D01*
X174699000Y-111500000D02*
X174699000Y-112900000D01*
X175999000Y-110800000D02*
X175399000Y-110800000D01*
X176699000Y-112900000D02*
X176699000Y-111500000D01*
X175999000Y-113600000D02*
G75*
G03*
X176699000Y-112900000I0J700000D01*
G01*
X174699000Y-112900000D02*
G75*
G03*
X175399000Y-113600000I700000J0D01*
G01*
X175399000Y-110800000D02*
G75*
G03*
X174699000Y-111500000I0J-700000D01*
G01*
X176699000Y-111500000D02*
G75*
G03*
X175999000Y-110800000I-700000J0D01*
G01*
%TO.C,JP3*%
X157899000Y-110900000D02*
X157299000Y-110900000D01*
X158599000Y-113000000D02*
X158599000Y-111600000D01*
X157299000Y-113700000D02*
X157899000Y-113700000D01*
X156599000Y-111600000D02*
X156599000Y-113000000D01*
X157299000Y-110900000D02*
G75*
G03*
X156599000Y-111600000I0J-700000D01*
G01*
X158599000Y-111600000D02*
G75*
G03*
X157899000Y-110900000I-700000J0D01*
G01*
X157899000Y-113700000D02*
G75*
G03*
X158599000Y-113000000I0J700000D01*
G01*
X156599000Y-113000000D02*
G75*
G03*
X157299000Y-113700000I700000J0D01*
G01*
%TO.C,JP2*%
X164299000Y-110900000D02*
X163699000Y-110900000D01*
X164999000Y-113000000D02*
X164999000Y-111600000D01*
X163699000Y-113700000D02*
X164299000Y-113700000D01*
X162999000Y-111600000D02*
X162999000Y-113000000D01*
X163699000Y-110900000D02*
G75*
G03*
X162999000Y-111600000I0J-700000D01*
G01*
X164999000Y-111600000D02*
G75*
G03*
X164299000Y-110900000I-700000J0D01*
G01*
X164299000Y-113700000D02*
G75*
G03*
X164999000Y-113000000I0J700000D01*
G01*
X162999000Y-113000000D02*
G75*
G03*
X163699000Y-113700000I700000J0D01*
G01*
%TO.C,JP1*%
X169319000Y-156720000D02*
X169319000Y-159380000D01*
X166719000Y-156720000D02*
X169319000Y-156720000D01*
X166719000Y-159380000D02*
X169319000Y-159380000D01*
X166719000Y-156720000D02*
X166719000Y-159380000D01*
X165449000Y-156720000D02*
X164119000Y-156720000D01*
X164119000Y-156720000D02*
X164119000Y-158050000D01*
%TO.C,D3*%
X147714000Y-150600000D02*
X147714000Y-148315000D01*
X147714000Y-148315000D02*
X149184000Y-148315000D01*
X149184000Y-148315000D02*
X149184000Y-150600000D01*
%TO.C,C33*%
X168364000Y-101038748D02*
X168364000Y-101561252D01*
X169834000Y-101038748D02*
X169834000Y-101561252D01*
%TO.C,C31*%
X160254000Y-140028748D02*
X160254000Y-140551252D01*
X161724000Y-140028748D02*
X161724000Y-140551252D01*
%TO.C,C30*%
X157554000Y-140541252D02*
X157554000Y-140018748D01*
X156084000Y-140541252D02*
X156084000Y-140018748D01*
%TO.C,C29*%
X149064000Y-141938748D02*
X149064000Y-142461252D01*
X150534000Y-141938748D02*
X150534000Y-142461252D01*
%TO.C,C28*%
X159614000Y-140551252D02*
X159614000Y-140028748D01*
X158144000Y-140551252D02*
X158144000Y-140028748D01*
%TO.C,C27*%
X151114000Y-141938748D02*
X151114000Y-142461252D01*
X152584000Y-141938748D02*
X152584000Y-142461252D01*
%TO.C,C26*%
X153164000Y-141938748D02*
X153164000Y-142461252D01*
X154634000Y-141938748D02*
X154634000Y-142461252D01*
%TO.C,C25*%
X161137748Y-136835000D02*
X161660252Y-136835000D01*
X161137748Y-135365000D02*
X161660252Y-135365000D01*
%TO.C,C24*%
X161127748Y-133435000D02*
X161650252Y-133435000D01*
X161127748Y-131965000D02*
X161650252Y-131965000D01*
%TO.C,C23*%
X138660252Y-145515000D02*
X138137748Y-145515000D01*
X138660252Y-146985000D02*
X138137748Y-146985000D01*
%TO.C,C22*%
X157387748Y-128335000D02*
X157910252Y-128335000D01*
X157387748Y-126865000D02*
X157910252Y-126865000D01*
%TO.C,C21*%
X157387748Y-126285000D02*
X157910252Y-126285000D01*
X157387748Y-124815000D02*
X157910252Y-124815000D01*
%TO.C,C20*%
X146210252Y-132365000D02*
X145687748Y-132365000D01*
X146210252Y-133835000D02*
X145687748Y-133835000D01*
%TO.C,C19*%
X146260252Y-136365000D02*
X145737748Y-136365000D01*
X146260252Y-137835000D02*
X145737748Y-137835000D01*
%TO.C,C14*%
X174564000Y-101038748D02*
X174564000Y-101561252D01*
X176034000Y-101038748D02*
X176034000Y-101561252D01*
%TO.C,C10*%
X164634000Y-101038748D02*
X164634000Y-101561252D01*
X163164000Y-101038748D02*
X163164000Y-101561252D01*
%TO.C,C5*%
X146274000Y-157051252D02*
X146274000Y-156528748D01*
X144804000Y-157051252D02*
X144804000Y-156528748D01*
%TO.C,C6*%
X158634000Y-101038748D02*
X158634000Y-101561252D01*
X157164000Y-101038748D02*
X157164000Y-101561252D01*
%TO.C,C15*%
X135072750Y-152758750D02*
X135072750Y-153546250D01*
X135466500Y-153152500D02*
X134679000Y-153152500D01*
X134439000Y-157345563D02*
X133374563Y-158410000D01*
X134439000Y-152654437D02*
X133374563Y-151590000D01*
X134439000Y-152654437D02*
X134439000Y-153940000D01*
X134439000Y-157345563D02*
X134439000Y-156060000D01*
X133374563Y-158410000D02*
X127619000Y-158410000D01*
X133374563Y-151590000D02*
X127619000Y-151590000D01*
X127619000Y-151590000D02*
X127619000Y-153940000D01*
X127619000Y-158410000D02*
X127619000Y-156060000D01*
%TO.C,U3*%
X152322600Y-93867600D02*
X153104693Y-93867600D01*
X155675400Y-93867600D02*
X155675400Y-94145630D01*
X155675400Y-96712400D02*
X154893307Y-96712400D01*
X152322600Y-96712400D02*
X152322600Y-96434370D01*
X152322600Y-94145630D02*
X152322600Y-93867600D01*
X154893307Y-93867600D02*
X155675400Y-93867600D01*
X155675400Y-96434370D02*
X155675400Y-96712400D01*
X153104693Y-96712400D02*
X152322600Y-96712400D01*
D21*
G36*
X155954800Y-95730563D02*
G01*
X155954800Y-95349563D01*
X155700800Y-95349563D01*
X155700800Y-95730563D01*
X155954800Y-95730563D01*
G37*
X155954800Y-95730563D02*
X155954800Y-95349563D01*
X155700800Y-95349563D01*
X155700800Y-95730563D01*
X155954800Y-95730563D01*
D20*
%TO.C,J5*%
X149249000Y-155790000D02*
X149249000Y-157040000D01*
X158829000Y-155790000D02*
X158829000Y-157040000D01*
X149249000Y-161040000D02*
X149249000Y-159760000D01*
X158829000Y-161040000D02*
X149249000Y-161040000D01*
X158829000Y-159760000D02*
X158829000Y-161040000D01*
D19*
%TO.C,R7*%
X152314000Y-149947064D02*
X152314000Y-149492936D01*
X153784000Y-149947064D02*
X153784000Y-149492936D01*
%TO.C,R3*%
X155784000Y-149492936D02*
X155784000Y-149947064D01*
X154314000Y-149492936D02*
X154314000Y-149947064D01*
%TO.C,R2*%
X151294000Y-149492936D02*
X151294000Y-149947064D01*
X149824000Y-149492936D02*
X149824000Y-149947064D01*
%TO.C,R1*%
X156784000Y-149947064D02*
X156784000Y-149492936D01*
X158254000Y-149947064D02*
X158254000Y-149492936D01*
%TO.C,C4*%
X158134000Y-95288748D02*
X158134000Y-95811252D01*
X156664000Y-95288748D02*
X156664000Y-95811252D01*
%TO.C,C2*%
X151384000Y-95238748D02*
X151384000Y-95761252D01*
X149914000Y-95238748D02*
X149914000Y-95761252D01*
D11*
%TO.C,J2*%
X184000000Y-52850000D02*
X181500000Y-52850000D01*
X184000000Y-47850000D02*
X184000000Y-52850000D01*
X181500000Y-47850000D02*
X184000000Y-47850000D01*
X168100000Y-53350000D02*
X167000000Y-53350000D01*
D20*
X182400000Y-53650000D02*
G75*
G03*
X182400000Y-53650000I-100000J0D01*
G01*
D11*
X177800000Y-53350000D02*
X171300000Y-53350000D01*
X181500000Y-53350000D02*
X180400000Y-53350000D01*
X167000000Y-47350000D02*
X167000000Y-53350000D01*
X175800000Y-47350000D02*
X167000000Y-47350000D01*
X181500000Y-47350000D02*
X178400000Y-47350000D01*
X181500000Y-47850000D02*
X181500000Y-47350000D01*
X181500000Y-52850000D02*
X181500000Y-47850000D01*
X181500000Y-53350000D02*
X181500000Y-52850000D01*
D19*
%TO.C,R6*%
X146084116Y-62254842D02*
X146084116Y-62708970D01*
X144614116Y-62254842D02*
X144614116Y-62708970D01*
%TO.C,J6*%
D10*
X182937333Y-129122380D02*
X182937333Y-129836666D01*
X182984952Y-129979523D01*
X183080190Y-130074761D01*
X183223047Y-130122380D01*
X183318285Y-130122380D01*
X182032571Y-129122380D02*
X182223047Y-129122380D01*
X182318285Y-129170000D01*
X182365904Y-129217619D01*
X182461142Y-129360476D01*
X182508761Y-129550952D01*
X182508761Y-129931904D01*
X182461142Y-130027142D01*
X182413523Y-130074761D01*
X182318285Y-130122380D01*
X182127809Y-130122380D01*
X182032571Y-130074761D01*
X181984952Y-130027142D01*
X181937333Y-129931904D01*
X181937333Y-129693809D01*
X181984952Y-129598571D01*
X182032571Y-129550952D01*
X182127809Y-129503333D01*
X182318285Y-129503333D01*
X182413523Y-129550952D01*
X182461142Y-129598571D01*
X182508761Y-129693809D01*
%TO.C,U7*%
X171651380Y-111738095D02*
X172460904Y-111738095D01*
X172556142Y-111785714D01*
X172603761Y-111833333D01*
X172651380Y-111928571D01*
X172651380Y-112119047D01*
X172603761Y-112214285D01*
X172556142Y-112261904D01*
X172460904Y-112309523D01*
X171651380Y-112309523D01*
X171651380Y-112690476D02*
X171651380Y-113357142D01*
X172651380Y-112928571D01*
X173001380Y-115100000D02*
X173239476Y-115100000D01*
X173144238Y-114861904D02*
X173239476Y-115100000D01*
X173144238Y-115338095D01*
X173429952Y-114957142D02*
X173239476Y-115100000D01*
X173429952Y-115242857D01*
X174303180Y-114106550D02*
X174541276Y-114106550D01*
X174446038Y-113868454D02*
X174541276Y-114106550D01*
X174446038Y-114344645D01*
X174731752Y-113963692D02*
X174541276Y-114106550D01*
X174731752Y-114249407D01*
%TO.C,U4*%
X160301380Y-111768095D02*
X161110904Y-111768095D01*
X161206142Y-111815714D01*
X161253761Y-111863333D01*
X161301380Y-111958571D01*
X161301380Y-112149047D01*
X161253761Y-112244285D01*
X161206142Y-112291904D01*
X161110904Y-112339523D01*
X160301380Y-112339523D01*
X160634714Y-113244285D02*
X161301380Y-113244285D01*
X160253761Y-113006190D02*
X160968047Y-112768095D01*
X160968047Y-113387142D01*
X161651380Y-115050000D02*
X161889476Y-115050000D01*
X161794238Y-114811904D02*
X161889476Y-115050000D01*
X161794238Y-115288095D01*
X162079952Y-114907142D02*
X161889476Y-115050000D01*
X162079952Y-115192857D01*
X162953180Y-114136550D02*
X163191276Y-114136550D01*
X163096038Y-113898454D02*
X163191276Y-114136550D01*
X163096038Y-114374645D01*
X163381752Y-113993692D02*
X163191276Y-114136550D01*
X163381752Y-114279407D01*
%TO.C,U1*%
X140010904Y-153302380D02*
X140010904Y-154111904D01*
X139963285Y-154207142D01*
X139915666Y-154254761D01*
X139820428Y-154302380D01*
X139629952Y-154302380D01*
X139534714Y-154254761D01*
X139487095Y-154207142D01*
X139439476Y-154111904D01*
X139439476Y-153302380D01*
X138439476Y-154302380D02*
X139010904Y-154302380D01*
X138725190Y-154302380D02*
X138725190Y-153302380D01*
X138820428Y-153445238D01*
X138915666Y-153540476D01*
X139010904Y-153588095D01*
%TO.C,D1*%
X138587095Y-121302380D02*
X138587095Y-120302380D01*
X138349000Y-120302380D01*
X138206142Y-120350000D01*
X138110904Y-120445238D01*
X138063285Y-120540476D01*
X138015666Y-120730952D01*
X138015666Y-120873809D01*
X138063285Y-121064285D01*
X138110904Y-121159523D01*
X138206142Y-121254761D01*
X138349000Y-121302380D01*
X138587095Y-121302380D01*
X137063285Y-121302380D02*
X137634714Y-121302380D01*
X137349000Y-121302380D02*
X137349000Y-120302380D01*
X137444238Y-120445238D01*
X137539476Y-120540476D01*
X137634714Y-120588095D01*
%TO.C,U2*%
X126776380Y-124513095D02*
X127585904Y-124513095D01*
X127681142Y-124560714D01*
X127728761Y-124608333D01*
X127776380Y-124703571D01*
X127776380Y-124894047D01*
X127728761Y-124989285D01*
X127681142Y-125036904D01*
X127585904Y-125084523D01*
X126776380Y-125084523D01*
X126871619Y-125513095D02*
X126824000Y-125560714D01*
X126776380Y-125655952D01*
X126776380Y-125894047D01*
X126824000Y-125989285D01*
X126871619Y-126036904D01*
X126966857Y-126084523D01*
X127062095Y-126084523D01*
X127204952Y-126036904D01*
X127776380Y-125465476D01*
X127776380Y-126084523D01*
%TO.C,C37*%
X162141857Y-122057142D02*
X162189476Y-122104761D01*
X162332333Y-122152380D01*
X162427571Y-122152380D01*
X162570428Y-122104761D01*
X162665666Y-122009523D01*
X162713285Y-121914285D01*
X162760904Y-121723809D01*
X162760904Y-121580952D01*
X162713285Y-121390476D01*
X162665666Y-121295238D01*
X162570428Y-121200000D01*
X162427571Y-121152380D01*
X162332333Y-121152380D01*
X162189476Y-121200000D01*
X162141857Y-121247619D01*
X161808523Y-121152380D02*
X161189476Y-121152380D01*
X161522809Y-121533333D01*
X161379952Y-121533333D01*
X161284714Y-121580952D01*
X161237095Y-121628571D01*
X161189476Y-121723809D01*
X161189476Y-121961904D01*
X161237095Y-122057142D01*
X161284714Y-122104761D01*
X161379952Y-122152380D01*
X161665666Y-122152380D01*
X161760904Y-122104761D01*
X161808523Y-122057142D01*
X160856142Y-121152380D02*
X160189476Y-121152380D01*
X160618047Y-122152380D01*
%TO.C,C36*%
X147091857Y-123507142D02*
X147139476Y-123554761D01*
X147282333Y-123602380D01*
X147377571Y-123602380D01*
X147520428Y-123554761D01*
X147615666Y-123459523D01*
X147663285Y-123364285D01*
X147710904Y-123173809D01*
X147710904Y-123030952D01*
X147663285Y-122840476D01*
X147615666Y-122745238D01*
X147520428Y-122650000D01*
X147377571Y-122602380D01*
X147282333Y-122602380D01*
X147139476Y-122650000D01*
X147091857Y-122697619D01*
X146758523Y-122602380D02*
X146139476Y-122602380D01*
X146472809Y-122983333D01*
X146329952Y-122983333D01*
X146234714Y-123030952D01*
X146187095Y-123078571D01*
X146139476Y-123173809D01*
X146139476Y-123411904D01*
X146187095Y-123507142D01*
X146234714Y-123554761D01*
X146329952Y-123602380D01*
X146615666Y-123602380D01*
X146710904Y-123554761D01*
X146758523Y-123507142D01*
X145282333Y-122602380D02*
X145472809Y-122602380D01*
X145568047Y-122650000D01*
X145615666Y-122697619D01*
X145710904Y-122840476D01*
X145758523Y-123030952D01*
X145758523Y-123411904D01*
X145710904Y-123507142D01*
X145663285Y-123554761D01*
X145568047Y-123602380D01*
X145377571Y-123602380D01*
X145282333Y-123554761D01*
X145234714Y-123507142D01*
X145187095Y-123411904D01*
X145187095Y-123173809D01*
X145234714Y-123078571D01*
X145282333Y-123030952D01*
X145377571Y-122983333D01*
X145568047Y-122983333D01*
X145663285Y-123030952D01*
X145710904Y-123078571D01*
X145758523Y-123173809D01*
%TO.C,C35*%
X128501142Y-128182142D02*
X128548761Y-128134523D01*
X128596380Y-127991666D01*
X128596380Y-127896428D01*
X128548761Y-127753571D01*
X128453523Y-127658333D01*
X128358285Y-127610714D01*
X128167809Y-127563095D01*
X128024952Y-127563095D01*
X127834476Y-127610714D01*
X127739238Y-127658333D01*
X127644000Y-127753571D01*
X127596380Y-127896428D01*
X127596380Y-127991666D01*
X127644000Y-128134523D01*
X127691619Y-128182142D01*
X127596380Y-128515476D02*
X127596380Y-129134523D01*
X127977333Y-128801190D01*
X127977333Y-128944047D01*
X128024952Y-129039285D01*
X128072571Y-129086904D01*
X128167809Y-129134523D01*
X128405904Y-129134523D01*
X128501142Y-129086904D01*
X128548761Y-129039285D01*
X128596380Y-128944047D01*
X128596380Y-128658333D01*
X128548761Y-128563095D01*
X128501142Y-128515476D01*
X127596380Y-130039285D02*
X127596380Y-129563095D01*
X128072571Y-129515476D01*
X128024952Y-129563095D01*
X127977333Y-129658333D01*
X127977333Y-129896428D01*
X128024952Y-129991666D01*
X128072571Y-130039285D01*
X128167809Y-130086904D01*
X128405904Y-130086904D01*
X128501142Y-130039285D01*
X128548761Y-129991666D01*
X128596380Y-129896428D01*
X128596380Y-129658333D01*
X128548761Y-129563095D01*
X128501142Y-129515476D01*
%TO.C,C9*%
X129251142Y-121458333D02*
X129298761Y-121410714D01*
X129346380Y-121267857D01*
X129346380Y-121172619D01*
X129298761Y-121029761D01*
X129203523Y-120934523D01*
X129108285Y-120886904D01*
X128917809Y-120839285D01*
X128774952Y-120839285D01*
X128584476Y-120886904D01*
X128489238Y-120934523D01*
X128394000Y-121029761D01*
X128346380Y-121172619D01*
X128346380Y-121267857D01*
X128394000Y-121410714D01*
X128441619Y-121458333D01*
X129346380Y-121934523D02*
X129346380Y-122125000D01*
X129298761Y-122220238D01*
X129251142Y-122267857D01*
X129108285Y-122363095D01*
X128917809Y-122410714D01*
X128536857Y-122410714D01*
X128441619Y-122363095D01*
X128394000Y-122315476D01*
X128346380Y-122220238D01*
X128346380Y-122029761D01*
X128394000Y-121934523D01*
X128441619Y-121886904D01*
X128536857Y-121839285D01*
X128774952Y-121839285D01*
X128870190Y-121886904D01*
X128917809Y-121934523D01*
X128965428Y-122029761D01*
X128965428Y-122220238D01*
X128917809Y-122315476D01*
X128870190Y-122363095D01*
X128774952Y-122410714D01*
%TO.C,C1*%
X147465666Y-153207142D02*
X147513285Y-153254761D01*
X147656142Y-153302380D01*
X147751380Y-153302380D01*
X147894238Y-153254761D01*
X147989476Y-153159523D01*
X148037095Y-153064285D01*
X148084714Y-152873809D01*
X148084714Y-152730952D01*
X148037095Y-152540476D01*
X147989476Y-152445238D01*
X147894238Y-152350000D01*
X147751380Y-152302380D01*
X147656142Y-152302380D01*
X147513285Y-152350000D01*
X147465666Y-152397619D01*
X146513285Y-153302380D02*
X147084714Y-153302380D01*
X146799000Y-153302380D02*
X146799000Y-152302380D01*
X146894238Y-152445238D01*
X146989476Y-152540476D01*
X147084714Y-152588095D01*
%TO.C,LED1*%
X126141380Y-48550952D02*
X126141380Y-48074761D01*
X125141380Y-48074761D01*
X125617571Y-48884285D02*
X125617571Y-49217619D01*
X126141380Y-49360476D02*
X126141380Y-48884285D01*
X125141380Y-48884285D01*
X125141380Y-49360476D01*
X126141380Y-49789047D02*
X125141380Y-49789047D01*
X125141380Y-50027142D01*
X125189000Y-50170000D01*
X125284238Y-50265238D01*
X125379476Y-50312857D01*
X125569952Y-50360476D01*
X125712809Y-50360476D01*
X125903285Y-50312857D01*
X125998523Y-50265238D01*
X126093761Y-50170000D01*
X126141380Y-50027142D01*
X126141380Y-49789047D01*
X126141380Y-51312857D02*
X126141380Y-50741428D01*
X126141380Y-51027142D02*
X125141380Y-51027142D01*
X125284238Y-50931904D01*
X125379476Y-50836666D01*
X125427095Y-50741428D01*
%TO.C,C11*%
X162161857Y-123447142D02*
X162209476Y-123494761D01*
X162352333Y-123542380D01*
X162447571Y-123542380D01*
X162590428Y-123494761D01*
X162685666Y-123399523D01*
X162733285Y-123304285D01*
X162780904Y-123113809D01*
X162780904Y-122970952D01*
X162733285Y-122780476D01*
X162685666Y-122685238D01*
X162590428Y-122590000D01*
X162447571Y-122542380D01*
X162352333Y-122542380D01*
X162209476Y-122590000D01*
X162161857Y-122637619D01*
X161209476Y-123542380D02*
X161780904Y-123542380D01*
X161495190Y-123542380D02*
X161495190Y-122542380D01*
X161590428Y-122685238D01*
X161685666Y-122780476D01*
X161780904Y-122828095D01*
X160257095Y-123542380D02*
X160828523Y-123542380D01*
X160542809Y-123542380D02*
X160542809Y-122542380D01*
X160638047Y-122685238D01*
X160733285Y-122780476D01*
X160828523Y-122828095D01*
%TO.C,Y1*%
X154435190Y-120166190D02*
X154435190Y-120642380D01*
X154768523Y-119642380D02*
X154435190Y-120166190D01*
X154101857Y-119642380D01*
X153244714Y-120642380D02*
X153816142Y-120642380D01*
X153530428Y-120642380D02*
X153530428Y-119642380D01*
X153625666Y-119785238D01*
X153720904Y-119880476D01*
X153816142Y-119928095D01*
%TO.C,C12*%
X147061857Y-121957142D02*
X147109476Y-122004761D01*
X147252333Y-122052380D01*
X147347571Y-122052380D01*
X147490428Y-122004761D01*
X147585666Y-121909523D01*
X147633285Y-121814285D01*
X147680904Y-121623809D01*
X147680904Y-121480952D01*
X147633285Y-121290476D01*
X147585666Y-121195238D01*
X147490428Y-121100000D01*
X147347571Y-121052380D01*
X147252333Y-121052380D01*
X147109476Y-121100000D01*
X147061857Y-121147619D01*
X146109476Y-122052380D02*
X146680904Y-122052380D01*
X146395190Y-122052380D02*
X146395190Y-121052380D01*
X146490428Y-121195238D01*
X146585666Y-121290476D01*
X146680904Y-121338095D01*
X145728523Y-121147619D02*
X145680904Y-121100000D01*
X145585666Y-121052380D01*
X145347571Y-121052380D01*
X145252333Y-121100000D01*
X145204714Y-121147619D01*
X145157095Y-121242857D01*
X145157095Y-121338095D01*
X145204714Y-121480952D01*
X145776142Y-122052380D01*
X145157095Y-122052380D01*
%TO.C,C34*%
X141926142Y-61857142D02*
X141973761Y-61809523D01*
X142021380Y-61666666D01*
X142021380Y-61571428D01*
X141973761Y-61428571D01*
X141878523Y-61333333D01*
X141783285Y-61285714D01*
X141592809Y-61238095D01*
X141449952Y-61238095D01*
X141259476Y-61285714D01*
X141164238Y-61333333D01*
X141069000Y-61428571D01*
X141021380Y-61571428D01*
X141021380Y-61666666D01*
X141069000Y-61809523D01*
X141116619Y-61857142D01*
X141021380Y-62190476D02*
X141021380Y-62809523D01*
X141402333Y-62476190D01*
X141402333Y-62619047D01*
X141449952Y-62714285D01*
X141497571Y-62761904D01*
X141592809Y-62809523D01*
X141830904Y-62809523D01*
X141926142Y-62761904D01*
X141973761Y-62714285D01*
X142021380Y-62619047D01*
X142021380Y-62333333D01*
X141973761Y-62238095D01*
X141926142Y-62190476D01*
X141354714Y-63666666D02*
X142021380Y-63666666D01*
X140973761Y-63428571D02*
X141688047Y-63190476D01*
X141688047Y-63809523D01*
%TO.C,C16*%
X177791857Y-159657142D02*
X177839476Y-159704761D01*
X177982333Y-159752380D01*
X178077571Y-159752380D01*
X178220428Y-159704761D01*
X178315666Y-159609523D01*
X178363285Y-159514285D01*
X178410904Y-159323809D01*
X178410904Y-159180952D01*
X178363285Y-158990476D01*
X178315666Y-158895238D01*
X178220428Y-158800000D01*
X178077571Y-158752380D01*
X177982333Y-158752380D01*
X177839476Y-158800000D01*
X177791857Y-158847619D01*
X176839476Y-159752380D02*
X177410904Y-159752380D01*
X177125190Y-159752380D02*
X177125190Y-158752380D01*
X177220428Y-158895238D01*
X177315666Y-158990476D01*
X177410904Y-159038095D01*
X175982333Y-158752380D02*
X176172809Y-158752380D01*
X176268047Y-158800000D01*
X176315666Y-158847619D01*
X176410904Y-158990476D01*
X176458523Y-159180952D01*
X176458523Y-159561904D01*
X176410904Y-159657142D01*
X176363285Y-159704761D01*
X176268047Y-159752380D01*
X176077571Y-159752380D01*
X175982333Y-159704761D01*
X175934714Y-159657142D01*
X175887095Y-159561904D01*
X175887095Y-159323809D01*
X175934714Y-159228571D01*
X175982333Y-159180952D01*
X176077571Y-159133333D01*
X176268047Y-159133333D01*
X176363285Y-159180952D01*
X176410904Y-159228571D01*
X176458523Y-159323809D01*
%TO.C,JP11*%
X134208523Y-147552380D02*
X134208523Y-148266666D01*
X134256142Y-148409523D01*
X134351380Y-148504761D01*
X134494238Y-148552380D01*
X134589476Y-148552380D01*
X133732333Y-148552380D02*
X133732333Y-147552380D01*
X133351380Y-147552380D01*
X133256142Y-147600000D01*
X133208523Y-147647619D01*
X133160904Y-147742857D01*
X133160904Y-147885714D01*
X133208523Y-147980952D01*
X133256142Y-148028571D01*
X133351380Y-148076190D01*
X133732333Y-148076190D01*
X132208523Y-148552380D02*
X132779952Y-148552380D01*
X132494238Y-148552380D02*
X132494238Y-147552380D01*
X132589476Y-147695238D01*
X132684714Y-147790476D01*
X132779952Y-147838095D01*
X131256142Y-148552380D02*
X131827571Y-148552380D01*
X131541857Y-148552380D02*
X131541857Y-147552380D01*
X131637095Y-147695238D01*
X131732333Y-147790476D01*
X131827571Y-147838095D01*
%TO.C,JP10*%
X178858523Y-117102380D02*
X178858523Y-117816666D01*
X178906142Y-117959523D01*
X179001380Y-118054761D01*
X179144238Y-118102380D01*
X179239476Y-118102380D01*
X178382333Y-118102380D02*
X178382333Y-117102380D01*
X178001380Y-117102380D01*
X177906142Y-117150000D01*
X177858523Y-117197619D01*
X177810904Y-117292857D01*
X177810904Y-117435714D01*
X177858523Y-117530952D01*
X177906142Y-117578571D01*
X178001380Y-117626190D01*
X178382333Y-117626190D01*
X176858523Y-118102380D02*
X177429952Y-118102380D01*
X177144238Y-118102380D02*
X177144238Y-117102380D01*
X177239476Y-117245238D01*
X177334714Y-117340476D01*
X177429952Y-117388095D01*
X176239476Y-117102380D02*
X176144238Y-117102380D01*
X176049000Y-117150000D01*
X176001380Y-117197619D01*
X175953761Y-117292857D01*
X175906142Y-117483333D01*
X175906142Y-117721428D01*
X175953761Y-117911904D01*
X176001380Y-118007142D01*
X176049000Y-118054761D01*
X176144238Y-118102380D01*
X176239476Y-118102380D01*
X176334714Y-118054761D01*
X176382333Y-118007142D01*
X176429952Y-117911904D01*
X176477571Y-117721428D01*
X176477571Y-117483333D01*
X176429952Y-117292857D01*
X176382333Y-117197619D01*
X176334714Y-117150000D01*
X176239476Y-117102380D01*
%TO.C,JP9*%
X134451380Y-151066666D02*
X135165666Y-151066666D01*
X135308523Y-151019047D01*
X135403761Y-150923809D01*
X135451380Y-150780952D01*
X135451380Y-150685714D01*
X135451380Y-151542857D02*
X134451380Y-151542857D01*
X134451380Y-151923809D01*
X134499000Y-152019047D01*
X134546619Y-152066666D01*
X134641857Y-152114285D01*
X134784714Y-152114285D01*
X134879952Y-152066666D01*
X134927571Y-152019047D01*
X134975190Y-151923809D01*
X134975190Y-151542857D01*
X135451380Y-152590476D02*
X135451380Y-152780952D01*
X135403761Y-152876190D01*
X135356142Y-152923809D01*
X135213285Y-153019047D01*
X135022809Y-153066666D01*
X134641857Y-153066666D01*
X134546619Y-153019047D01*
X134499000Y-152971428D01*
X134451380Y-152876190D01*
X134451380Y-152685714D01*
X134499000Y-152590476D01*
X134546619Y-152542857D01*
X134641857Y-152495238D01*
X134879952Y-152495238D01*
X134975190Y-152542857D01*
X135022809Y-152590476D01*
X135070428Y-152685714D01*
X135070428Y-152876190D01*
X135022809Y-152971428D01*
X134975190Y-153019047D01*
X134879952Y-153066666D01*
%TO.C,LED4*%
X138518047Y-156252380D02*
X138994238Y-156252380D01*
X138994238Y-155252380D01*
X138184714Y-155728571D02*
X137851380Y-155728571D01*
X137708523Y-156252380D02*
X138184714Y-156252380D01*
X138184714Y-155252380D01*
X137708523Y-155252380D01*
X137279952Y-156252380D02*
X137279952Y-155252380D01*
X137041857Y-155252380D01*
X136899000Y-155300000D01*
X136803761Y-155395238D01*
X136756142Y-155490476D01*
X136708523Y-155680952D01*
X136708523Y-155823809D01*
X136756142Y-156014285D01*
X136803761Y-156109523D01*
X136899000Y-156204761D01*
X137041857Y-156252380D01*
X137279952Y-156252380D01*
X135851380Y-155585714D02*
X135851380Y-156252380D01*
X136089476Y-155204761D02*
X136327571Y-155919047D01*
X135708523Y-155919047D01*
%TO.C,LED2*%
X183041380Y-48600952D02*
X183041380Y-48124761D01*
X182041380Y-48124761D01*
X182517571Y-48934285D02*
X182517571Y-49267619D01*
X183041380Y-49410476D02*
X183041380Y-48934285D01*
X182041380Y-48934285D01*
X182041380Y-49410476D01*
X183041380Y-49839047D02*
X182041380Y-49839047D01*
X182041380Y-50077142D01*
X182089000Y-50220000D01*
X182184238Y-50315238D01*
X182279476Y-50362857D01*
X182469952Y-50410476D01*
X182612809Y-50410476D01*
X182803285Y-50362857D01*
X182898523Y-50315238D01*
X182993761Y-50220000D01*
X183041380Y-50077142D01*
X183041380Y-49839047D01*
X182136619Y-50791428D02*
X182089000Y-50839047D01*
X182041380Y-50934285D01*
X182041380Y-51172380D01*
X182089000Y-51267619D01*
X182136619Y-51315238D01*
X182231857Y-51362857D01*
X182327095Y-51362857D01*
X182469952Y-51315238D01*
X183041380Y-50743809D01*
X183041380Y-51362857D01*
%TO.C,U5*%
X154810904Y-133152380D02*
X154810904Y-133961904D01*
X154763285Y-134057142D01*
X154715666Y-134104761D01*
X154620428Y-134152380D01*
X154429952Y-134152380D01*
X154334714Y-134104761D01*
X154287095Y-134057142D01*
X154239476Y-133961904D01*
X154239476Y-133152380D01*
X153287095Y-133152380D02*
X153763285Y-133152380D01*
X153810904Y-133628571D01*
X153763285Y-133580952D01*
X153668047Y-133533333D01*
X153429952Y-133533333D01*
X153334714Y-133580952D01*
X153287095Y-133628571D01*
X153239476Y-133723809D01*
X153239476Y-133961904D01*
X153287095Y-134057142D01*
X153334714Y-134104761D01*
X153429952Y-134152380D01*
X153668047Y-134152380D01*
X153763285Y-134104761D01*
X153810904Y-134057142D01*
X149399000Y-136252380D02*
X149399000Y-136490476D01*
X149637095Y-136395238D02*
X149399000Y-136490476D01*
X149160904Y-136395238D01*
X149541857Y-136680952D02*
X149399000Y-136490476D01*
X149256142Y-136680952D01*
X149399000Y-136252380D02*
X149399000Y-136490476D01*
X149637095Y-136395238D02*
X149399000Y-136490476D01*
X149160904Y-136395238D01*
X149541857Y-136680952D02*
X149399000Y-136490476D01*
X149256142Y-136680952D01*
%TO.C,U6*%
X142451380Y-143288095D02*
X143260904Y-143288095D01*
X143356142Y-143335714D01*
X143403761Y-143383333D01*
X143451380Y-143478571D01*
X143451380Y-143669047D01*
X143403761Y-143764285D01*
X143356142Y-143811904D01*
X143260904Y-143859523D01*
X142451380Y-143859523D01*
X142451380Y-144764285D02*
X142451380Y-144573809D01*
X142499000Y-144478571D01*
X142546619Y-144430952D01*
X142689476Y-144335714D01*
X142879952Y-144288095D01*
X143260904Y-144288095D01*
X143356142Y-144335714D01*
X143403761Y-144383333D01*
X143451380Y-144478571D01*
X143451380Y-144669047D01*
X143403761Y-144764285D01*
X143356142Y-144811904D01*
X143260904Y-144859523D01*
X143022809Y-144859523D01*
X142927571Y-144811904D01*
X142879952Y-144764285D01*
X142832333Y-144669047D01*
X142832333Y-144478571D01*
X142879952Y-144383333D01*
X142927571Y-144335714D01*
X143022809Y-144288095D01*
D11*
X140631714Y-138850000D02*
X140813142Y-138850000D01*
X140740571Y-138668571D02*
X140813142Y-138850000D01*
X140740571Y-139031428D01*
X140958285Y-138741142D02*
X140813142Y-138850000D01*
X140958285Y-138958857D01*
%TO.C,SW4*%
D10*
X143232333Y-155704761D02*
X143089476Y-155752380D01*
X142851380Y-155752380D01*
X142756142Y-155704761D01*
X142708523Y-155657142D01*
X142660904Y-155561904D01*
X142660904Y-155466666D01*
X142708523Y-155371428D01*
X142756142Y-155323809D01*
X142851380Y-155276190D01*
X143041857Y-155228571D01*
X143137095Y-155180952D01*
X143184714Y-155133333D01*
X143232333Y-155038095D01*
X143232333Y-154942857D01*
X143184714Y-154847619D01*
X143137095Y-154800000D01*
X143041857Y-154752380D01*
X142803761Y-154752380D01*
X142660904Y-154800000D01*
X142327571Y-154752380D02*
X142089476Y-155752380D01*
X141899000Y-155038095D01*
X141708523Y-155752380D01*
X141470428Y-154752380D01*
X140660904Y-155085714D02*
X140660904Y-155752380D01*
X140899000Y-154704761D02*
X141137095Y-155419047D01*
X140518047Y-155419047D01*
%TO.C,JP8*%
X172832333Y-118052380D02*
X172832333Y-118766666D01*
X172879952Y-118909523D01*
X172975190Y-119004761D01*
X173118047Y-119052380D01*
X173213285Y-119052380D01*
X172356142Y-119052380D02*
X172356142Y-118052380D01*
X171975190Y-118052380D01*
X171879952Y-118100000D01*
X171832333Y-118147619D01*
X171784714Y-118242857D01*
X171784714Y-118385714D01*
X171832333Y-118480952D01*
X171879952Y-118528571D01*
X171975190Y-118576190D01*
X172356142Y-118576190D01*
X171213285Y-118480952D02*
X171308523Y-118433333D01*
X171356142Y-118385714D01*
X171403761Y-118290476D01*
X171403761Y-118242857D01*
X171356142Y-118147619D01*
X171308523Y-118100000D01*
X171213285Y-118052380D01*
X171022809Y-118052380D01*
X170927571Y-118100000D01*
X170879952Y-118147619D01*
X170832333Y-118242857D01*
X170832333Y-118290476D01*
X170879952Y-118385714D01*
X170927571Y-118433333D01*
X171022809Y-118480952D01*
X171213285Y-118480952D01*
X171308523Y-118528571D01*
X171356142Y-118576190D01*
X171403761Y-118671428D01*
X171403761Y-118861904D01*
X171356142Y-118957142D01*
X171308523Y-119004761D01*
X171213285Y-119052380D01*
X171022809Y-119052380D01*
X170927571Y-119004761D01*
X170879952Y-118957142D01*
X170832333Y-118861904D01*
X170832333Y-118671428D01*
X170879952Y-118576190D01*
X170927571Y-118528571D01*
X171022809Y-118480952D01*
%TO.C,JP7*%
X161532333Y-118052380D02*
X161532333Y-118766666D01*
X161579952Y-118909523D01*
X161675190Y-119004761D01*
X161818047Y-119052380D01*
X161913285Y-119052380D01*
X161056142Y-119052380D02*
X161056142Y-118052380D01*
X160675190Y-118052380D01*
X160579952Y-118100000D01*
X160532333Y-118147619D01*
X160484714Y-118242857D01*
X160484714Y-118385714D01*
X160532333Y-118480952D01*
X160579952Y-118528571D01*
X160675190Y-118576190D01*
X161056142Y-118576190D01*
X160151380Y-118052380D02*
X159484714Y-118052380D01*
X159913285Y-119052380D01*
%TO.C,JP6*%
X167991380Y-144166666D02*
X168705666Y-144166666D01*
X168848523Y-144119047D01*
X168943761Y-144023809D01*
X168991380Y-143880952D01*
X168991380Y-143785714D01*
X168991380Y-144642857D02*
X167991380Y-144642857D01*
X167991380Y-145023809D01*
X168039000Y-145119047D01*
X168086619Y-145166666D01*
X168181857Y-145214285D01*
X168324714Y-145214285D01*
X168419952Y-145166666D01*
X168467571Y-145119047D01*
X168515190Y-145023809D01*
X168515190Y-144642857D01*
X167991380Y-146071428D02*
X167991380Y-145880952D01*
X168039000Y-145785714D01*
X168086619Y-145738095D01*
X168229476Y-145642857D01*
X168419952Y-145595238D01*
X168800904Y-145595238D01*
X168896142Y-145642857D01*
X168943761Y-145690476D01*
X168991380Y-145785714D01*
X168991380Y-145976190D01*
X168943761Y-146071428D01*
X168896142Y-146119047D01*
X168800904Y-146166666D01*
X168562809Y-146166666D01*
X168467571Y-146119047D01*
X168419952Y-146071428D01*
X168372333Y-145976190D01*
X168372333Y-145785714D01*
X168419952Y-145690476D01*
X168467571Y-145642857D01*
X168562809Y-145595238D01*
%TO.C,R13*%
X156391857Y-108952380D02*
X156725190Y-108476190D01*
X156963285Y-108952380D02*
X156963285Y-107952380D01*
X156582333Y-107952380D01*
X156487095Y-108000000D01*
X156439476Y-108047619D01*
X156391857Y-108142857D01*
X156391857Y-108285714D01*
X156439476Y-108380952D01*
X156487095Y-108428571D01*
X156582333Y-108476190D01*
X156963285Y-108476190D01*
X155439476Y-108952380D02*
X156010904Y-108952380D01*
X155725190Y-108952380D02*
X155725190Y-107952380D01*
X155820428Y-108095238D01*
X155915666Y-108190476D01*
X156010904Y-108238095D01*
X155106142Y-107952380D02*
X154487095Y-107952380D01*
X154820428Y-108333333D01*
X154677571Y-108333333D01*
X154582333Y-108380952D01*
X154534714Y-108428571D01*
X154487095Y-108523809D01*
X154487095Y-108761904D01*
X154534714Y-108857142D01*
X154582333Y-108904761D01*
X154677571Y-108952380D01*
X154963285Y-108952380D01*
X155058523Y-108904761D01*
X155106142Y-108857142D01*
%TO.C,R12*%
X166291857Y-108552380D02*
X166625190Y-108076190D01*
X166863285Y-108552380D02*
X166863285Y-107552380D01*
X166482333Y-107552380D01*
X166387095Y-107600000D01*
X166339476Y-107647619D01*
X166291857Y-107742857D01*
X166291857Y-107885714D01*
X166339476Y-107980952D01*
X166387095Y-108028571D01*
X166482333Y-108076190D01*
X166863285Y-108076190D01*
X165339476Y-108552380D02*
X165910904Y-108552380D01*
X165625190Y-108552380D02*
X165625190Y-107552380D01*
X165720428Y-107695238D01*
X165815666Y-107790476D01*
X165910904Y-107838095D01*
X164958523Y-107647619D02*
X164910904Y-107600000D01*
X164815666Y-107552380D01*
X164577571Y-107552380D01*
X164482333Y-107600000D01*
X164434714Y-107647619D01*
X164387095Y-107742857D01*
X164387095Y-107838095D01*
X164434714Y-107980952D01*
X165006142Y-108552380D01*
X164387095Y-108552380D01*
%TO.C,R20*%
X173761380Y-97607142D02*
X173285190Y-97273809D01*
X173761380Y-97035714D02*
X172761380Y-97035714D01*
X172761380Y-97416666D01*
X172809000Y-97511904D01*
X172856619Y-97559523D01*
X172951857Y-97607142D01*
X173094714Y-97607142D01*
X173189952Y-97559523D01*
X173237571Y-97511904D01*
X173285190Y-97416666D01*
X173285190Y-97035714D01*
X172856619Y-97988095D02*
X172809000Y-98035714D01*
X172761380Y-98130952D01*
X172761380Y-98369047D01*
X172809000Y-98464285D01*
X172856619Y-98511904D01*
X172951857Y-98559523D01*
X173047095Y-98559523D01*
X173189952Y-98511904D01*
X173761380Y-97940476D01*
X173761380Y-98559523D01*
X172761380Y-99178571D02*
X172761380Y-99273809D01*
X172809000Y-99369047D01*
X172856619Y-99416666D01*
X172951857Y-99464285D01*
X173142333Y-99511904D01*
X173380428Y-99511904D01*
X173570904Y-99464285D01*
X173666142Y-99416666D01*
X173713761Y-99369047D01*
X173761380Y-99273809D01*
X173761380Y-99178571D01*
X173713761Y-99083333D01*
X173666142Y-99035714D01*
X173570904Y-98988095D01*
X173380428Y-98940476D01*
X173142333Y-98940476D01*
X172951857Y-98988095D01*
X172856619Y-99035714D01*
X172809000Y-99083333D01*
X172761380Y-99178571D01*
%TO.C,R19*%
X167691857Y-109652380D02*
X168025190Y-109176190D01*
X168263285Y-109652380D02*
X168263285Y-108652380D01*
X167882333Y-108652380D01*
X167787095Y-108700000D01*
X167739476Y-108747619D01*
X167691857Y-108842857D01*
X167691857Y-108985714D01*
X167739476Y-109080952D01*
X167787095Y-109128571D01*
X167882333Y-109176190D01*
X168263285Y-109176190D01*
X166739476Y-109652380D02*
X167310904Y-109652380D01*
X167025190Y-109652380D02*
X167025190Y-108652380D01*
X167120428Y-108795238D01*
X167215666Y-108890476D01*
X167310904Y-108938095D01*
X166263285Y-109652380D02*
X166072809Y-109652380D01*
X165977571Y-109604761D01*
X165929952Y-109557142D01*
X165834714Y-109414285D01*
X165787095Y-109223809D01*
X165787095Y-108842857D01*
X165834714Y-108747619D01*
X165882333Y-108700000D01*
X165977571Y-108652380D01*
X166168047Y-108652380D01*
X166263285Y-108700000D01*
X166310904Y-108747619D01*
X166358523Y-108842857D01*
X166358523Y-109080952D01*
X166310904Y-109176190D01*
X166263285Y-109223809D01*
X166168047Y-109271428D01*
X165977571Y-109271428D01*
X165882333Y-109223809D01*
X165834714Y-109176190D01*
X165787095Y-109080952D01*
%TO.C,R18*%
X177991857Y-108952380D02*
X178325190Y-108476190D01*
X178563285Y-108952380D02*
X178563285Y-107952380D01*
X178182333Y-107952380D01*
X178087095Y-108000000D01*
X178039476Y-108047619D01*
X177991857Y-108142857D01*
X177991857Y-108285714D01*
X178039476Y-108380952D01*
X178087095Y-108428571D01*
X178182333Y-108476190D01*
X178563285Y-108476190D01*
X177039476Y-108952380D02*
X177610904Y-108952380D01*
X177325190Y-108952380D02*
X177325190Y-107952380D01*
X177420428Y-108095238D01*
X177515666Y-108190476D01*
X177610904Y-108238095D01*
X176468047Y-108380952D02*
X176563285Y-108333333D01*
X176610904Y-108285714D01*
X176658523Y-108190476D01*
X176658523Y-108142857D01*
X176610904Y-108047619D01*
X176563285Y-108000000D01*
X176468047Y-107952380D01*
X176277571Y-107952380D01*
X176182333Y-108000000D01*
X176134714Y-108047619D01*
X176087095Y-108142857D01*
X176087095Y-108190476D01*
X176134714Y-108285714D01*
X176182333Y-108333333D01*
X176277571Y-108380952D01*
X176468047Y-108380952D01*
X176563285Y-108428571D01*
X176610904Y-108476190D01*
X176658523Y-108571428D01*
X176658523Y-108761904D01*
X176610904Y-108857142D01*
X176563285Y-108904761D01*
X176468047Y-108952380D01*
X176277571Y-108952380D01*
X176182333Y-108904761D01*
X176134714Y-108857142D01*
X176087095Y-108761904D01*
X176087095Y-108571428D01*
X176134714Y-108476190D01*
X176182333Y-108428571D01*
X176277571Y-108380952D01*
%TO.C,R17*%
X167691857Y-105402380D02*
X168025190Y-104926190D01*
X168263285Y-105402380D02*
X168263285Y-104402380D01*
X167882333Y-104402380D01*
X167787095Y-104450000D01*
X167739476Y-104497619D01*
X167691857Y-104592857D01*
X167691857Y-104735714D01*
X167739476Y-104830952D01*
X167787095Y-104878571D01*
X167882333Y-104926190D01*
X168263285Y-104926190D01*
X166739476Y-105402380D02*
X167310904Y-105402380D01*
X167025190Y-105402380D02*
X167025190Y-104402380D01*
X167120428Y-104545238D01*
X167215666Y-104640476D01*
X167310904Y-104688095D01*
X166406142Y-104402380D02*
X165739476Y-104402380D01*
X166168047Y-105402380D01*
%TO.C,R11*%
X156391857Y-104902380D02*
X156725190Y-104426190D01*
X156963285Y-104902380D02*
X156963285Y-103902380D01*
X156582333Y-103902380D01*
X156487095Y-103950000D01*
X156439476Y-103997619D01*
X156391857Y-104092857D01*
X156391857Y-104235714D01*
X156439476Y-104330952D01*
X156487095Y-104378571D01*
X156582333Y-104426190D01*
X156963285Y-104426190D01*
X155439476Y-104902380D02*
X156010904Y-104902380D01*
X155725190Y-104902380D02*
X155725190Y-103902380D01*
X155820428Y-104045238D01*
X155915666Y-104140476D01*
X156010904Y-104188095D01*
X154487095Y-104902380D02*
X155058523Y-104902380D01*
X154772809Y-104902380D02*
X154772809Y-103902380D01*
X154868047Y-104045238D01*
X154963285Y-104140476D01*
X155058523Y-104188095D01*
%TO.C,R10*%
X166491857Y-104252380D02*
X166825190Y-103776190D01*
X167063285Y-104252380D02*
X167063285Y-103252380D01*
X166682333Y-103252380D01*
X166587095Y-103300000D01*
X166539476Y-103347619D01*
X166491857Y-103442857D01*
X166491857Y-103585714D01*
X166539476Y-103680952D01*
X166587095Y-103728571D01*
X166682333Y-103776190D01*
X167063285Y-103776190D01*
X165539476Y-104252380D02*
X166110904Y-104252380D01*
X165825190Y-104252380D02*
X165825190Y-103252380D01*
X165920428Y-103395238D01*
X166015666Y-103490476D01*
X166110904Y-103538095D01*
X164920428Y-103252380D02*
X164825190Y-103252380D01*
X164729952Y-103300000D01*
X164682333Y-103347619D01*
X164634714Y-103442857D01*
X164587095Y-103633333D01*
X164587095Y-103871428D01*
X164634714Y-104061904D01*
X164682333Y-104157142D01*
X164729952Y-104204761D01*
X164825190Y-104252380D01*
X164920428Y-104252380D01*
X165015666Y-104204761D01*
X165063285Y-104157142D01*
X165110904Y-104061904D01*
X165158523Y-103871428D01*
X165158523Y-103633333D01*
X165110904Y-103442857D01*
X165063285Y-103347619D01*
X165015666Y-103300000D01*
X164920428Y-103252380D01*
%TO.C,R9*%
X160451380Y-98433333D02*
X159975190Y-98100000D01*
X160451380Y-97861904D02*
X159451380Y-97861904D01*
X159451380Y-98242857D01*
X159499000Y-98338095D01*
X159546619Y-98385714D01*
X159641857Y-98433333D01*
X159784714Y-98433333D01*
X159879952Y-98385714D01*
X159927571Y-98338095D01*
X159975190Y-98242857D01*
X159975190Y-97861904D01*
X160451380Y-98909523D02*
X160451380Y-99100000D01*
X160403761Y-99195238D01*
X160356142Y-99242857D01*
X160213285Y-99338095D01*
X160022809Y-99385714D01*
X159641857Y-99385714D01*
X159546619Y-99338095D01*
X159499000Y-99290476D01*
X159451380Y-99195238D01*
X159451380Y-99004761D01*
X159499000Y-98909523D01*
X159546619Y-98861904D01*
X159641857Y-98814285D01*
X159879952Y-98814285D01*
X159975190Y-98861904D01*
X160022809Y-98909523D01*
X160070428Y-99004761D01*
X160070428Y-99195238D01*
X160022809Y-99290476D01*
X159975190Y-99338095D01*
X159879952Y-99385714D01*
%TO.C,R8*%
X171591380Y-98433333D02*
X171115190Y-98100000D01*
X171591380Y-97861904D02*
X170591380Y-97861904D01*
X170591380Y-98242857D01*
X170639000Y-98338095D01*
X170686619Y-98385714D01*
X170781857Y-98433333D01*
X170924714Y-98433333D01*
X171019952Y-98385714D01*
X171067571Y-98338095D01*
X171115190Y-98242857D01*
X171115190Y-97861904D01*
X171019952Y-99004761D02*
X170972333Y-98909523D01*
X170924714Y-98861904D01*
X170829476Y-98814285D01*
X170781857Y-98814285D01*
X170686619Y-98861904D01*
X170639000Y-98909523D01*
X170591380Y-99004761D01*
X170591380Y-99195238D01*
X170639000Y-99290476D01*
X170686619Y-99338095D01*
X170781857Y-99385714D01*
X170829476Y-99385714D01*
X170924714Y-99338095D01*
X170972333Y-99290476D01*
X171019952Y-99195238D01*
X171019952Y-99004761D01*
X171067571Y-98909523D01*
X171115190Y-98861904D01*
X171210428Y-98814285D01*
X171400904Y-98814285D01*
X171496142Y-98861904D01*
X171543761Y-98909523D01*
X171591380Y-99004761D01*
X171591380Y-99195238D01*
X171543761Y-99290476D01*
X171496142Y-99338095D01*
X171400904Y-99385714D01*
X171210428Y-99385714D01*
X171115190Y-99338095D01*
X171067571Y-99290476D01*
X171019952Y-99195238D01*
%TO.C,R5*%
X162451380Y-98483333D02*
X161975190Y-98150000D01*
X162451380Y-97911904D02*
X161451380Y-97911904D01*
X161451380Y-98292857D01*
X161499000Y-98388095D01*
X161546619Y-98435714D01*
X161641857Y-98483333D01*
X161784714Y-98483333D01*
X161879952Y-98435714D01*
X161927571Y-98388095D01*
X161975190Y-98292857D01*
X161975190Y-97911904D01*
X161451380Y-99388095D02*
X161451380Y-98911904D01*
X161927571Y-98864285D01*
X161879952Y-98911904D01*
X161832333Y-99007142D01*
X161832333Y-99245238D01*
X161879952Y-99340476D01*
X161927571Y-99388095D01*
X162022809Y-99435714D01*
X162260904Y-99435714D01*
X162356142Y-99388095D01*
X162403761Y-99340476D01*
X162451380Y-99245238D01*
X162451380Y-99007142D01*
X162403761Y-98911904D01*
X162356142Y-98864285D01*
%TO.C,R4*%
X177115666Y-105002380D02*
X177449000Y-104526190D01*
X177687095Y-105002380D02*
X177687095Y-104002380D01*
X177306142Y-104002380D01*
X177210904Y-104050000D01*
X177163285Y-104097619D01*
X177115666Y-104192857D01*
X177115666Y-104335714D01*
X177163285Y-104430952D01*
X177210904Y-104478571D01*
X177306142Y-104526190D01*
X177687095Y-104526190D01*
X176258523Y-104335714D02*
X176258523Y-105002380D01*
X176496619Y-103954761D02*
X176734714Y-104669047D01*
X176115666Y-104669047D01*
%TO.C,C32*%
X169306142Y-118907142D02*
X169353761Y-118859523D01*
X169401380Y-118716666D01*
X169401380Y-118621428D01*
X169353761Y-118478571D01*
X169258523Y-118383333D01*
X169163285Y-118335714D01*
X168972809Y-118288095D01*
X168829952Y-118288095D01*
X168639476Y-118335714D01*
X168544238Y-118383333D01*
X168449000Y-118478571D01*
X168401380Y-118621428D01*
X168401380Y-118716666D01*
X168449000Y-118859523D01*
X168496619Y-118907142D01*
X168401380Y-119240476D02*
X168401380Y-119859523D01*
X168782333Y-119526190D01*
X168782333Y-119669047D01*
X168829952Y-119764285D01*
X168877571Y-119811904D01*
X168972809Y-119859523D01*
X169210904Y-119859523D01*
X169306142Y-119811904D01*
X169353761Y-119764285D01*
X169401380Y-119669047D01*
X169401380Y-119383333D01*
X169353761Y-119288095D01*
X169306142Y-119240476D01*
X168496619Y-120240476D02*
X168449000Y-120288095D01*
X168401380Y-120383333D01*
X168401380Y-120621428D01*
X168449000Y-120716666D01*
X168496619Y-120764285D01*
X168591857Y-120811904D01*
X168687095Y-120811904D01*
X168829952Y-120764285D01*
X169401380Y-120192857D01*
X169401380Y-120811904D01*
%TO.C,C18*%
X164256142Y-119007142D02*
X164303761Y-118959523D01*
X164351380Y-118816666D01*
X164351380Y-118721428D01*
X164303761Y-118578571D01*
X164208523Y-118483333D01*
X164113285Y-118435714D01*
X163922809Y-118388095D01*
X163779952Y-118388095D01*
X163589476Y-118435714D01*
X163494238Y-118483333D01*
X163399000Y-118578571D01*
X163351380Y-118721428D01*
X163351380Y-118816666D01*
X163399000Y-118959523D01*
X163446619Y-119007142D01*
X164351380Y-119959523D02*
X164351380Y-119388095D01*
X164351380Y-119673809D02*
X163351380Y-119673809D01*
X163494238Y-119578571D01*
X163589476Y-119483333D01*
X163637095Y-119388095D01*
X163779952Y-120530952D02*
X163732333Y-120435714D01*
X163684714Y-120388095D01*
X163589476Y-120340476D01*
X163541857Y-120340476D01*
X163446619Y-120388095D01*
X163399000Y-120435714D01*
X163351380Y-120530952D01*
X163351380Y-120721428D01*
X163399000Y-120816666D01*
X163446619Y-120864285D01*
X163541857Y-120911904D01*
X163589476Y-120911904D01*
X163684714Y-120864285D01*
X163732333Y-120816666D01*
X163779952Y-120721428D01*
X163779952Y-120530952D01*
X163827571Y-120435714D01*
X163875190Y-120388095D01*
X163970428Y-120340476D01*
X164160904Y-120340476D01*
X164256142Y-120388095D01*
X164303761Y-120435714D01*
X164351380Y-120530952D01*
X164351380Y-120721428D01*
X164303761Y-120816666D01*
X164256142Y-120864285D01*
X164160904Y-120911904D01*
X163970428Y-120911904D01*
X163875190Y-120864285D01*
X163827571Y-120816666D01*
X163779952Y-120721428D01*
%TO.C,C17*%
X156391857Y-106807142D02*
X156439476Y-106854761D01*
X156582333Y-106902380D01*
X156677571Y-106902380D01*
X156820428Y-106854761D01*
X156915666Y-106759523D01*
X156963285Y-106664285D01*
X157010904Y-106473809D01*
X157010904Y-106330952D01*
X156963285Y-106140476D01*
X156915666Y-106045238D01*
X156820428Y-105950000D01*
X156677571Y-105902380D01*
X156582333Y-105902380D01*
X156439476Y-105950000D01*
X156391857Y-105997619D01*
X155439476Y-106902380D02*
X156010904Y-106902380D01*
X155725190Y-106902380D02*
X155725190Y-105902380D01*
X155820428Y-106045238D01*
X155915666Y-106140476D01*
X156010904Y-106188095D01*
X155106142Y-105902380D02*
X154439476Y-105902380D01*
X154868047Y-106902380D01*
%TO.C,C13*%
X166491857Y-106407142D02*
X166539476Y-106454761D01*
X166682333Y-106502380D01*
X166777571Y-106502380D01*
X166920428Y-106454761D01*
X167015666Y-106359523D01*
X167063285Y-106264285D01*
X167110904Y-106073809D01*
X167110904Y-105930952D01*
X167063285Y-105740476D01*
X167015666Y-105645238D01*
X166920428Y-105550000D01*
X166777571Y-105502380D01*
X166682333Y-105502380D01*
X166539476Y-105550000D01*
X166491857Y-105597619D01*
X165539476Y-106502380D02*
X166110904Y-106502380D01*
X165825190Y-106502380D02*
X165825190Y-105502380D01*
X165920428Y-105645238D01*
X166015666Y-105740476D01*
X166110904Y-105788095D01*
X165206142Y-105502380D02*
X164587095Y-105502380D01*
X164920428Y-105883333D01*
X164777571Y-105883333D01*
X164682333Y-105930952D01*
X164634714Y-105978571D01*
X164587095Y-106073809D01*
X164587095Y-106311904D01*
X164634714Y-106407142D01*
X164682333Y-106454761D01*
X164777571Y-106502380D01*
X165063285Y-106502380D01*
X165158523Y-106454761D01*
X165206142Y-106407142D01*
%TO.C,C8*%
X167615666Y-107457142D02*
X167663285Y-107504761D01*
X167806142Y-107552380D01*
X167901380Y-107552380D01*
X168044238Y-107504761D01*
X168139476Y-107409523D01*
X168187095Y-107314285D01*
X168234714Y-107123809D01*
X168234714Y-106980952D01*
X168187095Y-106790476D01*
X168139476Y-106695238D01*
X168044238Y-106600000D01*
X167901380Y-106552380D01*
X167806142Y-106552380D01*
X167663285Y-106600000D01*
X167615666Y-106647619D01*
X167044238Y-106980952D02*
X167139476Y-106933333D01*
X167187095Y-106885714D01*
X167234714Y-106790476D01*
X167234714Y-106742857D01*
X167187095Y-106647619D01*
X167139476Y-106600000D01*
X167044238Y-106552380D01*
X166853761Y-106552380D01*
X166758523Y-106600000D01*
X166710904Y-106647619D01*
X166663285Y-106742857D01*
X166663285Y-106790476D01*
X166710904Y-106885714D01*
X166758523Y-106933333D01*
X166853761Y-106980952D01*
X167044238Y-106980952D01*
X167139476Y-107028571D01*
X167187095Y-107076190D01*
X167234714Y-107171428D01*
X167234714Y-107361904D01*
X167187095Y-107457142D01*
X167139476Y-107504761D01*
X167044238Y-107552380D01*
X166853761Y-107552380D01*
X166758523Y-107504761D01*
X166710904Y-107457142D01*
X166663285Y-107361904D01*
X166663285Y-107171428D01*
X166710904Y-107076190D01*
X166758523Y-107028571D01*
X166853761Y-106980952D01*
%TO.C,C7*%
X177165666Y-106907142D02*
X177213285Y-106954761D01*
X177356142Y-107002380D01*
X177451380Y-107002380D01*
X177594238Y-106954761D01*
X177689476Y-106859523D01*
X177737095Y-106764285D01*
X177784714Y-106573809D01*
X177784714Y-106430952D01*
X177737095Y-106240476D01*
X177689476Y-106145238D01*
X177594238Y-106050000D01*
X177451380Y-106002380D01*
X177356142Y-106002380D01*
X177213285Y-106050000D01*
X177165666Y-106097619D01*
X176832333Y-106002380D02*
X176165666Y-106002380D01*
X176594238Y-107002380D01*
%TO.C,C3*%
X137365666Y-149657142D02*
X137413285Y-149704761D01*
X137556142Y-149752380D01*
X137651380Y-149752380D01*
X137794238Y-149704761D01*
X137889476Y-149609523D01*
X137937095Y-149514285D01*
X137984714Y-149323809D01*
X137984714Y-149180952D01*
X137937095Y-148990476D01*
X137889476Y-148895238D01*
X137794238Y-148800000D01*
X137651380Y-148752380D01*
X137556142Y-148752380D01*
X137413285Y-148800000D01*
X137365666Y-148847619D01*
X137032333Y-148752380D02*
X136413285Y-148752380D01*
X136746619Y-149133333D01*
X136603761Y-149133333D01*
X136508523Y-149180952D01*
X136460904Y-149228571D01*
X136413285Y-149323809D01*
X136413285Y-149561904D01*
X136460904Y-149657142D01*
X136508523Y-149704761D01*
X136603761Y-149752380D01*
X136889476Y-149752380D01*
X136984714Y-149704761D01*
X137032333Y-149657142D01*
%TO.C,SW2*%
X190413761Y-87284760D02*
X190461380Y-87427617D01*
X190461380Y-87665713D01*
X190413761Y-87760951D01*
X190366142Y-87808570D01*
X190270904Y-87856189D01*
X190175666Y-87856189D01*
X190080428Y-87808570D01*
X190032809Y-87760951D01*
X189985190Y-87665713D01*
X189937571Y-87475236D01*
X189889952Y-87379998D01*
X189842333Y-87332379D01*
X189747095Y-87284760D01*
X189651857Y-87284760D01*
X189556619Y-87332379D01*
X189509000Y-87379998D01*
X189461380Y-87475236D01*
X189461380Y-87713332D01*
X189509000Y-87856189D01*
X189461380Y-88189522D02*
X190461380Y-88427617D01*
X189747095Y-88618094D01*
X190461380Y-88808570D01*
X189461380Y-89046665D01*
X189556619Y-89379998D02*
X189509000Y-89427617D01*
X189461380Y-89522855D01*
X189461380Y-89760951D01*
X189509000Y-89856189D01*
X189556619Y-89903808D01*
X189651857Y-89951427D01*
X189747095Y-89951427D01*
X189889952Y-89903808D01*
X190461380Y-89332379D01*
X190461380Y-89951427D01*
%TO.C,SW1*%
X118393761Y-87166666D02*
X118441380Y-87309523D01*
X118441380Y-87547619D01*
X118393761Y-87642857D01*
X118346142Y-87690476D01*
X118250904Y-87738095D01*
X118155666Y-87738095D01*
X118060428Y-87690476D01*
X118012809Y-87642857D01*
X117965190Y-87547619D01*
X117917571Y-87357142D01*
X117869952Y-87261904D01*
X117822333Y-87214285D01*
X117727095Y-87166666D01*
X117631857Y-87166666D01*
X117536619Y-87214285D01*
X117489000Y-87261904D01*
X117441380Y-87357142D01*
X117441380Y-87595238D01*
X117489000Y-87738095D01*
X117441380Y-88071428D02*
X118441380Y-88309523D01*
X117727095Y-88500000D01*
X118441380Y-88690476D01*
X117441380Y-88928571D01*
X118441380Y-89833333D02*
X118441380Y-89261904D01*
X118441380Y-89547619D02*
X117441380Y-89547619D01*
X117584238Y-89452380D01*
X117679476Y-89357142D01*
X117727095Y-89261904D01*
%TO.C,R16*%
X135791857Y-140852380D02*
X136125190Y-140376190D01*
X136363285Y-140852380D02*
X136363285Y-139852380D01*
X135982333Y-139852380D01*
X135887095Y-139900000D01*
X135839476Y-139947619D01*
X135791857Y-140042857D01*
X135791857Y-140185714D01*
X135839476Y-140280952D01*
X135887095Y-140328571D01*
X135982333Y-140376190D01*
X136363285Y-140376190D01*
X134839476Y-140852380D02*
X135410904Y-140852380D01*
X135125190Y-140852380D02*
X135125190Y-139852380D01*
X135220428Y-139995238D01*
X135315666Y-140090476D01*
X135410904Y-140138095D01*
X133982333Y-139852380D02*
X134172809Y-139852380D01*
X134268047Y-139900000D01*
X134315666Y-139947619D01*
X134410904Y-140090476D01*
X134458523Y-140280952D01*
X134458523Y-140661904D01*
X134410904Y-140757142D01*
X134363285Y-140804761D01*
X134268047Y-140852380D01*
X134077571Y-140852380D01*
X133982333Y-140804761D01*
X133934714Y-140757142D01*
X133887095Y-140661904D01*
X133887095Y-140423809D01*
X133934714Y-140328571D01*
X133982333Y-140280952D01*
X134077571Y-140233333D01*
X134268047Y-140233333D01*
X134363285Y-140280952D01*
X134410904Y-140328571D01*
X134458523Y-140423809D01*
%TO.C,R15*%
X167341857Y-153602380D02*
X167675190Y-153126190D01*
X167913285Y-153602380D02*
X167913285Y-152602380D01*
X167532333Y-152602380D01*
X167437095Y-152650000D01*
X167389476Y-152697619D01*
X167341857Y-152792857D01*
X167341857Y-152935714D01*
X167389476Y-153030952D01*
X167437095Y-153078571D01*
X167532333Y-153126190D01*
X167913285Y-153126190D01*
X166389476Y-153602380D02*
X166960904Y-153602380D01*
X166675190Y-153602380D02*
X166675190Y-152602380D01*
X166770428Y-152745238D01*
X166865666Y-152840476D01*
X166960904Y-152888095D01*
X165484714Y-152602380D02*
X165960904Y-152602380D01*
X166008523Y-153078571D01*
X165960904Y-153030952D01*
X165865666Y-152983333D01*
X165627571Y-152983333D01*
X165532333Y-153030952D01*
X165484714Y-153078571D01*
X165437095Y-153173809D01*
X165437095Y-153411904D01*
X165484714Y-153507142D01*
X165532333Y-153554761D01*
X165627571Y-153602380D01*
X165865666Y-153602380D01*
X165960904Y-153554761D01*
X166008523Y-153507142D01*
%TO.C,R14*%
X151641857Y-125402380D02*
X151975190Y-124926190D01*
X152213285Y-125402380D02*
X152213285Y-124402380D01*
X151832333Y-124402380D01*
X151737095Y-124450000D01*
X151689476Y-124497619D01*
X151641857Y-124592857D01*
X151641857Y-124735714D01*
X151689476Y-124830952D01*
X151737095Y-124878571D01*
X151832333Y-124926190D01*
X152213285Y-124926190D01*
X150689476Y-125402380D02*
X151260904Y-125402380D01*
X150975190Y-125402380D02*
X150975190Y-124402380D01*
X151070428Y-124545238D01*
X151165666Y-124640476D01*
X151260904Y-124688095D01*
X149832333Y-124735714D02*
X149832333Y-125402380D01*
X150070428Y-124354761D02*
X150308523Y-125069047D01*
X149689476Y-125069047D01*
%TO.C,JP5*%
X166751380Y-111416666D02*
X167465666Y-111416666D01*
X167608523Y-111369047D01*
X167703761Y-111273809D01*
X167751380Y-111130952D01*
X167751380Y-111035714D01*
X167751380Y-111892857D02*
X166751380Y-111892857D01*
X166751380Y-112273809D01*
X166799000Y-112369047D01*
X166846619Y-112416666D01*
X166941857Y-112464285D01*
X167084714Y-112464285D01*
X167179952Y-112416666D01*
X167227571Y-112369047D01*
X167275190Y-112273809D01*
X167275190Y-111892857D01*
X166751380Y-113369047D02*
X166751380Y-112892857D01*
X167227571Y-112845238D01*
X167179952Y-112892857D01*
X167132333Y-112988095D01*
X167132333Y-113226190D01*
X167179952Y-113321428D01*
X167227571Y-113369047D01*
X167322809Y-113416666D01*
X167560904Y-113416666D01*
X167656142Y-113369047D01*
X167703761Y-113321428D01*
X167751380Y-113226190D01*
X167751380Y-112988095D01*
X167703761Y-112892857D01*
X167656142Y-112845238D01*
%TO.C,JP4*%
X177101380Y-111216666D02*
X177815666Y-111216666D01*
X177958523Y-111169047D01*
X178053761Y-111073809D01*
X178101380Y-110930952D01*
X178101380Y-110835714D01*
X178101380Y-111692857D02*
X177101380Y-111692857D01*
X177101380Y-112073809D01*
X177149000Y-112169047D01*
X177196619Y-112216666D01*
X177291857Y-112264285D01*
X177434714Y-112264285D01*
X177529952Y-112216666D01*
X177577571Y-112169047D01*
X177625190Y-112073809D01*
X177625190Y-111692857D01*
X177434714Y-113121428D02*
X178101380Y-113121428D01*
X177053761Y-112883333D02*
X177768047Y-112645238D01*
X177768047Y-113264285D01*
%TO.C,JP3*%
X155201380Y-111466666D02*
X155915666Y-111466666D01*
X156058523Y-111419047D01*
X156153761Y-111323809D01*
X156201380Y-111180952D01*
X156201380Y-111085714D01*
X156201380Y-111942857D02*
X155201380Y-111942857D01*
X155201380Y-112323809D01*
X155249000Y-112419047D01*
X155296619Y-112466666D01*
X155391857Y-112514285D01*
X155534714Y-112514285D01*
X155629952Y-112466666D01*
X155677571Y-112419047D01*
X155725190Y-112323809D01*
X155725190Y-111942857D01*
X155201380Y-112847619D02*
X155201380Y-113466666D01*
X155582333Y-113133333D01*
X155582333Y-113276190D01*
X155629952Y-113371428D01*
X155677571Y-113419047D01*
X155772809Y-113466666D01*
X156010904Y-113466666D01*
X156106142Y-113419047D01*
X156153761Y-113371428D01*
X156201380Y-113276190D01*
X156201380Y-112990476D01*
X156153761Y-112895238D01*
X156106142Y-112847619D01*
%TO.C,JP2*%
X165351380Y-111366666D02*
X166065666Y-111366666D01*
X166208523Y-111319047D01*
X166303761Y-111223809D01*
X166351380Y-111080952D01*
X166351380Y-110985714D01*
X166351380Y-111842857D02*
X165351380Y-111842857D01*
X165351380Y-112223809D01*
X165399000Y-112319047D01*
X165446619Y-112366666D01*
X165541857Y-112414285D01*
X165684714Y-112414285D01*
X165779952Y-112366666D01*
X165827571Y-112319047D01*
X165875190Y-112223809D01*
X165875190Y-111842857D01*
X165446619Y-112795238D02*
X165399000Y-112842857D01*
X165351380Y-112938095D01*
X165351380Y-113176190D01*
X165399000Y-113271428D01*
X165446619Y-113319047D01*
X165541857Y-113366666D01*
X165637095Y-113366666D01*
X165779952Y-113319047D01*
X166351380Y-112747619D01*
X166351380Y-113366666D01*
%TO.C,JP1*%
X167382333Y-155952380D02*
X167382333Y-156666666D01*
X167429952Y-156809523D01*
X167525190Y-156904761D01*
X167668047Y-156952380D01*
X167763285Y-156952380D01*
X166906142Y-156952380D02*
X166906142Y-155952380D01*
X166525190Y-155952380D01*
X166429952Y-156000000D01*
X166382333Y-156047619D01*
X166334714Y-156142857D01*
X166334714Y-156285714D01*
X166382333Y-156380952D01*
X166429952Y-156428571D01*
X166525190Y-156476190D01*
X166906142Y-156476190D01*
X165382333Y-156952380D02*
X165953761Y-156952380D01*
X165668047Y-156952380D02*
X165668047Y-155952380D01*
X165763285Y-156095238D01*
X165858523Y-156190476D01*
X165953761Y-156238095D01*
%TO.C,D3*%
X149087095Y-148052380D02*
X149087095Y-147052380D01*
X148849000Y-147052380D01*
X148706142Y-147100000D01*
X148610904Y-147195238D01*
X148563285Y-147290476D01*
X148515666Y-147480952D01*
X148515666Y-147623809D01*
X148563285Y-147814285D01*
X148610904Y-147909523D01*
X148706142Y-148004761D01*
X148849000Y-148052380D01*
X149087095Y-148052380D01*
X148182333Y-147052380D02*
X147563285Y-147052380D01*
X147896619Y-147433333D01*
X147753761Y-147433333D01*
X147658523Y-147480952D01*
X147610904Y-147528571D01*
X147563285Y-147623809D01*
X147563285Y-147861904D01*
X147610904Y-147957142D01*
X147658523Y-148004761D01*
X147753761Y-148052380D01*
X148039476Y-148052380D01*
X148134714Y-148004761D01*
X148182333Y-147957142D01*
%TO.C,C33*%
X169506142Y-97507142D02*
X169553761Y-97459523D01*
X169601380Y-97316666D01*
X169601380Y-97221428D01*
X169553761Y-97078571D01*
X169458523Y-96983333D01*
X169363285Y-96935714D01*
X169172809Y-96888095D01*
X169029952Y-96888095D01*
X168839476Y-96935714D01*
X168744238Y-96983333D01*
X168649000Y-97078571D01*
X168601380Y-97221428D01*
X168601380Y-97316666D01*
X168649000Y-97459523D01*
X168696619Y-97507142D01*
X168601380Y-97840476D02*
X168601380Y-98459523D01*
X168982333Y-98126190D01*
X168982333Y-98269047D01*
X169029952Y-98364285D01*
X169077571Y-98411904D01*
X169172809Y-98459523D01*
X169410904Y-98459523D01*
X169506142Y-98411904D01*
X169553761Y-98364285D01*
X169601380Y-98269047D01*
X169601380Y-97983333D01*
X169553761Y-97888095D01*
X169506142Y-97840476D01*
X168601380Y-98792857D02*
X168601380Y-99411904D01*
X168982333Y-99078571D01*
X168982333Y-99221428D01*
X169029952Y-99316666D01*
X169077571Y-99364285D01*
X169172809Y-99411904D01*
X169410904Y-99411904D01*
X169506142Y-99364285D01*
X169553761Y-99316666D01*
X169601380Y-99221428D01*
X169601380Y-98935714D01*
X169553761Y-98840476D01*
X169506142Y-98792857D01*
%TO.C,C31*%
X161246142Y-142897142D02*
X161293761Y-142849523D01*
X161341380Y-142706666D01*
X161341380Y-142611428D01*
X161293761Y-142468571D01*
X161198523Y-142373333D01*
X161103285Y-142325714D01*
X160912809Y-142278095D01*
X160769952Y-142278095D01*
X160579476Y-142325714D01*
X160484238Y-142373333D01*
X160389000Y-142468571D01*
X160341380Y-142611428D01*
X160341380Y-142706666D01*
X160389000Y-142849523D01*
X160436619Y-142897142D01*
X160341380Y-143230476D02*
X160341380Y-143849523D01*
X160722333Y-143516190D01*
X160722333Y-143659047D01*
X160769952Y-143754285D01*
X160817571Y-143801904D01*
X160912809Y-143849523D01*
X161150904Y-143849523D01*
X161246142Y-143801904D01*
X161293761Y-143754285D01*
X161341380Y-143659047D01*
X161341380Y-143373333D01*
X161293761Y-143278095D01*
X161246142Y-143230476D01*
X161341380Y-144801904D02*
X161341380Y-144230476D01*
X161341380Y-144516190D02*
X160341380Y-144516190D01*
X160484238Y-144420952D01*
X160579476Y-144325714D01*
X160627095Y-144230476D01*
%TO.C,C30*%
X157176142Y-142837142D02*
X157223761Y-142789523D01*
X157271380Y-142646666D01*
X157271380Y-142551428D01*
X157223761Y-142408571D01*
X157128523Y-142313333D01*
X157033285Y-142265714D01*
X156842809Y-142218095D01*
X156699952Y-142218095D01*
X156509476Y-142265714D01*
X156414238Y-142313333D01*
X156319000Y-142408571D01*
X156271380Y-142551428D01*
X156271380Y-142646666D01*
X156319000Y-142789523D01*
X156366619Y-142837142D01*
X156271380Y-143170476D02*
X156271380Y-143789523D01*
X156652333Y-143456190D01*
X156652333Y-143599047D01*
X156699952Y-143694285D01*
X156747571Y-143741904D01*
X156842809Y-143789523D01*
X157080904Y-143789523D01*
X157176142Y-143741904D01*
X157223761Y-143694285D01*
X157271380Y-143599047D01*
X157271380Y-143313333D01*
X157223761Y-143218095D01*
X157176142Y-143170476D01*
X156271380Y-144408571D02*
X156271380Y-144503809D01*
X156319000Y-144599047D01*
X156366619Y-144646666D01*
X156461857Y-144694285D01*
X156652333Y-144741904D01*
X156890428Y-144741904D01*
X157080904Y-144694285D01*
X157176142Y-144646666D01*
X157223761Y-144599047D01*
X157271380Y-144503809D01*
X157271380Y-144408571D01*
X157223761Y-144313333D01*
X157176142Y-144265714D01*
X157080904Y-144218095D01*
X156890428Y-144170476D01*
X156652333Y-144170476D01*
X156461857Y-144218095D01*
X156366619Y-144265714D01*
X156319000Y-144313333D01*
X156271380Y-144408571D01*
%TO.C,C29*%
X150256142Y-138607142D02*
X150303761Y-138559523D01*
X150351380Y-138416666D01*
X150351380Y-138321428D01*
X150303761Y-138178571D01*
X150208523Y-138083333D01*
X150113285Y-138035714D01*
X149922809Y-137988095D01*
X149779952Y-137988095D01*
X149589476Y-138035714D01*
X149494238Y-138083333D01*
X149399000Y-138178571D01*
X149351380Y-138321428D01*
X149351380Y-138416666D01*
X149399000Y-138559523D01*
X149446619Y-138607142D01*
X149446619Y-138988095D02*
X149399000Y-139035714D01*
X149351380Y-139130952D01*
X149351380Y-139369047D01*
X149399000Y-139464285D01*
X149446619Y-139511904D01*
X149541857Y-139559523D01*
X149637095Y-139559523D01*
X149779952Y-139511904D01*
X150351380Y-138940476D01*
X150351380Y-139559523D01*
X150351380Y-140035714D02*
X150351380Y-140226190D01*
X150303761Y-140321428D01*
X150256142Y-140369047D01*
X150113285Y-140464285D01*
X149922809Y-140511904D01*
X149541857Y-140511904D01*
X149446619Y-140464285D01*
X149399000Y-140416666D01*
X149351380Y-140321428D01*
X149351380Y-140130952D01*
X149399000Y-140035714D01*
X149446619Y-139988095D01*
X149541857Y-139940476D01*
X149779952Y-139940476D01*
X149875190Y-139988095D01*
X149922809Y-140035714D01*
X149970428Y-140130952D01*
X149970428Y-140321428D01*
X149922809Y-140416666D01*
X149875190Y-140464285D01*
X149779952Y-140511904D01*
%TO.C,C28*%
X159286142Y-142797142D02*
X159333761Y-142749523D01*
X159381380Y-142606666D01*
X159381380Y-142511428D01*
X159333761Y-142368571D01*
X159238523Y-142273333D01*
X159143285Y-142225714D01*
X158952809Y-142178095D01*
X158809952Y-142178095D01*
X158619476Y-142225714D01*
X158524238Y-142273333D01*
X158429000Y-142368571D01*
X158381380Y-142511428D01*
X158381380Y-142606666D01*
X158429000Y-142749523D01*
X158476619Y-142797142D01*
X158476619Y-143178095D02*
X158429000Y-143225714D01*
X158381380Y-143320952D01*
X158381380Y-143559047D01*
X158429000Y-143654285D01*
X158476619Y-143701904D01*
X158571857Y-143749523D01*
X158667095Y-143749523D01*
X158809952Y-143701904D01*
X159381380Y-143130476D01*
X159381380Y-143749523D01*
X158809952Y-144320952D02*
X158762333Y-144225714D01*
X158714714Y-144178095D01*
X158619476Y-144130476D01*
X158571857Y-144130476D01*
X158476619Y-144178095D01*
X158429000Y-144225714D01*
X158381380Y-144320952D01*
X158381380Y-144511428D01*
X158429000Y-144606666D01*
X158476619Y-144654285D01*
X158571857Y-144701904D01*
X158619476Y-144701904D01*
X158714714Y-144654285D01*
X158762333Y-144606666D01*
X158809952Y-144511428D01*
X158809952Y-144320952D01*
X158857571Y-144225714D01*
X158905190Y-144178095D01*
X159000428Y-144130476D01*
X159190904Y-144130476D01*
X159286142Y-144178095D01*
X159333761Y-144225714D01*
X159381380Y-144320952D01*
X159381380Y-144511428D01*
X159333761Y-144606666D01*
X159286142Y-144654285D01*
X159190904Y-144701904D01*
X159000428Y-144701904D01*
X158905190Y-144654285D01*
X158857571Y-144606666D01*
X158809952Y-144511428D01*
%TO.C,C27*%
X152356142Y-138507142D02*
X152403761Y-138459523D01*
X152451380Y-138316666D01*
X152451380Y-138221428D01*
X152403761Y-138078571D01*
X152308523Y-137983333D01*
X152213285Y-137935714D01*
X152022809Y-137888095D01*
X151879952Y-137888095D01*
X151689476Y-137935714D01*
X151594238Y-137983333D01*
X151499000Y-138078571D01*
X151451380Y-138221428D01*
X151451380Y-138316666D01*
X151499000Y-138459523D01*
X151546619Y-138507142D01*
X151546619Y-138888095D02*
X151499000Y-138935714D01*
X151451380Y-139030952D01*
X151451380Y-139269047D01*
X151499000Y-139364285D01*
X151546619Y-139411904D01*
X151641857Y-139459523D01*
X151737095Y-139459523D01*
X151879952Y-139411904D01*
X152451380Y-138840476D01*
X152451380Y-139459523D01*
X151451380Y-139792857D02*
X151451380Y-140459523D01*
X152451380Y-140030952D01*
%TO.C,C26*%
X154206142Y-138507142D02*
X154253761Y-138459523D01*
X154301380Y-138316666D01*
X154301380Y-138221428D01*
X154253761Y-138078571D01*
X154158523Y-137983333D01*
X154063285Y-137935714D01*
X153872809Y-137888095D01*
X153729952Y-137888095D01*
X153539476Y-137935714D01*
X153444238Y-137983333D01*
X153349000Y-138078571D01*
X153301380Y-138221428D01*
X153301380Y-138316666D01*
X153349000Y-138459523D01*
X153396619Y-138507142D01*
X153396619Y-138888095D02*
X153349000Y-138935714D01*
X153301380Y-139030952D01*
X153301380Y-139269047D01*
X153349000Y-139364285D01*
X153396619Y-139411904D01*
X153491857Y-139459523D01*
X153587095Y-139459523D01*
X153729952Y-139411904D01*
X154301380Y-138840476D01*
X154301380Y-139459523D01*
X153301380Y-140316666D02*
X153301380Y-140126190D01*
X153349000Y-140030952D01*
X153396619Y-139983333D01*
X153539476Y-139888095D01*
X153729952Y-139840476D01*
X154110904Y-139840476D01*
X154206142Y-139888095D01*
X154253761Y-139935714D01*
X154301380Y-140030952D01*
X154301380Y-140221428D01*
X154253761Y-140316666D01*
X154206142Y-140364285D01*
X154110904Y-140411904D01*
X153872809Y-140411904D01*
X153777571Y-140364285D01*
X153729952Y-140316666D01*
X153682333Y-140221428D01*
X153682333Y-140030952D01*
X153729952Y-139935714D01*
X153777571Y-139888095D01*
X153872809Y-139840476D01*
%TO.C,C25*%
X165041857Y-135557142D02*
X165089476Y-135604761D01*
X165232333Y-135652380D01*
X165327571Y-135652380D01*
X165470428Y-135604761D01*
X165565666Y-135509523D01*
X165613285Y-135414285D01*
X165660904Y-135223809D01*
X165660904Y-135080952D01*
X165613285Y-134890476D01*
X165565666Y-134795238D01*
X165470428Y-134700000D01*
X165327571Y-134652380D01*
X165232333Y-134652380D01*
X165089476Y-134700000D01*
X165041857Y-134747619D01*
X164660904Y-134747619D02*
X164613285Y-134700000D01*
X164518047Y-134652380D01*
X164279952Y-134652380D01*
X164184714Y-134700000D01*
X164137095Y-134747619D01*
X164089476Y-134842857D01*
X164089476Y-134938095D01*
X164137095Y-135080952D01*
X164708523Y-135652380D01*
X164089476Y-135652380D01*
X163184714Y-134652380D02*
X163660904Y-134652380D01*
X163708523Y-135128571D01*
X163660904Y-135080952D01*
X163565666Y-135033333D01*
X163327571Y-135033333D01*
X163232333Y-135080952D01*
X163184714Y-135128571D01*
X163137095Y-135223809D01*
X163137095Y-135461904D01*
X163184714Y-135557142D01*
X163232333Y-135604761D01*
X163327571Y-135652380D01*
X163565666Y-135652380D01*
X163660904Y-135604761D01*
X163708523Y-135557142D01*
%TO.C,C24*%
X165041857Y-132157142D02*
X165089476Y-132204761D01*
X165232333Y-132252380D01*
X165327571Y-132252380D01*
X165470428Y-132204761D01*
X165565666Y-132109523D01*
X165613285Y-132014285D01*
X165660904Y-131823809D01*
X165660904Y-131680952D01*
X165613285Y-131490476D01*
X165565666Y-131395238D01*
X165470428Y-131300000D01*
X165327571Y-131252380D01*
X165232333Y-131252380D01*
X165089476Y-131300000D01*
X165041857Y-131347619D01*
X164660904Y-131347619D02*
X164613285Y-131300000D01*
X164518047Y-131252380D01*
X164279952Y-131252380D01*
X164184714Y-131300000D01*
X164137095Y-131347619D01*
X164089476Y-131442857D01*
X164089476Y-131538095D01*
X164137095Y-131680952D01*
X164708523Y-132252380D01*
X164089476Y-132252380D01*
X163232333Y-131585714D02*
X163232333Y-132252380D01*
X163470428Y-131204761D02*
X163708523Y-131919047D01*
X163089476Y-131919047D01*
%TO.C,C23*%
X136191857Y-145557142D02*
X136239476Y-145604761D01*
X136382333Y-145652380D01*
X136477571Y-145652380D01*
X136620428Y-145604761D01*
X136715666Y-145509523D01*
X136763285Y-145414285D01*
X136810904Y-145223809D01*
X136810904Y-145080952D01*
X136763285Y-144890476D01*
X136715666Y-144795238D01*
X136620428Y-144700000D01*
X136477571Y-144652380D01*
X136382333Y-144652380D01*
X136239476Y-144700000D01*
X136191857Y-144747619D01*
X135810904Y-144747619D02*
X135763285Y-144700000D01*
X135668047Y-144652380D01*
X135429952Y-144652380D01*
X135334714Y-144700000D01*
X135287095Y-144747619D01*
X135239476Y-144842857D01*
X135239476Y-144938095D01*
X135287095Y-145080952D01*
X135858523Y-145652380D01*
X135239476Y-145652380D01*
X134906142Y-144652380D02*
X134287095Y-144652380D01*
X134620428Y-145033333D01*
X134477571Y-145033333D01*
X134382333Y-145080952D01*
X134334714Y-145128571D01*
X134287095Y-145223809D01*
X134287095Y-145461904D01*
X134334714Y-145557142D01*
X134382333Y-145604761D01*
X134477571Y-145652380D01*
X134763285Y-145652380D01*
X134858523Y-145604761D01*
X134906142Y-145557142D01*
%TO.C,C22*%
X162041857Y-128057142D02*
X162089476Y-128104761D01*
X162232333Y-128152380D01*
X162327571Y-128152380D01*
X162470428Y-128104761D01*
X162565666Y-128009523D01*
X162613285Y-127914285D01*
X162660904Y-127723809D01*
X162660904Y-127580952D01*
X162613285Y-127390476D01*
X162565666Y-127295238D01*
X162470428Y-127200000D01*
X162327571Y-127152380D01*
X162232333Y-127152380D01*
X162089476Y-127200000D01*
X162041857Y-127247619D01*
X161660904Y-127247619D02*
X161613285Y-127200000D01*
X161518047Y-127152380D01*
X161279952Y-127152380D01*
X161184714Y-127200000D01*
X161137095Y-127247619D01*
X161089476Y-127342857D01*
X161089476Y-127438095D01*
X161137095Y-127580952D01*
X161708523Y-128152380D01*
X161089476Y-128152380D01*
X160708523Y-127247619D02*
X160660904Y-127200000D01*
X160565666Y-127152380D01*
X160327571Y-127152380D01*
X160232333Y-127200000D01*
X160184714Y-127247619D01*
X160137095Y-127342857D01*
X160137095Y-127438095D01*
X160184714Y-127580952D01*
X160756142Y-128152380D01*
X160137095Y-128152380D01*
%TO.C,C21*%
X161891857Y-125857142D02*
X161939476Y-125904761D01*
X162082333Y-125952380D01*
X162177571Y-125952380D01*
X162320428Y-125904761D01*
X162415666Y-125809523D01*
X162463285Y-125714285D01*
X162510904Y-125523809D01*
X162510904Y-125380952D01*
X162463285Y-125190476D01*
X162415666Y-125095238D01*
X162320428Y-125000000D01*
X162177571Y-124952380D01*
X162082333Y-124952380D01*
X161939476Y-125000000D01*
X161891857Y-125047619D01*
X161510904Y-125047619D02*
X161463285Y-125000000D01*
X161368047Y-124952380D01*
X161129952Y-124952380D01*
X161034714Y-125000000D01*
X160987095Y-125047619D01*
X160939476Y-125142857D01*
X160939476Y-125238095D01*
X160987095Y-125380952D01*
X161558523Y-125952380D01*
X160939476Y-125952380D01*
X159987095Y-125952380D02*
X160558523Y-125952380D01*
X160272809Y-125952380D02*
X160272809Y-124952380D01*
X160368047Y-125095238D01*
X160463285Y-125190476D01*
X160558523Y-125238095D01*
%TO.C,C20*%
X143741857Y-132057142D02*
X143789476Y-132104761D01*
X143932333Y-132152380D01*
X144027571Y-132152380D01*
X144170428Y-132104761D01*
X144265666Y-132009523D01*
X144313285Y-131914285D01*
X144360904Y-131723809D01*
X144360904Y-131580952D01*
X144313285Y-131390476D01*
X144265666Y-131295238D01*
X144170428Y-131200000D01*
X144027571Y-131152380D01*
X143932333Y-131152380D01*
X143789476Y-131200000D01*
X143741857Y-131247619D01*
X143360904Y-131247619D02*
X143313285Y-131200000D01*
X143218047Y-131152380D01*
X142979952Y-131152380D01*
X142884714Y-131200000D01*
X142837095Y-131247619D01*
X142789476Y-131342857D01*
X142789476Y-131438095D01*
X142837095Y-131580952D01*
X143408523Y-132152380D01*
X142789476Y-132152380D01*
X142170428Y-131152380D02*
X142075190Y-131152380D01*
X141979952Y-131200000D01*
X141932333Y-131247619D01*
X141884714Y-131342857D01*
X141837095Y-131533333D01*
X141837095Y-131771428D01*
X141884714Y-131961904D01*
X141932333Y-132057142D01*
X141979952Y-132104761D01*
X142075190Y-132152380D01*
X142170428Y-132152380D01*
X142265666Y-132104761D01*
X142313285Y-132057142D01*
X142360904Y-131961904D01*
X142408523Y-131771428D01*
X142408523Y-131533333D01*
X142360904Y-131342857D01*
X142313285Y-131247619D01*
X142265666Y-131200000D01*
X142170428Y-131152380D01*
%TO.C,C19*%
X143541857Y-136357142D02*
X143589476Y-136404761D01*
X143732333Y-136452380D01*
X143827571Y-136452380D01*
X143970428Y-136404761D01*
X144065666Y-136309523D01*
X144113285Y-136214285D01*
X144160904Y-136023809D01*
X144160904Y-135880952D01*
X144113285Y-135690476D01*
X144065666Y-135595238D01*
X143970428Y-135500000D01*
X143827571Y-135452380D01*
X143732333Y-135452380D01*
X143589476Y-135500000D01*
X143541857Y-135547619D01*
X142589476Y-136452380D02*
X143160904Y-136452380D01*
X142875190Y-136452380D02*
X142875190Y-135452380D01*
X142970428Y-135595238D01*
X143065666Y-135690476D01*
X143160904Y-135738095D01*
X142113285Y-136452380D02*
X141922809Y-136452380D01*
X141827571Y-136404761D01*
X141779952Y-136357142D01*
X141684714Y-136214285D01*
X141637095Y-136023809D01*
X141637095Y-135642857D01*
X141684714Y-135547619D01*
X141732333Y-135500000D01*
X141827571Y-135452380D01*
X142018047Y-135452380D01*
X142113285Y-135500000D01*
X142160904Y-135547619D01*
X142208523Y-135642857D01*
X142208523Y-135880952D01*
X142160904Y-135976190D01*
X142113285Y-136023809D01*
X142018047Y-136071428D01*
X141827571Y-136071428D01*
X141732333Y-136023809D01*
X141684714Y-135976190D01*
X141637095Y-135880952D01*
%TO.C,C14*%
X175756142Y-97407142D02*
X175803761Y-97359523D01*
X175851380Y-97216666D01*
X175851380Y-97121428D01*
X175803761Y-96978571D01*
X175708523Y-96883333D01*
X175613285Y-96835714D01*
X175422809Y-96788095D01*
X175279952Y-96788095D01*
X175089476Y-96835714D01*
X174994238Y-96883333D01*
X174899000Y-96978571D01*
X174851380Y-97121428D01*
X174851380Y-97216666D01*
X174899000Y-97359523D01*
X174946619Y-97407142D01*
X175851380Y-98359523D02*
X175851380Y-97788095D01*
X175851380Y-98073809D02*
X174851380Y-98073809D01*
X174994238Y-97978571D01*
X175089476Y-97883333D01*
X175137095Y-97788095D01*
X175184714Y-99216666D02*
X175851380Y-99216666D01*
X174803761Y-98978571D02*
X175518047Y-98740476D01*
X175518047Y-99359523D01*
%TO.C,C10*%
X164256142Y-97557142D02*
X164303761Y-97509523D01*
X164351380Y-97366666D01*
X164351380Y-97271428D01*
X164303761Y-97128571D01*
X164208523Y-97033333D01*
X164113285Y-96985714D01*
X163922809Y-96938095D01*
X163779952Y-96938095D01*
X163589476Y-96985714D01*
X163494238Y-97033333D01*
X163399000Y-97128571D01*
X163351380Y-97271428D01*
X163351380Y-97366666D01*
X163399000Y-97509523D01*
X163446619Y-97557142D01*
X164351380Y-98509523D02*
X164351380Y-97938095D01*
X164351380Y-98223809D02*
X163351380Y-98223809D01*
X163494238Y-98128571D01*
X163589476Y-98033333D01*
X163637095Y-97938095D01*
X163351380Y-99128571D02*
X163351380Y-99223809D01*
X163399000Y-99319047D01*
X163446619Y-99366666D01*
X163541857Y-99414285D01*
X163732333Y-99461904D01*
X163970428Y-99461904D01*
X164160904Y-99414285D01*
X164256142Y-99366666D01*
X164303761Y-99319047D01*
X164351380Y-99223809D01*
X164351380Y-99128571D01*
X164303761Y-99033333D01*
X164256142Y-98985714D01*
X164160904Y-98938095D01*
X163970428Y-98890476D01*
X163732333Y-98890476D01*
X163541857Y-98938095D01*
X163446619Y-98985714D01*
X163399000Y-99033333D01*
X163351380Y-99128571D01*
%TO.C,C5*%
X147665666Y-157207142D02*
X147713285Y-157254761D01*
X147856142Y-157302380D01*
X147951380Y-157302380D01*
X148094238Y-157254761D01*
X148189476Y-157159523D01*
X148237095Y-157064285D01*
X148284714Y-156873809D01*
X148284714Y-156730952D01*
X148237095Y-156540476D01*
X148189476Y-156445238D01*
X148094238Y-156350000D01*
X147951380Y-156302380D01*
X147856142Y-156302380D01*
X147713285Y-156350000D01*
X147665666Y-156397619D01*
X146760904Y-156302380D02*
X147237095Y-156302380D01*
X147284714Y-156778571D01*
X147237095Y-156730952D01*
X147141857Y-156683333D01*
X146903761Y-156683333D01*
X146808523Y-156730952D01*
X146760904Y-156778571D01*
X146713285Y-156873809D01*
X146713285Y-157111904D01*
X146760904Y-157207142D01*
X146808523Y-157254761D01*
X146903761Y-157302380D01*
X147141857Y-157302380D01*
X147237095Y-157254761D01*
X147284714Y-157207142D01*
%TO.C,C6*%
X158356142Y-98433333D02*
X158403761Y-98385714D01*
X158451380Y-98242857D01*
X158451380Y-98147619D01*
X158403761Y-98004761D01*
X158308523Y-97909523D01*
X158213285Y-97861904D01*
X158022809Y-97814285D01*
X157879952Y-97814285D01*
X157689476Y-97861904D01*
X157594238Y-97909523D01*
X157499000Y-98004761D01*
X157451380Y-98147619D01*
X157451380Y-98242857D01*
X157499000Y-98385714D01*
X157546619Y-98433333D01*
X157451380Y-99290476D02*
X157451380Y-99100000D01*
X157499000Y-99004761D01*
X157546619Y-98957142D01*
X157689476Y-98861904D01*
X157879952Y-98814285D01*
X158260904Y-98814285D01*
X158356142Y-98861904D01*
X158403761Y-98909523D01*
X158451380Y-99004761D01*
X158451380Y-99195238D01*
X158403761Y-99290476D01*
X158356142Y-99338095D01*
X158260904Y-99385714D01*
X158022809Y-99385714D01*
X157927571Y-99338095D01*
X157879952Y-99290476D01*
X157832333Y-99195238D01*
X157832333Y-99004761D01*
X157879952Y-98909523D01*
X157927571Y-98861904D01*
X158022809Y-98814285D01*
%TO.C,C15*%
X131641857Y-153157142D02*
X131689476Y-153204761D01*
X131832333Y-153252380D01*
X131927571Y-153252380D01*
X132070428Y-153204761D01*
X132165666Y-153109523D01*
X132213285Y-153014285D01*
X132260904Y-152823809D01*
X132260904Y-152680952D01*
X132213285Y-152490476D01*
X132165666Y-152395238D01*
X132070428Y-152300000D01*
X131927571Y-152252380D01*
X131832333Y-152252380D01*
X131689476Y-152300000D01*
X131641857Y-152347619D01*
X130689476Y-153252380D02*
X131260904Y-153252380D01*
X130975190Y-153252380D02*
X130975190Y-152252380D01*
X131070428Y-152395238D01*
X131165666Y-152490476D01*
X131260904Y-152538095D01*
X129784714Y-152252380D02*
X130260904Y-152252380D01*
X130308523Y-152728571D01*
X130260904Y-152680952D01*
X130165666Y-152633333D01*
X129927571Y-152633333D01*
X129832333Y-152680952D01*
X129784714Y-152728571D01*
X129737095Y-152823809D01*
X129737095Y-153061904D01*
X129784714Y-153157142D01*
X129832333Y-153204761D01*
X129927571Y-153252380D01*
X130165666Y-153252380D01*
X130260904Y-153204761D01*
X130308523Y-153157142D01*
%TO.C,U3*%
X154430904Y-92032380D02*
X154430904Y-92841904D01*
X154383285Y-92937142D01*
X154335666Y-92984761D01*
X154240428Y-93032380D01*
X154049952Y-93032380D01*
X153954714Y-92984761D01*
X153907095Y-92937142D01*
X153859476Y-92841904D01*
X153859476Y-92032380D01*
X153478523Y-92032380D02*
X152859476Y-92032380D01*
X153192809Y-92413333D01*
X153049952Y-92413333D01*
X152954714Y-92460952D01*
X152907095Y-92508571D01*
X152859476Y-92603809D01*
X152859476Y-92841904D01*
X152907095Y-92937142D01*
X152954714Y-92984761D01*
X153049952Y-93032380D01*
X153335666Y-93032380D01*
X153430904Y-92984761D01*
X153478523Y-92937142D01*
X151916200Y-95742632D02*
X151916200Y-95980728D01*
X152154295Y-95885490D02*
X151916200Y-95980728D01*
X151678104Y-95885490D01*
X152059057Y-96171204D02*
X151916200Y-95980728D01*
X151773342Y-96171204D01*
X151916200Y-95742632D02*
X151916200Y-95980728D01*
X152154295Y-95885490D02*
X151916200Y-95980728D01*
X151678104Y-95885490D01*
X152059057Y-96171204D02*
X151916200Y-95980728D01*
X151773342Y-96171204D01*
%TO.C,J5*%
X154502333Y-158112380D02*
X154502333Y-158826666D01*
X154549952Y-158969523D01*
X154645190Y-159064761D01*
X154788047Y-159112380D01*
X154883285Y-159112380D01*
X153549952Y-158112380D02*
X154026142Y-158112380D01*
X154073761Y-158588571D01*
X154026142Y-158540952D01*
X153930904Y-158493333D01*
X153692809Y-158493333D01*
X153597571Y-158540952D01*
X153549952Y-158588571D01*
X153502333Y-158683809D01*
X153502333Y-158921904D01*
X153549952Y-159017142D01*
X153597571Y-159064761D01*
X153692809Y-159112380D01*
X153930904Y-159112380D01*
X154026142Y-159064761D01*
X154073761Y-159017142D01*
%TO.C,R7*%
X153165666Y-147902380D02*
X153499000Y-147426190D01*
X153737095Y-147902380D02*
X153737095Y-146902380D01*
X153356142Y-146902380D01*
X153260904Y-146950000D01*
X153213285Y-146997619D01*
X153165666Y-147092857D01*
X153165666Y-147235714D01*
X153213285Y-147330952D01*
X153260904Y-147378571D01*
X153356142Y-147426190D01*
X153737095Y-147426190D01*
X152832333Y-146902380D02*
X152165666Y-146902380D01*
X152594238Y-147902380D01*
%TO.C,R3*%
X155315666Y-147852380D02*
X155649000Y-147376190D01*
X155887095Y-147852380D02*
X155887095Y-146852380D01*
X155506142Y-146852380D01*
X155410904Y-146900000D01*
X155363285Y-146947619D01*
X155315666Y-147042857D01*
X155315666Y-147185714D01*
X155363285Y-147280952D01*
X155410904Y-147328571D01*
X155506142Y-147376190D01*
X155887095Y-147376190D01*
X154982333Y-146852380D02*
X154363285Y-146852380D01*
X154696619Y-147233333D01*
X154553761Y-147233333D01*
X154458523Y-147280952D01*
X154410904Y-147328571D01*
X154363285Y-147423809D01*
X154363285Y-147661904D01*
X154410904Y-147757142D01*
X154458523Y-147804761D01*
X154553761Y-147852380D01*
X154839476Y-147852380D01*
X154934714Y-147804761D01*
X154982333Y-147757142D01*
%TO.C,R2*%
X150715666Y-147852380D02*
X151049000Y-147376190D01*
X151287095Y-147852380D02*
X151287095Y-146852380D01*
X150906142Y-146852380D01*
X150810904Y-146900000D01*
X150763285Y-146947619D01*
X150715666Y-147042857D01*
X150715666Y-147185714D01*
X150763285Y-147280952D01*
X150810904Y-147328571D01*
X150906142Y-147376190D01*
X151287095Y-147376190D01*
X150334714Y-146947619D02*
X150287095Y-146900000D01*
X150191857Y-146852380D01*
X149953761Y-146852380D01*
X149858523Y-146900000D01*
X149810904Y-146947619D01*
X149763285Y-147042857D01*
X149763285Y-147138095D01*
X149810904Y-147280952D01*
X150382333Y-147852380D01*
X149763285Y-147852380D01*
%TO.C,R1*%
X157565666Y-147852380D02*
X157899000Y-147376190D01*
X158137095Y-147852380D02*
X158137095Y-146852380D01*
X157756142Y-146852380D01*
X157660904Y-146900000D01*
X157613285Y-146947619D01*
X157565666Y-147042857D01*
X157565666Y-147185714D01*
X157613285Y-147280952D01*
X157660904Y-147328571D01*
X157756142Y-147376190D01*
X158137095Y-147376190D01*
X156613285Y-147852380D02*
X157184714Y-147852380D01*
X156899000Y-147852380D02*
X156899000Y-146852380D01*
X156994238Y-146995238D01*
X157089476Y-147090476D01*
X157184714Y-147138095D01*
%TO.C,C4*%
X159556142Y-95383333D02*
X159603761Y-95335714D01*
X159651380Y-95192857D01*
X159651380Y-95097619D01*
X159603761Y-94954761D01*
X159508523Y-94859523D01*
X159413285Y-94811904D01*
X159222809Y-94764285D01*
X159079952Y-94764285D01*
X158889476Y-94811904D01*
X158794238Y-94859523D01*
X158699000Y-94954761D01*
X158651380Y-95097619D01*
X158651380Y-95192857D01*
X158699000Y-95335714D01*
X158746619Y-95383333D01*
X158984714Y-96240476D02*
X159651380Y-96240476D01*
X158603761Y-96002380D02*
X159318047Y-95764285D01*
X159318047Y-96383333D01*
%TO.C,C2*%
X148606142Y-95333333D02*
X148653761Y-95285714D01*
X148701380Y-95142857D01*
X148701380Y-95047619D01*
X148653761Y-94904761D01*
X148558523Y-94809523D01*
X148463285Y-94761904D01*
X148272809Y-94714285D01*
X148129952Y-94714285D01*
X147939476Y-94761904D01*
X147844238Y-94809523D01*
X147749000Y-94904761D01*
X147701380Y-95047619D01*
X147701380Y-95142857D01*
X147749000Y-95285714D01*
X147796619Y-95333333D01*
X147796619Y-95714285D02*
X147749000Y-95761904D01*
X147701380Y-95857142D01*
X147701380Y-96095238D01*
X147749000Y-96190476D01*
X147796619Y-96238095D01*
X147891857Y-96285714D01*
X147987095Y-96285714D01*
X148129952Y-96238095D01*
X148701380Y-95666666D01*
X148701380Y-96285714D01*
%TO.C,R6*%
X145505782Y-60564286D02*
X145839116Y-60088096D01*
X146077211Y-60564286D02*
X146077211Y-59564286D01*
X145696258Y-59564286D01*
X145601020Y-59611906D01*
X145553401Y-59659525D01*
X145505782Y-59754763D01*
X145505782Y-59897620D01*
X145553401Y-59992858D01*
X145601020Y-60040477D01*
X145696258Y-60088096D01*
X146077211Y-60088096D01*
X144648639Y-59564286D02*
X144839116Y-59564286D01*
X144934354Y-59611906D01*
X144981973Y-59659525D01*
X145077211Y-59802382D01*
X145124830Y-59992858D01*
X145124830Y-60373810D01*
X145077211Y-60469048D01*
X145029592Y-60516667D01*
X144934354Y-60564286D01*
X144743877Y-60564286D01*
X144648639Y-60516667D01*
X144601020Y-60469048D01*
X144553401Y-60373810D01*
X144553401Y-60135715D01*
X144601020Y-60040477D01*
X144648639Y-59992858D01*
X144743877Y-59945239D01*
X144934354Y-59945239D01*
X145029592Y-59992858D01*
X145077211Y-60040477D01*
X145124830Y-60135715D01*
%TD*%
M02*
