%TF.GenerationSoftware,KiCad,Pcbnew,(5.1.9-0-10_14)*%
%TF.CreationDate,2021-02-02T08:17:03-08:00*%
%TF.ProjectId,integrator,696e7465-6772-4617-946f-722e6b696361,rev?*%
%TF.SameCoordinates,Original*%
%TF.FileFunction,Profile,NP*%
%FSLAX46Y46*%
G04 Gerber Fmt 4.6, Leading zero omitted, Abs format (unit mm)*
G04 Created by KiCad (PCBNEW (5.1.9-0-10_14)) date 2021-02-02 08:17:03*
%MOMM*%
%LPD*%
G01*
G04 APERTURE LIST*
%TA.AperFunction,Profile*%
%ADD10C,0.038100*%
%TD*%
G04 APERTURE END LIST*
D10*
X206000000Y-95000000D02*
X206000000Y-25000000D01*
X199000000Y-50000000D02*
X199000000Y-72000000D01*
X154000000Y-49000000D02*
X198000000Y-49000000D01*
X153000000Y-72000000D02*
X153000000Y-50000000D01*
X198000000Y-73000000D02*
X154000000Y-73000000D01*
X186000000Y-35000000D02*
X186000000Y-25000000D01*
X167000000Y-36000000D02*
X185000000Y-36000000D01*
X166000000Y-25000000D02*
X166000000Y-35000000D01*
X147000000Y-24000000D02*
X165000000Y-24000000D01*
X146000000Y-95000000D02*
X146000000Y-25000000D01*
X205000000Y-96000000D02*
X147000000Y-96000000D01*
X205000000Y-96000000D02*
G75*
G03*
X206000000Y-95000000I0J1000000D01*
G01*
X146000000Y-95000000D02*
G75*
G03*
X147000000Y-96000000I1000000J0D01*
G01*
X199000000Y-50000000D02*
G75*
G03*
X198000000Y-49000000I-1000000J0D01*
G01*
X198000000Y-73000000D02*
G75*
G03*
X199000000Y-72000000I0J1000000D01*
G01*
X153000000Y-72000000D02*
G75*
G03*
X154000000Y-73000000I1000000J0D01*
G01*
X154000000Y-49000000D02*
G75*
G03*
X153000000Y-50000000I0J-1000000D01*
G01*
X147000000Y-24000000D02*
G75*
G03*
X146000000Y-25000000I0J-1000000D01*
G01*
X166000000Y-25000000D02*
G75*
G03*
X165000000Y-24000000I-1000000J0D01*
G01*
X166000000Y-35000000D02*
G75*
G03*
X167000000Y-36000000I1000000J0D01*
G01*
X185000000Y-36000000D02*
G75*
G03*
X186000000Y-35000000I0J1000000D01*
G01*
X187000000Y-24000000D02*
X205000000Y-24000000D01*
X206000000Y-25000000D02*
G75*
G03*
X205000000Y-24000000I-1000000J0D01*
G01*
X187000000Y-24000000D02*
G75*
G03*
X186000000Y-25000000I0J-1000000D01*
G01*
M02*
