%TF.GenerationSoftware,KiCad,Pcbnew,(5.1.9-0-10_14)*%
%TF.CreationDate,2021-02-02T08:17:03-08:00*%
%TF.ProjectId,integrator,696e7465-6772-4617-946f-722e6b696361,rev?*%
%TF.SameCoordinates,Original*%
%TF.FileFunction,Soldermask,Top*%
%TF.FilePolarity,Negative*%
%FSLAX46Y46*%
G04 Gerber Fmt 4.6, Leading zero omitted, Abs format (unit mm)*
G04 Created by KiCad (PCBNEW (5.1.9-0-10_14)) date 2021-02-02 08:17:03*
%MOMM*%
%LPD*%
G01*
G04 APERTURE LIST*
%ADD10R,1.050000X1.450000*%
%ADD11C,1.700000*%
%ADD12R,2.800000X2.800000*%
%ADD13R,2.200000X2.800000*%
%ADD14R,2.600000X2.800000*%
%ADD15C,1.600000*%
%ADD16R,1.600000X1.600000*%
%ADD17C,1.900000*%
%ADD18R,0.300000X0.800000*%
%ADD19R,0.800000X0.300000*%
%ADD20R,1.700000X1.700000*%
%ADD21O,1.700000X1.700000*%
G04 APERTURE END LIST*
D10*
%TO.C,SW1*%
X205231000Y-63725000D03*
X205231000Y-68275000D03*
%TD*%
%TO.C,SW2*%
X146813000Y-68467400D03*
X146813000Y-63917400D03*
%TD*%
%TO.C,LED1*%
G36*
G01*
X163993750Y-34387500D02*
X164506250Y-34387500D01*
G75*
G02*
X164725000Y-34606250I0J-218750D01*
G01*
X164725000Y-35043750D01*
G75*
G02*
X164506250Y-35262500I-218750J0D01*
G01*
X163993750Y-35262500D01*
G75*
G02*
X163775000Y-35043750I0J218750D01*
G01*
X163775000Y-34606250D01*
G75*
G02*
X163993750Y-34387500I218750J0D01*
G01*
G37*
G36*
G01*
X163993750Y-32812500D02*
X164506250Y-32812500D01*
G75*
G02*
X164725000Y-33031250I0J-218750D01*
G01*
X164725000Y-33468750D01*
G75*
G02*
X164506250Y-33687500I-218750J0D01*
G01*
X163993750Y-33687500D01*
G75*
G02*
X163775000Y-33468750I0J218750D01*
G01*
X163775000Y-33031250D01*
G75*
G02*
X163993750Y-32812500I218750J0D01*
G01*
G37*
%TD*%
%TO.C,LED2*%
G36*
G01*
X187493750Y-34387500D02*
X188006250Y-34387500D01*
G75*
G02*
X188225000Y-34606250I0J-218750D01*
G01*
X188225000Y-35043750D01*
G75*
G02*
X188006250Y-35262500I-218750J0D01*
G01*
X187493750Y-35262500D01*
G75*
G02*
X187275000Y-35043750I0J218750D01*
G01*
X187275000Y-34606250D01*
G75*
G02*
X187493750Y-34387500I218750J0D01*
G01*
G37*
G36*
G01*
X187493750Y-32812500D02*
X188006250Y-32812500D01*
G75*
G02*
X188225000Y-33031250I0J-218750D01*
G01*
X188225000Y-33468750D01*
G75*
G02*
X188006250Y-33687500I-218750J0D01*
G01*
X187493750Y-33687500D01*
G75*
G02*
X187275000Y-33468750I0J218750D01*
G01*
X187275000Y-33031250D01*
G75*
G02*
X187493750Y-32812500I218750J0D01*
G01*
G37*
%TD*%
%TO.C,C1*%
G36*
G01*
X149565000Y-83655000D02*
X150065000Y-83655000D01*
G75*
G02*
X150290000Y-83880000I0J-225000D01*
G01*
X150290000Y-84330000D01*
G75*
G02*
X150065000Y-84555000I-225000J0D01*
G01*
X149565000Y-84555000D01*
G75*
G02*
X149340000Y-84330000I0J225000D01*
G01*
X149340000Y-83880000D01*
G75*
G02*
X149565000Y-83655000I225000J0D01*
G01*
G37*
G36*
G01*
X149565000Y-82105000D02*
X150065000Y-82105000D01*
G75*
G02*
X150290000Y-82330000I0J-225000D01*
G01*
X150290000Y-82780000D01*
G75*
G02*
X150065000Y-83005000I-225000J0D01*
G01*
X149565000Y-83005000D01*
G75*
G02*
X149340000Y-82780000I0J225000D01*
G01*
X149340000Y-82330000D01*
G75*
G02*
X149565000Y-82105000I225000J0D01*
G01*
G37*
%TD*%
%TO.C,C2*%
G36*
G01*
X151765000Y-86755000D02*
X151765000Y-86255000D01*
G75*
G02*
X151990000Y-86030000I225000J0D01*
G01*
X152440000Y-86030000D01*
G75*
G02*
X152665000Y-86255000I0J-225000D01*
G01*
X152665000Y-86755000D01*
G75*
G02*
X152440000Y-86980000I-225000J0D01*
G01*
X151990000Y-86980000D01*
G75*
G02*
X151765000Y-86755000I0J225000D01*
G01*
G37*
G36*
G01*
X153315000Y-86755000D02*
X153315000Y-86255000D01*
G75*
G02*
X153540000Y-86030000I225000J0D01*
G01*
X153990000Y-86030000D01*
G75*
G02*
X154215000Y-86255000I0J-225000D01*
G01*
X154215000Y-86755000D01*
G75*
G02*
X153990000Y-86980000I-225000J0D01*
G01*
X153540000Y-86980000D01*
G75*
G02*
X153315000Y-86755000I0J225000D01*
G01*
G37*
%TD*%
%TO.C,C3*%
G36*
G01*
X155915000Y-83655000D02*
X156415000Y-83655000D01*
G75*
G02*
X156640000Y-83880000I0J-225000D01*
G01*
X156640000Y-84330000D01*
G75*
G02*
X156415000Y-84555000I-225000J0D01*
G01*
X155915000Y-84555000D01*
G75*
G02*
X155690000Y-84330000I0J225000D01*
G01*
X155690000Y-83880000D01*
G75*
G02*
X155915000Y-83655000I225000J0D01*
G01*
G37*
G36*
G01*
X155915000Y-82105000D02*
X156415000Y-82105000D01*
G75*
G02*
X156640000Y-82330000I0J-225000D01*
G01*
X156640000Y-82780000D01*
G75*
G02*
X156415000Y-83005000I-225000J0D01*
G01*
X155915000Y-83005000D01*
G75*
G02*
X155690000Y-82780000I0J225000D01*
G01*
X155690000Y-82330000D01*
G75*
G02*
X155915000Y-82105000I225000J0D01*
G01*
G37*
%TD*%
D11*
%TO.C,J1*%
X159000000Y-30000000D03*
D12*
X160300000Y-33700000D03*
D13*
X150900000Y-33700000D03*
X152900000Y-26300000D03*
D11*
X152000000Y-30000000D03*
D14*
X164300000Y-29250000D03*
%TD*%
%TO.C,J2*%
X187700000Y-30750000D03*
D11*
X200000000Y-30000000D03*
D13*
X199100000Y-33700000D03*
X201100000Y-26300000D03*
D12*
X191700000Y-26300000D03*
D11*
X193000000Y-30000000D03*
%TD*%
%TO.C,R1*%
G36*
G01*
X175225000Y-36700000D02*
X175775000Y-36700000D01*
G75*
G02*
X175975000Y-36900000I0J-200000D01*
G01*
X175975000Y-37300000D01*
G75*
G02*
X175775000Y-37500000I-200000J0D01*
G01*
X175225000Y-37500000D01*
G75*
G02*
X175025000Y-37300000I0J200000D01*
G01*
X175025000Y-36900000D01*
G75*
G02*
X175225000Y-36700000I200000J0D01*
G01*
G37*
G36*
G01*
X175225000Y-38350000D02*
X175775000Y-38350000D01*
G75*
G02*
X175975000Y-38550000I0J-200000D01*
G01*
X175975000Y-38950000D01*
G75*
G02*
X175775000Y-39150000I-200000J0D01*
G01*
X175225000Y-39150000D01*
G75*
G02*
X175025000Y-38950000I0J200000D01*
G01*
X175025000Y-38550000D01*
G75*
G02*
X175225000Y-38350000I200000J0D01*
G01*
G37*
%TD*%
D15*
%TO.C,U1*%
X161490000Y-84000000D03*
X161490000Y-86540000D03*
X161490000Y-89080000D03*
X161490000Y-91620000D03*
X161490000Y-81460000D03*
X161490000Y-78920000D03*
X161490000Y-76380000D03*
X164030000Y-91620000D03*
X166570000Y-91620000D03*
X169110000Y-91620000D03*
X171650000Y-91620000D03*
X174190000Y-91620000D03*
X176730000Y-91620000D03*
X179270000Y-91620000D03*
X181810000Y-91620000D03*
X184350000Y-91620000D03*
X186890000Y-91620000D03*
X189430000Y-91620000D03*
X191970000Y-91620000D03*
X194510000Y-91620000D03*
X191970000Y-89080000D03*
X186890000Y-89080000D03*
X184350000Y-89080000D03*
X181810000Y-89080000D03*
X164030000Y-76380000D03*
X166570000Y-76380000D03*
X169110000Y-76380000D03*
X171650000Y-76380000D03*
X174190000Y-76380000D03*
X176730000Y-76380000D03*
X179270000Y-76380000D03*
X181810000Y-76380000D03*
X184350000Y-76380000D03*
X186890000Y-76380000D03*
X189430000Y-76380000D03*
X191970000Y-76380000D03*
D16*
X194510000Y-76380000D03*
D17*
X184350000Y-84000000D03*
X188160000Y-84000000D03*
%TD*%
D18*
%TO.C,U2*%
X151990000Y-84610000D03*
X152490000Y-84610000D03*
X152990000Y-84610000D03*
X153490000Y-84610000D03*
X153990000Y-84610000D03*
D19*
X154270000Y-83830000D03*
X154270000Y-83330000D03*
X154270000Y-82830000D03*
D18*
X153990000Y-82050000D03*
X153490000Y-82050000D03*
X152990000Y-82050000D03*
X152490000Y-82050000D03*
X151990000Y-82050000D03*
D19*
X151710000Y-82830000D03*
X151710000Y-83330000D03*
X151710000Y-83830000D03*
%TD*%
D20*
%TO.C,POGO1*%
X168960800Y-43586400D03*
D21*
X168960800Y-41046400D03*
X171500800Y-43586400D03*
X171500800Y-41046400D03*
X174040800Y-43586400D03*
X174040800Y-41046400D03*
X176580800Y-43586400D03*
X176580800Y-41046400D03*
X179120800Y-43586400D03*
X179120800Y-41046400D03*
X181660800Y-43586400D03*
X181660800Y-41046400D03*
%TD*%
M02*
